# 由 henjicc/yipiantian 的 lingcao_huichun_mature 转换而来（见 manifest.json）
mtllib lingcao_huichun_mature.mtl
o lingcao_huichun_mature
v -0.19429 0.17067 -0.07689
v -0.20101 0.17987 -0.06809
v -0.21417 0.18740 -0.05748
v -0.21271 0.19219 -0.04773
v -0.20683 0.19721 -0.02969
v -0.20616 0.19967 0.02381
v -0.19824 0.19694 0.03465
v -0.20160 0.21317 -0.00211
v -0.20917 0.20835 0.01176
v -0.18560 0.16926 -0.08033
v -0.18014 0.18010 -0.07275
v -0.17167 0.18720 0.04827
v -0.17251 0.18684 0.05240
v -0.17208 0.18658 0.09366
v -0.18253 0.18451 0.10695
v -0.18790 0.18639 0.12223
v -0.17782 0.19189 -0.06067
v -0.18251 0.19726 -0.04612
v -0.17864 0.19769 -0.02283
v -0.17235 0.20234 -0.00997
v -0.18349 0.20308 0.01871
v -0.18312 0.19468 0.04200
v -0.17411 0.19170 0.10901
v -0.18297 0.19238 0.13140
v -0.17867 0.19962 0.14802
v -0.18359 0.20278 0.17361
v -0.18343 0.20331 0.18878
v -0.18186 0.20870 -0.01645
v -0.18329 0.20850 -0.01280
v -0.17235 0.20674 0.17411
v -0.17984 0.20653 0.20014
v -0.17333 0.20821 0.20684
v -0.15005 0.10381 -0.02409
v -0.14938 0.10810 -0.00903
v -0.14652 0.15214 0.04657
v -0.14651 0.15154 0.05281
v -0.16047 0.18062 -0.07847
v -0.14871 0.18694 -0.00023
v -0.15659 0.18758 0.02062
v -0.16088 0.18285 0.04051
v -0.16786 0.18447 0.05110
v -0.15906 0.18452 0.08857
v -0.15144 0.18779 0.09663
v -0.16102 0.19111 -0.06673
v -0.15185 0.19901 -0.04405
v -0.15528 0.19756 -0.02520
v -0.15688 0.19297 -0.00793
v -0.16404 0.19629 0.00811
v -0.16864 0.18915 0.03039
v -0.16069 0.19345 0.10783
v -0.15232 0.19365 0.13512
v -0.15963 0.19676 0.14354
v -0.15105 0.20583 -0.02814
v -0.15984 0.21270 0.17792
v -0.15821 0.20911 0.20161
v -0.16532 0.20870 0.20684
v -0.12987 0.04393 0.00127
v -0.12687 0.04353 0.01155
v -0.13636 0.05827 -0.01835
v -0.13344 0.05248 -0.00720
v -0.12649 0.05528 0.02109
v -0.12415 0.06220 0.02895
v -0.13967 0.06996 -0.02754
v -0.13282 0.06970 -0.00183
v -0.12569 0.06808 0.02093
v -0.12286 0.06693 0.03214
v -0.13981 0.08527 -0.03349
v -0.12929 0.08754 -0.00362
v -0.12936 0.10910 -0.04035
v -0.13769 0.10560 -0.03252
v -0.13571 0.10572 -0.00562
v -0.12574 0.10997 0.01050
v -0.12272 0.11334 -0.03898
v -0.13003 0.11351 -0.02281
v -0.13766 0.11156 -0.00190
v -0.13397 0.11058 0.00938
v -0.12899 0.15007 -0.11440
v -0.13034 0.15672 -0.10445
v -0.14545 0.15489 0.04465
v -0.14289 0.15530 0.06053
v -0.12632 0.16014 -0.09950
v -0.12918 0.16364 -0.05048
v -0.12474 0.16671 -0.03278
v -0.12369 0.17176 0.00127
v -0.13950 0.16408 0.04051
v -0.13406 0.16329 0.06524
v -0.12793 0.16324 0.07740
v -0.14499 0.18720 -0.07728
v -0.13423 0.17992 -0.05640
v -0.13457 0.18323 -0.02563
v -0.13417 0.18076 -0.00218
v -0.12975 0.18089 0.03369
v -0.12526 0.17763 0.05501
v -0.14055 0.18478 0.08947
v -0.13822 0.18831 0.09871
v -0.12565 0.18785 0.12294
v -0.13784 0.19494 -0.07079
v -0.14174 0.19435 -0.05322
v -0.14460 0.19482 -0.03762
v -0.12502 0.19302 0.03027
v -0.12604 0.20222 0.06385
v -0.13503 0.19121 0.11015
v -0.13519 0.19333 0.13105
v -0.13184 0.20267 0.14802
v -0.13263 0.20833 -0.04827
v -0.13747 0.21133 -0.03263
v -0.12311 0.20616 0.02775
v -0.12877 0.20618 0.04263
v -0.13002 0.20553 0.05473
v -0.13106 0.20736 0.15813
v -0.13151 0.21058 0.17290
v -0.13389 0.20921 0.20027
v -0.12031 0.07435 0.03641
v -0.11930 0.08969 0.01778
v -0.11705 0.08954 0.03713
v -0.11477 0.10572 0.00244
v -0.11470 0.10392 0.01839
v -0.11242 0.09785 0.03612
v -0.11501 0.11780 -0.04566
v -0.10824 0.12208 -0.02454
v -0.10758 0.11818 -0.00828
v -0.10680 0.11286 0.01106
v -0.10280 0.13005 -0.04059
v -0.10522 0.13017 -0.02990
v -0.11086 0.14898 -0.12352
v -0.10738 0.16082 -0.10894
v -0.11486 0.16675 -0.09062
v -0.10578 0.17149 -0.07675
v -0.11996 0.16740 -0.02465
v -0.11225 0.16482 0.00281
v -0.11330 0.16759 0.08635
v -0.11047 0.17092 0.10099
v -0.12113 0.17465 -0.00083
v -0.12174 0.18759 0.04289
v -0.10628 0.17993 0.06432
v -0.10949 0.17669 0.08076
v -0.11004 0.17928 0.10701
v -0.11645 0.18391 0.12052
v -0.11396 0.19629 0.04081
v -0.11093 0.19441 0.06352
v -0.11308 0.19386 0.12954
v -0.11824 0.19682 0.15113
v -0.11582 0.20141 0.17339
v -0.11273 0.21294 0.02479
v -0.11297 0.20922 0.03450
v -0.11336 0.20772 0.17718
v -0.11392 0.20838 0.18906
v -0.10005 0.22042 0.03000
v -0.07921 0.02572 0.17311
v -0.08002 0.04315 -0.06523
v -0.08906 0.04543 0.15960
v -0.08770 0.03662 0.16639
v -0.08129 0.04807 -0.06146
v -0.07972 0.04980 -0.05706
v -0.08302 0.06168 0.11454
v -0.09285 0.05807 0.12982
v -0.08602 0.05613 0.15306
v -0.07797 0.06312 0.11089
v -0.08109 0.06409 0.12379
v -0.08051 0.06390 0.14001
v -0.09310 0.10773 0.02397
v -0.09588 0.10307 0.03223
v -0.08501 0.11787 -0.04188
v -0.07928 0.11459 -0.02832
v -0.08988 0.11986 -0.00313
v -0.09305 0.11399 0.01088
v -0.08205 0.13550 -0.15726
v -0.09008 0.14089 -0.14802
v -0.09553 0.12886 -0.04351
v -0.09849 0.13014 -0.03488
v -0.07954 0.12813 0.00006
v -0.08852 0.13923 0.07074
v -0.08383 0.13991 0.07435
v -0.09013 0.14909 -0.13434
v -0.08627 0.15232 -0.12594
v -0.09282 0.14617 0.00283
v -0.09204 0.14714 0.00713
v -0.08461 0.14265 0.07044
v -0.08102 0.16240 -0.13145
v -0.08803 0.16395 -0.11397
v -0.08535 0.16539 -0.09144
v -0.08502 0.16238 -0.07025
v -0.08773 0.16527 -0.05435
v -0.07807 0.16556 -0.00254
v -0.07710 0.16947 0.01000
v -0.08021 0.17578 -0.05004
v -0.07523 0.17391 0.01553
v -0.08334 0.18394 0.05700
v -0.08456 0.18389 0.08470
v -0.09144 0.18177 0.10020
v -0.08553 0.19933 -0.00631
v -0.07924 0.20273 0.01344
v -0.08279 0.19861 0.04009
v -0.08418 0.19390 0.06079
v -0.07582 0.20278 0.07460
v -0.08464 0.19993 0.12916
v -0.07758 0.20342 0.14411
v -0.08179 0.20112 0.17823
v -0.09034 0.20335 0.18515
v -0.08831 0.21483 0.03862
v -0.08625 0.20608 0.15326
v -0.08899 0.20596 0.17418
v -0.09472 0.20474 0.18549
v -0.09673 0.22062 0.03185
v -0.06270 0.01042 0.17991
v -0.06825 0.02030 0.17725
v -0.07071 0.04498 -0.07338
v -0.06190 0.03532 0.17342
v -0.06292 0.05304 -0.07390
v -0.06931 0.05621 -0.05269
v -0.05393 0.06273 0.13864
v -0.06305 0.05911 0.15025
v -0.05296 0.04866 0.16932
v -0.06468 0.06370 -0.06243
v -0.06533 0.06911 -0.04817
v -0.07227 0.07450 -0.03613
v -0.06427 0.06530 0.11272
v -0.06397 0.06631 0.12903
v -0.06120 0.08579 -0.02639
v -0.05546 0.08620 -0.01022
v -0.05217 0.09595 -0.00107
v -0.06351 0.10865 0.04954
v -0.06025 0.12147 -0.17012
v -0.07439 0.11259 -0.02628
v -0.07298 0.12213 0.00264
v -0.07191 0.12272 0.00733
v -0.06106 0.11304 0.04602
v -0.05882 0.11119 0.05149
v -0.06576 0.13220 -0.16358
v -0.06408 0.12905 0.00227
v -0.05797 0.14597 -0.15421
v -0.06282 0.15193 -0.14392
v -0.06590 0.15594 -0.12071
v -0.05588 0.15303 -0.08961
v -0.05603 0.15353 -0.08209
v -0.06748 0.16421 -0.13057
v -0.06658 0.16489 -0.11642
v -0.06592 0.16107 -0.09692
v -0.06381 0.16406 -0.07766
v -0.07412 0.17179 -0.00909
v -0.07426 0.17176 0.00635
v -0.05527 0.17022 0.04277
v -0.06097 0.17294 0.05129
v -0.05743 0.17843 -0.06705
v -0.06620 0.18160 -0.05415
v -0.06393 0.17946 -0.00906
v -0.06450 0.17953 0.01503
v -0.05949 0.17676 0.04073
v -0.06869 0.18183 0.05310
v -0.05768 0.19846 -0.02084
v -0.06322 0.19704 -0.00521
v -0.06079 0.20255 0.02012
v -0.06790 0.20107 0.04306
v -0.07005 0.19730 0.05707
v -0.07455 0.20420 0.07582
v -0.06629 0.20091 0.13303
v -0.06429 0.20319 0.14905
v -0.07169 0.20073 0.16727
v -0.06286 0.20517 0.01596
v -0.06268 0.20704 0.04006
v -0.05687 0.20986 0.05814
v -0.06194 0.20940 0.07670
v -0.05198 0.21514 0.11656
v -0.05178 0.21514 0.12164
v -0.07181 0.20540 0.15249
v -0.04811 0.01243 0.18234
v -0.04056 0.02054 0.18269
v -0.03414 0.03646 0.18012
v -0.04841 0.05965 -0.07831
v -0.02892 0.06077 0.08647
v -0.03517 0.06175 0.10445
v -0.05159 0.06155 0.13962
v -0.03955 0.06113 0.15507
v -0.03390 0.05755 0.16873
v -0.04398 0.06677 -0.06888
v -0.04491 0.07608 -0.05240
v -0.03625 0.06776 -0.00137
v -0.03541 0.07637 0.02984
v -0.03099 0.06448 0.08522
v -0.03753 0.06503 0.10982
v -0.04028 0.06541 0.12674
v -0.03588 0.06663 0.14744
v -0.03725 0.08239 -0.07157
v -0.03777 0.08082 -0.04808
v -0.03931 0.08489 -0.02891
v -0.04451 0.08611 -0.00894
v -0.03459 0.07953 0.02476
v -0.03717 0.08906 0.13160
v -0.03359 0.08585 0.14716
v -0.05081 0.09614 0.00401
v -0.02986 0.09836 0.11601
v -0.03299 0.09591 0.12265
v -0.02931 0.09614 0.14040
v -0.04675 0.12097 -0.17043
v -0.04078 0.11985 0.00278
v -0.03596 0.11764 0.00635
v -0.02833 0.12565 0.03039
v -0.03731 0.13180 -0.16678
v -0.04553 0.13991 -0.06908
v -0.03180 0.12951 -0.05203
v -0.04944 0.12692 0.00449
v -0.03241 0.14893 -0.15708
v -0.04885 0.15261 -0.08679
v -0.04537 0.14521 -0.07421
v -0.03918 0.14978 0.03928
v -0.03431 0.16918 -0.13223
v -0.04052 0.16786 -0.11853
v -0.04112 0.16359 -0.09816
v -0.03318 0.16103 -0.01833
v -0.03327 0.16765 -0.00461
v -0.04118 0.17058 0.02047
v -0.04972 0.17190 0.02946
v -0.02865 0.17329 -0.12918
v -0.03698 0.17592 -0.11944
v -0.04536 0.18040 0.00076
v -0.04160 0.17797 0.01671
v -0.04001 0.17775 0.03549
v -0.04782 0.19792 -0.01936
v -0.04449 0.19367 -0.00667
v -0.04446 0.19937 0.01838
v -0.03939 0.19188 0.04390
v -0.03824 0.19121 0.05782
v -0.04607 0.21175 0.06424
v -0.04501 0.21538 0.08657
v -0.04580 0.21501 0.11091
v -0.04019 0.21587 0.12960
v -0.00827 0.00835 -0.00362
v -0.00775 0.00762 0.00802
v -0.00752 0.01873 -0.00307
v -0.01006 0.02755 0.01534
v -0.01369 0.04023 -0.00849
v -0.01256 0.04129 0.01835
v -0.00870 0.04074 0.03048
v -0.02197 0.03954 0.18387
v -0.02091 0.03827 0.18460
v -0.01466 0.05660 -0.01840
v -0.01016 0.05227 -0.00938
v -0.01377 0.04890 0.01124
v -0.01553 0.05300 0.04700
v -0.02208 0.05989 0.06693
v -0.01623 0.05900 0.15952
v -0.01492 0.05645 0.17919
v -0.01915 0.07268 -0.02249
v -0.00830 0.07758 0.01280
v -0.02579 0.06370 0.08725
v -0.01223 0.06483 0.12928
v -0.01691 0.06683 0.14885
v -0.01215 0.07225 0.17702
v -0.00547 0.07162 0.18515
v -0.02449 0.08459 -0.06711
v -0.02076 0.08697 -0.04855
v -0.02377 0.08094 -0.02977
v -0.00957 0.08383 -0.00442
v -0.00860 0.08608 0.00713
v -0.02377 0.09226 0.15244
v -0.01952 0.08708 0.17204
v -0.01417 0.10606 -0.02814
v -0.01557 0.10377 0.00324
v -0.01766 0.10345 0.01540
v -0.02050 0.10510 0.10886
v -0.01976 0.10531 0.13126
v -0.01326 0.09941 0.15033
v -0.01700 0.12526 -0.10757
v -0.02149 0.11614 -0.04061
v -0.02514 0.11731 -0.03709
v -0.00915 0.12038 0.00139
v -0.00895 0.11095 0.10835
v -0.00782 0.11275 0.12340
v -0.02677 0.14011 -0.16297
v -0.01264 0.12827 -0.10980
v -0.01578 0.13195 -0.09481
v -0.00700 0.13581 -0.08182
v -0.01058 0.13667 -0.00131
v -0.01309 0.13112 0.01508
v -0.02345 0.12770 0.03136
v -0.01813 0.15043 -0.15838
v -0.01810 0.15587 -0.02063
v -0.01480 0.15162 -0.00120
v -0.00774 0.14710 0.01219
v -0.01589 0.16007 -0.15278
v -0.01000 0.17124 -0.13643
v -0.01368 0.16567 -0.11365
v -0.02226 0.16414 -0.10031
v -0.01807 0.16423 -0.05062
v -0.01363 0.16358 -0.02887
v -0.01940 0.16321 0.00020
v -0.01589 0.16628 0.02089
v -0.02167 0.17215 0.03019
v -0.01658 0.17461 -0.13119
v -0.02267 0.17611 -0.12643
v -0.00503 0.17367 -0.04988
v -0.00964 0.18542 -0.02966
v -0.00623 0.18019 0.00368
v -0.01426 0.17513 0.02646
v -0.01798 0.18244 0.04058
v -0.01766 0.18702 0.05263
v -0.00508 0.18837 0.08295
v -0.00536 0.19569 0.00392
v -0.01681 0.19395 0.06229
v -0.01201 0.19574 0.08189
v -0.00625 0.20107 0.10386
v -0.00625 0.20694 -0.01798
v -0.01044 0.20735 -0.00649
v -0.00537 0.21280 0.01456
v -0.02510 0.21191 0.06830
v -0.01807 0.20909 0.08158
v -0.01460 0.20939 0.10660
v -0.01772 0.21362 0.12621
v -0.01627 0.22914 0.13138
v -0.02611 0.23405 0.14362
v -0.01172 0.23683 0.13366
v -0.02060 0.24511 0.15294
v -0.00915 0.25411 0.16111
v 0.00509 0.00930 -0.00355
v 0.00343 0.00722 0.00977
v 0.00263 0.01976 -0.00180
v 0.00313 0.02369 0.01028
v 0.00726 0.03986 -0.00144
v 0.00925 0.04090 0.00963
v 0.00528 0.05577 -0.00300
v 0.00576 0.04930 0.01484
v -0.00015 0.06155 0.13480
v 0.00214 0.05676 0.15016
v 0.00238 0.06971 0.00068
v 0.00832 0.06846 0.01434
v 0.01544 0.06331 0.02960
v 0.01208 0.06930 0.18305
v 0.00369 0.06679 0.18526
v -0.00371 0.08207 -0.01729
v 0.00187 0.08863 -0.00134
v 0.00410 0.08686 0.02658
v 0.00847 0.08298 0.03371
v 0.00537 0.08417 0.17811
v 0.00567 0.10366 -0.01710
v 0.00421 0.10103 -0.00219
v 0.01593 0.10228 0.04888
v 0.01198 0.10362 0.06060
v 0.01580 0.10420 0.07960
v 0.01166 0.09851 0.10675
v 0.01070 0.10274 0.13009
v 0.00170 0.10396 0.14727
v 0.00801 0.09575 0.16776
v 0.01050 0.11839 -0.14345
v 0.00960 0.11844 -0.02521
v 0.00553 0.11899 -0.00780
v -0.00283 0.12037 0.00840
v 0.00508 0.12291 0.04455
v 0.01017 0.11822 0.10540
v 0.00789 0.11555 0.12403
v 0.00346 0.13279 -0.13462
v 0.00444 0.13499 -0.11263
v 0.01085 0.13890 -0.09694
v 0.00768 0.13890 -0.07896
v 0.01618 0.13429 -0.04627
v 0.01304 0.12903 -0.03197
v 0.00975 0.13468 -0.01143
v -0.00371 0.13298 0.00918
v 0.00465 0.14441 -0.11422
v 0.01583 0.14538 -0.09995
v 0.01204 0.14835 -0.01742
v 0.00949 0.14484 -0.01226
v -0.00338 0.16830 -0.13027
v -0.00379 0.16274 -0.11986
v 0.01598 0.16801 -0.04029
v 0.00531 0.16637 -0.02452
v 0.01144 0.16961 -0.00230
v 0.01045 0.17113 0.01212
v 0.00679 0.16319 0.06501
v 0.01290 0.18876 -0.06136
v -0.00323 0.17519 -0.04353
v 0.00415 0.18205 -0.02691
v 0.00353 0.18220 0.00392
v 0.00895 0.17548 0.01774
v 0.00315 0.17692 0.03972
v 0.00294 0.18034 0.06544
v 0.00350 0.18387 0.07933
v 0.01018 0.19054 -0.06134
v 0.00879 0.19458 -0.05139
v 0.01115 0.19154 -0.03378
v 0.00008 0.19846 0.00362
v 0.00541 0.20342 0.00681
v -0.00391 0.18915 0.05911
v 0.00290 0.19260 0.08323
v -0.00140 0.19745 0.10562
v 0.00033 0.20234 0.11995
v 0.00879 0.20644 -0.01982
v 0.01206 0.20904 -0.00457
v 0.00201 0.21146 0.01301
v 0.01661 0.21124 0.09468
v 0.01490 0.21243 0.10082
v -0.00251 0.20713 0.12365
v 0.00639 0.22380 0.02293
v 0.01325 0.22788 0.03069
v 0.01622 0.22646 0.11201
v 0.00479 0.23332 0.11979
v 0.01200 0.24237 0.12909
v 0.00718 0.23949 0.15280
v -0.00137 0.24311 0.17461
v 0.00845 0.25582 0.15295
v 0.01096 0.25406 0.17966
v 0.00586 0.25364 0.18456
v 0.02062 0.04289 -0.00537
v 0.02364 0.05403 -0.00410
v 0.02745 0.07113 -0.00586
v 0.02157 0.06957 0.01765
v 0.02189 0.07680 0.03928
v 0.02683 0.07316 0.17649
v 0.03947 0.09258 -0.14407
v 0.03596 0.08603 -0.01006
v 0.02524 0.08765 0.04566
v 0.02891 0.09225 0.05450
v 0.03396 0.09375 0.12746
v 0.04123 0.08842 0.16063
v 0.03224 0.08249 0.16876
v 0.03170 0.10111 -0.14320
v 0.03288 0.10024 0.01847
v 0.02440 0.09735 0.04794
v 0.03060 0.09967 0.06399
v 0.02833 0.10294 0.08003
v 0.03199 0.10292 0.10419
v 0.02929 0.09746 0.12531
v 0.03747 0.10351 0.14932
v 0.02482 0.09458 0.16287
v 0.02475 0.11347 -0.13975
v 0.02579 0.11041 0.13854
v 0.02770 0.13381 -0.11529
v 0.03016 0.13871 -0.09219
v 0.02741 0.13952 -0.06965
v 0.02208 0.13740 -0.05396
v 0.02973 0.14079 -0.01644
v 0.02502 0.13680 -0.01374
v 0.02329 0.14340 -0.09425
v 0.02267 0.14167 -0.08178
v 0.02398 0.14698 -0.01805
v 0.02059 0.15132 -0.00337
v 0.02520 0.16752 -0.04129
v 0.02989 0.16460 -0.03068
v 0.02558 0.16803 -0.00042
v 0.02153 0.18701 -0.02937
v 0.03310 0.17828 -0.00062
v 0.02674 0.18135 0.01021
v 0.03682 0.19151 -0.02825
v 0.03044 0.20178 -0.00431
v 0.03261 0.19977 0.01068
v 0.02198 0.20923 -0.00005
v 0.02171 0.20500 0.00965
v 0.02205 0.22303 0.00418
v 0.02731 0.22862 0.01949
v 0.02280 0.22918 0.03009
v 0.03561 0.23092 0.08214
v 0.02302 0.22990 0.10970
v 0.02267 0.23488 0.12066
v 0.03791 0.23723 0.08920
v 0.03417 0.24172 0.10923
v 0.02424 0.24391 0.12937
v 0.02081 0.25032 0.14177
v 0.03791 0.25677 0.11422
v 0.03525 0.25481 0.12655
v 0.03037 0.25808 0.15230
v 0.02843 0.25991 0.17240
v 0.03962 0.25608 0.18583
v 0.05546 0.08629 -0.13980
v 0.06055 0.09316 0.08781
v 0.05308 0.09198 0.13050
v 0.04299 0.09106 0.15877
v 0.05361 0.10265 -0.13265
v 0.06097 0.10572 -0.12653
v 0.04397 0.10122 -0.01632
v 0.04644 0.09998 -0.01352
v 0.05377 0.10871 0.04601
v 0.05328 0.10547 0.06050
v 0.05581 0.10287 0.08491
v 0.05976 0.10302 0.11060
v 0.06072 0.09769 0.12221
v 0.04279 0.09458 0.15603
v 0.04729 0.11451 -0.12848
v 0.05608 0.11822 -0.11825
v 0.06038 0.11706 -0.01776
v 0.06216 0.11760 -0.01439
v 0.04665 0.12394 0.02374
v 0.05582 0.13417 -0.09715
v 0.05624 0.13845 -0.07131
v 0.05889 0.13509 -0.05726
v 0.04299 0.12623 0.02355
v 0.05999 0.14538 0.02628
v 0.05882 0.14480 0.03065
v 0.06011 0.18607 -0.03327
v 0.05141 0.18685 -0.00207
v 0.04994 0.19022 -0.03076
v 0.05565 0.19434 -0.00662
v 0.05545 0.19925 0.01382
v 0.05662 0.23188 0.06971
v 0.05403 0.23410 0.07777
v 0.05485 0.24222 0.08881
v 0.05211 0.24911 0.10894
v 0.06229 0.25112 0.18213
v 0.05628 0.26302 0.10967
v 0.05834 0.25634 0.12324
v 0.05725 0.25865 0.15392
v 0.05680 0.25387 0.17633
v 0.04875 0.25386 0.18622
v 0.06796 0.09239 -0.13192
v 0.08368 0.09060 0.04680
v 0.08500 0.08616 0.06266
v 0.07701 0.08693 0.08033
v 0.06846 0.09640 -0.12907
v 0.07678 0.10385 -0.12089
v 0.07467 0.10038 0.04372
v 0.07240 0.09995 0.05652
v 0.06707 0.10430 0.08830
v 0.06677 0.10588 0.10112
v 0.08165 0.11498 -0.10955
v 0.07648 0.12154 -0.10339
v 0.08930 0.12565 -0.08197
v 0.06957 0.12213 -0.01651
v 0.07577 0.12200 -0.00961
v 0.07850 0.12166 0.01423
v 0.07687 0.13204 -0.09731
v 0.07947 0.13026 -0.07091
v 0.07794 0.13175 -0.05008
v 0.08132 0.13155 -0.02295
v 0.07584 0.12682 -0.01454
v 0.08852 0.15633 0.07631
v 0.07775 0.16612 0.03765
v 0.08598 0.16643 0.06799
v 0.08676 0.15828 0.07377
v 0.06769 0.18478 -0.02461
v 0.06936 0.18723 -0.01039
v 0.08443 0.17591 0.04182
v 0.08780 0.17587 0.05826
v 0.06985 0.19737 -0.00102
v 0.06831 0.20000 0.00973
v 0.08926 0.19545 0.08881
v 0.06921 0.22914 0.07173
v 0.07972 0.22584 0.08397
v 0.08769 0.22916 0.10246
v 0.08333 0.24030 0.11050
v 0.07943 0.24863 0.12054
v 0.08351 0.25078 0.15951
v 0.07694 0.24761 0.17449
v 0.06891 0.26712 0.11272
v 0.07803 0.26080 0.12614
v 0.07969 0.25612 0.14921
v 0.07074 0.25481 0.16424
v 0.07308 0.26751 0.11353
v 0.09023 0.12521 -0.08681
v 0.10810 0.12301 -0.04606
v 0.10360 0.12264 -0.00676
v 0.10278 0.11930 0.01369
v 0.09008 0.12643 -0.09116
v 0.09526 0.12925 -0.04425
v 0.09857 0.12884 -0.02663
v 0.09666 0.12734 -0.01251
v 0.09409 0.15337 0.08555
v 0.10097 0.15508 0.10079
v 0.09497 0.16141 0.08791
v 0.10469 0.16472 0.10468
v 0.09291 0.18363 0.04709
v 0.09775 0.18447 0.06113
v 0.10274 0.18382 0.08484
v 0.10826 0.18170 0.10189
v 0.09884 0.19556 0.04692
v 0.10449 0.19147 0.06209
v 0.10219 0.19188 0.08402
v 0.10246 0.19399 0.10530
v 0.11182 0.21299 0.04279
v 0.11158 0.22179 0.03429
v 0.08984 0.22736 0.10479
v 0.13079 0.10832 -0.03918
v 0.13463 0.10694 -0.03311
v 0.12161 0.11429 -0.04225
v 0.12944 0.11497 -0.02595
v 0.12223 0.11903 -0.00539
v 0.11314 0.11724 0.00733
v 0.13121 0.18527 0.11519
v 0.12565 0.20342 0.05071
v 0.12757 0.19478 0.06056
v 0.12471 0.19283 0.08397
v 0.12197 0.19129 0.10437
v 0.12287 0.21045 0.04410
v 0.12618 0.23085 0.01950
v 0.11373 0.22648 0.02882
v 0.15751 0.18585 0.08902
v 0.14770 0.18044 0.10812
v 0.15418 0.20234 0.00352
v 0.15594 0.20225 0.00772
v 0.14717 0.19352 0.06545
v 0.14947 0.19085 0.07922
v 0.14792 0.21039 0.00472
v 0.15188 0.20992 0.01676
v 0.14460 0.21296 0.03801
v 0.13907 0.22687 0.01117
v 0.18046 0.18676 0.02643
v 0.18234 0.18708 0.04119
v 0.17288 0.18766 0.06263
v 0.16880 0.19745 0.01786
v 0.17276 0.19496 0.04280
v 0.16844 0.18915 0.06146
v 0.16063 0.20498 0.03859
v 0.18368 0.18603 0.03547
vt 0.20755 0.10409
vt 0.68704 0.48680
vt 0.61554 0.26653
vt 0.59629 0.25861
vt 0.56460 0.24221
vt 0.19878 0.48890
vt 0.18239 0.47042
vt 0.14509 0.71060
vt 0.16536 0.79539
vt 0.40669 0.22223
vt 0.69615 0.29870
vt 0.17752 0.77059
vt 0.18384 0.77526
vt 0.07345 0.83620
vt 0.11880 0.65287
vt 0.05885 0.58942
vt 0.63521 0.20236
vt 0.60438 0.20359
vt 0.52460 0.28399
vt 0.10672 0.68201
vt 0.15107 0.73806
vt 0.16757 0.80723
vt 0.08562 0.80776
vt 0.08548 0.72655
vt 0.41831 0.74722
vt 0.48234 0.70251
vt 0.47782 0.67623
vt 0.10951 0.65862
vt 0.11564 0.66202
vt 0.50444 0.69853
vt 0.33167 0.46137
vt 0.49265 0.64153
vt 0.37345 0.14707
vt 0.79599 0.14850
vt 0.84464 0.11517
vt 0.83836 0.12508
vt 0.55255 0.15120
vt 0.16660 0.75130
vt 0.42355 0.45964
vt 0.31944 0.61001
vt 0.17656 0.78048
vt 0.40306 0.37209
vt 0.44758 0.53914
vt 0.65405 0.17584
vt 0.58262 0.47785
vt 0.57067 0.65217
vt 0.24661 0.73850
vt 0.12221 0.71784
vt 0.15102 0.74939
vt 0.30973 0.65670
vt 0.13159 0.55777
vt 0.30230 0.69591
vt 0.43658 0.23205
vt 0.52201 0.72787
vt 0.44667 0.62395
vt 0.50683 0.64130
vt 0.80981 0.30313
vt 0.80257 0.32213
vt 0.55918 0.25506
vt 0.58193 0.27483
vt 0.37514 0.37552
vt 0.16407 0.38865
vt 0.75155 0.28324
vt 0.60890 0.44212
vt 0.43786 0.56939
vt 0.34092 0.62099
vt 0.49616 0.63002
vt 0.41578 0.64377
vt 0.79182 0.21846
vt 0.63796 0.36029
vt 0.62849 0.38624
vt 0.85812 0.17476
vt 0.80592 0.22417
vt 0.74630 0.29260
vt 0.83586 0.16767
vt 0.84202 0.15223
vt 0.26219 0.75219
vt 0.26195 0.83823
vt 0.84252 0.10883
vt 0.82172 0.13099
vt 0.23503 0.65527
vt 0.30964 0.43564
vt 0.74283 0.66826
vt 0.06053 0.22584
vt 0.71838 0.13803
vt 0.79713 0.16034
vt 0.77514 0.19529
vt 0.68230 0.15400
vt 0.60893 0.71910
vt 0.87176 0.84089
vt 0.26144 0.43136
vt 0.80877 0.05762
vt 0.78342 0.37774
vt 0.93803 0.06340
vt 0.87484 0.25864
vt 0.12771 0.37228
vt 0.66948 0.13425
vt 0.64934 0.67296
vt 0.83513 0.83680
vt 0.79383 0.03702
vt 0.94752 0.43879
vt 0.57427 0.34335
vt 0.51455 0.44786
vt 0.60346 0.69426
vt 0.62440 0.11077
vt 0.59315 0.11430
vt 0.94810 0.33936
vt 0.78102 0.32273
vt 0.78000 0.39779
vt 0.61741 0.63613
vt 0.61492 0.59243
vt 0.38245 0.53878
vt 0.34398 0.60511
vt 0.38963 0.60717
vt 0.52689 0.58238
vt 0.43226 0.60113
vt 0.79460 0.48921
vt 0.86704 0.36041
vt 0.57536 0.21006
vt 0.91336 0.19365
vt 0.65365 0.35342
vt 0.88081 0.10932
vt 0.58248 0.29301
vt 0.84093 0.40559
vt 0.24419 0.68076
vt 0.23751 0.80119
vt 0.21563 0.81723
vt 0.17228 0.66765
vt 0.42235 0.30814
vt 0.18703 0.30045
vt 0.66001 0.56563
vt 0.31512 0.48135
vt 0.26470 0.23070
vt 0.78254 0.06096
vt 0.72894 0.46978
vt 0.63760 0.40470
vt 0.46138 0.40011
vt 0.43427 0.45985
vt 0.66705 0.32430
vt 0.84463 0.54923
vt 0.74314 0.74399
vt 0.73684 0.75501
vt 0.75630 0.71806
vt 0.91730 0.53099
vt 0.74234 0.62048
vt 0.67091 0.70329
vt 0.65114 0.68118
vt 0.49379 0.77576
vt 0.20280 0.72066
vt 0.40860 0.90037
vt 0.25186 0.72025
vt 0.23129 0.72592
vt 0.29184 0.75075
vt 0.12525 0.64819
vt 0.37000 0.74433
vt 0.28829 0.53700
vt 0.35053 0.42268
vt 0.37112 0.73226
vt 0.35263 0.74847
vt 0.60199 0.76728
vt 0.85101 0.12874
vt 0.85361 0.14549
vt 0.91278 0.56489
vt 0.41249 0.32412
vt 0.59485 0.34894
vt 0.85506 0.10477
vt 0.63365 0.34667
vt 0.64150 0.52047
vt 0.88526 0.55703
vt 0.88673 0.53994
vt 0.35993 0.45264
vt 0.23708 0.31390
vt 0.27948 0.15917
vt 0.47708 0.60573
vt 0.42898 0.62263
vt 0.11483 0.25059
vt 0.30723 0.23187
vt 0.26222 0.33241
vt 0.23200 0.73538
vt 0.21866 0.76831
vt 0.51897 0.58190
vt 0.41554 0.56356
vt 0.28154 0.27215
vt 0.51213 0.70169
vt 0.48424 0.63025
vt 0.56777 0.61510
vt 0.76205 0.96182
vt 0.51560 0.31360
vt 0.83026 0.25852
vt 0.81620 0.28616
vt 0.71785 0.77451
vt 0.39250 0.50291
vt 0.20010 0.87506
vt 0.59201 0.70858
vt 0.70219 0.91089
vt 0.42095 0.43572
vt 0.80183 0.79757
vt 0.30113 0.75104
vt 0.28258 0.86680
vt 0.49040 0.80497
vt 0.70447 0.67197
vt 0.52344 0.59460
vt 0.66732 0.75145
vt 0.49033 0.78173
vt 0.20890 0.23770
vt 0.18385 0.57554
vt 0.33828 0.54673
vt 0.20306 0.68359
vt 0.43102 0.46112
vt 0.14168 0.78686
vt 0.48179 0.52754
vt 0.42504 0.46690
vt 0.21940 0.65734
vt 0.52103 0.64667
vt 0.29133 0.59630
vt 0.22586 0.91293
vt 0.67314 0.63487
vt 0.49233 0.65587
vt 0.38863 0.51355
vt 0.19170 0.26330
vt 0.41077 0.13987
vt 0.23269 0.31611
vt 0.26793 0.31078
vt 0.17383 0.15224
vt 0.26787 0.16738
vt 0.31746 0.23011
vt 0.24780 0.30882
vt 0.29330 0.25312
vt 0.50435 0.30847
vt 0.40992 0.40370
vt 0.58684 0.62208
vt 0.64185 0.46453
vt 0.59772 0.46203
vt 0.48815 0.34058
vt 0.29909 0.65120
vt 0.35285 0.63417
vt 0.41254 0.65876
vt 0.73615 0.34168
vt 0.71395 0.54251
vt 0.67315 0.94251
vt 0.71475 0.95690
vt 0.23481 0.25109
vt 0.04896 0.29046
vt 0.94259 0.93442
vt 0.94092 0.90423
vt 0.66389 0.57834
vt 0.74272 0.94437
vt 0.23928 0.20415
vt 0.19182 0.39119
vt 0.45531 0.19919
vt 0.52082 0.43306
vt 0.23389 0.35213
vt 0.18468 0.83439
vt 0.20447 0.36454
vt 0.70648 0.91085
vt 0.75866 0.77245
vt 0.48274 0.70944
vt 0.20562 0.62015
vt 0.27590 0.36873
vt 0.37855 0.82537
vt 0.58285 0.75070
vt 0.53627 0.67541
vt 0.78856 0.67160
vt 0.78660 0.66307
vt 0.51037 0.63439
vt 0.14371 0.09335
vt 0.17142 0.31461
vt 0.40775 0.52906
vt 0.95275 0.39481
vt 0.63839 0.20022
vt 0.69960 0.14706
vt 0.33552 0.40111
vt 0.16011 0.68839
vt 0.21844 0.61754
vt 0.95216 0.37079
vt 0.45678 0.69195
vt 0.37834 0.17990
vt 0.37769 0.48070
vt 0.44916 0.27441
vt 0.46778 0.48519
vt 0.55648 0.57524
vt 0.17124 0.50459
vt 0.49280 0.72584
vt 0.36188 0.53141
vt 0.47143 0.51367
vt 0.38627 0.40331
vt 0.38161 0.35309
vt 0.79962 0.62608
vt 0.88697 0.69116
vt 0.33005 0.22628
vt 0.89786 0.62192
vt 0.92436 0.72495
vt 0.73221 0.80689
vt 0.36912 0.35262
vt 0.56931 0.34889
vt 0.21704 0.68927
vt 0.26481 0.25760
vt 0.39026 0.95160
vt 0.39033 0.40498
vt 0.37355 0.47003
vt 0.28509 0.49799
vt 0.48321 0.68720
vt 0.44212 0.36140
vt 0.37673 0.61875
vt 0.25728 0.28214
vt 0.43933 0.19954
vt 0.34138 0.36720
vt 0.42446 0.32843
vt 0.55726 0.48830
vt 0.46269 0.47469
vt 0.79690 0.37112
vt 0.42833 0.15666
vt 0.37828 0.24373
vt 0.59842 0.39541
vt 0.39407 0.38346
vt 0.77968 0.66562
vt 0.62209 0.30048
vt 0.17866 0.32792
vt 0.48065 0.52438
vt 0.22344 0.66118
vt 0.30213 0.14775
vt 0.21909 0.17191
vt 0.32639 0.49608
vt 0.69440 0.60045
vt 0.69853 0.59898
vt 0.48402 0.40364
vt 0.37992 0.46748
vt 0.38060 0.36008
vt 0.42209 0.72318
vt 0.41141 0.44114
vt 0.66414 0.50621
vt 0.37536 0.48537
vt 0.45631 0.38972
vt 0.25503 0.38858
vt 0.29844 0.40241
vt 0.71785 0.58345
vt 0.61639 0.34101
vt 0.45937 0.30171
vt 0.37545 0.36622
vt 0.38560 0.33579
vt 0.11490 0.89615
vt 0.19163 0.58778
vt 0.53376 0.39135
vt 0.28210 0.20947
vt 0.41119 0.24659
vt 0.49588 0.63243
vt 0.37790 0.83199
vt 0.52247 0.31745
vt 0.71384 0.14736
vt 0.50051 0.74050
vt 0.62535 0.83007
vt 0.51370 0.38762
vt 0.35567 0.51556
vt 0.11800 0.49842
vt 0.85304 0.70155
vt 0.75577 0.12624
vt 0.33005 0.60090
vt 0.31063 0.33212
vt 0.21128 0.38331
vt 0.45942 0.33098
vt 0.75156 0.71526
vt 0.73952 0.63036
vt 0.32716 0.01937
vt 0.38374 0.53453
vt 0.43233 0.41227
vt 0.33226 0.37262
vt 0.52798 0.37439
vt 0.69501 0.66727
vt 0.40443 0.97106
vt 0.60572 0.69452
vt 0.63551 0.83467
vt 0.61935 0.81107
vt 0.39453 0.53894
vt 0.33632 0.31723
vt 0.28554 0.26575
vt 0.27750 0.39428
vt 0.33858 0.48557
vt 0.50009 0.60545
vt 0.46802 0.28760
vt 0.40394 0.37785
vt 0.40558 0.20925
vt 0.75781 0.77377
vt 0.70958 0.85513
vt 0.48461 0.80301
vt 0.34916 0.53691
vt 0.55635 0.61996
vt 0.45224 0.46041
vt 0.44347 0.26341
vt 0.26657 0.23424
vt 0.69801 0.60944
vt 0.44897 0.07419
vt 0.28856 0.26733
vt 0.70188 0.48322
vt 0.33742 0.45532
vt 0.21602 0.25493
vt 0.18092 0.12159
vt 0.64302 0.86357
vt 0.46631 0.28392
vt 0.50750 0.62567
vt 0.61650 0.82681
vt 0.44596 0.74365
vt 0.84782 0.09093
vt 0.70143 0.09456
vt 0.20824 0.46960
vt 0.37917 0.70481
vt 0.44434 0.72007
vt 0.49339 0.67384
vt 0.53609 0.44420
vt 0.31271 0.58033
vt 0.27238 0.47153
vt 0.32225 0.57536
vt 0.26541 0.48309
vt 0.42453 0.84363
vt 0.27051 0.50141
vt 0.35739 0.55662
vt 0.35504 0.58897
vt 0.41278 0.39935
vt 0.45436 0.40178
vt 0.41848 0.43252
vt 0.43633 0.42378
vt 0.35135 0.37632
vt 0.47469 0.92604
vt 0.31487 0.93868
vt 0.50913 0.40117
vt 0.30534 0.31854
vt 0.40268 0.12894
vt 0.45386 0.18215
vt 0.38049 0.17125
vt 0.26217 0.53795
vt 0.46199 0.34974
vt 0.15921 0.20699
vt 0.38681 0.28268
vt 0.70836 0.11350
vt 0.72472 0.49273
vt 0.41328 0.42162
vt 0.36089 0.32610
vt 0.49368 0.49061
vt 0.57282 0.51683
vt 0.52582 0.64571
vt 0.73066 0.38823
vt 0.65929 0.37417
vt 0.71828 0.08544
vt 0.52945 0.63924
vt 0.59446 0.38618
vt 0.33746 0.40858
vt 0.43924 0.24202
vt 0.15809 0.32376
vt 0.54770 0.29644
vt 0.68456 0.30981
vt 0.50008 0.62053
vt 0.65534 0.78397
vt 0.60951 0.73268
vt 0.62523 0.78417
vt 0.68227 0.24702
vt 0.62704 0.35767
vt 0.41777 0.30698
vt 0.69098 0.20330
vt 0.48297 0.58140
vt 0.49465 0.55090
vt 0.44719 0.48591
vt 0.34730 0.34034
vt 0.23360 0.16416
vt 0.29065 0.24639
vt 0.52712 0.28271
vt 0.30582 0.37525
vt 0.61959 0.56869
vt 0.22728 0.48695
vt 0.34553 0.52162
vt 0.34995 0.67956
vt 0.49610 0.08772
vt 0.55281 0.38344
vt 0.62455 0.55553
vt 0.40514 0.80242
vt 0.24425 0.31603
vt 0.46711 0.64550
vt 0.54712 0.62927
vt 0.35273 0.67405
vt 0.32913 0.53391
vt 0.49718 0.31991
vt 0.55036 0.49278
vt 0.95739 0.88914
vt 0.60510 0.88842
vt 0.47863 0.45386
vt 0.44903 0.75458
vt 0.45145 0.66492
vt 0.49983 0.12443
vt 0.56641 0.38825
vt 0.29771 0.58994
vt 0.10612 0.24656
vt 0.58206 0.53992
vt 0.42974 0.56845
vt 0.15657 0.76548
vt 0.16889 0.85978
vt 0.62366 0.46714
vt 0.45935 0.47829
vt 0.49887 0.39250
vt 0.32414 0.54667
vt 0.34065 0.46817
vt 0.58715 0.60295
vt 0.30196 0.58567
vt 0.30243 0.60232
vt 0.45343 0.46348
vt 0.33838 0.47279
vt 0.20098 0.49876
vt 0.31064 0.24783
vt 0.23240 0.21903
vt 0.56659 0.12398
vt 0.60240 0.63694
vt 0.19239 0.49129
vt 0.50698 0.45475
vt 0.53950 0.62289
vt 0.80517 0.38085
vt 0.66371 0.05985
vt 0.66932 0.08357
vt 0.58081 0.63506
vt 0.26180 0.18960
vt 0.56983 0.56449
vt 0.48934 0.64008
vt 0.37938 0.76463
vt 0.56327 0.62993
vt 0.80165 0.34286
vt 0.68705 0.03167
vt 0.69310 0.06775
vt 0.55541 0.62526
vt 0.71821 0.02273
vt 0.52994 0.57057
vt 0.49434 0.43107
vt 0.71473 0.37036
vt 0.69432 0.28844
vt 0.61955 0.05801
vt 0.96720 0.10288
vt 0.37806 0.58268
vt 0.60087 0.32194
vt 0.72394 0.30343
vt 0.60085 0.23752
vt 0.41212 0.24859
vt 0.28225 0.86026
vt 0.37623 0.25427
vt 0.48521 0.32899
vt 0.60029 0.48951
vt 0.92799 0.46429
vt 0.49290 0.57777
vt 0.47915 0.52563
vt 0.78164 0.34646
vt 0.60996 0.76057
vt 0.70621 0.41364
vt 0.21429 0.70636
vt 0.19745 0.70237
vt 0.18316 0.80835
vt 0.60410 0.09037
vt 0.62928 0.58624
vt 0.27524 0.72997
vt 0.60910 0.07268
vt 0.72507 0.28158
vt 0.47945 0.57531
vt 0.96450 0.01132
vt 0.72980 0.71542
vt 0.79802 0.66468
vt 0.42853 0.68177
vt 0.33615 0.34436
vt 0.43084 0.01016
vt 0.51362 0.56863
vt 0.76328 0.82459
vt 0.79612 0.34503
vt 0.66369 0.05287
vt 0.60905 0.59830
vt 0.61493 0.58009
vt 0.04250 0.42429
vt 0.23166 0.50206
vt 0.64852 0.58424
vt 0.63027 0.70056
vt 0.49654 0.84029
vt 0.76707 0.40477
vt 0.81301 0.33004
vt 0.66807 0.04560
vt 0.58496 0.58744
vt 0.59110 0.56185
vt 0.35755 0.42215
vt 0.48134 0.44509
vt 0.33477 0.27652
vt 0.53666 0.40161
vt 0.62810 0.36728
vt 0.21398 0.14821
vt 0.36827 0.39985
vt 0.57133 0.37053
vt 0.37834 0.31051
vt 0.08907 0.37256
vt 0.67536 0.62861
vt 0.20292 0.27204
vt 0.71242 0.35889
vt 0.86379 0.44001
vt 0.63881 0.28160
vt 0.71629 0.34602
vt 0.70503 0.28526
vt 0.65753 0.11277
vt 0.12878 0.45078
vt 0.67961 0.66107
vt 0.66349 0.44498
vt 0.25439 0.82926
vt 0.25565 0.44227
vt 0.43418 0.02278
vt 0.64205 0.59333
vt 0.84278 0.60615
vt 0.84886 0.63687
vt 0.87249 0.66244
vt 0.63745 0.58519
vt 0.63925 0.55906
vt 0.86238 0.58960
vt 0.87485 0.61053
vt 0.48375 0.73784
vt 0.64050 0.43022
vt 0.63078 0.52859
vt 0.61384 0.51920
vt 0.94663 0.16705
vt 0.83207 0.47458
vt 0.80621 0.22126
vt 0.69599 0.26352
vt 0.59113 0.26499
vt 0.87348 0.15305
vt 0.25660 0.21423
vt 0.55107 0.68785
vt 0.37412 0.56742
vt 0.73239 0.40154
vt 0.33671 0.32242
vt 0.34872 0.27008
vt 0.38734 0.29237
vt 0.21428 0.28286
vt 0.66104 0.60362
vt 0.54964 0.40993
vt 0.77786 0.42020
vt 0.36652 0.21887
vt 0.31656 0.22902
vt 0.20554 0.46242
vt 0.56678 0.42216
vt 0.45049 0.43785
vt 0.42703 0.81016
vt 0.75953 0.59992
vt 0.83248 0.51518
vt 0.18192 0.32810
vt 0.08898 0.76879
vt 0.70628 0.74208
vt 0.30725 0.62678
vt 0.10165 0.67449
vt 0.04893 0.91053
vt 0.71317 0.73943
vt 0.94227 0.17531
vt 0.62140 0.81933
vt 0.70386 0.14311
vt 0.68097 0.38360
vt 0.93552 0.18052
vt 0.35929 0.33806
vt 0.68513 0.85379
vt 0.77653 0.84484
vt 0.31280 0.20099
vt 0.22605 0.18697
vt 0.49484 0.27845
vt 0.53875 0.69642
vt 0.34379 0.47598
vt 0.70944 0.48086
vt 0.59767 0.30874
vt 0.76202 0.32941
vt 0.19733 0.56439
vt 0.32262 0.69129
vt 0.35113 0.38849
vt 0.33796 0.60102
vt 0.10987 0.60026
vt 0.09636 0.58157
vt 0.36029 0.93057
vt 0.49555 0.63650
vt 0.45253 0.45567
vt 0.21907 0.72503
vt 0.59637 0.88585
vt 0.43085 0.32771
vt 0.65558 0.02246
vt 0.73207 0.66851
vt 0.10373 0.63504
vt 0.25944 0.62141
vt 0.42318 0.80804
vt 0.70465 0.75903
vt 0.09686 0.61729
vt 0.19781 0.50134
vt 0.08527 0.57332
vt 0.59256 0.41948
vt 0.30651 0.47397
vt 0.63948 0.27894
vt 0.64447 0.28554
vt 0.36043 0.44848
vt 0.76381 0.63822
vt 0.65344 0.26538
vt 0.57292 0.24134
vt 0.31874 0.49964
vt 0.68538 0.24562
vt 0.64068 0.34710
vt 0.66159 0.36596
vt 0.40574 0.48880
vt 0.48042 0.25411
vt 0.61959 0.38106
vt 0.38237 0.54205
vt 0.36677 0.49247
vt 0.65122 0.36149
vn -0.23196 0.48783 -0.84155
vn -0.13722 0.69239 -0.70836
vn -0.09795 0.85541 -0.50860
vn -0.09361 0.92342 -0.37221
vn -0.03488 0.99068 -0.13168
vn -0.44875 0.66096 0.60147
vn -0.40400 0.73854 0.53976
vn 0.29820 0.90069 0.31597
vn -0.16319 0.82679 0.53831
vn -0.28533 0.50312 -0.81576
vn -0.20665 0.70366 -0.67982
vn 0.53342 0.82239 0.19783
vn 0.47030 0.86515 0.17418
vn -0.25335 0.85787 -0.44707
vn -0.70077 0.63693 -0.32131
vn -0.76867 0.56313 -0.30336
vn -0.19791 0.84825 -0.49123
vn -0.16025 0.94497 -0.28523
vn 0.03107 0.99603 0.08336
vn 0.47192 0.87083 0.13762
vn 0.33786 0.90913 0.24359
vn 0.26342 0.90430 0.33594
vn -0.29729 0.92735 -0.22724
vn -0.33279 0.91834 -0.21425
vn -0.01295 0.98181 -0.18942
vn -0.20234 0.97927 -0.00916
vn -0.26624 0.93866 -0.21917
vn 0.43322 0.86803 0.24258
vn 0.42220 0.88126 0.21243
vn -0.38511 0.90999 -0.15362
vn -0.22551 0.97380 -0.02918
vn -0.14678 0.96579 -0.21377
vn -0.67228 0.62947 -0.38962
vn -0.42127 0.90419 -0.07046
vn -0.92673 0.37438 0.03182
vn -0.87497 0.47819 0.07590
vn -0.20412 0.68226 -0.70204
vn 0.44332 0.89174 0.09097
vn 0.33370 0.89984 0.28096
vn 0.34618 0.91214 0.21945
vn 0.53342 0.83904 0.10710
vn 0.04044 0.91465 -0.40221
vn 0.05474 0.91314 -0.40395
vn -0.20921 0.82164 -0.53023
vn 0.25376 0.96536 0.06066
vn 0.12519 0.93368 0.33551
vn 0.37513 0.90273 0.21060
vn 0.46892 0.86534 0.17692
vn 0.52242 0.80083 0.29281
vn -0.00545 0.96544 -0.26058
vn 0.15111 0.98492 0.08428
vn 0.05964 0.97742 -0.20272
vn -0.42534 0.89754 0.11623
vn -0.18258 0.98004 -0.07867
vn -0.01631 0.99070 0.13507
vn 0.08280 0.99312 -0.08280
vn -0.92684 -0.23282 0.29456
vn -0.92358 -0.33482 0.18681
vn -0.97687 -0.03095 0.21159
vn -0.96939 -0.08332 0.23094
vn -0.96260 0.00871 0.27078
vn -0.97753 0.07791 0.19587
vn -0.97549 -0.02776 0.21827
vn -0.95480 0.08910 0.28359
vn -0.94798 0.13072 0.29025
vn -0.96240 0.14644 0.22879
vn -0.95792 0.18854 0.21642
vn -0.87967 0.34250 0.32998
vn -0.37497 0.72680 -0.57546
vn -0.65315 0.75091 -0.09757
vn -0.60883 0.75973 0.22833
vn 0.06355 0.98948 0.12994
vn -0.50349 0.81288 -0.29279
vn -0.46585 0.88464 -0.02013
vn -0.18824 0.97669 0.10313
vn 0.00282 0.99662 0.08209
vn -0.30602 0.74762 -0.58943
vn -0.31561 0.89273 -0.32161
vn -0.84205 0.52699 0.11505
vn -0.77431 0.59120 0.22568
vn -0.17798 0.88063 -0.43911
vn 0.93094 0.14916 -0.33333
vn 0.84417 0.43612 -0.31174
vn -0.43568 -0.68418 -0.58488
vn -0.80679 0.59061 0.01621
vn -0.67483 0.67583 0.29641
vn -0.51194 0.79896 0.31556
vn -0.22951 0.67393 -0.70224
vn 0.90265 0.33360 -0.27193
vn 0.66125 0.74383 0.09732
vn 0.28659 0.94270 0.17085
vn -0.88481 0.44091 0.15071
vn -0.54070 0.71850 0.43750
vn -0.08377 0.94363 -0.32024
vn 0.05062 0.95127 -0.30418
vn 0.42402 0.90428 0.04994
vn -0.21350 0.79178 -0.57228
vn 0.58537 0.79120 -0.17702
vn 0.60060 0.78150 0.16890
vn -0.82170 0.49275 0.28638
vn 0.50203 0.85599 0.12352
vn 0.15498 0.98117 -0.11528
vn 0.19310 0.96868 -0.15609
vn -0.08766 0.88393 -0.45934
vn -0.25280 0.90351 -0.34606
vn -0.41411 0.89022 -0.18980
vn -0.07095 0.99714 0.02612
vn 0.13665 0.98917 0.05353
vn 0.35430 0.92543 0.13434
vn -0.02011 0.94044 -0.33938
vn 0.11428 0.98122 -0.15542
vn 0.05716 0.98668 0.15231
vn -0.94011 0.24641 0.23555
vn -0.84357 0.43567 0.31398
vn -0.79131 0.55200 0.26292
vn -0.67716 0.60516 0.41860
vn -0.49896 0.78785 0.36101
vn -0.32743 0.85040 0.41183
vn -0.66125 0.71070 -0.24011
vn -0.38099 0.89104 0.24677
vn -0.17474 0.91943 0.35230
vn -0.14261 0.84206 0.52019
vn -0.00718 0.99990 0.01207
vn 0.15372 0.94406 0.29176
vn -0.26613 0.69642 -0.66646
vn -0.26874 0.86335 -0.42709
vn -0.09696 0.91227 -0.39795
vn 0.18372 0.94964 -0.25385
vn 0.63276 0.61420 -0.47157
vn 0.43881 0.89616 -0.06590
vn -0.52050 0.78476 0.33650
vn -0.88519 0.40767 -0.22415
vn 0.51133 0.83825 -0.18942
vn -0.64902 0.63192 0.42361
vn -0.26144 0.88384 0.38792
vn -0.54479 0.83794 0.03249
vn -0.49972 0.85484 -0.13976
vn 0.42475 0.89884 -0.10806
vn -0.40951 0.69326 0.59304
vn 0.36810 0.88222 0.29358
vn -0.37559 0.85707 -0.35265
vn -0.33345 0.91973 -0.20715
vn -0.22556 0.96069 -0.16187
vn -0.62784 0.74226 0.23423
vn -0.27772 0.87405 0.39863
vn -0.02247 0.99541 -0.09304
vn 0.04430 0.99885 0.01840
vn -0.37710 0.70031 0.60611
vn -0.14484 0.36642 0.91911
vn -0.68987 0.28971 -0.66344
vn -0.09972 0.65671 0.74752
vn -0.10584 0.54071 0.83452
vn -0.64400 0.55740 -0.52400
vn -0.48200 0.87616 -0.00393
vn -0.36978 0.91607 -0.15516
vn -0.59310 0.80431 -0.03623
vn -0.31105 0.90044 0.30408
vn -0.28331 0.95815 0.04110
vn -0.27380 0.95909 -0.07200
vn -0.23509 0.95227 0.19469
vn -0.13937 0.89117 0.43173
vn -0.00259 0.86979 0.49341
vn 0.69736 0.71481 -0.05228
vn 0.38999 0.91870 -0.06250
vn 0.04052 0.96944 0.24197
vn -0.04560 0.92060 0.38782
vn -0.15142 0.72262 -0.67445
vn -0.19217 0.86015 -0.47246
vn 0.59532 0.80295 0.02948
vn 0.55409 0.81109 0.18740
vn -0.19045 0.93529 -0.29827
vn -0.84691 -0.45429 -0.27636
vn 0.63801 -0.10520 0.76281
vn -0.38339 0.83345 -0.39797
vn -0.38645 0.82229 -0.41773
vn -0.20942 -0.22448 -0.95171
vn 0.20008 0.24555 0.94851
vn 0.52590 0.77051 -0.36020
vn -0.46824 0.84566 -0.25614
vn -0.23522 0.94297 -0.23556
vn 0.18942 0.98175 0.01694
vn -0.43860 0.79402 -0.42091
vn -0.77598 0.55897 -0.29226
vn -0.88867 0.44728 -0.10100
vn -0.75510 0.61702 -0.22162
vn -0.65952 0.69971 -0.27465
vn -0.63649 0.70259 -0.31820
vn 0.11597 0.96645 0.22920
vn -0.14521 0.98717 0.06638
vn -0.12323 0.98816 0.09137
vn -0.36922 0.90990 -0.18910
vn 0.12985 0.95585 -0.26360
vn -0.14739 0.89596 0.41896
vn -0.14004 0.95750 0.25216
vn -0.53183 0.76489 -0.36347
vn -0.02514 0.99178 0.12550
vn -0.03200 0.95434 -0.29701
vn 0.54718 0.71324 0.43805
vn 0.39738 0.84392 0.36041
vn -0.16302 0.55189 0.81783
vn -0.07439 0.98554 -0.15223
vn 0.06336 0.99241 0.10539
vn 0.17437 0.97602 0.13027
vn -0.35568 0.63393 0.68675
vn -0.15719 0.05651 0.98595
vn -0.17801 0.31214 0.93321
vn -0.59761 0.40404 -0.69254
vn -0.26726 0.39859 0.87733
vn -0.53941 0.55480 -0.63343
vn -0.76719 0.63603 0.08298
vn 0.16871 0.93925 0.29892
vn 0.01955 0.94859 0.31589
vn -0.31659 0.61989 0.71799
vn -0.57090 0.74121 -0.35310
vn -0.66265 0.66234 -0.34958
vn -0.50948 0.60395 -0.61292
vn -0.08958 0.99431 0.05765
vn 0.01467 0.99645 0.08284
vn -0.33014 0.94346 0.02983
vn -0.52418 0.77676 0.34912
vn 0.35322 0.34712 -0.86876
vn -0.60800 -0.72530 0.32290
vn -0.08418 0.37441 -0.92344
vn 0.30758 0.94571 -0.10501
vn -0.26201 -0.12780 -0.95656
vn 0.25057 0.15022 0.95637
vn 0.02809 0.60221 -0.79785
vn 0.55079 -0.10910 0.82748
vn -0.13763 0.57842 -0.80405
vn -0.16088 -0.47953 -0.86265
vn -0.23450 0.72399 -0.64873
vn -0.29959 0.83242 -0.46617
vn -0.35568 0.92724 -0.11713
vn -0.38347 0.85129 0.35813
vn 0.34861 0.21666 -0.91188
vn -0.36227 0.91395 -0.18293
vn -0.32145 0.94553 0.05144
vn 0.05456 0.96804 0.24481
vn -0.21779 0.57643 -0.78759
vn -0.80376 0.59230 0.05610
vn -0.73420 0.67580 -0.06520
vn 0.45819 0.83098 -0.31550
vn -0.70610 -0.68390 -0.18360
vn -0.37802 0.78670 -0.48807
vn -0.35723 0.84348 -0.40116
vn -0.36524 0.88090 0.30104
vn -0.33019 0.90119 -0.28078
vn 0.25924 0.76375 -0.59116
vn -0.46640 0.61598 0.63486
vn -0.17667 0.92683 -0.33131
vn 0.25180 0.95847 0.13392
vn 0.15502 0.97927 -0.13038
vn -0.41636 0.80901 0.41491
vn -0.84459 0.40860 -0.34600
vn -0.52363 0.78592 -0.32886
vn -0.08446 0.99186 -0.09529
vn 0.21220 0.97719 0.00838
vn 0.53589 0.67840 0.50259
vn 0.27757 0.96024 0.03002
vn -0.47267 0.86834 0.15021
vn -0.33416 0.93687 -0.10296
vn -0.13315 0.99108 0.00493
vn 0.07060 0.98818 0.13610
vn 0.01050 0.99890 -0.04560
vn 0.18298 0.98158 -0.05493
vn -0.23149 0.15187 0.96091
vn -0.20683 0.17002 0.96349
vn -0.28869 0.26503 0.92001
vn -0.39298 0.73712 -0.54974
vn 0.01660 -0.99036 0.13749
vn 0.07580 -0.99273 0.09350
vn -0.34349 0.93628 0.07350
vn -0.20961 0.88677 0.41195
vn -0.34883 0.68128 0.64356
vn -0.22735 0.85893 -0.45887
vn -0.20063 0.93050 -0.30645
vn -0.50659 0.86205 0.01513
vn -0.31294 -0.60136 0.73514
vn -0.79964 0.49740 -0.33641
vn 0.07222 0.99698 -0.02849
vn -0.07665 0.99684 0.02087
vn -0.16104 0.96489 0.20750
vn -0.18263 0.97671 -0.11265
vn -0.27703 0.96086 0.00157
vn 0.18504 0.95860 -0.21644
vn -0.12085 0.97834 0.16808
vn -0.02031 0.47793 -0.87816
vn -0.87406 0.47489 0.10247
vn -0.76095 0.53301 0.36994
vn 0.75295 0.45333 0.47703
vn -0.69818 0.70542 -0.12218
vn -0.73101 0.68233 -0.00779
vn -0.60560 0.71140 0.35660
vn -0.00762 0.21681 -0.97618
vn -0.24344 -0.48171 -0.84184
vn 0.00860 0.07470 0.99717
vn -0.86402 -0.48631 0.13030
vn -0.05253 0.46220 -0.88522
vn -0.62404 -0.77298 -0.11437
vn -0.56679 0.54042 -0.62184
vn 0.26860 0.68567 0.67654
vn -0.15053 0.57775 -0.80221
vn 0.78511 0.61928 -0.00936
vn 0.66377 0.67052 -0.33139
vn -0.17324 0.92002 0.35149
vn -0.36766 0.91783 -0.14973
vn -0.36353 0.92191 0.13388
vn -0.22682 0.96844 0.10336
vn 0.37874 0.66002 -0.64879
vn 0.50285 0.78914 -0.35271
vn -0.16447 0.94076 -0.29651
vn -0.04119 0.73212 -0.67993
vn -0.29160 0.94109 0.17123
vn -0.46599 0.80717 -0.36240
vn 0.33474 0.92733 -0.16738
vn 0.04654 0.96229 -0.26802
vn 0.05187 0.92313 -0.38096
vn 0.27019 0.96274 0.01156
vn 0.14876 0.96811 0.20160
vn 0.19549 0.92230 -0.33337
vn 0.26400 0.96451 -0.00460
vn 0.12008 0.98340 0.13600
vn 0.12302 0.98626 0.11029
vn -0.02282 0.99864 0.04692
vn -0.00896 0.99859 -0.05233
vn -0.03555 0.99930 0.01141
vn -0.91049 -0.30188 -0.28262
vn -0.69359 -0.11915 0.71045
vn -0.79144 0.60955 0.04563
vn -0.83956 -0.42207 0.34204
vn -0.63490 0.76211 -0.12683
vn -0.69719 0.49357 -0.51991
vn 0.53194 -0.56792 0.62810
vn -0.29614 0.26821 0.91672
vn -0.31308 0.18955 0.93062
vn -0.02017 -0.31139 -0.95007
vn -0.97259 0.23220 0.01221
vn -0.61705 0.59917 -0.51014
vn -0.16295 0.71142 0.68361
vn -0.19786 0.58456 0.78686
vn 0.18875 0.70556 0.68305
vn -0.32277 0.52012 0.79075
vn -0.20181 0.69990 0.68514
vn 0.00562 0.98523 0.17115
vn 0.93669 0.08890 0.33870
vn 0.15181 0.98622 0.06580
vn 0.01609 0.97284 0.23093
vn -0.16221 0.62808 0.76106
vn 0.05790 0.52301 0.85036
vn 0.07004 0.98145 -0.17849
vn -0.35785 0.93272 -0.04445
vn -0.15873 0.98711 0.02060
vn -0.95792 0.28558 -0.02881
vn 0.19692 0.14973 0.96892
vn -0.51632 0.75776 0.39900
vn -0.04769 0.75014 0.65955
vn 0.70466 0.55154 0.44638
vn 0.23173 0.14638 -0.96170
vn -0.17619 -0.05567 0.98278
vn -0.53159 0.84695 0.00948
vn -0.45457 0.85963 0.23324
vn -0.27512 0.87230 0.40422
vn -0.61710 0.32770 -0.71540
vn 0.50716 -0.26223 -0.82099
vn -0.86321 0.11671 0.49118
vn -0.91736 -0.03625 -0.39640
vn -0.37776 0.92504 0.03989
vn -0.27830 0.95329 0.11740
vn -0.07493 0.50431 -0.86026
vn -0.53789 0.57034 -0.62080
vn -0.43042 0.89308 -0.13095
vn -0.31743 0.94147 -0.11350
vn 0.70851 0.70221 0.07008
vn -0.91929 -0.00028 -0.39358
vn 0.79970 0.20022 0.56603
vn -0.10192 0.51148 -0.85323
vn 0.13328 0.97819 -0.15929
vn 0.83396 0.53942 0.11632
vn 0.44225 0.49027 -0.75103
vn -0.15767 0.62091 -0.76786
vn 0.28713 0.95740 -0.03053
vn 0.28818 0.86369 0.41352
vn 0.41956 0.88899 0.18350
vn -0.50722 0.83750 -0.20325
vn -0.13946 0.94555 0.29410
vn 0.61464 0.78878 0.00675
vn 0.33226 0.77616 -0.53590
vn 0.37472 0.90494 -0.20164
vn 0.03514 0.99081 0.13060
vn -0.17891 0.98064 -0.07958
vn -0.73080 0.67961 -0.06370
vn 0.19291 0.97272 0.12883
vn -0.76109 0.22202 0.60947
vn -0.05860 0.76476 -0.64165
vn 0.35164 0.89151 -0.28558
vn 0.17777 0.97155 -0.15648
vn 0.68426 0.71171 0.15890
vn 0.32305 0.93273 0.16015
vn 0.46328 0.87679 -0.12891
vn 0.66273 0.74886 0.00136
vn 0.70549 0.68669 -0.17530
vn 0.05390 0.98863 -0.14039
vn 0.02448 0.99502 0.09664
vn -0.16768 0.64277 -0.74748
vn 0.50925 0.84072 -0.18402
vn 0.54522 0.83471 -0.07735
vn 0.50405 0.85073 -0.14897
vn 0.23926 0.96698 -0.08772
vn -0.64877 0.48021 -0.59033
vn -0.61417 0.40154 -0.67938
vn -0.49918 0.57270 -0.65026
vn -0.63895 0.75215 -0.16130
vn -0.41802 0.90840 -0.00767
vn 0.73064 -0.51444 -0.44891
vn 0.25620 -0.21060 0.94340
vn -0.01055 0.99763 0.06800
vn 0.35377 0.04121 0.93442
vn -0.03641 0.38678 -0.92145
vn -0.11335 0.13414 0.98446
vn 0.19583 0.93625 -0.29170
vn 0.23377 -0.19918 0.95167
vn 0.32102 0.94594 0.04635
vn 0.50275 0.69590 0.51280
vn 0.32507 0.87892 0.34905
vn -0.77791 0.54129 0.31914
vn -0.48171 -0.38071 0.78932
vn 0.15102 0.21029 0.96590
vn 0.13864 0.16270 0.97689
vn 0.94599 0.30950 0.09650
vn -0.28456 0.95848 0.01831
vn 0.07628 0.39396 -0.91596
vn -0.65924 -0.00427 0.75192
vn 0.05465 0.57874 0.81368
vn -0.43368 -0.33511 -0.83644
vn 0.44716 0.52218 0.72621
vn 0.42871 0.87601 -0.22094
vn 0.23055 0.96684 0.10982
vn -0.68570 0.69228 -0.22485
vn -0.15768 0.96349 0.21639
vn -0.13339 0.90112 0.41255
vn -0.10388 0.90088 0.42146
vn 0.04540 0.79819 0.60069
vn 0.37544 0.52442 -0.76422
vn -0.16567 0.95772 0.23521
vn 0.80711 0.16617 0.56653
vn 0.18611 -0.13808 0.97278
vn 0.00906 0.95150 0.30751
vn -0.45657 0.88546 -0.08659
vn -0.19898 0.92169 0.33300
vn 0.33360 0.70928 -0.62100
vn -0.07687 0.91278 -0.40115
vn -0.20969 0.97182 -0.10770
vn -0.12338 0.99172 -0.03554
vn -0.79312 0.60071 -0.10051
vn -0.41253 -0.29977 -0.86021
vn 0.37540 0.09081 0.92240
vn 0.96919 0.18311 -0.16474
vn 0.32266 0.86996 -0.37291
vn 0.38662 0.88095 -0.27285
vn 0.27377 0.28591 0.91831
vn 0.30442 0.47858 0.82359
vn 0.78164 0.28170 0.55649
vn 0.74093 0.65686 0.13988
vn 0.04868 0.99183 -0.11793
vn 0.34131 0.79033 0.50881
vn -0.48986 0.85545 -0.16806
vn -0.86155 0.44392 0.24630
vn 0.70791 0.47981 -0.51831
vn 0.29880 0.48550 -0.82159
vn -0.68149 0.71648 0.14905
vn -0.00770 0.83310 0.55306
vn -0.19619 0.87472 -0.44313
vn -0.34483 0.91707 -0.20020
vn 0.44808 0.88503 -0.12626
vn 0.61114 0.77371 -0.16700
vn 0.65966 0.73441 -0.15966
vn 0.34458 0.71118 -0.61277
vn 0.17843 0.96538 -0.19026
vn -0.15992 0.93140 0.32697
vn -0.37741 0.68581 0.62228
vn -0.61462 0.78505 0.07708
vn 0.40089 0.91580 0.02444
vn 0.34782 0.75619 -0.55426
vn 0.69359 0.70759 -0.13509
vn 0.65656 0.61572 -0.43569
vn 0.03108 0.85144 -0.52353
vn -0.09440 0.99436 -0.04839
vn -0.28202 0.75734 -0.58899
vn 0.64029 0.37799 -0.66869
vn -0.90835 0.40582 -0.10100
vn 0.47978 0.78441 -0.39308
vn -0.24045 0.86278 -0.44474
vn -0.14314 0.94735 -0.28644
vn -0.50129 0.59679 -0.62654
vn -0.21994 0.70434 -0.67493
vn -0.14596 0.76115 -0.63193
vn -0.72919 0.57548 -0.37027
vn -0.73272 0.55234 -0.39755
vn -0.02096 0.96676 -0.25481
vn -0.36190 0.92507 -0.11523
vn -0.18330 0.97150 -0.15030
vn 0.98168 -0.18499 -0.04561
vn 0.96326 -0.26659 -0.03244
vn 0.33238 0.94304 0.01403
vn 0.98759 -0.13132 -0.08614
vn 0.24319 -0.68946 0.68228
vn 0.41186 0.47644 0.77678
vn 0.38480 0.41299 -0.82545
vn 0.38634 0.90161 -0.19453
vn 0.60985 0.61554 -0.49918
vn 0.04941 0.99396 -0.09804
vn -0.05458 0.88205 0.46799
vn 0.16139 0.56113 0.81184
vn 0.27643 0.53059 0.80129
vn 0.35050 0.40859 -0.84274
vn 0.09400 0.95998 0.26384
vn 0.43769 0.87887 -0.18979
vn 0.03432 0.99689 -0.07092
vn 0.08340 0.99591 -0.03485
vn -0.14700 0.97449 0.16959
vn -0.10459 0.89060 0.44259
vn 0.02969 0.71678 0.69667
vn 0.26909 0.68217 0.67987
vn 0.36670 0.49394 -0.78839
vn -0.12029 0.90148 0.41577
vn 0.37320 0.81834 -0.43709
vn 0.05063 0.99370 -0.10003
vn 0.07890 0.99292 0.08881
vn 0.86753 0.30974 0.38916
vn 0.36277 0.49599 0.78891
vn 0.04623 0.47465 0.87896
vn 0.40060 0.90535 -0.14095
vn 0.18070 0.98301 0.03220
vn 0.19538 0.47965 0.85543
vn 0.68348 0.02232 0.72963
vn 0.01723 0.98761 -0.15600
vn 0.02485 0.89131 0.45271
vn 0.21994 0.76292 -0.60793
vn 0.28017 0.78430 0.55352
vn -0.44904 0.89007 -0.07830
vn -0.40607 0.79711 -0.44690
vn 0.12767 0.96575 0.22590
vn 0.31144 0.91764 -0.24688
vn -0.06115 0.96537 -0.25360
vn 0.08936 0.98564 -0.14327
vn 0.12659 0.99161 0.02615
vn -0.63845 0.74186 -0.20502
vn -0.16411 0.98411 -0.06780
vn -0.04327 0.99735 -0.05845
vn -0.56362 0.73006 -0.38644
vn -0.70614 0.64331 -0.29584
vn -0.69789 0.60839 -0.37790
vn -0.52403 0.75844 -0.38752
vn -0.61031 0.76627 -0.20087
vn -0.56308 0.72030 -0.40510
vn 0.17811 0.89114 -0.41732
vn -0.46498 0.88486 0.02859
vn -0.55471 0.83185 -0.01811
vn -0.36523 0.89123 -0.26890
vn -0.26152 0.96506 0.01617
vn 0.23987 0.96912 0.05725
vn 0.36316 0.30281 -0.88115
vn 0.32624 0.84692 0.41987
vn 0.05231 0.77304 0.63219
vn 0.01240 0.58953 0.80765
vn 0.38906 0.47799 -0.78750
vn 0.42629 0.50959 -0.74739
vn -0.59662 0.27421 -0.75422
vn 0.61248 -0.25825 0.74712
vn 0.15519 0.96175 0.22572
vn 0.15310 0.95810 0.24207
vn -0.03217 0.99792 0.05581
vn 0.04797 0.93844 0.34209
vn 0.08015 0.87852 0.47093
vn 0.01830 0.59403 0.80424
vn 0.39989 0.61079 -0.68339
vn 0.36880 0.71046 -0.59936
vn -0.35482 0.78132 -0.51346
vn 0.04503 0.53782 0.84186
vn 0.86832 -0.41540 -0.27104
vn 0.04880 0.99183 -0.11788
vn 0.09766 0.99291 0.06777
vn 0.25240 0.94515 0.20733
vn -0.82579 0.53519 -0.17790
vn 0.21180 0.14960 -0.96580
vn -0.21299 -0.14528 0.96619
vn 0.42930 0.86414 -0.26261
vn -0.32159 0.94164 0.09950
vn 0.24291 0.96808 -0.06177
vn -0.34972 0.93613 -0.03685
vn -0.24978 0.86984 -0.42542
vn 0.09329 0.94521 -0.31285
vn -0.03781 0.88171 -0.47028
vn 0.02461 0.90019 -0.43481
vn -0.11497 0.93922 -0.32350
vn 0.27059 0.92289 0.27397
vn -0.28950 0.95710 0.01209
vn -0.00964 0.97600 -0.21756
vn -0.00402 0.98280 0.18461
vn 0.18066 0.96041 0.21208
vn 0.22077 0.96733 0.12464
vn 0.35086 0.52825 -0.77321
vn 0.90337 0.42840 0.02015
vn 0.77386 0.61825 0.13751
vn 0.55201 0.77777 0.30059
vn 0.35344 0.50899 -0.78486
vn 0.28385 0.56666 -0.77352
vn 0.58546 0.80534 0.09302
vn 0.52341 0.82605 0.20902
vn -0.00887 0.99054 0.13695
vn 0.02288 0.97068 0.23927
vn 0.26147 0.70847 -0.65552
vn 0.22433 0.80274 -0.55252
vn 0.68731 0.72461 0.05040
vn -0.39322 0.84265 0.36784
vn -0.09880 0.98234 -0.15892
vn 0.02086 0.99060 0.13518
vn 0.29752 0.95455 -0.01801
vn 0.56226 0.78495 0.26024
vn 0.33916 0.92434 0.17484
vn 0.08340 0.94732 0.30923
vn 0.25797 0.83603 0.48426
vn -0.74239 0.16870 0.64839
vn 0.75251 -0.62622 0.20388
vn -0.66518 0.45884 0.58908
vn -0.76319 0.30829 0.56789
vn 0.41540 0.88512 -0.20978
vn 0.13281 0.97885 -0.15558
vn -0.69698 0.71634 -0.03282
vn -0.72849 0.63847 0.24829
vn 0.22256 0.95353 -0.20309
vn 0.12842 0.97142 -0.19962
vn 0.19587 0.97822 -0.06868
vn 0.44176 0.86531 -0.23682
vn 0.67059 0.64245 -0.37091
vn 0.81517 0.44775 -0.36743
vn 0.56282 0.69693 -0.44443
vn 0.36753 0.80579 -0.46436
vn 0.34937 0.86544 0.35910
vn 0.43955 0.82186 0.36241
vn -0.15373 0.98385 0.09164
vn 0.20764 0.97398 0.09080
vn 0.24594 0.91047 0.33251
vn 0.30010 0.91140 0.28160
vn -0.06393 0.99394 0.08943
vn 0.68558 0.72309 0.08442
vn 0.57284 0.80540 -0.15225
vn 0.10249 0.99271 -0.06350
vn 0.38471 0.79633 0.46676
vn 0.62410 0.75180 0.21280
vn 0.28297 0.93661 -0.20660
vn 0.32290 0.94496 0.05279
vn 0.22365 0.94863 0.22377
vn -0.90143 -0.06449 0.42810
vn -0.84389 -0.02407 0.53597
vn -0.92765 0.09732 0.36055
vn -0.71005 0.05403 0.70207
vn -0.56772 0.63512 0.52375
vn -0.59066 0.79637 0.13003
vn -0.74375 0.63546 0.20742
vn -0.72907 0.46621 0.50111
vn -0.47800 0.35738 0.80237
vn -0.14433 0.98108 0.12906
vn -0.22200 0.97410 -0.04287
vn 0.16333 0.98633 0.02172
vn 0.06964 0.66696 0.74183
vn 0.10230 0.72437 0.68178
vn 0.82840 0.39290 -0.39923
vn 0.75085 0.54902 -0.36714
vn 0.78988 0.43570 -0.43158
vn 0.51551 0.71818 -0.46741
vn 0.59395 0.79052 -0.14931
vn 0.44354 0.89621 0.00887
vn 0.64091 0.37351 0.67061
vn 0.29519 0.85251 0.43137
vn -0.02230 0.66770 0.74410
vn -0.10362 0.93484 0.33963
vn 0.04189 0.99904 0.01267
vn 0.16262 0.96913 0.18529
vn 0.02040 0.68145 0.73158
vn 0.29944 0.82082 0.48640
vn 0.03970 0.75091 0.65921
vn 0.27312 0.89110 0.36241
vn 0.47949 0.70545 0.52195
vn 0.65799 0.67109 -0.34159
vn 0.67864 0.67564 -0.28802
vn 0.01392 0.95884 0.28361
vn 0.15122 0.96595 0.20991
vn 0.77658 0.59796 -0.19840
vn 0.69056 0.71222 -0.12596
vn 0.30798 0.81355 0.49325
vn 0.81918 0.39898 0.41203
vn 0.84821 0.47927 -0.22546
vn 0.73644 0.67569 0.03334
vn 0.32997 0.88710 0.32277
vn 0.57046 0.81409 -0.10879
vn 0.55432 0.80981 0.19219
vn 0.29290 0.86675 0.40366
vn 0.50382 0.83193 0.23251
vn 0.61533 0.70733 -0.34792
usemtl lingcao_huichun_mature_mat
s off
f 428/428/428 427/427/427 348/348/348
f 348/348/348 274/274/274 342/342/342
f 513/513/513 522/522/522 523/523/523
f 356/356/356 441/441/441 362/362/362
f 521/521/521 512/512/512 564/564/564
f 348/348/348 347/347/347 282/282/282
f 282/282/282 273/273/273 341/341/341
f 440/440/440 525/525/525 449/449/449
f 441/441/441 440/440/440 449/449/449
f 449/449/449 361/361/361 441/441/441
f 439/439/439 440/440/440 521/521/521
f 521/521/521 520/520/520 439/439/439
f 368/368/368 449/449/449 367/367/367
f 449/449/449 448/448/448 367/367/367
f 603/603/603 608/608/608 604/604/604
f 611/611/611 610/610/610 572/572/572
f 438/438/438 439/439/439 520/520/520
f 510/510/510 438/438/438 519/519/519
f 519/519/519 511/511/511 510/510/510
f 438/438/438 510/510/510 511/511/511
f 421/421/421 416/416/416 417/417/417
f 642/642/642 598/598/598 643/643/643
f 600/600/600 596/596/596 640/640/640
f 601/601/601 600/600/600 561/561/561
f 560/560/560 561/561/561 600/600/600
f 500/500/500 499/499/499 497/497/497
f 598/598/598 642/642/642 641/641/641
f 595/595/595 598/598/598 642/642/642
f 642/642/642 645/645/645 641/641/641
f 595/595/595 597/597/597 598/598/598
f 555/555/555 558/558/558 554/554/554
f 497/497/497 555/555/555 496/496/496
f 496/496/496 499/499/499 556/556/556
f 556/556/556 555/555/555 496/496/496
f 554/554/554 551/551/551 555/555/555
f 684/684/684 683/683/683 688/688/688
f 687/687/687 698/698/698 695/695/695
f 679/679/679 678/678/678 664/664/664
f 656/656/656 623/623/623 654/654/654
f 656/656/656 626/626/626 623/623/623
f 626/626/626 656/656/656 625/625/625
f 630/630/630 625/625/625 659/659/659
f 695/695/695 694/694/694 697/697/697
f 681/681/681 667/667/667 680/680/680
f 697/697/697 693/693/693 696/696/696
f 681/681/681 691/691/691 690/690/690
f 686/686/686 690/690/690 696/696/696
f 692/692/692 681/681/681 690/690/690
f 629/629/629 624/624/624 658/658/658
f 667/667/667 681/681/681 682/682/682
f 635/635/635 634/634/634 592/592/592
f 593/593/593 592/592/592 550/550/550
f 550/550/550 551/551/551 553/553/553
f 494/494/494 551/551/551 490/490/490
f 395/395/395 396/396/396 475/475/475
f 394/394/394 395/395/395 473/473/473
f 492/492/492 493/493/493 549/549/549
f 268/268/268 334/334/334 335/335/335
f 157/157/157 151/151/151 212/212/212
f 281/281/281 282/282/282 346/346/346
f 212/212/212 281/281/281 211/211/211
f 218/218/218 211/211/211 281/281/281
f 361/361/361 360/360/360 291/291/291
f 218/218/218 217/217/217 155/155/155
f 115/115/115 118/118/118 114/114/114
f 118/118/118 117/117/117 114/114/114
f 166/166/166 122/122/122 161/161/161
f 65/65/65 61/61/61 62/62/62
f 203/203/203 202/202/202 147/147/147
f 146/146/146 147/147/147 202/202/202
f 201/201/201 265/265/265 197/197/197
f 112/112/112 147/147/147 111/111/111
f 31/31/31 32/32/32 55/55/55
f 26/26/26 27/27/27 31/31/31
f 24/24/24 25/25/25 52/52/52
f 15/15/15 16/16/16 24/24/24
f 406/406/406 405/405/405 323/323/323
f 323/323/323 262/262/262 261/261/261
f 261/261/261 255/255/255 262/262/262
f 131/131/131 132/132/132 137/137/137
f 135/135/135 189/189/189 188/188/188
f 131/131/131 135/135/135 86/86/86
f 254/254/254 194/194/194 195/195/195
f 188/188/188 248/248/248 249/249/249
f 248/248/248 249/249/249 242/242/242
f 388/388/388 317/317/317 395/395/395
f 242/242/242 248/248/248 317/317/317
f 317/317/317 312/312/312 242/242/242
f 193/193/193 254/254/254 253/253/253
f 108/108/108 140/140/140 139/139/139
f 145/145/145 108/108/108 139/139/139
f 101/101/101 140/140/140 108/108/108
f 139/139/139 100/100/100 134/134/134
f 253/253/253 252/252/252 193/193/193
f 192/192/192 193/193/193 252/252/252
f 148/148/148 145/145/145 204/204/204
f 42/42/42 43/43/43 94/94/94
f 42/42/42 50/50/50 43/43/43
f 14/14/14 15/15/15 42/42/42
f 12/12/12 41/41/41 40/40/40
f 12/12/12 13/13/13 41/41/41
f 40/40/40 39/39/39 49/49/49
f 101/101/101 108/108/108 109/109/109
f 12/12/12 22/22/22 13/13/13
f 671/671/671 672/672/672 670/670/670
f 620/620/620 621/621/621 652/652/652
f 619/619/619 614/614/614 618/618/618
f 579/579/579 622/622/622 616/616/616
f 622/622/622 579/579/579 578/578/578
f 460/460/460 461/461/461 456/456/456
f 583/583/583 620/620/620 619/619/619
f 613/613/613 612/612/612 577/577/577
f 577/577/577 618/618/618 613/613/613
f 607/607/607 567/567/567 577/577/577
f 451/451/451 458/458/458 526/526/526
f 450/450/450 451/451/451 526/526/526
f 540/540/540 543/543/543 539/539/539
f 543/543/543 542/542/542 539/539/539
f 398/398/398 393/393/393 472/472/472
f 393/393/393 472/472/472 480/480/480
f 385/385/385 460/460/460 377/377/377
f 465/465/465 385/385/385 377/377/377
f 487/487/487 481/481/481 488/488/488
f 547/547/547 545/545/545 487/487/487
f 480/480/480 403/403/403 398/398/398
f 471/471/471 539/539/539 542/542/542
f 471/471/471 542/542/542 479/479/479
f 486/486/486 402/402/402 487/487/487
f 527/527/527 528/528/528 582/582/582
f 581/581/581 527/527/527 582/582/582
f 470/470/470 391/391/391 384/384/384
f 458/458/458 459/459/459 526/526/526
f 462/462/462 382/382/382 463/463/463
f 382/382/382 389/389/389 390/390/390
f 382/382/382 462/462/462 381/381/381
f 382/382/382 381/381/381 389/389/389
f 381/381/381 306/306/306 389/389/389
f 284/284/284 285/285/285 352/352/352
f 75/75/75 117/117/117 121/121/121
f 75/75/75 72/72/72 117/117/117
f 120/120/120 124/124/124 123/123/123
f 120/120/120 123/123/123 119/119/119
f 73/73/73 120/120/120 119/119/119
f 73/73/73 74/74/74 120/120/120
f 284/284/284 285/285/285 351/351/351
f 275/275/275 269/269/269 209/209/209
f 70/70/70 68/68/68 71/71/71
f 70/70/70 67/67/67 68/68/68
f 316/316/316 315/315/315 247/247/247
f 241/241/241 185/185/185 247/247/247
f 251/251/251 246/246/246 319/319/319
f 234/234/234 235/235/235 304/304/304
f 303/303/303 234/234/234 304/304/304
f 304/304/304 308/308/308 303/303/303
f 133/133/133 129/129/129 91/91/91
f 91/91/91 129/129/129 83/83/83
f 91/91/91 83/83/83 90/90/90
f 46/46/46 47/47/47 91/91/91
f 53/53/53 105/105/105 45/45/45
f 45/45/45 46/46/46 99/99/99
f 99/99/99 98/98/98 45/45/45
f 18/18/18 5/5/5 19/19/19
f 4/4/4 5/5/5 18/18/18
f 44/44/44 97/97/97 37/37/37
f 97/97/97 88/88/88 37/37/37
f 97/97/97 45/45/45 105/105/105
f 105/105/105 98/98/98 97/97/97
f 1/1/1 11/11/11 10/10/10
f 11/11/11 1/1/1 2/2/2
f 4/4/4 11/11/11 2/2/2
f 382/382/382 389/389/389 313/313/313
f 314/314/314 390/390/390 306/306/306
f 306/306/306 307/307/307 314/314/314
f 390/390/390 389/389/389 306/306/306
f 233/233/233 237/237/237 236/236/236
f 232/232/232 175/175/175 233/233/233
f 180/180/180 237/237/237 179/179/179
f 232/232/232 174/174/174 175/175/175
f 180/180/180 179/179/179 174/174/174
f 175/175/175 174/174/174 125/125/125
f 167/167/167 168/168/168 174/174/174
f 507/507/507 514/514/514 427/427/427
f 427/427/427 514/514/514 433/433/433
f 356/356/356 348/348/348 427/427/427
f 356/356/356 427/427/427 433/433/433
f 349/349/349 428/428/428 348/348/348
f 514/514/514 513/513/513 523/523/523
f 442/442/442 433/433/433 514/514/514
f 442/442/442 514/514/514 523/523/523
f 356/356/356 433/433/433 442/442/442
f 513/513/513 565/565/565 575/575/575
f 513/513/513 575/575/575 522/522/522
f 521/521/521 441/441/441 522/522/522
f 521/521/521 522/522/522 525/525/525
f 574/574/574 521/521/521 564/564/564
f 521/521/521 574/574/574 573/573/573
f 521/521/521 573/573/573 520/520/520
f 423/423/423 347/347/347 341/341/341
f 347/347/347 423/423/423 346/346/346
f 423/423/423 422/422/422 346/346/346
f 282/282/282 341/341/341 347/347/347
f 523/523/523 522/522/522 441/441/441
f 523/523/523 441/441/441 442/442/442
f 525/525/525 440/440/440 441/441/441
f 525/525/525 441/441/441 521/521/521
f 442/442/442 441/441/441 356/356/356
f 362/362/362 441/441/441 361/361/361
f 361/361/361 449/449/449 368/368/368
f 361/361/361 368/368/368 367/367/367
f 361/361/361 367/367/367 360/360/360
f 573/573/573 611/611/611 572/572/572
f 573/573/573 572/572/572 520/520/520
f 520/520/520 572/572/572 519/519/519
f 610/610/610 605/605/605 604/604/604
f 572/572/572 563/563/563 605/605/605
f 572/572/572 605/605/605 610/610/610
f 571/571/571 610/610/610 604/604/604
f 571/571/571 604/604/604 609/609/609
f 571/571/571 572/572/572 610/610/610
f 518/518/518 519/519/519 572/572/572
f 518/518/518 572/572/572 571/571/571
f 520/520/520 519/519/519 438/438/438
f 448/448/448 438/438/438 519/519/519
f 519/519/519 438/438/438 511/511/511
f 609/609/609 604/604/604 608/608/608
f 570/570/570 571/571/571 609/609/609
f 570/570/570 609/609/609 608/608/608
f 580/580/580 585/585/585 586/586/586
f 580/580/580 584/584/584 586/586/586
f 580/580/580 516/516/516 584/584/584
f 332/332/332 333/333/333 339/339/339
f 426/426/426 421/421/421 505/505/505
f 421/421/421 426/426/426 425/425/425
f 426/426/426 505/505/505 506/506/506
f 506/506/506 505/505/505 510/510/510
f 510/510/510 511/511/511 506/506/506
f 425/425/425 432/432/432 510/510/510
f 425/425/425 510/510/510 505/505/505
f 511/511/511 510/510/510 432/432/432
f 425/425/425 426/426/426 506/506/506
f 425/425/425 506/506/506 432/432/432
f 506/506/506 511/511/511 432/432/432
f 425/425/425 505/505/505 421/421/421
f 417/417/417 333/333/333 330/330/330
f 333/333/333 332/332/332 330/330/330
f 332/332/332 333/333/333 417/417/417
f 437/437/437 518/518/518 436/436/436
f 511/511/511 517/517/517 518/518/518
f 436/436/436 518/518/518 517/517/517
f 447/447/447 432/432/432 431/431/431
f 425/425/425 505/505/505 516/516/516
f 421/421/421 431/431/431 432/432/432
f 297/297/297 359/359/359 375/375/375
f 374/374/374 375/375/375 359/359/359
f 408/408/408 491/491/491 407/407/407
f 491/491/491 485/485/485 407/407/407
f 485/485/485 484/484/484 401/401/401
f 485/485/485 401/401/401 407/407/407
f 409/409/409 411/411/411 495/495/495
f 495/495/495 411/411/411 496/496/496
f 644/644/644 600/600/600 640/640/640
f 599/599/599 600/600/600 644/644/644
f 600/600/600 599/599/599 560/560/560
f 500/500/500 497/497/497 498/498/498
f 640/640/640 639/639/639 643/643/643
f 640/640/640 643/643/643 644/644/644
f 644/644/644 643/643/643 599/599/599
f 598/598/598 599/599/599 643/643/643
f 599/599/599 559/559/559 560/560/560
f 559/559/559 599/599/599 558/558/558
f 558/558/558 599/599/599 598/598/598
f 595/595/595 642/642/642 638/638/638
f 595/595/595 638/638/638 637/637/637
f 597/597/597 598/598/598 641/641/641
f 555/555/555 559/559/559 558/558/558
f 558/558/558 598/598/598 597/597/597
f 558/558/558 597/597/597 557/557/557
f 500/500/500 560/560/560 559/559/559
f 500/500/500 559/559/559 499/499/499
f 559/559/559 497/497/497 499/499/499
f 555/555/555 497/497/497 559/559/559
f 412/412/412 499/499/499 496/496/496
f 413/413/413 499/499/499 412/412/412
f 412/412/412 496/496/496 411/411/411
f 551/551/551 552/552/552 555/555/555
f 494/494/494 495/495/495 496/496/496
f 411/411/411 409/409/409 410/410/410
f 411/411/411 410/410/410 412/412/412
f 675/675/675 684/684/684 679/679/679
f 679/679/679 684/684/684 688/688/688
f 679/679/679 688/688/688 678/678/678
f 678/678/678 688/688/688 677/677/677
f 687/687/687 677/677/677 688/688/688
f 656/656/656 654/654/654 655/655/655
f 656/656/656 655/655/655 657/657/657
f 660/660/660 656/656/656 657/657/657
f 660/660/660 657/657/657 661/661/661
f 656/656/656 660/660/660 659/659/659
f 656/656/656 659/659/659 625/625/625
f 679/679/679 664/664/664 665/665/665
f 636/636/636 635/635/635 637/637/637
f 678/678/678 663/663/663 664/664/664
f 677/677/677 663/663/663 678/678/678
f 695/695/695 698/698/698 697/697/697
f 687/687/687 695/695/695 697/697/697
f 691/691/691 687/687/687 697/697/697
f 691/691/691 697/697/697 699/699/699
f 680/680/680 677/677/677 687/687/687
f 680/680/680 687/687/687 691/691/691
f 676/676/676 677/677/677 680/680/680
f 697/697/697 694/694/694 693/693/693
f 699/699/699 697/697/697 696/696/696
f 699/699/699 696/696/696 690/690/690
f 691/691/691 699/699/699 690/690/690
f 681/681/681 680/680/680 691/691/691
f 630/630/630 659/659/659 629/629/629
f 658/658/658 662/662/662 629/629/629
f 662/662/662 663/663/663 677/677/677
f 662/662/662 677/677/677 680/680/680
f 658/658/658 659/659/659 663/663/663
f 658/658/658 663/663/663 662/662/662
f 680/680/680 667/667/667 666/666/666
f 593/593/593 635/635/635 592/592/592
f 592/592/592 594/594/594 593/593/593
f 593/593/593 550/550/550 553/553/553
f 593/593/593 553/553/553 594/594/594
f 475/475/475 476/476/476 468/468/468
f 490/490/490 483/483/483 476/476/476
f 551/551/551 490/490/490 489/489/489
f 483/483/483 489/489/489 490/490/490
f 407/407/407 401/401/401 406/406/406
f 400/400/400 484/484/484 483/483/483
f 401/401/401 484/484/484 400/400/400
f 401/401/401 400/400/400 406/406/406
f 325/325/325 408/408/408 407/407/407
f 476/476/476 468/468/468 483/483/483
f 397/397/397 476/476/476 483/483/483
f 400/400/400 397/397/397 483/483/483
f 482/482/482 483/483/483 476/476/476
f 482/482/482 476/476/476 475/475/475
f 400/400/400 483/483/483 482/482/482
f 400/400/400 482/482/482 399/399/399
f 586/586/586 585/585/585 624/624/624
f 475/475/475 474/474/474 395/395/395
f 395/395/395 474/474/474 473/473/473
f 492/492/492 549/549/549 548/548/548
f 594/594/594 595/595/595 637/637/637
f 637/637/637 635/635/635 593/593/593
f 637/637/637 593/593/593 594/594/594
f 594/594/594 553/553/553 554/554/554
f 594/594/594 554/554/554 595/595/595
f 554/554/554 553/553/553 551/551/551
f 267/267/267 206/206/206 205/205/205
f 267/267/267 205/205/205 266/266/266
f 267/267/267 268/268/268 208/208/208
f 267/267/267 208/208/208 206/206/206
f 152/152/152 149/149/149 206/206/206
f 152/152/152 206/206/206 208/208/208
f 334/334/334 342/342/342 274/274/274
f 334/334/334 274/274/274 268/268/268
f 268/268/268 274/274/274 213/213/213
f 268/268/268 213/213/213 208/208/208
f 273/273/273 213/213/213 274/274/274
f 208/208/208 213/213/213 212/212/212
f 213/213/213 273/273/273 212/212/212
f 208/208/208 212/212/212 151/151/151
f 208/208/208 151/151/151 152/152/152
f 282/282/282 274/274/274 348/348/348
f 274/274/274 282/282/282 273/273/273
f 282/282/282 347/347/347 346/346/346
f 272/272/272 212/212/212 273/273/273
f 272/272/272 273/273/273 282/282/282
f 212/212/212 211/211/211 218/218/218
f 281/281/281 272/272/272 282/282/282
f 217/217/217 218/218/218 281/281/281
f 217/217/217 281/281/281 280/280/280
f 355/355/355 362/362/362 361/361/361
f 355/355/355 361/361/361 293/293/293
f 289/289/289 355/355/355 293/293/293
f 288/288/288 293/293/293 361/361/361
f 288/288/288 361/361/361 292/292/292
f 288/288/288 289/289/289 293/293/293
f 292/292/292 361/361/361 291/291/291
f 157/157/157 212/212/212 218/218/218
f 157/157/157 218/218/218 160/160/160
f 156/156/156 160/160/160 218/218/218
f 156/156/156 218/218/218 159/159/159
f 156/156/156 157/157/157 160/160/160
f 155/155/155 159/159/159 218/218/218
f 156/156/156 159/159/159 155/155/155
f 280/280/280 271/271/271 270/270/270
f 280/280/280 270/270/270 345/345/345
f 279/279/279 280/280/280 345/345/345
f 271/271/271 280/280/280 279/279/279
f 271/271/271 279/279/279 270/270/270
f 340/340/340 345/345/345 270/270/270
f 345/345/345 340/340/340 279/279/279
f 340/340/340 270/270/270 279/279/279
f 217/217/217 158/158/158 155/155/155
f 222/222/222 278/278/278 228/228/228
f 278/278/278 287/287/287 227/227/227
f 278/278/278 227/227/227 228/228/228
f 338/338/338 287/287/287 278/278/278
f 278/278/278 332/332/332 338/338/338
f 227/227/227 278/278/278 222/222/222
f 222/222/222 228/228/228 173/173/173
f 222/222/222 173/173/173 172/172/172
f 172/172/172 227/227/227 222/222/222
f 228/228/228 227/227/227 178/178/178
f 228/228/228 178/178/178 173/173/173
f 227/227/227 172/172/172 178/178/178
f 359/359/359 297/297/297 374/374/374
f 305/305/305 297/297/297 375/375/375
f 375/375/375 374/374/374 305/305/305
f 305/305/305 374/374/374 297/297/297
f 162/162/162 161/161/161 118/118/118
f 118/118/118 161/161/161 117/117/117
f 65/65/65 113/113/113 115/115/115
f 65/65/65 115/115/115 114/114/114
f 161/161/161 122/122/122 117/117/117
f 66/66/66 113/113/113 65/65/65
f 62/62/62 66/66/66 65/65/65
f 65/65/65 114/114/114 68/68/68
f 65/65/65 68/68/68 64/64/64
f 203/203/203 199/199/199 198/198/198
f 203/203/203 198/198/198 202/202/202
f 198/198/198 258/258/258 265/265/265
f 198/198/198 265/265/265 202/202/202
f 201/201/201 146/146/146 202/202/202
f 146/146/146 201/201/201 143/143/143
f 325/325/325 326/326/326 408/408/408
f 265/265/265 257/257/257 256/256/256
f 265/265/265 256/256/256 197/197/197
f 196/196/196 197/197/197 256/256/256
f 326/326/326 325/325/325 263/263/263
f 103/103/103 141/141/141 138/138/138
f 103/103/103 138/138/138 137/137/137
f 131/131/131 138/138/138 137/137/137
f 258/258/258 257/257/257 265/265/265
f 201/201/201 202/202/202 265/265/265
f 201/201/201 197/197/197 196/196/196
f 143/143/143 201/201/201 142/142/142
f 201/201/201 196/196/196 142/142/142
f 141/141/141 142/142/142 196/196/196
f 147/147/147 146/146/146 111/111/111
f 54/54/54 112/112/112 111/111/111
f 111/111/111 110/110/110 54/54/54
f 111/111/111 146/146/146 110/110/110
f 111/111/111 110/110/110 104/104/104
f 54/54/54 55/55/55 112/112/112
f 31/31/31 55/55/55 54/54/54
f 31/31/31 54/54/54 30/30/30
f 54/54/54 52/52/52 30/30/30
f 31/31/31 30/30/30 26/26/26
f 30/30/30 52/52/52 25/25/25
f 30/30/30 25/25/25 26/26/26
f 52/52/52 110/110/110 104/104/104
f 104/104/104 103/103/103 52/52/52
f 52/52/52 54/54/54 110/110/110
f 104/104/104 141/141/141 103/103/103
f 103/103/103 102/102/102 51/51/51
f 102/102/102 103/103/103 96/96/96
f 103/103/103 102/102/102 95/95/95
f 50/50/50 51/51/51 102/102/102
f 52/52/52 51/51/51 24/24/24
f 23/23/23 24/24/24 51/51/51
f 23/23/23 51/51/51 50/50/50
f 15/15/15 24/24/24 23/23/23
f 325/325/325 407/407/407 406/406/406
f 325/325/325 406/406/406 324/324/324
f 324/324/324 406/406/406 323/323/323
f 131/131/131 173/173/173 178/178/178
f 172/172/172 173/173/173 131/131/131
f 190/190/190 189/189/189 136/136/136
f 136/136/136 137/137/137 190/190/190
f 137/137/137 136/136/136 131/131/131
f 178/178/178 172/172/172 131/131/131
f 136/136/136 189/189/189 135/135/135
f 255/255/255 261/261/261 254/254/254
f 255/255/255 254/254/254 195/195/195
f 317/317/317 388/388/388 387/387/387
f 317/317/317 387/387/387 316/316/316
f 394/394/394 395/395/395 387/387/387
f 311/311/311 316/316/316 387/387/387
f 311/311/311 317/317/317 316/316/316
f 317/317/317 311/311/311 312/312/312
f 322/322/322 399/399/399 396/396/396
f 322/322/322 396/396/396 395/395/395
f 322/322/322 395/395/395 321/321/321
f 321/321/321 395/395/395 317/317/317
f 261/261/261 253/253/253 254/254/254
f 261/261/261 260/260/260 253/253/253
f 93/93/93 86/86/86 135/135/135
f 139/139/139 135/135/135 140/140/140
f 188/188/188 249/249/249 194/194/194
f 140/140/140 194/194/194 193/193/193
f 140/140/140 193/193/193 200/200/200
f 140/140/140 200/200/200 139/139/139
f 93/93/93 135/135/135 139/139/139
f 93/93/93 139/139/139 134/134/134
f 139/139/139 200/200/200 145/145/145
f 252/252/252 253/253/253 260/260/260
f 107/107/107 145/145/145 144/144/144
f 200/200/200 204/204/204 145/145/145
f 131/131/131 86/86/86 87/87/87
f 50/50/50 102/102/102 95/95/95
f 50/50/50 95/95/95 43/43/43
f 94/94/94 43/43/43 95/95/95
f 50/50/50 42/42/42 15/15/15
f 50/50/50 15/15/15 23/23/23
f 86/86/86 85/85/85 80/80/80
f 93/93/93 134/134/134 92/92/92
f 93/93/93 92/92/92 86/86/86
f 86/86/86 92/92/92 85/85/85
f 79/79/79 36/36/36 80/80/80
f 79/79/79 80/80/80 85/85/85
f 36/36/36 79/79/79 35/35/35
f 92/92/92 134/134/134 100/100/100
f 22/22/22 12/12/12 40/40/40
f 22/22/22 40/40/40 49/49/49
f 108/108/108 145/145/145 107/107/107
f 21/21/21 49/49/49 39/39/39
f 21/21/21 39/39/39 48/48/48
f 22/22/22 49/49/49 21/21/21
f 6/6/6 22/22/22 21/21/21
f 6/6/6 7/7/7 22/22/22
f 21/21/21 29/29/29 8/8/8
f 9/9/9 6/6/6 21/21/21
f 9/9/9 21/21/21 8/8/8
f 673/673/673 649/649/649 674/674/674
f 649/649/649 673/673/673 648/648/648
f 648/648/648 617/617/617 649/649/649
f 617/617/617 648/648/648 616/616/616
f 652/652/652 648/648/648 673/673/673
f 652/652/652 673/673/673 672/672/672
f 652/652/652 672/672/672 671/671/671
f 653/653/653 648/648/648 652/652/652
f 621/621/621 622/622/622 653/653/653
f 621/621/621 653/653/653 652/652/652
f 652/652/652 651/651/651 620/620/620
f 670/670/670 669/669/669 671/671/671
f 671/671/671 647/647/647 651/651/651
f 671/671/671 651/651/651 652/652/652
f 417/417/417 414/414/414 418/418/418
f 419/419/419 417/417/417 418/418/418
f 420/420/420 416/416/416 414/414/414
f 416/416/416 418/418/418 414/414/414
f 419/419/419 414/414/414 418/418/418
f 418/418/418 416/416/416 419/419/419
f 415/415/415 328/328/328 414/414/414
f 327/327/327 414/414/414 328/328/328
f 414/414/414 338/338/338 332/332/332
f 415/415/415 414/414/414 416/416/416
f 416/416/416 417/417/417 415/415/415
f 415/415/415 417/417/417 329/329/329
f 415/415/415 329/329/329 328/328/328
f 414/414/414 417/417/417 416/416/416
f 417/417/417 416/416/416 329/329/329
f 417/417/417 330/330/330 327/327/327
f 417/417/417 327/327/327 416/416/416
f 416/416/416 332/332/332 417/417/417
f 417/417/417 419/419/419 416/416/416
f 417/417/417 418/418/418 424/424/424
f 420/420/420 416/416/416 417/417/417
f 420/420/420 417/417/417 424/424/424
f 329/329/329 327/327/327 328/328/328
f 330/330/330 332/332/332 416/416/416
f 330/330/330 416/416/416 327/327/327
f 338/338/338 416/416/416 421/421/421
f 416/416/416 420/420/420 421/421/421
f 337/337/337 414/414/414 416/416/416
f 337/337/337 416/416/416 420/420/420
f 331/331/331 327/327/327 414/414/414
f 420/420/420 414/414/414 337/337/337
f 329/329/329 327/327/327 416/416/416
f 418/418/418 420/420/420 424/424/424
f 420/420/420 418/418/418 416/416/416
f 337/337/337 416/416/416 338/338/338
f 329/329/329 416/416/416 414/414/414
f 329/329/329 414/414/414 327/327/327
f 331/331/331 329/329/329 416/416/416
f 578/578/578 622/622/622 616/616/616
f 578/578/578 616/616/616 579/579/579
f 615/615/615 616/616/616 622/622/622
f 615/615/615 622/622/622 621/621/621
f 616/616/616 615/615/615 578/578/578
f 622/622/622 621/621/621 578/578/578
f 569/569/569 578/578/578 579/579/579
f 578/578/578 569/569/569 568/568/568
f 569/569/569 509/509/509 568/568/568
f 419/419/419 418/418/418 505/505/505
f 419/419/419 505/505/505 425/425/425
f 419/419/419 425/425/425 418/418/418
f 418/418/418 502/502/502 503/503/503
f 418/418/418 503/503/503 420/420/420
f 503/503/503 504/504/504 420/420/420
f 418/418/418 425/425/425 505/505/505
f 430/430/430 424/424/424 420/420/420
f 424/424/424 418/418/418 419/419/419
f 424/424/424 419/419/419 425/425/425
f 344/344/344 421/421/421 420/420/420
f 421/421/421 344/344/344 338/338/338
f 338/338/338 344/344/344 337/337/337
f 344/344/344 420/420/420 337/337/337
f 420/420/420 429/429/429 353/353/353
f 343/343/343 337/337/337 420/420/420
f 343/343/343 420/420/420 353/353/353
f 425/425/425 424/424/424 353/353/353
f 425/425/425 353/353/353 354/354/354
f 424/424/424 435/435/435 430/430/430
f 420/420/420 352/352/352 429/429/429
f 420/420/420 343/343/343 352/352/352
f 331/331/331 336/336/336 337/337/337
f 337/337/337 336/336/336 343/343/343
f 357/357/357 353/353/353 429/429/429
f 429/429/429 352/352/352 364/364/364
f 429/429/429 364/364/364 357/357/357
f 365/365/365 343/343/343 353/353/353
f 365/365/365 353/353/353 357/357/357
f 352/352/352 343/343/343 365/365/365
f 352/352/352 365/365/365 364/364/364
f 366/366/366 435/435/435 446/446/446
f 354/354/354 353/353/353 358/358/358
f 359/359/359 354/354/354 358/358/358
f 430/430/430 435/435/435 445/445/445
f 430/430/430 445/445/445 366/366/366
f 435/435/435 430/430/430 366/366/366
f 435/435/435 366/366/366 445/445/445
f 435/435/435 445/445/445 446/446/446
f 374/374/374 446/446/446 457/457/457
f 446/446/446 445/445/445 457/457/457
f 445/445/445 366/366/366 374/374/374
f 445/445/445 374/374/374 457/457/457
f 379/379/379 374/374/374 457/457/457
f 374/374/374 366/366/366 446/446/446
f 373/373/373 366/366/366 445/445/445
f 373/373/373 445/445/445 456/456/456
f 444/444/444 435/435/435 434/434/434
f 435/435/435 430/430/430 434/434/434
f 445/445/445 455/455/455 456/456/456
f 357/357/357 364/364/364 365/365/365
f 582/582/582 583/583/583 619/619/619
f 614/614/614 646/646/646 618/618/618
f 618/618/618 646/646/646 650/650/650
f 618/618/618 577/577/577 581/581/581
f 581/581/581 526/526/526 527/527/527
f 581/581/581 577/577/577 526/526/526
f 562/562/562 566/566/566 606/606/606
f 562/562/562 606/606/606 602/602/602
f 607/607/607 606/606/606 566/566/566
f 607/607/607 566/566/566 567/567/567
f 576/576/576 577/577/577 567/567/567
f 576/576/576 567/567/567 566/566/566
f 612/612/612 607/607/607 577/577/577
f 526/526/526 577/577/577 576/576/576
f 526/526/526 576/576/576 524/524/524
f 576/576/576 566/566/566 515/515/515
f 576/576/576 515/515/515 524/524/524
f 526/526/526 524/524/524 443/443/443
f 526/526/526 443/443/443 450/450/450
f 370/370/370 371/371/371 451/451/451
f 451/451/451 371/371/371 452/452/452
f 515/515/515 566/566/566 562/562/562
f 515/515/515 562/562/562 508/508/508
f 690/690/690 686/686/686 689/689/689
f 686/686/686 685/685/685 689/689/689
f 689/689/689 692/692/692 690/690/690
f 588/588/588 540/540/540 541/541/541
f 590/590/590 591/591/591 632/632/632
f 590/590/590 632/632/632 631/631/631
f 628/628/628 587/587/587 588/588/588
f 591/591/591 541/541/541 544/544/544
f 541/541/541 591/591/591 590/590/590
f 541/541/541 590/590/590 588/588/588
f 588/588/588 589/589/589 590/590/590
f 628/628/628 627/627/627 587/587/587
f 588/588/588 587/587/587 589/589/589
f 540/540/540 588/588/588 590/590/590
f 540/540/540 590/590/590 543/543/543
f 590/590/590 589/589/589 542/542/542
f 590/590/590 542/542/542 543/543/543
f 538/538/538 461/461/461 535/535/535
f 472/472/472 473/473/473 541/541/541
f 472/472/472 541/541/541 540/540/540
f 467/467/467 473/473/473 472/472/472
f 467/467/467 472/472/472 466/466/466
f 466/466/466 540/540/540 538/538/538
f 466/466/466 472/472/472 540/540/540
f 530/530/530 534/534/534 531/531/531
f 531/531/531 534/534/534 535/535/535
f 460/460/460 531/531/531 535/535/535
f 460/460/460 535/535/535 534/534/534
f 456/456/456 534/534/534 460/460/460
f 456/456/456 455/455/455 460/460/460
f 456/456/456 531/531/531 460/460/460
f 460/460/460 534/534/534 537/537/537
f 460/460/460 537/537/537 465/465/465
f 456/456/456 461/461/461 373/373/373
f 461/461/461 460/460/460 466/466/466
f 461/461/461 466/466/466 465/465/465
f 465/465/465 460/460/460 461/461/461
f 377/377/377 461/461/461 460/460/460
f 466/466/466 460/460/460 465/465/465
f 465/465/465 471/471/471 385/385/385
f 546/546/546 544/544/544 543/543/543
f 546/546/546 543/543/543 545/545/545
f 487/487/487 546/546/546 545/545/545
f 487/487/487 488/488/488 546/546/546
f 481/481/481 487/487/487 480/480/480
f 487/487/487 545/545/545 543/543/543
f 492/492/492 487/487/487 488/488/488
f 492/492/492 548/548/548 547/547/547
f 487/487/487 492/492/492 547/547/547
f 481/481/481 488/488/488 480/480/480
f 488/488/488 487/487/487 480/480/480
f 480/480/480 487/487/487 403/403/403
f 403/403/403 487/487/487 402/402/402
f 582/582/582 619/619/619 618/618/618
f 582/582/582 618/618/618 581/581/581
f 528/528/528 529/529/529 454/454/454
f 464/464/464 465/465/465 537/537/537
f 464/464/464 537/537/537 536/536/536
f 385/385/385 471/471/471 470/470/470
f 384/384/384 385/385/385 470/470/470
f 532/532/532 533/533/533 528/528/528
f 532/532/532 528/528/528 527/527/527
f 453/453/453 528/528/528 527/527/527
f 453/453/453 452/452/452 372/372/372
f 527/527/527 526/526/526 532/532/532
f 452/452/452 453/453/453 527/527/527
f 532/532/532 526/526/526 459/459/459
f 371/371/371 372/372/372 452/452/452
f 277/277/277 221/221/221 290/290/290
f 220/220/220 277/277/277 290/290/290
f 277/277/277 220/220/220 221/221/221
f 359/359/359 358/358/358 295/295/295
f 359/359/359 295/295/295 296/296/296
f 295/295/295 296/296/296 301/301/301
f 226/226/226 220/220/220 290/290/290
f 290/290/290 221/221/221 225/225/225
f 290/290/290 225/225/225 226/226/226
f 221/221/221 220/220/220 225/225/225
f 225/225/225 220/220/220 226/226/226
f 230/230/230 295/295/295 301/301/301
f 219/219/219 286/286/286 285/285/285
f 219/219/219 220/220/220 286/286/286
f 284/284/284 219/219/219 285/285/285
f 219/219/219 284/284/284 215/215/215
f 226/226/226 225/225/225 176/176/176
f 226/226/226 176/176/176 177/177/177
f 68/68/68 114/114/114 117/117/117
f 68/68/68 117/117/117 116/116/116
f 121/121/121 116/116/116 117/117/117
f 71/71/71 116/116/116 121/121/121
f 164/164/164 170/170/170 124/124/124
f 164/164/164 169/169/169 170/170/170
f 121/121/121 165/165/165 164/164/164
f 124/124/124 121/121/121 164/164/164
f 74/74/74 121/121/121 120/120/120
f 285/285/285 352/352/352 351/351/351
f 215/215/215 284/284/284 276/276/276
f 219/219/219 215/215/215 216/216/216
f 275/275/275 215/215/215 276/276/276
f 210/210/210 215/215/215 214/214/214
f 210/210/210 214/214/214 209/209/209
f 214/214/214 215/215/215 275/275/275
f 214/214/214 275/275/275 209/209/209
f 365/365/365 364/364/364 300/300/300
f 300/300/300 299/299/299 304/304/304
f 283/283/283 284/284/284 351/351/351
f 283/283/283 351/351/351 350/350/350
f 154/154/154 210/210/210 209/209/209
f 154/154/154 209/209/209 150/150/150
f 154/154/154 150/150/150 153/153/153
f 209/209/209 207/207/207 150/150/150
f 164/164/164 163/163/163 169/169/169
f 123/123/123 124/124/124 170/170/170
f 123/123/123 170/170/170 169/169/169
f 58/58/58 61/61/61 60/60/60
f 58/58/58 60/60/60 57/57/57
f 60/60/60 61/61/61 65/65/65
f 60/60/60 65/65/65 64/64/64
f 60/60/60 64/64/64 63/63/63
f 60/60/60 63/63/63 59/59/59
f 67/67/67 63/63/63 64/64/64
f 67/67/67 64/64/64 68/68/68
f 68/68/68 116/116/116 71/71/71
f 72/72/72 75/75/75 76/76/76
f 74/74/74 75/75/75 121/121/121
f 75/75/75 34/34/34 71/71/71
f 70/70/70 71/71/71 74/74/74
f 71/71/71 121/121/121 74/74/74
f 34/34/34 75/75/75 74/74/74
f 74/74/74 70/70/70 33/33/33
f 74/74/74 33/33/33 34/34/34
f 74/74/74 73/73/73 70/70/70
f 70/70/70 73/73/73 119/119/119
f 70/70/70 119/119/119 69/69/69
f 223/223/223 229/229/229 298/298/298
f 223/223/223 298/298/298 294/294/294
f 378/378/378 386/386/386 310/310/310
f 386/386/386 378/378/378 377/377/377
f 246/246/246 247/247/247 315/315/315
f 386/386/386 377/377/377 385/385/385
f 385/385/385 377/377/377 309/309/309
f 310/310/310 386/386/386 385/385/385
f 310/310/310 385/385/385 309/309/309
f 320/320/320 319/319/319 251/251/251
f 320/320/320 251/251/251 252/252/252
f 315/315/315 319/319/319 246/246/246
f 319/319/319 318/318/318 251/251/251
f 250/250/250 251/251/251 318/318/318
f 177/177/177 176/176/176 130/130/130
f 185/185/185 241/241/241 184/184/184
f 187/187/187 247/247/247 185/185/185
f 240/240/240 241/241/241 247/247/247
f 240/240/240 247/247/247 246/246/246
f 184/184/184 241/241/241 240/240/240
f 184/184/184 240/240/240 246/246/246
f 130/130/130 133/133/133 91/91/91
f 84/84/84 130/130/130 91/91/91
f 133/133/133 130/130/130 84/84/84
f 191/191/191 192/192/192 252/252/252
f 191/191/191 252/252/252 251/251/251
f 304/304/304 299/299/299 234/234/234
f 304/304/304 235/235/235 239/239/239
f 186/186/186 245/245/245 244/244/244
f 186/186/186 244/244/244 239/239/239
f 186/186/186 239/239/239 182/182/182
f 186/186/186 182/182/182 183/183/183
f 127/127/127 128/128/128 182/182/182
f 127/127/127 182/182/182 181/181/181
f 91/91/91 133/133/133 84/84/84
f 91/91/91 90/90/90 46/46/46
f 83/83/83 89/89/89 90/90/90
f 99/99/99 46/46/46 90/90/90
f 39/39/39 47/47/47 48/48/48
f 39/39/39 91/91/91 38/38/38
f 47/47/47 39/39/39 38/38/38
f 20/20/20 48/48/48 47/47/47
f 38/38/38 91/91/91 47/47/47
f 105/105/105 53/53/53 106/106/106
f 45/45/45 46/46/46 53/53/53
f 19/19/19 46/46/46 45/45/45
f 21/21/21 48/48/48 20/20/20
f 21/21/21 20/20/20 29/29/29
f 20/20/20 29/29/29 28/28/28
f 19/19/19 45/45/45 18/18/18
f 89/89/89 83/83/83 82/82/82
f 90/90/90 89/89/89 98/98/98
f 90/90/90 98/98/98 99/99/99
f 45/45/45 97/97/97 44/44/44
f 45/45/45 44/44/44 17/17/17
f 45/45/45 17/17/17 18/18/18
f 11/11/11 17/17/17 44/44/44
f 11/11/11 44/44/44 37/37/37
f 18/18/18 17/17/17 4/4/4
f 4/4/4 17/17/17 11/11/11
f 4/4/4 2/2/2 3/3/3
f 383/383/383 382/382/382 307/307/307
f 307/307/307 308/308/308 383/383/383
f 303/303/303 234/234/234 308/308/308
f 238/238/238 234/234/234 308/308/308
f 234/234/234 238/238/238 237/237/237
f 237/237/237 238/238/238 308/308/308
f 382/382/382 313/313/313 307/307/307
f 306/306/306 307/307/307 313/313/313
f 232/232/232 233/233/233 236/236/236
f 236/236/236 237/237/237 307/307/307
f 236/236/236 307/307/307 306/306/306
f 181/181/181 238/238/238 237/237/237
f 181/181/181 237/237/237 180/180/180
f 127/127/127 181/181/181 180/180/180
f 127/127/127 180/180/180 126/126/126
f 127/127/127 126/126/126 125/125/125
f 174/174/174 125/125/125 180/180/180
f 179/179/179 237/237/237 236/236/236
f 125/125/125 126/126/126 180/180/180
f 380/380/380 302/302/302 306/306/306
f 380/380/380 306/306/306 381/381/381
f 380/380/380 376/376/376 302/302/302
f 232/232/232 306/306/306 302/302/302
f 232/232/232 302/302/302 231/231/231
f 229/229/229 231/231/231 302/302/302
f 306/306/306 232/232/232 236/236/236
f 369/369/369 298/298/298 302/302/302
f 302/302/302 298/298/298 229/229/229
f 167/167/167 174/174/174 232/232/232
f 167/167/167 232/232/232 231/231/231
f 231/231/231 229/229/229 167/167/167
f 81/81/81 77/77/77 78/78/78
f 81/81/81 127/127/127 77/77/77
f 77/77/77 127/127/127 125/125/125
