# 由 henjicc/yipiantian 的 lingcao_huichun_young 转换而来（见 manifest.json）
mtllib lingcao_huichun_young.mtl
o lingcao_huichun_young
v -0.13957 0.14381 -0.05640
v -0.13979 0.14467 -0.05418
v -0.14422 0.14853 -0.04815
v -0.14336 0.15239 -0.03707
v -0.14835 0.15724 -0.03163
v -0.14331 0.16065 -0.02262
v -0.14779 0.16403 -0.01876
v -0.14085 0.16466 -0.01111
v -0.13107 0.11729 0.10801
v -0.12578 0.11638 0.11371
v -0.12552 0.12560 0.06134
v -0.13261 0.12747 0.08358
v -0.13431 0.12412 0.09165
v -0.13029 0.12040 0.10377
v -0.12650 0.13390 -0.08514
v -0.12686 0.13465 -0.08127
v -0.13051 0.12814 0.06922
v -0.12908 0.12865 0.07706
v -0.12720 0.12774 0.08913
v -0.13072 0.13641 -0.08222
v -0.13401 0.13831 -0.07448
v -0.13297 0.14000 -0.05875
v -0.12672 0.14047 -0.05114
v -0.13756 0.14569 -0.04863
v -0.12882 0.15063 -0.03251
v -0.13031 0.15867 -0.01775
v -0.12670 0.16065 -0.00962
v -0.13172 0.16325 -0.00493
v -0.12776 0.16411 0.00555
v -0.11234 0.11848 0.04511
v -0.11834 0.11758 0.11729
v -0.11403 0.12620 -0.08909
v -0.11216 0.11934 0.04267
v -0.11857 0.12124 0.04908
v -0.12190 0.12537 0.06370
v -0.11365 0.12354 0.11108
v -0.11424 0.12004 0.11616
v -0.11994 0.13004 -0.08740
v -0.11778 0.13065 -0.07748
v -0.11798 0.13437 -0.06136
v -0.12232 0.12919 0.07880
v -0.11663 0.12957 0.09157
v -0.12178 0.13681 -0.05486
v -0.11564 0.13769 -0.04931
v -0.12151 0.14426 -0.03982
v -0.11649 0.14941 -0.02967
v -0.11944 0.15749 -0.01519
v -0.11923 0.15930 -0.00981
v -0.11338 0.16106 0.00325
v -0.12078 0.16307 0.01111
v -0.11342 0.16293 0.01725
v -0.09922 0.11893 -0.08520
v -0.10438 0.11734 0.04033
v -0.10171 0.11425 0.04478
v -0.09983 0.11419 0.05676
v -0.10121 0.11823 0.12385
v -0.10542 0.12156 -0.08701
v -0.10304 0.12385 -0.07577
v -0.10539 0.11920 0.03786
v -0.10457 0.12137 0.06583
v -0.10517 0.12568 0.11042
v -0.10391 0.12122 0.11853
v -0.10478 0.12990 -0.06048
v -0.10769 0.13424 -0.05242
v -0.10335 0.12869 0.08026
v -0.10471 0.13126 0.09252
v -0.10430 0.12957 0.10288
v -0.10593 0.13654 -0.04551
v -0.09875 0.14061 -0.03359
v -0.10701 0.14535 -0.03197
v -0.10349 0.15076 -0.02249
v -0.09997 0.15564 -0.01260
v -0.10647 0.15930 -0.00393
v -0.09902 0.16011 0.00474
v -0.10728 0.16160 0.01178
v -0.10410 0.16259 0.01909
v -0.08480 0.10918 0.04010
v -0.09008 0.10850 0.05134
v -0.08412 0.10701 0.05838
v -0.09282 0.11663 -0.08273
v -0.09063 0.11582 -0.07611
v -0.08614 0.11477 -0.06239
v -0.08507 0.11866 -0.05107
v -0.08991 0.11448 0.03484
v -0.09455 0.11121 0.04470
v -0.09015 0.11507 0.06631
v -0.09685 0.11853 0.12449
v -0.09360 0.11893 0.12625
v -0.09320 0.12110 -0.06814
v -0.09152 0.12245 -0.06028
v -0.08796 0.12376 -0.04524
v -0.08900 0.12480 0.07735
v -0.09464 0.12248 0.11923
v -0.08821 0.12155 0.12840
v -0.09496 0.13207 -0.04321
v -0.08832 0.13076 -0.03377
v -0.09114 0.13232 0.09275
v -0.09040 0.13099 0.10751
v -0.08480 0.12814 0.12056
v -0.08886 0.13871 -0.02709
v -0.08534 0.14250 -0.02140
v -0.09340 0.14724 -0.02167
v -0.08683 0.15185 -0.01178
v -0.09306 0.15700 -0.00501
v -0.08707 0.16017 0.01000
v -0.08832 0.16147 0.01544
v -0.09285 0.16227 0.01894
v -0.07179 0.10173 -0.03861
v -0.07328 0.10105 0.05188
v -0.07112 0.10010 0.05771
v -0.07586 0.10864 -0.07139
v -0.07954 0.10883 -0.05789
v -0.07790 0.10749 -0.04820
v -0.07319 0.10539 -0.03544
v -0.07524 0.10742 0.03748
v -0.07464 0.10308 0.04504
v -0.07726 0.10823 0.06705
v -0.07339 0.11324 -0.09647
v -0.08008 0.11339 -0.08961
v -0.08118 0.11139 -0.07586
v -0.08358 0.11378 -0.05554
v -0.08121 0.11280 -0.04983
v -0.07740 0.11403 -0.03435
v -0.08240 0.11214 0.03392
v -0.07613 0.11412 0.07233
v -0.07867 0.12197 -0.03143
v -0.07504 0.12042 0.07559
v -0.07610 0.12505 0.12980
v -0.08304 0.13207 -0.02777
v -0.07475 0.13386 -0.02273
v -0.07884 0.12855 0.08060
v -0.08182 0.13343 0.08778
v -0.08263 0.13519 0.10647
v -0.07642 0.13315 0.11910
v -0.07714 0.12828 0.12638
v -0.07291 0.13955 -0.01809
v -0.07206 0.13763 0.08832
v -0.07498 0.13824 0.10495
v -0.07431 0.13624 0.11498
v -0.07545 0.14724 -0.01401
v -0.07537 0.15002 -0.00923
v -0.07233 0.15510 -0.01287
v -0.07760 0.15663 -0.00481
v -0.08295 0.15903 0.00587
v -0.07376 0.16581 -0.00335
v -0.07294 0.16869 0.00929
v -0.07423 0.17000 0.00786
v -0.05771 0.09211 -0.02614
v -0.06285 0.10173 -0.05581
v -0.06253 0.09888 -0.04516
v -0.06285 0.09680 -0.03151
v -0.06204 0.09763 0.04710
v -0.06296 0.09823 0.06207
v -0.05908 0.11015 -0.09633
v -0.06213 0.10900 -0.08778
v -0.06651 0.10661 -0.07477
v -0.06502 0.10417 -0.06529
v -0.06895 0.10959 -0.02777
v -0.06055 0.10363 -0.02384
v -0.06868 0.10241 0.04186
v -0.06895 0.10308 0.04321
v -0.05852 0.10308 0.06583
v -0.06637 0.11209 -0.09840
v -0.06908 0.11121 -0.09143
v -0.06421 0.11460 -0.02479
v -0.06367 0.11297 0.07152
v -0.06272 0.12358 -0.02289
v -0.06380 0.12442 0.07416
v -0.06430 0.12146 0.13316
v -0.06432 0.13070 -0.02101
v -0.06631 0.13363 0.07972
v -0.06326 0.13492 0.12029
v -0.06373 0.12808 0.12753
v -0.06594 0.13998 -0.01793
v -0.06231 0.14300 0.09469
v -0.06399 0.14088 0.10994
v -0.06690 0.14718 -0.01493
v -0.06073 0.15189 -0.00719
v -0.06795 0.15783 -0.00755
v -0.06245 0.15740 0.00948
v -0.06024 0.15919 0.02176
v -0.06922 0.16465 0.01063
v -0.06673 0.16430 0.01949
v -0.05231 0.09203 -0.02855
v -0.04809 0.08963 -0.02003
v -0.04524 0.09082 0.04077
v -0.04992 0.09013 0.04800
v -0.05197 0.10024 -0.04718
v -0.04755 0.09583 -0.03018
v -0.05313 0.09601 -0.02012
v -0.04664 0.09374 0.04240
v -0.04660 0.09667 0.04765
v -0.05310 0.09590 0.05892
v -0.04977 0.10749 -0.08910
v -0.04826 0.10496 -0.07286
v -0.04681 0.10361 -0.06194
v -0.04967 0.10697 -0.01982
v -0.04484 0.10647 0.05622
v -0.05175 0.10539 0.06231
v -0.04897 0.11636 -0.01984
v -0.05129 0.11496 0.06466
v -0.05351 0.12422 -0.02005
v -0.04910 0.12577 0.06637
v -0.04966 0.12117 0.13282
v -0.04978 0.13309 -0.01625
v -0.04944 0.12896 0.12692
v -0.05195 0.13959 -0.01368
v -0.04799 0.14159 -0.00792
v -0.04998 0.13688 0.07362
v -0.05445 0.14399 0.08547
v -0.04856 0.13918 0.11704
v -0.05527 0.14797 -0.00741
v -0.05093 0.14905 0.00686
v -0.04794 0.15036 0.01840
v -0.04484 0.14616 0.08263
v -0.05229 0.14724 0.09618
v -0.04849 0.14616 0.10633
v -0.05324 0.15583 0.02434
v -0.03095 0.07179 -0.00467
v -0.03739 0.08236 -0.01409
v -0.03432 0.08030 -0.00878
v -0.03102 0.07721 0.02669
v -0.03474 0.08221 0.03442
v -0.03879 0.08859 -0.01603
v -0.03776 0.08955 -0.01104
v -0.03490 0.08686 0.03505
v -0.04091 0.09134 0.04533
v -0.03461 0.10186 -0.06929
v -0.03201 0.10102 -0.06138
v -0.03480 0.10172 -0.04737
v -0.04068 0.10034 -0.03621
v -0.03915 0.09563 -0.01726
v -0.04118 0.09374 0.04145
v -0.04247 0.09688 0.04667
v -0.04280 0.10579 -0.08297
v -0.03989 0.10381 -0.07291
v -0.04043 0.10329 -0.06400
v -0.03296 0.10218 -0.04416
v -0.03694 0.10436 -0.01660
v -0.04126 0.10596 0.05143
v -0.03598 0.11556 -0.01634
v -0.03761 0.11446 0.05409
v -0.03554 0.12402 -0.01434
v -0.03436 0.12403 0.05789
v -0.04040 0.12489 0.13019
v -0.03364 0.13156 -0.00962
v -0.03564 0.13165 0.06279
v -0.03395 0.13334 0.12259
v -0.03698 0.12882 0.12706
v -0.03513 0.13830 -0.00366
v -0.03712 0.14426 0.00623
v -0.03391 0.13966 0.06831
v -0.03286 0.14375 0.07209
v -0.03143 0.14386 0.10979
v -0.03149 0.13959 0.11541
v -0.03813 0.14663 0.01246
v -0.03587 0.14925 0.02235
v -0.03315 0.14820 0.07970
v -0.03725 0.14988 0.09405
v -0.03506 0.14672 0.10554
v -0.02073 0.05154 -0.00386
v -0.01984 0.05405 0.00210
v -0.02394 0.06491 -0.00347
v -0.01856 0.06231 0.01476
v -0.01910 0.06023 0.01937
v -0.02724 0.07425 -0.00633
v -0.02376 0.07209 0.02347
v -0.02994 0.07586 0.02967
v -0.02953 0.08249 -0.00989
v -0.02854 0.08037 0.02583
v -0.02655 0.07857 0.03048
v -0.02980 0.10075 -0.05564
v -0.02953 0.10122 -0.05129
v -0.03007 0.13532 -0.00488
v -0.02899 0.13481 0.12035
v -0.02878 0.13783 -0.00139
v -0.02618 0.14169 0.00637
v -0.02780 0.14369 0.10942
v -0.02841 0.13830 0.11631
v -0.02709 0.14487 0.01287
v -0.02798 0.14673 0.01729
v -0.02970 0.15046 0.08346
v -0.02793 0.15061 0.09155
v -0.02661 0.14689 0.10357
v -0.00740 0.00403 -0.00406
v -0.00785 0.00385 0.00944
v -0.00885 0.01156 -0.00393
v -0.00872 0.01134 0.00966
v -0.00979 0.02138 -0.00443
v -0.00788 0.01958 0.01082
v -0.00958 0.02863 0.00629
v -0.01055 0.03788 -0.00349
v -0.00989 0.03725 0.00766
v -0.01129 0.04752 0.01147
v -0.01084 0.04673 0.01598
v -0.01483 0.05506 -0.00254
v -0.01517 0.06285 0.01775
v -0.00613 0.07220 -0.00396
v -0.00511 0.07251 0.13281
v -0.00610 0.08317 -0.01287
v -0.00987 0.08099 -0.00900
v -0.00552 0.08037 0.12923
v -0.01058 0.09062 -0.01649
v -0.01188 0.08620 -0.01224
v -0.00370 0.09058 0.12112
v -0.00569 0.08507 0.12625
v -0.00867 0.10200 -0.02709
v -0.00731 0.09645 -0.02265
v -0.00477 0.11009 -0.10884
v -0.00608 0.10474 -0.03012
v -0.00587 0.11160 -0.10159
v -0.00507 0.11217 -0.09062
v 0.00510 0.00369 -0.00616
v 0.00418 0.00341 0.00819
v 0.00517 0.01255 -0.00641
v 0.00684 0.01278 0.00649
v 0.00569 0.02438 -0.01368
v 0.00336 0.02345 -0.00549
v 0.00463 0.02233 0.00777
v 0.00439 0.02918 -0.00522
v 0.00196 0.02975 0.00547
v 0.00271 0.03183 0.01544
v 0.00629 0.04161 -0.00596
v 0.00219 0.03421 0.00617
v 0.00772 0.04240 0.01761
v 0.00908 0.04280 -0.02086
v 0.00302 0.04347 -0.00144
v 0.00438 0.04515 0.00640
v 0.00265 0.04337 0.01785
v 0.00573 0.05243 -0.00354
v 0.00725 0.05452 0.01422
v 0.00512 0.05470 0.02208
v 0.00524 0.05614 0.13690
v 0.00487 0.06253 -0.00454
v 0.00666 0.06406 0.02361
v 0.00948 0.06773 0.03292
v 0.00243 0.06265 0.13480
v 0.00880 0.07559 -0.01260
v 0.00252 0.07083 -0.00786
v 0.00656 0.07114 0.02473
v 0.00573 0.07224 0.03386
v 0.00025 0.07087 0.13191
v 0.00594 0.08087 -0.01526
v -0.00149 0.07897 -0.01219
v 0.00750 0.08037 0.03653
v 0.00908 0.07884 0.04335
v 0.00759 0.08249 0.12489
v -0.00014 0.08290 0.12611
v 0.00412 0.08886 -0.02033
v -0.00026 0.09203 0.11850
v 0.00506 0.10033 -0.02804
v 0.00188 0.09496 -0.02390
v 0.00812 0.09994 0.07690
v 0.00615 0.10079 0.09077
v 0.00165 0.09933 0.10577
v -0.00144 0.09476 0.11576
v 0.00213 0.10980 -0.11454
v -0.00002 0.10983 -0.10798
v 0.00271 0.10970 -0.08307
v 0.00425 0.10708 -0.07513
v 0.00121 0.10686 -0.03300
v 0.00717 0.11681 -0.12573
v 0.00471 0.11258 -0.12017
v -0.00024 0.11121 -0.10065
v 0.00068 0.11102 -0.08710
v 0.00664 0.11192 -0.03742
v 0.00953 0.11993 -0.12936
v 0.01151 0.02520 -0.00786
v 0.01043 0.03048 0.00880
v 0.01373 0.03888 -0.02000
v 0.01226 0.04484 -0.01700
v 0.01057 0.04375 0.01422
v 0.01575 0.05442 -0.02885
v 0.01917 0.05561 -0.02587
v 0.01077 0.05520 0.02039
v 0.01596 0.05705 0.13708
v 0.02061 0.06525 -0.03915
v 0.01105 0.06510 -0.00339
v 0.01138 0.06421 0.02574
v 0.01665 0.06419 0.13442
v 0.02262 0.07504 -0.04646
v 0.02167 0.06976 -0.03610
v 0.01283 0.07294 -0.00464
v 0.01084 0.07274 0.02723
v 0.01178 0.07203 0.03481
v 0.01905 0.07318 0.12939
v 0.01300 0.08168 -0.01382
v 0.01411 0.08083 -0.00664
v 0.01736 0.08175 0.00372
v 0.01338 0.07963 0.03778
v 0.01581 0.08248 0.04934
v 0.02030 0.08030 0.12428
v 0.02039 0.07762 0.12625
v 0.01449 0.08971 -0.01850
v 0.01533 0.08845 -0.00702
v 0.01869 0.08955 0.00631
v 0.01043 0.08507 0.03847
v 0.01728 0.08932 0.05112
v 0.01909 0.09051 0.06025
v 0.01937 0.08845 0.11690
v 0.02123 0.09882 -0.06908
v 0.01745 0.09778 -0.02041
v 0.01742 0.09609 -0.00447
v 0.02107 0.09654 0.00786
v 0.01546 0.09545 0.06565
v 0.01699 0.09685 0.07721
v 0.01308 0.09849 0.08900
v 0.01510 0.09516 0.10681
v 0.01219 0.10986 -0.11189
v 0.02289 0.10972 -0.10674
v 0.01712 0.10764 -0.08564
v 0.01231 0.10379 -0.07059
v 0.01284 0.10298 -0.06792
v 0.01662 0.10588 -0.02903
v 0.02188 0.10424 -0.01869
v 0.02026 0.10621 -0.00587
v 0.02323 0.10437 0.00379
v 0.01314 0.11853 -0.12679
v 0.01676 0.11309 -0.11905
v 0.01436 0.11067 -0.10322
v 0.01680 0.11053 -0.09509
v 0.01771 0.11546 -0.03718
v 0.02083 0.11452 -0.00794
v 0.01747 0.12359 -0.13324
v 0.02299 0.11995 -0.00884
v 0.03289 0.04808 0.13842
v 0.02723 0.05080 0.13993
v 0.02867 0.05494 0.13766
v 0.02628 0.05188 0.13993
v 0.02479 0.06583 -0.03644
v 0.02858 0.06678 0.13207
v 0.02669 0.07196 -0.04608
v 0.02912 0.07437 0.12733
v 0.03037 0.08033 -0.05900
v 0.02866 0.08054 -0.04901
v 0.02899 0.08168 0.12137
v 0.03429 0.09035 -0.07568
v 0.03140 0.08894 -0.06108
v 0.02465 0.08778 0.05581
v 0.02944 0.09036 0.06335
v 0.02858 0.09235 0.07606
v 0.03278 0.09347 0.09103
v 0.03210 0.09218 0.10268
v 0.02926 0.08791 0.11406
v 0.03315 0.09980 -0.08944
v 0.02660 0.09567 -0.07210
v 0.02506 0.10146 0.01036
v 0.03428 0.09469 0.06137
v 0.02492 0.09496 0.09198
v 0.03579 0.10877 -0.11492
v 0.03319 0.10525 -0.10307
v 0.02723 0.10484 -0.09089
v 0.02525 0.10962 -0.01666
v 0.02411 0.10999 -0.00135
v 0.02761 0.10648 0.00758
v 0.03541 0.11748 -0.12896
v 0.03201 0.11216 -0.11988
v 0.02605 0.11800 -0.03034
v 0.02798 0.11570 -0.01955
v 0.02943 0.11555 -0.00223
v 0.02973 0.11164 0.00328
v 0.02994 0.12268 -0.13360
v 0.02664 0.11957 -0.03235
v 0.02960 0.12325 -0.01928
v 0.03056 0.12146 -0.00421
v 0.03441 0.13051 -0.02162
v 0.03657 0.12817 -0.00366
v 0.04345 0.04734 0.13682
v 0.04578 0.05427 0.13334
v 0.04407 0.06610 0.12819
v 0.04152 0.07396 0.12415
v 0.04050 0.08087 0.11825
v 0.04020 0.09086 -0.07332
v 0.03762 0.08707 -0.06096
v 0.03752 0.09211 0.07816
v 0.04567 0.09213 0.09279
v 0.04348 0.08730 0.10830
v 0.03960 0.10114 -0.09916
v 0.04317 0.09828 -0.08910
v 0.04768 0.09894 -0.07572
v 0.04192 0.09653 -0.05929
v 0.04696 0.09748 0.05287
v 0.04314 0.09715 0.06093
v 0.04493 0.09432 0.07739
v 0.04660 0.11040 -0.12571
v 0.04181 0.10632 -0.11343
v 0.04043 0.10291 -0.10452
v 0.04978 0.10386 -0.06133
v 0.04505 0.11269 -0.13212
v 0.03824 0.11117 -0.12155
v 0.03908 0.13456 -0.02148
v 0.04090 0.13236 -0.00123
v 0.04588 0.13890 -0.01831
v 0.04806 0.13894 -0.00306
v 0.06241 0.04074 0.13492
v 0.05936 0.04513 0.13440
v 0.05389 0.05565 0.13031
v 0.05418 0.06525 0.12431
v 0.05206 0.06177 0.12756
v 0.05400 0.07017 0.12124
v 0.06272 0.08195 0.10728
v 0.05188 0.08006 0.11351
v 0.05676 0.08791 0.10146
v 0.06317 0.10168 -0.12792
v 0.05982 0.09910 -0.11338
v 0.05644 0.09893 -0.10214
v 0.05679 0.10037 -0.09028
v 0.05725 0.09602 0.04841
v 0.05473 0.09794 0.05960
v 0.05655 0.09604 0.07498
v 0.05882 0.09367 0.08910
v 0.05773 0.10626 -0.13351
v 0.05527 0.10403 -0.11866
v 0.05703 0.10227 -0.08412
v 0.05700 0.10447 -0.07507
v 0.05798 0.10895 -0.05951
v 0.05409 0.10882 -0.05312
v 0.05114 0.11060 -0.13566
v 0.06299 0.11229 -0.05594
v 0.06048 0.11279 -0.05264
v 0.05151 0.14206 -0.01334
v 0.05257 0.14243 -0.00963
v 0.07373 0.03310 0.13004
v 0.06905 0.03709 0.13175
v 0.07003 0.04267 0.12828
v 0.06529 0.05242 0.12611
v 0.07342 0.06651 0.11622
v 0.06827 0.07491 0.11229
v 0.07499 0.08168 -0.11592
v 0.07233 0.08493 0.10186
v 0.07145 0.09248 -0.12486
v 0.06996 0.08908 -0.11685
v 0.07301 0.08717 -0.10532
v 0.07703 0.08816 -0.08822
v 0.07222 0.09253 0.04726
v 0.06854 0.09008 0.09340
v 0.06823 0.09784 -0.12947
v 0.06814 0.09482 -0.12178
v 0.06895 0.09455 -0.09604
v 0.06942 0.09753 -0.08690
v 0.07220 0.10024 -0.07572
v 0.06820 0.09447 0.05022
v 0.07071 0.09563 0.06204
v 0.07044 0.09374 0.07748
v 0.06814 0.10620 -0.06908
v 0.07297 0.10877 -0.06078
v 0.06928 0.11212 -0.05732
v 0.06451 0.11387 -0.05351
v 0.08583 0.03159 0.12286
v 0.07911 0.03116 0.12701
v 0.08453 0.03847 0.12137
v 0.08141 0.04606 0.12042
v 0.07789 0.05676 0.11907
v 0.08664 0.06740 -0.08585
v 0.08913 0.06041 0.11040
v 0.08073 0.07523 -0.11269
v 0.08489 0.07204 -0.10268
v 0.08481 0.07185 -0.08758
v 0.08882 0.07266 -0.07762
v 0.08425 0.06990 0.10823
v 0.07870 0.07735 -0.11480
v 0.07992 0.07938 -0.10484
v 0.08124 0.08011 -0.09095
v 0.08916 0.07897 -0.07204
v 0.08724 0.08068 0.09391
v 0.08256 0.07863 0.10220
v 0.07823 0.08575 -0.08839
v 0.07897 0.09238 -0.07586
v 0.08813 0.08970 -0.06435
v 0.08539 0.08897 0.04872
v 0.08398 0.09157 0.06367
v 0.08378 0.08906 0.07769
v 0.08498 0.09831 -0.06072
v 0.08187 0.10517 -0.05801
v 0.07789 0.11067 -0.05635
v 0.09184 0.03278 0.11920
v 0.09482 0.03838 0.11588
v 0.10147 0.04693 0.10972
v 0.09509 0.04587 0.11316
v 0.09943 0.05364 0.10810
v 0.10285 0.06380 0.10146
v 0.10403 0.07491 0.08222
v 0.09869 0.07277 0.09447
v 0.09789 0.07098 0.09916
v 0.10186 0.08449 0.05207
v 0.10403 0.08317 0.06814
v 0.09618 0.08290 0.07762
v 0.09234 0.07694 0.09518
v 0.09563 0.08652 0.05207
v 0.09438 0.08842 0.06008
v 0.10498 0.05053 0.10661
v 0.10505 0.05493 0.10464
v 0.11588 0.06556 0.07987
v 0.10916 0.06670 0.08873
v 0.10491 0.06394 0.10044
v 0.11541 0.07506 0.06742
v 0.11522 0.07076 0.07410
v 0.10697 0.06877 0.08859
v 0.11214 0.08039 0.05459
v 0.11309 0.07876 0.06218
v 0.11825 0.07622 0.05901
vt 0.54432 0.45432
vt 0.53886 0.46070
vt 0.53264 0.48980
vt 0.50068 0.51627
vt 0.49696 0.54739
vt 0.46034 0.55932
vt 0.45999 0.58345
vt 0.42332 0.58317
vt 0.46889 0.50254
vt 0.16450 0.11575
vt 0.50401 0.06697
vt 0.28614 0.10664
vt 0.54526 0.56272
vt 0.49345 0.56042
vt 0.59010 0.35017
vt 0.58078 0.35981
vt 0.51072 0.03484
vt 0.49086 0.03496
vt 0.49358 0.26549
vt 0.59188 0.37026
vt 0.57929 0.39637
vt 0.53584 0.42733
vt 0.50101 0.42828
vt 0.51883 0.46806
vt 0.45444 0.48788
vt 0.41710 0.53469
vt 0.38676 0.54560
vt 0.38592 0.57115
vt 0.34913 0.58366
vt 0.38664 0.24896
vt 0.15696 0.27135
vt 0.57298 0.29919
vt 0.15924 0.46520
vt 0.46678 0.13947
vt 0.51903 0.07019
vt 0.50049 0.61805
vt 0.29653 0.39000
vt 0.58150 0.32335
vt 0.55063 0.33852
vt 0.50839 0.37692
vt 0.58318 0.18779
vt 0.61874 0.32542
vt 0.49999 0.40280
vt 0.47054 0.40079
vt 0.45792 0.44493
vt 0.41774 0.46236
vt 0.38466 0.51208
vt 0.36967 0.52531
vt 0.32136 0.54006
vt 0.31841 0.57616
vt 0.28489 0.57056
vt 0.52999 0.25864
vt 0.54587 0.27145
vt 0.39477 0.17109
vt 0.55661 0.15319
vt 0.21081 0.14759
vt 0.54860 0.27448
vt 0.51315 0.29483
vt 0.68764 0.28350
vt 0.56803 0.11038
vt 0.25633 0.37826
vt 0.46825 0.48183
vt 0.47587 0.33952
vt 0.46060 0.36987
vt 0.60782 0.06882
vt 0.63452 0.03524
vt 0.63103 0.30637
vt 0.43774 0.38333
vt 0.38822 0.39708
vt 0.40224 0.42828
vt 0.36730 0.44838
vt 0.33154 0.46825
vt 0.32368 0.50688
vt 0.28310 0.50770
vt 0.28451 0.54327
vt 0.25770 0.55174
vt 0.61930 0.21713
vt 0.56737 0.19624
vt 0.59942 0.19699
vt 0.50904 0.24418
vt 0.48709 0.25030
vt 0.44147 0.26427
vt 0.40837 0.29078
vt 0.70215 0.22719
vt 0.60393 0.21734
vt 0.60495 0.15219
vt 0.22683 0.15881
vt 0.51298 0.57046
vt 0.47082 0.28144
vt 0.44613 0.29517
vt 0.39847 0.31821
vt 0.44485 0.29527
vt 0.39435 0.49672
vt 0.51057 0.54941
vt 0.40699 0.35387
vt 0.34487 0.47768
vt 0.37662 0.45726
vt 0.59136 0.55540
vt 0.54590 0.53464
vt 0.34834 0.38301
vt 0.32375 0.39279
vt 0.34213 0.41987
vt 0.29908 0.43214
vt 0.29484 0.46926
vt 0.24065 0.49006
vt 0.22922 0.50585
vt 0.23094 0.52463
vt 0.35090 0.25232
vt 0.63249 0.20246
vt 0.62972 0.23932
vt 0.44198 0.21160
vt 0.41630 0.24649
vt 0.38803 0.25880
vt 0.35767 0.43266
vt 0.69796 0.17134
vt 0.63146 0.20876
vt 0.66600 0.22384
vt 0.49843 0.16618
vt 0.31491 0.12757
vt 0.46527 0.22055
vt 0.41811 0.26965
vt 0.39814 0.27327
vt 0.35173 0.47471
vt 0.70792 0.20003
vt 0.50628 0.36786
vt 0.34850 0.55611
vt 0.43116 0.44695
vt 0.54209 0.71834
vt 0.32123 0.52547
vt 0.33027 0.60901
vt 0.07404 0.63219
vt 0.04231 0.62558
vt 0.60199 0.52891
vt 0.56931 0.43308
vt 0.54476 0.69119
vt 0.23251 0.34853
vt 0.05229 0.58998
vt 0.45899 0.52565
vt 0.57906 0.48085
vt 0.28859 0.43455
vt 0.26546 0.40694
vt 0.30452 0.59336
vt 0.26787 0.44910
vt 0.24166 0.47039
vt 0.80845 0.02863
vt 0.84847 0.00795
vt 0.84279 0.00413
vt 0.28859 0.22557
vt 0.37327 0.19841
vt 0.33730 0.36863
vt 0.32316 0.37505
vt 0.47463 0.36495
vt 0.47665 0.41600
vt 0.27686 0.17882
vt 0.45052 0.14877
vt 0.42878 0.17953
vt 0.40185 0.18976
vt 0.38644 0.74034
vt 0.42494 0.74077
vt 0.42457 0.43786
vt 0.16329 0.72627
vt 0.19110 0.64546
vt 0.48680 0.14399
vt 0.47588 0.16205
vt 0.39354 0.71468
vt 0.15088 0.63317
vt 0.38304 0.68340
vt 0.12520 0.60531
vt 0.52893 0.72467
vt 0.36672 0.66257
vt 0.09138 0.58780
vt 0.69250 0.87727
vt 0.59295 0.85014
vt 0.34728 0.63403
vt 0.24851 0.52473
vt 0.68856 0.71794
vt 0.32523 0.57371
vt 0.41320 0.27975
vt 0.49452 0.20797
vt 0.86124 0.05623
vt 0.90212 0.04178
vt 0.85664 0.02333
vt 0.88668 0.01823
vt 0.58347 0.54609
vt 0.48402 0.49068
vt 0.52905 0.30953
vt 0.51694 0.38843
vt 0.45958 0.49059
vt 0.39714 0.43791
vt 0.41894 0.61699
vt 0.29056 0.53872
vt 0.21625 0.60796
vt 0.23047 0.65107
vt 0.42453 0.11462
vt 0.38027 0.13762
vt 0.38097 0.22473
vt 0.45403 0.70935
vt 0.23549 0.60549
vt 0.20891 0.62370
vt 0.43908 0.68016
vt 0.18814 0.59887
vt 0.41124 0.66398
vt 0.17019 0.56681
vt 0.62166 0.80490
vt 0.47409 0.44661
vt 0.63753 0.83540
vt 0.34279 0.47494
vt 0.70076 0.19666
vt 0.13200 0.53990
vt 0.08199 0.53006
vt 0.71816 0.85287
vt 0.48222 0.24545
vt 0.87006 0.10614
vt 0.90999 0.09575
vt 0.41018 0.28712
vt 0.35573 0.47812
vt 0.70737 0.72051
vt 0.92074 0.06322
vt 0.56225 0.42118
vt 0.81820 0.66012
vt 0.58787 0.54246
vt 0.70508 0.62100
vt 0.64387 0.48892
vt 0.72549 0.57094
vt 0.41460 0.55039
vt 0.40014 0.51965
vt 0.51114 0.50411
vt 0.33925 0.10692
vt 0.31303 0.11450
vt 0.33067 0.23141
vt 0.30102 0.36976
vt 0.53945 0.51624
vt 0.20224 0.54304
vt 0.26057 0.48699
vt 0.39261 0.10701
vt 0.36057 0.11586
vt 0.33929 0.13330
vt 0.27079 0.15198
vt 0.50122 0.64866
vt 0.16684 0.50204
vt 0.48156 0.65838
vt 0.23195 0.40233
vt 0.46895 0.63022
vt 0.22208 0.53581
vt 0.65643 0.80764
vt 0.50126 0.28560
vt 0.19480 0.51915
vt 0.69445 0.83413
vt 0.67467 0.81899
vt 0.86280 0.18318
vt 0.89169 0.15330
vt 0.17095 0.49349
vt 0.15664 0.47956
vt 0.73123 0.87775
vt 0.71843 0.85838
vt 0.90934 0.13755
vt 0.94407 0.12517
vt 0.21169 0.37079
vt 0.61455 0.31325
vt 0.71554 0.69342
vt 0.71490 0.68825
vt 0.43739 0.37509
vt 0.53872 0.63856
vt 0.45382 0.79247
vt 0.60772 0.54717
vt 0.59039 0.64409
vt 0.42145 0.64277
vt 0.73336 0.67256
vt 0.81113 0.48567
vt 0.25679 0.80618
vt 0.29926 0.43270
vt 0.29308 0.11988
vt 0.28110 0.12849
vt 0.86698 0.20399
vt 0.43031 0.53083
vt 0.88134 0.19819
vt 0.91152 0.18760
vt 0.74269 0.87303
vt 0.61574 0.72068
vt 0.93074 0.17032
vt 0.94308 0.15837
vt 0.28089 0.13746
vt 0.75368 0.11127
vt 0.75863 0.88791
vt 0.39534 0.57508
vt 0.70557 0.56740
vt 0.57195 0.38710
vt 0.42771 0.47679
vt 0.75803 0.57179
vt 0.48131 0.44773
vt 0.37442 0.38917
vt 0.61747 0.76769
vt 0.46546 0.54070
vt 0.49757 0.67712
vt 0.46259 0.41812
vt 0.51821 0.83148
vt 0.16999 0.62720
vt 0.72107 0.09395
vt 0.13922 0.00474
vt 0.72707 0.14303
vt 0.71088 0.13041
vt 0.10857 0.00477
vt 0.71329 0.17304
vt 0.70583 0.15238
vt 0.06377 0.01704
vt 0.08891 0.00613
vt 0.72738 0.22591
vt 0.72891 0.20096
vt 0.97170 0.64630
vt 0.73834 0.23907
vt 0.97403 0.67157
vt 0.96747 0.70741
vt 0.47394 0.75498
vt 0.51435 0.59951
vt 0.67540 0.65166
vt 0.49005 0.33624
vt 0.56283 0.78069
vt 0.52740 0.59003
vt 0.43000 0.38551
vt 0.54924 0.45223
vt 0.36812 0.47561
vt 0.39413 0.27444
vt 0.57238 0.41343
vt 0.18239 0.31419
vt 0.50016 0.37010
vt 0.76576 0.59420
vt 0.50897 0.31270
vt 0.25002 0.28909
vt 0.36596 0.19179
vt 0.50612 0.35793
vt 0.17901 0.48680
vt 0.34617 0.18987
vt 0.19983 0.04017
vt 0.59693 0.22049
vt 0.24610 0.35972
vt 0.52408 0.33332
vt 0.18586 0.02679
vt 0.47277 0.41295
vt 0.69502 0.15058
vt 0.00474 0.54524
vt 0.29942 0.09417
vt 0.14420 0.02411
vt 0.56019 0.32723
vt 0.74339 0.12802
vt 0.29693 0.24720
vt 0.39894 0.05531
vt 0.09797 0.05229
vt 0.09683 0.02534
vt 0.61998 0.28836
vt 0.05578 0.03113
vt 0.53568 0.37205
vt 0.66156 0.26648
vt 0.41975 0.81564
vt 0.45411 0.78627
vt 0.11852 0.20606
vt 0.04248 0.02974
vt 0.64045 0.52390
vt 0.95510 0.64915
vt 0.66267 0.47467
vt 0.32962 0.21589
vt 0.64764 0.31387
vt 0.18738 0.12890
vt 0.14663 0.14793
vt 0.95429 0.67460
vt 0.94549 0.71742
vt 0.18609 0.57987
vt 0.34986 0.00482
vt 0.41910 0.71505
vt 0.74853 0.70252
vt 0.39760 0.77177
vt 0.52292 0.47617
vt 0.71832 0.66663
vt 0.52837 0.62654
vt 0.41914 0.63346
vt 0.69484 0.63112
vt 0.23377 0.06084
vt 0.49756 0.62488
vt 0.40422 0.49174
vt 0.67690 0.60113
vt 0.21000 0.14572
vt 0.78753 0.52671
vt 0.45187 0.57469
vt 0.57987 0.24341
vt 0.33495 0.68516
vt 0.59847 0.44525
vt 0.13724 0.08769
vt 0.54209 0.46087
vt 0.96067 0.10546
vt 0.73022 0.06969
vt 0.45855 0.51813
vt 0.40187 0.50941
vt 0.10687 0.09545
vt 0.11852 0.09429
vt 0.45331 0.49860
vt 0.95336 0.15865
vt 0.50243 0.03966
vt 0.41256 0.42191
vt 0.48553 0.52458
vt 0.37268 0.58320
vt 0.06909 0.09874
vt 0.29438 0.25048
vt 0.61622 0.38779
vt 0.93251 0.20734
vt 0.64161 0.21331
vt 0.32843 0.51879
vt 0.43800 0.84353
vt 0.42311 0.75295
vt 0.27252 0.44428
vt 0.36214 0.69523
vt 0.87745 0.65547
vt 0.90751 0.49527
vt 0.20862 0.15411
vt 0.03542 0.14043
vt 0.31067 0.54275
vt 0.86624 0.24141
vt 0.51890 0.41219
vt 0.91800 0.30091
vt 0.26460 0.38153
vt 0.24752 0.57310
vt 0.90571 0.66720
vt 0.89405 0.69307
vt 0.42541 0.33304
vt 0.20892 0.96321
vt 0.10160 0.77579
vt 0.22860 0.95597
vt 0.23420 0.13170
vt 0.22671 0.11003
vt 0.21034 0.11596
vt 0.22307 0.10647
vt 0.31873 0.62551
vt 0.16398 0.11794
vt 0.53519 0.69079
vt 0.13257 0.12271
vt 0.84780 0.68371
vt 0.39750 0.64261
vt 0.09989 0.12704
vt 0.88549 0.59640
vt 0.44765 0.57110
vt 0.18879 0.62022
vt 0.24496 0.81680
vt 0.45731 0.88340
vt 0.50820 0.86760
vt 0.28775 0.50333
vt 0.06855 0.13498
vt 0.83485 0.43578
vt 0.65020 0.32628
vt 0.93842 0.31623
vt 0.29004 0.61963
vt 0.49467 0.84313
vt 0.14829 0.79065
vt 0.54689 0.56012
vt 0.86573 0.52768
vt 0.85447 0.26168
vt 0.53921 0.62122
vt 0.71375 0.25903
vt 0.06978 0.98759
vt 0.35595 0.86142
vt 0.80117 0.24226
vt 0.81445 0.26697
vt 0.39423 0.50283
vt 0.37027 0.27332
vt 0.05120 0.96571
vt 0.79200 0.24086
vt 0.69018 0.25030
vt 0.58181 0.59291
vt 0.78280 0.30041
vt 0.82868 0.34601
vt 0.23644 0.16853
vt 0.20951 0.17775
vt 0.16351 0.17385
vt 0.13164 0.16751
vt 0.10015 0.16905
vt 0.85931 0.91381
vt 0.53545 0.65786
vt 0.29871 0.90620
vt 0.29135 0.73116
vt 0.06456 0.18927
vt 0.63523 0.60429
vt 0.86586 0.72654
vt 0.81830 0.75962
vt 0.35965 0.41188
vt 0.27447 0.71500
vt 0.27555 0.71849
vt 0.20772 0.83388
vt 0.63976 0.63320
vt 0.59201 0.88936
vt 0.50367 0.63670
vt 0.70715 0.87166
vt 0.31680 0.34734
vt 0.25210 0.98314
vt 0.76820 0.31620
vt 0.74651 0.33605
vt 0.62679 0.28886
vt 0.60856 0.29469
vt 0.25864 0.23572
vt 0.24323 0.22453
vt 0.20221 0.20757
vt 0.16236 0.21236
vt 0.17805 0.20263
vt 0.14186 0.21372
vt 0.08432 0.25560
vt 0.09776 0.21281
vt 0.05477 0.24138
vt 0.67621 0.56563
vt 0.71132 0.80443
vt 0.80436 0.58953
vt 0.82946 0.63779
vt 0.23777 0.72302
vt 0.26525 0.75030
vt 0.28096 0.79592
vt 0.15943 0.70704
vt 0.67335 0.36751
vt 0.61591 0.94671
vt 0.75492 0.56137
vt 0.70344 0.57734
vt 0.47805 0.64397
vt 0.62458 0.56734
vt 0.66977 0.31617
vt 0.40215 0.48826
vt 0.21823 0.65954
vt 0.75555 0.37244
vt 0.76230 0.38442
vt 0.27758 0.28247
vt 0.26664 0.26319
vt 0.24368 0.26857
vt 0.20832 0.25174
vt 0.14990 0.28525
vt 0.11589 0.27006
vt 0.90198 0.61861
vt 0.06847 0.29286
vt 0.68860 0.94767
vt 0.77433 0.78244
vt 0.87622 0.58434
vt 0.61653 0.39349
vt 0.19022 0.74876
vt 0.15254 0.57912
vt 0.68130 0.68873
vt 0.67280 0.94372
vt 0.84250 0.55554
vt 0.82964 0.52422
vt 0.82199 0.48336
vt 0.20889 0.74993
vt 0.22275 0.78897
vt 0.24410 0.83040
vt 0.79332 0.46393
vt 0.79494 0.42867
vt 0.68364 0.44639
vt 0.22242 0.72020
vt 0.27364 0.33212
vt 0.28010 0.30488
vt 0.24923 0.32686
vt 0.22305 0.31465
vt 0.18628 0.30029
vt 0.35551 0.23742
vt 0.16346 0.34689
vt 0.78007 0.50666
vt 0.93370 0.57209
vt 0.42301 0.27030
vt 0.52124 0.30361
vt 0.12892 0.32975
vt 0.91898 0.61352
vt 0.90907 0.57946
vt 0.75974 0.43524
vt 0.59717 0.31103
vt 0.07262 0.35390
vt 0.09128 0.32847
vt 0.70369 0.38576
vt 0.85518 0.48061
vt 0.73096 0.36307
vt 0.15135 0.77802
vt 0.18297 0.81859
vt 0.11007 0.60825
vt 0.44666 0.22753
vt 0.46413 0.20686
vt 0.80192 0.40570
vt 0.26542 0.35608
vt 0.24314 0.36776
vt 0.20781 0.39392
vt 0.21519 0.36900
vt 0.18354 0.38648
vt 0.14163 0.40203
vt 0.07599 0.42678
vt 0.10115 0.39391
vt 0.11413 0.38583
vt 0.10507 0.81887
vt 0.07465 0.65477
vt 0.04154 0.40386
vt 0.08764 0.37045
vt 0.12517 0.80719
vt 0.10891 0.72396
vt 0.19228 0.40792
vt 0.17525 0.40884
vt 0.10448 0.47263
vt 0.11354 0.43838
vt 0.14006 0.41006
vt 0.05442 0.48359
vt 0.07865 0.47593
vt 0.10627 0.43051
vt 0.07456 0.84472
vt 0.05850 0.67938
vt 0.04487 0.62418
vn 0.38938 0.87184 -0.29710
vn 0.39470 0.87411 -0.28310
vn 0.35384 0.88102 -0.31401
vn 0.31793 0.86098 -0.39702
vn 0.30331 0.82504 -0.47678
vn 0.28780 0.84389 -0.45279
vn 0.29918 0.86618 -0.40028
vn 0.33136 0.90612 -0.26295
vn -0.42568 0.75650 0.49649
vn -0.41364 0.74142 0.52839
vn 0.28139 0.93191 -0.22883
vn -0.18769 0.96446 0.18599
vn -0.36089 0.87294 0.32823
vn -0.40998 0.79608 0.44516
vn 0.43475 0.88837 -0.14760
vn 0.43469 0.89398 -0.10881
vn 0.13263 0.97589 -0.17335
vn -0.03424 0.99914 -0.02340
vn -0.25070 0.94971 0.18760
vn 0.41502 0.90555 -0.08800
vn 0.36480 0.92881 -0.06500
vn 0.33725 0.91670 -0.21429
vn 0.31031 0.87085 -0.38123
vn 0.32483 0.87721 -0.35354
vn 0.22523 0.85525 -0.46671
vn 0.24547 0.89262 -0.37813
vn 0.17458 0.92568 -0.33562
vn 0.26748 0.93345 -0.23903
vn 0.28153 0.95161 -0.12322
vn 0.36148 0.91013 0.20247
vn -0.33491 0.77877 0.53043
vn 0.49106 0.83782 -0.23858
vn 0.34890 0.85670 0.37990
vn 0.39994 0.91574 0.03824
vn 0.23545 0.91480 -0.32818
vn -0.27810 0.84910 0.44910
vn -0.26882 0.81453 0.51408
vn 0.47675 0.86218 -0.17134
vn 0.42074 0.88440 -0.20204
vn 0.31299 0.92357 -0.22149
vn -0.01938 0.99502 -0.09777
vn -0.15602 0.98355 0.09104
vn 0.21620 0.94858 -0.23120
vn 0.25056 0.87520 -0.41381
vn 0.24319 0.84768 -0.47149
vn 0.20110 0.83689 -0.50909
vn 0.14995 0.92107 -0.35937
vn 0.14053 0.95031 -0.27778
vn 0.10220 0.98356 -0.14889
vn 0.18185 0.97393 -0.13560
vn 0.09451 0.97746 -0.18881
vn 0.44529 0.86053 -0.24737
vn 0.35709 0.84434 0.39947
vn 0.37625 0.89521 0.23880
vn 0.38771 0.86423 -0.32061
vn -0.10513 0.87001 0.48169
vn 0.45551 0.85737 -0.23963
vn 0.44445 0.85062 -0.28090
vn 0.33565 0.78585 0.51940
vn 0.29790 0.84244 -0.44895
vn -0.14001 0.87551 0.46248
vn -0.12218 0.86166 0.49256
vn 0.41647 0.85993 -0.29509
vn 0.32780 0.88490 -0.33090
vn 0.10251 0.93101 -0.35029
vn -0.06860 0.99734 -0.02480
vn -0.18452 0.94323 0.27617
vn 0.32337 0.83991 -0.43587
vn 0.40660 0.74790 -0.52470
vn 0.26430 0.80661 -0.52870
vn 0.25161 0.81574 -0.52083
vn 0.21700 0.88488 -0.41219
vn 0.11850 0.97099 -0.20770
vn 0.10240 0.97610 -0.19170
vn 0.07210 0.98823 -0.13490
vn 0.04816 0.98215 -0.18181
vn 0.35131 0.86973 0.34661
vn 0.40541 0.91232 -0.05750
vn 0.43040 0.86341 -0.26320
vn 0.42829 0.89202 -0.14445
vn 0.42791 0.89599 -0.11867
vn 0.54051 0.83794 -0.07551
vn 0.79217 0.59288 -0.14479
vn 0.32796 0.76673 0.55187
vn 0.36358 0.88235 0.29878
vn 0.36874 0.75961 -0.53575
vn -0.10380 0.87499 0.47289
vn -0.50999 0.79828 0.32039
vn 0.50619 0.81578 -0.27979
vn 0.56222 0.78624 -0.25639
vn 0.73308 0.62713 -0.26326
vn 0.09940 0.75796 -0.64469
vn -0.31671 0.82291 0.47171
vn -0.49719 0.79925 0.33765
vn 0.55136 0.73835 -0.38837
vn 0.63501 0.56768 -0.52393
vn -0.19001 0.96641 -0.17305
vn -0.36949 0.87687 0.30753
vn -0.50861 0.75732 0.40961
vn 0.49159 0.60038 -0.63078
vn 0.40120 0.62440 -0.67020
vn 0.35516 0.74340 -0.56676
vn 0.28509 0.80998 -0.51249
vn 0.18429 0.92625 -0.32878
vn 0.03238 0.96804 -0.24870
vn 0.00000 0.97015 -0.24251
vn 0.00811 0.97827 -0.20718
vn 0.65059 0.75319 -0.09710
vn 0.42330 0.90599 0.00070
vn 0.45981 0.86391 -0.20550
vn 0.30789 0.93676 0.16639
vn 0.42481 0.90272 0.06802
vn 0.59263 0.80524 -0.01937
vn 0.75258 0.47777 -0.45317
vn 0.25813 0.80814 0.52941
vn 0.36338 0.89416 0.26160
vn 0.36084 0.70803 -0.60703
vn 0.21107 0.96367 0.16366
vn 0.22199 0.95503 0.19657
vn 0.30773 0.93955 0.15014
vn 0.69961 0.71103 -0.07051
vn 0.82829 0.55123 -0.10039
vn 0.73335 0.42975 -0.52680
vn 0.26488 0.76359 0.58887
vn 0.12142 0.54876 -0.82712
vn 0.61634 0.39755 -0.67976
vn -0.03400 0.45951 -0.88752
vn -0.22242 0.75252 0.61988
vn 0.50918 0.48808 -0.70888
vn 0.34177 0.48127 -0.80720
vn -0.16280 0.64909 -0.74309
vn -0.27141 0.86373 -0.42462
vn -0.39939 0.90387 0.15330
vn -0.29858 0.82211 0.48475
vn -0.26900 0.78655 0.55585
vn 0.24256 0.57311 -0.78276
vn -0.35268 0.84996 -0.39138
vn -0.35622 0.93132 0.07579
vn -0.20021 0.88381 0.42284
vn 0.25915 0.63693 -0.72606
vn 0.15424 0.75788 -0.63390
vn 0.30750 0.44230 -0.84250
vn 0.19170 0.78610 -0.58763
vn 0.04983 0.95786 -0.28287
vn 0.68673 0.67412 -0.27198
vn 0.74748 0.63765 -0.18623
vn 0.75977 0.63427 -0.14299
vn 0.58553 0.76734 -0.26141
vn 0.13809 0.96315 0.23079
vn 0.15768 0.94760 0.27784
vn 0.59196 0.77542 -0.21979
vn 0.18809 0.54683 0.81585
vn 0.14233 0.77980 -0.60964
vn 0.19267 0.95442 0.22795
vn 0.17947 0.96120 0.20949
vn 0.20680 0.95651 0.20570
vn 0.19151 0.96154 0.19691
vn 0.55410 0.23120 -0.79970
vn 0.51177 0.10919 -0.85215
vn 0.09080 0.71530 0.69290
vn -0.64609 -0.71489 0.26740
vn -0.33739 0.42929 -0.83778
vn 0.22056 0.96276 0.15636
vn 0.21280 0.95441 0.20930
vn 0.37640 0.10120 -0.92091
vn -0.28719 0.31739 -0.90376
vn 0.30309 0.21040 -0.92945
vn -0.35546 0.33328 -0.87325
vn 0.04552 0.64130 0.76594
vn 0.26795 0.37093 -0.88917
vn -0.35475 0.59523 -0.72101
vn -0.08940 0.79020 0.60630
vn -0.02525 0.69737 0.71627
vn 0.22164 0.37676 -0.89941
vn -0.35193 0.92784 -0.12352
vn -0.22380 0.91002 0.34896
vn 0.32583 0.41239 -0.85075
vn 0.55700 0.72592 -0.40346
vn 0.58237 0.66066 -0.47369
vn 0.62879 0.75669 -0.17900
vn 0.58678 0.76068 -0.27759
vn 0.73670 0.65750 -0.15799
vn 0.69555 0.69209 -0.19293
vn -0.11159 0.89287 0.43626
vn 0.41237 0.89684 -0.16009
vn 0.62562 0.01876 0.77990
vn 0.24100 0.96297 -0.12088
vn -0.17085 0.94954 0.26302
vn -0.80157 0.49101 0.34117
vn 0.55410 0.08690 -0.82790
vn 0.31327 -0.47987 0.81951
vn -0.49552 -0.63215 0.59569
vn -0.37371 0.55131 -0.74592
vn 0.13801 0.98097 0.13660
vn 0.05867 0.98992 0.12891
vn 0.00675 0.99003 0.14072
vn 0.30256 -0.08830 -0.94903
vn -0.64373 0.31541 -0.69723
vn -0.58460 0.28530 -0.75950
vn 0.27131 0.07179 -0.95981
vn -0.53142 0.25441 -0.80800
vn 0.26830 0.21430 -0.93920
vn -0.47015 0.37202 -0.80035
vn -0.00419 0.59569 0.80320
vn 0.31931 0.38191 -0.86728
vn -0.02070 0.67182 0.74042
vn 0.38651 0.49429 -0.77864
vn 0.43236 0.70067 -0.56755
vn -0.38324 0.62441 -0.68062
vn -0.33809 0.85098 -0.40189
vn -0.06173 0.78566 0.61557
vn 0.53439 0.75078 -0.38828
vn 0.43913 0.87132 -0.21901
vn 0.36011 0.89595 -0.26000
vn -0.30581 0.85232 -0.42431
vn -0.28080 0.95971 -0.01070
vn -0.16159 0.91874 0.36028
vn 0.45316 0.80879 -0.37485
vn -0.89796 -0.37796 0.22542
vn 0.11820 0.65341 0.74772
vn 0.81672 0.33888 -0.46704
vn -0.83997 -0.33009 -0.43069
vn -0.35059 0.84840 0.39661
vn -0.50463 0.36047 0.78448
vn 0.08748 -0.43643 -0.89547
vn 0.28705 -0.78633 -0.54708
vn -0.77844 0.06453 -0.62439
vn 0.31481 0.94784 0.04990
vn 0.27487 0.96021 -0.04946
vn 0.03467 0.99909 -0.02472
vn -0.74744 0.64911 -0.14140
vn -0.95253 -0.30308 0.02892
vn -0.32371 -0.90414 0.27881
vn -0.92255 -0.37378 0.09586
vn 0.10240 0.98537 0.13620
vn 0.23518 0.96886 0.07751
vn 0.16791 0.98254 0.08008
vn -0.01135 0.99937 -0.03369
vn -0.52736 -0.03267 -0.84901
vn -0.97281 0.23144 0.00892
vn 0.28320 0.07867 -0.95583
vn -0.84574 0.36308 -0.39101
vn 0.34089 0.32986 -0.88033
vn -0.39353 0.41567 -0.81998
vn -0.01880 0.60132 0.79879
vn 0.29455 0.56468 -0.77096
vn -0.35469 0.51626 -0.77953
vn 0.06178 0.70396 0.70755
vn -0.00140 0.63429 0.77309
vn 0.26209 0.77612 -0.57354
vn 0.26409 0.89108 -0.36909
vn -0.34856 0.65837 -0.66712
vn -0.30668 0.73631 -0.60315
vn 0.09907 0.80575 0.58391
vn 0.10717 0.77086 0.62793
vn 0.23186 0.92698 -0.29489
vn 0.08014 0.94323 -0.32233
vn -0.28186 0.89185 -0.35378
vn -0.13854 0.98942 0.04311
vn 0.01447 0.90139 0.43277
vn -0.73930 -0.34968 -0.57547
vn -0.38089 -0.02395 0.92431
vn -0.89683 -0.00363 0.44236
vn -0.25580 0.31490 -0.91400
vn -0.63640 -0.54144 0.54940
vn 0.86292 0.50441 0.03061
vn -0.25279 0.42081 -0.87121
vn -0.52559 -0.74288 0.41459
vn -0.83208 -0.37899 0.40499
vn -0.05941 0.58535 -0.80860
vn 0.68376 -0.02195 0.72938
vn 0.16331 0.98164 -0.09858
vn 0.19230 0.96812 -0.16051
vn 0.30158 0.70366 -0.64336
vn 0.09579 0.72230 0.68491
vn 0.25934 0.76672 -0.58727
vn 0.16883 0.88470 -0.43452
vn 0.11281 0.84109 0.52900
vn 0.10382 0.77753 0.62021
vn 0.15663 0.90747 -0.38982
vn 0.09416 0.92066 -0.37885
vn -0.23235 0.95868 -0.16412
vn -0.03255 0.99316 0.11217
vn 0.11547 0.88927 0.44257
vn -0.68524 -0.48305 -0.54507
vn -0.57371 -0.61633 0.53944
vn -0.79569 0.08773 -0.59932
vn -0.73188 0.16421 0.66136
vn -0.83421 -0.14037 -0.53329
vn -0.51367 0.00645 0.85796
vn -0.60079 0.19686 0.77479
vn 0.15478 0.21332 -0.96464
vn -0.52178 0.15474 0.83893
vn 0.38155 0.53612 -0.75299
vn 0.24851 -0.21911 0.94352
vn 0.87839 0.42036 -0.22744
vn 0.86797 0.48514 -0.10616
vn 0.41995 0.55555 0.71763
vn 0.31180 0.39012 0.86636
vn 0.38180 0.56840 0.72880
vn 0.40762 0.59506 0.69264
vn 0.30945 0.47557 0.82345
vn 0.35771 0.57938 0.73237
vn 0.39448 0.55563 0.73188
vn 0.28900 0.66391 0.68971
vn 0.25389 0.55339 0.79328
vn 0.21560 0.63581 0.74112
vn 0.26937 0.58930 0.76169
vn 0.13312 0.96679 -0.21816
vn 0.16812 0.64960 0.74146
vn 0.13504 0.97812 -0.15829
vn 0.18158 0.98075 0.07180
vn 0.53783 -0.48723 -0.68800
vn 0.59649 -0.50460 0.62417
vn 0.61349 -0.03617 -0.78887
vn 0.84879 0.06182 0.52511
vn -0.29930 -0.33930 -0.89179
vn 0.13424 0.27769 -0.95125
vn 0.77850 -0.06812 0.62393
vn 0.12892 0.98304 0.13044
vn -0.05765 0.79554 0.60315
vn -0.24410 -0.23470 0.94092
vn 0.10072 0.10913 -0.98891
vn -0.59272 0.37113 -0.71480
vn 0.52141 -0.29900 0.79921
vn -0.93852 0.15410 -0.30891
vn -0.91070 -0.00792 -0.41299
vn -0.70136 0.23690 -0.67229
vn -0.57140 -0.19231 0.79782
vn 0.54273 -0.70609 -0.45484
vn 0.20520 0.48043 -0.85269
vn -0.46954 -0.36276 0.80495
vn 0.11206 0.36745 0.92327
vn 0.91557 0.39942 0.04677
vn -0.53534 0.49435 -0.68486
vn 0.32258 -0.66886 0.66976
vn 0.15384 0.38420 0.91034
vn -0.19461 0.38272 0.90314
vn 0.42979 0.46493 0.77403
vn -0.34344 0.62009 -0.70537
vn -0.88194 -0.19420 0.42950
vn 0.20564 0.36101 0.90961
vn -0.00252 0.54070 0.84121
vn 0.37682 0.54203 0.75114
vn -0.91797 0.38666 -0.08844
vn -0.70360 -0.38910 0.59460
vn 0.15100 0.58451 0.79721
vn 0.20330 0.56749 0.79789
vn 0.09383 0.54693 0.83190
vn 0.28572 0.70118 0.65324
vn 0.01746 0.56435 0.82535
vn 0.11098 0.56678 0.81636
vn 0.31274 0.94932 -0.03126
vn 0.31622 0.94729 0.05135
vn 0.31359 0.88116 0.35387
vn 0.33719 0.73623 0.58674
vn -0.04601 0.98858 0.14347
vn 0.04738 0.98565 -0.16199
vn 0.12453 0.95345 0.27463
vn 0.20887 0.94315 0.25852
vn 0.00170 0.66943 0.74288
vn -0.14355 0.80639 0.57370
vn -0.16514 0.85183 0.49711
vn 0.06378 0.99088 -0.11866
vn 0.15717 0.97416 0.16220
vn -0.13399 0.70383 0.69761
vn -0.13698 0.79769 0.58731
vn 0.96476 -0.11660 0.23589
vn 0.98308 -0.08160 0.16400
vn 0.63682 -0.52212 -0.56732
vn -0.15875 0.58987 0.79174
vn 0.98466 -0.07100 0.15939
vn -0.74025 -0.15163 -0.65501
vn 0.76682 0.19385 0.61189
vn 0.98452 -0.10977 0.13663
vn 0.11630 0.39933 0.90940
vn -0.41214 -0.49699 -0.76364
vn -0.89024 0.17220 -0.42168
vn 0.98196 -0.17429 0.07330
vn 0.09860 0.42304 0.90073
vn 0.89371 -0.44864 0.00380
vn -0.17438 0.54210 0.82202
vn -0.93706 0.30545 0.16920
vn 0.68381 0.39991 -0.61031
vn 0.74205 -0.57660 0.34190
vn 0.10403 0.53532 0.83822
vn -0.73569 0.46039 0.49679
vn -0.96422 0.19715 0.17725
vn -0.86180 -0.03242 0.50620
vn 0.94079 -0.19260 -0.27898
vn -0.13169 -0.35893 0.92403
vn 0.12992 0.61151 0.78050
vn 0.07346 0.58671 0.80646
vn -0.65801 0.50936 0.55459
vn -0.97385 0.22501 -0.03147
vn -0.88885 0.10637 0.44568
vn -0.26960 -0.75420 -0.59875
vn 0.09490 -0.94653 0.30834
vn 0.94840 -0.07699 -0.30758
vn 0.20020 0.79538 0.57209
vn 0.60796 0.78925 0.08636
vn -0.77567 0.48487 0.40403
vn -0.95334 0.30041 0.03003
vn -0.82704 0.33649 0.45032
vn 0.84032 0.35261 0.41174
vn 0.34458 0.93245 -0.10866
vn 0.31942 0.94623 0.05119
vn 0.25059 0.89926 0.35851
vn -0.03300 0.98647 0.16059
vn 0.16900 0.97752 0.12610
vn 0.32556 0.89161 0.31471
vn 0.28172 0.92411 0.25818
vn 0.27619 0.93418 0.22587
vn -0.49876 0.53184 0.68438
vn -0.87247 0.45803 0.17032
vn -0.91371 0.33647 0.22787
vn -0.75217 0.50718 0.42073
vn -0.01700 0.79559 0.60559
vn 0.00167 0.87899 0.47684
vn 0.05730 0.99823 -0.01610
vn 0.21690 0.96918 0.11680
vn -0.41008 0.71351 0.56810
vn -0.59219 0.29670 0.74918
vn -0.03809 0.80591 0.59082
vn -0.45000 0.40829 0.79423
vn 0.31623 0.34042 0.88550
vn 0.40941 0.36941 0.83422
vn 0.38036 0.36998 0.84761
vn 0.44958 0.33019 0.82997
vn 0.92906 -0.36643 0.05077
vn 0.25201 0.46821 0.84692
vn -0.10059 0.54975 -0.82925
vn 0.20330 0.58071 0.78832
vn 0.22760 0.79242 0.56592
vn -0.21360 -0.67950 -0.70189
vn 0.21610 0.69319 0.68759
vn 0.28439 0.79474 0.53620
vn 0.65437 -0.54565 -0.52351
vn -0.75072 0.49701 0.43521
vn -0.51799 0.77901 0.35331
vn 0.24607 0.93812 -0.24369
vn 0.16870 0.98480 0.04140
vn 0.19864 0.94270 0.26806
vn 0.22190 0.82890 0.51350
vn 0.45298 0.80512 0.38288
vn 0.78190 0.62160 -0.04726
vn -0.73909 0.49868 0.45284
vn -0.21969 0.21460 0.95167
vn 0.23149 0.97045 0.06810
vn 0.30085 0.87324 0.38333
vn 0.45297 0.85420 0.25527
vn 0.48643 0.81645 0.31112
vn -0.87759 0.46467 0.11800
vn -0.70321 0.51151 0.49381
vn -0.62792 0.60208 0.49317
vn 0.29812 0.77645 0.55521
vn 0.18292 0.86681 0.46388
vn -0.68132 0.65510 0.32658
vn -0.80082 0.51524 0.30531
vn -0.64627 0.55451 0.52426
vn -0.55159 0.64954 0.52331
vn 0.20048 0.79417 0.57368
vn -0.64405 0.68742 0.33563
vn -0.83894 0.49673 0.22235
vn -0.73975 0.49491 0.45589
vn -0.69646 0.69210 0.18960
vn -0.76595 0.62235 0.16125
vn 0.11731 0.42336 0.89834
vn 0.17356 0.41908 0.89121
vn 0.27432 0.46486 0.84181
vn 0.27182 0.58609 0.76329
vn 0.26540 0.71061 0.65161
vn -0.64618 0.73395 0.20923
vn -0.88162 0.34040 -0.32691
vn -0.16221 0.98614 -0.03500
vn 0.02655 0.97166 0.23488
vn 0.23351 0.83463 0.49887
vn 0.15062 0.94801 0.28034
vn -0.13096 0.95675 0.25978
vn -0.62530 0.77770 -0.06472
vn -0.56403 0.51295 -0.64711
vn -0.07435 0.98936 -0.12503
vn -0.08502 0.95838 0.27254
vn -0.19688 0.97335 0.11761
vn 0.33359 0.88657 0.32049
vn 0.17631 0.91639 0.35936
vn 0.08901 0.94478 0.31539
vn -0.60117 0.77978 -0.17476
vn 0.34090 0.90187 0.26538
vn 0.27239 0.84851 0.45369
vn -0.60713 0.77862 0.15856
vn -0.70789 0.67788 0.19839
vn -0.53911 0.83682 0.09536
vn -0.59596 0.79308 0.12593
vn 0.58004 0.45091 0.67840
vn 0.49990 0.46778 0.72890
vn 0.34657 0.46916 0.81227
vn 0.41560 0.48047 0.77228
vn 0.37742 0.47526 0.79478
vn 0.36348 0.54797 0.75340
vn 0.21050 0.71190 0.67000
vn 0.28680 0.70410 0.64960
vn 0.13720 0.83460 0.53350
vn 0.58346 0.78073 0.22369
vn 0.54910 0.80553 0.22273
vn 0.34134 0.93982 0.01513
vn 0.06107 0.98693 -0.14915
vn 0.09452 0.94074 -0.32570
vn 0.06680 0.99661 0.04800
vn 0.04069 0.99137 0.12462
vn 0.09096 0.95789 0.27235
vn 0.53411 0.83746 0.11569
vn 0.45241 0.84262 0.29211
vn -0.08550 0.96919 -0.23100
vn -0.22907 0.93807 -0.25989
vn -0.33874 0.89769 -0.28179
vn -0.53562 0.81740 -0.21208
vn 0.49791 0.85720 0.13149
vn -0.21689 0.89967 -0.37889
vn -0.37306 0.83924 -0.39561
vn -0.48671 0.87349 -0.01115
vn -0.46191 0.88555 0.04943
vn 0.54660 0.33050 0.76941
vn 0.55225 0.37575 0.74420
vn 0.47492 0.34132 0.81114
vn 0.40821 0.40761 0.81683
vn 0.35238 0.46518 0.81206
vn 0.27910 0.58239 0.76349
vn 0.74235 0.64992 -0.16286
vn 0.28969 0.77468 0.56209
vn 0.71750 0.60511 0.34503
vn 0.78793 0.60076 0.13510
vn 0.69507 0.67692 -0.24219
vn 0.85494 0.51106 -0.08884
vn 0.26358 0.91853 -0.29466
vn 0.27013 0.88942 0.36872
vn 0.64205 0.73007 0.23402
vn 0.69931 0.65061 0.29610
vn 0.57210 0.77120 -0.27920
vn 0.55146 0.78074 -0.29383
vn 0.59015 0.71425 -0.37626
vn 0.21954 0.94884 -0.22696
vn 0.21289 0.97687 0.02020
vn 0.23189 0.95537 0.18299
vn 0.37809 0.82178 -0.42629
vn 0.36478 0.73917 -0.56619
vn 0.04166 0.81993 -0.57094
vn -0.28871 0.85514 -0.43057
vn 0.46963 0.26459 0.84228
vn 0.54545 0.29241 0.78549
vn 0.47011 0.28821 0.83422
vn 0.46141 0.30771 0.83212
vn 0.42128 0.36788 0.82896
vn 0.84241 0.33757 -0.41998
vn 0.45429 0.38869 0.80158
vn 0.83476 0.50746 -0.21371
vn 0.86239 0.47181 -0.18350
vn 0.85629 0.37194 -0.35837
vn 0.80260 0.36647 -0.47068
vn 0.42999 0.49449 0.75538
vn 0.78926 0.57824 -0.20665
vn 0.77287 0.59807 -0.21209
vn 0.86471 0.47685 -0.15774
vn 0.74131 0.43209 -0.51357
vn 0.46971 0.79920 0.37503
vn 0.41502 0.66863 0.61700
vn 0.89377 0.43783 -0.09734
vn 0.74693 0.53522 -0.39451
vn 0.64534 0.48289 -0.59190
vn 0.31225 0.90683 -0.28312
vn 0.28686 0.95627 0.05716
vn 0.36486 0.89279 0.26419
vn 0.57567 0.51481 -0.63528
vn 0.50210 0.54019 -0.67535
vn 0.39641 0.57161 -0.71842
vn 0.45469 0.24399 0.85658
vn 0.43414 0.33158 0.83760
vn 0.39928 0.34181 0.85073
vn 0.43094 0.31826 0.84439
vn 0.41728 0.36178 0.83366
vn 0.39897 0.48285 0.77954
vn 0.54911 0.72742 0.41151
vn 0.53703 0.73497 0.41403
vn 0.42512 0.55187 0.71743
vn 0.32668 0.91652 -0.23080
vn 0.46349 0.82868 0.31379
vn 0.46270 0.81000 0.36030
vn 0.48913 0.76475 0.41942
vn 0.32194 0.91637 -0.23793
vn 0.34058 0.94019 0.00708
vn 0.41772 0.35172 0.83774
vn 0.42260 0.36515 0.82950
vn 0.62710 0.63224 0.45499
vn 0.63182 0.69114 0.35090
vn 0.39473 0.50570 0.76711
vn 0.58973 0.70942 0.38592
vn 0.58017 0.64227 0.50090
vn 0.63027 0.69676 0.34248
vn 0.47181 0.87977 -0.05835
vn 0.54891 0.80462 0.22646
vn 0.62379 0.74665 0.23108
usemtl lingcao_huichun_young_mat
s off
f 576/576/576 577/577/577 549/549/549
f 579/579/579 580/580/580 555/555/555
f 580/580/580 579/579/579 578/578/578
f 581/581/581 555/555/555 580/580/580
f 580/580/580 592/592/592 581/581/581
f 523/523/523 550/550/550 549/549/549
f 524/524/524 523/523/523 549/549/549
f 525/525/525 496/496/496 524/524/524
f 496/496/496 525/525/525 526/526/526
f 495/495/495 524/524/524 496/496/496
f 526/526/526 497/497/497 496/496/496
f 584/584/584 583/583/583 588/588/588
f 584/584/584 588/588/588 566/566/566
f 588/588/588 565/565/565 566/566/566
f 502/502/502 472/472/472 471/471/471
f 594/594/594 598/598/598 583/583/583
f 597/597/597 598/598/598 594/594/594
f 598/598/598 597/597/597 582/582/582
f 597/597/597 594/594/594 593/593/593
f 597/597/597 600/600/600 586/586/586
f 468/468/468 469/469/469 497/497/497
f 469/469/469 497/497/497 499/499/499
f 469/469/469 499/499/499 470/470/470
f 426/426/426 469/469/469 428/428/428
f 499/499/499 498/498/498 470/470/470
f 386/386/386 380/380/380 431/431/431
f 431/431/431 433/433/433 386/386/386
f 428/428/428 427/427/427 426/426/426
f 427/427/427 428/428/428 429/429/429
f 380/380/380 376/376/376 428/428/428
f 337/337/337 333/333/333 376/376/376
f 376/376/376 380/380/380 337/337/337
f 299/299/299 342/342/342 302/302/302
f 305/305/305 306/306/306 348/348/348
f 355/355/355 356/356/356 350/350/350
f 596/596/596 601/601/601 600/600/600
f 600/600/600 599/599/599 585/585/585
f 316/316/316 315/315/315 318/318/318
f 290/290/290 319/319/319 321/321/321
f 290/290/290 291/291/291 289/289/289
f 319/319/319 318/318/318 320/320/320
f 320/320/320 318/318/318 315/315/315
f 320/320/320 321/321/321 319/319/319
f 319/319/319 321/321/321 324/324/324
f 388/388/388 383/383/383 389/389/389
f 508/508/508 509/509/509 542/542/542
f 355/355/355 407/407/407 354/354/354
f 407/407/407 406/406/406 353/353/353
f 353/353/353 354/354/354 407/407/407
f 405/405/405 353/353/353 406/406/406
f 455/455/455 404/404/404 447/447/447
f 404/404/404 455/455/455 417/417/417
f 455/455/455 461/461/461 417/417/417
f 255/255/255 248/248/248 279/279/279
f 245/245/245 249/249/249 206/206/206
f 206/206/206 204/204/204 245/245/245
f 249/249/249 248/248/248 206/206/206
f 135/135/135 128/128/128 173/173/173
f 134/134/134 135/135/135 173/173/173
f 128/128/128 135/135/135 99/99/99
f 128/128/128 99/99/99 94/94/94
f 135/135/135 134/134/134 99/99/99
f 93/93/93 94/94/94 99/99/99
f 138/138/138 139/139/139 176/176/176
f 93/93/93 88/88/88 94/94/94
f 259/259/259 283/283/283 258/258/258
f 258/258/258 283/283/283 282/282/282
f 252/252/252 258/258/258 253/253/253
f 252/252/252 247/247/247 209/209/209
f 209/209/209 247/247/247 203/203/203
f 56/56/56 87/87/87 62/62/62
f 62/62/62 87/87/87 93/93/93
f 37/37/37 31/31/31 56/56/56
f 56/56/56 62/62/62 37/37/37
f 37/37/37 62/62/62 36/36/36
f 67/67/67 36/36/36 61/61/61
f 36/36/36 62/62/62 61/61/61
f 14/14/14 31/31/31 37/37/37
f 61/61/61 62/62/62 93/93/93
f 14/14/14 10/10/10 31/31/31
f 41/41/41 18/18/18 19/19/19
f 19/19/19 18/18/18 13/13/13
f 35/35/35 18/18/18 41/41/41
f 18/18/18 35/35/35 11/11/11
f 12/12/12 13/13/13 18/18/18
f 192/192/192 234/234/234 227/227/227
f 234/234/234 192/192/192 240/240/240
f 234/234/234 233/233/233 227/227/227
f 191/191/191 234/234/234 192/192/192
f 110/110/110 152/152/152 109/109/109
f 78/78/78 85/85/85 54/54/54
f 124/124/124 77/77/77 115/115/115
f 77/77/77 124/124/124 84/84/84
f 84/84/84 85/85/85 77/77/77
f 85/85/85 84/84/84 53/53/53
f 53/53/53 54/54/54 85/85/85
f 257/257/257 281/281/281 256/256/256
f 257/257/257 256/256/256 213/213/213
f 181/181/181 218/218/218 214/214/214
f 280/280/280 277/277/277 250/250/250
f 277/277/277 276/276/276 250/250/250
f 180/180/180 182/182/182 181/181/181
f 181/181/181 182/182/182 183/183/183
f 146/146/146 182/182/182 145/145/145
f 105/105/105 107/107/107 106/106/106
f 53/53/53 30/30/30 54/54/54
f 76/76/76 107/107/107 105/105/105
f 76/76/76 75/75/75 51/51/51
f 50/50/50 51/51/51 75/75/75
f 143/143/143 141/141/141 140/140/140
f 48/48/48 73/73/73 72/72/72
f 28/28/28 29/29/29 50/50/50
f 349/349/349 303/303/303 343/343/343
f 559/559/559 554/554/554 558/558/558
f 563/563/563 564/564/564 558/558/558
f 563/563/563 567/567/567 534/534/534
f 557/557/557 556/556/556 562/562/562
f 533/533/533 532/532/532 506/506/506
f 546/546/546 574/574/574 573/573/573
f 546/546/546 575/575/575 574/574/574
f 575/575/575 546/546/546 547/547/547
f 547/547/547 546/546/546 516/516/516
f 545/545/545 516/516/516 546/546/546
f 519/519/519 520/520/520 548/548/548
f 548/548/548 547/547/547 519/519/519
f 516/516/516 517/517/517 520/520/520
f 416/416/416 460/460/460 423/423/423
f 425/425/425 423/423/423 465/465/465
f 459/459/459 458/458/458 422/422/422
f 464/464/464 463/463/463 459/459/459
f 459/459/459 463/463/463 458/458/458
f 414/414/414 422/422/422 361/361/361
f 422/422/422 366/366/366 361/361/361
f 310/310/310 308/308/308 361/361/361
f 310/310/310 307/307/307 308/308/308
f 438/438/438 437/437/437 446/446/446
f 413/413/413 401/401/401 412/412/412
f 532/532/532 531/531/531 538/538/538
f 504/504/504 537/537/537 512/512/512
f 489/489/489 490/490/490 485/485/485
f 451/451/451 445/445/445 478/478/478
f 312/312/312 364/364/364 311/311/311
f 358/358/358 409/409/409 357/357/357
f 364/364/364 358/358/358 309/309/309
f 364/364/364 309/309/309 311/311/311
f 450/450/450 490/490/490 457/457/457
f 490/490/490 489/489/489 457/457/457
f 456/456/456 457/457/457 489/489/489
f 419/419/419 418/418/418 362/362/362
f 362/362/362 363/363/363 419/419/419
f 418/418/418 424/424/424 362/362/362
f 424/424/424 367/367/367 362/362/362
f 276/276/276 274/274/274 250/250/250
f 246/246/246 250/250/250 274/274/274
f 113/113/113 114/114/114 108/108/108
f 178/178/178 177/177/177 140/140/140
f 179/179/179 142/142/142 143/143/143
f 231/231/231 238/238/238 230/230/230
f 229/229/229 230/230/230 273/273/273
f 236/236/236 237/237/237 229/229/229
f 229/229/229 228/228/228 236/236/236
f 236/236/236 195/195/195 237/237/237
f 122/122/122 123/123/123 113/113/113
f 82/82/82 83/83/83 122/122/122
f 121/121/121 82/82/82 122/122/122
f 83/83/83 82/82/82 90/90/90
f 112/112/112 82/82/82 121/121/121
f 120/120/120 82/82/82 112/112/112
f 82/82/82 120/120/120 81/81/81
f 89/89/89 90/90/90 82/82/82
f 64/64/64 44/44/44 68/68/68
f 22/22/22 24/24/24 23/23/23
f 22/22/22 43/43/43 40/40/40
f 21/21/21 22/22/22 40/40/40
f 24/24/24 22/22/22 3/3/3
f 2/2/2 3/3/3 22/22/22
f 1/1/1 2/2/2 22/22/22
f 5/5/5 7/7/7 6/6/6
f 28/28/28 48/48/48 27/27/27
f 26/26/26 28/28/28 27/27/27
f 236/236/236 235/235/235 195/195/195
f 163/163/163 119/119/119 164/164/164
f 120/120/120 119/119/119 80/80/80
f 80/80/80 81/81/81 120/120/120
f 155/155/155 154/154/154 163/163/163
f 119/119/119 163/163/163 118/118/118
f 80/80/80 52/52/52 57/57/57
f 58/58/58 57/57/57 32/32/32
f 58/58/58 32/32/32 39/39/39
f 577/577/577 551/551/551 549/549/549
f 577/577/577 579/579/579 552/552/552
f 577/577/577 552/552/552 551/551/551
f 578/578/578 591/591/591 592/592/592
f 578/578/578 592/592/592 580/580/580
f 579/579/579 555/555/555 553/553/553
f 579/579/579 553/553/553 552/552/552
f 527/527/527 553/553/553 555/555/555
f 527/527/527 555/555/555 560/560/560
f 584/584/584 560/560/560 555/555/555
f 584/584/584 555/555/555 581/581/581
f 549/549/549 551/551/551 524/524/524
f 524/524/524 551/551/551 552/552/552
f 524/524/524 552/552/552 525/525/525
f 525/525/525 552/552/552 553/553/553
f 525/525/525 553/553/553 526/526/526
f 497/497/497 526/526/526 498/498/498
f 526/526/526 553/553/553 527/527/527
f 526/526/526 527/527/527 498/498/498
f 497/497/497 498/498/498 499/499/499
f 527/527/527 560/560/560 566/566/566
f 527/527/527 566/566/566 528/528/528
f 500/500/500 498/498/498 527/527/527
f 500/500/500 527/527/527 528/528/528
f 566/566/566 560/560/560 584/584/584
f 501/501/501 528/528/528 566/566/566
f 501/501/501 566/566/566 530/530/530
f 566/566/566 565/565/565 530/530/530
f 500/500/500 528/528/528 501/501/501
f 500/500/500 501/501/501 502/502/502
f 471/471/471 500/500/500 502/502/502
f 501/501/501 530/530/530 536/536/536
f 501/501/501 536/536/536 503/503/503
f 477/477/477 502/502/502 501/501/501
f 477/477/477 501/501/501 503/503/503
f 583/583/583 598/598/598 582/582/582
f 565/565/565 588/588/588 583/583/583
f 583/583/583 582/582/582 587/587/587
f 583/583/583 587/587/587 565/565/565
f 600/600/600 597/597/597 596/596/596
f 587/587/587 582/582/582 597/597/597
f 587/587/587 597/597/597 586/586/586
f 565/565/565 587/587/587 572/572/572
f 536/536/536 565/565/565 572/572/572
f 587/587/587 586/586/586 590/590/590
f 587/587/587 590/590/590 572/572/572
f 530/530/530 565/565/565 536/536/536
f 426/426/426 468/468/468 469/469/469
f 470/470/470 428/428/428 469/469/469
f 428/428/428 470/470/470 431/431/431
f 470/470/470 500/500/500 471/471/471
f 500/500/500 470/470/470 498/498/498
f 470/470/470 471/471/471 433/433/433
f 470/470/470 433/433/433 431/431/431
f 436/436/436 433/433/433 471/471/471
f 436/436/436 471/471/471 472/472/472
f 428/428/428 431/431/431 380/380/380
f 392/392/392 386/386/386 433/433/433
f 392/392/392 433/433/433 436/436/436
f 393/393/393 386/386/386 392/392/392
f 472/472/472 502/502/502 477/477/477
f 444/444/444 436/436/436 472/472/472
f 444/444/444 472/472/472 477/477/477
f 400/400/400 392/392/392 436/436/436
f 400/400/400 436/436/436 444/444/444
f 342/342/342 337/337/337 380/380/380
f 342/342/342 380/380/380 386/386/386
f 386/386/386 392/392/392 347/347/347
f 386/386/386 347/347/347 342/342/342
f 350/350/350 347/347/347 392/392/392
f 350/350/350 392/392/392 400/400/400
f 342/342/342 347/347/347 348/348/348
f 350/350/350 348/348/348 347/347/347
f 302/302/302 342/342/342 348/348/348
f 302/302/302 348/348/348 306/306/306
f 348/348/348 350/350/350 305/305/305
f 590/590/590 586/586/586 600/600/600
f 600/600/600 585/585/585 589/589/589
f 600/600/600 589/589/589 590/590/590
f 314/314/314 316/316/316 288/288/288
f 314/314/314 288/288/288 286/286/286
f 313/313/313 316/316/316 314/314/314
f 315/315/315 316/316/316 313/313/313
f 288/288/288 316/316/316 319/319/319
f 288/288/288 319/319/319 290/290/290
f 286/286/286 288/288/288 287/287/287
f 286/286/286 287/287/287 285/285/285
f 288/288/288 290/290/290 289/289/289
f 288/288/288 289/289/289 287/287/287
f 399/399/399 391/391/391 398/398/398
f 391/391/391 399/399/399 439/439/439
f 391/391/391 439/439/439 398/398/398
f 390/390/390 391/391/391 346/346/346
f 345/345/345 346/346/346 391/391/391
f 345/345/345 391/391/391 398/398/398
f 391/391/391 390/390/390 398/398/398
f 385/385/385 390/390/390 346/346/346
f 385/385/385 346/346/346 341/341/341
f 385/385/385 341/341/341 336/336/336
f 390/390/390 345/345/345 397/397/397
f 390/390/390 398/398/398 397/397/397
f 341/341/341 346/346/346 345/345/345
f 398/398/398 345/345/345 397/397/397
f 322/322/322 319/319/319 321/321/321
f 369/369/369 321/321/321 319/319/319
f 322/322/322 321/321/321 325/325/325
f 322/322/322 325/325/325 329/329/329
f 322/322/322 329/329/329 321/321/321
f 321/321/321 369/369/369 372/372/372
f 321/321/321 372/372/372 325/325/325
f 328/328/328 372/372/372 369/369/369
f 328/328/328 369/369/369 321/321/321
f 369/369/369 319/319/319 318/318/318
f 369/369/369 318/318/318 321/321/321
f 318/318/318 319/319/319 316/316/316
f 321/321/321 318/318/318 319/319/319
f 321/321/321 328/328/328 327/327/327
f 321/321/321 320/320/320 323/323/323
f 321/321/321 323/323/323 327/327/327
f 332/332/332 325/325/325 372/372/372
f 332/332/332 372/372/372 375/375/375
f 372/372/372 328/328/328 331/331/331
f 372/372/372 331/331/331 375/375/375
f 332/332/332 329/329/329 325/325/325
f 324/324/324 321/321/321 329/329/329
f 324/324/324 329/329/329 328/328/328
f 332/332/332 328/328/328 329/329/329
f 331/331/331 328/328/328 332/332/332
f 321/321/321 324/324/324 328/328/328
f 321/321/321 327/327/327 320/320/320
f 330/330/330 327/327/327 328/328/328
f 291/291/291 290/290/290 321/321/321
f 293/293/293 291/291/291 321/321/321
f 320/320/320 318/318/318 321/321/321
f 292/292/292 293/293/293 321/321/321
f 292/292/292 321/321/321 320/320/320
f 291/291/291 293/293/293 292/292/292
f 291/291/291 292/292/292 289/289/289
f 294/294/294 293/293/293 295/295/295
f 295/295/295 294/294/294 297/297/297
f 295/295/295 297/297/297 265/265/265
f 265/265/265 294/294/294 295/295/295
f 264/264/264 294/294/294 265/265/265
f 293/293/293 296/296/296 262/262/262
f 293/293/293 292/292/292 296/296/296
f 293/293/293 262/262/262 261/261/261
f 293/293/293 261/261/261 292/292/292
f 294/294/294 264/264/264 297/297/297
f 375/375/375 379/379/379 335/335/335
f 375/375/375 335/335/335 332/332/332
f 385/385/385 336/336/336 335/335/335
f 385/385/385 335/335/335 379/379/379
f 335/335/335 336/336/336 341/341/341
f 335/335/335 375/375/375 331/331/331
f 379/379/379 335/335/335 384/384/384
f 379/379/379 384/384/384 385/385/385
f 340/340/340 384/384/384 335/335/335
f 335/335/335 341/341/341 340/340/340
f 331/331/331 332/332/332 335/335/335
f 385/385/385 384/384/384 390/390/390
f 340/340/340 345/345/345 390/390/390
f 340/340/340 390/390/390 384/384/384
f 340/340/340 341/341/341 345/345/345
f 267/267/267 265/265/265 297/297/297
f 389/389/389 396/396/396 388/388/388
f 267/267/267 297/297/297 264/264/264
f 544/544/544 572/572/572 571/571/571
f 572/572/572 590/590/590 571/571/571
f 536/536/536 572/572/572 544/544/544
f 536/536/536 544/544/544 511/511/511
f 476/476/476 503/503/503 536/536/536
f 476/476/476 536/536/536 511/511/511
f 476/476/476 477/477/477 503/503/503
f 511/511/511 510/510/510 484/484/484
f 476/476/476 511/511/511 484/484/484
f 510/510/510 511/511/511 544/544/544
f 544/544/544 571/571/571 543/543/543
f 544/544/544 543/543/543 510/510/510
f 510/510/510 483/483/483 484/484/484
f 510/510/510 543/543/543 542/542/542
f 510/510/510 542/542/542 509/509/509
f 510/510/510 509/509/509 483/483/483
f 443/443/443 477/477/477 476/476/476
f 443/443/443 444/444/444 477/477/477
f 408/408/408 400/400/400 444/444/444
f 408/408/408 444/444/444 443/443/443
f 400/400/400 408/408/408 350/350/350
f 408/408/408 443/443/443 449/449/449
f 408/408/408 449/449/449 407/407/407
f 355/355/355 350/350/350 408/408/408
f 355/355/355 408/408/408 407/407/407
f 443/443/443 476/476/476 442/442/442
f 449/449/449 443/443/443 442/442/442
f 476/476/476 475/475/475 441/441/441
f 441/441/441 442/442/442 476/476/476
f 406/406/406 449/449/449 442/442/442
f 406/406/406 442/442/442 441/441/441
f 407/407/407 449/449/449 406/406/406
f 476/476/476 484/484/484 475/475/475
f 440/440/440 475/475/475 484/484/484
f 441/441/441 475/475/475 440/440/440
f 484/484/484 483/483/483 448/448/448
f 484/484/484 448/448/448 440/440/440
f 441/441/441 440/440/440 399/399/399
f 405/405/405 406/406/406 441/441/441
f 405/405/405 441/441/441 399/399/399
f 571/571/571 590/590/590 589/589/589
f 571/571/571 589/589/589 570/570/570
f 543/543/543 571/571/571 570/570/570
f 543/543/543 570/570/570 542/542/542
f 542/542/542 570/570/570 535/535/535
f 483/483/483 509/509/509 508/508/508
f 483/483/483 508/508/508 482/482/482
f 439/439/439 399/399/399 440/440/440
f 440/440/440 398/398/398 439/439/439
f 440/440/440 448/448/448 399/399/399
f 440/440/440 399/399/399 398/398/398
f 403/403/403 396/396/396 404/404/404
f 404/404/404 417/417/417 416/416/416
f 404/404/404 416/416/416 403/403/403
f 454/454/454 417/417/417 461/461/461
f 454/454/454 461/461/461 460/460/460
f 416/416/416 417/417/417 454/454/454
f 395/395/395 388/388/388 396/396/396
f 395/395/395 396/396/396 403/403/403
f 227/227/227 226/226/226 223/223/223
f 227/227/227 223/223/223 187/187/187
f 223/223/223 226/226/226 186/186/186
f 223/223/223 186/186/186 187/187/187
f 223/223/223 268/268/268 271/271/271
f 268/268/268 267/267/267 271/271/271
f 267/267/267 268/268/268 222/222/222
f 268/268/268 223/223/223 222/222/222
f 223/223/223 271/271/271 226/226/226
f 271/271/271 267/267/267 270/270/270
f 226/226/226 271/271/271 270/270/270
f 267/267/267 222/222/222 270/270/270
f 267/267/267 264/264/264 265/265/265
f 270/270/270 222/222/222 223/223/223
f 270/270/270 223/223/223 226/226/226
f 262/262/262 296/296/296 263/263/263
f 263/263/263 261/261/261 262/262/262
f 206/206/206 248/248/248 211/211/211
f 169/169/169 204/204/204 206/206/206
f 169/169/169 206/206/206 173/173/173
f 172/172/172 173/173/173 206/206/206
f 172/172/172 206/206/206 211/211/211
f 248/248/248 275/275/275 279/279/279
f 278/278/278 255/255/255 279/279/279
f 255/255/255 278/278/278 254/254/254
f 255/255/255 254/254/254 260/260/260
f 211/211/211 248/248/248 255/255/255
f 211/211/211 255/255/255 260/260/260
f 260/260/260 284/284/284 259/259/259
f 176/176/176 211/211/211 217/217/217
f 211/211/211 260/260/260 217/217/217
f 217/217/217 260/260/260 259/259/259
f 217/217/217 259/259/259 216/216/216
f 175/175/175 176/176/176 217/217/217
f 175/175/175 217/217/217 216/216/216
f 134/134/134 173/173/173 172/172/172
f 128/128/128 169/169/169 173/173/173
f 176/176/176 172/172/172 211/211/211
f 172/172/172 176/176/176 139/139/139
f 172/172/172 139/139/139 134/134/134
f 138/138/138 176/176/176 175/175/175
f 134/134/134 139/139/139 138/138/138
f 99/99/99 134/134/134 98/98/98
f 99/99/99 98/98/98 93/93/93
f 134/134/134 138/138/138 133/133/133
f 134/134/134 133/133/133 98/98/98
f 133/133/133 138/138/138 97/97/97
f 133/133/133 97/97/97 98/98/98
f 284/284/284 283/283/283 259/259/259
f 215/215/215 259/259/259 258/258/258
f 210/210/210 216/216/216 259/259/259
f 210/210/210 259/259/259 215/215/215
f 215/215/215 209/209/209 210/210/210
f 215/215/215 258/258/258 252/252/252
f 215/215/215 252/252/252 209/209/209
f 166/166/166 168/168/168 201/201/201
f 166/166/166 125/125/125 127/127/127
f 166/166/166 127/127/127 168/168/168
f 153/153/153 125/125/125 166/166/166
f 153/153/153 166/166/166 162/162/162
f 199/199/199 162/162/162 166/166/166
f 199/199/199 166/166/166 201/201/201
f 125/125/125 153/153/153 117/117/117
f 131/131/131 127/127/127 125/125/125
f 131/131/131 125/125/125 92/92/92
f 92/92/92 125/125/125 86/86/86
f 125/125/125 117/117/117 86/86/86
f 137/137/137 138/138/138 175/175/175
f 175/175/175 216/216/216 210/210/210
f 97/97/97 138/138/138 137/137/137
f 97/97/97 137/137/137 132/132/132
f 67/67/67 98/98/98 97/97/97
f 137/137/137 175/175/175 171/171/171
f 131/131/131 132/132/132 137/137/137
f 131/131/131 137/137/137 171/171/171
f 168/168/168 171/171/171 209/209/209
f 168/168/168 209/209/209 203/203/203
f 175/175/175 210/210/210 209/209/209
f 175/175/175 209/209/209 171/171/171
f 131/131/131 171/171/171 168/168/168
f 131/131/131 168/168/168 127/127/127
f 201/201/201 168/168/168 203/203/203
f 92/92/92 97/97/97 132/132/132
f 92/92/92 132/132/132 131/131/131
f 93/93/93 98/98/98 67/67/67
f 93/93/93 67/67/67 61/61/61
f 14/14/14 37/37/37 36/36/36
f 36/36/36 67/67/67 42/42/42
f 36/36/36 42/42/42 14/14/14
f 10/10/10 14/14/14 9/9/9
f 67/67/67 97/97/97 66/66/66
f 65/65/65 66/66/66 97/97/97
f 67/67/67 66/66/66 42/42/42
f 66/66/66 65/65/65 42/42/42
f 13/13/13 14/14/14 42/42/42
f 13/13/13 42/42/42 19/19/19
f 42/42/42 41/41/41 19/19/19
f 97/97/97 92/92/92 65/65/65
f 65/65/65 92/92/92 60/60/60
f 92/92/92 86/86/86 60/60/60
f 42/42/42 65/65/65 35/35/35
f 42/42/42 35/35/35 41/41/41
f 65/65/65 60/60/60 35/35/35
f 17/17/17 18/18/18 11/11/11
f 198/198/198 192/192/192 199/199/199
f 192/192/192 187/187/187 193/193/193
f 162/162/162 199/199/199 192/192/192
f 162/162/162 192/192/192 193/193/193
f 198/198/198 201/201/201 242/242/242
f 198/198/198 242/242/242 240/240/240
f 242/242/242 201/201/201 203/203/203
f 242/242/242 203/203/203 244/244/244
f 240/240/240 192/192/192 198/198/198
f 198/198/198 199/199/199 201/201/201
f 227/227/227 187/187/187 192/192/192
f 226/226/226 227/227/227 233/233/233
f 153/153/153 193/193/193 187/187/187
f 226/226/226 233/233/233 186/186/186
f 191/191/191 186/186/186 233/233/233
f 191/191/191 233/233/233 234/234/234
f 186/186/186 191/191/191 192/192/192
f 186/186/186 192/192/192 187/187/187
f 244/244/244 203/203/203 247/247/247
f 153/153/153 162/162/162 193/193/193
f 153/153/153 187/187/187 152/152/152
f 110/110/110 153/153/153 152/152/152
f 117/117/117 153/153/153 110/110/110
f 79/79/79 117/117/117 110/110/110
f 79/79/79 110/110/110 109/109/109
f 86/86/86 117/117/117 79/79/79
f 79/79/79 109/109/109 116/116/116
f 79/79/79 116/116/116 78/78/78
f 55/55/55 86/86/86 79/79/79
f 55/55/55 79/79/79 78/78/78
f 187/187/187 192/192/192 152/152/152
f 160/160/160 152/152/152 161/161/161
f 116/116/116 109/109/109 152/152/152
f 152/152/152 160/160/160 116/116/116
f 116/116/116 160/160/160 115/115/115
f 116/116/116 115/115/115 77/77/77
f 85/85/85 78/78/78 116/116/116
f 85/85/85 116/116/116 77/77/77
f 280/280/280 256/256/256 281/281/281
f 251/251/251 256/256/256 280/280/280
f 251/251/251 280/280/280 250/250/250
f 214/214/214 257/257/257 213/213/213
f 256/256/256 251/251/251 208/208/208
f 256/256/256 208/208/208 213/213/213
f 214/214/214 213/213/213 180/180/180
f 214/214/214 180/180/180 181/181/181
f 251/251/251 250/250/250 208/208/208
f 213/213/213 208/208/208 212/212/212
f 178/178/178 213/213/213 212/212/212
f 179/179/179 180/180/180 213/213/213
f 179/179/179 213/213/213 178/178/178
f 182/182/182 180/180/180 179/179/179
f 182/182/182 179/179/179 145/145/145
f 60/60/60 86/86/86 55/55/55
f 55/55/55 78/78/78 54/54/54
f 55/55/55 54/54/54 34/34/34
f 55/55/55 34/34/34 60/60/60
f 54/54/54 30/30/30 34/34/34
f 34/34/34 30/30/30 53/53/53
f 34/34/34 53/53/53 33/33/33
f 35/35/35 60/60/60 34/34/34
f 34/34/34 11/11/11 35/35/35
f 76/76/76 105/105/105 74/74/74
f 76/76/76 74/74/74 75/75/75
f 105/105/105 104/104/104 74/74/74
f 105/105/105 143/143/143 103/103/103
f 105/105/105 103/103/103 104/104/104
f 49/49/49 75/75/75 74/74/74
f 49/49/49 74/74/74 73/73/73
f 74/74/74 104/104/104 72/72/72
f 74/74/74 72/72/72 73/73/73
f 50/50/50 75/75/75 49/49/49
f 50/50/50 49/49/49 48/48/48
f 49/49/49 73/73/73 48/48/48
f 50/50/50 48/48/48 28/28/28
f 368/368/368 315/315/315 318/318/318
f 317/317/317 318/318/318 315/315/315
f 287/287/287 315/315/315 313/313/313
f 287/287/287 313/313/313 285/285/285
f 370/370/370 373/373/373 374/374/374
f 374/374/374 371/371/371 370/370/370
f 374/374/374 373/373/373 377/377/377
f 374/374/374 377/377/377 430/430/430
f 382/382/382 374/374/374 430/430/430
f 371/371/371 374/374/374 373/373/373
f 382/382/382 373/373/373 374/374/374
f 320/320/320 315/315/315 368/368/368
f 320/320/320 368/368/368 370/370/370
f 320/320/320 370/370/370 371/371/371
f 327/327/327 323/323/323 320/320/320
f 370/370/370 368/368/368 318/318/318
f 318/318/318 317/317/317 370/370/370
f 320/320/320 317/317/317 315/315/315
f 326/326/326 320/320/320 371/371/371
f 317/317/317 320/320/320 326/326/326
f 317/317/317 326/326/326 370/370/370
f 330/330/330 323/323/323 327/327/327
f 320/320/320 318/318/318 292/292/292
f 289/289/289 318/318/318 315/315/315
f 289/289/289 315/315/315 287/287/287
f 318/318/318 289/289/289 292/292/292
f 292/292/292 261/261/261 296/296/296
f 373/373/373 370/370/370 326/326/326
f 371/371/371 373/373/373 326/326/326
f 330/330/330 334/334/334 378/378/378
f 339/339/339 378/378/378 334/334/334
f 383/383/383 378/378/378 334/334/334
f 383/383/383 378/378/378 339/339/339
f 339/339/339 334/334/334 383/383/383
f 383/383/383 338/338/338 339/339/339
f 383/383/383 388/388/388 387/387/387
f 388/388/388 395/395/395 394/394/394
f 394/394/394 387/387/387 388/388/388
f 383/383/383 387/387/387 343/343/343
f 383/383/383 343/343/343 338/338/338
f 394/394/394 343/343/343 387/387/387
f 339/339/339 338/338/338 343/343/343
f 349/349/349 343/343/343 394/394/394
f 339/339/339 343/343/343 344/344/344
f 296/296/296 261/261/261 263/263/263
f 339/339/339 301/301/301 298/298/298
f 300/300/300 301/301/301 339/339/339
f 300/300/300 339/339/339 344/344/344
f 344/344/344 343/343/343 303/303/303
f 344/344/344 303/303/303 300/300/300
f 304/304/304 301/301/301 300/300/300
f 304/304/304 300/300/300 303/303/303
f 377/377/377 373/373/373 382/382/382
f 430/430/430 377/377/377 432/432/432
f 430/430/430 382/382/382 435/435/435
f 430/430/430 435/435/435 432/432/432
f 432/432/432 377/377/377 381/381/381
f 435/435/435 382/382/382 377/377/377
f 435/435/435 377/377/377 381/381/381
f 432/432/432 435/435/435 434/434/434
f 434/434/434 381/381/381 432/432/432
f 435/435/435 381/381/381 434/434/434
f 434/434/434 435/435/435 474/474/474
f 434/434/434 474/474/474 473/473/473
f 437/437/437 434/434/434 473/473/473
f 435/435/435 438/438/438 474/474/474
f 435/435/435 434/434/434 438/438/438
f 437/437/437 438/438/438 434/434/434
f 564/564/564 559/559/559 558/558/558
f 564/564/564 568/568/568 569/569/569
f 564/564/564 563/563/563 534/534/534
f 564/564/564 534/534/534 568/568/568
f 562/562/562 563/563/563 557/557/557
f 563/563/563 562/562/562 533/533/533
f 563/563/563 533/533/533 534/534/534
f 529/529/529 562/562/562 556/556/556
f 529/529/529 556/556/556 561/561/561
f 562/562/562 529/529/529 533/533/533
f 529/529/529 532/532/532 533/533/533
f 541/541/541 573/573/573 569/569/569
f 541/541/541 569/569/569 568/568/568
f 545/545/545 546/546/546 573/573/573
f 545/545/545 573/573/573 541/541/541
f 520/520/520 519/519/519 516/516/516
f 516/516/516 519/519/519 547/547/547
f 516/516/516 545/545/545 515/515/515
f 488/488/488 517/517/517 516/516/516
f 516/516/516 515/515/515 488/488/488
f 415/415/415 402/402/402 403/403/403
f 415/415/415 403/403/403 416/416/416
f 403/403/403 402/402/402 395/395/395
f 394/394/394 395/395/395 402/402/402
f 415/415/415 416/416/416 453/453/453
f 416/416/416 454/454/454 460/460/460
f 453/453/453 416/416/416 460/460/460
f 423/423/423 460/460/460 465/465/465
f 460/460/460 459/459/459 453/453/453
f 464/464/464 459/459/459 460/460/460
f 464/464/464 460/460/460 465/465/465
f 402/402/402 415/415/415 414/414/414
f 415/415/415 453/453/453 459/459/459
f 415/415/415 459/459/459 414/414/414
f 422/422/422 414/414/414 459/459/459
f 491/491/491 492/492/492 494/494/494
f 491/491/491 494/494/494 493/493/493
f 464/464/464 465/465/465 467/467/467
f 464/464/464 467/467/467 466/466/466
f 467/467/467 492/492/492 491/491/491
f 467/467/467 491/491/491 466/466/466
f 494/494/494 522/522/522 521/521/521
f 494/494/494 521/521/521 493/493/493
f 352/352/352 349/349/349 394/394/394
f 352/352/352 394/394/394 402/402/402
f 349/349/349 352/352/352 351/351/351
f 402/402/402 414/414/414 351/351/351
f 402/402/402 351/351/351 352/352/352
f 351/351/351 414/414/414 361/361/361
f 308/308/308 352/352/352 351/351/351
f 308/308/308 351/351/351 361/361/361
f 303/303/303 349/349/349 308/308/308
f 349/349/349 352/352/352 308/308/308
f 458/458/458 463/463/463 422/422/422
f 481/481/481 474/474/474 438/438/438
f 481/481/481 488/488/488 480/480/480
f 488/488/488 515/515/515 480/480/480
f 473/473/473 474/474/474 481/481/481
f 481/481/481 480/480/480 473/473/473
f 541/541/541 568/568/568 534/534/534
f 515/515/515 545/545/545 541/541/541
f 540/540/540 541/541/541 534/534/534
f 515/515/515 541/541/541 540/540/540
f 514/514/514 515/515/515 540/540/540
f 514/514/514 540/540/540 507/507/507
f 540/540/540 539/539/539 507/507/507
f 515/515/515 514/514/514 480/480/480
f 514/514/514 507/507/507 479/479/479
f 514/514/514 479/479/479 480/480/480
f 539/539/539 540/540/540 534/534/534
f 539/539/539 534/534/534 533/533/533
f 506/506/506 539/539/539 533/533/533
f 507/507/507 539/539/539 506/506/506
f 507/507/507 506/506/506 479/479/479
f 505/505/505 506/506/506 532/532/532
f 478/478/478 506/506/506 487/487/487
f 506/506/506 505/505/505 486/486/486
f 506/506/506 486/486/486 487/487/487
f 505/505/505 513/513/513 486/486/486
f 505/505/505 532/532/532 538/538/538
f 505/505/505 538/538/538 537/537/537
f 505/505/505 537/537/537 504/504/504
f 512/512/512 513/513/513 505/505/505
f 512/512/512 505/505/505 504/504/504
f 513/513/513 512/512/512 485/485/485
f 513/513/513 485/485/485 486/486/486
f 537/537/537 538/538/538 531/531/531
f 489/489/489 485/485/485 512/512/512
f 489/489/489 512/512/512 518/518/518
f 473/473/473 480/480/480 479/479/479
f 479/479/479 437/437/437 473/473/473
f 445/445/445 446/446/446 437/437/437
f 445/445/445 437/437/437 479/479/479
f 412/412/412 401/401/401 446/446/446
f 446/446/446 445/445/445 411/411/411
f 412/412/412 446/446/446 411/411/411
f 411/411/411 445/445/445 452/452/452
f 478/478/478 479/479/479 506/506/506
f 479/479/479 478/478/478 445/445/445
f 478/478/478 487/487/487 451/451/451
f 451/451/451 452/452/452 445/445/445
f 421/421/421 411/411/411 452/452/452
f 421/421/421 452/452/452 451/451/451
f 365/365/365 411/411/411 421/421/421
f 410/410/410 451/451/451 450/450/450
f 420/420/420 421/421/421 451/451/451
f 420/420/420 451/451/451 410/410/410
f 412/412/412 411/411/411 359/359/359
f 412/412/412 359/359/359 360/360/360
f 365/365/365 359/359/359 411/411/411
f 312/312/312 365/365/365 364/364/364
f 365/365/365 421/421/421 420/420/420
f 365/365/365 420/420/420 364/364/364
f 364/364/364 420/420/420 409/409/409
f 364/364/364 409/409/409 358/358/358
f 490/490/490 486/486/486 485/485/485
f 419/419/419 410/410/410 450/450/450
f 419/419/419 450/450/450 457/457/457
f 410/410/410 419/419/419 409/409/409
f 410/410/410 409/409/409 420/420/420
f 419/419/419 457/457/457 456/456/456
f 424/424/424 419/419/419 456/456/456
f 424/424/424 456/456/456 462/462/462
f 419/419/419 424/424/424 418/418/418
f 409/409/409 419/419/419 363/363/363
f 409/409/409 363/363/363 357/357/357
f 219/219/219 263/263/263 266/266/266
f 266/266/266 221/221/221 269/269/269
f 266/266/266 219/219/219 221/221/221
f 224/224/224 269/269/269 221/221/221
f 224/224/224 221/221/221 225/225/225
f 221/221/221 224/224/224 220/220/220
f 224/224/224 225/225/225 232/232/232
f 190/190/190 225/225/225 185/185/185
f 225/225/225 224/224/224 185/185/185
f 225/225/225 190/190/190 232/232/232
f 197/197/197 239/239/239 232/232/232
f 232/232/232 190/190/190 197/197/197
f 224/224/224 232/232/232 185/185/185
f 184/184/184 185/185/185 232/232/232
f 184/184/184 232/232/232 189/189/189
f 185/185/185 148/148/148 190/190/190
f 148/148/148 185/185/185 184/184/184
f 188/188/188 189/189/189 231/231/231
f 241/241/241 239/239/239 197/197/197
f 241/241/241 200/200/200 243/243/243
f 241/241/241 197/197/197 200/200/200
f 197/197/197 190/190/190 159/159/159
f 205/205/205 243/243/243 200/200/200
f 205/205/205 200/200/200 202/202/202
f 200/200/200 167/167/167 202/202/202
f 200/200/200 197/197/197 165/165/165
f 200/200/200 165/165/165 167/167/167
f 243/243/243 205/205/205 246/246/246
f 208/208/208 250/250/250 246/246/246
f 208/208/208 246/246/246 205/205/205
f 208/208/208 207/207/207 205/205/205
f 208/208/208 207/207/207 177/177/177
f 208/208/208 177/177/177 212/212/212
f 205/205/205 202/202/202 170/170/170
f 190/190/190 151/151/151 159/159/159
f 190/190/190 148/148/148 151/151/151
f 148/148/148 184/184/184 151/151/151
f 151/151/151 184/184/184 189/189/189
f 158/158/158 159/159/159 151/151/151
f 158/158/158 151/151/151 114/114/114
f 151/151/151 108/108/108 114/114/114
f 151/151/151 150/150/150 108/108/108
f 197/197/197 159/159/159 158/158/158
f 197/197/197 158/158/158 165/165/165
f 165/165/165 158/158/158 123/123/123
f 165/165/165 123/123/123 126/126/126
f 167/167/167 165/165/165 126/126/126
f 158/158/158 114/114/114 123/123/123
f 174/174/174 207/207/207 205/205/205
f 174/174/174 205/205/205 170/170/170
f 177/177/177 207/207/207 174/174/174
f 178/178/178 212/212/212 177/177/177
f 178/178/178 140/140/140 142/142/142
f 178/178/178 142/142/142 179/179/179
f 143/143/143 140/140/140 103/103/103
f 202/202/202 167/167/167 170/170/170
f 130/130/130 170/170/170 167/167/167
f 167/167/167 126/126/126 130/130/130
f 129/129/129 130/130/130 126/126/126
f 140/140/140 136/136/136 130/130/130
f 140/140/140 130/130/130 101/101/101
f 130/130/130 129/129/129 100/100/100
f 130/130/130 100/100/100 101/101/101
f 126/126/126 96/96/96 129/129/129
f 126/126/126 91/91/91 96/96/96
f 96/96/96 100/100/100 129/129/129
f 102/102/102 103/103/103 140/140/140
f 102/102/102 140/140/140 101/101/101
f 102/102/102 101/101/101 100/100/100
f 188/188/188 231/231/231 230/230/230
f 188/188/188 230/230/230 196/196/196
f 150/150/150 189/189/189 188/188/188
f 230/230/230 237/237/237 196/196/196
f 273/273/273 272/272/272 229/229/229
f 237/237/237 230/230/230 229/229/229
f 196/196/196 237/237/237 195/195/195
f 150/150/150 151/151/151 189/189/189
f 149/149/149 150/150/150 188/188/188
f 149/149/149 188/188/188 196/196/196
f 113/113/113 150/150/150 149/149/149
f 113/113/113 108/108/108 150/150/150
f 114/114/114 113/113/113 123/123/123
f 123/123/123 91/91/91 126/126/126
f 123/123/123 122/122/122 83/83/83
f 123/123/123 83/83/83 91/91/91
f 113/113/113 149/149/149 157/157/157
f 113/113/113 157/157/157 112/112/112
f 91/91/91 83/83/83 90/90/90
f 149/149/149 196/196/196 195/195/195
f 149/149/149 195/195/195 157/157/157
f 157/157/157 195/195/195 156/156/156
f 111/111/111 112/112/112 157/157/157
f 111/111/111 157/157/157 156/156/156
f 120/120/120 112/112/112 111/111/111
f 72/72/72 104/104/104 103/103/103
f 72/72/72 103/103/103 102/102/102
f 102/102/102 71/71/71 72/72/72
f 69/69/69 102/102/102 100/100/100
f 69/69/69 100/100/100 96/96/96
f 70/70/70 71/71/71 102/102/102
f 70/70/70 102/102/102 69/69/69
f 46/46/46 47/47/47 71/71/71
f 46/46/46 71/71/71 70/70/70
f 48/48/48 72/72/72 71/71/71
f 48/48/48 71/71/71 47/47/47
f 47/47/47 46/46/46 25/25/25
f 70/70/70 69/69/69 68/68/68
f 70/70/70 68/68/68 44/44/44
f 45/45/45 46/46/46 70/70/70
f 45/45/45 70/70/70 44/44/44
f 25/25/25 46/46/46 45/45/45
f 25/25/25 4/4/4 26/26/26
f 26/26/26 47/47/47 25/25/25
f 82/82/82 81/81/81 89/89/89
f 96/96/96 91/91/91 95/95/95
f 91/91/91 63/63/63 95/95/95
f 96/96/96 95/95/95 68/68/68
f 96/96/96 68/68/68 69/69/69
f 91/91/91 90/90/90 63/63/63
f 64/64/64 68/68/68 95/95/95
f 64/64/64 95/95/95 63/63/63
f 44/44/44 23/23/23 45/45/45
f 40/40/40 64/64/64 63/63/63
f 63/63/63 90/90/90 58/58/58
f 90/90/90 89/89/89 58/58/58
f 43/43/43 44/44/44 64/64/64
f 43/43/43 64/64/64 40/40/40
f 63/63/63 58/58/58 39/39/39
f 21/21/21 40/40/40 63/63/63
f 21/21/21 63/63/63 39/39/39
f 24/24/24 25/25/25 45/45/45
f 24/24/24 45/45/45 23/23/23
f 25/25/25 24/24/24 3/3/3
f 25/25/25 3/3/3 4/4/4
f 6/6/6 26/26/26 4/4/4
f 6/6/6 4/4/4 5/5/5
f 28/28/28 26/26/26 7/7/7
f 26/26/26 6/6/6 7/7/7
f 8/8/8 28/28/28 7/7/7
f 194/194/194 195/195/195 235/235/235
f 155/155/155 195/195/195 194/194/194
f 156/156/156 155/155/155 120/120/120
f 156/156/156 120/120/120 111/111/111
f 156/156/156 195/195/195 155/155/155
f 119/119/119 120/120/120 155/155/155
f 119/119/119 155/155/155 164/164/164
f 155/155/155 194/194/194 154/154/154
f 163/163/163 164/164/164 155/155/155
f 58/58/58 89/89/89 81/81/81
f 81/81/81 80/80/80 57/57/57
f 81/81/81 57/57/57 58/58/58
f 38/38/38 39/39/39 32/32/32
f 16/16/16 39/39/39 38/38/38
f 21/21/21 39/39/39 16/16/16
f 16/16/16 38/38/38 15/15/15
f 21/21/21 16/16/16 15/15/15
f 21/21/21 15/15/15 20/20/20
