# 由 henjicc/yipiantian 的 lingcao_huichun_sprout 转换而来（见 manifest.json）
mtllib lingcao_huichun_sprout.mtl
o lingcao_huichun_sprout
v -0.04996 0.07728 0.00071
v -0.04865 0.07612 0.00249
v -0.04936 0.07802 -0.00136
v -0.04658 0.07434 0.00546
v -0.04666 0.07677 -0.00158
v -0.04759 0.07544 0.00336
v -0.04661 0.07854 -0.00446
v -0.04698 0.07796 -0.00302
v -0.04443 0.07326 0.00567
v -0.04457 0.07266 0.00783
v -0.04508 0.07875 -0.00578
v -0.04254 0.07128 0.00944
v -0.04337 0.07290 0.00521
v -0.04370 0.07191 0.00910
v -0.04208 0.07752 -0.00623
v -0.04235 0.07818 -0.00681
v -0.04057 0.07032 0.00924
v -0.04151 0.07706 -0.00577
v -0.04054 0.07874 -0.00924
v -0.04156 0.07849 -0.00772
v -0.03762 0.06832 0.01029
v -0.03851 0.07079 0.00113
v -0.03900 0.06946 0.00947
v -0.03847 0.07229 -0.00178
v -0.03892 0.07749 -0.00886
v -0.03877 0.07827 -0.00980
v -0.03645 0.06802 0.00995
v -0.03700 0.07031 -0.00113
v -0.03638 0.07749 -0.01084
v -0.03689 0.07794 -0.01073
v -0.03398 0.06679 0.00914
v -0.03416 0.06642 0.01337
v -0.03420 0.06928 -0.00099
v -0.03468 0.07631 -0.01036
v -0.03185 0.06520 0.01460
v -0.03180 0.06661 -0.00147
v -0.03306 0.06645 0.00748
v -0.03297 0.06581 0.01460
v -0.03193 0.07343 -0.00900
v -0.03331 0.07523 -0.00981
v -0.03002 0.06497 0.00585
v -0.03057 0.06445 0.01589
v -0.03105 0.07357 -0.01014
v -0.03098 0.07191 -0.00815
v -0.02959 0.07549 -0.01375
v -0.03056 0.07539 -0.01275
v -0.02805 0.06333 0.01506
v -0.02818 0.06921 -0.00715
v -0.02748 0.07448 -0.01405
v -0.02810 0.07420 -0.01314
v -0.02880 0.07501 -0.01374
v -0.02852 0.07496 -0.01351
v -0.02537 0.06196 0.00195
v -0.02590 0.06229 0.01495
v -0.02599 0.06395 -0.00133
v -0.02683 0.06293 0.01443
v -0.02524 0.06497 0.02983
v -0.02551 0.06545 0.03204
v -0.02600 0.06658 0.03435
v -0.02633 0.06805 0.03967
v -0.02613 0.06853 0.04319
v -0.02610 0.06912 0.04473
v -0.02543 0.06952 0.04890
v -0.02601 0.07370 -0.01410
v -0.02549 0.07264 -0.01317
v -0.02489 0.06155 -0.00188
v -0.02419 0.06155 0.01467
v -0.02308 0.06241 0.02407
v -0.02435 0.06395 -0.00475
v -0.02401 0.06329 0.02584
v -0.02469 0.06415 0.02780
v -0.02321 0.06764 -0.03058
v -0.02404 0.07087 -0.03493
v -0.02363 0.06935 -0.03279
v -0.02431 0.06966 0.05348
v -0.02332 0.06945 0.05680
v -0.02458 0.07402 -0.03991
v -0.02447 0.07254 -0.03729
v -0.02376 0.07287 -0.01486
v -0.02408 0.07672 -0.04594
v -0.02460 0.07501 -0.04181
v -0.02322 0.07814 -0.04976
v -0.02124 0.06248 -0.02537
v -0.02243 0.06060 -0.00180
v -0.02170 0.06045 0.01367
v -0.02093 0.06087 0.02062
v -0.02206 0.06155 0.02240
v -0.02211 0.06463 -0.02741
v -0.02264 0.06661 -0.02979
v -0.02182 0.06860 0.06097
v -0.02113 0.06839 0.06278
v -0.02186 0.07150 -0.01479
v -0.02236 0.07072 -0.01340
v -0.02236 0.06912 0.05965
v -0.02195 0.07192 -0.01498
v -0.02146 0.07981 -0.05536
v -0.02264 0.07879 -0.05177
v -0.01947 0.05902 -0.02285
v -0.02019 0.05890 -0.00187
v -0.01962 0.05949 0.01090
v -0.01944 0.05935 0.01194
v -0.01949 0.05957 0.01946
v -0.02055 0.06101 -0.02421
v -0.02029 0.05995 0.01342
v -0.02021 0.06022 0.02004
v -0.01985 0.06789 0.06465
v -0.01960 0.07039 -0.01516
v -0.02059 0.08029 -0.05783
v -0.01905 0.08231 -0.06405
v -0.01982 0.08159 -0.06130
v -0.01734 0.05569 -0.02127
v -0.01802 0.05663 -0.00147
v -0.01669 0.05663 0.00229
v -0.01860 0.05793 -0.02254
v -0.01721 0.05731 -0.00199
v -0.01674 0.05720 0.00344
v -0.01769 0.05853 0.01014
v -0.01853 0.05909 0.01159
v -0.01766 0.05824 0.01723
v -0.01669 0.06511 -0.01132
v -0.01744 0.06819 -0.01427
v -0.01828 0.06798 -0.01325
v -0.01738 0.06732 0.06600
v -0.01679 0.06747 0.06638
v -0.01847 0.06880 -0.01416
v -0.01787 0.08272 -0.06653
v -0.01553 0.05280 -0.01985
v -0.01457 0.05642 -0.00393
v -0.01539 0.05503 -0.00047
v -0.01631 0.05636 0.00168
v -0.01532 0.05620 0.01488
v -0.01482 0.05821 -0.00505
v -0.01648 0.05731 0.00421
v -0.01639 0.05771 0.00686
v -0.01549 0.06504 -0.01187
v -0.01637 0.06744 -0.01402
v -0.01611 0.06634 -0.01291
v -0.01464 0.06846 0.05591
v -0.01508 0.06839 0.05882
v -0.01585 0.06776 0.06388
v -0.01532 0.06730 0.06638
v -0.01457 0.06894 0.05591
v -0.01501 0.06884 0.05885
v -0.01544 0.08299 -0.07009
v -0.01409 0.05054 -0.01871
v -0.01326 0.04889 -0.01737
v -0.01339 0.05259 -0.00110
v -0.01443 0.05663 -0.00366
v -0.01370 0.05493 -0.00299
v -0.01351 0.05436 0.01349
v -0.01375 0.06179 -0.00927
v -0.01399 0.06029 -0.00740
v -0.01409 0.06306 -0.01043
v -0.01273 0.06715 0.04453
v -0.01361 0.06795 0.04890
v -0.01416 0.06839 0.05261
v -0.01385 0.06702 0.06610
v -0.01429 0.06880 0.05393
v -0.01351 0.08303 -0.07198
v -0.01055 0.04403 -0.01392
v -0.01159 0.04596 -0.01532
v -0.01105 0.04947 -0.00136
v -0.01231 0.05287 -0.00263
v -0.01094 0.05123 0.01132
v -0.01158 0.05205 0.01209
v -0.01053 0.06157 0.02934
v -0.01056 0.06319 0.03079
v -0.01078 0.06398 0.03443
v -0.01086 0.06485 0.03708
v -0.01166 0.06593 0.03946
v -0.01212 0.06660 0.04163
v -0.01181 0.06692 0.06535
v -0.01146 0.08303 -0.07306
v -0.00869 0.04061 -0.01059
v -0.00981 0.04253 -0.01262
v -0.00865 0.04292 -0.00144
v -0.00925 0.04648 -0.00171
v -0.01026 0.05000 -0.00256
v -0.00940 0.04876 0.01064
v -0.00838 0.05006 0.01470
v -0.00841 0.05215 0.01570
v -0.00866 0.05276 0.01727
v -0.00893 0.05498 0.01902
v -0.00850 0.05661 0.02217
v -0.00821 0.05964 -0.02308
v -0.00874 0.05782 0.02122
v -0.00932 0.05855 0.02414
v -0.00824 0.06190 -0.02483
v -0.00919 0.06008 0.02504
v -0.00933 0.06150 0.02870
v -0.00826 0.06441 -0.02727
v -0.00944 0.06306 0.03099
v -0.00991 0.06367 0.03353
v -0.00843 0.06759 -0.03067
v -0.00828 0.06614 -0.02801
v -0.00944 0.06682 0.06374
v -0.00857 0.07123 -0.03517
v -0.00857 0.06971 -0.03281
v -0.00852 0.07391 -0.03929
v -0.00846 0.07326 -0.03709
v -0.00852 0.07675 -0.04462
v -0.00860 0.07581 -0.04177
v -0.00850 0.07959 -0.05099
v -0.00848 0.07804 -0.04702
v -0.00937 0.08316 -0.07284
v -0.00934 0.08329 -0.06602
v -0.00898 0.08248 -0.06105
v -0.00865 0.08132 -0.05600
v -0.00944 0.08364 -0.06891
v -0.00639 0.03205 -0.00237
v -0.00690 0.03437 -0.00549
v -0.00648 0.03434 -0.00122
v -0.00734 0.03805 -0.00913
v -0.00685 0.03743 -0.00505
v -0.00670 0.03696 -0.00021
v -0.00637 0.03697 0.00312
v -0.00657 0.04045 -0.01115
v -0.00749 0.03953 -0.00756
v -0.00725 0.03980 -0.00176
v -0.00653 0.03946 0.00574
v -0.00674 0.04107 0.00718
v -0.00711 0.04446 -0.01378
v -0.00698 0.04288 -0.01282
v -0.00742 0.04343 -0.00211
v -0.00616 0.04192 0.00633
v -0.00677 0.04352 0.00927
v -0.00728 0.04664 -0.01511
v -0.00609 0.04708 -0.01248
v -0.00736 0.04596 0.00987
v -0.00718 0.04658 0.01262
v -0.00657 0.04940 -0.01553
v -0.00629 0.04890 -0.01323
v -0.00715 0.04919 0.01368
v -0.00726 0.05344 -0.01894
v -0.00680 0.05204 -0.01712
v -0.00717 0.05194 0.01548
v -0.00731 0.05276 0.01760
v -0.00746 0.05563 -0.02033
v -0.00644 0.05529 -0.01791
v -0.00757 0.05527 0.01931
v -0.00717 0.05863 -0.02182
v -0.00609 0.05704 0.02124
v -0.00763 0.05822 0.02299
v -0.00730 0.06180 -0.02496
v -0.00720 0.06098 -0.02260
v -0.00806 0.06040 0.02612
v -0.00698 0.06529 -0.02880
v -0.00735 0.06443 -0.02642
v -0.00723 0.06770 -0.03063
v -0.00713 0.06648 -0.02776
v -0.00639 0.06651 0.06073
v -0.00780 0.06675 0.06224
v -0.00748 0.07056 -0.03491
v -0.00725 0.06993 -0.03235
v -0.00763 0.07398 -0.03945
v -0.00738 0.07285 -0.03641
v -0.00814 0.07670 -0.04435
v -0.00784 0.07556 -0.04158
v -0.00739 0.08310 -0.07340
v -0.00438 0.02838 -0.00462
v -0.00475 0.02842 -0.00237
v -0.00458 0.03152 -0.00533
v -0.00531 0.03198 -0.00103
v -0.00460 0.03485 -0.00637
v -0.00463 0.03451 -0.00160
v -0.00431 0.03365 0.00161
v -0.00465 0.03851 -0.00920
v -0.00496 0.03768 -0.00524
v -0.00494 0.03696 -0.00066
v -0.00482 0.03748 0.00295
v -0.00480 0.04044 -0.00970
v -0.00491 0.03998 -0.00680
v -0.00561 0.04028 -0.00246
v -0.00495 0.03966 0.00487
v -0.00479 0.04080 0.00771
v -0.00503 0.04348 -0.01077
v -0.00481 0.04302 -0.00810
v -0.00506 0.04206 0.00633
v -0.00535 0.04342 0.00883
v -0.00551 0.04682 -0.01452
v -0.00495 0.04604 -0.01212
v -0.00554 0.04599 0.01005
v -0.00565 0.04605 0.01166
v -0.00517 0.04953 -0.01524
v -0.00499 0.04868 -0.01248
v -0.00585 0.04794 0.01272
v -0.00439 0.05359 -0.01887
v -0.00510 0.05221 -0.01669
v -0.00408 0.05319 0.01654
v -0.00538 0.05587 -0.02024
v -0.00526 0.05496 -0.01813
v -0.00495 0.05512 0.01860
v -0.00544 0.05823 -0.02114
v -0.00595 0.05738 0.02096
v -0.00536 0.06146 -0.02431
v -0.00552 0.06087 -0.02282
v -0.00595 0.06559 -0.02869
v -0.00571 0.06379 -0.02579
v -0.00431 0.06559 0.05714
v -0.00602 0.06757 -0.02979
v -0.00581 0.06620 -0.02814
v -0.00492 0.06620 0.05865
v -0.00501 0.08317 -0.07185
v -0.00238 0.00144 -0.00103
v -0.00235 0.00385 0.00003
v -0.00224 0.00719 0.00013
v -0.00221 0.01073 -0.00055
v -0.00218 0.01351 -0.00027
v -0.00198 0.01484 0.00147
v -0.00205 0.01778 -0.00380
v -0.00246 0.01685 -0.00124
v -0.00191 0.01682 0.00161
v -0.00212 0.01806 -0.00044
v -0.00260 0.02141 -0.00407
v -0.00294 0.02154 -0.00168
v -0.00328 0.02496 -0.00434
v -0.00308 0.02528 -0.00149
v -0.00198 0.02613 0.00316
v -0.00287 0.02886 -0.00537
v -0.00301 0.02914 -0.00085
v -0.00215 0.02879 0.00366
v -0.00275 0.03173 -0.00519
v -0.00277 0.03127 -0.00088
v -0.00247 0.03154 0.00447
v -0.00298 0.03470 -0.00555
v -0.00283 0.03519 -0.00147
v -0.00280 0.03431 0.00423
v -0.00299 0.03757 -0.00595
v -0.00279 0.03648 -0.00185
v -0.00340 0.03742 0.00381
v -0.00363 0.03752 0.00675
v -0.00304 0.04047 -0.00714
v -0.00353 0.04307 -0.00966
v -0.00390 0.04316 -0.00817
v -0.00383 0.04575 -0.01146
v -0.00212 0.04678 0.01156
v -0.00277 0.04926 0.01329
v -0.00352 0.05164 0.01518
v -0.00307 0.05569 -0.02007
v -0.00191 0.05800 -0.02158
v -0.00271 0.06484 0.05412
v -0.00311 0.08317 -0.06945
v -0.00198 0.08289 -0.06761
v 0.00014 0.00274 -0.00366
v -0.00083 0.00102 -0.00146
v -0.00034 0.00144 0.00140
v -0.00059 0.00515 0.00202
v -0.00150 0.00670 -0.00318
v -0.00068 0.00828 0.00222
v 0.00021 0.01046 -0.00400
v -0.00157 0.01046 -0.00332
v -0.00082 0.01046 0.00243
v -0.00007 0.01423 -0.00421
v -0.00082 0.01433 -0.00130
v -0.00092 0.01351 0.00274
v -0.00048 0.01792 -0.00448
v -0.00109 0.01669 0.00064
v -0.00051 0.01655 0.00256
v -0.00123 0.01874 0.00091
v -0.00105 0.01954 0.00255
v -0.00103 0.02161 -0.00468
v -0.00116 0.02202 -0.00017
v -0.00150 0.02232 0.00272
v -0.00106 0.02548 -0.00468
v -0.00021 0.02599 -0.00165
v -0.00115 0.02521 0.00408
v -0.00144 0.02941 -0.00468
v -0.00125 0.02959 -0.00195
v -0.00089 0.02818 0.00535
v -0.00116 0.03224 -0.00234
v -0.00085 0.03064 0.00586
v -0.00089 0.03201 0.00646
v -0.00132 0.03444 -0.00450
v -0.00140 0.03403 -0.00215
v -0.00080 0.03458 0.00692
v -0.00149 0.03628 -0.00489
v -0.00080 0.03716 0.00744
v -0.00104 0.04056 0.00860
v -0.00140 0.04326 0.00968
v -0.00171 0.04504 0.01057
v -0.00137 0.05889 -0.02185
v -0.00032 0.06066 -0.02281
v -0.00010 0.06364 0.04982
v -0.00125 0.06410 0.05160
v -0.00112 0.08303 -0.06633
v 0.00175 0.00111 -0.00041
v 0.00123 0.00118 0.00178
v 0.00128 0.00473 0.00258
v 0.00027 0.00670 -0.00386
v 0.00193 0.00699 -0.00080
v 0.00134 0.00785 0.00265
v 0.00140 0.01095 -0.00001
v 0.00158 0.01023 0.00307
v 0.00148 0.01466 -0.00137
v 0.00145 0.01299 0.00311
v 0.00109 0.01819 -0.00373
v 0.00121 0.01847 -0.00095
v 0.00048 0.02195 -0.00400
v 0.00062 0.02223 -0.00131
v 0.00082 0.06251 -0.02428
v 0.00201 0.06258 0.04609
v 0.00171 0.06384 -0.02548
v 0.00096 0.06306 0.04798
v 0.00044 0.08255 -0.06381
v 0.00161 0.08207 -0.06190
v 0.00260 0.00246 -0.00113
v 0.00274 0.00691 -0.00133
v 0.00260 0.01081 -0.00154
v 0.00239 0.01416 0.00400
v 0.00251 0.01667 0.00475
v 0.00299 0.01920 0.00535
v 0.00335 0.02165 0.00619
v 0.00362 0.02349 0.00684
v 0.00397 0.02534 0.00752
v 0.00410 0.02715 0.00845
v 0.00335 0.06167 0.04326
v 0.00263 0.06511 -0.02681
v 0.00424 0.06723 -0.02985
v 0.00352 0.06627 -0.02821
v 0.00362 0.08064 -0.05803
v 0.00270 0.08152 -0.05991
v 0.00383 0.08105 -0.05796
v 0.00461 0.02838 0.00872
v 0.00516 0.03160 0.01028
v 0.00579 0.03474 0.01196
v 0.00629 0.03676 0.01303
v 0.00643 0.05820 0.03478
v 0.00609 0.05925 0.03658
v 0.00499 0.06036 0.03945
v 0.00497 0.06812 -0.03074
v 0.00636 0.07024 -0.03485
v 0.00592 0.06945 -0.03300
v 0.00506 0.07966 -0.05504
v 0.00616 0.07838 -0.05208
v 0.00670 0.03762 0.01337
v 0.00701 0.04008 0.01501
v 0.00766 0.04333 0.01720
v 0.00814 0.04646 0.01963
v 0.00830 0.04917 0.02213
v 0.00830 0.05237 0.02564
v 0.00784 0.05524 0.02944
v 0.00699 0.05767 0.03345
v 0.00695 0.07112 -0.03595
v 0.00761 0.07353 -0.04114
v 0.00739 0.07222 -0.03835
v 0.00657 0.07735 -0.05017
v 0.00738 0.07574 -0.04614
v 0.00684 0.07769 -0.05003
v 0.00862 0.05027 0.02295
v 0.00862 0.05164 0.02445
vt 0.40977 0.45059
vt 0.36490 0.43019
vt 0.36136 0.39166
vt 0.23068 0.42982
vt 0.29946 0.37075
vt 0.32760 0.46474
vt 0.26873 0.09753
vt 0.31548 0.21014
vt 0.30162 0.43564
vt 0.37363 0.45807
vt 0.24035 0.17416
vt 0.37095 0.50173
vt 0.32296 0.43554
vt 0.32068 0.37070
vt 0.21640 0.16677
vt 0.25882 0.21111
vt 0.35395 0.40673
vt 0.22524 0.37052
vt 0.28709 0.19385
vt 0.31202 0.48342
vt 0.37728 0.47814
vt 0.70511 0.75614
vt 0.24014 0.39314
vt 0.14018 0.48431
vt 0.12131 0.22055
vt 0.16809 0.20621
vt 0.19909 0.46295
vt 0.39816 0.71948
vt 0.11445 0.20462
vt 0.16479 0.40490
vt 0.24078 0.46851
vt 0.26810 0.37258
vt 0.15518 0.60138
vt 0.11693 0.43003
vt 0.24307 0.41582
vt 0.39823 0.72036
vt 0.14788 0.35450
vt 0.20706 0.42042
vt 0.12012 0.39403
vt 0.17463 0.52038
vt 0.62927 0.73122
vt 0.26902 0.39647
vt 0.19024 0.31417
vt 0.11976 0.27609
vt 0.16655 0.11144
vt 0.18169 0.14678
vt 0.29391 0.45154
vt 0.07671 0.34927
vt 0.09965 0.14507
vt 0.09496 0.16785
vt 0.16016 0.12514
vt 0.13471 0.13069
vt 0.59402 0.76270
vt 0.28039 0.43128
vt 0.21974 0.44646
vt 0.24753 0.51213
vt 0.55256 0.54558
vt 0.53578 0.67680
vt 0.57873 0.51221
vt 0.60170 0.50890
vt 0.60738 0.64846
vt 0.46334 0.32743
vt 0.36235 0.19616
vt 0.08956 0.16463
vt 0.11580 0.27839
vt 0.39843 0.72175
vt 0.25044 0.39699
vt 0.39313 0.45931
vt 0.19636 0.62922
vt 0.53234 0.55791
vt 0.54230 0.55208
vt 0.46660 0.40416
vt 0.44102 0.22324
vt 0.44799 0.43784
vt 0.38857 0.18538
vt 0.40831 0.17650
vt 0.48901 0.27589
vt 0.49790 0.30712
vt 0.15726 0.25878
vt 0.45106 0.06100
vt 0.57255 0.21867
vt 0.41165 0.06245
vt 0.44035 0.42892
vt 0.37980 0.66920
vt 0.23790 0.40051
vt 0.53451 0.51508
vt 0.38948 0.46299
vt 0.44192 0.43107
vt 0.38011 0.52606
vt 0.42798 0.28211
vt 0.44592 0.15839
vt 0.15843 0.21226
vt 0.14942 0.20224
vt 0.42800 0.12889
vt 0.15441 0.23233
vt 0.42033 0.08069
vt 0.40941 0.06852
vt 0.45996 0.39448
vt 0.37409 0.66672
vt 0.25207 0.41125
vt 0.24131 0.34466
vt 0.31235 0.45097
vt 0.43984 0.42788
vt 0.16123 0.44993
vt 0.42168 0.48512
vt 0.41029 0.16085
vt 0.18723 0.25567
vt 0.32973 0.07600
vt 0.39654 0.10429
vt 0.41257 0.09966
vt 0.44165 0.42732
vt 0.34129 0.60611
vt 0.26319 0.43647
vt 0.38054 0.52567
vt 0.29162 0.57982
vt 0.17836 0.38228
vt 0.28911 0.47677
vt 0.13766 0.35857
vt 0.41705 0.48976
vt 0.19915 0.30903
vt 0.08266 0.11175
vt 0.13685 0.21371
vt 0.51014 0.28860
vt 0.49365 0.14244
vt 0.17748 0.28942
vt 0.39418 0.11037
vt 0.36098 0.39702
vt 0.15996 0.36893
vt 0.18566 0.44269
vt 0.16297 0.44912
vt 0.44762 0.50757
vt 0.21086 0.22636
vt 0.20741 0.46494
vt 0.27706 0.42233
vt 0.15414 0.25183
vt 0.11303 0.16586
vt 0.17662 0.28464
vt 0.64053 0.54240
vt 0.65939 0.53369
vt 0.65943 0.32112
vt 0.49828 0.14985
vt 0.74543 0.14138
vt 0.75312 0.12180
vt 0.39036 0.11816
vt 0.17539 0.34749
vt 0.34905 0.33202
vt 0.18558 0.50558
vt 0.25294 0.20045
vt 0.13808 0.37756
vt 0.44594 0.51610
vt 0.25716 0.22969
vt 0.24634 0.23522
vt 0.22671 0.24252
vt 0.66502 0.35238
vt 0.66321 0.37580
vt 0.65957 0.42323
vt 0.53044 0.23399
vt 0.74080 0.15472
vt 0.38781 0.12179
vt 0.34269 0.38694
vt 0.32485 0.29327
vt 0.24126 0.49088
vt 0.09482 0.43294
vt 0.59282 0.68493
vt 0.40743 0.53127
vt 0.14086 0.11237
vt 0.13291 0.06163
vt 0.15421 0.16298
vt 0.10865 0.18396
vt 0.62270 0.41782
vt 0.68404 0.30749
vt 0.68290 0.22885
vt 0.38540 0.12338
vt 0.33777 0.32776
vt 0.36478 0.35417
vt 0.25744 0.49469
vt 0.27311 0.37678
vt 0.16352 0.36244
vt 0.44572 0.56993
vt 0.16482 0.21760
vt 0.21537 0.08885
vt 0.15141 0.31059
vt 0.19445 0.21998
vt 0.10757 0.69990
vt 0.47460 0.85031
vt 0.17218 0.10688
vt 0.12834 0.36898
vt 0.45564 0.85604
vt 0.12800 0.09123
vt 0.15658 0.37239
vt 0.35821 0.20977
vt 0.04597 0.10890
vt 0.17451 0.33209
vt 0.27914 0.11004
vt 0.39724 0.07725
vt 0.67491 0.22328
vt 0.22301 0.16631
vt 0.34074 0.09838
vt 0.17054 0.22876
vt 0.39056 0.26116
vt 0.20935 0.18257
vt 0.37663 0.19555
vt 0.68062 0.13873
vt 0.66625 0.12391
vt 0.53711 0.17559
vt 0.73497 0.19497
vt 0.71686 0.17621
vt 0.69863 0.15737
vt 0.89275 0.22357
vt 0.31364 0.26222
vt 0.25044 0.26184
vt 0.20779 0.21438
vt 0.22842 0.42531
vt 0.16617 0.26950
vt 0.19091 0.26533
vt 0.19605 0.18761
vt 0.26229 0.54757
vt 0.55718 0.28395
vt 0.20926 0.32067
vt 0.17880 0.21678
vt 0.17678 0.21675
vt 0.27833 0.53516
vt 0.27182 0.53980
vt 0.24667 0.23229
vt 0.23172 0.11928
vt 0.21770 0.35371
vt 0.13602 0.29505
vt 0.17087 0.13176
vt 0.35139 0.35421
vt 0.18048 0.56668
vt 0.26033 0.22503
vt 0.23683 0.08560
vt 0.17345 0.37187
vt 0.36333 0.36123
vt 0.26603 0.21315
vt 0.14663 0.27656
vt 0.14380 0.54911
vt 0.36939 0.33490
vt 0.18310 0.17385
vt 0.13001 0.33599
vt 0.27738 0.23429
vt 0.20222 0.32343
vt 0.21268 0.34161
vt 0.28011 0.21721
vt 0.31619 0.25153
vt 0.35025 0.42296
vt 0.16850 0.24855
vt 0.28620 0.35406
vt 0.25858 0.37191
vt 0.28137 0.32921
vt 0.65991 0.21747
vt 0.66750 0.21983
vt 0.13243 0.28701
vt 0.27092 0.36660
vt 0.16988 0.36160
vt 0.14925 0.33035
vt 0.21090 0.37951
vt 0.20868 0.36112
vt 0.51332 0.17418
vt 0.29236 0.73572
vt 0.32721 0.43125
vt 0.25602 0.47540
vt 0.27125 0.47634
vt 0.22823 0.28183
vt 0.23598 0.17564
vt 0.33868 0.69116
vt 0.14701 0.36283
vt 0.12907 0.27822
vt 0.23761 0.15113
vt 0.28884 0.41334
vt 0.23243 0.42637
vt 0.21705 0.23952
vt 0.28311 0.18043
vt 0.21305 0.33925
vt 0.33893 0.48293
vt 0.20041 0.31402
vt 0.12735 0.12549
vt 0.10013 0.30751
vt 0.27342 0.45003
vt 0.20832 0.46851
vt 0.24399 0.29134
vt 0.21101 0.20986
vt 0.21902 0.60656
vt 0.33433 0.39345
vt 0.16187 0.19097
vt 0.19834 0.39463
vt 0.36812 0.58755
vt 0.36497 0.43042
vt 0.61324 0.51788
vt 0.41121 0.44855
vt 0.31615 0.40398
vt 0.55331 0.45435
vt 0.30071 0.38894
vt 0.71446 0.39853
vt 0.36628 0.43621
vt 0.27947 0.41419
vt 0.32189 0.43938
vt 0.27025 0.34897
vt 0.58894 0.29246
vt 0.22402 0.28352
vt 0.23844 0.28300
vt 0.67428 0.17630
vt 0.36166 0.36022
vt 0.24267 0.27075
vt 0.20985 0.14565
vt 0.15216 0.10832
vt 0.13365 0.06630
vt 0.15085 0.12345
vt 0.11370 0.08552
vt 0.21739 0.74479
vt 0.19000 0.26481
vt 0.11338 0.08591
vt 0.26158 0.03236
vt 0.24262 0.74311
vt 0.29803 0.37631
vt 0.26762 0.74062
vt 0.31193 0.39473
vt 0.21755 0.19859
vt 0.18027 0.44075
vt 0.30494 0.41812
vt 0.27631 0.25340
vt 0.16359 0.31558
vt 0.32652 0.51140
vt 0.34506 0.28142
vt 0.15337 0.25375
vt 0.15129 0.19298
vt 0.37459 0.42895
vt 0.23870 0.26572
vt 0.18041 0.21923
vt 0.27523 0.49908
vt 0.34381 0.24365
vt 0.36258 0.29905
vt 0.42694 0.36073
vt 0.13161 0.15036
vt 0.43444 0.36447
vt 0.56364 0.57228
vt 0.56172 0.56723
vt 0.55978 0.56194
vt 0.43987 0.63168
vt 0.43755 0.70893
vt 0.61308 0.28647
vt 0.39338 0.41545
vt 0.30923 0.41561
vt 0.23017 0.39359
vt 0.31069 0.30439
vt 0.60817 0.38797
vt 0.45411 0.31572
vt 0.08682 0.38603
vt 0.36959 0.27840
vt 0.18127 0.44443
vt 0.11050 0.38902
vt 0.35572 0.27579
vt 0.18091 0.44331
vt 0.21689 0.38563
vt 0.33630 0.27272
vt 0.18068 0.44247
vt 0.24184 0.21835
vt 0.38957 0.47435
vt 0.38150 0.39002
vt 0.31517 0.38926
vt 0.18038 0.44150
vt 0.31264 0.30875
vt 0.33388 0.36275
vt 0.17229 0.38189
vt 0.24776 0.39785
vt 0.40111 0.44995
vt 0.13757 0.32283
vt 0.23111 0.38717
vt 0.39140 0.45638
vt 0.30371 0.61259
vt 0.47063 0.54929
vt 0.40828 0.35651
vt 0.19753 0.31792
vt 0.27342 0.36192
vt 0.50408 0.51296
vt 0.32280 0.32488
vt 0.62638 0.66744
vt 0.56542 0.58382
vt 0.56493 0.57917
vt 0.56424 0.57596
vt 0.52958 0.63959
vt 0.55610 0.61854
vt 0.69544 0.22128
vt 0.64081 0.30204
vt 0.42975 0.40153
vt 0.30683 0.31745
vt 0.33117 0.32688
vt 0.36287 0.37278
vt 0.18174 0.44584
vt 0.23179 0.34944
vt 0.25862 0.35437
vt 0.23505 0.32693
vt 0.26611 0.25662
vt 0.27812 0.36575
vt 0.34939 0.40969
vt 0.21783 0.32557
vt 0.28416 0.41965
vt 0.19118 0.32366
vt 0.26569 0.40881
vt 0.51104 0.63824
vt 0.66223 0.22919
vt 0.50237 0.63724
vt 0.63814 0.21980
vt 0.40659 0.39522
vt 0.41158 0.38919
vt 0.37650 0.42008
vt 0.37420 0.53736
vt 0.34714 0.53233
vt 0.32470 0.49921
vt 0.30233 0.33211
vt 0.33236 0.40794
vt 0.32956 0.36327
vt 0.33574 0.36010
vt 0.34201 0.35704
vt 0.28160 0.23523
vt 0.56722 0.21227
vt 0.49366 0.63652
vt 0.33239 0.54094
vt 0.48492 0.63593
vt 0.30743 0.41090
vt 0.41667 0.38320
vt 0.53638 0.34484
vt 0.37481 0.39196
vt 0.36405 0.34769
vt 0.34217 0.30463
vt 0.37977 0.34138
vt 0.42107 0.24847
vt 0.62835 0.25579
vt 0.54653 0.21301
vt 0.50279 0.53613
vt 0.30856 0.41128
vt 0.45012 0.50818
vt 0.42995 0.37014
vt 0.43772 0.36306
vt 0.49345 0.45670
vt 0.39579 0.33746
vt 0.40854 0.33437
vt 0.42144 0.33202
vt 0.37992 0.29307
vt 0.37949 0.21541
vt 0.43819 0.20956
vt 0.49092 0.23874
vt 0.42114 0.47969
vt 0.50935 0.38281
vt 0.35222 0.42725
vt 0.30760 0.41134
vt 0.45181 0.35003
vt 0.57766 0.30561
vt 0.67262 0.44203
vt 0.57603 0.21500
vn -0.82021 -0.56831 -0.06538
vn -0.81975 -0.51082 0.25899
vn -0.15629 0.98599 0.05834
vn -0.32239 -0.15915 0.93313
vn -0.24243 -0.35674 -0.90220
vn -0.52810 0.63456 0.56431
vn -0.83128 0.54983 -0.08165
vn 0.26106 0.94382 0.20263
vn -0.32241 -0.87497 0.36122
vn -0.87892 0.29030 0.37845
vn -0.20740 0.57385 -0.79226
vn -0.26662 -0.15188 0.95176
vn 0.31777 0.91989 0.22983
vn -0.42744 -0.09004 0.89955
vn -0.39476 -0.71272 -0.57982
vn -0.36907 0.91150 -0.18152
vn -0.30256 -0.93442 0.18791
vn -0.85063 0.52536 -0.02078
vn -0.50874 0.31235 -0.80226
vn -0.02601 0.95585 0.29270
vn -0.42009 -0.90448 -0.07380
vn -0.50978 -0.84716 -0.14979
vn -0.59185 0.32268 0.73864
vn 0.03350 0.53079 -0.84684
vn -0.44000 -0.71071 -0.54890
vn -0.30812 0.89428 -0.32453
vn 0.44004 0.27725 0.85411
vn -0.50620 -0.77930 -0.36940
vn -0.33971 -0.67601 -0.65391
vn 0.45070 0.87909 0.15513
vn -0.77306 -0.63358 -0.03079
vn -0.67119 0.22710 0.70564
vn 0.48547 0.80005 0.35248
vn -0.18354 -0.50731 -0.84199
vn -0.82319 0.00643 0.56774
vn -0.54928 -0.76687 -0.33199
vn 0.20468 0.96651 0.15478
vn 0.28527 0.73720 0.61250
vn 0.63986 0.13572 -0.75641
vn 0.51441 0.70341 0.49051
vn -0.51550 -0.85510 -0.05540
vn -0.22081 -0.01914 0.97513
vn -0.80692 -0.46977 -0.35805
vn -0.58073 -0.14269 -0.80149
vn -0.16515 0.35102 -0.92169
vn -0.27422 0.95715 -0.09312
vn -0.06660 -0.86450 0.49821
vn -0.46480 -0.66480 -0.58480
vn -0.43974 0.36332 -0.82135
vn -0.58713 0.67819 -0.44197
vn -0.05119 -0.39559 -0.91700
vn 0.52139 0.72589 0.44859
vn -0.50122 -0.86503 0.02260
vn -0.00186 -0.41039 0.91191
vn 0.52187 0.80806 0.27329
vn 0.22902 0.94209 0.24497
vn 0.05492 0.93628 -0.34694
vn -0.16210 -0.93891 0.30360
vn 0.07722 0.95299 -0.29300
vn 0.04410 0.97532 -0.21634
vn -0.17130 -0.96643 0.19151
vn 0.05969 0.98401 -0.16784
vn -0.97034 0.14625 0.19249
vn 0.47438 0.37866 -0.79472
vn 0.57315 0.76375 0.29695
vn -0.56671 -0.79361 -0.22140
vn -0.15868 -0.11276 0.98087
vn -0.94594 0.02997 -0.32295
vn -0.44861 -0.65101 -0.61231
vn 0.07235 0.91442 -0.39826
vn 0.06417 0.92296 -0.37951
vn -0.09940 0.71267 0.69442
vn -0.74351 -0.41615 0.52346
vn -0.99513 -0.08574 0.04866
vn -0.97933 0.10457 0.17315
vn -0.96908 0.06759 0.23733
vn -0.15954 0.86944 0.46756
vn -0.09819 0.83913 0.53500
vn 0.16220 0.58760 -0.79273
vn -0.20817 0.90995 0.35868
vn -0.12243 0.90350 0.41072
vn -0.95954 0.03783 -0.27900
vn -0.99451 -0.09057 0.05240
vn -0.48408 -0.84955 -0.20960
vn -0.06078 -0.14221 0.98797
vn 0.12040 0.89419 -0.43119
vn -0.88398 -0.03830 -0.46596
vn -0.96986 -0.18139 0.16268
vn -0.00960 -0.73811 -0.67461
vn -0.13320 -0.98242 -0.13080
vn -0.90836 -0.04298 0.41598
vn -0.28171 0.02713 -0.95912
vn 0.19806 0.52777 -0.82597
vn -0.14381 0.95754 0.24989
vn 0.40324 0.87004 0.28361
vn -0.26207 0.94505 0.19544
vn -0.98054 -0.00983 -0.19609
vn -0.17487 0.42349 0.88887
vn -0.50994 -0.80104 -0.31351
vn -0.62234 0.24616 0.74304
vn -0.02994 -0.61011 0.79175
vn -0.22780 -0.87799 0.42100
vn -0.95413 -0.25376 0.15886
vn 0.65256 0.55516 0.51571
vn -0.59610 -0.23663 -0.76725
vn -0.73273 -0.12810 0.66836
vn 0.56143 0.32444 -0.76127
vn 0.07030 -0.96077 -0.26829
vn -0.88870 0.01546 -0.45823
vn -0.26372 0.94961 0.16938
vn -0.89058 -0.43198 0.14235
vn -0.64173 -0.76354 -0.07207
vn -0.53458 -0.82008 0.20419
vn -0.00920 -0.48221 -0.87601
vn 0.72268 0.68083 -0.11918
vn 0.75855 -0.45294 0.46845
vn 0.70851 -0.38313 0.59264
vn 0.49673 0.13171 0.85785
vn -0.88369 -0.02620 -0.46733
vn -0.41208 -0.68626 -0.59937
vn -0.02579 0.11888 -0.99257
vn 0.41115 0.79476 0.44644
vn -0.31446 -0.59146 0.74249
vn 0.00421 0.58972 0.80760
vn 0.85358 -0.12136 -0.50663
vn -0.80585 -0.01305 -0.59197
vn -0.38604 -0.60523 -0.69618
vn -0.26719 -0.49488 -0.82686
vn -0.42753 -0.84998 0.30782
vn 0.47142 -0.28518 0.83453
vn 0.17432 0.75621 -0.63068
vn 0.84389 -0.08312 -0.53004
vn 0.84534 0.53382 -0.02115
vn 0.84870 -0.52157 0.08759
vn 0.40811 0.67838 -0.61093
vn 0.87578 0.18218 -0.44701
vn 0.91054 -0.35260 -0.21586
vn -0.18231 -0.98324 -0.00100
vn -0.14747 -0.98535 -0.08569
vn -0.04224 -0.92942 0.36661
vn 0.11040 0.60880 0.78560
vn 0.17380 0.98478 -0.00170
vn 0.14827 0.98532 0.08464
vn -0.74904 -0.06442 -0.65939
vn 0.07530 -0.53333 -0.84255
vn -0.79302 0.16734 0.58577
vn -0.08010 -0.29569 0.95192
vn 0.66902 0.56652 0.48111
vn 0.84949 0.49796 -0.17436
vn -0.49965 -0.80816 0.31181
vn 0.89420 -0.26951 -0.35745
vn 0.83989 -0.53886 -0.06486
vn 0.55292 0.71529 0.42737
vn 0.20662 0.96262 -0.17513
vn 0.83606 -0.24289 -0.49194
vn -0.20745 -0.97673 0.05452
vn 0.21644 -0.28248 0.93454
vn 0.19941 0.97814 -0.05900
vn -0.57923 -0.09918 -0.80911
vn -0.45151 -0.56123 -0.69366
vn -0.84469 -0.52243 0.11644
vn -0.48160 -0.19787 0.85376
vn 0.79920 0.58940 -0.11780
vn 0.26320 0.61980 -0.73930
vn -0.41905 -0.66446 0.61878
vn -0.89094 -0.44256 0.10182
vn -0.55270 0.74739 -0.36869
vn -0.97884 -0.18104 0.09541
vn -0.16594 0.42701 0.88889
vn -0.61533 -0.02456 -0.78789
vn 0.23316 0.95631 -0.17636
vn 0.42470 -0.26500 0.86568
vn -0.34677 -0.09600 -0.93303
vn -0.98768 -0.13183 0.08433
vn -0.86318 0.34543 0.36825
vn -0.94270 -0.29043 0.16420
vn -0.93977 0.18975 -0.28429
vn 0.79352 0.53602 -0.28811
vn -0.80965 -0.30974 -0.49853
vn -0.98095 -0.18801 0.04899
vn -0.73570 0.39924 -0.54713
vn -0.93320 -0.31479 0.17332
vn -0.98405 0.01620 -0.17716
vn 0.11005 -0.78166 0.61392
vn 0.04500 -0.53388 -0.84436
vn -0.07269 0.78978 -0.60907
vn -0.64350 -0.67658 0.35796
vn 0.03893 -0.64043 -0.76703
vn 0.14512 0.85209 -0.50287
vn 0.85708 -0.38307 0.34450
vn -0.94434 -0.28111 -0.17090
vn 0.78705 0.60360 -0.12731
vn 0.97215 -0.07188 0.22304
vn -0.94224 -0.27939 -0.18471
vn -0.82833 0.38771 0.40441
vn 0.55898 -0.24472 0.79224
vn -0.72784 -0.56763 -0.38477
vn -0.99880 -0.01601 0.04628
vn -0.54704 -0.73045 -0.40889
vn -0.75097 0.55799 0.35311
vn -0.33478 0.19950 -0.92094
vn -0.80918 0.55149 0.20269
vn -0.53105 -0.39540 0.74943
vn 0.74551 0.22427 -0.62763
vn -0.08081 -0.17158 -0.98185
vn 0.19848 0.07163 -0.97748
vn 0.36708 -0.15875 0.91654
vn 0.34540 0.28930 -0.89275
vn -0.01570 0.99987 0.00270
vn -0.99326 -0.10890 0.03978
vn -0.89586 -0.37892 -0.23207
vn -0.95910 -0.26988 0.08536
vn -0.57791 -0.56874 -0.58528
vn -0.96170 0.24870 -0.11522
vn -0.85218 0.10896 0.51178
vn -0.92805 -0.25136 0.27486
vn 0.12556 -0.57234 -0.81035
vn -0.63180 0.56388 0.53185
vn -0.98338 0.08833 0.15863
vn -0.96877 -0.21555 0.12256
vn -0.97295 -0.21239 0.09086
vn 0.17590 -0.51991 -0.83591
vn 0.15979 -0.53677 -0.82846
vn 0.82419 0.48657 -0.28975
vn -0.44701 0.55742 -0.69962
vn -0.85231 -0.39950 0.33759
vn 0.17970 -0.52255 -0.83345
vn -0.98734 -0.15754 0.01859
vn -0.50664 0.41555 -0.75540
vn -0.35904 -0.63526 0.68376
vn -0.88195 0.15218 0.44610
vn -0.91410 0.16790 0.36910
vn 0.35483 0.79463 -0.49261
vn -0.81089 -0.41085 -0.41674
vn -0.96136 0.07198 0.26571
vn 0.54135 0.62859 -0.55840
vn 0.69503 -0.40465 0.59430
vn -0.84360 -0.35284 -0.40478
vn -0.49381 0.50891 0.70510
vn 0.98122 0.19242 -0.01385
vn -0.98548 -0.14330 -0.09109
vn -0.33380 -0.80540 0.48980
vn 0.98908 0.04097 0.14159
vn -0.50475 -0.60133 -0.61938
vn -0.36745 0.55700 0.74480
vn -0.26551 -0.87994 0.39397
vn 0.06875 -0.73272 -0.67704
vn -0.71751 0.46155 0.52168
vn 0.44121 -0.64377 -0.62522
vn 0.01282 0.75219 0.65882
vn 0.70631 -0.21167 0.67552
vn 0.72954 -0.22691 0.64520
vn 0.23578 -0.74566 -0.62322
vn 0.59851 0.66977 0.43954
vn 0.75125 -0.51920 -0.40749
vn 0.78197 0.56841 0.25579
vn 0.98168 0.04049 -0.18620
vn 0.98684 0.13810 -0.08414
vn 0.28758 -0.11759 -0.95051
vn -0.68917 -0.28389 -0.66667
vn -0.90333 -0.30040 0.30620
vn -0.24173 -0.40610 -0.88128
vn -0.67279 -0.45528 0.58316
vn 0.24523 -0.32952 -0.91174
vn 0.42492 0.86183 0.27695
vn -0.04130 -0.63308 0.77298
vn 0.50221 -0.40260 -0.76531
vn 0.36177 0.88423 -0.29539
vn 0.46415 0.88277 -0.07267
vn 0.26912 0.89910 0.34525
vn 0.95201 0.30494 0.02617
vn -0.41132 0.69544 0.58922
vn 0.88542 0.42992 -0.17666
vn 0.47146 0.73538 -0.48677
vn 0.54989 -0.56279 0.61716
vn 0.80092 0.47742 -0.36139
vn -0.56927 0.43672 0.69657
vn 0.32510 0.65220 -0.68480
vn 0.99063 0.13563 0.01578
vn 0.74771 -0.38454 -0.54134
vn 0.98185 -0.03320 -0.18672
vn 0.64388 0.58660 -0.49125
vn 0.79013 -0.26580 0.55231
vn 0.98694 -0.09338 -0.13124
vn 0.28653 0.61561 0.73412
vn 0.98138 0.12172 0.14860
vn 0.94296 -0.28141 -0.17788
vn 0.91432 0.25721 0.31284
vn 0.40229 0.68359 -0.60899
vn 0.82997 -0.32499 -0.45335
vn 0.84857 0.35795 0.38961
vn 0.39381 0.71337 -0.57967
vn 0.98858 0.11719 0.09477
vn 0.33821 0.79893 -0.49732
vn 0.91676 -0.19635 -0.34784
vn 0.83969 0.39141 0.37644
vn 0.76757 -0.42389 -0.48078
vn 0.98548 0.16327 0.04670
vn -0.25139 -0.96438 0.08230
vn 0.95308 0.28599 0.09920
vn 0.95722 0.26751 0.11030
vn 0.34487 0.93853 0.01493
vn 0.67734 -0.06433 -0.73285
vn -0.92260 -0.38400 -0.03674
vn -0.93971 -0.02756 0.34085
vn -0.97149 0.00463 0.23705
vn -0.99859 0.00144 0.05315
vn -0.99517 0.00540 0.09798
vn -0.90672 -0.01670 0.42141
vn -0.68368 -0.12800 -0.71847
vn -0.99331 -0.03210 -0.11091
vn -0.93157 -0.02350 0.36279
vn -0.81363 -0.02320 0.58092
vn -0.69201 -0.17030 -0.70151
vn -0.92860 -0.12038 0.35101
vn -0.68708 -0.23369 -0.68798
vn -0.71285 -0.11712 0.69147
vn -0.99823 -0.01120 -0.05838
vn 0.02150 -0.08270 -0.99634
vn -0.02620 0.01870 0.99948
vn -0.65589 0.16719 -0.73611
vn 0.45998 -0.04860 -0.88660
vn 0.40578 -0.27261 0.87237
vn -0.95726 0.00616 -0.28916
vn 0.53523 -0.21948 -0.81570
vn 0.12387 0.98183 0.14373
vn 0.14153 -0.61338 0.77700
vn 0.82091 0.07831 -0.56566
vn 0.31654 0.84091 0.43894
vn 0.96303 0.25976 0.07135
vn -0.79633 -0.31997 0.51330
vn 0.96148 0.27483 -0.00587
vn 0.96489 -0.01750 -0.26209
vn 0.51208 0.59708 0.61747
vn 0.99088 0.09220 -0.09828
vn -0.85547 0.00222 -0.51785
vn -0.07383 -0.74717 -0.66052
vn -0.57703 0.73921 0.34728
vn 0.95441 -0.21225 0.20990
vn 0.13860 -0.52479 -0.83988
vn -0.20609 -0.96509 0.16164
vn 0.82566 -0.03439 -0.56312
vn 0.01160 -0.99550 -0.09400
vn 0.01950 -0.15880 -0.98712
vn -0.26786 -0.87207 -0.40956
vn -0.48811 -0.32200 0.81121
vn -0.49847 -0.10220 0.86086
vn -0.56829 -0.01570 -0.82268
vn -0.51449 -0.07170 0.85449
vn 0.03100 -0.04340 -0.99858
vn -0.61289 -0.05450 -0.78829
vn -0.53232 -0.08440 0.84233
vn 0.04060 -0.05580 -0.99762
vn 0.43567 0.22205 -0.87229
vn -0.56666 -0.09806 0.81809
vn 0.03830 -0.05930 -0.99751
vn -0.41049 0.85988 0.30350
vn 0.69107 0.25838 0.67502
vn -0.89394 0.44710 0.03124
vn -0.98115 0.18110 0.06749
vn 0.03520 -0.06820 -0.99705
vn -0.03530 0.10070 0.99429
vn -0.43633 0.26425 -0.86011
vn 0.41351 0.02066 -0.91027
vn 0.82777 0.25226 0.50116
vn -0.82182 0.23883 -0.51727
vn 0.70949 0.15400 -0.68769
vn 0.82019 0.24344 0.51771
vn -0.60890 -0.18771 0.77072
vn 0.98993 -0.06300 0.12678
vn -0.41973 0.90623 -0.05067
vn -0.57771 -0.22470 0.78471
vn 0.83705 -0.21862 -0.50155
vn 0.97704 0.01460 0.21255
vn -0.54256 -0.25183 0.80138
vn 0.94811 0.20277 -0.24490
vn 0.53341 0.27321 -0.80052
vn -0.85127 0.37357 -0.36848
vn -0.87875 0.26832 -0.39472
vn -0.19133 0.89109 0.41152
vn 0.76947 -0.52392 0.36528
vn 0.11064 0.49986 0.85901
vn 0.37556 0.92386 -0.07378
vn -0.09257 -0.95976 0.26511
vn 0.18920 0.98101 -0.04275
vn 0.78058 -0.61689 -0.10068
vn 0.33591 -0.45401 0.82525
vn 0.78230 -0.06067 0.61994
vn 0.02140 -0.03580 -0.99913
vn 0.99879 0.03390 0.03560
vn 0.95438 -0.03759 0.29622
vn 0.96302 0.11863 0.24191
vn 0.99334 -0.05879 -0.09908
vn 0.98194 0.14632 0.11989
vn 0.99005 0.00132 -0.14069
vn 0.72944 0.06080 -0.68134
vn 0.86210 0.17813 0.47440
vn 0.73680 0.08840 -0.67030
vn 0.84149 0.21087 0.49742
vn 0.92460 -0.23911 0.29654
vn 0.37142 0.92585 -0.06960
vn 0.92303 -0.22720 0.31046
vn 0.46647 0.87843 0.10371
vn 0.88116 0.04095 -0.47104
vn 0.86698 0.05624 -0.49516
vn 0.99670 -0.05810 -0.05660
vn 0.99945 0.00610 -0.03270
vn 0.99763 0.06840 -0.00690
vn 0.80101 0.06410 -0.59521
vn 0.00877 -0.19919 0.97992
vn 0.88668 0.05899 -0.45860
vn 0.84136 -0.20783 0.49891
vn 0.84467 -0.21988 0.48805
vn 0.84952 -0.17866 0.49638
vn -0.44068 -0.24859 0.86256
vn 0.76317 -0.12721 0.63356
vn 0.91571 -0.23374 0.32685
vn 0.04110 -0.78572 -0.61722
vn 0.91488 -0.23946 0.32504
vn -0.04800 -0.95509 -0.29240
vn 0.86738 0.06259 -0.49369
vn 0.11380 0.95692 0.26711
vn 0.73456 0.15952 -0.65953
vn 0.82017 -0.27273 0.50292
vn -0.45439 -0.33667 0.82473
vn 0.68742 -0.65954 0.30406
vn -0.30960 -0.88731 0.34180
vn 0.39334 0.87523 -0.28154
vn 0.87777 -0.20920 0.43099
vn 0.08420 0.72731 0.68112
vn -0.04240 -0.83852 -0.54321
vn 0.96662 -0.18432 0.17796
vn 0.87850 0.07547 -0.47174
vn 0.98116 -0.03438 -0.19012
vn 0.64071 0.27300 -0.71761
vn 0.79814 -0.37617 0.47060
vn 0.82499 -0.37090 0.42640
vn 0.84813 -0.42869 0.31128
vn -0.37393 -0.69876 0.60984
vn -0.35776 -0.73838 0.57167
vn 0.91460 -0.25601 0.31300
vn 0.46706 0.85986 -0.20613
vn 0.14807 0.82587 0.54407
vn 0.34642 0.81041 0.47246
vn 0.28456 0.83273 0.47496
vn -0.07800 -0.92329 -0.37610
vn 0.98069 -0.04050 -0.19130
vn 0.13320 0.91980 0.36910
vn 0.48549 0.66639 -0.56589
vn 0.46411 0.70121 -0.54121
usemtl lingcao_huichun_sprout_mat
s off
f 386/386/386 388/388/388 387/387/387
f 388/388/388 390/390/390 391/391/391
f 393/393/393 392/392/392 395/395/395
f 397/397/397 357/357/357 394/394/394
f 397/397/397 359/359/359 357/357/357
f 308/308/308 357/357/357 313/313/313
f 325/325/325 374/374/374 370/370/370
f 370/370/370 322/322/322 325/325/325
f 374/374/374 329/329/329 326/326/326
f 268/268/268 269/269/269 329/329/329
f 328/328/328 268/268/268 329/329/329
f 212/212/212 265/265/265 216/216/216
f 216/216/216 215/215/215 212/212/212
f 269/269/269 216/216/216 270/270/270
f 219/219/219 215/215/215 269/269/269
f 268/268/268 328/328/328 272/272/272
f 268/268/268 219/219/219 273/273/273
f 219/219/219 268/268/268 214/214/214
f 154/154/154 384/384/384 341/341/341
f 155/155/155 384/384/384 341/341/341
f 384/384/384 155/155/155 154/154/154
f 384/384/384 383/383/383 155/155/155
f 383/383/383 403/403/403 154/154/154
f 171/171/171 154/154/154 383/383/383
f 171/171/171 403/403/403 401/401/401
f 171/171/171 154/154/154 401/401/401
f 251/251/251 302/302/302 143/143/143
f 142/142/142 143/143/143 302/302/302
f 157/157/157 140/140/140 123/123/123
f 123/123/123 141/141/141 157/157/157
f 123/123/123 124/124/124 141/141/141
f 429/429/429 428/428/428 190/190/190
f 190/190/190 193/193/193 428/428/428
f 246/246/246 105/105/105 86/86/86
f 246/246/246 86/86/86 87/87/87
f 87/87/87 105/105/105 246/246/246
f 193/193/193 168/168/168 429/429/429
f 169/169/169 193/193/193 168/168/168
f 292/292/292 131/131/131 150/150/150
f 55/55/55 100/100/100 117/117/117
f 117/117/117 100/100/100 53/53/53
f 53/53/53 134/134/134 117/117/117
f 53/53/53 133/133/133 134/134/134
f 53/53/53 116/116/116 133/133/133
f 116/116/116 53/53/53 84/84/84
f 100/100/100 85/85/85 53/53/53
f 85/85/85 67/67/67 53/53/53
f 55/55/55 117/117/117 134/134/134
f 134/134/134 133/133/133 55/55/55
f 133/133/133 116/116/116 55/55/55
f 116/116/116 84/84/84 55/55/55
f 55/55/55 85/85/85 100/100/100
f 55/55/55 67/67/67 85/85/85
f 67/67/67 55/55/55 33/33/33
f 151/151/151 55/55/55 84/84/84
f 122/122/122 33/33/33 55/55/55
f 55/55/55 151/151/151 153/153/153
f 55/55/55 153/153/153 135/135/135
f 55/55/55 135/135/135 122/122/122
f 101/101/101 100/100/100 85/85/85
f 149/149/149 163/163/163 147/147/147
f 129/129/129 149/149/149 147/147/147
f 115/115/115 130/130/130 129/129/129
f 115/115/115 148/148/148 132/132/132
f 99/99/99 116/116/116 133/133/133
f 84/84/84 113/113/113 116/116/116
f 116/116/116 99/99/99 84/84/84
f 132/132/132 84/84/84 99/99/99
f 84/84/84 132/132/132 152/152/152
f 84/84/84 152/152/152 151/151/151
f 132/132/132 128/128/128 115/115/115
f 69/69/69 151/151/151 84/84/84
f 104/104/104 101/101/101 85/85/85
f 47/47/47 35/35/35 41/41/41
f 35/35/35 47/47/47 56/56/56
f 37/37/37 35/35/35 56/56/56
f 35/35/35 31/31/31 41/41/41
f 37/37/37 31/31/31 35/35/35
f 31/31/31 37/37/37 41/41/41
f 41/41/41 37/37/37 22/22/22
f 22/22/22 36/36/36 41/41/41
f 31/31/31 32/32/32 35/35/35
f 31/31/31 37/37/37 33/33/33
f 24/24/24 23/23/23 33/33/33
f 31/31/31 33/33/33 23/23/23
f 39/39/39 24/24/24 33/33/33
f 33/33/33 122/122/122 93/93/93
f 33/33/33 44/44/44 39/39/39
f 65/65/65 44/44/44 33/33/33
f 33/33/33 93/93/93 65/65/65
f 23/23/23 31/31/31 27/27/27
f 31/31/31 23/23/23 22/22/22
f 13/13/13 22/22/22 23/23/23
f 24/24/24 13/13/13 23/23/23
f 37/37/37 31/31/31 22/22/22
f 66/66/66 36/36/36 69/69/69
f 36/36/36 28/28/28 24/24/24
f 36/36/36 24/24/24 48/48/48
f 22/22/22 28/28/28 36/36/36
f 48/48/48 69/69/69 36/36/36
f 28/28/28 22/22/22 5/5/5
f 22/22/22 13/13/13 5/5/5
f 69/69/69 153/153/153 151/151/151
f 69/69/69 122/122/122 120/120/120
f 122/122/122 69/69/69 48/48/48
f 135/135/135 137/137/137 122/122/122
f 5/5/5 24/24/24 28/28/28
f 24/24/24 5/5/5 18/18/18
f 44/44/44 48/48/48 24/24/24
f 39/39/39 44/44/44 24/24/24
f 34/34/34 39/39/39 24/24/24
f 25/25/25 34/34/34 24/24/24
f 24/24/24 18/18/18 25/25/25
f 122/122/122 48/48/48 93/93/93
f 48/48/48 44/44/44 43/43/43
f 48/48/48 43/43/43 50/50/50
f 65/65/65 93/93/93 48/48/48
f 50/50/50 65/65/65 48/48/48
f 24/24/24 39/39/39 40/40/40
f 24/24/24 40/40/40 34/34/34
f 26/26/26 18/18/18 24/24/24
f 65/65/65 43/43/43 44/44/44
f 122/122/122 125/125/125 93/93/93
f 92/92/92 93/93/93 125/125/125
f 43/43/43 65/65/65 50/50/50
f 6/6/6 5/5/5 13/13/13
f 5/5/5 6/6/6 2/2/2
f 5/5/5 2/2/2 1/1/1
f 5/5/5 1/1/1 3/3/3
f 3/3/3 8/8/8 5/5/5
f 15/15/15 18/18/18 5/5/5
f 25/25/25 29/29/29 34/34/34
f 10/10/10 14/14/14 12/12/12
f 13/13/13 17/17/17 23/23/23
f 9/9/9 13/13/13 6/6/6
f 18/18/18 8/8/8 5/5/5
f 8/8/8 18/18/18 16/16/16
f 5/5/5 8/8/8 11/11/11
f 16/16/16 15/15/15 5/5/5
f 11/11/11 16/16/16 5/5/5
f 8/8/8 7/7/7 11/11/11
f 284/284/284 231/231/231 280/280/280
f 146/146/146 161/161/161 231/231/231
f 234/234/234 235/235/235 288/288/288
f 98/98/98 111/111/111 241/241/241
f 241/241/241 111/111/111 114/114/114
f 122/122/122 135/135/135 120/120/120
f 93/93/93 121/121/121 122/122/122
f 93/93/93 125/125/125 121/121/121
f 125/125/125 107/107/107 92/92/92
f 107/107/107 92/92/92 95/95/95
f 402/402/402 417/417/417 248/248/248
f 443/443/443 445/445/445 200/200/200
f 199/199/199 444/444/444 445/445/445
f 81/81/81 77/77/77 202/202/202
f 109/109/109 110/110/110 207/207/207
f 206/206/206 109/109/109 207/207/207
f 109/109/109 206/206/206 126/126/126
f 303/303/303 259/259/259 205/205/205
f 26/26/26 20/20/20 18/18/18
f 18/18/18 15/15/15 26/26/26
f 388/388/388 386/386/386 390/390/390
f 386/386/386 406/406/406 407/407/407
f 386/386/386 407/407/407 390/390/390
f 349/349/349 347/347/347 388/388/388
f 349/349/349 388/388/388 391/391/391
f 345/345/345 387/387/387 346/346/346
f 347/347/347 346/346/346 387/387/387
f 347/347/347 387/387/387 388/388/388
f 387/387/387 345/345/345 386/386/386
f 345/345/345 346/346/346 304/304/304
f 346/346/346 347/347/347 305/305/305
f 346/346/346 305/305/305 304/304/304
f 347/347/347 306/306/306 305/305/305
f 306/306/306 347/347/347 349/349/349
f 344/344/344 386/386/386 345/345/345
f 406/406/406 386/386/386 390/390/390
f 406/406/406 390/390/390 407/407/407
f 389/389/389 390/390/390 386/386/386
f 389/389/389 386/386/386 344/344/344
f 408/408/408 407/407/407 390/390/390
f 408/408/408 390/390/390 392/392/392
f 350/350/350 392/392/392 390/390/390
f 350/350/350 390/390/390 389/389/389
f 304/304/304 305/305/305 306/306/306
f 348/348/348 345/345/345 304/304/304
f 348/348/348 304/304/304 306/306/306
f 389/389/389 344/344/344 345/345/345
f 389/389/389 345/345/345 348/348/348
f 351/351/351 348/348/348 306/306/306
f 351/351/351 306/306/306 307/307/307
f 350/350/350 389/389/389 348/348/348
f 350/350/350 348/348/348 351/351/351
f 435/435/435 436/436/436 426/426/426
f 378/378/378 426/426/426 436/436/436
f 436/436/436 379/379/379 378/378/378
f 436/436/436 435/435/435 378/378/378
f 436/436/436 437/437/437 380/380/380
f 436/436/436 380/380/380 379/379/379
f 358/358/358 410/410/410 360/360/360
f 410/410/410 411/411/411 360/360/360
f 411/411/411 412/412/412 363/363/363
f 411/411/411 363/363/363 360/360/360
f 366/366/366 413/413/413 412/412/412
f 366/366/366 412/412/412 363/363/363
f 363/363/363 412/412/412 413/413/413
f 363/363/363 413/413/413 366/366/366
f 366/366/366 413/413/413 414/414/414
f 391/391/391 393/393/393 352/352/352
f 391/391/391 352/352/352 349/349/349
f 393/393/393 395/395/395 355/355/355
f 393/393/393 355/355/355 352/352/352
f 391/391/391 392/392/392 393/393/393
f 390/390/390 392/392/392 391/391/391
f 354/354/354 392/392/392 394/394/394
f 410/410/410 395/395/395 409/409/409
f 395/395/395 410/410/410 358/358/358
f 395/395/395 358/358/358 355/355/355
f 409/409/409 395/395/395 358/358/358
f 409/409/409 358/358/358 410/410/410
f 349/349/349 352/352/352 307/307/307
f 349/349/349 307/307/307 306/306/306
f 308/308/308 307/307/307 352/352/352
f 308/308/308 352/352/352 355/355/355
f 395/395/395 392/392/392 354/354/354
f 355/355/355 309/309/309 308/308/308
f 395/395/395 354/354/354 357/357/357
f 395/395/395 357/357/357 358/358/358
f 312/312/312 309/309/309 355/355/355
f 312/312/312 355/355/355 358/358/358
f 354/354/354 394/394/394 357/357/357
f 308/308/308 309/309/309 311/311/311
f 357/357/357 311/311/311 309/309/309
f 357/357/357 309/309/309 312/312/312
f 392/392/392 408/408/408 394/394/394
f 353/353/353 394/394/394 392/392/392
f 353/353/353 392/392/392 350/350/350
f 394/394/394 396/396/396 397/397/397
f 394/394/394 353/353/353 356/356/356
f 394/394/394 356/356/356 396/396/396
f 307/307/307 308/308/308 357/357/357
f 354/354/354 351/351/351 307/307/307
f 354/354/354 307/307/307 308/308/308
f 353/353/353 350/350/350 351/351/351
f 353/353/353 351/351/351 354/354/354
f 357/357/357 308/308/308 311/311/311
f 311/311/311 308/308/308 313/313/313
f 310/310/310 354/354/354 308/308/308
f 310/310/310 308/308/308 311/311/311
f 356/356/356 353/353/353 354/354/354
f 356/356/356 354/354/354 310/310/310
f 358/358/358 360/360/360 312/312/312
f 358/358/358 357/357/357 360/360/360
f 359/359/359 360/360/360 357/357/357
f 363/363/363 360/360/360 359/359/359
f 359/359/359 357/357/357 312/312/312
f 359/359/359 312/312/312 360/360/360
f 363/363/363 366/366/366 318/318/318
f 398/398/398 399/399/399 397/397/397
f 398/398/398 397/397/397 396/396/396
f 313/313/313 357/357/357 359/359/359
f 359/359/359 397/397/397 399/399/399
f 359/359/359 399/399/399 362/362/362
f 315/315/315 313/313/313 359/359/359
f 315/315/315 359/359/359 362/362/362
f 315/315/315 311/311/311 313/313/313
f 311/311/311 315/315/315 314/314/314
f 311/311/311 314/314/314 310/310/310
f 317/317/317 362/362/362 399/399/399
f 317/317/317 399/399/399 365/365/365
f 317/317/317 315/315/315 362/362/362
f 364/364/364 365/365/365 399/399/399
f 364/364/364 399/399/399 398/398/398
f 315/315/315 317/317/317 316/316/316
f 315/315/315 316/316/316 314/314/314
f 424/424/424 371/371/371 375/375/375
f 377/377/377 425/425/425 424/424/424
f 377/377/377 424/424/424 375/375/375
f 375/375/375 424/424/424 425/425/425
f 425/425/425 377/377/377 375/375/375
f 426/426/426 425/425/425 377/377/377
f 378/378/378 435/435/435 426/426/426
f 378/378/378 426/426/426 377/377/377
f 425/425/425 426/426/426 378/378/378
f 425/425/425 378/378/378 377/377/377
f 424/424/424 423/423/423 371/371/371
f 371/371/371 424/424/424 372/372/372
f 424/424/424 375/375/375 372/372/372
f 415/415/415 414/414/414 423/423/423
f 369/369/369 423/423/423 414/414/414
f 369/369/369 414/414/414 366/366/366
f 414/414/414 415/415/415 369/369/369
f 415/415/415 423/423/423 371/371/371
f 415/415/415 371/371/371 369/369/369
f 371/371/371 423/423/423 369/369/369
f 318/318/318 366/366/366 369/369/369
f 318/318/318 369/369/369 321/321/321
f 369/369/369 371/371/371 324/324/324
f 369/369/369 324/324/324 321/321/321
f 371/371/371 372/372/372 324/324/324
f 371/371/371 369/369/369 321/321/321
f 371/371/371 321/321/321 324/324/324
f 372/372/372 375/375/375 327/327/327
f 372/372/372 327/327/327 324/324/324
f 327/327/327 375/375/375 371/371/371
f 327/327/327 371/371/371 324/324/324
f 327/327/327 375/375/375 331/331/331
f 375/375/375 377/377/377 331/331/331
f 330/330/330 377/377/377 375/375/375
f 330/330/330 375/375/375 327/327/327
f 331/331/331 377/377/377 330/330/330
f 327/327/327 331/331/331 330/330/330
f 331/331/331 377/377/377 378/378/378
f 331/331/331 378/378/378 275/275/275
f 275/275/275 378/378/378 377/377/377
f 275/275/275 377/377/377 331/331/331
f 378/378/378 275/275/275 279/279/279
f 378/378/378 279/279/279 379/379/379
f 321/321/321 369/369/369 366/366/366
f 321/321/321 366/366/366 318/318/318
f 320/320/320 317/317/317 365/365/365
f 320/320/320 365/365/365 368/368/368
f 317/317/317 320/320/320 261/261/261
f 367/367/367 368/368/368 365/365/365
f 367/367/367 365/365/365 364/364/364
f 370/370/370 323/323/323 368/368/368
f 323/323/323 320/320/320 368/368/368
f 263/263/263 261/261/261 320/320/320
f 263/263/263 320/320/320 323/323/323
f 326/326/326 323/323/323 374/374/374
f 263/263/263 323/323/323 326/326/326
f 374/374/374 323/323/323 370/370/370
f 322/322/322 370/370/370 368/368/368
f 322/322/322 368/368/368 367/367/367
f 373/373/373 374/374/374 325/325/325
f 330/330/330 326/326/326 329/329/329
f 330/330/330 327/327/327 326/326/326
f 263/263/263 326/326/326 327/327/327
f 263/263/263 327/327/327 266/266/266
f 327/327/327 330/330/330 270/270/270
f 327/327/327 270/270/270 266/266/266
f 274/274/274 330/330/330 270/270/270
f 330/330/330 329/329/329 270/270/270
f 269/269/269 329/329/329 326/326/326
f 329/329/329 374/374/374 376/376/376
f 374/374/374 373/373/373 376/376/376
f 329/329/329 376/376/376 328/328/328
f 226/226/226 275/275/275 279/279/279
f 275/275/275 221/221/221 220/220/220
f 275/275/275 220/220/220 274/274/274
f 226/226/226 221/221/221 275/275/275
f 275/275/275 274/274/274 278/278/278
f 279/279/279 275/275/275 278/278/278
f 274/274/274 220/220/220 216/216/216
f 274/274/274 216/216/216 270/270/270
f 274/274/274 220/220/220 221/221/221
f 274/274/274 221/221/221 225/225/225
f 221/221/221 226/226/226 225/225/225
f 263/263/263 266/266/266 265/265/265
f 317/317/317 261/261/261 260/260/260
f 317/317/317 260/260/260 316/316/316
f 261/261/261 263/263/263 262/262/262
f 261/261/261 262/262/262 260/260/260
f 210/210/210 263/263/263 212/212/212
f 263/263/263 265/265/265 212/212/212
f 210/210/210 265/265/265 263/263/263
f 210/210/210 212/212/212 265/265/265
f 263/263/263 210/210/210 262/262/262
f 210/210/210 212/212/212 211/211/211
f 211/211/211 262/262/262 210/210/210
f 265/265/265 266/266/266 270/270/270
f 265/265/265 270/270/270 216/216/216
f 215/215/215 216/216/216 269/269/269
f 225/225/225 278/278/278 274/274/274
f 269/269/269 270/270/270 329/329/329
f 269/269/269 326/326/326 265/265/265
f 212/212/212 215/215/215 214/214/214
f 212/212/212 214/214/214 211/211/211
f 273/273/273 219/219/219 269/269/269
f 219/219/219 273/273/273 224/224/224
f 176/176/176 219/219/219 224/224/224
f 273/273/273 269/269/269 268/268/268
f 215/215/215 219/219/219 214/214/214
f 341/341/341 302/302/302 299/299/299
f 158/158/158 302/302/302 341/341/341
f 158/158/158 341/341/341 156/156/156
f 341/341/341 155/155/155 156/156/156
f 383/383/383 384/384/384 154/154/154
f 171/171/171 403/403/403 383/383/383
f 140/140/140 196/196/196 172/172/172
f 139/139/139 252/252/252 196/196/196
f 139/139/139 196/196/196 140/140/140
f 196/196/196 252/252/252 143/143/143
f 196/196/196 143/143/143 140/140/140
f 139/139/139 251/251/251 252/252/252
f 252/252/252 251/251/251 143/143/143
f 138/138/138 302/302/302 251/251/251
f 138/138/138 251/251/251 139/139/139
f 156/156/156 299/299/299 302/302/302
f 156/156/156 302/302/302 138/138/138
f 302/302/302 158/158/158 142/142/142
f 172/172/172 157/157/157 123/123/123
f 172/172/172 123/123/123 140/140/140
f 157/157/157 141/141/141 140/140/140
f 140/140/140 141/141/141 124/124/124
f 140/140/140 124/124/124 123/123/123
f 106/106/106 123/123/123 140/140/140
f 140/140/140 91/91/91 106/106/106
f 90/90/90 140/140/140 91/91/91
f 140/140/140 94/94/94 91/91/91
f 94/94/94 139/139/139 140/140/140
f 94/94/94 140/140/140 90/90/90
f 140/140/140 143/143/143 94/94/94
f 76/76/76 139/139/139 94/94/94
f 143/143/143 76/76/76 94/94/94
f 75/75/75 138/138/138 139/139/139
f 75/75/75 139/139/139 76/76/76
f 143/143/143 142/142/142 75/75/75
f 143/143/143 75/75/75 76/76/76
f 156/156/156 341/341/341 299/299/299
f 155/155/155 156/156/156 63/63/63
f 62/62/62 155/155/155 63/63/63
f 75/75/75 156/156/156 138/138/138
f 142/142/142 158/158/158 75/75/75
f 63/63/63 156/156/156 75/75/75
f 158/158/158 156/156/156 63/63/63
f 158/158/158 63/63/63 75/75/75
f 428/428/428 427/427/427 442/442/442
f 428/428/428 429/429/429 193/193/193
f 190/190/190 427/427/427 428/428/428
f 190/190/190 428/428/428 442/442/442
f 442/442/442 246/246/246 190/190/190
f 246/246/246 442/442/442 427/427/427
f 246/246/246 427/427/427 190/190/190
f 442/442/442 441/441/441 243/243/243
f 442/442/442 243/243/243 246/246/246
f 401/401/401 171/171/171 170/170/170
f 169/169/169 416/416/416 401/401/401
f 169/169/169 401/401/401 170/170/170
f 401/401/401 416/416/416 170/170/170
f 416/416/416 169/169/169 170/170/170
f 168/168/168 416/416/416 169/169/169
f 193/193/193 429/429/429 416/416/416
f 193/193/193 416/416/416 168/168/168
f 169/169/169 416/416/416 429/429/429
f 169/169/169 429/429/429 168/168/168
f 61/61/61 154/154/154 155/155/155
f 61/61/61 155/155/155 62/62/62
f 155/155/155 154/154/154 62/62/62
f 60/60/60 154/154/154 61/61/61
f 154/154/154 60/60/60 62/62/62
f 60/60/60 171/171/171 154/154/154
f 59/59/59 170/170/170 171/171/171
f 59/59/59 171/171/171 60/60/60
f 59/59/59 169/169/169 170/170/170
f 58/58/58 168/168/168 169/169/169
f 58/58/58 169/169/169 59/59/59
f 169/169/169 168/168/168 59/59/59
f 192/192/192 193/193/193 190/190/190
f 193/193/193 57/57/57 71/71/71
f 70/70/70 190/190/190 193/193/193
f 70/70/70 193/193/193 71/71/71
f 193/193/193 168/168/168 166/166/166
f 193/193/193 166/166/166 190/190/190
f 193/193/193 168/168/168 58/58/58
f 193/193/193 58/58/58 57/57/57
f 168/168/168 167/167/167 166/166/166
f 168/168/168 193/193/193 57/57/57
f 168/168/168 57/57/57 59/59/59
f 167/167/167 168/168/168 193/193/193
f 167/167/167 193/193/193 192/192/192
f 440/440/440 439/439/439 449/449/449
f 440/440/440 449/449/449 450/450/450
f 292/292/292 450/450/450 449/449/449
f 292/292/292 449/449/449 289/289/289
f 449/449/449 439/439/439 338/338/338
f 449/449/449 338/338/338 289/289/289
f 439/439/439 440/440/440 292/292/292
f 439/439/439 292/292/292 289/289/289
f 338/338/338 439/439/439 289/289/289
f 243/243/243 441/441/441 294/294/294
f 441/441/441 440/440/440 292/292/292
f 441/441/441 292/292/292 294/294/294
f 441/441/441 243/243/243 242/242/242
f 292/292/292 441/441/441 242/242/242
f 440/440/440 450/450/450 292/292/292
f 438/438/438 437/437/437 336/336/336
f 438/438/438 336/336/336 337/337/337
f 337/337/337 438/438/438 439/439/439
f 337/337/337 439/439/439 338/338/338
f 336/336/336 437/437/437 380/380/380
f 337/337/337 338/338/338 165/165/165
f 337/337/337 165/165/165 179/179/179
f 119/119/119 243/243/243 102/102/102
f 243/243/243 246/246/246 105/105/105
f 243/243/243 105/105/105 102/102/102
f 119/119/119 242/242/242 243/243/243
f 166/166/166 187/187/187 190/190/190
f 187/187/187 166/166/166 189/189/189
f 243/243/243 187/187/187 184/184/184
f 189/189/189 187/187/187 243/243/243
f 186/186/186 187/187/187 243/243/243
f 237/237/237 233/233/233 236/236/236
f 233/233/233 230/230/230 286/286/286
f 233/233/233 237/237/237 182/182/182
f 233/233/233 182/182/182 180/180/180
f 233/233/233 180/180/180 181/181/181
f 240/240/240 237/237/237 236/236/236
f 131/131/131 292/292/292 242/242/242
f 131/131/131 242/242/242 119/119/119
f 243/243/243 294/294/294 131/131/131
f 243/243/243 131/131/131 119/119/119
f 294/294/294 292/292/292 131/131/131
f 240/240/240 243/243/243 184/184/184
f 186/186/186 243/243/243 240/240/240
f 183/183/183 182/182/182 237/237/237
f 183/183/183 237/237/237 240/240/240
f 184/184/184 183/183/183 240/240/240
f 184/184/184 187/187/187 183/183/183
f 183/183/183 186/186/186 240/240/240
f 183/183/183 187/187/187 186/186/186
f 165/165/165 289/289/289 292/292/292
f 165/165/165 292/292/292 150/150/150
f 165/165/165 338/338/338 289/289/289
f 289/289/289 338/338/338 164/164/164
f 289/289/289 164/164/164 165/165/165
f 183/183/183 240/240/240 236/236/236
f 183/183/183 236/236/236 181/181/181
f 338/338/338 337/337/337 179/179/179
f 338/338/338 179/179/179 164/164/164
f 181/181/181 180/180/180 182/182/182
f 182/182/182 183/183/183 181/181/181
f 182/182/182 181/181/181 236/236/236
f 233/233/233 181/181/181 236/236/236
f 119/119/119 102/102/102 105/105/105
f 246/246/246 243/243/243 119/119/119
f 246/246/246 119/119/119 105/105/105
f 190/190/190 167/167/167 192/192/192
f 68/68/68 190/190/190 70/70/70
f 167/167/167 190/190/190 166/166/166
f 87/87/87 246/246/246 190/190/190
f 87/87/87 190/190/190 68/68/68
f 190/190/190 187/187/187 189/189/189
f 189/189/189 166/166/166 190/190/190
f 105/105/105 87/87/87 86/86/86
f 379/379/379 380/380/380 226/226/226
f 379/379/379 226/226/226 279/279/279
f 380/380/380 336/336/336 229/229/229
f 380/380/380 229/229/229 226/226/226
f 380/380/380 379/379/379 279/279/279
f 380/380/380 279/279/279 229/229/229
f 229/229/229 336/336/336 337/337/337
f 229/229/229 337/337/337 179/179/179
f 283/283/283 230/230/230 226/226/226
f 283/283/283 226/226/226 279/279/279
f 286/286/286 230/230/230 283/283/283
f 282/282/282 283/283/283 279/279/279
f 226/226/226 230/230/230 229/229/229
f 230/230/230 233/233/233 229/229/229
f 279/279/279 226/226/226 229/229/229
f 282/282/282 286/286/286 283/283/283
f 282/282/282 233/233/233 286/286/286
f 233/233/233 282/282/282 229/229/229
f 179/179/179 165/165/165 164/164/164
f 229/229/229 282/282/282 279/279/279
f 279/279/279 278/278/278 225/225/225
f 279/279/279 225/225/225 226/226/226
f 117/117/117 118/118/118 101/101/101
f 100/100/100 117/117/117 101/101/101
f 177/177/177 176/176/176 224/224/224
f 177/177/177 178/178/178 162/162/162
f 162/162/162 178/178/178 163/163/163
f 162/162/162 163/163/163 147/147/147
f 178/178/178 162/162/162 147/147/147
f 178/178/178 147/147/147 163/163/163
f 129/129/129 130/130/130 99/99/99
f 129/129/129 99/99/99 112/112/112
f 130/130/130 133/133/133 113/113/113
f 99/99/99 133/133/133 130/130/130
f 99/99/99 130/130/130 115/115/115
f 133/133/133 116/116/116 113/113/113
f 99/99/99 130/130/130 113/113/113
f 99/99/99 113/113/113 84/84/84
f 115/115/115 129/129/129 112/112/112
f 149/149/149 129/129/129 115/115/115
f 149/149/149 115/115/115 128/128/128
f 148/148/148 149/149/149 128/128/128
f 115/115/115 149/149/149 148/148/148
f 99/99/99 115/115/115 112/112/112
f 132/132/132 99/99/99 115/115/115
f 91/91/91 94/94/94 90/90/90
f 60/60/60 61/61/61 62/62/62
f 57/57/57 58/58/58 59/59/59
f 54/54/54 67/67/67 56/56/56
f 47/47/47 67/67/67 54/54/54
f 47/47/47 54/54/54 56/56/56
f 56/56/56 67/67/67 33/33/33
f 56/56/56 33/33/33 37/37/37
f 53/53/53 67/67/67 47/47/47
f 53/53/53 47/47/47 41/41/41
f 35/35/35 47/47/47 42/42/42
f 32/32/32 38/38/38 35/35/35
f 27/27/27 21/21/21 23/23/23
f 66/66/66 53/53/53 41/41/41
f 66/66/66 41/41/41 36/36/36
f 84/84/84 53/53/53 66/66/66
f 69/69/69 84/84/84 66/66/66
f 10/10/10 12/12/12 9/9/9
f 12/12/12 17/17/17 13/13/13
f 12/12/12 13/13/13 9/9/9
f 17/17/17 9/9/9 13/13/13
f 17/17/17 12/12/12 9/9/9
f 9/9/9 6/6/6 4/4/4
f 4/4/4 6/6/6 2/2/2
f 13/13/13 24/24/24 5/5/5
f 24/24/24 34/34/34 30/30/30
f 24/24/24 30/30/30 26/26/26
f 11/11/11 8/8/8 16/16/16
f 396/396/396 356/356/356 361/361/361
f 396/396/396 361/361/361 398/398/398
f 356/356/356 310/310/310 314/314/314
f 356/356/356 314/314/314 361/361/361
f 398/398/398 361/361/361 364/364/364
f 361/361/361 314/314/314 316/316/316
f 361/361/361 316/316/316 364/364/364
f 364/364/364 319/319/319 367/367/367
f 364/364/364 316/316/316 260/260/260
f 364/364/364 260/260/260 319/319/319
f 367/367/367 319/319/319 322/322/322
f 319/319/319 260/260/260 262/262/262
f 319/319/319 262/262/262 322/322/322
f 322/322/322 262/262/262 264/264/264
f 322/322/322 264/264/264 325/325/325
f 373/373/373 325/325/325 376/376/376
f 376/376/376 325/325/325 328/328/328
f 328/328/328 332/332/332 272/272/272
f 334/334/334 332/332/332 333/333/333
f 262/262/262 211/211/211 264/264/264
f 268/268/268 264/264/264 325/325/325
f 325/325/325 328/328/328 268/268/268
f 264/264/264 211/211/211 214/214/214
f 264/264/264 214/214/214 268/268/268
f 272/272/272 328/328/328 271/271/271
f 328/328/328 268/268/268 267/267/267
f 328/328/328 267/267/267 271/271/271
f 214/214/214 218/218/218 213/213/213
f 214/214/214 268/268/268 272/272/272
f 218/218/218 214/214/214 272/272/272
f 272/272/272 332/332/332 334/334/334
f 272/272/272 334/334/334 277/277/277
f 272/272/272 277/277/277 276/276/276
f 268/268/268 213/213/213 267/267/267
f 268/268/268 214/214/214 213/213/213
f 267/267/267 213/213/213 217/217/217
f 267/267/267 217/217/217 271/271/271
f 332/332/332 272/272/272 276/276/276
f 332/332/332 276/276/276 333/333/333
f 272/272/272 271/271/271 174/174/174
f 272/272/272 174/174/174 218/218/218
f 174/174/174 271/271/271 276/276/276
f 174/174/174 217/217/217 213/213/213
f 271/271/271 217/217/217 223/223/223
f 271/271/271 223/223/223 276/276/276
f 217/217/217 174/174/174 175/175/175
f 217/217/217 175/175/175 223/223/223
f 213/213/213 218/218/218 174/174/174
f 174/174/174 276/276/276 175/175/175
f 339/339/339 340/340/340 381/381/381
f 241/241/241 238/238/238 339/339/339
f 241/241/241 339/339/339 381/381/381
f 241/241/241 340/340/340 339/339/339
f 277/277/277 334/334/334 276/276/276
f 276/276/276 334/334/334 333/333/333
f 276/276/276 333/333/333 335/335/335
f 276/276/276 335/335/335 281/281/281
f 333/333/333 276/276/276 281/281/281
f 333/333/333 281/281/281 335/335/335
f 160/160/160 175/175/175 276/276/276
f 160/160/160 276/276/276 281/281/281
f 285/285/285 281/281/281 335/335/335
f 281/281/281 285/285/285 228/228/228
f 281/281/281 284/284/284 285/285/285
f 232/232/232 228/228/228 285/285/285
f 231/231/231 228/228/228 232/232/232
f 132/132/132 148/148/148 128/128/128
f 276/276/276 223/223/223 222/222/222
f 281/281/281 276/276/276 280/280/280
f 160/160/160 222/222/222 223/223/223
f 160/160/160 223/223/223 175/175/175
f 281/281/281 280/280/280 161/161/161
f 281/281/281 161/161/161 160/160/160
f 276/276/276 222/222/222 227/227/227
f 276/276/276 227/227/227 280/280/280
f 161/161/161 227/227/227 222/222/222
f 161/161/161 222/222/222 160/160/160
f 281/281/281 231/231/231 284/284/284
f 231/231/231 281/281/281 228/228/228
f 280/280/280 231/231/231 161/161/161
f 231/231/231 232/232/232 285/285/285
f 231/231/231 285/285/285 284/284/284
f 231/231/231 284/284/284 288/288/288
f 231/231/231 288/288/288 235/235/235
f 284/284/284 280/280/280 227/227/227
f 284/284/284 227/227/227 231/231/231
f 146/146/146 231/231/231 227/227/227
f 146/146/146 227/227/227 161/161/161
f 284/284/284 231/231/231 235/235/235
f 284/284/284 235/235/235 288/288/288
f 145/145/145 235/235/235 231/231/231
f 145/145/145 231/231/231 146/146/146
f 239/239/239 235/235/235 288/288/288
f 239/239/239 288/288/288 291/291/291
f 231/231/231 235/235/235 146/146/146
f 234/234/234 235/235/235 239/239/239
f 288/288/288 287/287/287 291/291/291
f 234/234/234 288/288/288 287/287/287
f 287/287/287 339/339/339 238/238/238
f 287/287/287 238/238/238 234/234/234
f 291/291/291 287/287/287 290/290/290
f 235/235/235 234/234/234 127/127/127
f 235/235/235 127/127/127 146/146/146
f 127/127/127 235/235/235 145/145/145
f 234/234/234 239/239/239 238/238/238
f 234/234/234 238/238/238 127/127/127
f 111/111/111 238/238/238 127/127/127
f 291/291/291 290/290/290 293/293/293
f 241/241/241 239/239/239 291/291/291
f 241/241/241 291/291/291 293/293/293
f 241/241/241 238/238/238 239/239/239
f 245/245/245 241/241/241 293/293/293
f 245/245/245 293/293/293 296/296/296
f 111/111/111 238/238/238 241/241/241
f 145/145/145 146/146/146 127/127/127
f 153/153/153 69/69/69 120/120/120
f 153/153/153 120/120/120 135/135/135
f 137/137/137 122/122/122 121/121/121
f 137/137/137 121/121/121 136/136/136
f 122/122/122 121/121/121 125/125/125
f 382/382/382 381/381/381 340/340/340
f 185/185/185 381/381/381 340/340/340
f 185/185/185 340/340/340 241/241/241
f 381/381/381 382/382/382 245/245/245
f 381/381/381 245/245/245 241/241/241
f 191/191/191 400/400/400 402/402/402
f 191/191/191 402/402/402 248/248/248
f 382/382/382 244/244/244 245/245/245
f 382/382/382 400/400/400 191/191/191
f 382/382/382 191/191/191 244/244/244
f 188/188/188 382/382/382 381/381/381
f 188/188/188 381/381/381 185/185/185
f 188/188/188 400/400/400 382/382/382
f 248/248/248 402/402/402 400/400/400
f 248/248/248 400/400/400 188/188/188
f 417/417/417 419/419/419 250/250/250
f 417/417/417 250/250/250 248/248/248
f 248/248/248 419/419/419 417/417/417
f 419/419/419 418/418/418 430/430/430
f 419/419/419 430/430/430 249/249/249
f 419/419/419 249/249/249 250/250/250
f 249/249/249 418/418/418 419/419/419
f 249/249/249 419/419/419 248/248/248
f 430/430/430 254/254/254 249/249/249
f 249/249/249 430/430/430 418/418/418
f 432/432/432 431/431/431 443/443/443
f 254/254/254 430/430/430 432/432/432
f 432/432/432 443/443/443 200/200/200
f 432/432/432 200/200/200 254/254/254
f 432/432/432 430/430/430 249/249/249
f 432/432/432 249/249/249 254/254/254
f 197/197/197 431/431/431 432/432/432
f 197/197/197 432/432/432 254/254/254
f 200/200/200 443/443/443 431/431/431
f 200/200/200 431/431/431 197/197/197
f 199/199/199 445/445/445 443/443/443
f 199/199/199 443/443/443 200/200/200
f 200/200/200 445/445/445 444/444/444
f 293/293/293 241/241/241 296/296/296
f 241/241/241 114/114/114 98/98/98
f 241/241/241 98/98/98 185/185/185
f 98/98/98 241/241/241 245/245/245
f 114/114/114 111/111/111 98/98/98
f 244/244/244 295/295/295 296/296/296
f 244/244/244 296/296/296 241/241/241
f 296/296/296 295/295/295 298/298/298
f 248/248/248 245/245/245 296/296/296
f 248/248/248 296/296/296 298/298/298
f 245/245/245 248/248/248 244/244/244
f 295/295/295 244/244/244 298/298/298
f 244/244/244 241/241/241 245/245/245
f 245/245/245 244/244/244 103/103/103
f 245/245/245 103/103/103 98/98/98
f 103/103/103 188/188/188 185/185/185
f 103/103/103 185/185/185 98/98/98
f 83/83/83 188/188/188 103/103/103
f 244/244/244 191/191/191 83/83/83
f 244/244/244 83/83/83 103/103/103
f 191/191/191 244/244/244 248/248/248
f 191/191/191 248/248/248 88/88/88
f 191/191/191 88/88/88 83/83/83
f 88/88/88 248/248/248 188/188/188
f 88/88/88 188/188/188 83/83/83
f 298/298/298 244/244/244 248/248/248
f 248/248/248 298/298/298 301/301/301
f 248/248/248 301/301/301 250/250/250
f 248/248/248 250/250/250 195/195/195
f 298/298/298 297/297/297 301/301/301
f 298/298/298 248/248/248 247/247/247
f 298/298/298 247/247/247 297/297/297
f 191/191/191 247/247/247 248/248/248
f 250/250/250 301/301/301 300/300/300
f 250/250/250 300/300/300 249/249/249
f 250/250/250 249/249/249 194/194/194
f 250/250/250 194/194/194 195/195/195
f 300/300/300 301/301/301 297/297/297
f 300/300/300 297/297/297 249/249/249
f 297/297/297 247/247/247 249/249/249
f 247/247/247 191/191/191 194/194/194
f 247/247/247 194/194/194 249/249/249
f 300/300/300 249/249/249 254/254/254
f 198/198/198 194/194/194 249/249/249
f 198/198/198 249/249/249 254/254/254
f 191/191/191 248/248/248 195/195/195
f 248/248/248 250/250/250 88/88/88
f 89/89/89 249/249/249 248/248/248
f 89/89/89 248/248/248 88/88/88
f 191/191/191 195/195/195 194/194/194
f 250/250/250 249/249/249 72/72/72
f 250/250/250 72/72/72 88/88/88
f 249/249/249 254/254/254 72/72/72
f 72/72/72 249/249/249 89/89/89
f 249/249/249 198/198/198 253/253/253
f 249/249/249 253/253/253 254/254/254
f 256/256/256 254/254/254 253/253/253
f 254/254/254 74/74/74 72/72/72
f 74/74/74 254/254/254 249/249/249
f 74/74/74 249/249/249 72/72/72
f 253/253/253 198/198/198 197/197/197
f 73/73/73 197/197/197 254/254/254
f 73/73/73 254/254/254 74/74/74
f 198/198/198 200/200/200 197/197/197
f 200/200/200 198/198/198 254/254/254
f 200/200/200 254/254/254 256/256/256
f 254/254/254 200/200/200 73/73/73
f 200/200/200 256/256/256 253/253/253
f 256/256/256 200/200/200 199/199/199
f 256/256/256 199/199/199 255/255/255
f 200/200/200 253/253/253 197/197/197
f 200/200/200 78/78/78 73/73/73
f 73/73/73 200/200/200 197/197/197
f 78/78/78 199/199/199 200/200/200
f 256/256/256 255/255/255 258/258/258
f 202/202/202 200/200/200 256/256/256
f 202/202/202 256/256/256 258/258/258
f 200/200/200 444/444/444 202/202/202
f 200/200/200 202/202/202 77/77/77
f 200/200/200 77/77/77 78/78/78
f 202/202/202 199/199/199 200/200/200
f 202/202/202 444/444/444 199/199/199
f 202/202/202 444/444/444 447/447/447
f 447/447/447 201/201/201 202/202/202
f 204/204/204 447/447/447 201/201/201
f 447/447/447 446/446/446 448/448/448
f 447/447/447 448/448/448 203/203/203
f 447/447/447 203/203/203 204/204/204
f 203/203/203 446/446/446 447/447/447
f 77/77/77 202/202/202 199/199/199
f 77/77/77 199/199/199 78/78/78
f 80/80/80 202/202/202 81/81/81
f 255/255/255 199/199/199 202/202/202
f 255/255/255 202/202/202 258/258/258
f 258/258/258 201/201/201 257/257/257
f 258/258/258 202/202/202 201/201/201
f 202/202/202 258/258/258 257/257/257
f 80/80/80 201/201/201 202/202/202
f 202/202/202 257/257/257 201/201/201
f 448/448/448 446/446/446 434/434/434
f 448/448/448 434/434/434 203/203/203
f 203/203/203 434/434/434 446/446/446
f 434/434/434 433/433/433 203/203/203
f 433/433/433 208/208/208 203/203/203
f 422/422/422 433/433/433 420/420/420
f 433/433/433 208/208/208 420/420/420
f 208/208/208 433/433/433 422/422/422
f 80/80/80 204/204/204 201/201/201
f 82/82/82 203/203/203 204/204/204
f 82/82/82 204/204/204 80/80/80
f 203/203/203 97/97/97 82/82/82
f 96/96/96 203/203/203 97/97/97
f 96/96/96 208/208/208 203/203/203
f 108/108/108 208/208/208 96/96/96
f 421/421/421 422/422/422 420/420/420
f 207/207/207 421/421/421 420/420/420
f 207/207/207 420/420/420 208/208/208
f 422/422/422 421/421/421 207/207/207
f 422/422/422 207/207/207 208/208/208
f 421/421/421 405/405/405 207/207/207
f 405/405/405 404/404/404 207/207/207
f 404/404/404 385/385/385 206/206/206
f 404/404/404 206/206/206 207/207/207
f 206/206/206 343/343/343 385/385/385
f 385/385/385 343/343/343 342/342/342
f 385/385/385 342/342/342 209/209/209
f 385/385/385 209/209/209 206/206/206
f 205/205/205 342/342/342 343/343/343
f 205/205/205 343/343/343 206/206/206
f 342/342/342 205/205/205 303/303/303
f 205/205/205 209/209/209 342/342/342
f 110/110/110 207/207/207 208/208/208
f 110/110/110 208/208/208 108/108/108
f 208/208/208 110/110/110 96/96/96
f 207/207/207 109/109/109 126/126/126
f 207/207/207 126/126/126 206/206/206
f 110/110/110 108/108/108 96/96/96
f 144/144/144 205/205/205 206/206/206
f 144/144/144 206/206/206 126/126/126
f 206/206/206 209/209/209 144/144/144
f 209/209/209 205/205/205 144/144/144
f 159/159/159 205/205/205 144/144/144
f 173/173/173 205/205/205 159/159/159
f 40/40/40 39/39/39 34/34/34
f 43/43/43 50/50/50 46/46/46
f 51/51/51 50/50/50 46/46/46
f 46/46/46 50/50/50 52/52/52
f 93/93/93 92/92/92 65/65/65
f 92/92/92 95/95/95 64/64/64
f 92/92/92 64/64/64 65/65/65
f 79/79/79 64/64/64 95/95/95
f 65/65/65 64/64/64 50/50/50
f 49/49/49 64/64/64 65/65/65
f 49/49/49 65/65/65 50/50/50
f 64/64/64 49/49/49 50/50/50
f 52/52/52 50/50/50 51/51/51
f 46/46/46 52/52/52 51/51/51
f 51/51/51 45/45/45 46/46/46
f 89/89/89 88/88/88 72/72/72
f 34/34/34 29/29/29 30/30/30
f 29/29/29 25/25/25 26/26/26
f 29/29/29 26/26/26 30/30/30
f 18/18/18 15/15/15 16/16/16
f 18/18/18 26/26/26 25/25/25
f 15/15/15 18/18/18 20/20/20
f 15/15/15 20/20/20 16/16/16
f 15/15/15 16/16/16 19/19/19
f 15/15/15 19/19/19 26/26/26
f 26/26/26 16/16/16 20/20/20
f 19/19/19 16/16/16 26/26/26
f 16/16/16 19/19/19 20/20/20
