# 由 henjicc/yipiantian 的 lingcao_chiyan_sprout 转换而来（见 manifest.json）
mtllib lingcao_chiyan_sprout.mtl
o lingcao_chiyan_sprout
v -0.00548 0.00085 0.00264
v -0.00548 0.00085 0.00264
v -0.00548 0.00085 0.00264
v 0.00486 0.00144 0.00733
v 0.00486 0.00144 0.00733
v 0.00486 0.00144 0.00733
v 0.00486 0.00144 0.00733
v -0.00345 0.00236 -0.00651
v -0.00345 0.00236 -0.00651
v -0.00345 0.00236 -0.00651
v -0.00345 0.00236 -0.00651
v -0.00345 0.00236 -0.00651
v 0.00737 0.00217 -0.00349
v 0.00737 0.00217 -0.00349
v 0.00737 0.00217 -0.00349
v -0.00628 0.00635 0.00932
v -0.00628 0.00635 0.00932
v -0.00628 0.00635 0.00932
v -0.00628 0.00635 0.00932
v -0.00118 0.00989 0.01264
v -0.00118 0.00989 0.01264
v -0.00118 0.00989 0.01264
v 0.00995 0.00933 0.00316
v 0.00995 0.00933 0.00316
v 0.00995 0.00933 0.00316
v 0.00500 0.01049 0.01120
v 0.00500 0.01049 0.01120
v 0.00500 0.01049 0.01120
v 0.00816 0.00789 -0.00610
v 0.00816 0.00789 -0.00610
v 0.00816 0.00789 -0.00610
v 0.00239 0.01099 -0.00998
v 0.00239 0.01099 -0.00998
v -0.00857 0.01078 -0.00049
v -0.00857 0.01078 -0.00049
v -0.00463 0.00981 -0.00859
v -0.00463 0.00981 -0.00859
v 0.00429 0.01671 -0.00912
v 0.00429 0.01671 -0.00912
v 0.00429 0.01671 -0.00912
v 0.00429 0.01671 -0.00912
v 0.00787 0.01591 -0.00574
v 0.00787 0.01591 -0.00574
v 0.00523 0.01697 0.00967
v 0.00523 0.01697 0.00967
v 0.00523 0.01697 0.00967
v -0.00165 0.01813 0.01171
v -0.00165 0.01813 0.01171
v -0.00165 0.01813 0.01171
v -0.00165 0.01813 0.01171
v 0.00797 0.01540 0.00314
v 0.00797 0.01540 0.00314
v 0.00797 0.01540 0.00314
v 0.00797 0.01540 0.00314
v -0.00424 0.01628 -0.00607
v -0.00424 0.01628 -0.00607
v -0.00424 0.01628 -0.00607
v -0.00593 0.01844 0.00493
v -0.00593 0.01844 0.00493
v -0.00593 0.01844 0.00493
v -0.00593 0.01844 0.00493
v -0.00593 0.01844 0.00493
v -0.00495 0.01684 -0.00127
v -0.00495 0.01684 -0.00127
v -0.00495 0.01684 -0.00127
v -0.00495 0.01684 -0.00127
v -0.00495 0.01684 -0.00127
v 0.00429 0.01773 0.00147
v 0.00429 0.01773 0.00147
v 0.00429 0.01773 0.00147
v 0.00429 0.01773 0.00147
v 0.00429 0.01773 0.00147
v -0.00186 0.01587 0.00055
v -0.00186 0.01587 0.00055
v -0.00186 0.01587 0.00055
v -0.00322 0.02526 -0.01052
v -0.00322 0.02526 -0.01052
v -0.00322 0.02526 -0.01052
v -0.00322 0.02526 -0.01052
v -0.00259 0.02986 -0.00571
v -0.00259 0.02986 -0.00571
v -0.00259 0.02986 -0.00571
v 0.00287 0.03541 -0.01025
v 0.00287 0.03541 -0.01025
v 0.00287 0.03541 -0.01025
v 0.00287 0.03541 -0.01025
v 0.00287 0.03541 -0.01025
v 0.00148 0.03090 -0.01679
v 0.00148 0.03090 -0.01679
v 0.00148 0.03090 -0.01679
v -0.00044 0.03367 0.01835
v -0.00044 0.03367 0.01835
v -0.00044 0.03367 0.01835
v -0.00044 0.03367 0.01835
v -0.00826 0.03133 0.01216
v -0.00826 0.03133 0.01216
v -0.00826 0.03133 0.01216
v -0.00826 0.03133 0.01216
v -0.00826 0.03133 0.01216
v -0.00789 0.03512 -0.01133
v -0.00789 0.03512 -0.01133
v -0.00789 0.03512 -0.01133
v -0.00789 0.03512 -0.01133
v -0.00813 0.03924 0.01102
v -0.00813 0.03924 0.01102
v -0.00813 0.03924 0.01102
v -0.00813 0.03924 0.01102
v -0.00813 0.03924 0.01102
v -0.01120 0.04601 0.01980
v -0.01120 0.04601 0.01980
v -0.01120 0.04601 0.01980
v -0.00713 0.03979 -0.00927
v -0.00713 0.03979 -0.00927
v -0.00713 0.03979 -0.00927
v -0.00713 0.03979 -0.00927
v -0.00713 0.03979 -0.00927
v -0.00008 0.03862 0.01196
v -0.00008 0.03862 0.01196
v -0.00008 0.03862 0.01196
v -0.00008 0.03862 0.01196
v 0.00016 0.03847 -0.02570
v 0.00016 0.03847 -0.02570
v 0.00016 0.03847 -0.02570
v 0.00016 0.03847 -0.02570
v -0.00146 0.04438 0.02730
v -0.00146 0.04438 0.02730
v -0.00413 0.04661 0.02973
v -0.00413 0.04661 0.02973
v -0.00413 0.04661 0.02973
v -0.00231 0.04589 -0.01707
v -0.00231 0.04589 -0.01707
v -0.00487 0.03952 -0.01165
v -0.00487 0.03952 -0.01165
v -0.00487 0.03952 -0.01165
v 0.00359 0.04200 -0.01442
v 0.00359 0.04200 -0.01442
v 0.00359 0.04200 -0.01442
v -0.00228 0.05259 0.02314
v -0.00228 0.05259 0.02314
v -0.00228 0.05259 0.02314
v 0.00135 0.04821 0.01557
v 0.00135 0.04821 0.01557
v 0.00135 0.04821 0.01557
v 0.00135 0.04821 0.01557
v 0.00135 0.04821 0.01557
v 0.00045 0.04809 -0.02566
v 0.00045 0.04809 -0.02566
v 0.00045 0.04809 -0.02566
v -0.00007 0.04711 -0.04643
v -0.00007 0.04711 -0.04643
v 0.00897 0.04898 -0.01973
v 0.00897 0.04898 -0.01973
v 0.00897 0.04898 -0.01973
v 0.00897 0.04898 -0.01973
v -0.01077 0.05488 -0.01667
v -0.01077 0.05488 -0.01667
v -0.01498 0.05726 -0.00781
v -0.01498 0.05726 -0.00781
v -0.01498 0.05726 -0.00781
v -0.01498 0.05726 -0.00781
v -0.01503 0.05520 -0.00995
v -0.01503 0.05520 -0.00995
v -0.00350 0.04661 -0.04756
v -0.00350 0.04661 -0.04756
v 0.01650 0.04250 -0.04478
v 0.01650 0.04250 -0.04478
v 0.01650 0.04250 -0.04478
v 0.01650 0.04250 -0.04478
v 0.01650 0.04250 -0.04478
v 0.01268 0.04321 -0.05950
v 0.01268 0.04321 -0.05950
v 0.01268 0.04321 -0.05950
v 0.01268 0.04321 -0.05950
v 0.01655 0.04325 -0.05181
v 0.01655 0.04325 -0.05181
v 0.01655 0.04325 -0.05181
v -0.00961 0.05399 -0.00907
v -0.00961 0.05399 -0.00907
v 0.01974 0.04721 -0.03799
v 0.01974 0.04721 -0.03799
v 0.01974 0.04721 -0.03799
v 0.01084 0.04984 -0.04646
v -0.01243 0.05212 0.01230
v -0.01243 0.05212 0.01230
v -0.01243 0.05212 0.01230
v -0.01243 0.05212 0.01230
v 0.00620 0.05642 -0.06877
v 0.00620 0.05642 -0.06877
v 0.00620 0.05642 -0.06877
v 0.00620 0.05642 -0.06877
v 0.00620 0.05642 -0.06877
v 0.01222 0.04819 -0.06468
v 0.01222 0.04819 -0.06468
v 0.01222 0.04819 -0.06468
v -0.00832 0.04785 0.01538
v -0.00832 0.04785 0.01538
v -0.00832 0.04785 0.01538
v -0.00832 0.04785 0.01538
v -0.00279 0.04775 -0.05241
v -0.00279 0.04775 -0.05241
v -0.00279 0.04775 -0.05241
v -0.00279 0.04775 -0.05241
v -0.00075 0.05589 -0.03897
v -0.00075 0.05589 -0.03897
v -0.00075 0.05589 -0.03897
v -0.00075 0.05589 -0.03897
v -0.00075 0.05589 -0.03897
v 0.00927 0.05600 -0.05652
v 0.00927 0.05600 -0.05652
v 0.01462 0.05104 -0.02651
v 0.01462 0.05104 -0.02651
v 0.01462 0.05104 -0.02651
v 0.01462 0.05104 -0.02651
v 0.01462 0.05104 -0.02651
v 0.01284 0.04963 -0.02900
v 0.01284 0.04963 -0.02900
v 0.01284 0.04963 -0.02900
v 0.01284 0.04963 -0.02900
v 0.00695 0.05345 -0.04049
v 0.00695 0.05345 -0.04049
v 0.00695 0.05345 -0.04049
v 0.00695 0.05345 -0.04049
v -0.01043 0.05712 -0.05898
v -0.01043 0.05712 -0.05898
v -0.01043 0.05712 -0.05898
v -0.01043 0.05712 -0.05898
v -0.01043 0.05712 -0.05898
v 0.01212 0.06116 -0.05672
v 0.01212 0.06116 -0.05672
v 0.01250 0.05388 -0.03925
v 0.01250 0.05388 -0.03925
v 0.01250 0.05388 -0.03925
v -0.00573 0.06202 -0.05260
v -0.00573 0.06202 -0.05260
v -0.00974 0.06525 -0.06075
v -0.00974 0.06525 -0.06075
v -0.00974 0.06525 -0.06075
v -0.00974 0.06525 -0.06075
v -0.00974 0.06525 -0.06075
v -0.00671 0.06208 -0.03122
v -0.00671 0.06208 -0.03122
v -0.00671 0.06208 -0.03122
v -0.01416 0.06947 -0.03133
v -0.01416 0.06947 -0.03133
v 0.00785 0.05581 0.01988
v 0.00785 0.05581 0.01988
v -0.00248 0.06337 -0.03276
v -0.00248 0.06337 -0.03276
v -0.00248 0.06337 -0.03276
v 0.00644 0.06132 -0.06868
v 0.00644 0.06132 -0.06868
v 0.00644 0.06132 -0.06868
v 0.00644 0.06132 -0.06868
v 0.00400 0.06040 0.02537
v 0.00400 0.06040 0.02537
v 0.00518 0.05753 -0.03305
v -0.00898 0.06629 0.02772
v -0.00898 0.06629 0.02772
v -0.00741 0.05717 -0.04260
v -0.00741 0.05717 -0.04260
v -0.00741 0.05717 -0.04260
v -0.01445 0.07718 0.03121
v -0.01445 0.07718 0.03121
v -0.01767 0.07021 0.01035
v -0.01767 0.07021 0.01035
v -0.01767 0.07021 0.01035
v -0.01854 0.07136 -0.06242
v -0.01854 0.07136 -0.06242
v -0.01854 0.07136 -0.06242
v -0.01196 0.06760 0.01244
v -0.01196 0.06760 0.01244
v -0.01196 0.06760 0.01244
v -0.00939 0.07451 0.02382
v -0.01330 0.07043 0.02020
v -0.01330 0.07043 0.02020
v -0.00158 0.05706 0.04948
v -0.00158 0.05706 0.04948
v 0.01269 0.05720 0.02630
v 0.01269 0.05720 0.02630
v 0.01269 0.05720 0.02630
v -0.00609 0.06333 0.05736
v -0.00609 0.06333 0.05736
v -0.00609 0.06333 0.05736
v -0.00609 0.06333 0.05736
v -0.00609 0.06333 0.05736
v -0.01484 0.07438 -0.04987
v -0.01484 0.07438 -0.04987
v 0.01648 0.05380 0.04516
v 0.01648 0.05380 0.04516
v 0.01648 0.05380 0.04516
v 0.01648 0.05380 0.04516
v 0.01604 0.05652 0.03196
v 0.01604 0.05652 0.03196
v 0.01604 0.05652 0.03196
v 0.01604 0.05652 0.03196
v 0.01181 0.05769 0.03219
v 0.01181 0.05769 0.03219
v 0.01181 0.05769 0.03219
v 0.01358 0.05984 0.06253
v 0.01358 0.05984 0.06253
v 0.01628 0.05936 0.06126
v 0.01628 0.05936 0.06126
v 0.01628 0.05936 0.06126
v 0.01628 0.05936 0.06126
v 0.00552 0.06287 -0.05467
v 0.00552 0.06287 -0.05467
v 0.00552 0.06287 -0.05467
v -0.00877 0.07073 0.04637
v -0.00877 0.07073 0.04637
v 0.01687 0.06596 0.04764
v 0.01687 0.06596 0.04764
v 0.01209 0.06504 0.04688
v 0.01209 0.06504 0.04688
v -0.00402 0.06552 -0.05289
v -0.00402 0.06552 -0.05289
v -0.00402 0.06552 -0.05289
v 0.00165 0.06507 -0.05200
v 0.00165 0.06507 -0.05200
v 0.00165 0.06507 -0.05200
v 0.00165 0.06507 -0.05200
v -0.00258 0.07232 0.03418
v -0.00258 0.07232 0.03418
v 0.00735 0.06370 -0.04397
v 0.01301 0.07070 0.06173
v 0.01301 0.07070 0.06173
v -0.00245 0.06972 0.04588
v -0.00245 0.06972 0.04588
v -0.00245 0.06972 0.04588
v -0.00245 0.06972 0.04588
v -0.02255 0.06989 -0.01717
v -0.02255 0.06989 -0.01717
v -0.02255 0.06989 -0.01717
v -0.00538 0.06709 -0.04010
v -0.00538 0.06709 -0.04010
v -0.00538 0.06709 -0.04010
v -0.00397 0.06556 -0.06516
v -0.00397 0.06556 -0.06516
v -0.00397 0.06556 -0.06516
v -0.00397 0.06556 -0.06516
v 0.00738 0.07093 0.05456
v 0.00738 0.07093 0.05456
v 0.00668 0.07207 0.03858
v 0.00668 0.07207 0.03858
v -0.01559 0.07662 -0.02840
v -0.01559 0.07662 -0.02840
v -0.00301 0.06837 -0.06497
v -0.00301 0.06837 -0.06497
v -0.00301 0.06837 -0.06497
v -0.00014 0.07159 -0.05044
v -0.00014 0.07159 -0.05044
v -0.00014 0.07159 -0.05044
v -0.00014 0.07159 -0.05044
v 0.01152 0.07069 0.07085
v 0.01152 0.07069 0.07085
v 0.01152 0.07069 0.07085
v 0.01152 0.07069 0.07085
v 0.01152 0.07069 0.07085
v -0.01072 0.07306 0.06194
v -0.01072 0.07306 0.06194
v -0.01072 0.07306 0.06194
v -0.01476 0.08004 -0.04025
v -0.01476 0.08004 -0.04025
v -0.01476 0.08004 -0.04025
v -0.00350 0.07677 0.05272
v -0.00350 0.07677 0.05272
v -0.00903 0.08076 0.06287
v -0.00903 0.08076 0.06287
v -0.00903 0.08076 0.06287
v -0.00903 0.08076 0.06287
v -0.00903 0.08076 0.06287
v -0.01682 0.07354 -0.06295
v -0.01682 0.07354 -0.06295
v -0.01682 0.07354 -0.06295
v -0.01682 0.07354 -0.06295
v -0.01682 0.07354 -0.06295
v -0.02642 0.07744 -0.02937
v -0.02642 0.07744 -0.02937
v -0.02642 0.07744 -0.02937
v -0.01174 0.08850 0.04882
v -0.01174 0.08850 0.04882
v -0.01174 0.08850 0.04882
v -0.01174 0.08850 0.04882
v -0.00647 0.06976 -0.05006
v -0.00647 0.06976 -0.05006
v -0.01178 0.06832 -0.06129
v -0.01178 0.06832 -0.06129
v -0.01178 0.06832 -0.06129
v -0.01178 0.06832 -0.06129
v -0.01178 0.06832 -0.06129
v -0.01178 0.06832 -0.06129
v 0.00573 0.07605 0.04686
v 0.00573 0.07605 0.04686
v 0.00573 0.07605 0.04686
v -0.02250 0.08220 0.01555
v -0.02250 0.08220 0.01555
v -0.02250 0.08220 0.01555
v -0.02250 0.08220 0.01555
v 0.00456 0.07752 0.07125
v 0.00456 0.07752 0.07125
v 0.00456 0.07752 0.07125
v 0.00456 0.07752 0.07125
v 0.00337 0.08238 0.06900
v 0.00337 0.08238 0.06900
v 0.00337 0.08238 0.06900
v -0.01770 0.08822 0.03404
v -0.01770 0.08822 0.03404
v -0.01470 0.08621 0.02349
v -0.01470 0.08621 0.02349
v 0.00635 0.08090 0.05934
v 0.00635 0.08090 0.05934
v -0.00465 0.08194 0.04811
v -0.00465 0.08194 0.04811
v -0.00465 0.08194 0.04811
v -0.00465 0.08194 0.04811
v -0.01447 0.08825 0.06549
v -0.01447 0.08825 0.06549
v -0.01447 0.08825 0.06549
v -0.01447 0.08825 0.06549
v -0.01447 0.08825 0.06549
v -0.02242 0.08005 -0.05673
v -0.02242 0.08005 -0.05673
v -0.02242 0.08005 -0.05673
v -0.02242 0.08005 -0.05673
v -0.02242 0.08005 -0.05673
v 0.00015 0.07863 0.05574
v 0.00015 0.07863 0.05574
v -0.01766 0.08086 -0.05441
v -0.01766 0.08086 -0.05441
v -0.01766 0.08086 -0.05441
v -0.01766 0.08086 -0.05441
v -0.02627 0.08207 -0.04321
v -0.02627 0.08207 -0.04321
v 0.00051 0.08330 0.05026
v 0.00051 0.08330 0.05026
v 0.00051 0.08330 0.05026
v 0.00051 0.08330 0.05026
v -0.00108 0.08171 0.06910
v -0.00108 0.08171 0.06910
v -0.00108 0.08171 0.06910
v -0.01292 0.09441 0.04245
v -0.01292 0.09441 0.04245
v -0.01292 0.09441 0.04245
v -0.00965 0.08410 0.06288
v -0.00965 0.08410 0.06288
v -0.00965 0.08410 0.06288
v -0.00965 0.08410 0.06288
v -0.02528 0.09225 0.02757
v -0.02528 0.09225 0.02757
v -0.02528 0.09225 0.02757
v -0.00987 0.09404 0.04928
v -0.00987 0.09404 0.04928
v -0.01760 0.09564 0.05878
v -0.01760 0.09564 0.05878
v -0.01760 0.09564 0.05878
v -0.01760 0.09564 0.05878
v -0.02145 0.09855 0.04657
v -0.02145 0.09855 0.04657
v -0.02145 0.09855 0.04657
vt 0.17901 0.95718
vt 0.86738 0.51534
vt 0.95058 0.80674
vt 0.06029 0.93159
vt 0.18025 0.92349
vt 0.86669 0.86983
vt 0.91385 0.78053
vt 0.13346 0.95870
vt 0.37791 0.13623
vt 0.84293 0.01449
vt 0.89026 0.54227
vt 0.94928 0.23850
vt 0.04372 0.97374
vt 0.14603 0.91586
vt 0.80850 0.00495
vt 0.22643 0.96415
vt 0.38802 0.21343
vt 0.86358 0.47327
vt 0.94918 0.76430
vt 0.19816 0.95519
vt 0.89820 0.83319
vt 0.92906 0.74220
vt 0.01736 0.94411
vt 0.02548 0.57485
vt 0.31791 0.09958
vt 0.00280 0.60697
vt 0.01992 0.90490
vt 0.86974 0.83346
vt 0.02283 0.98104
vt 0.34121 0.13050
vt 0.79912 0.03095
vt 0.83295 0.04559
vt 0.95627 0.19797
vt 0.37818 0.18152
vt 0.90635 0.49589
vt 0.34819 0.15094
vt 0.93763 0.20892
vt 0.17075 0.08186
vt 0.32915 0.15210
vt 0.81147 0.08262
vt 0.96378 0.13429
vt 0.31158 0.14874
vt 0.78720 0.07522
vt 0.01701 0.61653
vt 0.29026 0.55802
vt 0.87292 0.79124
vt 0.20357 0.92919
vt 0.22343 0.09863
vt 0.58298 0.05570
vt 0.90006 0.77957
vt 0.03824 0.59373
vt 0.27711 0.52654
vt 0.28926 0.13032
vt 0.59993 0.55815
vt 0.26551 0.10350
vt 0.32669 0.18060
vt 0.92700 0.17304
vt 0.16651 0.26726
vt 0.23813 0.92311
vt 0.36239 0.22855
vt 0.47421 0.74495
vt 0.55115 0.05657
vt 0.01198 0.11215
vt 0.14981 0.27083
vt 0.25492 0.08016
vt 0.34429 0.20386
vt 0.82708 0.81160
vt 0.06725 0.59548
vt 0.45324 0.78408
vt 0.52309 0.61751
vt 0.59640 0.01398
vt 0.77445 0.82555
vt 0.15205 0.28644
vt 0.46419 0.75165
vt 0.81159 0.82299
vt 0.01831 0.14529
vt 0.18355 0.04812
vt 0.26551 0.07605
vt 0.94188 0.13626
vt 0.78419 0.29456
vt 0.80098 0.75716
vt 0.80899 0.70378
vt 0.16628 0.60046
vt 0.25629 0.24703
vt 0.25928 0.26040
vt 0.31487 0.29571
vt 0.78434 0.70014
vt 0.23146 0.07055
vt 0.28753 0.24702
vt 0.82246 0.16071
vt 0.23336 0.16891
vt 0.29026 0.52447
vt 0.49737 0.59236
vt 0.90835 0.70546
vt 0.09432 0.36001
vt 0.19812 0.12754
vt 0.32650 0.34355
vt 0.53284 0.12397
vt 0.55447 0.11373
vt 0.07879 0.20270
vt 0.18792 0.02441
vt 0.30151 0.33751
vt 0.69321 0.00134
vt 0.10125 0.35826
vt 0.31671 0.34607
vt 0.40699 0.75403
vt 0.57857 0.75679
vt 0.66723 0.08847
vt 0.18326 0.24720
vt 0.24880 0.20402
vt 0.49264 0.22252
vt 0.07606 0.18937
vt 0.19776 0.66459
vt 0.29570 0.33751
vt 0.75350 0.33754
vt 0.82225 0.67798
vt 0.48169 0.61515
vt 0.49952 0.14626
vt 0.59749 0.39827
vt 0.62108 0.08611
vt 0.04341 0.28351
vt 0.17644 0.20166
vt 0.28563 0.32133
vt 0.34680 0.08300
vt 0.23244 0.23997
vt 0.37915 0.59288
vt 0.21710 0.25884
vt 0.22553 0.26582
vt 0.56573 0.29854
vt 0.22649 0.90434
vt 0.80102 0.63059
vt 0.19577 0.65415
vt 0.75491 0.35696
vt 0.82209 0.62519
vt 0.32948 0.26687
vt 0.78206 0.66036
vt 0.90185 0.53498
vt 0.32411 0.70756
vt 0.38196 0.62971
vt 0.49952 0.10734
vt 0.34938 0.72589
vt 0.48574 0.12007
vt 0.60613 0.33535
vt 0.62745 0.14845
vt 0.68626 0.88204
vt 0.25428 0.33057
vt 0.31927 0.22588
vt 0.90235 0.58744
vt 0.18209 0.15482
vt 0.33283 0.43514
vt 0.27085 0.86135
vt 0.57499 0.51979
vt 0.76483 0.63425
vt 0.88384 0.54386
vt 0.14018 0.28262
vt 0.71823 0.06419
vt 0.18086 0.26024
vt 0.28919 0.67067
vt 0.29746 0.29598
vt 0.66988 0.42521
vt 0.17051 0.26299
vt 0.75084 0.05070
vt 0.00684 0.39042
vt 0.41692 0.09476
vt 0.01161 0.07238
vt 0.06300 0.52927
vt 0.12520 0.14793
vt 0.13733 0.19659
vt 0.85761 0.04254
vt 0.12145 0.08264
vt 0.32457 0.08098
vt 0.82498 0.09661
vt 0.95854 0.33658
vt 0.12905 0.12584
vt 0.16651 0.24301
vt 0.93497 0.30091
vt 0.24811 0.65776
vt 0.71097 0.39618
vt 0.11629 0.18419
vt 0.31428 0.77007
vt 0.86720 0.25454
vt 0.89491 0.06664
vt 0.09432 0.31981
vt 0.42246 0.03433
vt 0.42712 0.22381
vt 0.44237 0.72406
vt 0.05079 0.32503
vt 0.14839 0.10760
vt 0.40855 0.13368
vt 0.87486 0.20247
vt 0.93676 0.08775
vt 0.14690 0.15252
vt 0.35545 0.11714
vt 0.95422 0.37774
vt 0.41386 0.05086
vt 0.45902 0.74164
vt 0.58738 0.33004
vt 0.67232 0.15710
vt 0.17348 0.08664
vt 0.34433 0.49266
vt 0.44372 0.09699
vt 0.54083 0.01697
vt 0.01262 0.26144
vt 0.28028 0.44205
vt 0.28351 0.12601
vt 0.48331 0.96130
vt 0.89829 0.67161
vt 0.41556 0.90394
vt 0.88961 0.12906
vt 0.01483 0.00481
vt 0.09101 0.11603
vt 0.28023 0.81998
vt 0.57034 0.47803
vt 0.82864 0.61497
vt 0.02443 0.00984
vt 0.03692 0.54902
vt 0.54002 0.92271
vt 0.84560 0.61295
vt 0.03692 0.51023
vt 0.48145 0.92781
vt 0.93454 0.09188
vt 0.93604 0.03713
vt 0.01226 0.44290
vt 0.23033 0.38702
vt 0.24199 0.51745
vt 0.45799 0.02410
vt 0.50743 0.06466
vt 0.44155 0.78882
vt 0.87650 0.38595
vt 0.34578 0.80298
vt 0.59402 0.44233
vt 0.85920 0.30579
vt 0.00595 0.16072
vt 0.29810 0.52015
vt 0.00222 0.12990
vt 0.31236 0.56457
vt 0.43179 0.00529
vt 0.49979 0.08224
vt 0.68430 0.03764
vt 0.10535 0.20009
vt 0.73583 0.46771
vt 0.82885 0.53324
vt 0.15568 0.39772
vt 0.72311 0.18774
vt 0.59488 0.19527
vt 0.68027 0.87682
vt 0.08087 0.17848
vt 0.35423 0.91222
vt 0.81715 0.53555
vt 0.06388 0.30035
vt 0.15722 0.07935
vt 0.91737 0.44395
vt 0.93057 0.84993
vt 0.61280 0.22541
vt 0.72802 0.84177
vt 0.33140 0.86400
vt 0.57343 0.73223
vt 0.69080 0.26014
vt 0.04655 0.31652
vt 0.08976 0.39671
vt 0.38325 0.02440
vt 0.25271 0.11907
vt 0.42613 0.37915
vt 0.36753 0.26809
vt 0.50689 0.63102
vt 0.52652 0.03107
vt 0.01909 0.29415
vt 0.09558 0.55290
vt 0.24138 0.47073
vt 0.46757 0.05175
vt 0.50907 0.66402
vt 0.83703 0.50292
vt 0.57873 0.68701
vt 0.27451 0.13519
vt 0.40846 0.30892
vt 0.25391 0.55704
vt 0.25442 0.38904
vt 0.30263 0.77674
vt 0.56363 0.23621
vt 0.72814 0.85021
vt 0.13469 0.13726
vt 0.19524 0.56004
vt 0.23923 0.44129
vt 0.51077 0.51001
vt 0.58369 0.40870
vt 0.13940 0.48993
vt 0.71272 0.27896
vt 0.16498 0.47248
vt 0.21348 0.85329
vt 0.66642 0.89792
vt 0.66728 0.77538
vt 0.16611 0.42927
vt 0.27985 0.81003
vt 0.56066 0.27771
vt 0.70845 0.79628
vt 0.14842 0.43541
vt 0.23948 0.80022
vt 0.27374 0.78527
vt 0.12972 0.90134
vt 0.73339 0.87841
vt 0.42752 0.08176
vt 0.56238 0.77808
vt 0.62202 0.77080
vt 0.72514 0.87271
vt 0.39863 0.92917
vt 0.92883 0.14881
vt 0.94142 0.02462
vt 0.00291 0.51275
vt 0.51257 0.41147
vt 0.40859 0.08550
vt 0.61801 0.81931
vt 0.15550 0.82516
vt 0.18136 0.79021
vt 0.01769 0.16855
vt 0.26789 0.08184
vt 0.69299 0.08608
vt 0.28351 0.07551
vt 0.39389 0.96039
vt 0.71543 0.09781
vt 0.98104 0.03454
vt 0.66194 0.31103
vt 0.67374 0.91473
vt 0.40020 0.84304
vt 0.40859 0.04636
vt 0.54179 0.83020
vt 0.19354 0.59254
vt 0.24104 0.72202
vt 0.29711 0.65157
vt 0.49761 0.51302
vt 0.22350 0.34742
vt 0.64413 0.49769
vt 0.78738 0.13762
vt 0.08502 0.13744
vt 0.77841 0.56884
vt 0.91393 0.73700
vt 0.06077 0.24655
vt 0.48399 0.11085
vt 0.70914 0.03076
vt 0.98104 0.07709
vt 0.10143 0.82257
vt 0.13461 0.78843
vt 0.61398 0.33143
vt 0.66114 0.88975
vt 0.67823 0.55830
vt 0.82931 0.77460
vt 0.05719 0.00489
vt 0.06750 0.24496
vt 0.92375 0.90436
vt 0.04615 0.07909
vt 0.45279 0.87536
vt 0.82956 0.43388
vt 0.88349 0.90727
vt 0.05582 0.89690
vt 0.07550 0.31909
vt 0.49811 0.82559
vt 0.81002 0.86900
vt 0.97698 0.33970
vt 0.14401 0.08839
vt 0.25299 0.45389
vt 0.56193 0.47978
vt 0.70905 0.62494
vt 0.82931 0.71266
vt 0.97092 0.73227
vt 0.11464 0.73024
vt 0.36128 0.63528
vt 0.04399 0.71214
vt 0.13476 0.06054
vt 0.26026 0.50194
vt 0.40448 0.66062
vt 0.49761 0.46572
vt 0.02442 0.29701
vt 0.23235 0.34026
vt 0.24751 0.47068
vt 0.43974 0.20302
vt 0.94967 0.61384
vt 0.63804 0.57707
vt 0.79555 0.21390
vt 0.86054 0.79096
vt 0.03359 0.52017
vt 0.42752 0.19035
vt 0.45480 0.48770
vt 0.88204 0.88509
vt 0.08280 0.07735
vt 0.92102 0.69549
vt 0.04525 0.21262
vt 0.10226 0.01953
vt 0.24076 0.37729
vt 0.41827 0.00778
vt 0.51302 0.08727
vt 0.91652 0.63121
vt 0.61124 0.87508
vt 0.61239 0.89655
vt 0.62481 0.37693
vt 0.33538 0.34447
vt 0.58401 0.59601
vt 0.70206 0.90879
vt 0.78278 0.44551
vt 0.01741 0.87173
vt 0.06500 0.78729
vt 0.07875 0.26566
vt 0.98554 0.28600
vt 0.07270 0.26657
vt 0.54772 0.17769
vt 0.96328 0.26168
vt 0.39087 0.43527
vt 0.79068 0.90180
vt 0.62439 0.62798
vt 0.82305 0.40275
vt 0.53667 0.90037
vt 0.91684 0.27389
vt 0.59526 0.09322
vt 0.68294 0.39853
vt 0.70321 0.75971
vt 0.91688 0.57625
vt 0.00291 0.46444
vt 0.25377 0.54908
vt 0.39324 0.24076
vt 0.51048 0.55118
vt 0.97985 0.59074
vt 0.04241 0.24143
vt 0.15471 0.54886
vt 0.43563 0.14138
vt 0.71915 0.32532
vt 0.87359 0.63290
vt 0.06095 0.79303
vt 0.09050 0.74924
vt 0.45447 0.14140
vt 0.83049 0.66550
vt 0.85520 0.63706
vt 0.99638 0.65582
vt 0.76554 0.27889
vt 0.87428 0.71287
vt 0.56871 0.10487
vt 0.59445 0.92254
vt 0.65732 0.41602
vt 0.90944 0.23766
vt 0.02792 0.75477
vt 0.55769 0.19576
vt 0.97380 0.23766
vt 0.73172 0.67046
vt 0.83703 0.28379
vt 0.91308 0.48725
vt 0.03586 0.70531
vt 0.26911 0.51480
vt 0.60505 0.16624
vt 0.95239 0.60851
vt 0.33671 0.42615
vt 0.77148 0.93604
vt 0.77188 0.36243
vt 0.75558 0.71070
vt 0.93535 0.52870
vt 0.39279 0.19173
vt 0.45866 0.55990
vt 0.87433 0.92607
vt 0.98358 0.54021
vt 0.38969 0.52028
vt 0.80838 0.26098
vt 0.95297 0.48198
vn -0.44493 -0.89535 0.01960
vn -0.44493 -0.89535 0.01960
vn -0.44493 -0.89535 0.01960
vn 0.31900 -0.81880 0.47730
vn 0.31900 -0.81880 0.47730
vn 0.31900 -0.81880 0.47730
vn 0.31900 -0.81880 0.47730
vn -0.06630 -0.80129 -0.59459
vn -0.06630 -0.80129 -0.59459
vn -0.06630 -0.80129 -0.59459
vn -0.06630 -0.80129 -0.59459
vn -0.06630 -0.80129 -0.59459
vn 0.58981 -0.78561 -0.18690
vn 0.58981 -0.78561 -0.18690
vn 0.58981 -0.78561 -0.18690
vn -0.71121 -0.41501 0.56741
vn -0.71121 -0.41501 0.56741
vn -0.71121 -0.41501 0.56741
vn -0.71121 -0.41501 0.56741
vn -0.26480 -0.25340 0.93041
vn -0.26480 -0.25340 0.93041
vn -0.26480 -0.25340 0.93041
vn 0.94554 -0.16481 0.28071
vn 0.94554 -0.16481 0.28071
vn 0.94554 -0.16481 0.28071
vn 0.58728 -0.23479 0.77458
vn 0.58728 -0.23479 0.77458
vn 0.58728 -0.23479 0.77458
vn 0.83371 -0.20360 -0.51330
vn 0.83371 -0.20360 -0.51330
vn 0.83371 -0.20360 -0.51330
vn 0.14030 -0.17771 -0.97403
vn 0.14030 -0.17771 -0.97403
vn -0.98171 -0.02210 -0.18910
vn -0.98171 -0.02210 -0.18910
vn -0.51780 0.00390 -0.85549
vn -0.51780 0.00390 -0.85549
vn 0.49077 -0.23939 -0.83776
vn 0.49077 -0.23939 -0.83776
vn 0.49077 -0.23939 -0.83776
vn 0.49077 -0.23939 -0.83776
vn 0.88668 0.13740 -0.44149
vn 0.88668 0.13740 -0.44149
vn 0.64910 -0.08440 0.75600
vn 0.64910 -0.08440 0.75600
vn 0.64910 -0.08440 0.75600
vn -0.32771 -0.29071 0.89894
vn -0.32771 -0.29071 0.89894
vn -0.32771 -0.29071 0.89894
vn -0.32771 -0.29071 0.89894
vn 0.91783 0.26871 0.29221
vn 0.91783 0.26871 0.29221
vn 0.91783 0.26871 0.29221
vn 0.91783 0.26871 0.29221
vn -0.80999 0.03980 -0.58509
vn -0.80999 0.03980 -0.58509
vn -0.80999 0.03980 -0.58509
vn -0.99949 -0.03170 0.00320
vn -0.99949 -0.03170 0.00320
vn -0.99949 -0.03170 0.00320
vn -0.99949 -0.03170 0.00320
vn -0.99949 -0.03170 0.00320
vn -0.78996 0.61067 -0.05530
vn -0.78996 0.61067 -0.05530
vn -0.78996 0.61067 -0.05530
vn -0.78996 0.61067 -0.05530
vn -0.78996 0.61067 -0.05530
vn 0.17900 0.98038 0.08250
vn 0.17900 0.98038 0.08250
vn 0.17900 0.98038 0.08250
vn 0.17900 0.98038 0.08250
vn 0.17900 0.98038 0.08250
vn -0.28622 0.95765 0.03140
vn -0.28622 0.95765 0.03140
vn -0.28622 0.95765 0.03140
vn -0.57690 -0.50230 -0.64411
vn -0.57690 -0.50230 -0.64411
vn -0.57690 -0.50230 -0.64411
vn -0.57690 -0.50230 -0.64411
vn 0.14290 0.57801 0.80342
vn 0.14290 0.57801 0.80342
vn 0.14290 0.57801 0.80342
vn 0.77849 0.36530 0.51040
vn 0.77849 0.36530 0.51040
vn 0.77849 0.36530 0.51040
vn 0.77849 0.36530 0.51040
vn 0.77849 0.36530 0.51040
vn 0.63329 -0.50749 -0.58429
vn 0.63329 -0.50749 -0.58429
vn 0.63329 -0.50749 -0.58429
vn 0.54200 -0.39190 0.74340
vn 0.54200 -0.39190 0.74340
vn 0.54200 -0.39190 0.74340
vn 0.54200 -0.39190 0.74340
vn -0.85350 -0.45770 0.24910
vn -0.85350 -0.45770 0.24910
vn -0.85350 -0.45770 0.24910
vn -0.85350 -0.45770 0.24910
vn -0.85350 -0.45770 0.24910
vn -0.89171 -0.44580 -0.07820
vn -0.89171 -0.44580 -0.07820
vn -0.89171 -0.44580 -0.07820
vn -0.89171 -0.44580 -0.07820
vn -0.17851 -0.00240 -0.98394
vn -0.17851 -0.00240 -0.98394
vn -0.17851 -0.00240 -0.98394
vn -0.17851 -0.00240 -0.98394
vn -0.17851 -0.00240 -0.98394
vn -0.81985 -0.42797 0.38038
vn -0.81985 -0.42797 0.38038
vn -0.81985 -0.42797 0.38038
vn 0.03670 -0.19500 0.98012
vn 0.03670 -0.19500 0.98012
vn 0.03670 -0.19500 0.98012
vn 0.03670 -0.19500 0.98012
vn 0.03670 -0.19500 0.98012
vn 0.74952 0.21290 -0.62681
vn 0.74952 0.21290 -0.62681
vn 0.74952 0.21290 -0.62681
vn 0.74952 0.21290 -0.62681
vn 0.41439 -0.74879 -0.51729
vn 0.41439 -0.74879 -0.51729
vn 0.41439 -0.74879 -0.51729
vn 0.41439 -0.74879 -0.51729
vn 0.79495 -0.39022 0.46453
vn 0.79495 -0.39022 0.46453
vn -0.48147 -0.72866 0.48707
vn -0.48147 -0.72866 0.48707
vn -0.48147 -0.72866 0.48707
vn 0.03070 0.57210 0.81961
vn 0.03070 0.57210 0.81961
vn 0.57658 0.35419 0.73628
vn 0.57658 0.35419 0.73628
vn 0.57658 0.35419 0.73628
vn 0.77993 0.21241 0.58872
vn 0.77993 0.21241 0.58872
vn 0.77993 0.21241 0.58872
vn 0.79093 -0.53012 0.30561
vn 0.79093 -0.53012 0.30561
vn 0.79093 -0.53012 0.30561
vn 0.79219 -0.08380 -0.60449
vn 0.79219 -0.08380 -0.60449
vn 0.79219 -0.08380 -0.60449
vn 0.79219 -0.08380 -0.60449
vn 0.79219 -0.08380 -0.60449
vn 0.69311 -0.62041 -0.36701
vn 0.69311 -0.62041 -0.36701
vn 0.69311 -0.62041 -0.36701
vn 0.92101 -0.34970 -0.17160
vn 0.92101 -0.34970 -0.17160
vn 0.30212 0.38572 0.87175
vn 0.30212 0.38572 0.87175
vn 0.30212 0.38572 0.87175
vn 0.30212 0.38572 0.87175
vn -0.97431 -0.17240 -0.14490
vn -0.97431 -0.17240 -0.14490
vn -0.21709 -0.16299 0.96245
vn -0.21709 -0.16299 0.96245
vn -0.21709 -0.16299 0.96245
vn -0.21709 -0.16299 0.96245
vn -0.88267 -0.46969 -0.01690
vn -0.88267 -0.46969 -0.01690
vn -0.67651 -0.73641 -0.00670
vn -0.67651 -0.73641 -0.00670
vn 0.04150 -0.99643 -0.07350
vn 0.04150 -0.99643 -0.07350
vn 0.04150 -0.99643 -0.07350
vn 0.04150 -0.99643 -0.07350
vn 0.04150 -0.99643 -0.07350
vn 0.01510 -0.98368 -0.17930
vn 0.01510 -0.98368 -0.17930
vn 0.01510 -0.98368 -0.17930
vn 0.01510 -0.98368 -0.17930
vn 0.85486 -0.51167 -0.08610
vn 0.85486 -0.51167 -0.08610
vn 0.85486 -0.51167 -0.08610
vn 0.69440 0.17250 0.69860
vn 0.69440 0.17250 0.69860
vn 0.96770 -0.25180 -0.01210
vn 0.96770 -0.25180 -0.01210
vn 0.96770 -0.25180 -0.01210
vn -0.82269 -0.56689 -0.04270
vn -0.46022 -0.26081 -0.84863
vn -0.46022 -0.26081 -0.84863
vn -0.46022 -0.26081 -0.84863
vn -0.46022 -0.26081 -0.84863
vn -0.18420 -0.66940 -0.71970
vn -0.18420 -0.66940 -0.71970
vn -0.18420 -0.66940 -0.71970
vn -0.18420 -0.66940 -0.71970
vn -0.18420 -0.66940 -0.71970
vn 0.46012 -0.58982 -0.66363
vn 0.46012 -0.58982 -0.66363
vn 0.46012 -0.58982 -0.66363
vn 0.41230 0.35440 -0.83929
vn 0.41230 0.35440 -0.83929
vn 0.41230 0.35440 -0.83929
vn 0.41230 0.35440 -0.83929
vn 0.38482 -0.84814 -0.36412
vn 0.38482 -0.84814 -0.36412
vn 0.38482 -0.84814 -0.36412
vn 0.38482 -0.84814 -0.36412
vn 0.49960 -0.71110 -0.49470
vn 0.49960 -0.71110 -0.49470
vn 0.49960 -0.71110 -0.49470
vn 0.49960 -0.71110 -0.49470
vn 0.49960 -0.71110 -0.49470
vn -0.97089 -0.23270 0.05680
vn -0.97089 -0.23270 0.05680
vn 0.47429 0.15580 0.86648
vn 0.47429 0.15580 0.86648
vn 0.47429 0.15580 0.86648
vn 0.47429 0.15580 0.86648
vn 0.47429 0.15580 0.86648
vn 0.04910 -0.99766 0.04750
vn 0.04910 -0.99766 0.04750
vn 0.04910 -0.99766 0.04750
vn 0.04910 -0.99766 0.04750
vn -0.45679 -0.87048 -0.18330
vn -0.45679 -0.87048 -0.18330
vn -0.45679 -0.87048 -0.18330
vn -0.45679 -0.87048 -0.18330
vn -0.38180 -0.68590 -0.61950
vn -0.38180 -0.68590 -0.61950
vn -0.38180 -0.68590 -0.61950
vn -0.38180 -0.68590 -0.61950
vn -0.38180 -0.68590 -0.61950
vn 0.87371 0.48640 -0.00710
vn 0.87371 0.48640 -0.00710
vn 0.80631 0.58941 0.04960
vn 0.80631 0.58941 0.04960
vn 0.80631 0.58941 0.04960
vn 0.88329 -0.18310 -0.43160
vn 0.88329 -0.18310 -0.43160
vn -0.21461 -0.46311 -0.85992
vn -0.21461 -0.46311 -0.85992
vn -0.21461 -0.46311 -0.85992
vn -0.21461 -0.46311 -0.85992
vn -0.21461 -0.46311 -0.85992
vn 0.50330 0.61471 0.60731
vn 0.50330 0.61471 0.60731
vn 0.50330 0.61471 0.60731
vn -0.83133 -0.52212 -0.19051
vn -0.83133 -0.52212 -0.19051
vn 0.39771 0.25481 -0.88142
vn 0.39771 0.25481 -0.88142
vn 0.09800 0.75687 0.64618
vn 0.09800 0.75687 0.64618
vn 0.09800 0.75687 0.64618
vn 0.51031 0.21490 -0.83271
vn 0.51031 0.21490 -0.83271
vn 0.51031 0.21490 -0.83271
vn 0.51031 0.21490 -0.83271
vn 0.19980 0.65291 -0.73061
vn 0.19980 0.65291 -0.73061
vn 0.52900 0.66531 0.52680
vn 0.76431 0.39280 -0.51141
vn 0.76431 0.39280 -0.51141
vn -0.91033 -0.41352 0.01720
vn -0.91033 -0.41352 0.01720
vn -0.91033 -0.41352 0.01720
vn -0.94767 -0.30739 0.08620
vn -0.94767 -0.30739 0.08620
vn -0.56610 -0.16620 -0.80741
vn -0.56610 -0.16620 -0.80741
vn -0.56610 -0.16620 -0.80741
vn -0.58831 -0.62621 -0.51161
vn -0.58831 -0.62621 -0.51161
vn -0.58831 -0.62621 -0.51161
vn 0.73515 0.02960 -0.67726
vn 0.73515 0.02960 -0.67726
vn 0.73515 0.02960 -0.67726
vn 0.93522 0.22450 -0.27380
vn -0.93489 -0.28550 0.21090
vn -0.93489 -0.28550 0.21090
vn 0.62800 -0.58520 0.51300
vn 0.62800 -0.58520 0.51300
vn 0.98275 -0.02870 0.18269
vn 0.98275 -0.02870 0.18269
vn 0.98275 -0.02870 0.18269
vn 0.00830 -0.71077 0.70337
vn 0.00830 -0.71077 0.70337
vn 0.00830 -0.71077 0.70337
vn 0.00830 -0.71077 0.70337
vn 0.00830 -0.71077 0.70337
vn -0.76873 -0.63052 0.10720
vn -0.76873 -0.63052 0.10720
vn 0.18800 -0.98212 -0.00930
vn 0.18800 -0.98212 -0.00930
vn 0.18800 -0.98212 -0.00930
vn 0.18800 -0.98212 -0.00930
vn 0.67901 -0.55171 -0.48431
vn 0.67901 -0.55171 -0.48431
vn 0.67901 -0.55171 -0.48431
vn 0.67901 -0.55171 -0.48431
vn -0.47311 -0.88002 0.04170
vn -0.47311 -0.88002 0.04170
vn -0.47311 -0.88002 0.04170
vn -0.39129 -0.81647 0.42458
vn -0.39129 -0.81647 0.42458
vn 0.45449 -0.54119 0.70749
vn 0.45449 -0.54119 0.70749
vn 0.45449 -0.54119 0.70749
vn 0.45449 -0.54119 0.70749
vn -0.75837 -0.63198 0.15959
vn -0.75837 -0.63198 0.15959
vn -0.75837 -0.63198 0.15959
vn -0.96001 -0.25900 0.10630
vn -0.96001 -0.25900 0.10630
vn 0.92903 0.34921 -0.12230
vn 0.92903 0.34921 -0.12230
vn -0.71979 -0.66779 0.18960
vn -0.71979 -0.66779 0.18960
vn 0.32369 -0.91127 -0.25459
vn 0.32369 -0.91127 -0.25459
vn 0.32369 -0.91127 -0.25459
vn -0.35129 -0.80267 -0.48198
vn -0.35129 -0.80267 -0.48198
vn -0.35129 -0.80267 -0.48198
vn -0.35129 -0.80267 -0.48198
vn 0.12380 0.74372 -0.65692
vn 0.12380 0.74372 -0.65692
vn 0.66107 0.68157 0.31378
vn 0.91445 0.40392 0.02520
vn 0.91445 0.40392 0.02520
vn 0.68452 -0.46271 0.56332
vn 0.68452 -0.46271 0.56332
vn 0.68452 -0.46271 0.56332
vn 0.68452 -0.46271 0.56332
vn -0.73969 0.06190 0.67009
vn -0.73969 0.06190 0.67009
vn -0.73969 0.06190 0.67009
vn 0.41079 0.81088 0.41679
vn 0.41079 0.81088 0.41679
vn 0.41079 0.81088 0.41679
vn 0.00410 -0.72140 -0.69250
vn 0.00410 -0.72140 -0.69250
vn 0.00410 -0.72140 -0.69250
vn 0.00410 -0.72140 -0.69250
vn -0.68748 -0.68108 0.25199
vn -0.68748 -0.68108 0.25199
vn 0.53758 0.66998 -0.51199
vn 0.53758 0.66998 -0.51199
vn 0.48909 0.73599 0.46809
vn 0.48909 0.73599 0.46809
vn 0.24960 0.54340 -0.80151
vn 0.24960 0.54340 -0.80151
vn 0.24960 0.54340 -0.80151
vn 0.21030 0.91121 0.35421
vn 0.21030 0.91121 0.35421
vn 0.21030 0.91121 0.35421
vn 0.21030 0.91121 0.35421
vn 0.53141 -0.44951 0.71801
vn 0.53141 -0.44951 0.71801
vn 0.53141 -0.44951 0.71801
vn 0.53141 -0.44951 0.71801
vn 0.53141 -0.44951 0.71801
vn -0.44929 -0.57698 0.68208
vn -0.44929 -0.57698 0.68208
vn -0.44929 -0.57698 0.68208
vn 0.59339 0.77449 0.21920
vn 0.59339 0.77449 0.21920
vn 0.59339 0.77449 0.21920
vn 0.24890 -0.72589 0.64119
vn 0.24890 -0.72589 0.64119
vn 0.22150 -0.54419 0.80919
vn 0.22150 -0.54419 0.80919
vn 0.22150 -0.54419 0.80919
vn 0.22150 -0.54419 0.80919
vn 0.22150 -0.54419 0.80919
vn 0.36830 -0.07820 -0.92641
vn 0.36830 -0.07820 -0.92641
vn 0.36830 -0.07820 -0.92641
vn 0.36830 -0.07820 -0.92641
vn 0.36830 -0.07820 -0.92641
vn -0.95251 0.14570 0.26740
vn -0.95251 0.14570 0.26740
vn -0.95251 0.14570 0.26740
vn -0.80927 -0.55938 0.17939
vn -0.80927 -0.55938 0.17939
vn -0.80927 -0.55938 0.17939
vn -0.80927 -0.55938 0.17939
vn 0.26730 0.96361 -0.00250
vn 0.26730 0.96361 -0.00250
vn 0.33650 0.12310 -0.93360
vn 0.33650 0.12310 -0.93360
vn 0.33650 0.12310 -0.93360
vn 0.33650 0.12310 -0.93360
vn 0.33650 0.12310 -0.93360
vn 0.33650 0.12310 -0.93360
vn 0.59632 0.65612 -0.46251
vn 0.59632 0.65612 -0.46251
vn 0.59632 0.65612 -0.46251
vn -0.79269 0.03870 -0.60839
vn -0.79269 0.03870 -0.60839
vn -0.79269 0.03870 -0.60839
vn -0.79269 0.03870 -0.60839
vn 0.08699 -0.24879 0.96464
vn 0.08699 -0.24879 0.96464
vn 0.08699 -0.24879 0.96464
vn 0.08699 -0.24879 0.96464
vn 0.42460 0.60750 0.67131
vn 0.42460 0.60750 0.67131
vn 0.42460 0.60750 0.67131
vn -0.79550 -0.45270 0.40280
vn -0.79550 -0.45270 0.40280
vn 0.76368 0.38879 -0.51539
vn 0.76368 0.38879 -0.51539
vn 0.75765 0.65136 0.04120
vn 0.75765 0.65136 0.04120
vn 0.49642 0.78533 -0.36991
vn 0.49642 0.78533 -0.36991
vn 0.49642 0.78533 -0.36991
vn 0.49642 0.78533 -0.36991
vn -0.36709 0.15919 0.91646
vn -0.36709 0.15919 0.91646
vn -0.36709 0.15919 0.91646
vn -0.36709 0.15919 0.91646
vn -0.36709 0.15919 0.91646
vn -0.68542 0.03020 -0.72752
vn -0.68542 0.03020 -0.72752
vn -0.68542 0.03020 -0.72752
vn -0.68542 0.03020 -0.72752
vn -0.68542 0.03020 -0.72752
vn -0.28421 -0.80452 0.52151
vn -0.28421 -0.80452 0.52151
vn 0.47361 0.87152 0.12710
vn 0.47361 0.87152 0.12710
vn 0.47361 0.87152 0.12710
vn 0.47361 0.87152 0.12710
vn -0.88414 0.45952 -0.08450
vn -0.88414 0.45952 -0.08450
vn 0.44298 0.79107 -0.42188
vn 0.44298 0.79107 -0.42188
vn 0.44298 0.79107 -0.42188
vn 0.44298 0.79107 -0.42188
vn -0.73180 -0.09750 0.67450
vn -0.73180 -0.09750 0.67450
vn -0.73180 -0.09750 0.67450
vn 0.67829 0.68219 -0.27300
vn 0.67829 0.68219 -0.27300
vn 0.67829 0.68219 -0.27300
vn 0.33901 0.68172 0.64832
vn 0.33901 0.68172 0.64832
vn 0.33901 0.68172 0.64832
vn 0.33901 0.68172 0.64832
vn -0.84258 0.38589 -0.37569
vn -0.84258 0.38589 -0.37569
vn -0.84258 0.38589 -0.37569
vn 0.80383 0.59413 0.02940
vn 0.80383 0.59413 0.02940
vn -0.74466 0.32068 0.58536
vn -0.74466 0.32068 0.58536
vn -0.74466 0.32068 0.58536
vn -0.74466 0.32068 0.58536
vn -0.65656 0.74036 -0.14419
vn -0.65656 0.74036 -0.14419
vn -0.65656 0.74036 -0.14419
usemtl lingcao_chiyan_sprout_mat
s off
f 1/1/1 14/14/14 5/5/5
f 1/1/1 8/8/8 14/14/14
f 3/3/3 7/7/7 19/19/19
f 19/19/19 7/7/7 22/22/22
f 4/4/4 13/13/13 23/23/23
f 4/4/4 23/23/23 27/27/27
f 13/13/13 29/29/29 23/23/23
f 15/15/15 10/10/10 32/32/32
f 15/15/15 32/32/32 31/31/31
f 12/12/12 37/37/37 33/33/33
f 2/2/2 35/35/35 11/11/11
f 6/6/6 28/28/28 21/21/21
f 9/9/9 34/34/34 36/36/36
f 2/2/2 18/18/18 35/35/35
f 32/32/32 40/40/40 31/31/31
f 30/30/30 39/39/39 42/42/42
f 30/30/30 42/42/42 25/25/25
f 21/21/21 28/28/28 46/46/46
f 21/21/21 46/46/46 50/50/50
f 20/20/20 47/47/47 16/16/16
f 26/26/26 24/24/24 51/51/51
f 26/26/26 51/51/51 44/44/44
f 25/25/25 42/42/42 53/53/53
f 37/37/37 57/57/57 33/33/33
f 36/36/36 34/34/34 56/56/56
f 16/16/16 47/47/47 59/59/59
f 17/17/17 60/60/60 34/34/34
f 34/34/34 66/66/66 56/56/56
f 34/34/34 60/60/60 66/66/66
f 64/64/64 58/58/58 73/73/73
f 33/33/33 57/57/57 79/79/79
f 33/33/33 79/79/79 41/41/41
f 75/75/75 72/72/72 81/81/81
f 75/75/75 81/81/81 67/67/67
f 55/55/55 65/65/65 78/78/78
f 42/42/42 84/84/84 53/53/53
f 45/45/45 52/52/52 92/92/92
f 68/68/68 51/51/51 83/83/83
f 38/38/38 77/77/77 88/88/88
f 40/40/40 90/90/90 43/43/43
f 48/48/48 91/91/91 96/96/96
f 49/49/49 99/99/99 62/62/62
f 50/50/50 46/46/46 94/94/94
f 63/63/63 100/100/100 76/76/76
f 61/61/61 107/107/107 74/74/74
f 42/42/42 89/89/89 84/84/84
f 74/74/74 107/107/107 69/69/69
f 81/81/81 72/72/72 87/87/87
f 54/54/54 70/70/70 117/117/117
f 63/63/63 112/112/112 100/100/100
f 67/67/67 81/81/81 116/116/116
f 71/71/71 108/108/108 120/120/120
f 54/54/54 117/117/117 93/93/93
f 88/88/88 77/77/77 124/124/124
f 77/77/77 101/101/101 124/124/124
f 89/89/89 123/123/123 85/85/85
f 91/91/91 125/125/125 127/127/127
f 91/91/91 127/127/127 96/96/96
f 82/82/82 87/87/87 131/131/131
f 82/82/82 131/131/131 134/134/134
f 80/80/80 133/133/133 115/115/115
f 60/60/60 97/97/97 105/105/105
f 87/87/87 136/136/136 131/131/131
f 108/108/108 198/198/198 120/120/120
f 117/117/117 139/139/139 93/93/93
f 119/119/119 197/197/197 143/143/143
f 86/86/86 147/147/147 135/135/135
f 96/96/96 127/127/127 109/109/109
f 124/124/124 101/101/101 261/261/261
f 102/102/102 114/114/114 159/159/159
f 100/100/100 157/157/157 161/161/161
f 167/167/167 170/170/170 174/174/174
f 93/93/93 139/139/139 126/126/126
f 103/103/103 162/162/162 156/156/156
f 136/136/136 153/153/153 131/131/131
f 113/113/113 132/132/132 177/177/177
f 113/113/113 177/177/177 158/158/158
f 175/175/175 179/179/179 168/168/168
f 85/85/85 123/123/123 146/146/146
f 121/121/121 259/259/259 163/163/163
f 169/169/169 182/182/182 172/172/172
f 98/98/98 111/111/111 185/185/185
f 95/95/95 183/183/183 104/104/104
f 133/133/133 241/241/241 178/178/178
f 171/171/171 189/189/189 193/193/193
f 106/106/106 186/186/186 196/196/196
f 124/124/124 164/164/164 201/201/201
f 122/122/122 199/199/199 149/149/149
f 172/172/172 182/182/182 190/190/190
f 118/118/118 142/142/142 140/140/140
f 173/173/173 194/194/194 176/176/176
f 137/137/137 214/214/214 154/154/154
f 137/137/137 148/148/148 214/214/214
f 123/123/123 150/150/150 204/204/204
f 123/123/123 204/204/204 146/146/146
f 168/168/168 179/179/179 211/211/211
f 165/165/165 210/210/210 215/215/215
f 169/169/169 222/222/222 182/182/182
f 164/164/164 227/227/227 201/201/201
f 182/182/182 209/209/209 190/190/190
f 176/176/176 229/229/229 232/232/232
f 214/214/214 148/148/148 218/218/218
f 166/166/166 216/216/216 219/219/219
f 150/150/150 234/234/234 204/204/204
f 150/150/150 200/200/200 236/236/236
f 176/176/176 194/194/194 229/229/229
f 100/100/100 155/155/155 243/243/243
f 100/100/100 243/243/243 260/260/260
f 134/134/134 131/131/131 242/242/242
f 176/176/176 232/232/232 181/181/181
f 180/180/180 230/230/230 212/212/212
f 131/131/131 249/249/249 242/242/242
f 148/148/148 207/207/207 218/218/218
f 192/192/192 188/188/188 251/251/251
f 144/144/144 198/198/198 254/254/254
f 144/144/144 254/254/254 245/245/245
f 150/150/150 236/236/236 234/234/234
f 151/151/151 256/256/256 130/130/130
f 217/217/217 206/206/206 220/220/220
f 163/163/163 260/260/260 223/223/223
f 126/126/126 139/139/139 276/276/276
f 198/198/198 258/258/258 254/254/254
f 195/195/195 184/184/184 270/270/270
f 196/196/196 273/273/273 257/257/257
f 196/196/196 271/271/271 273/273/273
f 202/202/202 226/226/226 237/237/237
f 110/110/110 262/262/262 274/274/274
f 111/111/111 275/275/275 185/185/185
f 185/185/185 275/275/275 264/264/264
f 213/213/213 231/231/231 152/152/152
f 182/182/182 221/221/221 209/209/209
f 151/151/151 230/230/230 256/256/256
f 194/194/194 252/252/252 229/229/229
f 125/125/125 277/277/277 128/128/128
f 145/145/145 246/246/246 280/280/280
f 128/128/128 277/277/277 283/283/283
f 223/223/223 260/260/260 286/286/286
f 223/223/223 286/286/286 268/268/268
f 130/130/130 256/256/256 248/248/248
f 141/141/141 278/278/278 138/138/138
f 288/288/288 296/296/296 292/292/292
f 290/290/290 304/304/304 300/300/300
f 190/190/190 209/209/209 306/306/306
f 111/111/111 129/129/129 309/309/309
f 293/293/293 298/298/298 278/278/278
f 138/138/138 278/278/278 327/327/327
f 291/291/291 295/295/295 311/311/311
f 291/291/291 311/311/311 303/303/303
f 297/297/297 289/289/289 312/312/312
f 278/278/278 298/298/298 327/327/327
f 220/220/220 206/206/206 318/318/318
f 220/220/220 318/318/318 305/305/305
f 220/220/220 305/305/305 208/208/208
f 129/129/129 285/285/285 309/309/309
f 139/139/139 326/326/326 276/276/276
f 111/111/111 309/309/309 263/263/263
f 254/254/254 258/258/258 321/321/321
f 205/205/205 315/315/315 317/317/317
f 245/245/245 254/254/254 279/279/279
f 256/256/256 230/230/230 323/323/323
f 289/289/289 299/299/299 312/312/312
f 298/298/298 313/313/313 364/364/364
f 298/298/298 364/364/364 327/327/327
f 156/156/156 162/162/162 332/332/332
f 156/156/156 332/332/332 244/244/244
f 226/226/226 388/388/388 237/237/237
f 301/301/301 310/310/310 324/324/324
f 276/276/276 326/326/326 282/282/282
f 279/279/279 254/254/254 294/294/294
f 230/230/230 228/228/228 323/323/323
f 161/161/161 157/157/157 330/330/330
f 203/203/203 233/233/233 314/314/314
f 240/240/240 247/247/247 333/333/333
f 184/184/184 266/266/266 270/270/270
f 191/191/191 307/307/307 339/339/339
f 299/299/299 340/340/340 312/312/312
f 295/295/295 255/255/255 343/343/343
f 295/295/295 343/343/343 311/311/311
f 256/256/256 323/323/323 248/248/248
f 254/254/254 321/321/321 342/342/342
f 160/160/160 178/178/178 344/344/344
f 160/160/160 344/344/344 331/331/331
f 178/178/178 241/241/241 344/344/344
f 187/187/187 336/336/336 250/250/250
f 307/307/307 320/320/320 339/339/339
f 250/250/250 336/336/336 347/347/347
f 323/323/323 350/350/350 248/248/248
f 300/300/300 304/304/304 356/356/356
f 233/233/233 235/235/235 314/314/314
f 241/241/241 334/334/334 361/361/361
f 241/241/241 361/361/361 344/344/344
f 260/260/260 243/243/243 286/286/286
f 323/323/323 228/228/228 350/350/350
f 302/302/302 325/325/325 355/355/355
f 253/253/253 348/348/348 352/352/352
f 252/252/252 351/351/351 229/229/229
f 284/284/284 329/329/329 370/370/370
f 281/281/281 367/367/367 358/358/358
f 338/338/338 316/316/316 239/239/239
f 338/338/338 319/319/319 316/316/316
f 247/247/247 349/349/349 333/333/333
f 285/285/285 360/360/360 309/309/309
f 225/225/225 269/269/269 373/373/373
f 224/224/224 372/372/372 387/387/387
f 244/244/244 332/332/332 377/377/377
f 311/311/311 343/343/343 391/391/391
f 238/238/238 389/389/389 337/337/337
f 336/336/336 385/385/385 347/347/347
f 313/313/313 341/341/341 364/364/364
f 263/263/263 309/309/309 381/381/381
f 311/311/311 391/391/391 325/325/325
f 333/333/333 349/349/349 383/383/383
f 346/346/346 386/386/386 349/349/349
f 390/390/390 375/375/375 384/384/384
f 321/321/321 393/393/393 342/342/342
f 353/353/353 398/398/398 299/299/299
f 383/383/383 349/349/349 386/386/386
f 354/354/354 402/402/402 400/400/400
f 265/265/265 395/395/395 271/271/271
f 299/299/299 398/398/398 340/340/340
f 263/263/263 405/405/405 275/275/275
f 264/264/264 275/275/275 394/394/394
f 335/335/335 384/384/384 363/363/363
f 271/271/271 407/407/407 273/273/273
f 272/272/272 397/397/397 408/408/408
f 355/355/355 325/325/325 409/409/409
f 357/357/357 410/410/410 404/404/404
f 331/331/331 344/344/344 376/376/376
f 258/258/258 412/412/412 321/321/321
f 268/268/268 286/286/286 421/421/421
f 359/359/359 368/368/368 416/416/416
f 364/364/364 341/341/341 426/426/426
f 275/275/275 405/405/405 394/394/394
f 384/384/384 430/430/430 363/363/363
f 267/267/267 420/420/420 371/371/371
f 244/244/244 377/377/377 431/431/431
f 244/244/244 431/431/431 287/287/287
f 257/257/257 273/273/273 413/413/413
f 325/325/325 392/392/392 409/409/409
f 392/392/392 322/322/322 434/434/434
f 374/374/374 422/422/422 427/427/427
f 375/375/375 430/430/430 384/384/384
f 328/328/328 365/365/365 369/369/369
f 340/340/340 398/398/398 425/425/425
f 392/392/392 434/434/434 409/409/409
f 287/287/287 431/431/431 423/423/423
f 399/399/399 437/437/437 426/426/426
f 321/321/321 412/412/412 435/435/435
f 401/401/401 404/404/404 439/439/439
f 273/273/273 440/440/440 413/413/413
f 273/273/273 407/407/407 440/440/440
f 426/426/426 437/437/437 366/366/366
f 426/426/426 366/366/366 364/364/364
f 345/345/345 362/362/362 432/432/432
f 345/345/345 432/432/432 378/378/378
f 360/360/360 418/418/418 309/309/309
f 263/263/263 381/381/381 405/405/405
f 308/308/308 415/415/415 379/379/379
f 428/428/428 432/432/432 362/362/362
f 368/368/368 444/444/444 416/416/416
f 424/424/424 432/432/432 429/429/429
f 410/410/410 436/436/436 404/404/404
f 396/396/396 406/406/406 448/448/448
f 437/437/437 443/443/443 366/366/366
f 438/438/438 403/403/403 445/445/445
f 411/411/411 445/445/445 433/433/433
f 408/408/408 397/397/397 449/449/449
f 403/403/403 433/433/433 445/445/445
f 413/413/413 440/440/440 450/450/450
f 446/446/446 414/414/414 419/419/419
f 380/380/380 417/417/417 452/452/452
f 414/414/414 451/451/451 419/419/419
f 406/406/406 454/454/454 448/448/448
f 419/419/419 451/451/451 455/455/455
f 408/408/408 449/449/449 441/441/441
f 447/447/447 453/453/453 456/456/456
f 382/382/382 454/454/454 406/406/406
f 449/449/449 457/457/457 441/441/441
f 451/451/451 442/442/442 458/458/458
f 451/451/451 458/458/458 455/455/455
