# 由 henjicc/yipiantian 的 lingcao_ninglu_young 转换而来（见 manifest.json）
mtllib lingcao_ninglu_young.mtl
o lingcao_ninglu_young
v -0.07681 0.12516 -0.06812
v -0.07781 0.13110 -0.05936
v -0.07477 0.13364 -0.05746
v -0.07523 0.13582 -0.05161
v -0.06292 0.02681 0.10833
v -0.06903 0.12516 -0.07013
v -0.06440 0.12688 -0.06860
v -0.06894 0.13504 -0.05714
v -0.06641 0.13757 -0.04534
v -0.06799 0.13838 -0.03722
v -0.06426 0.13627 -0.02774
v -0.05408 0.01586 0.06416
v -0.05342 0.01722 0.06792
v -0.06162 0.02079 0.08344
v -0.05777 0.02248 0.07523
v -0.05913 0.02599 0.09042
v -0.06044 0.02379 0.09348
v -0.06128 0.02660 0.11428
v -0.05909 0.02777 0.11805
v -0.05575 0.03053 0.08617
v -0.05954 0.03191 0.09654
v -0.05585 0.03442 0.11627
v -0.05628 0.03137 0.11932
v -0.05458 0.03543 0.08905
v -0.05493 0.03700 0.11371
v -0.05444 0.05640 0.09972
v -0.05444 0.05681 0.10706
v -0.05578 0.11732 0.00092
v -0.05941 0.12447 -0.07006
v -0.05551 0.12144 -0.00780
v -0.05872 0.12023 -0.00233
v -0.05990 0.12710 -0.06775
v -0.05751 0.13001 -0.06405
v -0.05885 0.12999 -0.02018
v -0.06082 0.12924 -0.01594
v -0.05950 0.13651 -0.05485
v -0.05982 0.13747 -0.04560
v -0.06005 0.13446 -0.02681
v -0.05530 0.15750 0.06512
v -0.05490 0.15921 0.07601
v -0.05437 0.15806 0.08296
v -0.04808 0.01511 0.05410
v -0.05171 0.01832 0.06491
v -0.05271 0.01774 0.06789
v -0.04666 0.02317 0.06283
v -0.05129 0.02503 0.06867
v -0.05216 0.03413 0.08214
v -0.05154 0.03591 0.08330
v -0.05201 0.03857 0.12318
v -0.04774 0.03889 0.13425
v -0.04555 0.04829 0.05923
v -0.04582 0.04446 0.08946
v -0.04938 0.04528 0.10355
v -0.04979 0.04500 0.11025
v -0.04902 0.04459 0.12023
v -0.04637 0.04199 0.12940
v -0.05079 0.05020 0.06625
v -0.04942 0.05332 0.07400
v -0.04787 0.05362 0.11367
v -0.04767 0.05656 0.08788
v -0.04687 0.05955 0.10058
v -0.04952 0.05839 0.10906
v -0.04514 0.11121 -0.00137
v -0.04539 0.11787 -0.01352
v -0.05041 0.11387 0.00157
v -0.04956 0.12454 -0.06883
v -0.04823 0.12549 -0.02539
v -0.05013 0.12046 -0.01151
v -0.04819 0.12604 -0.06707
v -0.04473 0.12618 -0.06456
v -0.04418 0.13104 -0.04145
v -0.04936 0.12698 -0.02501
v -0.04792 0.13136 0.03406
v -0.05061 0.13514 -0.04760
v -0.04915 0.13484 0.03581
v -0.05049 0.14109 0.04040
v -0.04497 0.15075 0.04866
v -0.04667 0.15560 0.05313
v -0.05056 0.15569 0.06113
v -0.05114 0.15987 0.07559
v -0.04945 0.15767 0.08597
v -0.04039 0.01143 0.04180
v -0.04142 0.01282 0.04446
v -0.03811 0.01572 0.04571
v -0.04315 0.02514 0.06132
v -0.04090 0.03433 0.01614
v -0.04149 0.03456 0.02065
v -0.03739 0.03707 0.01251
v -0.03803 0.03644 0.02372
v -0.03680 0.03994 0.04254
v -0.03886 0.04138 0.04581
v -0.03488 0.03721 0.06757
v -0.03953 0.04090 0.07564
v -0.04259 0.04017 0.13774
v -0.03783 0.04320 0.04796
v -0.04227 0.04774 0.05649
v -0.04309 0.04322 0.08276
v -0.04140 0.04818 0.12262
v -0.04186 0.04656 0.13635
v -0.03929 0.04572 0.14397
v -0.03572 0.05167 -0.02048
v -0.03509 0.05102 -0.01614
v -0.03810 0.05423 0.07164
v -0.03719 0.05124 0.09036
v -0.03605 0.05458 0.10085
v -0.03534 0.05469 0.10546
v -0.03939 0.05050 0.12104
v -0.04217 0.05154 0.13390
v -0.03912 0.05622 0.07838
v -0.04199 0.05636 0.08125
v -0.03688 0.05799 0.10250
v -0.04049 0.06196 0.10628
v -0.04035 0.05909 0.12844
v -0.03734 0.05769 0.13521
v -0.03606 0.06428 0.09932
v -0.03615 0.06615 0.12584
v -0.03632 0.06470 0.12933
v -0.03561 0.08257 0.00547
v -0.03661 0.08335 0.00880
v -0.03584 0.08467 0.01255
v -0.03582 0.09611 -0.00025
v -0.03591 0.10372 -0.00857
v -0.04064 0.10304 0.00004
v -0.03762 0.10642 -0.00862
v -0.04186 0.10957 -0.00438
v -0.03773 0.11394 0.02454
v -0.03840 0.12377 -0.06034
v -0.03734 0.12188 -0.03338
v -0.04012 0.12235 0.02789
v -0.04107 0.12652 -0.05776
v -0.04076 0.12735 -0.03775
v -0.03967 0.12694 0.03050
v -0.03654 0.13865 0.03974
v -0.04077 0.14068 0.04054
v -0.03825 0.14557 0.04448
v -0.04132 0.14842 0.04695
v -0.04088 0.15491 0.05420
v -0.04363 0.15470 0.05567
v -0.03969 0.15622 0.08433
v -0.04035 0.16072 0.07448
v -0.02820 0.01302 -0.03096
v -0.03187 0.01382 -0.02886
v -0.03114 0.01263 0.03529
v -0.03067 0.01615 -0.02476
v -0.02727 0.01906 -0.01143
v -0.02558 0.01901 -0.00451
v -0.03102 0.01701 0.04199
v -0.03172 0.01788 0.04456
v -0.02713 0.03374 -0.00014
v -0.02585 0.02872 0.05321
v -0.03105 0.03372 0.06149
v -0.02748 0.03672 0.00461
v -0.02960 0.03789 0.01105
v -0.03121 0.03668 0.02629
v -0.03037 0.03903 0.03775
v -0.02850 0.04129 0.06718
v -0.02576 0.04815 -0.00593
v -0.02735 0.04698 -0.00348
v -0.02928 0.04387 0.04669
v -0.02695 0.04213 0.06709
v -0.02749 0.04547 0.07084
v -0.03299 0.04804 0.14912
v -0.02944 0.05182 -0.02476
v -0.03043 0.05063 -0.01206
v -0.03074 0.05210 0.07431
v -0.03029 0.05423 0.08573
v -0.03420 0.05581 0.09438
v -0.03401 0.05563 0.11052
v -0.03092 0.05288 0.14746
v -0.03132 0.05613 0.09046
v -0.03335 0.05636 0.09507
v -0.02903 0.05735 0.14563
v -0.03433 0.06853 0.12707
v -0.02927 0.06675 0.13733
v -0.03327 0.08303 0.00222
v -0.02872 0.08987 -0.00670
v -0.02855 0.08493 -0.00191
v -0.02970 0.08638 0.01219
v -0.02743 0.09561 -0.01888
v -0.03364 0.09449 -0.00198
v -0.02736 0.09616 0.02271
v -0.02927 0.10122 -0.02134
v -0.02890 0.10227 0.02390
v -0.02782 0.10936 -0.05766
v -0.03105 0.10669 -0.02407
v -0.03252 0.11070 0.02489
v -0.02927 0.11203 -0.05690
v -0.02997 0.11496 -0.04688
v -0.03310 0.11257 -0.02722
v -0.03424 0.12101 -0.05601
v -0.03340 0.12007 -0.05206
v -0.03247 0.12199 0.02976
v -0.03126 0.13777 0.04011
v -0.03091 0.14057 0.04236
v -0.02959 0.15297 0.08763
v -0.02959 0.15712 0.06210
v -0.03232 0.15694 0.07679
v -0.03251 0.15496 0.08330
v -0.02312 0.01321 -0.03132
v -0.01956 0.01382 0.02749
v -0.01894 0.01573 -0.03023
v -0.02137 0.01926 -0.02350
v -0.02306 0.01963 -0.01297
v -0.02063 0.01817 -0.00298
v -0.02052 0.01491 0.02825
v -0.01915 0.01888 0.03543
v -0.01792 0.02736 -0.00096
v -0.01942 0.02284 0.04213
v -0.02202 0.02503 0.04651
v -0.02332 0.03083 -0.00163
v -0.01853 0.03160 0.00978
v -0.01701 0.03397 0.02480
v -0.01641 0.03119 0.04186
v -0.01710 0.03433 0.04726
v -0.02086 0.03963 0.00090
v -0.02360 0.03693 0.01306
v -0.01964 0.03627 0.02294
v -0.02152 0.03958 0.03301
v -0.01792 0.03752 0.05262
v -0.01833 0.04076 0.05636
v -0.01655 0.04623 -0.00793
v -0.01881 0.04736 0.06445
v -0.02000 0.05291 -0.02389
v -0.02088 0.05075 -0.01167
v -0.02267 0.05053 0.07238
v -0.02325 0.05581 0.15101
v -0.01655 0.05827 0.06730
v -0.01778 0.06087 0.07236
v -0.01915 0.05690 0.15279
v -0.01696 0.05807 0.15306
v -0.01750 0.06724 -0.09798
v -0.01915 0.06374 0.07865
v -0.02148 0.06839 0.08973
v -0.02072 0.06723 0.14404
v -0.01751 0.07072 -0.09233
v -0.01641 0.07222 -0.08987
v -0.01833 0.07373 -0.01067
v -0.02079 0.07564 -0.00410
v -0.02319 0.07202 0.10040
v -0.02476 0.07487 0.12092
v -0.02366 0.07270 0.13309
v -0.01676 0.08201 -0.07377
v -0.01937 0.08048 -0.00864
v -0.02065 0.08238 -0.00210
v -0.01690 0.08614 -0.02179
v -0.02503 0.08864 -0.01614
v -0.02208 0.08526 0.00270
v -0.01813 0.08564 0.01297
v -0.01865 0.08832 0.02250
v -0.01707 0.09426 -0.03319
v -0.01812 0.09254 -0.02756
v -0.02129 0.09329 0.02398
v -0.02220 0.10398 -0.04911
v -0.02084 0.10183 -0.03865
v -0.02412 0.10300 0.02603
v -0.02476 0.10690 -0.05465
v -0.02367 0.10597 -0.05181
v -0.02517 0.10628 0.02613
v -0.01883 0.11630 0.00537
v -0.01806 0.11576 0.01103
v -0.01600 0.11545 0.03584
v -0.01628 0.12106 0.03748
v -0.01682 0.12748 0.03980
v -0.01874 0.13802 0.04487
v -0.02079 0.14458 0.04897
v -0.02298 0.14937 0.05280
v -0.01956 0.15195 0.07848
v -0.01914 0.15118 0.08280
v -0.00793 0.00223 0.00260
v -0.00780 0.01299 -0.00629
v -0.00779 0.00973 0.00124
v -0.00931 0.01081 0.01352
v -0.01477 0.01299 0.02257
v -0.01208 0.01938 -0.02246
v -0.01275 0.01827 -0.01026
v -0.01181 0.01888 -0.00220
v -0.00780 0.01860 0.01464
v -0.01233 0.01699 0.02439
v -0.01100 0.02382 0.00391
v -0.00854 0.02487 0.01037
v -0.01180 0.02339 0.02677
v -0.00858 0.03109 -0.00243
v -0.00928 0.03103 0.01594
v -0.01304 0.03121 0.02218
v -0.01475 0.02902 0.03789
v -0.01190 0.03844 -0.00533
v -0.01340 0.03570 0.00123
v -0.01135 0.03625 0.02189
v -0.00821 0.03953 0.03529
v -0.00807 0.04842 -0.01847
v -0.01075 0.04504 -0.01197
v -0.00725 0.04883 0.00068
v -0.01094 0.04555 0.04537
v -0.01126 0.05052 -0.01885
v -0.01468 0.05046 -0.01635
v -0.00775 0.05163 0.00221
v -0.01368 0.05170 0.05581
v -0.01393 0.06162 -0.10403
v -0.00932 0.06036 0.00020
v -0.01559 0.05608 0.06333
v -0.01320 0.06066 0.15258
v -0.00829 0.06571 -0.10358
v -0.01472 0.06793 -0.09624
v -0.00947 0.06796 -0.00914
v -0.01257 0.06886 -0.00240
v -0.00853 0.06568 0.01443
v -0.00837 0.06766 0.14698
v -0.01282 0.07040 -0.09342
v -0.01450 0.07427 -0.08713
v -0.01067 0.07564 -0.01847
v -0.01154 0.07449 -0.01330
v -0.00760 0.07145 -0.00247
v -0.00919 0.07479 0.01226
v -0.01122 0.07154 0.02079
v -0.00894 0.07549 0.09615
v -0.00955 0.07365 0.13651
v -0.00913 0.07082 0.14234
v -0.00944 0.07783 -0.08276
v -0.01422 0.08284 -0.07005
v -0.01003 0.08216 -0.05745
v -0.00680 0.07949 -0.03980
v -0.01237 0.08258 -0.02535
v -0.01482 0.07742 -0.00652
v -0.01416 0.08070 0.00404
v -0.01148 0.08036 0.01531
v -0.01411 0.08152 0.02554
v -0.00807 0.07687 0.09931
v -0.00713 0.07906 0.11001
v -0.01457 0.08399 -0.06709
v -0.01354 0.08399 -0.06292
v -0.01442 0.08468 -0.02472
v -0.01527 0.08472 0.01687
v -0.01032 0.08617 0.02749
v -0.01532 0.09178 0.03023
v -0.00695 0.10245 -0.00875
v -0.01573 0.09947 0.03210
v -0.00752 0.10712 -0.00695
v -0.00845 0.11074 -0.00123
v -0.00745 0.11149 0.00915
v -0.01587 0.10957 0.03433
v -0.01267 0.11456 0.00101
v -0.01017 0.11416 0.01221
v -0.00842 0.13851 0.05641
v -0.00944 0.14177 0.06009
v -0.00769 0.14605 0.07448
v -0.01326 0.14915 0.07879
v -0.01424 0.14947 0.08030
v -0.00228 0.00000 -0.00634
v -0.00289 0.00469 0.00049
v -0.00412 0.00506 0.00827
v -0.00167 0.00989 -0.00593
v -0.00315 0.00915 0.00073
v -0.00181 0.00962 0.01018
v -0.00547 0.02086 -0.01936
v -0.00252 0.01847 -0.01309
v -0.00219 0.01675 0.00498
v -0.00392 0.01772 0.01020
v -0.00473 0.02117 -0.01825
v -0.00383 0.02106 -0.01723
v -0.00218 0.02437 -0.00094
v -0.00009 0.02399 0.01185
v -0.00107 0.03339 -0.00801
v -0.00045 0.03134 0.00160
v 0.00036 0.02994 0.01176
v -0.00561 0.03365 0.02544
v -0.00336 0.03561 -0.00743
v 0.00210 0.03839 0.00064
v 0.00027 0.03515 0.01436
v -0.00034 0.03885 0.02277
v -0.00380 0.04554 -0.01265
v -0.00199 0.04603 0.00150
v -0.00198 0.04692 0.00728
v -0.00068 0.04359 0.02927
v 0.00109 0.04842 0.03707
v -0.00024 0.04945 -0.00708
v -0.00225 0.05238 0.00045
v -0.00176 0.05199 0.00866
v 0.00101 0.05149 0.04011
v -0.00520 0.06087 -0.00670
v -0.00209 0.06026 0.00168
v -0.00367 0.05703 0.01070
v 0.00219 0.06361 -0.11519
v -0.00076 0.06619 -0.11187
v -0.00495 0.06927 -0.10229
v -0.00283 0.06607 0.00010
v -0.00188 0.06681 0.01270
v 0.00112 0.06482 0.06457
v 0.00219 0.06798 0.06908
v -0.00008 0.07252 -0.10409
v -0.00171 0.07446 -0.09987
v 0.00260 0.07660 -0.02777
v -0.00096 0.07239 0.00178
v -0.00211 0.07214 0.01008
v -0.00395 0.07514 0.02277
v 0.00143 0.07501 0.08375
v -0.00596 0.07630 0.09526
v -0.00431 0.07431 0.13709
v -0.00221 0.08301 -0.07256
v -0.00305 0.08262 -0.04997
v -0.00299 0.07966 -0.03938
v 0.00147 0.08101 -0.00135
v -0.00262 0.07952 0.01183
v -0.00245 0.07912 0.02808
v -0.00298 0.08299 0.03176
v -0.00109 0.07950 0.09965
v -0.00157 0.08111 0.11087
v -0.00062 0.08052 0.12069
v 0.00021 0.07804 0.13152
v 0.00260 0.08412 -0.06976
v -0.00007 0.08937 -0.00606
v 0.00148 0.08751 -0.00207
v -0.00219 0.08546 0.01689
v -0.00449 0.08721 0.02827
v -0.00480 0.08670 0.03204
v -0.00163 0.09413 -0.00786
v -0.00047 0.09388 -0.00311
v -0.00087 0.09292 0.02186
v -0.00374 0.09443 0.03625
v -0.00228 0.10163 -0.01124
v -0.00302 0.10228 -0.00005
v 0.00083 0.10331 0.00988
v -0.00092 0.10329 0.04104
v 0.00174 0.10618 -0.01925
v -0.00308 0.10574 -0.01128
v -0.00600 0.10782 -0.00005
v -0.00091 0.10815 0.01132
v -0.00367 0.10615 0.03844
v -0.00529 0.11362 0.01400
v -0.00267 0.13779 0.06383
v -0.00095 0.13773 0.06911
v 0.00342 0.00000 -0.00616
v 0.00554 0.00216 -0.00016
v 0.00328 0.00910 -0.00588
v 0.00597 0.00917 0.00008
v 0.00520 0.01955 0.00299
v 0.00667 0.02487 0.00167
v 0.00606 0.02531 0.00946
v 0.00654 0.03112 -0.00226
v 0.00584 0.03166 0.00879
v 0.00410 0.04158 -0.00041
v 0.00495 0.04662 -0.00679
v 0.00670 0.04595 0.00131
v 0.00916 0.04213 0.00875
v 0.01070 0.05412 -0.12415
v 0.00695 0.05185 0.00173
v 0.00479 0.05403 0.00725
v 0.00684 0.05824 -0.12092
v 0.00635 0.05995 -0.00881
v 0.00406 0.05823 0.00347
v 0.00356 0.06050 0.00839
v 0.00482 0.05820 0.04866
v 0.00532 0.06455 -0.11543
v 0.00860 0.06818 -0.11248
v 0.00916 0.06456 -0.01778
v 0.00499 0.06737 -0.01621
v 0.00397 0.06896 0.00241
v 0.01044 0.06447 0.05353
v 0.00684 0.06764 0.06639
v 0.00947 0.06885 0.06834
v 0.00936 0.07041 -0.11077
v 0.00328 0.07619 -0.09698
v 0.00497 0.07313 -0.02405
v 0.00527 0.07242 0.00117
v 0.00547 0.07359 0.00748
v 0.01061 0.07504 0.07718
v 0.00802 0.07621 0.08179
v 0.00335 0.07694 -0.09719
v 0.00461 0.08332 -0.07257
v 0.00328 0.08139 -0.04295
v 0.00416 0.08001 -0.03837
v 0.00506 0.08180 -0.00657
v 0.00508 0.08116 -0.00067
v 0.00736 0.08032 0.00854
v 0.00753 0.07944 0.08897
v 0.00865 0.08178 0.09717
v 0.00528 0.08272 0.10877
v 0.00506 0.08419 -0.07085
v 0.00699 0.08875 -0.00806
v 0.00495 0.08802 0.00192
v 0.00672 0.08798 0.01077
v 0.00780 0.09032 0.02371
v 0.00649 0.09548 -0.01013
v 0.00554 0.09282 -0.00004
v 0.00458 0.09410 0.01039
v 0.01087 0.10385 -0.03659
v 0.00458 0.09921 -0.01117
v 0.00327 0.10022 0.01299
v 0.00274 0.10163 0.02503
v 0.00880 0.10789 -0.03195
v 0.00762 0.10802 -0.02297
v 0.00711 0.10710 0.02968
v 0.01108 0.11052 0.03433
v 0.01040 0.11777 0.05047
v 0.00687 0.12134 0.04824
v 0.01060 0.12804 0.06408
v 0.00918 0.13032 0.06969
v 0.00453 0.13460 0.06987
v 0.01227 0.02955 0.00182
v 0.01444 0.03956 0.00241
v 0.01231 0.04008 0.00903
v 0.01634 0.04729 -0.12645
v 0.02093 0.04760 0.00520
v 0.01396 0.05197 -0.12478
v 0.01799 0.05027 0.00055
v 0.01693 0.05017 0.00963
v 0.01538 0.05751 -0.12333
v 0.01655 0.06292 -0.12010
v 0.01416 0.06757 -0.01368
v 0.01549 0.06835 0.06205
v 0.01313 0.06940 0.06794
v 0.01245 0.07537 -0.03064
v 0.01796 0.07355 -0.02002
v 0.01587 0.08255 -0.04541
v 0.01368 0.07879 -0.03625
v 0.01961 0.08504 -0.05864
v 0.01376 0.08798 0.00170
v 0.01698 0.09024 0.01417
v 0.01600 0.08773 0.02626
v 0.01648 0.09487 -0.00938
v 0.01901 0.09096 0.00880
v 0.01556 0.10309 -0.03701
v 0.01909 0.10095 -0.01430
v 0.01698 0.10628 -0.03488
v 0.01826 0.10743 -0.02445
v 0.01272 0.11175 0.03707
v 0.01829 0.11108 0.04794
v 0.01582 0.11216 0.04053
v 0.01460 0.11504 0.05250
v 0.01321 0.12440 0.06291
v 0.01245 0.12612 0.06415
v 0.02281 0.04794 -0.12526
v 0.02503 0.05218 -0.12224
v 0.02777 0.05471 0.00616
v 0.02549 0.05873 -0.12023
v 0.02659 0.06092 -0.11159
v 0.02528 0.05775 0.00098
v 0.02431 0.05766 0.01118
v 0.02566 0.06651 -0.11673
v 0.02839 0.06449 -0.10819
v 0.02581 0.07376 -0.10767
v 0.02572 0.07981 -0.09602
v 0.02697 0.08301 -0.08329
v 0.03023 0.08002 -0.03228
v 0.02452 0.07824 -0.02730
v 0.02493 0.08442 -0.07334
v 0.02202 0.08522 -0.06579
v 0.02387 0.08876 0.01434
v 0.02377 0.08518 0.02219
v 0.02168 0.09732 -0.01217
v 0.02651 0.10356 -0.03364
v 0.02612 0.10352 -0.02159
v 0.02381 0.10049 -0.01518
v 0.02625 0.10537 -0.03302
v 0.02430 0.10548 -0.02740
v 0.03666 0.06155 0.00698
v 0.03223 0.06398 -0.10808
v 0.03576 0.06797 -0.09796
v 0.03521 0.06448 0.00038
v 0.03488 0.06519 0.01644
v 0.03980 0.06839 0.01942
v 0.03789 0.07633 -0.10929
v 0.03407 0.07140 -0.09570
v 0.03625 0.07851 -0.10273
v 0.03595 0.08180 -0.09342
v 0.03228 0.08272 -0.08648
v 0.03958 0.08104 -0.06905
v 0.03641 0.07971 -0.04378
v 0.03850 0.07946 -0.03550
v 0.04473 0.06858 -0.00100
v 0.04500 0.06607 0.00752
v 0.04268 0.06949 0.02312
v 0.04482 0.07313 -0.11964
v 0.03994 0.07482 -0.11353
v 0.04815 0.07605 -0.09083
v 0.04670 0.07597 -0.07209
v 0.04792 0.07472 -0.05789
v 0.04402 0.07490 -0.04389
v 0.04439 0.07488 -0.04021
v 0.04705 0.07017 0.02770
v 0.04692 0.08029 -0.11182
v 0.04158 0.08282 -0.09821
v 0.04440 0.07696 -0.09022
v 0.04257 0.07941 -0.06945
v 0.04222 0.07742 -0.04587
v 0.04149 0.07788 -0.03812
v 0.04678 0.08494 -0.09999
v 0.05362 0.06976 -0.00369
v 0.05362 0.06908 0.00793
v 0.05403 0.07504 -0.12590
v 0.05490 0.07248 -0.09172
v 0.05352 0.07458 -0.08241
v 0.05187 0.07111 -0.07111
v 0.05037 0.07236 -0.06082
v 0.05348 0.07058 -0.00328
v 0.05700 0.07146 0.02437
v 0.05648 0.07135 0.03196
v 0.05479 0.07951 -0.12246
v 0.05649 0.08412 -0.11791
v 0.05376 0.08572 -0.11034
v 0.06356 0.07040 -0.00935
v 0.06265 0.07065 0.00814
v 0.06001 0.07192 0.02768
v 0.07583 0.06521 -0.01910
v 0.07051 0.06839 -0.01607
v 0.07660 0.07044 0.00848
v 0.07284 0.07092 0.03406
v 0.08371 0.06210 -0.02070
v 0.07922 0.06442 -0.01876
v 0.07946 0.06514 -0.01686
v 0.08282 0.06668 0.04001
v 0.09218 0.05791 -0.01968
v 0.09300 0.06008 -0.01474
v 0.09226 0.06257 0.03827
v 0.09032 0.06452 -0.00750
v 0.09192 0.06484 -0.00520
v 0.08845 0.06801 0.00878
v 0.09019 0.06638 0.02804
v 0.08936 0.06452 0.03772
v 0.10245 0.05376 -0.02113
v 0.09780 0.06005 -0.01163
v 0.10160 0.05964 0.04056
v 0.10013 0.06347 0.00903
v 0.09602 0.06415 0.03023
v 0.09766 0.06319 0.03310
v 0.11294 0.04017 -0.02362
v 0.10880 0.04598 -0.02339
v 0.11340 0.04692 0.03792
v 0.10519 0.04979 -0.02421
v 0.11257 0.05540 0.00930
v 0.11228 0.05246 0.02695
v 0.10924 0.05200 0.04277
v 0.10859 0.05225 0.04394
v 0.10505 0.05595 0.04391
v 0.11769 0.03332 -0.01931
v 0.11890 0.03358 -0.01540
v 0.12321 0.03445 0.03584
v 0.11517 0.03680 -0.02312
v 0.11908 0.03811 -0.01146
v 0.12085 0.03967 0.03515
v 0.11679 0.04459 -0.00640
v 0.11640 0.04737 -0.00187
v 0.12297 0.04528 0.00957
v 0.11695 0.04774 0.02756
v 0.11491 0.04613 0.03526
v 0.11504 0.04911 -0.00260
v 0.11846 0.05020 0.00944
v 0.11463 0.05075 0.02462
v 0.13207 0.00981 0.00417
v 0.13135 0.01221 0.01368
v 0.13118 0.01722 -0.00106
v 0.13102 0.01727 0.01684
v 0.12998 0.01648 0.02065
v 0.12873 0.02362 -0.00743
v 0.12999 0.02376 -0.00320
v 0.13191 0.02521 0.01172
v 0.12734 0.02666 0.02850
v 0.12644 0.02711 0.03253
v 0.12633 0.02950 -0.00982
v 0.13063 0.03228 0.00971
v 0.12699 0.03222 0.02358
v 0.12478 0.03106 0.03491
v 0.12830 0.03748 0.00971
v 0.12634 0.03506 0.02289
v 0.13282 0.01710 0.00957
vt 0.63776 0.82302
vt 0.51738 0.65949
vt 0.39404 0.44355
vt 0.45312 0.57886
vt 0.74503 0.04455
vt 0.31743 0.61852
vt 0.26819 0.65028
vt 0.40461 0.73850
vt 0.50800 0.66529
vt 0.40892 0.30056
vt 0.47697 0.41487
vt 0.35508 0.28049
vt 0.37300 0.31543
vt 0.78570 0.41108
vt 0.29271 0.17686
vt 0.47452 0.26104
vt 0.33049 0.28368
vt 0.74407 0.06928
vt 0.73702 0.08592
vt 0.19615 0.10188
vt 0.52604 0.05281
vt 0.34919 0.40306
vt 0.31168 0.23574
vt 0.33947 0.11795
vt 0.48407 0.26344
vt 0.00424 0.10478
vt 0.00561 0.07691
vt 0.35493 0.47116
vt 0.21568 0.57262
vt 0.11891 0.48928
vt 0.26460 0.44313
vt 0.39717 0.46294
vt 0.42650 0.57998
vt 0.32290 0.46492
vt 0.34581 0.54318
vt 0.36281 0.76173
vt 0.36510 0.63300
vt 0.93221 0.19349
vt 0.15138 0.69030
vt 0.36848 0.49229
vt 0.90253 0.49258
vt 0.29567 0.27449
vt 0.59006 0.46199
vt 0.60915 0.32424
vt 0.62069 0.54032
vt 0.31507 0.20711
vt 0.09726 0.07967
vt 0.33176 0.11558
vt 0.63580 0.28032
vt 0.50947 0.43274
vt 0.01839 0.27286
vt 0.38759 0.11943
vt 0.52200 0.04966
vt 0.64839 0.21865
vt 0.71139 0.43670
vt 0.78298 0.38458
vt 0.18185 0.34731
vt 0.26255 0.16872
vt 0.40167 0.78446
vt 0.02792 0.15364
vt 0.02488 0.08736
vt 0.12541 0.38181
vt 0.55171 0.59927
vt 0.21122 0.24827
vt 0.46850 0.71944
vt 0.26986 0.43173
vt 0.34719 0.15012
vt 0.31631 0.54576
vt 0.12823 0.45323
vt 0.25859 0.73467
vt 0.56462 0.44101
vt 0.51558 0.38790
vt 0.38451 0.44261
vt 0.52766 0.44244
vt 0.33027 0.49753
vt 0.67785 0.62120
vt 0.40036 0.53355
vt 0.46816 0.41603
vt 0.37512 0.42864
vt 0.36642 0.49483
vt 0.88457 0.47783
vt 0.29443 0.20736
vt 0.51941 0.18897
vt 0.67078 0.51631
vt 0.52307 0.31902
vt 0.96866 0.45690
vt 0.96114 0.44099
vt 0.70545 0.69091
vt 0.89294 0.65316
vt 0.03369 0.35251
vt 0.30639 0.35435
vt 0.39450 0.22140
vt 0.39187 0.18195
vt 0.66941 0.17719
vt 0.51085 0.47997
vt 0.02902 0.28620
vt 0.38956 0.14884
vt 0.56612 0.53900
vt 0.44988 0.44684
vt 0.64187 0.73012
vt 0.62795 0.91438
vt 0.00215 0.89037
vt 0.35936 0.24782
vt 0.63976 0.23739
vt 0.42615 0.32283
vt 0.32820 0.28647
vt 0.57267 0.33378
vt 0.38672 0.48473
vt 0.05731 0.19582
vt 0.04745 0.18282
vt 0.27830 0.23090
vt 0.20969 0.43398
vt 0.34427 0.52284
vt 0.46722 0.49730
vt 0.21619 0.05916
vt 0.45564 0.51256
vt 0.73693 0.80107
vt 0.65950 0.93636
vt 0.65276 0.92376
vt 0.65263 0.90767
vt 0.20428 0.34775
vt 0.51302 0.34783
vt 0.47639 0.33611
vt 0.41910 0.46006
vt 0.54089 0.58498
vt 0.68109 0.42518
vt 0.38684 0.46605
vt 0.56489 0.46212
vt 0.35044 0.44377
vt 0.42783 0.43039
vt 0.73913 0.34606
vt 0.56534 0.66344
vt 0.61861 0.19128
vt 0.78832 0.62916
vt 0.48697 0.42680
vt 0.43456 0.38349
vt 0.50189 0.39717
vt 0.19079 0.92222
vt 0.72901 0.40660
vt 0.58393 0.65342
vt 0.81924 0.22528
vt 0.83606 0.20683
vt 0.33479 0.36867
vt 0.75042 0.23651
vt 0.29335 0.26319
vt 0.45643 0.19439
vt 0.59639 0.47302
vt 0.61307 0.47317
vt 0.70479 0.44437
vt 0.39798 0.29452
vt 0.39620 0.25229
vt 0.51888 0.36705
vt 0.56198 0.67402
vt 0.91179 0.71523
vt 0.05484 0.37630
vt 0.43029 0.21507
vt 0.34188 0.56854
vt 0.68336 0.24433
vt 0.51127 0.50478
vt 0.43102 0.17481
vt 0.33959 0.28105
vt 0.43455 0.60144
vt 0.70497 0.89087
vt 0.01160 0.86756
vt 0.25424 0.25792
vt 0.14796 0.55373
vt 0.70193 0.44169
vt 0.37065 0.16355
vt 0.20546 0.39392
vt 0.20453 0.61672
vt 0.46694 0.35313
vt 0.23636 0.39296
vt 0.27654 0.53227
vt 0.38291 0.79524
vt 0.67249 0.94566
vt 0.45345 0.57509
vt 0.60209 0.84258
vt 0.59709 0.63073
vt 0.46618 0.52387
vt 0.36815 0.22652
vt 0.60116 0.13134
vt 0.48752 0.51256
vt 0.55777 0.41462
vt 0.20130 0.44312
vt 0.50810 0.50029
vt 0.32422 0.42570
vt 0.54669 0.64126
vt 0.50047 0.32066
vt 0.53016 0.48657
vt 0.55671 0.31095
vt 0.45411 0.43203
vt 0.29137 0.58681
vt 0.61279 0.26846
vt 0.61181 0.55609
vt 0.65329 0.94889
vt 0.56243 0.69659
vt 0.62860 0.67075
vt 0.66335 0.57982
vt 0.67451 0.30720
vt 0.95834 0.44587
vt 0.58482 0.33898
vt 0.86457 0.14401
vt 0.66357 0.13060
vt 0.87055 0.07053
vt 0.67063 0.23412
vt 0.36400 0.55108
vt 0.73378 0.47894
vt 0.36278 0.60863
vt 0.36100 0.58674
vt 0.46567 0.28293
vt 0.75617 0.44175
vt 0.79568 0.40406
vt 0.62398 0.59627
vt 0.67892 0.43699
vt 0.55275 0.47887
vt 0.74660 0.41101
vt 0.59099 0.36346
vt 0.27049 0.37766
vt 0.61535 0.28955
vt 0.44987 0.28136
vt 0.65817 0.53356
vt 0.35502 0.25742
vt 0.48205 0.86905
vt 0.04270 0.84661
vt 0.40785 0.23403
vt 0.02232 0.67394
vt 0.14137 0.25108
vt 0.14199 0.22789
vt 0.03840 0.66542
vt 0.04814 0.66425
vt 0.50315 0.38435
vt 0.14270 0.19965
vt 0.14353 0.15052
vt 0.05187 0.71667
vt 0.45810 0.29185
vt 0.46138 0.27989
vt 0.42894 0.85889
vt 0.31129 0.67811
vt 0.14473 0.10474
vt 0.11632 0.28670
vt 0.05390 0.76697
vt 0.55859 0.58043
vt 0.70790 0.42471
vt 0.65591 0.39828
vt 0.35204 0.29584
vt 0.66880 0.51718
vt 0.78461 0.73811
vt 0.47216 0.44645
vt 0.51635 0.33241
vt 0.69539 0.32760
vt 0.44153 0.48134
vt 0.60163 0.39708
vt 0.37236 0.24792
vt 0.51301 0.33802
vt 0.77202 0.65258
vt 0.07939 0.57124
vt 0.14735 0.35709
vt 0.56145 0.76498
vt 0.50403 0.37185
vt 0.52522 0.37969
vt 0.72933 0.61645
vt 0.73464 0.59606
vt 0.64814 0.71431
vt 0.67163 0.67451
vt 0.68709 0.64645
vt 0.69926 0.62330
vt 0.54027 0.69382
vt 0.47241 0.55619
vt 0.82782 0.53805
vt 0.56298 0.52126
vt 0.62734 0.60211
vt 0.66778 0.37913
vt 0.83820 0.44629
vt 0.77892 0.17810
vt 0.83538 0.24005
vt 0.44686 0.22119
vt 0.26111 0.46255
vt 0.46412 0.53919
vt 0.45682 0.37572
vt 0.68696 0.55464
vt 0.22435 0.55356
vt 0.84840 0.43832
vt 0.70453 0.38149
vt 0.81108 0.42000
vt 0.45666 0.59656
vt 0.54357 0.32539
vt 0.58424 0.34086
vt 0.38489 0.49313
vt 0.29283 0.50832
vt 0.08861 0.83702
vt 0.54318 0.38345
vt 0.53613 0.76577
vt 0.30498 0.32410
vt 0.05076 0.43491
vt 0.39037 0.47848
vt 0.59794 0.71756
vt 0.13907 0.30467
vt 0.47214 0.34851
vt 0.54908 0.54750
vt 0.14059 0.26945
vt 0.06619 0.66654
vt 0.30280 0.42533
vt 0.28222 0.51762
vt 0.31453 0.67521
vt 0.44922 0.41755
vt 0.44579 0.46622
vt 0.41416 0.43450
vt 0.32283 0.42370
vt 0.46806 0.26562
vt 0.50948 0.76031
vt 0.33066 0.60628
vt 0.20514 0.48385
vt 0.38724 0.38975
vt 0.55337 0.48971
vt 0.23989 0.23903
vt 0.07578 0.59287
vt 0.26280 0.39320
vt 0.48640 0.24147
vt 0.50606 0.52597
vt 0.60243 0.14278
vt 0.36930 0.29487
vt 0.19508 0.33115
vt 0.63957 0.49418
vt 0.83506 0.68705
vt 0.66807 0.54631
vt 0.49208 0.71437
vt 0.11794 0.14797
vt 0.51905 0.37631
vt 0.51110 0.34413
vt 0.68040 0.37944
vt 0.10134 0.31686
vt 0.87059 0.65333
vt 0.42500 0.47164
vt 0.51643 0.75117
vt 0.10985 0.44773
vt 0.80291 0.55872
vt 0.54875 0.21568
vt 0.40019 0.29928
vt 0.39765 0.30371
vt 0.72365 0.63751
vt 0.43566 0.33459
vt 0.53685 0.50183
vt 0.44928 0.22966
vt 0.52102 0.43430
vt 0.69563 0.40198
vt 0.58052 0.39739
vt 0.43841 0.24070
vt 0.28207 0.97496
vt 0.47863 0.44484
vt 0.86239 0.22674
vt 0.41265 0.84041
vt 0.50005 0.53575
vt 0.50130 0.48790
vt 0.48492 0.27950
vt 0.64356 0.16783
vt 0.56518 0.59872
vt 0.50555 0.59066
vt 0.72875 0.15305
vt 0.51138 0.23456
vt 0.53694 0.49201
vt 0.78333 0.81793
vt 0.45389 0.45088
vt 0.49878 0.25030
vt 0.50036 0.54768
vt 0.86685 0.76215
vt 0.41925 0.36568
vt 0.48598 0.55992
vt 0.19637 0.49998
vt 0.34606 0.56144
vt 0.73760 0.37323
vt 0.59235 0.62118
vt 0.56591 0.81253
vt 0.19124 0.44329
vt 0.20616 0.41594
vt 0.79821 0.63221
vt 0.52290 0.54683
vt 0.55320 0.49301
vt 0.19775 0.38888
vt 0.50823 0.74549
vt 0.45237 0.61509
vt 0.37249 0.40537
vt 0.37828 0.27250
vt 0.46309 0.28197
vt 0.38207 0.36262
vt 0.44089 0.53074
vt 0.60235 0.53692
vt 0.28466 0.33385
vt 0.22634 0.24549
vt 0.37221 0.32463
vt 0.38831 0.28453
vt 0.29653 0.47425
vt 0.46785 0.62860
vt 0.64514 0.55563
vt 0.55806 0.36370
vt 0.30922 0.18221
vt 0.25625 0.47714
vt 0.12628 0.73400
vt 0.55111 0.49806
vt 0.39800 0.31279
vt 0.50877 0.50483
vt 0.60203 0.48932
vt 0.39537 0.86578
vt 0.34912 0.41200
vt 0.47346 0.39355
vt 0.30572 0.34115
vt 0.37790 0.35095
vt 0.30559 0.62864
vt 0.15098 0.75433
vt 0.48185 0.28284
vt 0.51365 0.43908
vt 0.40554 0.31260
vt 0.17551 0.91302
vt 0.40321 0.62200
vt 0.57784 0.52943
vt 0.52116 0.33244
vt 0.44086 0.42201
vt 0.76063 0.48876
vt 0.53275 0.42950
vt 0.41215 0.41287
vt 0.68222 0.40040
vt 0.46957 0.39264
vt 0.24374 0.33366
vt 0.72593 0.32794
vt 0.47676 0.26061
vt 0.58091 0.36860
vt 0.65569 0.30526
vt 0.47532 0.40268
vt 0.49680 0.90794
vt 0.42669 0.45325
vt 0.35505 0.47967
vt 0.00201 0.98575
vt 0.45178 0.67532
vt 0.40248 0.95771
vt 0.52736 0.68299
vt 0.64690 0.60410
vt 0.40855 0.46886
vt 0.58083 0.60986
vt 0.41610 0.32558
vt 0.38247 0.25536
vt 0.21219 0.82706
vt 0.50346 0.70253
vt 0.42447 0.49095
vt 0.31322 0.27028
vt 0.29190 0.42459
vt 0.41591 0.35823
vt 0.71245 0.36700
vt 0.45692 0.40856
vt 0.57444 0.47060
vt 0.73261 0.46735
vt 0.74405 0.30704
vt 0.21694 0.34134
vt 0.39247 0.27451
vt 0.39306 0.27932
vt 0.54282 0.87703
vt 0.56088 0.54624
vt 0.49204 0.29852
vt 0.27363 0.29191
vt 0.17572 0.37370
vt 0.45455 0.24274
vt 0.45973 0.23227
vt 0.33784 0.12540
vt 0.39540 0.41023
vt 0.52946 0.43143
vt 0.67332 0.64181
vt 0.33590 0.20901
vt 0.28063 0.37749
vt 0.40771 0.17867
vt 0.39702 0.27831
vt 0.32554 0.42094
vt 0.45389 0.47827
vt 0.69732 0.36982
vt 0.71717 0.44775
vt 0.56929 0.94044
vt 0.40686 0.12444
vt 0.46128 0.27984
vt 0.36584 0.25238
vt 0.40277 0.28446
vt 0.72933 0.36271
vt 0.37380 0.19425
vt 0.58710 0.61526
vt 0.26403 0.90433
vt 0.61413 0.52153
vt 0.43109 0.22724
vt 0.69381 0.26992
vt 0.46798 0.43023
vt 0.48564 0.43381
vt 0.79573 0.26981
vt 0.80187 0.16910
vt 0.63323 0.33494
vt 0.54245 0.42293
vt 0.79948 0.13564
vt 0.79609 0.10776
vt 0.07617 0.02404
vt 0.47010 0.39571
vt 0.48099 0.35699
vt 0.40787 0.48597
vt 0.54963 0.61278
vt 0.80898 0.30798
vt 0.61843 0.35390
vt 0.72401 0.39972
vt 0.79642 0.55321
vt 0.69417 0.38518
vt 0.54203 0.31425
vt 0.34790 0.24279
vt 0.44670 0.27041
vt 0.50622 0.49935
vt 0.45665 0.65591
vt 0.33272 0.37491
vt 0.37177 0.34463
vt 0.58295 0.33884
vt 0.26742 0.45279
vt 0.38829 0.22104
vt 0.28683 0.38991
vt 0.27524 0.42731
vt 0.49769 0.31415
vt 0.13193 0.84320
vt 0.29390 0.73444
vt 0.41660 0.45283
vt 0.64178 0.43260
vt 0.19753 0.85177
vt 0.39482 0.49859
vt 0.45778 0.48060
vt 0.36205 0.48915
vt 0.54035 0.69956
vt 0.85670 0.53143
vt 0.47524 0.33370
vt 0.80481 0.76851
vt 0.50194 0.31617
vt 0.47947 0.54734
vt 0.53535 0.51894
vt 0.84890 0.62463
vt 0.68259 0.59323
vt 0.67298 0.36389
vt 0.78579 0.44220
vt 0.78363 0.10795
vt 0.42624 0.21985
vt 0.44000 0.22901
vt 0.62095 0.47774
vt 0.39723 0.24535
vt 0.42655 0.54544
vt 0.68739 0.57198
vt 0.47204 0.43975
vt 0.40419 0.75181
vt 0.27791 0.34884
vt 0.34809 0.53016
vt 0.51582 0.49082
vt 0.41526 0.49864
vt 0.95949 0.78152
vt 0.32484 0.47911
vt 0.41473 0.44971
vt 0.43825 0.47789
vt 0.60039 0.39590
vt 0.43293 0.35515
vt 0.41780 0.41087
vt 0.81379 0.31079
vt 0.61225 0.57450
vt 0.56006 0.51228
vt 0.34665 0.43938
vt 0.31310 0.23453
vt 0.73999 0.36144
vt 0.15979 0.61519
vt 0.57575 0.46743
vt 0.18696 0.62412
vt 0.22152 0.64342
vt 0.25326 0.64391
vt 0.26405 0.62011
vt 0.30400 0.52869
vt 0.38238 0.66610
vt 0.43656 0.48078
vt 0.80395 0.31359
vt 0.72233 0.35720
vt 0.10848 0.61511
vt 0.14022 0.61230
vt 0.16211 0.93004
vt 0.52570 0.65533
vt 0.39646 0.48391
vt 0.31948 0.55623
vt 0.34449 0.38311
vt 0.70082 0.34968
vt 0.13547 0.64800
vt 0.19443 0.65625
vt 0.76439 0.30288
vt 0.54541 0.46170
vt 0.40516 0.58578
vt 0.35687 0.27771
vt 0.17922 0.67433
vt 0.34767 0.47203
vt 0.79717 0.31589
vt 0.11967 0.47958
vt 0.16438 0.96042
vt 0.36293 0.29290
vt 0.51283 0.50409
vt 0.49937 0.28076
vt 0.57089 0.38970
vt 0.55864 0.25959
vt 0.38565 0.32955
vt 0.08271 0.65558
vt 0.09773 0.67716
vt 0.13017 0.68286
vt 0.74993 0.28004
vt 0.74491 0.25947
vt 0.47399 0.30648
vt 0.43104 0.37789
vt 0.83809 0.34460
vt 0.60448 0.51660
vt 0.54338 0.53459
vt 0.63716 0.69160
vt 0.46096 0.41540
vt 0.45003 0.50176
vt 0.33283 0.80349
vt 0.63909 0.37788
vt 0.92153 0.29578
vt 0.41090 0.27598
vt 0.61829 0.36669
vt 0.26400 0.32346
vt 0.41336 0.57938
vt 0.42556 0.43821
vt 0.36972 0.43779
vt 0.38296 0.63312
vt 0.42843 0.64498
vt 0.52149 0.82265
vt 0.47311 0.70609
vt 0.52228 0.74801
vt 0.52170 0.76015
vt 0.61908 0.42126
vt 0.32909 0.43973
vt 0.50220 0.47249
vt 0.36009 0.63251
vt 0.57275 0.63548
vt 0.59180 0.52143
vt 0.45576 0.32697
vt 0.53388 0.69501
vt 0.53603 0.86322
vt 0.26838 0.41880
vt 0.17613 0.46171
vt 0.50708 0.28349
vt 0.30415 0.66234
vt 0.21583 0.80882
vt 0.61395 0.51025
vt 0.30854 0.59845
vt 0.39175 0.44785
vt 0.54365 0.62744
vt 0.65015 0.52900
vt 0.55415 0.56754
vt 0.36683 0.46654
vt 0.55765 0.63188
vt 0.60564 0.46599
vt 0.66671 0.34062
vt 0.58587 0.27710
vt 0.86257 0.18003
vt 0.36197 0.27383
vt 0.47744 0.40734
vt 0.38958 0.33348
vt 0.53499 0.37065
vt 0.67371 0.40705
vt 0.66505 0.54053
vt 0.23831 0.19282
vt 0.33505 0.37948
vt 0.50814 0.61106
vt 0.72841 0.55532
vt 0.55116 0.27807
vt 0.52209 0.61846
vt 0.75551 0.58020
vt 0.66513 0.37435
vn -0.27457 0.70231 -0.65680
vn -0.26722 0.95420 -0.13451
vn -0.51734 0.83296 -0.19631
vn -0.19697 0.87928 -0.43366
vn -0.82494 0.53991 0.16728
vn 0.03088 0.46506 -0.88474
vn 0.17406 0.55167 -0.81570
vn -0.25642 0.91312 -0.31696
vn -0.18192 0.98290 -0.02850
vn -0.27512 0.96130 0.01429
vn 0.06135 0.91413 0.40075
vn -0.93216 0.35450 0.07356
vn -0.67419 0.24158 0.69793
vn -0.85249 0.51116 -0.10946
vn -0.75625 0.56583 -0.32852
vn -0.73593 0.66528 0.12575
vn -0.78187 0.47086 0.40862
vn -0.82602 0.46862 0.31318
vn -0.81478 0.43979 0.37779
vn -0.66865 0.74333 0.01918
vn -0.76682 0.64008 -0.04792
vn -0.56393 0.71104 0.42002
vn -0.42348 0.42332 0.80091
vn -0.69171 0.68551 -0.22720
vn -0.70700 0.61449 0.35009
vn -0.38654 0.92068 -0.05424
vn -0.35328 0.93550 -0.00507
vn 0.11418 0.61298 0.78181
vn -0.45911 0.55517 -0.69355
vn 0.09749 0.99236 -0.07565
vn -0.34256 0.88639 0.31138
vn -0.13385 0.76188 -0.63373
vn 0.15783 0.72907 -0.66600
vn 0.01404 0.99858 -0.05138
vn -0.13586 0.89945 0.41538
vn 0.13889 0.94726 -0.28879
vn 0.22126 0.96758 -0.12182
vn 0.37711 0.90908 0.17706
vn -0.12240 0.91812 -0.37694
vn -0.20233 0.85838 0.47143
vn -0.17486 0.96237 0.20801
vn -0.58748 0.64567 -0.48783
vn -0.65406 0.73553 0.17666
vn 0.04403 0.46934 0.88192
vn -0.54284 0.76295 -0.35104
vn -0.58889 0.63679 -0.49769
vn -0.76019 0.64694 -0.05976
vn -0.73958 0.55128 -0.38615
vn -0.80277 0.51970 0.29234
vn -0.77779 0.43577 0.45292
vn -0.14800 0.91833 -0.36711
vn -0.64729 0.71719 -0.25819
vn -0.69619 0.70989 -0.10670
vn -0.63033 0.77233 0.07870
vn -0.72472 0.64498 0.24244
vn -0.69908 0.61629 0.36259
vn -0.35002 0.85530 -0.38203
vn -0.24590 0.93944 -0.23870
vn -0.80160 0.56610 0.19230
vn -0.35171 0.90234 -0.24918
vn -0.36910 0.92650 -0.07326
vn -0.20210 0.84841 0.48923
vn 0.59620 0.70141 0.39060
vn 0.29429 0.90387 0.31051
vn 0.51767 0.75938 0.39414
vn 0.01600 0.45574 -0.88997
vn -0.60612 0.79415 -0.04414
vn 0.48986 0.82467 0.28275
vn 0.31375 0.61825 -0.72065
vn 0.29156 0.87593 -0.38436
vn 0.60432 0.79122 0.09360
vn 0.46075 0.83908 0.28924
vn -0.22715 0.77148 -0.59432
vn 0.43481 0.89401 0.10810
vn -0.40020 0.57835 -0.71088
vn -0.49306 0.83110 -0.25721
vn -0.51997 0.43976 -0.73229
vn -0.40307 0.89556 -0.18843
vn -0.39034 0.87712 -0.27982
vn -0.16701 0.98342 -0.07061
vn 0.00654 0.93602 0.35188
vn -0.64239 0.50673 -0.57495
vn -0.91311 0.39584 0.09763
vn -0.43241 0.87036 -0.23557
vn -0.66346 0.61121 -0.43156
vn -0.59818 0.79569 -0.09519
vn -0.56133 0.82374 -0.07981
vn -0.47848 0.87748 0.03307
vn -0.39472 0.91210 0.11076
vn -0.21241 0.80795 -0.54963
vn -0.88349 0.39954 -0.24455
vn -0.48029 0.64939 -0.58959
vn -0.52718 0.67247 -0.51948
vn -0.70463 0.55852 0.43767
vn -0.46570 0.88478 -0.01679
vn -0.14270 0.91881 -0.36800
vn -0.55952 0.70932 -0.42871
vn -0.28088 0.94278 0.17966
vn -0.63957 0.47090 0.60762
vn -0.70327 0.43964 0.55868
vn -0.14361 0.98944 0.01972
vn -0.01865 0.95295 0.30256
vn -0.19094 0.96570 -0.17596
vn -0.57265 0.78090 -0.24954
vn -0.62800 0.75930 0.17053
vn -0.42341 0.90527 -0.03486
vn -0.67360 0.70184 0.23170
vn -0.66639 0.53410 0.52025
vn -0.32171 0.85312 -0.41071
vn -0.37901 0.87772 -0.29321
vn -0.09712 0.95332 0.28592
vn -0.65800 0.75250 -0.02780
vn -0.78570 0.57470 0.22890
vn -0.63150 0.52806 0.56776
vn -0.55428 0.82608 -0.10184
vn -0.70136 0.67136 0.23953
vn -0.82939 0.50988 0.22831
vn -0.49238 0.79512 -0.35405
vn -0.50794 0.81335 -0.28364
vn -0.43998 0.88930 -0.12477
vn 0.58304 0.15517 0.79749
vn 0.50077 0.71092 0.49379
vn 0.24026 0.74995 0.61632
vn 0.75580 0.55170 0.35270
vn 0.68497 0.63557 0.35618
vn 0.22819 0.39482 -0.88997
vn 0.44101 0.62371 -0.64537
vn 0.70487 0.63908 0.30779
vn -0.04783 0.74341 -0.66713
vn 0.55665 0.73998 -0.37759
vn 0.67140 0.71000 0.21240
vn 0.11740 0.56582 -0.81613
vn 0.36732 0.90718 -0.20518
vn 0.22153 0.91254 -0.34378
vn 0.01161 0.63098 -0.77572
vn 0.00415 0.85726 -0.51487
vn -0.01317 0.94054 -0.33943
vn -0.01290 0.91747 -0.39759
vn 0.37731 0.72345 0.57815
vn 0.12510 0.98646 0.10603
vn -0.15638 0.70456 -0.69220
vn -0.30861 0.76452 -0.56592
vn -0.45784 0.74476 -0.48550
vn -0.29206 0.88671 -0.35840
vn -0.14319 0.98969 0.00046
vn -0.00520 0.99716 0.07510
vn -0.43233 0.77585 -0.45951
vn -0.54184 0.82730 -0.14827
vn 0.50566 0.79448 -0.33632
vn -0.51491 0.60571 -0.60661
vn -0.45671 0.63222 -0.62587
vn 0.42064 0.89194 -0.16584
vn 0.19144 0.97285 -0.13008
vn 0.05416 0.98365 0.17178
vn -0.21373 0.85684 -0.46919
vn -0.26161 0.86746 -0.42317
vn 0.21227 0.79563 0.56738
vn 0.25361 0.75580 0.60370
vn -0.14983 0.96800 -0.20129
vn -0.73633 0.55047 -0.39345
vn -0.70216 0.56230 -0.43680
vn -0.48698 0.26644 0.83178
vn -0.07904 0.96943 -0.23229
vn -0.12182 0.95087 0.28462
vn -0.44404 0.76885 -0.46010
vn 0.23476 0.89751 -0.37333
vn -0.72618 0.52819 0.44009
vn -0.60189 0.79729 0.04544
vn -0.01829 0.53004 0.84778
vn -0.01914 0.95778 -0.28687
vn -0.29935 0.95363 0.03120
vn -0.58549 0.32927 0.74080
vn -0.54888 0.77618 0.31029
vn -0.59980 0.63100 0.49200
vn -0.66628 0.70198 -0.25159
vn 0.83490 0.47580 0.27670
vn 0.03184 0.99383 -0.10626
vn -0.14642 0.98829 -0.04283
vn 0.77405 0.47531 0.41825
vn 0.79834 0.08682 0.59592
vn 0.40350 0.23420 -0.88450
vn 0.75458 0.52189 0.39779
vn -0.00419 0.61615 -0.78762
vn 0.44262 0.23722 -0.86476
vn 0.76613 0.50302 0.40002
vn 0.38516 0.05376 -0.92128
vn 0.65443 0.68833 -0.31292
vn 0.58547 0.79348 -0.16615
vn 0.74638 0.57789 0.33009
vn 0.93960 0.24095 -0.24309
vn 0.70028 0.71374 -0.01320
vn 0.22044 0.64738 -0.72959
vn -0.04768 0.78442 -0.61840
vn 0.26486 0.60254 -0.75286
vn 0.21081 0.93622 0.28115
vn 0.34710 0.91903 -0.18685
vn 0.29655 0.90688 0.29936
vn 0.03331 0.97742 0.20866
vn -0.05243 0.67741 -0.73373
vn 0.02260 -0.97198 0.23399
vn -0.20431 0.55108 -0.80906
vn -0.16035 0.95392 -0.25363
vn -0.13852 0.98021 -0.14143
vn 0.18363 0.97065 0.15528
vn -0.67342 0.65302 -0.34650
vn -0.61487 0.66733 -0.42025
vn 0.73499 0.65949 -0.15770
vn -0.57129 0.64809 -0.50359
vn -0.60259 0.56859 -0.55999
vn 0.37219 0.72413 -0.58061
vn 0.65714 0.70851 -0.25726
vn 0.69422 0.69091 -0.20173
vn -0.78032 0.38451 -0.49321
vn -0.54173 0.62431 -0.56281
vn 0.38675 0.66198 0.64204
vn 0.43131 0.88148 -0.19225
vn 0.33891 0.93558 -0.09913
vn -0.01386 0.90978 -0.41486
vn -0.61842 0.51307 -0.59524
vn -0.57349 0.58919 -0.56919
vn 0.40138 0.69677 0.59448
vn -0.33076 0.86362 -0.38047
vn -0.04292 0.99392 -0.10137
vn 0.21821 0.86934 0.44343
vn -0.51038 0.70172 -0.49708
vn -0.46200 0.50480 0.72920
vn -0.31859 0.82018 -0.47519
vn -0.33941 0.83222 -0.43841
vn -0.44230 0.50820 0.73899
vn -0.33907 0.54925 0.76378
vn -0.37858 0.39603 -0.83656
vn -0.33590 0.84890 -0.40810
vn -0.36331 0.85842 -0.36211
vn -0.35267 0.69062 0.63140
vn -0.12989 0.86075 -0.49218
vn -0.07580 0.86899 -0.48899
vn -0.65991 -0.62561 -0.41610
vn -0.78434 -0.42812 0.44892
vn -0.38704 0.88506 -0.25858
vn -0.34378 0.93648 0.06942
vn -0.37613 0.84488 0.38040
vn -0.72115 0.46413 -0.51433
vn 0.54668 0.74975 -0.37284
vn 0.36805 0.90911 -0.19508
vn 0.49090 0.77176 0.40423
vn 0.75207 0.49098 0.43968
vn 0.24550 0.93840 -0.24320
vn 0.35580 0.93368 -0.04048
vn -0.05194 0.30173 -0.95198
vn 0.86737 0.36734 0.33576
vn 0.66995 0.58503 0.45705
vn 0.51096 0.33536 -0.79149
vn 0.75338 0.47744 -0.45217
vn 0.64155 0.74154 -0.19629
vn 0.61995 0.45546 -0.63892
vn 0.80037 0.55929 -0.21588
vn 0.66041 0.61558 -0.43003
vn 0.59030 0.23960 -0.77080
vn 0.28957 0.91554 0.27915
vn 0.23988 0.96790 -0.07503
vn 0.42300 0.30460 -0.85340
vn 0.38990 0.35570 -0.84939
vn 0.40951 0.51151 -0.75542
vn 0.43343 0.58414 -0.68624
vn 0.43019 0.63698 -0.63968
vn 0.40948 0.73447 -0.54118
vn 0.25154 0.94979 -0.18606
vn 0.26386 0.72839 0.63232
vn -0.95184 -0.30095 -0.05863
vn 0.40912 0.71253 0.57002
vn 0.17956 0.95845 -0.22165
vn -0.71216 -0.68932 0.13291
vn -0.08350 -0.96625 0.24369
vn -0.13654 0.96761 -0.21234
vn 0.18491 0.91384 0.36153
vn 0.28469 0.86774 -0.40742
vn -0.47458 0.73337 -0.48678
vn 0.83566 -0.30245 0.45848
vn 0.36107 0.74667 -0.55867
vn -0.97821 0.07877 -0.19209
vn -0.26584 0.89300 -0.36314
vn 0.67073 0.52107 0.52784
vn -0.83586 0.41871 -0.35498
vn 0.61128 0.74116 -0.27753
vn -0.32374 0.78128 -0.53366
vn 0.48870 0.57070 0.65990
vn 0.66027 0.64787 0.37988
vn -0.44910 0.80609 -0.38540
vn -0.37902 0.84005 -0.38815
vn 0.41801 0.75533 0.50472
vn 0.48873 0.72861 0.47987
vn -0.85827 -0.44559 -0.25459
vn -0.30237 0.83254 -0.46417
vn 0.42186 0.71932 0.55192
vn 0.28123 0.89395 0.34894
vn -0.95199 -0.29109 0.09480
vn -0.29410 0.78970 -0.53840
vn -0.31514 0.65316 -0.68853
vn -0.95925 -0.24507 0.14066
vn -0.28248 0.83665 -0.46927
vn -0.25783 0.60587 0.75262
vn -0.19738 0.54458 -0.81515
vn -0.09328 0.73213 -0.67474
vn 0.41427 -0.17985 -0.89221
vn -0.67612 0.34998 0.64837
vn -0.97401 0.11684 0.19406
vn -0.01562 0.78249 0.62246
vn -0.36880 0.75996 -0.53521
vn -0.12971 0.82905 -0.54393
vn 0.58963 0.54973 0.59173
vn 0.74132 0.65174 -0.16026
vn 0.35988 0.86591 -0.34739
vn 0.83256 0.53302 -0.15076
vn -0.05423 0.68975 -0.72202
vn -0.11547 0.95088 -0.28721
vn -0.09565 0.84714 0.52269
vn 0.07957 0.87606 0.47559
vn -0.32039 0.87748 -0.35689
vn -0.56674 0.68293 -0.46088
vn -0.02907 0.99631 0.08081
vn -0.53302 0.84516 -0.03998
vn 0.65231 0.62041 -0.43542
vn 0.60108 0.75411 -0.26463
vn 0.65411 0.71431 -0.24880
vn 0.73705 0.64930 -0.18751
vn -0.18537 0.59813 -0.77967
vn -0.29999 0.92688 -0.22560
vn -0.15458 0.97788 -0.14094
vn -0.09099 0.98112 -0.17067
vn 0.16170 0.97519 0.15120
vn 0.50350 0.86347 0.03019
vn 0.67972 0.71177 -0.17708
vn 0.38916 0.87431 -0.29006
vn 0.58721 0.36411 -0.72292
vn 0.67871 -0.01655 -0.73422
vn 0.01254 0.33902 -0.94069
vn 0.44103 0.71027 -0.54865
vn 0.49835 0.86571 0.04678
vn 0.20819 0.92350 -0.32218
vn 0.45461 0.22531 -0.86172
vn 0.35183 0.91188 0.21140
vn 0.06622 0.98728 -0.14453
vn 0.55622 0.83096 -0.01135
vn 0.69608 0.64657 -0.31213
vn 0.66153 0.73933 0.12555
vn 0.36657 0.86649 0.33885
vn 0.13347 0.55461 0.82134
vn -0.20897 0.01530 -0.97780
vn 0.37787 0.84492 0.37858
vn 0.01800 -0.87106 0.49085
vn -0.03922 0.95451 -0.29559
vn 0.14174 0.98651 0.08185
vn 0.74108 -0.24755 0.62411
vn 0.18029 0.81093 -0.55668
vn 0.23291 0.81156 0.53584
vn 0.50038 -0.36580 -0.78474
vn 0.65260 0.73648 0.17805
vn -0.20649 0.97652 -0.06135
vn 0.08580 0.92071 0.38070
vn 0.16832 0.65431 0.73726
vn 0.27404 -0.51112 0.81465
vn 0.57032 0.79637 -0.20131
vn -0.75837 0.62575 -0.18253
vn -0.26459 0.04407 0.96335
vn 0.25570 -0.78569 0.56330
vn 0.37812 0.79949 0.46673
vn -0.72172 -0.12724 -0.68039
vn 0.07210 0.85409 -0.51510
vn 0.71977 0.68774 -0.09459
vn 0.63324 0.76350 0.12675
vn -0.77059 -0.59231 -0.23528
vn -0.19721 -0.07446 0.97753
vn -0.10839 0.87595 -0.47006
vn 0.56971 0.61681 -0.54311
vn -0.54548 -0.14853 -0.82486
vn -0.80832 0.13414 -0.57326
vn 0.02246 -0.20410 0.97869
vn -0.34175 0.76500 -0.54588
vn 0.05290 -0.30840 -0.94979
vn 0.53018 0.83930 -0.12035
vn -0.50241 -0.42227 0.75450
vn -0.30767 -0.38980 -0.86798
vn -0.63810 0.31150 -0.70413
vn 0.00196 0.50266 -0.86448
vn 0.77188 0.50271 -0.38921
vn 0.91227 -0.19899 0.35800
vn -0.29589 0.92077 -0.25422
vn -0.36509 0.82188 -0.43729
vn -0.42547 0.79402 -0.43417
vn -0.31311 0.65366 -0.68898
vn 0.23020 0.81590 0.53040
vn -0.57821 0.79397 -0.18784
vn 0.32055 0.52625 -0.78760
vn 0.93818 -0.02811 -0.34502
vn -0.13164 0.89666 -0.42270
vn -0.52252 0.85181 0.03739
vn -0.18982 0.80766 0.55826
vn 0.15336 0.87531 -0.45859
vn -0.07257 0.99301 0.09305
vn -0.10627 0.96641 -0.23401
vn -0.92373 0.18713 -0.33421
vn -0.33957 0.44696 -0.82759
vn 0.89243 0.35979 -0.27224
vn 0.87767 0.27002 0.39595
vn -0.43555 0.89981 0.02523
vn -0.32374 0.94396 0.06421
vn -0.22639 0.96270 0.14816
vn -0.17929 0.89771 0.40247
vn -0.08270 0.99627 0.02460
vn 0.92519 0.19910 -0.32307
vn 0.68635 0.16623 -0.70801
vn -0.40830 0.65487 -0.63595
vn -0.08986 0.64546 -0.75849
vn 0.20075 0.96037 0.19338
vn 0.68330 0.72284 -0.10296
vn 0.88004 0.32614 -0.34521
vn -0.70386 0.26213 -0.66020
vn 0.70353 -0.16117 -0.69215
vn 0.16192 0.98520 -0.05625
vn 0.79106 0.57271 -0.21501
vn 0.51363 0.74505 -0.42554
vn 0.87085 0.48135 -0.09960
vn -0.65573 0.75396 -0.03956
vn 0.44049 0.88649 0.14179
vn 0.71709 0.69335 -0.07111
vn 0.38675 0.90262 -0.18896
vn 0.41959 0.65118 -0.63239
vn 0.37123 0.81876 -0.43798
vn 0.34014 0.93553 -0.09532
vn 0.33931 0.72273 0.60210
vn 0.31001 0.01480 -0.95062
vn 0.97854 -0.08125 -0.18938
vn 0.26689 0.47960 -0.83591
vn 0.24292 0.96283 0.11812
vn 0.75210 -0.65124 0.10117
vn 0.92028 -0.22700 -0.31867
vn 0.52653 -0.33164 0.78281
vn 0.11587 0.20726 -0.97140
vn 0.20607 0.31328 0.92703
vn 0.43031 -0.80162 -0.41501
vn 0.25742 -0.59434 -0.76190
vn 0.94870 -0.31617 -0.00288
vn -0.53188 0.40079 0.74597
vn -0.12443 -0.35340 -0.92716
vn 0.97434 0.14627 0.17107
vn 0.81909 -0.14860 0.55409
vn -0.23379 0.54166 -0.80743
vn -0.54756 0.70746 -0.44684
vn 0.79648 0.39728 -0.45584
vn 0.93102 0.16262 0.32673
vn -0.46758 0.74766 -0.47156
vn -0.14196 0.40095 -0.90503
vn -0.09236 0.57195 -0.81507
vn 0.21420 -0.69949 -0.68179
vn -0.87903 0.47333 0.05710
vn 0.16734 0.98473 0.04799
vn -0.37559 0.85657 -0.35387
vn -0.40449 0.90723 -0.11539
vn -0.33711 0.88257 0.32777
vn -0.14113 0.77655 -0.61404
vn -0.86214 0.46630 -0.19818
vn -0.03542 0.82754 0.56029
vn 0.37823 0.89949 -0.21879
vn -0.63839 0.20964 -0.74061
vn 0.29486 0.87244 -0.38976
vn 0.19683 0.93971 0.27964
vn -0.12085 0.94480 -0.30453
vn -0.37583 0.82714 -0.41784
vn -0.03940 0.96870 0.24510
vn -0.07186 0.99346 0.08869
vn 0.37400 -0.42890 -0.82230
vn 0.43331 0.36563 0.82374
vn -0.67370 0.50208 -0.54226
vn -0.00214 0.83888 -0.54432
vn 0.37461 0.90975 0.17894
vn 0.37597 0.92229 -0.08959
vn -0.05178 0.99279 -0.10812
vn -0.28187 0.75882 0.58714
vn 0.98989 -0.04647 -0.13400
vn 0.17367 0.68391 -0.70860
vn 0.04237 0.99892 0.01885
vn 0.14082 0.45638 0.87857
vn 0.85565 0.25813 -0.44859
vn 0.71643 0.53430 -0.44862
vn -0.09565 0.40622 -0.90875
vn 0.10999 0.69475 0.71080
vn 0.75740 0.63454 -0.15398
vn -0.36670 0.73489 -0.57050
vn -0.12688 0.76616 -0.63000
vn -0.15962 0.97576 0.14969
vn -0.31510 0.78017 -0.54042
vn -0.12470 0.89888 -0.42009
vn -0.16754 0.69515 0.69906
vn 0.60480 0.69635 -0.38642
vn 0.82780 0.54465 0.13456
vn 0.77666 0.27762 0.56544
vn 0.58494 0.79992 0.13406
vn 0.95221 -0.20500 -0.22644
vn 0.89076 -0.34936 -0.29067
vn 0.44428 -0.21439 0.86986
vn -0.07812 0.19025 -0.97862
vn 0.76957 -0.63658 0.05030
vn -0.55488 0.34161 -0.75856
vn -0.09747 0.26066 -0.96050
vn -0.44083 0.34658 0.82798
vn -0.09193 0.34115 -0.93550
vn -0.10350 0.66739 -0.73748
vn 0.81388 0.36510 0.45199
vn 0.67001 0.72965 -0.13674
vn 0.00764 0.94444 0.32860
vn -0.13440 0.89272 0.43011
vn 0.09536 0.79277 0.60202
vn 0.01800 0.97077 0.23934
vn -0.03560 0.92650 0.37460
vn 0.09844 0.99130 0.08742
vn -0.69239 0.68420 -0.22906
vn -0.00352 0.99948 0.03194
vn 0.47632 0.76214 0.43848
vn 0.29209 0.72610 0.62246
vn 0.06860 0.99483 0.07488
vn -0.09393 0.32929 -0.93955
vn 0.26021 0.72215 0.64093
vn 0.07698 0.74651 -0.66090
vn 0.14156 0.96897 0.20264
vn -0.01150 0.78587 -0.61828
vn 0.97387 -0.19501 0.11640
vn 0.54081 0.78836 -0.29328
vn 0.57302 0.67030 0.47154
vn 0.76502 0.32729 0.55463
vn 0.76841 0.61791 0.16650
vn 0.60402 -0.10561 -0.78994
vn 0.71649 0.14081 -0.68324
vn 0.70537 -0.70707 0.05010
vn 0.73815 0.32766 -0.58972
vn 0.99818 0.03330 -0.05027
vn -0.29720 0.63168 -0.71600
vn -0.44043 0.60031 0.66757
vn 0.52641 0.59924 -0.60316
vn 0.57624 0.39124 -0.71755
vn 0.26531 0.77578 -0.57252
vn 0.13620 0.91454 -0.38089
vn -0.09723 0.94988 -0.29711
vn -0.02590 0.98630 0.16290
vn -0.00141 0.83509 0.55011
vn -0.12250 0.97412 -0.18996
vn 0.07750 0.99694 -0.01060
vn 0.65509 0.70329 0.27613
vn 0.53295 0.73757 0.41467
vn 0.28296 0.52861 0.80032
vn 0.78220 0.34787 -0.51686
vn 0.65913 0.74880 0.06956
vn 0.55691 0.63826 0.53149
vn 0.65563 0.71728 -0.23591
vn 0.59962 0.78012 0.17852
vn -0.37349 0.92757 0.01070
vn 0.15036 0.77782 -0.61023
vn 0.64343 0.31602 -0.69723
vn -0.43344 0.84116 -0.32340
vn -0.49039 0.86592 -0.09848
vn -0.28709 0.92017 -0.26619
vn -0.44700 0.80490 -0.39030
vn 0.42699 0.50611 -0.74935
vn -0.43810 0.83071 -0.34350
vn -0.40283 0.86449 -0.30063
vn -0.43662 0.82585 -0.35685
vn 0.52765 0.84744 -0.05854
vn 0.26317 0.95131 -0.16045
vn 0.53465 0.75453 0.38058
vn -0.37944 0.90857 -0.17470
vn -0.33381 0.94264 -0.00270
vn -0.16610 0.97778 -0.12790
vn -0.50997 0.67602 -0.53191
vn -0.47082 0.74362 -0.47472
vn 0.36809 0.92138 -0.12480
vn 0.38371 0.76953 -0.51048
vn 0.72230 0.69040 -0.04045
vn 0.75267 0.31744 -0.57682
vn 0.95044 0.24123 0.19612
vn -0.16998 0.98541 -0.00895
vn -0.50409 0.75488 -0.41959
vn -0.43461 0.84881 -0.30105
vn 0.25688 0.95421 -0.15332
vn 0.33984 0.88068 -0.33003
vn 0.49644 0.84095 -0.21528
vn 0.67015 0.66156 0.33651
vn -0.46570 0.83261 -0.29980
vn -0.32508 0.46448 -0.82376
vn -0.20030 0.97741 -0.06740
vn -0.58951 0.49895 -0.63524
vn 0.56371 0.80165 -0.19898
vn 0.67641 0.71592 -0.17298
vn 0.95742 -0.00527 -0.28866
vn 0.99886 0.00225 0.04758
vn -0.17710 0.98118 0.07690
vn 0.25833 0.96527 0.03893
vn 0.13451 0.71423 0.68687
vn -0.58768 0.60304 -0.53942
vn -0.56641 0.69771 -0.43861
vn -0.52721 0.77263 -0.35369
vn 0.05331 0.99763 -0.04348
vn -0.04916 0.99802 -0.03930
vn 0.31480 0.94909 0.01108
vn -0.15875 0.35865 -0.91988
vn 0.28386 0.94533 -0.16055
vn 0.18040 0.98218 -0.05280
vn 0.23760 0.97084 0.03191
vn 0.40603 0.80979 -0.42353
vn 0.54214 0.43268 -0.72033
vn 0.37843 0.76331 -0.52360
vn 0.32561 0.89444 0.30651
vn 0.80300 0.25087 -0.54061
vn 0.75155 0.64534 -0.13677
vn 0.83260 -0.20553 0.51433
vn 0.54528 0.76385 -0.34526
vn 0.38449 0.90868 -0.16270
vn 0.26071 0.96360 -0.05915
vn 0.44599 0.86191 0.24126
vn 0.65773 0.67264 0.33903
vn 0.64683 0.71615 -0.26217
vn 0.56768 0.79450 -0.21567
vn 0.64362 0.75525 0.12388
vn 0.51080 0.85940 -0.02250
vn 0.54099 0.83859 0.06400
vn 0.57811 0.81511 0.03710
vn 0.58853 0.34472 -0.73130
vn 0.76737 0.19066 -0.61220
vn 0.97924 -0.19963 -0.03528
vn 0.65364 0.66324 -0.36452
vn 0.59938 0.79177 -0.11770
vn 0.81387 0.56773 0.12366
vn 0.92105 0.31638 0.22709
vn 0.78305 0.16543 0.59956
vn 0.68108 0.71618 0.15240
vn 0.90912 -0.04362 -0.41424
vn 0.92125 -0.38633 -0.04520
vn 0.68845 -0.17720 0.70331
vn 0.88002 0.32491 -0.34641
vn 0.97657 0.21008 0.04672
vn 0.86429 0.46427 0.19356
vn 0.93307 0.33395 0.13366
vn 0.80472 0.47532 -0.35565
vn 0.79742 0.60121 0.05160
vn 0.77357 0.61166 0.16572
vn 0.99920 0.04010 0.00024
vn 0.80170 0.55320 -0.22640
vn 0.71240 0.70130 -0.02590
vn 0.70007 0.69997 0.14119
vn 0.99776 -0.03674 -0.05590
vn 0.97078 -0.11637 0.20987
vn 0.91018 0.00627 -0.41416
vn 0.94245 -0.24258 0.23007
vn 0.93503 -0.20099 0.29209
vn 0.83122 -0.21351 -0.51330
vn 0.98720 -0.07344 -0.14154
vn 0.98688 0.15251 0.05291
vn 0.96375 -0.23141 0.13279
vn 0.64794 -0.61314 0.45191
vn 0.84875 -0.02766 -0.52807
vn 0.93770 0.34540 -0.03770
vn 0.94323 0.19655 0.26774
vn 0.75670 0.04713 0.65206
vn 0.85307 0.50708 -0.12300
vn 0.83338 0.51856 0.19124
vn 0.99971 -0.02190 0.00990
usemtl lingcao_ninglu_young_mat
s off
f 664/664/664 651/651/651 649/649/649
f 649/649/649 648/648/648 664/664/664
f 664/664/664 648/648/648 650/650/650
f 651/651/651 655/655/655 656/656/656
f 660/660/660 656/656/656 655/655/655
f 655/655/655 650/650/650 654/654/654
f 658/658/658 659/659/659 654/654/654
f 658/658/658 662/662/662 659/659/659
f 636/636/636 661/661/661 639/639/639
f 660/660/660 639/639/639 661/661/661
f 660/660/660 644/644/644 639/639/639
f 644/644/644 660/660/660 663/663/663
f 644/644/644 663/663/663 643/643/643
f 663/663/663 660/660/660 662/662/662
f 663/663/663 662/662/662 642/642/642
f 641/641/641 642/642/642 662/662/662
f 638/638/638 641/641/641 662/662/662
f 662/662/662 658/658/658 638/638/638
f 631/631/631 627/627/627 644/644/644
f 630/630/630 621/621/621 633/633/633
f 624/624/624 630/630/630 623/623/623
f 622/622/622 623/623/623 630/630/630
f 630/630/630 629/629/629 622/622/622
f 622/622/622 617/617/617 623/623/623
f 641/641/641 645/645/645 629/629/629
f 622/622/622 620/620/620 614/614/614
f 605/605/605 602/602/602 606/606/606
f 604/604/604 600/600/600 605/605/605
f 616/616/616 614/614/614 609/609/609
f 588/588/588 571/571/571 595/595/595
f 588/588/588 560/560/560 571/571/571
f 559/559/559 555/555/555 537/537/537
f 307/307/307 317/317/317 234/234/234
f 301/301/301 307/307/307 234/234/234
f 234/234/234 229/229/229 230/230/230
f 234/234/234 230/230/230 301/301/301
f 234/234/234 226/226/226 229/229/229
f 234/234/234 169/169/169 226/226/226
f 169/169/169 234/234/234 172/172/172
f 317/317/317 316/316/316 234/234/234
f 408/408/408 407/407/407 316/316/316
f 240/240/240 241/241/241 316/316/316
f 50/50/50 94/94/94 56/56/56
f 94/94/94 99/99/99 56/56/56
f 99/99/99 98/98/98 56/56/56
f 50/50/50 56/56/56 49/49/49
f 114/114/114 169/169/169 172/172/172
f 174/174/174 114/114/114 172/172/172
f 174/174/174 173/173/173 117/117/117
f 241/241/241 240/240/240 173/173/173
f 162/162/162 169/169/169 100/100/100
f 114/114/114 100/100/100 169/169/169
f 114/114/114 99/99/99 100/100/100
f 114/114/114 108/108/108 99/99/99
f 116/116/116 173/173/173 240/240/240
f 407/407/407 406/406/406 240/240/240
f 406/406/406 328/328/328 240/240/240
f 107/107/107 168/168/168 106/106/106
f 107/107/107 106/106/106 54/54/54
f 328/328/328 327/327/327 239/239/239
f 405/405/405 315/315/315 327/327/327
f 110/110/110 115/115/115 233/233/233
f 109/109/109 110/110/110 233/233/233
f 395/395/395 459/459/459 388/388/388
f 395/395/395 388/388/388 228/228/228
f 106/106/106 105/105/105 54/54/54
f 53/53/53 25/25/25 54/54/54
f 25/25/25 53/53/53 21/21/21
f 165/165/165 104/104/104 166/166/166
f 97/97/97 52/52/52 104/104/104
f 24/24/24 52/52/52 48/48/48
f 93/93/93 97/97/97 104/104/104
f 161/161/161 93/93/93 104/104/104
f 5/5/5 18/18/18 22/22/22
f 22/22/22 25/25/25 5/5/5
f 509/509/509 457/457/457 458/458/458
f 228/228/228 388/388/388 387/387/387
f 457/457/457 451/451/451 387/387/387
f 300/300/300 387/387/387 451/451/451
f 297/297/297 300/300/300 451/451/451
f 300/300/300 297/297/297 159/159/159
f 161/161/161 156/156/156 92/92/92
f 151/151/151 92/92/92 156/156/156
f 222/222/222 156/156/156 160/160/160
f 225/225/225 222/222/222 161/161/161
f 156/156/156 222/222/222 220/220/220
f 156/156/156 220/220/220 151/151/151
f 220/220/220 219/219/219 151/151/151
f 85/85/85 151/151/151 148/148/148
f 148/148/148 84/84/84 85/85/85
f 225/225/225 161/161/161 165/165/165
f 103/103/103 96/96/96 51/51/51
f 218/218/218 159/159/159 293/293/293
f 289/289/289 288/288/288 217/217/217
f 364/364/364 361/361/361 437/437/437
f 368/368/368 439/439/439 364/364/364
f 403/403/403 413/413/413 404/404/404
f 326/326/326 413/413/413 394/394/394
f 326/326/326 333/333/333 413/413/413
f 394/394/394 314/314/314 326/326/326
f 313/313/313 325/325/325 314/314/314
f 333/333/333 417/417/417 326/326/326
f 326/326/326 417/417/417 412/412/412
f 326/326/326 325/325/325 333/333/333
f 386/386/386 306/306/306 381/381/381
f 306/306/306 299/299/299 381/381/381
f 306/306/306 380/380/380 299/299/299
f 449/449/449 380/380/380 393/393/393
f 206/206/206 147/147/147 208/208/208
f 206/206/206 285/285/285 281/281/281
f 82/82/82 83/83/83 84/84/84
f 211/211/211 283/283/283 280/280/280
f 280/280/280 279/279/279 211/211/211
f 284/284/284 283/283/283 211/211/211
f 211/211/211 217/217/217 284/284/284
f 211/211/211 210/210/210 152/152/152
f 280/280/280 276/276/276 279/279/279
f 210/210/210 211/211/211 207/207/207
f 154/154/154 88/88/88 89/89/89
f 89/89/89 86/86/86 87/87/87
f 88/88/88 86/86/86 89/89/89
f 324/324/324 248/248/248 325/325/325
f 323/323/323 243/243/243 324/324/324
f 244/244/244 324/324/324 243/243/243
f 324/324/324 247/247/247 248/248/248
f 12/12/12 45/45/45 43/43/43
f 80/80/80 81/81/81 140/140/140
f 81/81/81 80/80/80 40/40/40
f 40/40/40 41/41/41 81/81/81
f 139/139/139 197/197/197 140/140/140
f 267/267/267 346/346/346 345/345/345
f 196/196/196 267/267/267 345/345/345
f 345/345/345 344/344/344 196/196/196
f 267/267/267 268/268/268 346/346/346
f 495/495/495 530/530/530 529/529/529
f 526/526/526 494/494/494 528/528/528
f 494/494/494 526/526/526 527/527/527
f 193/193/193 264/264/264 263/263/263
f 193/193/193 194/194/194 264/264/264
f 268/268/268 347/347/347 346/346/346
f 525/525/525 492/492/492 427/427/427
f 525/525/525 427/427/427 494/494/494
f 491/491/491 427/427/427 492/492/492
f 262/262/262 494/494/494 427/427/427
f 427/427/427 340/340/340 261/261/261
f 427/427/427 261/261/261 262/262/262
f 414/414/414 404/404/404 413/413/413
f 414/414/414 413/413/413 334/334/334
f 336/336/336 413/413/413 414/414/414
f 417/417/417 333/333/333 413/413/413
f 336/336/336 417/417/417 413/413/413
f 413/413/413 333/333/333 334/334/334
f 418/418/418 414/414/414 336/336/336
f 334/334/334 336/336/336 414/414/414
f 336/336/336 427/427/427 418/418/418
f 427/427/427 488/488/488 336/336/336
f 336/336/336 488/488/488 417/417/417
f 336/336/336 334/334/334 255/255/255
f 334/334/334 252/252/252 255/255/255
f 427/427/427 491/491/491 488/488/488
f 192/192/192 262/262/262 186/186/186
f 518/518/518 517/517/517 481/481/481
f 412/412/412 481/481/481 480/480/480
f 480/480/480 517/517/517 516/516/516
f 412/412/412 480/480/480 402/402/402
f 480/480/480 516/516/516 479/479/479
f 192/192/192 193/193/193 263/263/263
f 183/183/183 255/255/255 252/252/252
f 175/175/175 118/118/118 178/178/178
f 119/119/119 120/120/120 178/178/178
f 118/118/118 119/119/119 178/178/178
f 177/177/177 175/175/175 178/178/178
f 186/186/186 126/126/126 192/192/192
f 75/75/75 133/133/133 73/73/73
f 197/197/197 196/196/196 138/138/138
f 196/196/196 137/137/137 138/138/138
f 79/79/79 140/140/140 197/197/197
f 79/79/79 80/80/80 140/140/140
f 80/80/80 79/79/79 39/39/39
f 641/641/641 626/626/626 619/619/619
f 619/619/619 620/620/620 641/641/641
f 612/612/612 607/607/607 608/608/608
f 600/600/600 587/587/587 594/594/594
f 543/543/543 567/567/567 513/513/513
f 400/400/400 391/391/391 514/514/514
f 470/470/470 400/400/400 514/514/514
f 576/576/576 583/583/583 515/515/515
f 320/320/320 515/515/515 409/409/409
f 320/320/320 399/399/399 515/515/515
f 593/593/593 592/592/592 575/575/575
f 593/593/593 575/575/575 583/583/583
f 576/576/576 593/593/593 583/583/583
f 583/583/583 592/592/592 591/591/591
f 583/583/583 582/582/582 542/542/542
f 468/468/468 545/545/545 542/542/542
f 541/541/541 542/542/542 562/562/562
f 467/467/467 390/390/390 542/542/542
f 398/398/398 542/542/542 390/390/390
f 562/562/562 557/557/557 540/540/540
f 541/541/541 540/540/540 390/390/390
f 557/557/557 539/539/539 540/540/540
f 460/460/460 390/390/390 540/540/540
f 580/580/580 573/573/573 561/561/561
f 539/539/539 535/535/535 538/538/538
f 507/507/507 453/453/453 538/538/538
f 535/535/535 534/534/534 538/538/538
f 507/507/507 538/538/538 534/534/534
f 503/503/503 534/534/534 532/532/532
f 503/503/503 506/506/506 534/534/534
f 550/550/550 553/553/553 554/554/554
f 523/523/523 554/554/554 553/553/553
f 523/523/523 524/524/524 554/554/554
f 553/553/553 550/550/550 523/523/523
f 550/550/550 521/521/521 523/523/523
f 545/545/545 546/546/546 566/566/566
f 349/349/349 432/432/432 436/436/436
f 352/352/352 349/349/349 271/271/271
f 271/271/271 356/356/356 352/352/352
f 351/351/351 271/271/271 352/352/352
f 498/498/498 499/499/499 438/438/438
f 443/443/443 442/442/442 363/363/363
f 505/505/505 442/442/442 443/443/443
f 363/363/363 439/439/439 443/443/443
f 367/367/367 363/363/363 442/442/442
f 442/442/442 505/505/505 504/504/504
f 438/438/438 442/442/442 499/499/499
f 438/438/438 367/367/367 442/442/442
f 360/360/360 364/364/364 363/363/363
f 363/363/363 438/438/438 360/360/360
f 442/442/442 371/371/371 376/376/376
f 282/282/282 362/362/362 366/366/366
f 287/287/287 282/282/282 286/286/286
f 359/359/359 358/358/358 275/275/275
f 274/274/274 275/275/275 358/358/358
f 204/204/204 275/275/275 203/203/203
f 286/286/286 215/215/215 287/287/287
f 215/215/215 286/286/286 291/291/291
f 221/221/221 291/291/291 370/370/370
f 295/295/295 221/221/221 291/291/291
f 215/215/215 221/221/221 158/158/158
f 445/445/445 442/442/442 448/448/448
f 385/385/385 299/299/299 380/380/380
f 299/299/299 296/296/296 380/380/380
f 299/299/299 385/385/385 305/305/305
f 385/385/385 380/380/380 304/304/304
f 385/385/385 304/304/304 305/305/305
f 448/448/448 375/375/375 376/376/376
f 376/376/376 296/296/296 299/299/299
f 472/472/472 463/463/463 464/464/464
f 324/324/324 312/312/312 311/311/311
f 324/324/324 311/311/311 323/323/323
f 472/472/472 479/479/479 478/478/478
f 401/401/401 471/471/471 463/463/463
f 441/441/441 370/370/370 448/448/448
f 291/291/291 290/290/290 295/295/295
f 210/210/210 149/149/149 152/152/152
f 201/201/201 199/199/199 144/144/144
f 199/199/199 141/141/141 144/144/144
f 142/142/142 144/144/144 141/141/141
f 238/238/238 244/244/244 177/177/177
f 311/311/311 310/310/310 243/243/243
f 310/310/310 322/322/322 331/331/331
f 331/331/331 245/245/245 310/310/310
f 310/310/310 245/245/245 243/243/243
f 163/163/163 102/102/102 164/164/164
f 102/102/102 163/163/163 101/101/101
f 308/308/308 309/309/309 318/318/318
f 318/318/318 390/390/390 308/308/308
f 231/231/231 303/303/303 302/302/302
f 532/532/532 531/531/531 501/501/501
f 532/532/532 501/501/501 503/503/503
f 447/447/447 507/507/507 506/506/506
f 452/452/452 453/453/453 507/507/507
f 507/507/507 447/447/447 452/452/452
f 411/411/411 480/480/480 479/479/479
f 479/479/479 401/401/401 411/411/411
f 420/420/420 421/421/421 484/484/484
f 410/410/410 416/416/416 411/411/411
f 416/416/416 410/410/410 415/415/415
f 420/420/420 416/416/416 415/415/415
f 420/420/420 415/415/415 419/419/419
f 522/522/522 490/490/490 486/486/486
f 522/522/522 551/551/551 524/524/524
f 551/551/551 554/554/554 524/524/524
f 489/489/489 490/490/490 524/524/524
f 419/419/419 486/486/486 490/490/490
f 486/486/486 415/415/415 482/482/482
f 423/423/423 424/424/424 419/419/419
f 259/259/259 260/260/260 342/342/342
f 122/122/122 121/121/121 180/180/180
f 124/124/124 185/185/185 189/189/189
f 124/124/124 189/189/189 64/64/64
f 182/182/182 251/251/251 250/250/250
f 189/189/189 254/254/254 188/188/188
f 188/188/188 128/128/128 189/189/189
f 189/189/189 128/128/128 64/64/64
f 320/320/320 409/409/409 398/398/398
f 330/330/330 320/320/320 398/398/398
f 72/72/72 64/64/64 128/128/128
f 253/253/253 257/257/257 188/188/188
f 191/191/191 190/190/190 130/130/130
f 190/190/190 127/127/127 130/130/130
f 130/130/130 37/37/37 74/74/74
f 68/68/68 28/28/28 65/65/65
f 74/74/74 34/34/34 72/72/72
f 74/74/74 38/38/38 34/34/34
f 38/38/38 74/74/74 10/10/10
f 33/33/33 36/36/36 37/37/37
f 37/37/37 130/130/130 33/33/33
f 8/8/8 9/9/9 36/36/36
f 130/130/130 70/70/70 33/33/33
f 3/3/3 8/8/8 2/2/2
f 329/329/329 330/330/330 398/398/398
f 33/33/33 70/70/70 69/69/69
f 33/33/33 66/66/66 32/32/32
f 33/33/33 69/69/69 66/66/66
f 66/66/66 29/29/29 32/32/32
f 2/2/2 7/7/7 6/6/6
f 2/2/2 6/6/6 1/1/1
f 651/651/651 656/656/656 652/652/652
f 651/651/651 664/664/664 655/655/655
f 660/660/660 655/655/655 659/659/659
f 661/661/661 657/657/657 656/656/656
f 661/661/661 656/656/656 660/660/660
f 663/663/663 642/642/642 643/643/643
f 660/660/660 659/659/659 662/662/662
f 644/644/644 630/630/630 631/631/631
f 633/633/633 631/631/631 630/630/630
f 631/631/631 633/633/633 632/632/632
f 630/630/630 624/624/624 621/621/621
f 643/643/643 642/642/642 646/646/646
f 643/643/643 646/646/646 647/647/647
f 629/629/629 630/630/630 647/647/647
f 629/629/629 647/647/647 646/646/646
f 606/606/606 610/610/610 618/618/618
f 606/606/606 618/618/618 617/617/617
f 606/606/606 617/617/617 616/616/616
f 606/606/606 616/616/616 605/605/605
f 617/617/617 622/622/622 616/616/616
f 602/602/602 605/605/605 601/601/601
f 596/596/596 595/595/595 602/602/602
f 571/571/571 579/579/579 595/595/595
f 595/595/595 602/602/602 601/601/601
f 588/588/588 595/595/595 601/601/601
f 560/560/560 588/588/588 570/570/570
f 560/560/560 570/570/570 559/559/559
f 555/555/555 559/559/559 570/570/570
f 316/316/316 397/397/397 408/408/408
f 241/241/241 234/234/234 316/316/316
f 234/234/234 241/241/241 174/174/174
f 234/234/234 174/174/174 172/172/172
f 173/173/173 174/174/174 241/241/241
f 50/50/50 99/99/99 108/108/108
f 114/114/114 174/174/174 117/117/117
f 407/407/407 240/240/240 316/316/316
f 108/108/108 49/49/49 50/50/50
f 113/113/113 108/108/108 114/114/114
f 108/108/108 55/55/55 49/49/49
f 108/108/108 113/113/113 59/59/59
f 108/108/108 59/59/59 55/55/55
f 116/116/116 113/113/113 114/114/114
f 113/113/113 116/116/116 62/62/62
f 113/113/113 62/62/62 59/59/59
f 55/55/55 56/56/56 98/98/98
f 98/98/98 107/107/107 54/54/54
f 98/98/98 54/54/54 55/55/55
f 117/117/117 173/173/173 116/116/116
f 116/116/116 240/240/240 115/115/115
f 116/116/116 115/115/115 112/112/112
f 62/62/62 116/116/116 112/112/112
f 239/239/239 240/240/240 328/328/328
f 327/327/327 328/328/328 406/406/406
f 327/327/327 406/406/406 405/405/405
f 395/395/395 396/396/396 405/405/405
f 395/395/395 405/405/405 474/474/474
f 239/239/239 327/327/327 315/315/315
f 315/315/315 396/396/396 395/395/395
f 315/315/315 395/395/395 232/232/232
f 315/315/315 232/232/232 233/233/233
f 395/395/395 228/228/228 232/232/232
f 240/240/240 239/239/239 115/115/115
f 53/53/53 54/54/54 105/105/105
f 62/62/62 111/111/111 61/61/61
f 26/26/26 61/61/61 111/111/111
f 111/111/111 60/60/60 61/61/61
f 315/315/315 233/233/233 239/239/239
f 239/239/239 233/233/233 115/115/115
f 233/233/233 232/232/232 103/103/103
f 233/233/233 103/103/103 109/109/109
f 167/167/167 171/171/171 105/105/105
f 105/105/105 171/171/171 170/170/170
f 105/105/105 170/170/170 166/166/166
f 105/105/105 166/166/166 104/104/104
f 52/52/52 53/53/53 105/105/105
f 52/52/52 105/105/105 104/104/104
f 111/111/111 115/115/115 60/60/60
f 104/104/104 165/165/165 161/161/161
f 60/60/60 115/115/115 110/110/110
f 56/56/56 55/55/55 49/49/49
f 18/18/18 19/19/19 23/23/23
f 18/18/18 23/23/23 22/22/22
f 55/55/55 54/54/54 25/25/25
f 55/55/55 25/25/25 49/49/49
f 25/25/25 21/21/21 5/5/5
f 24/24/24 21/21/21 53/53/53
f 24/24/24 53/53/53 52/52/52
f 16/16/16 17/17/17 14/14/14
f 16/16/16 20/20/20 14/14/14
f 48/48/48 52/52/52 97/97/97
f 20/20/20 15/15/15 14/14/14
f 15/15/15 20/20/20 47/47/47
f 62/62/62 26/26/26 27/27/27
f 62/62/62 61/61/61 26/26/26
f 509/509/509 459/459/459 510/510/510
f 509/509/509 458/458/458 459/459/459
f 459/459/459 395/395/395 466/466/466
f 459/459/459 466/466/466 465/465/465
f 227/227/227 228/228/228 387/387/387
f 387/387/387 458/458/458 457/457/457
f 293/293/293 297/297/297 451/451/451
f 387/387/387 300/300/300 227/227/227
f 97/97/97 93/93/93 48/48/48
f 93/93/93 161/161/161 92/92/92
f 93/93/93 92/92/92 85/85/85
f 93/93/93 85/85/85 45/45/45
f 93/93/93 45/45/45 46/46/46
f 93/93/93 46/46/46 48/48/48
f 222/222/222 160/160/160 161/161/161
f 85/85/85 92/92/92 151/151/151
f 219/219/219 150/150/150 151/151/151
f 209/209/209 150/150/150 219/219/219
f 209/209/209 219/219/219 214/214/214
f 150/150/150 209/209/209 148/148/148
f 148/148/148 151/151/151 150/150/150
f 85/85/85 84/84/84 42/42/42
f 85/85/85 42/42/42 45/45/45
f 103/103/103 232/232/232 228/228/228
f 228/228/228 227/227/227 165/165/165
f 228/228/228 165/165/165 103/103/103
f 227/227/227 300/300/300 103/103/103
f 227/227/227 103/103/103 165/165/165
f 103/103/103 300/300/300 159/159/159
f 95/95/95 103/103/103 159/159/159
f 103/103/103 51/51/51 57/57/57
f 96/96/96 103/103/103 95/95/95
f 58/58/58 103/103/103 57/57/57
f 297/297/297 293/293/293 159/159/159
f 293/293/293 451/451/451 378/378/378
f 289/289/289 373/373/373 369/369/369
f 289/289/289 369/369/369 288/288/288
f 378/378/378 373/373/373 289/289/289
f 272/272/272 357/357/357 278/278/278
f 278/278/278 357/357/357 277/277/277
f 278/278/278 277/277/277 281/281/281
f 272/272/272 278/278/278 273/273/273
f 272/272/272 350/350/350 353/353/353
f 353/353/353 357/357/357 272/272/272
f 278/278/278 277/277/277 272/272/272
f 272/272/272 277/277/277 357/357/357
f 361/361/361 364/364/364 283/283/283
f 361/361/361 283/283/283 280/280/280
f 357/357/357 361/361/361 280/280/280
f 373/373/373 378/378/378 374/374/374
f 368/368/368 369/369/369 364/364/364
f 369/369/369 365/365/365 364/364/364
f 283/283/283 364/364/364 365/365/365
f 283/283/283 365/365/365 284/284/284
f 283/283/283 288/288/288 369/369/369
f 283/283/283 369/369/369 368/368/368
f 439/439/439 364/364/364 437/437/437
f 280/280/280 283/283/283 368/368/368
f 280/280/280 368/368/368 364/364/364
f 288/288/288 283/283/283 284/284/284
f 289/289/289 293/293/293 378/378/378
f 403/403/403 394/394/394 413/413/413
f 393/393/393 394/394/394 386/386/386
f 394/394/394 314/314/314 306/306/306
f 394/394/394 306/306/306 386/386/386
f 450/450/450 386/386/386 381/381/381
f 386/386/386 450/450/450 393/393/393
f 306/306/306 314/314/314 402/402/402
f 306/306/306 402/402/402 393/393/393
f 313/313/313 314/314/314 306/306/306
f 313/313/313 306/306/306 393/393/393
f 402/402/402 314/314/314 326/326/326
f 402/402/402 326/326/326 412/412/412
f 209/209/209 214/214/214 213/213/213
f 209/209/209 213/213/213 208/208/208
f 209/209/209 208/208/208 147/147/147
f 209/209/209 147/147/147 148/148/148
f 285/285/285 206/206/206 208/208/208
f 285/285/285 208/208/208 213/213/213
f 208/208/208 206/206/206 205/205/205
f 206/206/206 281/281/281 205/205/205
f 213/213/213 214/214/214 285/285/285
f 293/293/293 289/289/289 217/217/217
f 293/293/293 217/217/217 218/218/218
f 159/159/159 218/218/218 155/155/155
f 84/84/84 148/148/148 147/147/147
f 82/82/82 84/84/84 147/147/147
f 82/82/82 147/147/147 143/143/143
f 90/90/90 159/159/159 155/155/155
f 91/91/91 95/95/95 159/159/159
f 91/91/91 159/159/159 90/90/90
f 273/273/273 278/278/278 200/200/200
f 273/273/273 200/200/200 205/205/205
f 273/273/273 205/205/205 278/278/278
f 281/281/281 278/278/278 205/205/205
f 217/217/217 288/288/288 284/284/284
f 217/217/217 212/212/212 284/284/284
f 153/153/153 154/154/154 217/217/217
f 217/217/217 211/211/211 216/216/216
f 153/153/153 217/217/217 216/216/216
f 88/88/88 154/154/154 153/153/153
f 314/314/314 325/325/325 326/326/326
f 44/44/44 43/43/43 13/13/13
f 13/13/13 43/43/43 12/12/12
f 46/46/46 15/15/15 47/47/47
f 46/46/46 47/47/47 48/48/48
f 43/43/43 45/45/45 42/42/42
f 474/474/474 405/405/405 475/475/475
f 198/198/198 195/195/195 268/268/268
f 268/268/268 197/197/197 198/198/198
f 496/496/496 495/495/495 497/497/497
f 430/430/430 497/497/497 429/429/429
f 497/497/497 495/495/495 429/429/429
f 529/529/529 494/494/494 495/495/495
f 495/495/495 494/494/494 429/429/429
f 493/493/493 528/528/528 494/494/494
f 343/343/343 429/429/429 494/494/494
f 266/266/266 196/196/196 344/344/344
f 343/343/343 494/494/494 263/263/263
f 343/343/343 263/263/263 264/264/264
f 265/265/265 344/344/344 343/343/343
f 265/265/265 343/343/343 264/264/264
f 266/266/266 344/344/344 265/265/265
f 266/266/266 265/265/265 194/194/194
f 266/266/266 194/194/194 135/135/135
f 136/136/136 196/196/196 266/266/266
f 136/136/136 266/266/266 135/135/135
f 265/265/265 264/264/264 194/194/194
f 494/494/494 527/527/527 525/525/525
f 427/427/427 422/422/422 418/418/418
f 427/427/427 336/336/336 340/340/340
f 518/518/518 548/548/548 547/547/547
f 518/518/518 547/547/547 517/517/517
f 520/520/520 517/517/517 547/547/547
f 517/517/517 480/480/480 481/481/481
f 481/481/481 412/412/412 413/413/413
f 426/426/426 487/487/487 421/421/421
f 428/428/428 426/426/426 342/342/342
f 263/263/263 494/494/494 262/262/262
f 258/258/258 340/340/340 336/336/336
f 258/258/258 336/336/336 255/255/255
f 340/340/340 258/258/258 186/186/186
f 340/340/340 186/186/186 261/261/261
f 252/252/252 334/334/334 333/333/333
f 252/252/252 333/333/333 249/249/249
f 183/183/183 252/252/252 181/181/181
f 333/333/333 326/326/326 249/249/249
f 248/248/248 332/332/332 325/325/325
f 178/178/178 248/248/248 247/247/247
f 262/262/262 261/261/261 186/186/186
f 126/126/126 129/129/129 192/192/192
f 263/263/263 262/262/262 192/192/192
f 73/73/73 133/133/133 193/193/193
f 73/73/73 193/193/193 132/132/132
f 129/129/129 193/193/193 192/192/192
f 75/75/75 134/134/134 133/133/133
f 75/75/75 76/76/76 134/134/134
f 137/137/137 196/196/196 136/136/136
f 137/137/137 136/136/136 77/77/77
f 132/132/132 193/193/193 129/129/129
f 268/268/268 267/267/267 197/197/197
f 196/196/196 197/197/197 267/267/267
f 81/81/81 139/139/139 140/140/140
f 197/197/197 138/138/138 79/79/79
f 78/78/78 137/137/137 77/77/77
f 80/80/80 39/39/39 40/40/40
f 650/650/650 655/655/655 664/664/664
f 655/655/655 654/654/654 659/659/659
f 658/658/658 654/654/654 653/653/653
f 642/642/642 641/641/641 646/646/646
f 626/626/626 641/641/641 640/640/640
f 640/640/640 638/638/638 626/626/626
f 638/638/638 625/625/625 626/626/626
f 637/637/637 635/635/635 634/634/634
f 625/625/625 638/638/638 635/635/635
f 625/625/625 635/635/635 637/637/637
f 646/646/646 641/641/641 629/629/629
f 620/620/620 629/629/629 641/641/641
f 620/620/620 622/622/622 629/629/629
f 615/615/615 616/616/616 622/622/622
f 615/615/615 622/622/622 614/614/614
f 628/628/628 619/619/619 626/626/626
f 614/614/614 616/616/616 615/615/615
f 604/604/604 605/605/605 616/616/616
f 604/604/604 616/616/616 609/609/609
f 600/600/600 601/601/601 605/605/605
f 608/608/608 614/614/614 612/612/612
f 612/612/612 611/611/611 607/607/607
f 608/608/608 609/609/609 614/614/614
f 603/603/603 604/604/604 609/609/609
f 603/603/603 609/609/609 608/608/608
f 594/594/594 588/588/588 601/601/601
f 594/594/594 601/601/601 600/600/600
f 569/569/569 570/570/570 588/588/588
f 569/569/569 588/588/588 594/594/594
f 570/570/570 569/569/569 558/558/558
f 570/570/570 558/558/558 555/555/555
f 594/594/594 587/587/587 569/569/569
f 555/555/555 558/558/558 536/536/536
f 555/555/555 536/536/536 537/537/537
f 533/533/533 537/537/537 505/505/505
f 533/533/533 505/505/505 502/502/502
f 504/504/504 536/536/536 533/533/533
f 504/504/504 533/533/533 502/502/502
f 511/511/511 544/544/544 514/514/514
f 544/544/544 543/543/543 513/513/513
f 544/544/544 513/513/513 514/514/514
f 568/568/568 585/585/585 584/584/584
f 568/568/568 584/584/584 567/567/567
f 585/585/585 578/578/578 584/584/584
f 578/578/578 577/577/577 584/584/584
f 567/567/567 543/543/543 568/568/568
f 584/584/584 577/577/577 576/576/576
f 515/515/515 567/567/567 584/584/584
f 515/515/515 584/584/584 576/576/576
f 567/567/567 584/584/584 577/577/577
f 513/513/513 567/567/567 515/515/515
f 582/582/582 583/583/583 591/591/591
f 591/591/591 590/590/590 574/574/574
f 582/582/582 591/591/591 574/574/574
f 582/582/582 562/562/562 542/542/542
f 581/581/581 563/563/563 564/564/564
f 562/562/562 540/540/540 541/541/541
f 580/580/580 561/561/561 563/563/563
f 580/580/580 563/563/563 581/581/581
f 539/539/539 557/557/557 556/556/556
f 539/539/539 538/538/538 540/540/540
f 580/580/580 597/597/597 572/572/572
f 573/573/573 580/580/580 572/572/572
f 598/598/598 597/597/597 580/580/580
f 598/598/598 580/580/580 599/599/599
f 597/597/597 589/589/589 572/572/572
f 551/551/551 550/550/550 554/554/554
f 546/546/546 515/515/515 583/583/583
f 546/546/546 583/583/583 566/566/566
f 566/566/566 583/583/583 542/542/542
f 566/566/566 542/542/542 545/545/545
f 564/564/564 581/581/581 586/586/586
f 580/580/580 581/581/581 586/586/586
f 580/580/580 586/586/586 599/599/599
f 349/349/349 432/432/432 434/434/434
f 349/349/349 434/434/434 352/352/352
f 349/349/349 436/436/436 360/360/360
f 353/353/353 350/350/350 349/349/349
f 353/353/353 349/349/349 352/352/352
f 349/349/349 271/271/271 269/269/269
f 272/272/272 269/269/269 350/350/350
f 271/271/271 269/269/269 272/272/272
f 350/350/350 269/269/269 349/349/349
f 271/271/271 272/272/272 357/357/357
f 271/271/271 357/357/357 352/352/352
f 269/269/269 271/271/271 352/352/352
f 269/269/269 352/352/352 349/349/349
f 432/432/432 431/431/431 433/433/433
f 432/432/432 433/433/433 434/434/434
f 431/431/431 348/348/348 351/351/351
f 431/431/431 351/351/351 433/433/433
f 352/352/352 434/434/434 351/351/351
f 434/434/434 433/433/433 351/351/351
f 348/348/348 349/349/349 352/352/352
f 348/348/348 352/352/352 351/351/351
f 437/437/437 436/436/436 438/438/438
f 437/437/437 438/438/438 439/439/439
f 437/437/437 436/436/436 435/435/435
f 436/436/436 498/498/498 438/438/438
f 439/439/439 438/438/438 499/499/499
f 439/439/439 499/499/499 500/500/500
f 500/500/500 443/443/443 439/439/439
f 502/502/502 505/505/505 500/500/500
f 502/502/502 500/500/500 499/499/499
f 505/505/505 443/443/443 500/500/500
f 504/504/504 502/502/502 499/499/499
f 504/504/504 499/499/499 442/442/442
f 357/357/357 353/353/353 352/352/352
f 357/357/357 352/352/352 356/356/356
f 361/361/361 357/357/357 356/356/356
f 356/356/356 435/435/435 437/437/437
f 356/356/356 437/437/437 361/361/361
f 437/437/437 361/361/361 436/436/436
f 360/360/360 361/361/361 437/437/437
f 360/360/360 437/437/437 364/364/364
f 437/437/437 436/436/436 439/439/439
f 364/364/364 439/439/439 436/436/436
f 376/376/376 436/436/436 445/445/445
f 360/360/360 436/436/436 376/376/376
f 360/360/360 376/376/376 377/377/377
f 271/271/271 357/357/357 356/356/356
f 276/276/276 357/357/357 271/271/271
f 280/280/280 356/356/356 357/357/357
f 356/356/356 280/280/280 279/279/279
f 280/280/280 357/357/357 276/276/276
f 282/282/282 279/279/279 360/360/360
f 364/364/364 436/436/436 279/279/279
f 364/364/364 279/279/279 280/280/280
f 436/436/436 360/360/360 438/438/438
f 271/271/271 351/351/351 270/270/270
f 362/362/362 282/282/282 360/360/360
f 364/364/364 439/439/439 363/363/363
f 371/371/371 372/372/372 376/376/376
f 371/371/371 376/376/376 296/296/296
f 367/367/367 438/438/438 363/363/363
f 440/440/440 367/367/367 441/441/441
f 440/440/440 441/441/441 442/442/442
f 367/367/367 370/370/370 441/441/441
f 367/367/367 371/371/371 370/370/370
f 292/292/292 371/371/371 296/296/296
f 270/270/270 351/351/351 355/355/355
f 275/275/275 270/270/270 355/355/355
f 276/276/276 271/271/271 270/270/270
f 276/276/276 270/270/270 275/275/275
f 275/275/275 355/355/355 359/359/359
f 358/358/358 359/359/359 355/355/355
f 358/358/358 355/355/355 354/354/354
f 358/358/358 354/354/354 274/274/274
f 286/286/286 282/282/282 366/366/366
f 366/366/366 370/370/370 291/291/291
f 366/366/366 291/291/291 286/286/286
f 504/504/504 505/505/505 537/537/537
f 504/504/504 537/537/537 536/536/536
f 448/448/448 376/376/376 445/445/445
f 371/371/371 442/442/442 377/377/377
f 450/450/450 381/381/381 377/377/377
f 450/450/450 377/377/377 446/446/446
f 442/442/442 446/446/446 377/377/377
f 450/450/450 446/446/446 445/445/445
f 445/445/445 446/446/446 442/442/442
f 463/463/463 376/376/376 445/445/445
f 372/372/372 376/376/376 377/377/377
f 445/445/445 376/376/376 442/442/442
f 392/392/392 377/377/377 376/376/376
f 392/392/392 376/376/376 463/463/463
f 380/380/380 377/377/377 376/376/376
f 376/376/376 445/445/445 380/380/380
f 449/449/449 450/450/450 445/445/445
f 393/393/393 450/450/450 449/449/449
f 371/371/371 377/377/377 376/376/376
f 296/296/296 376/376/376 377/377/377
f 296/296/296 377/377/377 380/380/380
f 377/377/377 381/381/381 376/376/376
f 299/299/299 376/376/376 381/381/381
f 376/376/376 299/299/299 380/380/380
f 380/380/380 306/306/306 393/393/393
f 380/380/380 449/449/449 445/445/445
f 376/376/376 379/379/379 380/380/380
f 375/375/375 371/371/371 376/376/376
f 379/379/379 376/376/376 299/299/299
f 456/456/456 464/464/464 463/463/463
f 393/393/393 464/464/464 456/456/456
f 393/393/393 456/456/456 385/385/385
f 393/393/393 385/385/385 392/392/392
f 402/402/402 473/473/473 464/464/464
f 402/402/402 464/464/464 393/393/393
f 464/464/464 473/473/473 472/472/472
f 392/392/392 401/401/401 472/472/472
f 312/312/312 393/393/393 386/386/386
f 312/312/312 386/386/386 385/385/385
f 325/325/325 393/393/393 312/312/312
f 325/325/325 312/312/312 324/324/324
f 463/463/463 385/385/385 456/456/456
f 392/392/392 385/385/385 463/463/463
f 392/392/392 463/463/463 472/472/472
f 472/472/472 463/463/463 471/471/471
f 392/392/392 401/401/401 463/463/463
f 385/385/385 305/305/305 312/312/312
f 448/448/448 442/442/442 441/441/441
f 448/448/448 508/508/508 455/455/455
f 454/454/454 508/508/508 448/448/448
f 508/508/508 512/512/512 462/462/462
f 508/508/508 462/462/462 455/455/455
f 512/512/512 544/544/544 511/511/511
f 512/512/512 511/511/511 462/462/462
f 454/454/454 448/448/448 455/455/455
f 448/448/448 370/370/370 375/375/375
f 375/375/375 370/370/370 371/371/371
f 380/380/380 379/379/379 304/304/304
f 379/379/379 299/299/299 304/304/304
f 290/290/290 294/294/294 295/295/295
f 244/244/244 305/305/305 304/304/304
f 244/244/244 304/304/304 311/311/311
f 304/304/304 237/237/237 311/311/311
f 279/279/279 207/207/207 211/211/211
f 276/276/276 275/275/275 204/204/204
f 204/204/204 203/203/203 146/146/146
f 153/153/153 216/216/216 211/211/211
f 153/153/153 211/211/211 152/152/152
f 215/215/215 291/291/291 221/221/221
f 215/215/215 158/158/158 152/152/152
f 274/274/274 203/203/203 275/275/275
f 146/146/146 203/203/203 145/145/145
f 202/202/202 203/203/203 274/274/274
f 145/145/145 203/203/203 202/202/202
f 145/145/145 202/202/202 144/144/144
f 304/304/304 299/299/299 305/305/305
f 238/238/238 305/305/305 244/244/244
f 237/237/237 304/304/304 305/305/305
f 237/237/237 305/305/305 238/238/238
f 244/244/244 311/311/311 243/243/243
f 244/244/244 243/243/243 177/177/177
f 157/157/157 158/158/158 221/221/221
f 157/157/157 221/221/221 224/224/224
f 295/295/295 224/224/224 221/221/221
f 157/157/157 224/224/224 164/164/164
f 224/224/224 295/295/295 223/223/223
f 164/164/164 224/224/224 223/223/223
f 223/223/223 163/163/163 164/164/164
f 511/511/511 514/514/514 391/391/391
f 511/511/511 391/391/391 462/462/462
f 470/470/470 514/514/514 513/513/513
f 144/144/144 202/202/202 201/201/201
f 390/390/390 318/318/318 398/398/398
f 235/235/235 236/236/236 308/308/308
f 235/235/235 308/308/308 303/303/303
f 308/308/308 236/236/236 309/309/309
f 541/541/541 390/390/390 467/467/467
f 540/540/540 453/453/453 460/460/460
f 467/467/467 461/461/461 390/390/390
f 467/467/467 542/542/542 541/541/541
f 390/390/390 384/384/384 303/303/303
f 390/390/390 303/303/303 308/308/308
f 460/460/460 389/389/389 390/390/390
f 303/303/303 384/384/384 302/302/302
f 453/453/453 383/383/383 389/389/389
f 453/453/453 389/389/389 460/460/460
f 534/534/534 506/506/506 507/507/507
f 506/506/506 503/503/503 444/444/444
f 506/506/506 444/444/444 447/447/447
f 540/540/540 538/538/538 453/453/453
f 453/453/453 452/452/452 383/383/383
f 382/382/382 383/383/383 452/452/452
f 303/303/303 302/302/302 298/298/298
f 235/235/235 303/303/303 231/231/231
f 473/473/473 480/480/480 479/479/479
f 473/473/473 479/479/479 472/472/472
f 402/402/402 480/480/480 473/473/473
f 411/411/411 479/479/479 472/472/472
f 411/411/411 472/472/472 401/401/401
f 421/421/421 487/487/487 484/484/484
f 416/416/416 484/484/484 480/480/480
f 416/416/416 480/480/480 411/411/411
f 420/420/420 484/484/484 416/416/416
f 479/479/479 483/483/483 411/411/411
f 401/401/401 472/472/472 479/479/479
f 472/472/472 471/471/471 478/478/478
f 478/478/478 401/401/401 472/472/472
f 479/479/479 483/483/483 416/416/416
f 416/416/416 483/483/483 411/411/411
f 425/425/425 426/426/426 421/421/421
f 425/425/425 421/421/421 420/420/420
f 426/426/426 425/425/425 338/338/338
f 426/426/426 338/338/338 339/339/339
f 342/342/342 426/426/426 339/339/339
f 342/342/342 339/339/339 338/338/338
f 342/342/342 338/338/338 341/341/341
f 420/420/420 419/419/419 425/425/425
f 338/338/338 425/425/425 424/424/424
f 338/338/338 424/424/424 337/337/337
f 522/522/522 549/549/549 552/552/552
f 519/519/519 549/549/549 522/522/522
f 486/486/486 519/519/519 522/522/522
f 519/519/519 486/486/486 482/482/482
f 551/551/551 522/522/522 552/552/552
f 522/522/522 524/524/524 490/490/490
f 471/471/471 401/401/401 478/478/478
f 419/419/419 415/415/415 486/486/486
f 337/337/337 425/425/425 419/419/419
f 337/337/337 419/419/419 335/335/335
f 423/423/423 419/419/419 490/490/490
f 247/247/247 324/324/324 244/244/244
f 247/247/247 177/177/177 178/178/178
f 342/342/342 341/341/341 259/259/259
f 123/123/123 121/121/121 122/122/122
f 64/64/64 63/63/63 125/125/125
f 125/125/125 124/124/124 64/64/64
f 246/246/246 243/243/243 245/245/245
f 179/179/179 246/246/246 245/245/245
f 176/176/176 177/177/177 243/243/243
f 176/176/176 243/243/243 246/246/246
f 180/180/180 176/176/176 246/246/246
f 180/180/180 246/246/246 179/179/179
f 179/179/179 122/122/122 180/180/180
f 179/179/179 245/245/245 251/251/251
f 122/122/122 179/179/179 182/182/182
f 251/251/251 182/182/182 179/179/179
f 182/182/182 185/185/185 124/124/124
f 182/182/182 124/124/124 122/122/122
f 182/182/182 250/250/250 254/254/254
f 182/182/182 254/254/254 185/185/185
f 524/524/524 523/523/523 489/489/489
f 489/489/489 523/523/523 521/521/521
f 489/489/489 521/521/521 485/485/485
f 513/513/513 469/469/469 470/470/470
f 469/469/469 513/513/513 515/515/515
f 469/469/469 515/515/515 399/399/399
f 189/189/189 185/185/185 254/254/254
f 254/254/254 253/253/253 188/188/188
f 257/257/257 256/256/256 188/188/188
f 256/256/256 257/257/257 184/184/184
f 256/256/256 184/184/184 187/187/187
f 256/256/256 187/187/187 188/188/188
f 184/184/184 188/188/188 187/187/187
f 188/188/188 131/131/131 128/128/128
f 128/128/128 131/131/131 72/72/72
f 131/131/131 188/188/188 191/191/191
f 131/131/131 191/191/191 71/71/71
f 72/72/72 131/131/131 71/71/71
f 130/130/130 71/71/71 191/191/191
f 74/74/74 71/71/71 130/130/130
f 65/65/65 63/63/63 64/64/64
f 65/65/65 64/64/64 68/68/68
f 30/30/30 28/28/28 68/68/68
f 31/31/31 28/28/28 30/30/30
f 72/72/72 68/68/68 64/64/64
f 34/34/34 30/30/30 68/68/68
f 34/34/34 68/68/68 72/72/72
f 34/34/34 35/35/35 30/30/30
f 72/72/72 71/71/71 74/74/74
f 10/10/10 11/11/11 38/38/38
f 74/74/74 37/37/37 10/10/10
f 37/37/37 36/36/36 9/9/9
f 36/36/36 33/33/33 8/8/8
f 9/9/9 10/10/10 37/37/37
f 515/515/515 546/546/546 477/477/477
f 515/515/515 477/477/477 409/409/409
f 546/546/546 545/545/545 477/477/477
f 468/468/468 477/477/477 545/545/545
f 409/409/409 477/477/477 468/468/468
f 409/409/409 468/468/468 398/398/398
f 398/398/398 319/319/319 329/329/329
f 542/542/542 398/398/398 468/468/468
f 319/319/319 330/330/330 329/329/329
f 8/8/8 33/33/33 32/32/32
f 66/66/66 69/69/69 70/70/70
f 7/7/7 32/32/32 33/33/33
f 2/2/2 8/8/8 32/32/32
f 2/2/2 32/32/32 7/7/7
