# 由 henjicc/yipiantian 的 lingcao_ninglu_sprout 转换而来（见 manifest.json）
mtllib lingcao_ninglu_sprout.mtl
o lingcao_ninglu_sprout
v -0.04305 0.08200 0.04901
v -0.04259 0.08147 0.05011
v -0.04272 0.08453 0.03659
v -0.04331 0.08401 0.04043
v -0.04311 0.08365 0.04155
v -0.04365 0.08311 0.04528
v -0.04342 0.08259 0.04762
v -0.04327 0.08500 0.03806
v -0.04046 0.07930 0.05243
v -0.04064 0.08067 0.04653
v -0.04151 0.08041 0.05166
v -0.04110 0.08358 0.03438
v -0.04199 0.08445 0.03568
v -0.03927 0.07842 0.05247
v -0.03937 0.07890 0.05256
v -0.03863 0.08198 0.02874
v -0.03869 0.08140 0.03058
v -0.03910 0.08160 0.03246
v -0.04029 0.07960 0.05247
v -0.03880 0.08241 0.02928
v -0.03885 0.08238 0.02956
v -0.04003 0.08260 0.03332
v -0.03731 0.07930 0.03036
v -0.03680 0.07835 0.03920
v -0.03812 0.07930 0.04137
v -0.03735 0.07729 0.05145
v -0.03795 0.08144 0.02810
v -0.03761 0.08012 0.03035
v -0.03791 0.07956 0.04142
v -0.03577 0.07602 0.05113
v -0.03580 0.07820 0.02558
v -0.03557 0.07684 0.03674
v -0.03646 0.07684 0.05089
v -0.03329 0.07030 0.01327
v -0.03321 0.07018 0.01697
v -0.03371 0.07124 0.01390
v -0.03367 0.07112 0.01516
v -0.03325 0.07324 0.02364
v -0.03323 0.07288 0.03219
v -0.03438 0.07562 0.02432
v -0.03425 0.07479 0.03410
v -0.03357 0.07419 0.04881
v -0.03442 0.07496 0.05005
v -0.03243 0.05922 -0.01709
v -0.03242 0.05923 -0.01703
v -0.03164 0.06731 0.01276
v -0.03132 0.06723 0.01924
v -0.03246 0.06900 0.01295
v -0.03285 0.06999 0.01743
v -0.03213 0.06852 0.01862
v -0.03206 0.07048 0.02309
v -0.03210 0.07056 0.03032
v -0.03123 0.07008 0.03767
v -0.03140 0.07046 0.03835
v -0.03144 0.07101 0.03929
v -0.03174 0.07186 0.04202
v -0.03204 0.07258 0.04503
v -0.03246 0.07316 0.04677
v -0.03293 0.07390 0.04809
v -0.02978 0.06369 0.01170
v -0.03009 0.06443 0.01240
v -0.03000 0.06502 0.02001
v -0.02981 0.06499 0.02088
v -0.02951 0.06470 0.02653
v -0.03076 0.06582 0.01266
v -0.03034 0.06571 0.01951
v -0.03032 0.06624 0.02190
v -0.03079 0.06767 0.02836
v -0.03021 0.06795 0.04006
v -0.02986 0.06761 0.04231
v -0.02947 0.06686 0.04428
v -0.03055 0.06902 0.03705
v -0.03032 0.06878 0.03877
v -0.02852 0.06150 0.01159
v -0.02758 0.05983 0.01697
v -0.02847 0.06212 0.01845
v -0.02815 0.06142 0.02451
v -0.02765 0.06426 0.00063
v -0.02912 0.06287 0.01156
v -0.02811 0.06404 0.03302
v -0.02762 0.06391 0.04371
v -0.02797 0.06467 0.04500
v -0.02836 0.06701 -0.02693
v -0.02906 0.06799 -0.02551
v -0.02753 0.06778 -0.02033
v -0.02913 0.06623 0.03470
v -0.02872 0.06588 0.04553
v -0.02886 0.06844 -0.02419
v -0.02819 0.06840 -0.02160
v -0.02659 0.05293 0.00829
v -0.02600 0.05353 0.01128
v -0.02702 0.05446 0.00971
v -0.02566 0.05566 0.01361
v -0.02680 0.05829 0.01250
v -0.02636 0.05764 0.01518
v -0.02657 0.05790 0.02232
v -0.02586 0.05876 0.03066
v -0.02728 0.05995 0.01697
v -0.02643 0.06077 0.03175
v -0.02586 0.06026 0.03406
v -0.02594 0.06112 0.03742
v -0.02622 0.06186 0.04018
v -0.02643 0.06220 0.04192
v -0.02627 0.06419 -0.02792
v -0.02686 0.06296 0.04084
v -0.02687 0.06303 0.04205
v -0.02711 0.06553 -0.02796
v -0.02677 0.06601 -0.02422
v -0.02728 0.06799 -0.02037
v -0.02623 0.06710 -0.01832
v -0.02426 0.05044 0.00741
v -0.02383 0.05094 0.01271
v -0.02515 0.05132 0.00738
v -0.02541 0.05319 0.01161
v -0.02446 0.05221 0.01272
v -0.02405 0.05247 0.01896
v -0.02499 0.05476 0.01380
v -0.02492 0.05451 0.02020
v -0.02464 0.05543 0.02691
v -0.02524 0.05717 0.02815
v -0.02551 0.05859 0.03002
v -0.02447 0.06189 -0.02881
v -0.02461 0.06198 -0.02808
v -0.02467 0.06264 -0.02758
v -0.02532 0.06465 -0.02320
v -0.02400 0.06327 -0.02222
v -0.02409 0.06489 -0.01605
v -0.02553 0.06684 -0.01726
v -0.02498 0.06597 -0.01658
v -0.02304 0.04953 0.00705
v -0.02337 0.05074 0.01317
v -0.02243 0.04988 0.01711
v -0.02213 0.05098 0.02428
v -0.02344 0.05124 0.01350
v -0.02375 0.05264 0.01896
v -0.02353 0.05354 0.02724
v -0.02347 0.05333 0.03011
v -0.02297 0.05258 0.03361
v -0.02220 0.05152 0.03605
v -0.02379 0.05426 0.02645
v -0.02200 0.05902 -0.02700
v -0.02208 0.05947 -0.01121
v -0.02366 0.06115 -0.02870
v -0.02298 0.06022 -0.02813
v -0.02277 0.06185 -0.02124
v -0.02241 0.06219 -0.01552
v -0.02292 0.06098 -0.01194
v -0.02216 0.05977 -0.01082
v -0.02324 0.06361 -0.01569
v -0.02078 0.04742 0.00714
v -0.02035 0.04631 0.01446
v -0.02183 0.04873 0.00680
v -0.02166 0.04856 0.01614
v -0.02077 0.04892 0.02226
v -0.02032 0.04925 0.03048
v -0.02090 0.05015 0.03354
v -0.02150 0.05074 0.03594
v -0.02188 0.05115 0.02424
v -0.02172 0.05118 0.03636
v -0.02030 0.05655 -0.01042
v -0.02137 0.05867 -0.02638
v -0.02049 0.05745 -0.02462
v -0.02075 0.05864 -0.01930
v -0.02079 0.05824 -0.01477
v -0.02125 0.05866 -0.01402
v -0.02136 0.05869 -0.01043
v -0.02169 0.06030 -0.02026
v -0.02149 0.06019 -0.01541
v -0.02187 0.05978 -0.01202
v -0.02186 0.05973 -0.01101
v -0.01835 0.04448 0.00782
v -0.01875 0.04454 0.01293
v -0.01835 0.04477 0.01896
v -0.01943 0.04592 0.00763
v -0.02009 0.04652 0.01446
v -0.01848 0.04550 0.02030
v -0.01862 0.04618 0.02220
v -0.01893 0.04699 0.02534
v -0.01924 0.04790 0.02862
v -0.01852 0.05026 -0.00867
v -0.01888 0.05075 -0.00804
v -0.01860 0.05041 -0.00517
v -0.01984 0.04886 0.03053
v -0.01929 0.05303 -0.02594
v -0.01912 0.05303 -0.02478
v -0.01856 0.05280 -0.02118
v -0.01862 0.05330 -0.01673
v -0.01884 0.05319 -0.01101
v -0.01939 0.05143 -0.00669
v -0.01950 0.05160 -0.00502
v -0.01973 0.05632 -0.02309
v -0.01920 0.05511 -0.02196
v -0.01918 0.05487 -0.01739
v -0.01924 0.05482 -0.01072
v -0.02001 0.05711 -0.02394
v -0.01990 0.05679 -0.01833
v -0.02001 0.05668 -0.01042
v -0.01742 0.04383 0.00775
v -0.01726 0.04301 0.01159
v -0.01745 0.04347 0.01645
v -0.01809 0.04494 0.01892
v -0.01656 0.04813 -0.02139
v -0.01660 0.04741 -0.01441
v -0.01761 0.05033 -0.02440
v -0.01675 0.04892 -0.02266
v -0.01722 0.04939 -0.01522
v -0.01754 0.04972 -0.01136
v -0.01738 0.04875 -0.01035
v -0.01752 0.04886 -0.00591
v -0.01816 0.05115 -0.02530
v -0.01815 0.05248 -0.02089
v -0.01799 0.05143 -0.01603
v -0.01821 0.05199 -0.01123
v -0.01546 0.04207 0.00704
v -0.01552 0.04152 0.01023
v -0.01549 0.04113 0.01291
v -0.01558 0.04533 -0.01998
v -0.01504 0.04487 -0.01926
v -0.01498 0.04442 -0.00699
v -0.01499 0.04447 -0.00515
v -0.01648 0.04316 0.00761
v -0.01564 0.04601 -0.02008
v -0.01561 0.04599 -0.01861
v -0.01635 0.04754 -0.01437
v -0.01561 0.04563 -0.01346
v -0.01599 0.04635 -0.00733
v -0.01626 0.04826 -0.02139
v -0.01312 0.03937 0.00825
v -0.01318 0.03861 0.01437
v -0.01423 0.03914 0.01583
v -0.01316 0.04205 -0.01510
v -0.01337 0.04197 -0.01148
v -0.01331 0.04233 -0.00557
v -0.01325 0.04001 0.00561
v -0.01417 0.04122 0.00643
v -0.01429 0.04016 0.01143
v -0.01430 0.03990 0.01290
v -0.01444 0.03976 0.01501
v -0.01428 0.04378 -0.01765
v -0.01363 0.04276 -0.01607
v -0.01452 0.04371 -0.01246
v -0.01444 0.04373 -0.00785
v -0.01412 0.04350 -0.00520
v -0.01125 0.03865 -0.01230
v -0.01180 0.03950 -0.01021
v -0.01116 0.03918 -0.00731
v -0.01162 0.03879 0.00456
v -0.01161 0.03850 0.00704
v -0.01145 0.03780 0.01047
v -0.01227 0.03821 0.01254
v -0.01221 0.04062 -0.01350
v -0.01217 0.04038 -0.01060
v -0.01204 0.04043 -0.00681
v -0.01282 0.04044 0.00570
v -0.01274 0.03976 0.00833
v -0.00963 0.02266 0.01777
v -0.00955 0.02305 0.01756
v -0.00994 0.02384 0.01955
v -0.01018 0.02493 0.02246
v -0.01031 0.02539 0.02543
v -0.01001 0.02536 0.03049
v -0.00965 0.02505 0.03355
v -0.00937 0.02459 0.03534
v -0.01023 0.02577 0.02539
v -0.01021 0.02573 0.02745
v -0.00993 0.02575 0.03053
v -0.00950 0.03670 -0.01191
v -0.00921 0.03682 -0.00685
v -0.00967 0.03653 0.00285
v -0.00946 0.03551 0.00446
v -0.01014 0.03636 0.00714
v -0.01065 0.03808 -0.01254
v -0.01009 0.03787 -0.00918
v -0.01016 0.03805 -0.00719
v -0.01039 0.03795 0.00490
v -0.01018 0.03712 0.00791
v -0.00814 0.01658 -0.01288
v -0.00776 0.01564 -0.01066
v -0.00816 0.01913 -0.01811
v -0.00836 0.01799 -0.01497
v -0.00831 0.01722 -0.01254
v -0.00763 0.01913 0.01161
v -0.00772 0.01841 0.01208
v -0.00738 0.02071 -0.02194
v -0.00802 0.01998 -0.01960
v -0.00846 0.02033 0.01390
v -0.00908 0.02162 0.01578
v -0.00768 0.02237 0.03940
v -0.00895 0.02390 0.03701
v -0.00826 0.02319 0.03855
v -0.00814 0.03385 0.00319
v -0.00746 0.03363 0.00438
v -0.00814 0.03594 -0.00998
v -0.00798 0.03561 -0.00686
v -0.00780 0.03529 0.00170
v -0.00853 0.03573 0.00545
v -0.00895 0.03708 -0.00680
v -0.00904 0.03721 0.00289
v -0.00699 0.01407 -0.00889
v -0.00578 0.01299 -0.00638
v -0.00725 0.01488 -0.00829
v -0.00570 0.01552 0.00844
v -0.00665 0.01667 0.01012
v -0.00657 0.01752 0.00952
v -0.00570 0.02139 -0.02607
v -0.00659 0.02103 -0.02402
v -0.00729 0.02028 -0.02203
v -0.00620 0.02159 0.04060
v -0.00614 0.03241 -0.00732
v -0.00617 0.03290 -0.00522
v -0.00610 0.03261 0.00145
v -0.00712 0.03529 -0.00876
v -0.00672 0.03492 -0.00686
v -0.00665 0.03542 0.00319
v -0.00678 0.03444 0.00442
v -0.00555 0.04010 0.00068
v -0.00402 0.01076 -0.00515
v -0.00372 0.01080 0.00527
v -0.00483 0.01169 -0.00591
v -0.00472 0.01209 -0.00447
v -0.00402 0.01254 0.00472
v -0.00459 0.01297 0.00691
v -0.00500 0.01484 0.00685
v -0.00368 0.01760 0.01229
v -0.00368 0.02151 -0.02949
v -0.00466 0.02162 -0.02806
v -0.00372 0.02181 0.03801
v -0.00434 0.02060 0.04086
v -0.00423 0.02090 0.04103
v -0.00393 0.02798 -0.00583
v -0.00421 0.02742 -0.00404
v -0.00419 0.02760 -0.00055
v -0.00392 0.02733 0.00128
v -0.00432 0.02981 -0.00640
v -0.00452 0.02989 -0.00428
v -0.00508 0.03049 -0.00043
v -0.00473 0.02982 0.00196
v -0.00481 0.03258 -0.00672
v -0.00399 0.03334 -0.00376
v -0.00387 0.03338 -0.00036
v -0.00498 0.03291 0.00276
v -0.00413 0.03540 -0.00070
v -0.00412 0.03561 0.00046
v -0.00494 0.03855 -0.00083
v -0.00466 0.03762 0.00060
v -0.00371 0.04053 -0.00799
v -0.00527 0.03982 0.00009
v -0.00515 0.04008 0.00077
v -0.00189 0.00000 0.00030
v -0.00189 0.00281 0.00196
v -0.00206 0.00298 0.00089
v -0.00236 0.00808 -0.00378
v -0.00238 0.00725 -0.00202
v -0.00249 0.00595 0.00217
v -0.00304 0.00846 0.00391
v -0.00335 0.00993 -0.00398
v -0.00189 0.00893 -0.00013
v -0.00296 0.00931 0.00234
v -0.00223 0.01063 0.00549
v -0.00213 0.01288 -0.00659
v -0.00217 0.01284 -0.00393
v -0.00193 0.01237 -0.00067
v -0.00240 0.01299 0.00417
v -0.00279 0.01276 0.00712
v -0.00212 0.01570 -0.00965
v -0.00259 0.01539 -0.00665
v -0.00199 0.01607 -0.00098
v -0.00318 0.01539 0.00778
v -0.00359 0.01607 0.01042
v -0.00213 0.01788 -0.01038
v -0.00224 0.01856 -0.00097
v -0.00353 0.01818 0.01044
v -0.00364 0.01896 0.01429
v -0.00253 0.02128 -0.03074
v -0.00231 0.02151 -0.00347
v -0.00247 0.02106 -0.00106
v -0.00206 0.02113 0.00106
v -0.00351 0.01998 0.01365
v -0.00345 0.02108 0.01637
v -0.00334 0.02181 0.01909
v -0.00338 0.02245 0.03614
v -0.00263 0.02057 0.04014
v -0.00258 0.02468 -0.00399
v -0.00265 0.02446 -0.00168
v -0.00274 0.02432 0.00128
v -0.00317 0.02292 0.01935
v -0.00308 0.02344 0.02240
v -0.00300 0.02405 0.02536
v -0.00300 0.02421 0.02827
v -0.00300 0.02405 0.03115
v -0.00307 0.02351 0.03400
v -0.00321 0.02300 0.03636
v -0.00313 0.02828 -0.00587
v -0.00251 0.02689 -0.00397
v -0.00246 0.02716 -0.00178
v -0.00226 0.02794 0.00135
v -0.00338 0.03036 -0.00591
v -0.00284 0.02964 -0.00420
v -0.00273 0.02950 -0.00139
v -0.00342 0.03087 0.00183
v -0.00212 0.03342 -0.00762
v -0.00335 0.03224 -0.00392
v -0.00337 0.03302 -0.00036
v -0.00321 0.03138 0.00085
v -0.00212 0.03582 -0.00684
v -0.00206 0.03623 -0.00438
v -0.00359 0.03431 -0.00067
v -0.00272 0.03818 -0.00728
v -0.00239 0.03785 -0.00510
v -0.00333 0.04035 -0.00771
v -0.00116 0.00000 -0.00130
v -0.00128 0.00000 0.00136
v -0.00148 0.00309 -0.00094
v -0.00074 0.00293 0.00247
v -0.00080 0.00668 -0.00336
v -0.00153 0.00621 -0.00062
v -0.00119 0.00653 0.00083
v -0.00147 0.00714 0.00374
v -0.00144 0.01063 -0.00395
v -0.00085 0.00892 -0.00156
v -0.00092 0.00926 0.00160
v -0.00053 0.00965 0.00468
v -0.00011 0.01318 -0.00583
v -0.00040 0.01311 -0.00440
v -0.00144 0.01306 -0.00137
v -0.00117 0.01244 0.00088
v -0.00083 0.01271 0.00453
v -0.00085 0.01286 0.00689
v -0.00030 0.01518 -0.00675
v -0.00057 0.01620 -0.00291
v -0.00091 0.01619 0.00099
v -0.00064 0.01517 0.00811
v -0.00066 0.01952 -0.01552
v -0.00144 0.01822 -0.01263
v -0.00094 0.01865 -0.00336
v -0.00127 0.01865 0.00099
v -0.00073 0.02073 -0.03228
v -0.00026 0.02075 -0.01737
v -0.00079 0.02037 -0.01522
v -0.00082 0.02119 -0.00336
v -0.00089 0.02183 -0.00146
v -0.00055 0.02135 0.00071
v -0.00099 0.02029 0.03971
v -0.00094 0.02400 -0.00340
v -0.00100 0.02423 -0.00142
v -0.00127 0.02468 0.00094
v -0.00105 0.02667 -0.00394
v -0.00094 0.02706 -0.00126
v -0.00126 0.03031 -0.00569
v -0.00098 0.03009 -0.00329
v -0.00086 0.02973 -0.00118
v -0.00157 0.03282 -0.00662
v -0.00107 0.03221 -0.00311
v -0.00105 0.03235 -0.00193
v -0.00153 0.03451 -0.00628
v -0.00154 0.03510 -0.00412
v 0.00098 0.00000 -0.00140
v 0.00145 0.00000 0.00125
v 0.00099 0.00325 -0.00128
v 0.00089 0.00330 0.00189
v 0.00101 0.00625 -0.00101
v 0.00050 0.00649 0.00196
v 0.00050 0.01009 -0.00346
v 0.00093 0.00907 -0.00113
v 0.00074 0.00904 0.00095
v 0.00015 0.01191 -0.00485
v 0.00077 0.01292 -0.00171
v 0.00065 0.01291 0.00071
v 0.00087 0.01680 -0.00944
v 0.00006 0.01548 -0.00799
v 0.00082 0.01631 -0.00149
v 0.00062 0.01629 0.00038
v 0.00011 0.01635 0.00978
v 0.00070 0.01752 -0.00897
v 0.00032 0.01879 -0.00264
v 0.00052 0.01884 -0.00112
v 0.00023 0.01879 0.00038
v 0.00128 0.01739 0.01152
v 0.00091 0.02011 -0.03336
v 0.00151 0.02197 -0.02685
v 0.00089 0.02220 -0.02425
v 0.00038 0.02188 -0.02126
v 0.00006 0.02132 -0.01930
v 0.00028 0.02058 -0.00130
v 0.00145 0.02055 0.03748
v 0.00053 0.02058 0.03859
v 0.00189 0.00000 0.00000
v 0.00273 0.01936 -0.03410
v 0.00338 0.01933 -0.01227
v 0.00197 0.01828 -0.01075
v 0.00279 0.01828 0.01331
v 0.00202 0.01986 -0.03393
v 0.00298 0.02106 -0.03059
v 0.00199 0.02169 -0.02839
v 0.00364 0.02105 0.03436
v 0.00262 0.02088 0.03608
v 0.00434 0.01907 -0.03393
v 0.00471 0.01928 0.01595
v 0.00423 0.01994 -0.03291
v 0.00502 0.02009 -0.01378
v 0.00423 0.02149 0.03346
v 0.00636 0.01857 -0.03409
v 0.00648 0.02075 -0.01541
v 0.00551 0.02003 0.01718
v 0.00626 0.02044 0.01921
v 0.00685 0.02109 0.02201
v 0.00697 0.02160 0.02519
v 0.00651 0.02177 0.02807
v 0.00555 0.02171 0.03089
v 0.00842 0.01858 -0.03291
v 0.00853 0.02139 -0.01851
v 0.00759 0.02109 -0.01697
v 0.00925 0.01875 -0.03200
v 0.01027 0.01934 -0.03004
v 0.01078 0.01981 -0.02785
v 0.01088 0.02018 -0.02747
v 0.01074 0.02097 -0.02427
v 0.00975 0.02139 -0.02101
v 0.01099 0.02058 -0.02653
vt 0.19593 0.04759
vt 0.19832 0.05558
vt 0.18300 0.24376
vt 0.18303 0.19455
vt 0.21627 0.15868
vt 0.18843 0.11692
vt 0.15646 0.10899
vt 0.21416 0.12629
vt 0.13842 0.14395
vt 0.37336 0.28601
vt 0.20340 0.06996
vt 0.43177 0.41085
vt 0.21299 0.11892
vt 0.20621 0.17055
vt 0.29016 0.12686
vt 0.50392 0.58580
vt 0.45560 0.51614
vt 0.43011 0.42426
vt 0.19462 0.11586
vt 0.26385 0.32572
vt 0.30847 0.30845
vt 0.43081 0.41778
vt 0.52940 0.49428
vt 0.65458 0.51306
vt 0.59860 0.64877
vt 0.21638 0.20512
vt 0.26812 0.25191
vt 0.33712 0.31408
vt 0.41997 0.06943
vt 0.45853 0.27714
vt 0.28531 0.29003
vt 0.64381 0.51405
vt 0.26198 0.18563
vt 0.30110 0.42822
vt 0.27163 0.38246
vt 0.25450 0.34369
vt 0.26595 0.39389
vt 0.28919 0.31456
vt 0.62786 0.51535
vt 0.28692 0.30324
vt 0.63367 0.51487
vt 0.51792 0.42935
vt 0.40513 0.25125
vt 0.09462 0.00173
vt 0.09469 0.00118
vt 0.26790 0.40052
vt 0.28921 0.31346
vt 0.22714 0.35098
vt 0.11483 0.17995
vt 0.23101 0.23517
vt 0.29211 0.32718
vt 0.62393 0.51591
vt 0.56197 0.48345
vt 0.56423 0.48946
vt 0.44944 0.31952
vt 0.45891 0.33096
vt 0.46933 0.34324
vt 0.47429 0.35069
vt 0.35638 0.14986
vt 0.36295 0.40072
vt 0.24388 0.34712
vt 0.32883 0.40143
vt 0.28420 0.30178
vt 0.62048 0.51626
vt 0.23360 0.37261
vt 0.25957 0.27791
vt 0.28746 0.31795
vt 0.62164 0.51613
vt 0.60553 0.46702
vt 0.49640 0.30891
vt 0.54490 0.37384
vt 0.39206 0.24096
vt 0.41427 0.21524
vt 0.34813 0.34410
vt 0.79225 0.70167
vt 0.57086 0.52017
vt 0.61906 0.51650
vt 0.03256 0.00444
vt 0.25567 0.29468
vt 0.67406 0.51169
vt 0.60870 0.44033
vt 0.48580 0.27986
vt 0.13818 0.34668
vt 0.32174 0.39552
vt 0.31075 0.33147
vt 0.67723 0.51146
vt 0.43819 0.22675
vt 0.20316 0.35838
vt 0.22895 0.37398
vt 0.25011 0.24175
vt 0.26293 0.27376
vt 0.23114 0.29456
vt 0.32530 0.34570
vt 0.33614 0.35145
vt 0.56566 0.52085
vt 0.61764 0.51646
vt 0.56907 0.45617
vt 0.34639 0.33939
vt 0.50828 0.36808
vt 0.46464 0.32890
vt 0.47581 0.31335
vt 0.48547 0.30045
vt 0.48740 0.31377
vt 0.16494 0.36056
vt 0.38194 0.32039
vt 0.40175 0.30504
vt 0.01381 0.35251
vt 0.24356 0.54673
vt 0.16520 0.27346
vt 0.23873 0.28440
vt 0.32450 0.24561
vt 0.33665 0.31765
vt 0.30697 0.24756
vt 0.28479 0.31971
vt 0.24532 0.31217
vt 0.83442 0.64493
vt 0.24158 0.29304
vt 0.61642 0.51656
vt 0.36663 0.28198
vt 0.35756 0.27928
vt 0.33991 0.23997
vt 0.22194 0.38182
vt 0.30908 0.33461
vt 0.15390 0.31322
vt 0.25876 0.54541
vt 0.27344 0.54429
vt 0.25900 0.27676
vt 0.14758 0.26211
vt 0.24249 0.20709
vt 0.32474 0.30185
vt 0.33312 0.26168
vt 0.61396 0.51678
vt 0.88346 0.64494
vt 0.24230 0.30498
vt 0.39723 0.38830
vt 0.31935 0.27003
vt 0.36685 0.31061
vt 0.38172 0.32465
vt 0.38024 0.27829
vt 0.23617 0.18554
vt 0.33873 0.30516
vt 0.27536 0.29892
vt 0.16189 0.30526
vt 0.22850 0.32190
vt 0.28806 0.54290
vt 0.26658 0.28894
vt 0.25352 0.30873
vt 0.26794 0.28922
vt 0.26283 0.28243
vt 0.37233 0.27006
vt 0.82306 0.57408
vt 0.26142 0.23986
vt 0.61263 0.51688
vt 0.65906 0.51281
vt 0.41129 0.30527
vt 0.39008 0.26712
vt 0.39699 0.27204
vt 0.44512 0.38011
vt 0.34953 0.26821
vt 0.42032 0.37636
vt 0.20295 0.31193
vt 0.28073 0.29464
vt 0.31737 0.54060
vt 0.25847 0.29959
vt 0.28601 0.29532
vt 0.30997 0.37349
vt 0.30279 0.54188
vt 0.27200 0.29754
vt 0.12163 0.29516
vt 0.17706 0.25733
vt 0.48793 0.29056
vt 0.60810 0.51689
vt 0.43712 0.34427
vt 0.37900 0.27752
vt 0.39740 0.45959
vt 0.33332 0.30898
vt 0.30232 0.28523
vt 0.38372 0.30011
vt 0.35750 0.27001
vt 0.35030 0.27246
vt 0.35147 0.26928
vt 0.22861 0.39293
vt 0.34383 0.24299
vt 0.20952 0.36934
vt 0.17185 0.29346
vt 0.26815 0.24093
vt 0.35860 0.53733
vt 0.42390 0.34550
vt 0.26238 0.34211
vt 0.22754 0.38984
vt 0.25442 0.28946
vt 0.26211 0.28162
vt 0.34735 0.53831
vt 0.28441 0.35410
vt 0.14579 0.30680
vt 0.33256 0.53950
vt 0.21138 0.35017
vt 0.38658 0.28657
vt 0.60634 0.51689
vt 0.32398 0.32816
vt 0.22286 0.28702
vt 0.41191 0.24167
vt 0.60252 0.47165
vt 0.24818 0.29701
vt 0.30557 0.27871
vt 0.38568 0.53526
vt 0.28647 0.30419
vt 0.31597 0.28901
vt 0.22987 0.38440
vt 0.25781 0.38164
vt 0.13396 0.28223
vt 0.37133 0.53641
vt 0.28759 0.34283
vt 0.42592 0.29578
vt 0.60484 0.51693
vt 0.34200 0.29122
vt 0.32103 0.31240
vt 0.22601 0.36692
vt 0.27454 0.31388
vt 0.22741 0.33815
vt 0.28612 0.29563
vt 0.22712 0.28022
vt 0.24648 0.28135
vt 0.19690 0.59629
vt 0.41461 0.53270
vt 0.23003 0.37108
vt 0.21214 0.32701
vt 0.80727 0.47863
vt 0.34716 0.36031
vt 0.24021 0.22154
vt 0.24884 0.38763
vt 0.44615 0.53009
vt 0.26363 0.40238
vt 0.49679 0.29111
vt 0.36006 0.30996
vt 0.37960 0.29415
vt 0.31623 0.27266
vt 0.22341 0.28487
vt 0.23500 0.37497
vt 0.24342 0.38257
vt 0.43067 0.53138
vt 0.27188 0.30060
vt 0.22863 0.41797
vt 0.35152 0.30983
vt 0.66582 0.41348
vt 0.26336 0.38511
vt 0.43069 0.30984
vt 0.59934 0.51640
vt 0.33570 0.37946
vt 0.34167 0.36944
vt 0.23827 0.40909
vt 0.39426 0.56697
vt 0.26261 0.39199
vt 0.29485 0.33429
vt 0.39753 0.55469
vt 0.46834 0.52055
vt 0.49637 0.26471
vt 0.49746 0.36844
vt 0.62850 0.29938
vt 0.75899 0.35747
vt 0.30181 0.29280
vt 0.18284 0.21139
vt 0.14717 0.23915
vt 0.51551 0.25386
vt 0.45224 0.29942
vt 0.06032 0.14855
vt 0.33672 0.19704
vt 0.33643 0.27736
vt 0.49788 0.29051
vt 0.79526 0.42578
vt 0.35989 0.33072
vt 0.19938 0.32011
vt 0.52324 0.50037
vt 0.26722 0.37859
vt 0.44756 0.43879
vt 0.28519 0.38543
vt 0.46544 0.30937
vt 0.52826 0.29934
vt 0.49456 0.27088
vt 0.55107 0.24809
vt 0.66182 0.19021
vt 0.49274 0.26639
vt 0.39477 0.39262
vt 0.63467 0.14418
vt 0.64203 0.15729
vt 0.47757 0.37562
vt 0.47966 0.38431
vt 0.31163 0.29604
vt 0.17544 0.29577
vt 0.13706 0.29091
vt 0.79232 0.40525
vt 0.51846 0.32292
vt 0.26599 0.26952
vt 0.46548 0.38253
vt 0.40067 0.34498
vt 0.41246 0.43156
vt 0.20474 0.36292
vt 0.30073 0.37957
vt 0.54258 0.35474
vt 0.61200 0.27514
vt 0.67249 0.20459
vt 0.53566 0.27515
vt 0.57890 0.28740
vt 0.49398 0.26557
vt 0.48771 0.21869
vt 0.49939 0.22692
vt 0.38802 0.32325
vt 0.17160 0.26603
vt 0.39803 0.20611
vt 0.39841 0.16537
vt 0.49191 0.34453
vt 0.16848 0.36053
vt 0.26110 0.38643
vt 0.39224 0.62579
vt 0.32276 0.43570
vt 0.23323 0.31357
vt 0.55068 0.32365
vt 0.56663 0.28468
vt 0.54885 0.33219
vt 0.46608 0.24352
vt 0.52989 0.36602
vt 0.56990 0.28542
vt 0.38730 0.33677
vt 0.13789 0.43364
vt 0.34267 0.32355
vt 0.51688 0.30531
vt 0.59009 0.39205
vt 0.40230 0.30041
vt 0.13591 0.29066
vt 0.50474 0.18553
vt 0.60311 0.23358
vt 0.49882 0.29028
vt 0.61681 0.28456
vt 0.32545 0.12462
vt 0.40096 0.18206
vt 0.49863 0.28996
vt 0.52305 0.28028
vt 0.21689 0.37587
vt 0.21029 0.32106
vt 0.25488 0.37285
vt 0.35054 0.50760
vt 0.28925 0.37685
vt 0.25983 0.36957
vt 0.29995 0.37433
vt 0.24630 0.28822
vt 0.12609 0.23774
vt 0.22041 0.42944
vt 0.26435 0.26367
vt 0.87316 0.14346
vt 0.56953 0.28523
vt 0.86943 0.16612
vt 0.56473 0.19011
vt 0.46164 0.21416
vt 0.56196 0.31119
vt 0.56549 0.28441
vt 0.46485 0.26294
vt 0.44712 0.18441
vt 0.54201 0.34843
vt 0.24260 0.33459
vt 0.29105 0.46275
vt 0.35119 0.25167
vt 0.56985 0.21408
vt 0.16741 0.36986
vt 0.24149 0.31383
vt 0.26816 0.43924
vt 0.54911 0.16758
vt 0.55564 0.22321
vt 0.14154 0.36137
vt 0.13900 0.43149
vt 0.55615 0.13121
vt 0.55575 0.23552
vt 0.12307 0.20845
vt 0.04054 0.62206
vt 0.29293 0.34961
vt 0.65807 0.23321
vt 0.47567 0.24504
vt 0.15338 0.19490
vt 0.11886 0.17768
vt 0.09118 0.31346
vt 0.22888 0.52597
vt 0.59211 0.37521
vt 0.27793 0.32015
vt 0.45037 0.25760
vt 0.36955 0.25568
vt 0.37408 0.25232
vt 0.11430 0.12366
vt 0.35574 0.18159
vt 0.35371 0.17960
vt 0.35188 0.17890
vt 0.35068 0.17937
vt 0.27984 0.22806
vt 0.01480 0.41224
vt 0.15635 0.07887
vt 0.31193 0.31098
vt 0.30039 0.39874
vt 0.31201 0.35071
vt 0.20127 0.40170
vt 0.31286 0.44510
vt 0.30751 0.38614
vt 0.33339 0.43802
vt 0.14845 0.25267
vt 0.22586 0.32336
vt 0.27890 0.35822
vt 0.39941 0.67343
vt 0.12942 0.21792
vt 0.06564 0.34634
vt 0.29800 0.41452
vt 0.13802 0.23141
vt 0.06872 0.30160
vt 0.17746 0.24941
vt 0.68057 0.13387
vt 0.46793 0.33365
vt 0.47107 0.18371
vt 0.25110 0.40388
vt 0.38241 0.25451
vt 0.36602 0.21597
vt 0.28223 0.23791
vt 0.24567 0.36680
vt 0.28782 0.33120
vt 0.31676 0.23483
vt 0.27447 0.32168
vt 0.37392 0.57500
vt 0.35102 0.64509
vt 0.47755 0.46037
vt 0.45152 0.19800
vt 0.24822 0.15248
vt 0.32973 0.52584
vt 0.37236 0.54456
vt 0.43084 0.54168
vt 0.34763 0.18524
vt 0.18243 0.12884
vt 0.30300 0.45508
vt 0.16322 0.34924
vt 0.30855 0.32556
vt 0.34606 0.17450
vt 0.18470 0.14929
vt 0.29437 0.33094
vt 0.35604 0.21052
vt 0.56229 0.08425
vt 0.25411 0.24819
vt 0.27319 0.41664
vt 0.31804 0.32956
vt 0.20372 0.27895
vt 0.23068 0.24543
vt 0.21610 0.42195
vt 0.31563 0.34034
vt 0.24065 0.26144
vt 0.14061 0.35414
vt 0.13788 0.24823
vt 0.12194 0.23317
vt 0.14933 0.23637
vt 0.14907 0.23463
vt 0.09062 0.24314
vt 0.16533 0.22764
vt 0.13381 0.26952
vt 0.08396 0.27908
vt 0.34567 0.42914
vt 0.33927 0.58508
vt 0.31077 0.49162
vt 0.38058 0.63282
vt 0.31188 0.51302
vt 0.34901 0.50198
vt 0.39412 0.61244
vt 0.32222 0.56093
vt 0.32074 0.28967
vt 0.35599 0.64055
vt 0.25281 0.45418
vt 0.32128 0.30232
vt 0.27356 0.52999
vt 0.34003 0.65613
vt 0.34819 0.64651
vt 0.35808 0.43006
vt 0.20165 0.31764
vt 0.36207 0.40485
vt 0.23668 0.48602
vt 0.44241 0.77390
vt 0.35460 0.43193
vt 0.20488 0.30840
vt 0.29552 0.31484
vt 0.39812 0.50842
vt 0.43342 0.35181
vt 0.43331 0.36275
vt 0.35053 0.20526
vt 0.43389 0.76292
vt 0.22823 0.27792
vt 0.03123 0.29615
vt 0.52576 0.89209
vt 0.27785 0.28384
vt 0.17568 0.24144
vt 0.26068 0.28637
vt 0.20985 0.29817
vt 0.35180 0.34919
vt 0.52340 0.55607
vt 0.39550 0.50036
vt 0.34036 0.23917
vt 0.17965 0.27281
vt 0.26082 0.24257
vt 0.20968 0.32716
vt 0.66557 0.60345
vt 0.13460 0.23478
vt 0.15645 0.16315
vt 0.26493 0.30584
vt 0.18659 0.19634
vt 0.24137 0.14962
vt 0.31504 0.26491
vt 0.33981 0.12588
vt 0.23827 0.08612
vt 0.22980 0.11874
vt 0.22739 0.13163
vt 0.29424 0.38757
vt 0.32148 0.21555
vt 0.19546 0.13545
vt 0.29236 0.38021
vt 0.33555 0.40017
vt 0.17255 0.24007
vt 0.32402 0.33418
vt 0.26818 0.27718
vt 0.27057 0.26822
vt 0.49702 0.47338
vn -0.76227 0.44108 0.47370
vn -0.72362 0.39911 0.56310
vn -0.79921 -0.54157 -0.26071
vn -0.96158 -0.27429 0.01179
vn -0.34366 0.40459 0.84747
vn -0.96031 -0.26135 -0.09744
vn -0.01745 0.93774 0.34690
vn 0.49610 0.85450 0.15400
vn -0.58922 -0.80673 -0.04480
vn -0.60345 -0.78549 -0.13727
vn -0.58591 0.26616 0.76542
vn -0.39935 0.52061 -0.75464
vn 0.66229 0.73819 0.12820
vn -0.59707 -0.79918 -0.06941
vn 0.57896 0.77526 0.25255
vn -0.87728 -0.28839 -0.38369
vn -0.85568 -0.49840 0.13930
vn -0.45368 0.57763 -0.67862
vn 0.54647 0.79475 0.26408
vn -0.30774 0.76197 -0.56982
vn -0.55540 0.60016 0.57561
vn -0.07198 0.20768 -0.97554
vn -0.86355 -0.50357 0.02620
vn 0.29325 -0.28857 -0.91145
vn -0.67462 -0.73072 -0.10460
vn -0.47104 -0.86879 0.15272
vn 0.32579 0.79570 -0.51061
vn 0.60051 0.59373 0.53560
vn 0.67391 0.73121 0.10570
vn -0.12050 -0.26072 0.95787
vn -0.17091 0.42387 -0.88945
vn -0.45853 0.63381 0.62293
vn 0.53202 0.80962 0.24794
vn -0.80904 -0.20918 -0.54927
vn -0.93946 -0.30185 0.16217
vn -0.37446 0.80192 -0.46552
vn -0.44547 0.83438 0.32461
vn -0.09795 0.22877 -0.96854
vn -0.00808 -0.00460 0.99996
vn -0.11097 0.27399 -0.95531
vn -0.31979 0.54596 0.77438
vn -0.61676 -0.78207 0.08925
vn 0.52605 -0.57034 0.63086
vn 0.83481 0.50862 -0.21071
vn 0.79789 0.60158 0.03839
vn -0.08182 0.09747 -0.99187
vn -0.05817 0.18458 0.98109
vn 0.81134 0.49868 -0.30505
vn 0.84065 0.53977 0.04430
vn -0.19777 0.40478 0.89277
vn -0.09023 0.11923 -0.98876
vn -0.45098 0.88104 0.14281
vn -0.84193 -0.53072 0.09740
vn -0.80753 -0.57462 0.13310
vn 0.53366 -0.76239 0.36602
vn 0.56581 -0.77978 0.26795
vn 0.60128 -0.75517 0.26111
vn 0.59929 -0.68468 0.41482
vn 0.76110 0.64430 0.07480
vn -0.60442 0.27868 -0.74633
vn -0.57421 0.65336 0.49336
vn -0.89555 -0.43780 0.07948
vn -0.40051 0.91104 0.09794
vn -0.36116 0.55404 -0.75007
vn 0.85406 0.48776 -0.18077
vn 0.83839 0.52815 0.13475
vn -0.23354 0.47100 -0.85066
vn 0.43636 -0.83793 0.32781
vn -0.88557 -0.46449 -0.00320
vn -0.52814 0.80071 0.28272
vn -0.93645 -0.29225 0.19405
vn 0.38174 0.81667 0.43280
vn 0.83129 0.55569 -0.01301
vn -0.16341 0.37306 -0.91330
vn -0.89862 -0.43851 0.01360
vn -0.02756 0.00051 -0.99962
vn 0.30999 -0.76202 -0.56853
vn 0.76505 0.62804 -0.14236
vn 0.38419 0.56340 -0.73142
vn 0.39821 -0.81458 -0.42178
vn -0.78200 -0.62240 0.03310
vn -0.07848 -0.79833 0.59708
vn -0.81723 0.03843 -0.57504
vn -0.85612 -0.50721 0.09900
vn -0.78599 -0.54229 0.29689
vn 0.06739 0.03895 0.99697
vn 0.17444 0.26808 0.94747
vn -0.11478 0.98294 -0.14372
vn -0.53392 0.72669 0.43226
vn -0.63401 0.59012 -0.49979
vn -0.66777 -0.16813 0.72514
vn -0.51384 0.83163 -0.21062
vn -0.89572 -0.44261 -0.04210
vn 0.12716 -0.31492 -0.94056
vn 0.17870 -0.35470 0.91775
vn -0.39841 0.72970 -0.55571
vn -0.85541 -0.48699 0.17639
vn 0.89826 0.43928 -0.01250
vn 0.90129 0.41279 -0.13145
vn 0.49434 -0.82268 0.28075
vn 0.50227 -0.83572 0.22200
vn 0.46690 -0.84439 0.26269
vn 0.30530 -0.68285 0.66371
vn -0.73871 -0.65677 -0.15150
vn -0.47521 0.80413 0.35713
vn -0.13238 0.64016 0.75675
vn 0.70235 0.61708 -0.35485
vn 0.65999 -0.64910 0.37827
vn 0.68541 0.72451 -0.07270
vn -0.63963 0.74964 0.17004
vn -0.68711 -0.72384 -0.06281
vn -0.66362 -0.72602 0.18030
vn -0.18565 -0.12325 -0.97486
vn 0.68609 0.70849 -0.16530
vn -0.33296 0.75193 0.56899
vn -0.85746 -0.50768 0.08380
vn 0.90123 0.40558 -0.15260
vn -0.46422 0.79336 -0.39381
vn -0.79106 -0.53991 0.28763
vn 0.94173 0.33548 -0.02455
vn 0.89027 0.43346 -0.13975
vn -0.28027 0.17474 -0.94388
vn -0.91044 -0.41333 0.01598
vn 0.65675 0.71239 -0.24734
vn 0.62680 -0.60072 0.49624
vn 0.51249 -0.77233 -0.37533
vn -0.05740 0.29830 0.95275
vn 0.75304 0.65293 -0.08130
vn -0.15159 0.42311 0.89331
vn -0.55341 0.45354 -0.69860
vn -0.92353 -0.37925 0.05705
vn 0.57094 -0.81465 0.10180
vn -0.80939 -0.57989 0.09280
vn 0.77629 0.61400 -0.14270
vn 0.85857 0.50578 -0.08390
vn -0.43006 0.65618 0.62006
vn -0.62836 0.77399 0.07807
vn -0.60720 0.69986 0.37616
vn -0.67148 0.17911 0.71905
vn 0.83669 0.54179 -0.08010
vn -0.77829 -0.61799 0.11110
vn -0.85567 -0.51466 -0.05443
vn 0.74721 0.48951 -0.44951
vn 0.18234 -0.49600 -0.84896
vn -0.44037 0.75877 0.47994
vn -0.00254 0.13435 0.99093
vn -0.62232 0.55757 0.54939
vn -0.85742 0.46940 0.21095
vn -0.02915 0.21532 0.97611
vn 0.20115 -0.15827 -0.96669
vn -0.78071 -0.62351 0.04160
vn 0.77982 0.62541 -0.02730
vn -0.01620 0.21551 0.97637
vn 0.58463 -0.81104 -0.02050
vn -0.86868 -0.48807 0.08478
vn 0.61868 -0.72899 0.29292
vn 0.11321 -0.80109 0.58774
vn 0.81080 0.57770 -0.09420
vn 0.39052 0.24615 0.88708
vn -0.86430 -0.49170 0.10590
vn 0.82902 0.49396 -0.26216
vn -0.79227 -0.60566 -0.07406
vn 0.42494 -0.87735 0.22287
vn -0.31496 0.63674 0.70383
vn -0.06452 0.14889 -0.98675
vn -0.08135 0.14153 0.98659
vn 0.43168 -0.66361 0.61096
vn -0.03676 0.07040 0.99684
vn 0.80578 0.59218 -0.00562
vn 0.67786 0.73500 -0.01693
vn -0.72548 -0.66948 -0.15960
vn 0.63117 -0.73879 0.23624
vn -0.73582 -0.65781 0.16080
vn 0.30035 -0.19919 -0.93280
vn 0.78193 0.62243 -0.03410
vn 0.61401 -0.71457 0.33524
vn 0.92585 0.37647 -0.03277
vn -0.52339 -0.82949 0.19494
vn 0.59756 -0.74662 0.29238
vn -0.36161 0.50726 -0.78226
vn -0.42461 0.59060 -0.68622
vn 0.17799 -0.21818 0.95954
vn 0.44994 0.41243 0.79212
vn -0.32702 0.44416 -0.83414
vn -0.18364 0.97606 -0.11653
vn -0.93589 -0.35228 -0.00257
vn -0.22376 0.59231 0.77401
vn -0.93802 -0.34403 0.04195
vn -0.55908 0.72871 -0.39550
vn -0.40982 0.56692 0.71459
vn 0.23887 -0.51129 -0.82554
vn 0.23593 -0.55507 -0.79764
vn -0.28085 0.62998 0.72405
vn 0.93779 0.31763 0.14020
vn 0.89908 0.42609 -0.10050
vn -0.23702 0.50632 0.82913
vn 0.87267 0.46438 0.15099
vn 0.13752 0.02738 -0.99012
vn -0.20110 0.30653 -0.93038
vn 0.57523 -0.60130 0.55457
vn 0.80771 0.58061 -0.10250
vn -0.89087 -0.45268 -0.03790
vn -0.91382 -0.40201 -0.05760
vn 0.22378 -0.63456 -0.73977
vn 0.32782 -0.74846 -0.57649
vn -0.34773 0.80593 0.47913
vn -0.06406 0.02560 0.99762
vn -0.44297 0.75777 -0.47913
vn 0.24556 -0.34160 0.90720
vn 0.16131 -0.49203 -0.85550
vn 0.91538 0.40193 -0.02316
vn -0.07690 0.12575 0.98908
vn 0.93092 0.25302 0.26336
vn -0.71531 -0.50882 -0.47899
vn -0.70509 0.59363 0.38787
vn -0.08258 -0.83839 0.53877
vn -0.54770 -0.77260 -0.32110
vn 0.33846 -0.67017 -0.66054
vn -0.97630 0.11589 -0.18276
vn -0.51916 0.36588 0.77240
vn 0.67079 0.73989 0.05110
vn 0.04358 0.38501 -0.92188
vn -0.68840 0.71499 -0.12208
vn 0.91366 0.40278 0.05470
vn -0.45568 0.82343 -0.33810
vn 0.24952 -0.40481 0.87970
vn 0.92898 0.36979 -0.01580
vn -0.71700 -0.69030 -0.09690
vn 0.60145 -0.63688 0.48233
vn -0.33597 -0.26597 0.90354
vn 0.46460 -0.58571 -0.66415
vn -0.49808 0.74321 -0.44671
vn 0.27241 -0.29550 0.91568
vn -0.75948 -0.57089 -0.31189
vn 0.39934 0.87782 -0.26451
vn -0.56680 -0.72555 0.39027
vn -0.23340 0.95476 0.18428
vn 0.42270 0.88641 0.18870
vn 0.40563 -0.68433 -0.60593
vn 0.46958 -0.66337 -0.58260
vn 0.51298 -0.81628 0.26559
vn 0.70030 0.70608 -0.10502
vn 0.71391 0.43342 0.54999
vn -0.86643 -0.48084 -0.13453
vn -0.80818 -0.58789 0.03510
vn 0.08464 -0.06044 0.99458
vn -0.73756 -0.03865 -0.67418
vn -0.59907 0.49809 0.62692
vn 0.44862 -0.54256 0.71019
vn 0.64299 -0.62531 0.44221
vn 0.88816 0.22916 -0.39832
vn 0.79955 0.59979 -0.03129
vn 0.25007 -0.31052 0.91708
vn 0.57883 0.81515 -0.02200
vn 0.65441 0.73651 0.17120
vn -0.28131 -0.84423 0.45622
vn 0.05860 0.87531 -0.48000
vn -0.60037 -0.74190 0.29858
vn -0.98096 0.18560 -0.05710
vn -0.28621 -0.94924 0.13051
vn -0.28764 -0.95496 -0.07286
vn -0.96572 0.17496 0.19176
vn -0.17647 0.91257 0.36889
vn 0.11959 0.98416 -0.13089
vn -0.97539 0.20753 0.07444
vn 0.12466 0.98694 0.10204
vn -0.65510 -0.75420 0.04500
vn -0.77500 -0.59640 0.20900
vn -0.78527 -0.29589 -0.54388
vn -0.77193 -0.62872 -0.09400
vn -0.42599 -0.84879 0.31320
vn 0.45280 0.55547 -0.69744
vn -0.72838 -0.68323 0.05156
vn -0.11414 0.14350 0.98305
vn 0.43925 0.86647 -0.23724
vn 0.78560 0.10470 0.60981
vn 0.06730 -0.86318 -0.50039
vn -0.54936 -0.70024 -0.45593
vn -0.05978 -0.92462 -0.37617
vn -0.95212 -0.10005 -0.28888
vn -0.36770 0.81980 0.43900
vn -0.16220 0.78719 -0.59499
vn -0.40040 -0.78210 0.47750
vn -0.25679 0.94867 0.18459
vn -0.27958 0.92805 0.24609
vn -0.98711 0.09301 -0.13021
vn -0.98663 0.12867 -0.10001
vn -0.40526 -0.87017 -0.28031
vn -0.87010 0.04056 0.49120
vn -0.07017 0.81413 0.57643
vn -0.79750 -0.59690 -0.08780
vn -0.29119 -0.69757 0.65468
vn 0.03701 -0.62179 -0.78231
vn -0.81651 -0.07873 0.57194
vn -0.30962 0.38739 -0.86837
vn 0.53427 -0.14146 0.83339
vn 0.58441 0.77662 0.23521
vn 0.38300 0.81940 -0.42650
vn -0.07310 -0.83030 -0.55250
vn -0.90827 -0.39256 0.14470
vn -0.49011 0.65351 0.57681
vn -0.95359 -0.20163 -0.22363
vn -0.46952 -0.75054 0.46502
vn -0.33151 0.66321 -0.67101
vn -0.86968 -0.07975 -0.48713
vn -0.88637 -0.07688 -0.45655
vn 0.11350 -0.96094 -0.25241
vn -0.24970 0.33548 0.90835
vn -0.54444 -0.54610 -0.63668
vn -0.51797 0.08706 0.85095
vn -0.81921 -0.27284 -0.50444
vn 0.76999 0.45570 -0.44660
vn 0.69912 0.70388 0.12561
vn 0.73177 0.67117 0.11850
vn 0.69002 0.16881 0.70383
vn -0.73382 0.66216 0.15183
vn -0.38270 -0.69970 -0.60330
vn -0.79611 -0.48200 0.36590
vn -0.28119 -0.77027 -0.57238
vn -0.62537 0.23962 0.74262
vn -0.75880 0.23084 -0.60904
vn -0.68398 -0.61897 0.38607
vn -0.65252 0.39231 -0.64832
vn -0.10940 -0.81023 0.57582
vn -0.36946 -0.90549 -0.20878
vn -0.40058 0.89081 -0.21447
vn -0.27100 -0.87919 -0.39190
vn -0.28810 -0.93235 -0.21844
vn 0.27179 0.72359 0.63446
vn -0.45493 -0.44693 -0.77025
vn -0.92208 -0.26290 0.28399
vn -0.82458 -0.22840 -0.51759
vn -0.70357 -0.36715 0.60843
vn -0.02309 -0.33844 -0.94070
vn -0.43929 0.12596 0.88947
vn -0.64610 -0.09600 -0.75720
vn -0.44998 -0.46801 0.76058
vn 0.80811 0.33843 -0.48211
vn -0.96536 0.25108 0.07092
vn -0.88785 -0.15488 0.43328
vn 0.76153 0.31957 0.56387
vn -0.97705 -0.08312 -0.19612
vn -0.04184 0.37580 0.92576
vn -0.16342 0.51409 -0.84203
vn -0.17874 0.46203 0.86866
vn -0.71670 0.57878 -0.38904
vn -0.22419 0.68472 -0.69347
vn 0.37935 0.84435 0.37837
vn -0.99005 -0.02910 -0.13771
vn -0.74511 -0.25780 0.61511
vn -0.97910 -0.06260 -0.19350
vn -0.53958 -0.45269 -0.70988
vn -0.91598 -0.05703 0.39715
vn -0.96405 -0.21958 0.14964
vn -0.83089 -0.38599 0.40079
vn -0.83575 -0.52610 -0.15728
vn -0.99964 -0.00560 -0.02610
vn -0.77858 0.12690 -0.61458
vn -0.01790 -0.54150 0.84051
vn 0.21155 -0.65049 -0.72946
vn -0.14585 0.57644 0.80401
vn -0.99802 -0.04801 -0.04061
vn -0.06342 0.60853 -0.79099
vn -0.01846 -0.66174 0.74951
vn 0.22260 -0.78450 -0.57881
vn -0.22376 0.75926 0.61110
vn -0.99349 -0.10671 -0.03996
vn -0.12510 0.75819 -0.63992
vn -0.08710 -0.77129 0.63049
vn -0.21798 0.84965 0.48018
vn -0.99489 -0.10094 -0.00031
vn 0.09506 0.83194 -0.54666
vn -0.12390 -0.83139 0.54170
vn -0.64194 -0.16497 -0.74880
vn -0.76690 -0.28441 -0.57530
vn -0.99202 -0.11860 0.04270
vn -0.54637 -0.14733 0.82448
vn 0.13230 0.86292 -0.48771
vn 0.17330 0.89760 -0.40533
vn -0.17643 -0.89991 0.39879
vn -0.26120 -0.90510 -0.33550
vn 0.02540 -0.89604 0.44325
vn -0.60358 -0.32933 -0.72611
vn -0.84336 -0.04948 0.53507
vn -0.54299 -0.23120 0.80729
vn 0.18500 0.91220 -0.36560
vn 0.88477 -0.36242 -0.29298
vn -0.08585 0.14244 0.98607
vn 0.00979 -0.02325 0.99968
vn -0.07801 -0.12875 0.98860
vn 0.24779 0.90603 0.34309
vn 0.25911 0.88752 0.38101
vn 0.40312 -0.11371 -0.90805
vn 0.48291 0.07399 -0.87254
vn 0.73994 0.45638 -0.49417
vn 0.66044 0.12941 0.73965
vn 0.81398 0.23690 -0.53039
vn 0.72321 0.20521 -0.65944
vn 0.07128 -0.25596 0.96406
vn 0.78193 0.27501 0.55942
vn -0.92390 0.24430 -0.29450
vn 0.38394 0.80882 -0.44542
vn 0.76288 0.15843 0.62683
vn 0.84414 0.52872 -0.08880
vn -0.46782 0.16254 -0.86875
vn -0.93502 -0.15340 0.31971
vn 0.97410 0.22609 -0.00267
vn -0.00937 0.39396 -0.91908
vn -0.71977 0.13373 0.68121
vn -0.04112 0.83268 -0.55222
vn -0.71109 -0.14660 -0.68765
vn -0.56269 -0.24608 0.78919
vn -0.92526 -0.09674 -0.36678
vn -0.15190 -0.26970 0.95089
vn -0.04848 -0.31226 -0.94876
vn -0.99975 0.02205 -0.00453
vn -0.64359 0.48258 -0.59405
vn -0.07948 -0.38257 0.92050
vn 0.33772 -0.45834 -0.82211
vn -0.91244 0.15309 -0.37949
vn 0.18966 0.96093 0.20159
vn 0.80190 -0.15094 0.57807
vn 0.77622 -0.32701 -0.53902
vn 0.47843 0.59628 0.64463
vn -0.87131 -0.12545 -0.47443
vn -0.56430 0.01187 0.82549
vn 0.77786 0.45929 -0.42894
vn 0.70696 -0.46832 0.52999
vn 0.72054 0.50794 0.47204
vn -0.01203 -0.16062 -0.98694
vn -0.23689 -0.00654 0.97151
vn 0.99335 0.00319 -0.11506
vn 0.17761 -0.91675 -0.35782
vn 0.21719 -0.83174 -0.51093
vn -0.04439 -0.18244 -0.98221
vn -0.27058 -0.04352 0.96171
vn -0.62921 -0.21093 -0.74806
vn 0.19076 0.30577 -0.93280
vn -0.16950 0.93079 0.32390
vn 0.41561 -0.09919 -0.90412
vn 0.74651 0.63874 -0.18635
vn 0.64755 0.09239 0.75640
vn 0.50207 -0.52736 0.68543
vn 0.59181 -0.01824 -0.80587
vn 0.79466 0.37515 0.47726
vn 0.65573 0.09938 0.74843
vn 0.84153 0.09044 -0.53259
vn 0.40919 -0.00558 0.91243
vn -0.09178 -0.47602 -0.87463
vn -0.83701 -0.02292 -0.54670
vn 0.09096 0.69084 0.71726
vn 0.38837 0.41126 -0.82464
vn -0.01542 0.52058 -0.85368
vn -0.13032 0.96644 0.22137
vn 0.95430 0.09884 -0.28203
vn 0.72873 0.33043 0.59980
vn 0.61182 -0.11011 -0.78330
vn 0.80549 0.00884 0.59254
vn 0.85503 -0.03289 -0.51753
vn 0.78016 -0.00591 0.62556
vn 0.99262 0.06395 -0.10303
vn 0.87534 0.08333 0.47627
vn 0.97358 0.18476 -0.13418
vn 0.99532 0.09478 0.01867
vn 0.63190 0.02618 0.77461
vn 0.80748 -0.17420 -0.56359
vn 0.77004 -0.05883 -0.63528
vn 0.65923 0.07288 0.74841
vn 0.53069 -0.76788 -0.35879
vn 0.64121 -0.65741 -0.39581
vn 0.96458 0.08229 -0.25064
vn 0.79001 0.10800 0.60351
vn 0.97492 -0.18779 -0.11947
vn 0.10770 0.76842 0.63082
vn 0.85720 0.04030 -0.51340
vn 0.98263 0.18556 0.00124
vn 0.77433 0.11780 0.62172
vn 0.95340 -0.23140 -0.19359
vn -0.54853 -0.26434 -0.79325
vn -0.09280 -0.98708 0.13060
vn -0.00500 0.99990 0.01346
vn -0.07298 0.98971 0.12306
vn 0.14768 0.23123 -0.96162
vn 0.97471 0.22231 0.02297
vn -0.00009 -0.98581 -0.16786
vn 0.40001 0.72861 0.55598
vn 0.98970 0.14250 0.01360
vn -0.39376 -0.81749 -0.42030
vn 0.86615 -0.06363 0.49571
vn 0.82291 -0.56325 0.07462
vn 0.95266 -0.23617 -0.19148
vn -0.00210 0.72141 -0.69251
vn 0.19780 0.92578 -0.32219
vn -0.11809 -0.97091 0.20828
vn -0.20710 -0.93951 -0.27280
vn 0.68678 -0.45690 0.56531
vn -0.25004 -0.95555 -0.15621
vn 0.10832 -0.92178 0.37227
vn 0.21660 0.88951 -0.40231
vn 0.87365 -0.06454 0.48226
vn 0.42929 0.81794 0.38300
vn 0.19200 -0.63286 -0.75009
vn 0.89757 -0.05263 0.43771
vn 0.23399 0.86698 -0.43999
vn 0.13989 -0.94299 0.30201
vn 0.97054 -0.23360 -0.05901
vn 0.96646 -0.21816 0.13554
vn 0.92780 -0.24591 0.28056
vn 0.88120 -0.30207 0.36365
vn 0.60182 -0.44883 -0.66058
vn 0.28669 0.93149 0.22391
vn 0.91667 -0.05018 0.39649
vn 0.77144 -0.41631 -0.48121
vn 0.67605 0.58038 -0.45401
vn -0.16910 -0.94502 0.27991
vn 0.47421 0.78724 -0.39419
vn 0.98767 -0.15627 -0.00933
vn 0.96123 -0.07239 0.26606
vn 0.25212 0.92938 -0.26960
usemtl lingcao_ninglu_sprout_mat
s off
f 382/382/382 443/443/443 486/486/486
f 327/327/327 485/485/485 443/443/443
f 486/486/486 485/485/485 382/382/382
f 329/329/329 382/382/382 308/308/308
f 290/290/290 308/308/308 382/382/382
f 443/443/443 382/382/382 327/327/327
f 382/382/382 328/328/328 327/327/327
f 308/308/308 327/327/327 328/328/328
f 327/327/327 308/308/308 288/288/288
f 327/327/327 288/288/288 290/290/290
f 230/230/230 229/229/229 238/238/238
f 237/237/237 238/238/238 229/229/229
f 171/171/171 198/198/198 199/199/199
f 216/216/216 215/215/215 199/199/199
f 236/236/236 214/214/214 235/235/235
f 236/236/236 216/216/216 215/215/215
f 215/215/215 237/237/237 236/236/236
f 216/216/216 237/237/237 215/215/215
f 215/215/215 214/214/214 221/221/221
f 198/198/198 214/214/214 215/215/215
f 102/102/102 106/106/106 103/103/103
f 106/106/106 102/102/102 105/105/105
f 157/157/157 159/159/159 139/139/139
f 105/105/105 102/102/102 86/86/86
f 73/73/73 72/72/72 86/86/86
f 52/52/52 86/86/86 72/72/72
f 101/101/101 100/100/100 80/80/80
f 100/100/100 99/99/99 80/80/80
f 99/99/99 97/97/97 100/100/100
f 67/67/67 64/64/64 77/77/77
f 38/38/38 52/52/52 68/68/68
f 68/68/68 67/67/67 51/51/51
f 68/68/68 51/51/51 38/38/38
f 43/43/43 42/42/42 29/29/29
f 33/33/33 30/30/30 43/43/43
f 29/29/29 33/33/33 43/43/43
f 25/25/25 42/42/42 43/43/43
f 43/43/43 26/26/26 25/25/25
f 42/42/42 59/59/59 29/29/29
f 59/59/59 58/58/58 29/29/29
f 24/24/24 29/29/29 58/58/58
f 5/5/5 10/10/10 29/29/29
f 13/13/13 5/5/5 29/29/29
f 10/10/10 25/25/25 26/26/26
f 25/25/25 58/58/58 42/42/42
f 58/58/58 25/25/25 24/24/24
f 25/25/25 10/10/10 5/5/5
f 25/25/25 5/5/5 4/4/4
f 25/25/25 4/4/4 3/3/3
f 24/24/24 57/57/57 58/58/58
f 24/24/24 56/56/56 57/57/57
f 56/56/56 24/24/24 32/32/32
f 18/18/18 32/32/32 24/24/24
f 24/24/24 12/12/12 22/22/22
f 22/22/22 18/18/18 24/24/24
f 24/24/24 32/32/32 22/22/22
f 56/56/56 55/55/55 32/32/32
f 55/55/55 41/41/41 32/32/32
f 28/28/28 18/18/18 32/32/32
f 32/32/32 18/18/18 22/22/22
f 17/17/17 28/28/28 32/32/32
f 32/32/32 18/18/18 17/17/17
f 26/26/26 14/14/14 10/10/10
f 14/14/14 9/9/9 10/10/10
f 9/9/9 11/11/11 10/10/10
f 11/11/11 2/2/2 10/10/10
f 2/2/2 1/1/1 10/10/10
f 1/1/1 7/7/7 10/10/10
f 6/6/6 10/10/10 7/7/7
f 10/10/10 6/6/6 5/5/5
f 26/26/26 33/33/33 10/10/10
f 10/10/10 15/15/15 26/26/26
f 10/10/10 19/19/19 15/15/15
f 10/10/10 11/11/11 19/19/19
f 41/41/41 53/53/53 54/54/54
f 23/23/23 39/39/39 41/41/41
f 39/39/39 23/23/23 28/28/28
f 39/39/39 28/28/28 31/31/31
f 52/52/52 38/38/38 40/40/40
f 39/39/39 41/41/41 72/72/72
f 41/41/41 39/39/39 28/28/28
f 55/55/55 73/73/73 41/41/41
f 41/41/41 54/54/54 55/55/55
f 73/73/73 72/72/72 41/41/41
f 41/41/41 28/28/28 23/23/23
f 133/133/133 178/178/178 179/179/179
f 179/179/179 183/183/183 133/133/133
f 133/133/133 154/154/154 178/178/178
f 158/158/158 179/179/179 178/178/178
f 158/158/158 183/183/183 179/179/179
f 183/183/183 155/155/155 133/133/133
f 155/155/155 136/136/136 133/133/133
f 154/154/154 133/133/133 116/116/116
f 133/133/133 136/136/136 119/119/119
f 133/133/133 119/119/119 118/118/118
f 133/133/133 118/118/118 116/116/116
f 178/178/178 177/177/177 154/154/154
f 154/154/154 158/158/158 178/178/178
f 177/177/177 154/154/154 132/132/132
f 154/154/154 116/116/116 132/132/132
f 183/183/183 158/158/158 136/136/136
f 140/140/140 136/136/136 158/158/158
f 118/118/118 140/140/140 158/158/158
f 132/132/132 135/135/135 154/154/154
f 176/176/176 201/201/201 153/153/153
f 153/153/153 173/173/173 176/176/176
f 134/134/134 132/132/132 116/116/116
f 132/132/132 134/134/134 131/131/131
f 201/201/201 200/200/200 175/175/175
f 175/175/175 153/153/153 201/201/201
f 151/151/151 200/200/200 173/173/173
f 173/173/173 153/153/153 151/151/151
f 117/117/117 95/95/95 118/118/118
f 115/115/115 134/134/134 116/116/116
f 117/117/117 115/115/115 116/116/116
f 135/135/135 115/115/115 117/117/117
f 118/118/118 95/95/95 93/93/93
f 77/77/77 120/120/120 97/97/97
f 121/121/121 120/120/120 77/77/77
f 96/96/96 119/119/119 120/120/120
f 77/77/77 96/96/96 120/120/120
f 96/96/96 77/77/77 63/63/63
f 77/77/77 67/67/67 63/63/63
f 62/62/62 76/76/76 96/96/96
f 96/96/96 63/63/63 62/62/62
f 96/96/96 98/98/98 76/76/76
f 94/94/94 98/98/98 95/95/95
f 95/95/95 117/117/117 94/94/94
f 94/94/94 93/93/93 95/95/95
f 98/98/98 94/94/94 74/74/74
f 79/79/79 76/76/76 98/98/98
f 98/98/98 74/74/74 79/79/79
f 60/60/60 75/75/75 76/76/76
f 60/60/60 74/74/74 75/75/75
f 76/76/76 79/79/79 61/61/61
f 66/66/66 62/62/62 76/76/76
f 61/61/61 66/66/66 76/76/76
f 76/76/76 61/61/61 60/60/60
f 62/62/62 61/61/61 76/76/76
f 152/152/152 131/131/131 175/175/175
f 175/175/175 150/150/150 152/152/152
f 172/172/172 151/151/151 150/150/150
f 151/151/151 131/131/131 130/130/130
f 130/130/130 150/150/150 151/151/151
f 150/150/150 174/174/174 172/172/172
f 130/130/130 134/134/134 131/131/131
f 131/131/131 152/152/152 130/130/130
f 131/131/131 112/112/112 130/130/130
f 130/130/130 115/115/115 134/134/134
f 111/111/111 130/130/130 112/112/112
f 115/115/115 91/91/91 113/113/113
f 113/113/113 111/111/111 115/115/115
f 113/113/113 90/90/90 114/114/114
f 79/79/79 60/60/60 61/61/61
f 60/60/60 79/79/79 74/74/74
f 20/20/20 21/21/21 28/28/28
f 65/65/65 47/47/47 66/66/66
f 65/65/65 50/50/50 47/47/47
f 48/48/48 35/35/35 49/49/49
f 48/48/48 37/37/37 35/35/35
f 35/35/35 37/37/37 34/34/34
f 34/34/34 48/48/48 35/35/35
f 17/17/17 21/21/21 20/20/20
f 354/354/354 358/358/358 417/417/417
f 420/420/420 464/464/464 461/461/461
f 413/413/413 417/417/417 416/416/416
f 416/416/416 357/357/357 420/420/420
f 450/450/450 451/451/451 448/448/448
f 447/447/447 450/450/450 448/448/448
f 336/336/336 395/395/395 332/332/332
f 337/337/337 400/400/400 341/341/341
f 450/450/450 454/454/454 451/451/451
f 342/342/342 407/407/407 403/403/403
f 342/342/342 343/343/343 407/407/407
f 344/344/344 345/345/345 343/343/343
f 452/452/452 453/453/453 449/449/449
f 338/338/338 309/309/309 313/313/313
f 456/456/456 406/406/406 405/405/405
f 273/273/273 246/246/246 274/274/274
f 253/253/253 246/246/246 252/252/252
f 246/246/246 273/273/273 252/252/252
f 293/293/293 272/272/272 273/273/273
f 242/242/242 219/219/219 243/243/243
f 252/252/252 244/244/244 251/251/251
f 240/240/240 241/241/241 231/231/231
f 241/241/241 219/219/219 242/242/242
f 519/519/519 516/516/516 493/493/493
f 516/516/516 514/514/514 493/493/493
f 497/497/497 513/513/513 514/514/514
f 497/497/497 510/510/510 513/513/513
f 497/497/497 502/502/502 510/510/510
f 479/479/479 488/488/488 497/497/497
f 514/514/514 513/513/513 499/499/499
f 513/513/513 510/510/510 499/499/499
f 510/510/510 502/502/502 499/499/499
f 497/497/497 499/499/499 502/502/502
f 499/499/499 497/497/497 488/488/488
f 499/499/499 488/488/488 492/492/492
f 499/499/499 492/492/492 479/479/479
f 219/219/219 226/226/226 225/225/225
f 180/180/180 208/208/208 209/209/209
f 225/225/225 239/239/239 223/223/223
f 207/207/207 208/208/208 224/224/224
f 208/208/208 207/207/207 203/203/203
f 207/207/207 206/206/206 212/212/212
f 222/222/222 227/227/227 212/212/212
f 222/222/222 212/212/212 202/202/202
f 211/211/211 212/212/212 227/227/227
f 212/212/212 213/213/213 207/207/207
f 213/213/213 188/188/188 212/212/212
f 212/212/212 186/186/186 202/202/202
f 189/189/189 182/182/182 209/209/209
f 181/181/181 189/189/189 209/209/209
f 187/187/187 211/211/211 186/186/186
f 187/187/187 186/186/186 193/193/193
f 194/194/194 164/164/164 193/193/193
f 185/185/185 204/204/204 210/210/210
f 186/186/186 185/185/185 210/210/210
f 210/210/210 204/204/204 186/186/186
f 162/162/162 191/191/191 163/163/163
f 163/163/163 167/167/167 162/162/162
f 127/127/127 145/145/145 149/149/149
f 167/167/167 195/195/195 162/162/162
f 144/144/144 141/141/141 126/126/126
f 123/123/123 144/144/144 126/126/126
f 126/126/126 129/129/129 110/110/110
f 126/126/126 161/161/161 144/144/144
f 126/126/126 144/144/144 124/124/124
f 128/128/128 129/129/129 126/126/126
f 110/110/110 128/128/128 126/126/126
f 125/125/125 110/110/110 126/126/126
f 108/108/108 125/125/125 110/110/110
f 124/124/124 104/104/104 108/108/108
f 108/108/108 109/109/109 110/110/110
f 108/108/108 89/89/89 109/109/109
f 108/108/108 88/88/88 89/89/89
f 108/108/108 104/104/104 107/107/107
f 108/108/108 107/107/107 83/83/83
f 108/108/108 83/83/83 88/88/88
f 110/110/110 85/85/85 108/108/108
f 85/85/85 89/89/89 108/108/108
f 83/83/83 104/104/104 108/108/108
f 108/108/108 88/88/88 84/84/84
f 108/108/108 84/84/84 83/83/83
f 509/509/509 501/501/501 391/391/391
f 509/509/509 391/391/391 390/390/390
f 509/509/509 390/390/390 389/389/389
f 509/509/509 389/389/389 508/508/508
f 486/486/486 443/443/443 485/485/485
f 485/485/485 327/327/327 381/381/381
f 485/485/485 381/381/381 496/496/496
f 328/328/328 382/382/382 329/329/329
f 501/501/501 496/496/496 495/495/495
f 391/391/391 495/495/495 496/496/496
f 391/391/391 496/496/496 381/381/381
f 392/392/392 382/382/382 485/485/485
f 392/392/392 485/485/485 496/496/496
f 308/308/308 328/328/328 329/329/329
f 289/289/289 381/381/381 327/327/327
f 289/289/289 327/327/327 290/290/290
f 382/382/382 392/392/392 289/289/289
f 382/382/382 289/289/289 290/290/290
f 392/392/392 496/496/496 501/501/501
f 392/392/392 501/501/501 391/391/391
f 392/392/392 391/391/391 263/263/263
f 392/392/392 263/263/263 289/289/289
f 391/391/391 501/501/501 495/495/495
f 263/263/263 391/391/391 381/381/381
f 263/263/263 381/381/381 289/289/289
f 262/262/262 391/391/391 263/263/263
f 261/261/261 390/390/390 391/391/391
f 261/261/261 391/391/391 262/262/262
f 391/391/391 390/390/390 266/266/266
f 391/391/391 266/266/266 262/262/262
f 390/390/390 261/261/261 389/389/389
f 266/266/266 390/390/390 389/389/389
f 288/288/288 308/308/308 290/290/290
f 261/261/261 262/262/262 266/266/266
f 504/504/504 505/505/505 498/498/498
f 505/505/505 506/506/506 387/387/387
f 505/505/505 387/387/387 380/380/380
f 380/380/380 498/498/498 505/505/505
f 387/387/387 505/505/505 386/386/386
f 505/505/505 504/504/504 379/379/379
f 505/505/505 379/379/379 386/386/386
f 379/379/379 498/498/498 380/380/380
f 504/504/504 498/498/498 379/379/379
f 388/388/388 507/507/507 508/508/508
f 388/388/388 508/508/508 389/389/389
f 387/387/387 506/506/506 507/507/507
f 387/387/387 507/507/507 388/388/388
f 498/498/498 379/379/379 373/373/373
f 498/498/498 373/373/373 491/491/491
f 498/498/498 491/491/491 378/378/378
f 498/498/498 378/378/378 379/379/379
f 286/286/286 373/373/373 379/379/379
f 286/286/286 379/379/379 287/287/287
f 379/379/379 380/380/380 256/256/256
f 379/379/379 256/256/256 287/287/287
f 324/324/324 478/478/478 491/491/491
f 324/324/324 491/491/491 373/373/373
f 491/491/491 478/478/478 372/372/372
f 491/491/491 372/372/372 378/378/378
f 369/369/369 473/473/473 478/478/478
f 369/369/369 478/478/478 324/324/324
f 478/478/478 473/473/473 372/372/372
f 473/473/473 369/369/369 368/368/368
f 473/473/473 368/368/368 432/432/432
f 368/368/368 372/372/372 473/473/473
f 324/324/324 373/373/373 286/286/286
f 324/324/324 286/286/286 283/283/283
f 303/303/303 369/369/369 324/324/324
f 303/303/303 324/324/324 283/283/283
f 378/378/378 372/372/372 282/282/282
f 378/378/378 282/282/282 286/286/286
f 287/287/287 379/379/379 378/378/378
f 287/287/287 378/378/378 286/286/286
f 369/369/369 303/303/303 302/302/302
f 369/369/369 302/302/302 368/368/368
f 282/282/282 372/372/372 304/304/304
f 302/302/302 304/304/304 372/372/372
f 302/302/302 372/372/372 368/368/368
f 283/283/283 286/286/286 282/282/282
f 304/304/304 303/303/303 283/283/283
f 304/304/304 283/283/283 282/282/282
f 303/303/303 304/304/304 302/302/302
f 265/265/265 389/389/389 261/261/261
f 389/389/389 265/265/265 266/266/266
f 260/260/260 388/388/388 389/389/389
f 260/260/260 389/389/389 265/265/265
f 389/389/389 388/388/388 264/264/264
f 389/389/389 264/264/264 265/265/265
f 259/259/259 387/387/387 388/388/388
f 259/259/259 388/388/388 260/260/260
f 388/388/388 259/259/259 264/264/264
f 258/258/258 380/380/380 387/387/387
f 258/258/258 387/387/387 259/259/259
f 387/387/387 386/386/386 258/258/258
f 261/261/261 266/266/266 265/265/265
f 265/265/265 264/264/264 260/260/260
f 260/260/260 264/264/264 259/259/259
f 256/256/256 380/380/380 258/258/258
f 386/386/386 379/379/379 257/257/257
f 386/386/386 257/257/257 258/258/258
f 379/379/379 287/287/287 257/257/257
f 256/256/256 258/258/258 257/257/257
f 287/287/287 256/256/256 257/257/257
f 229/229/229 230/230/230 237/237/237
f 230/230/230 238/238/238 237/237/237
f 237/237/237 250/250/250 229/229/229
f 236/236/236 237/237/237 250/250/250
f 236/236/236 250/250/250 249/249/249
f 216/216/216 200/200/200 172/172/172
f 216/216/216 172/172/172 199/199/199
f 216/216/216 236/236/236 237/237/237
f 249/249/249 255/255/255 236/236/236
f 228/228/228 249/249/249 236/236/236
f 248/248/248 276/276/276 249/249/249
f 248/248/248 249/249/249 228/228/228
f 249/249/249 248/248/248 255/255/255
f 236/236/236 215/215/215 214/214/214
f 234/234/234 228/228/228 236/236/236
f 234/234/234 236/236/236 235/235/235
f 236/236/236 255/255/255 254/254/254
f 236/236/236 254/254/254 235/235/235
f 198/198/198 199/199/199 215/215/215
f 198/198/198 215/215/215 221/221/221
f 82/82/82 81/81/81 106/106/106
f 87/87/87 82/82/82 106/106/106
f 87/87/87 106/106/106 71/71/71
f 106/106/106 70/70/70 71/71/71
f 69/69/69 106/106/106 70/70/70
f 106/106/106 73/73/73 70/70/70
f 82/82/82 87/87/87 71/71/71
f 71/71/71 81/81/81 82/82/82
f 70/70/70 106/106/106 81/81/81
f 70/70/70 81/81/81 71/71/71
f 138/138/138 156/156/156 157/157/157
f 138/138/138 157/157/157 139/139/139
f 139/139/139 157/157/157 156/156/156
f 139/139/139 156/156/156 138/138/138
f 156/156/156 155/155/155 137/137/137
f 156/156/156 137/137/137 138/138/138
f 105/105/105 73/73/73 86/86/86
f 106/106/106 105/105/105 73/73/73
f 73/73/73 106/106/106 69/69/69
f 102/102/102 101/101/101 80/80/80
f 102/102/102 80/80/80 86/86/86
f 121/121/121 99/99/99 97/97/97
f 97/97/97 99/99/99 64/64/64
f 64/64/64 99/99/99 121/121/121
f 68/68/68 80/80/80 99/99/99
f 68/68/68 99/99/99 64/64/64
f 52/52/52 86/86/86 80/80/80
f 52/52/52 80/80/80 68/68/68
f 43/43/43 33/33/33 26/26/26
f 58/58/58 59/59/59 42/42/42
f 33/33/33 29/29/29 10/10/10
f 69/69/69 70/70/70 73/73/73
f 72/72/72 53/53/53 41/41/41
f 72/72/72 39/39/39 52/52/52
f 55/55/55 54/54/54 73/73/73
f 73/73/73 54/54/54 53/53/53
f 73/73/73 53/53/53 72/72/72
f 28/28/28 32/32/32 41/41/41
f 39/39/39 52/52/52 40/40/40
f 39/39/39 40/40/40 31/31/31
f 29/29/29 24/24/24 12/12/12
f 29/29/29 12/12/12 13/13/13
f 12/12/12 24/24/24 25/25/25
f 12/12/12 25/25/25 3/3/3
f 14/14/14 26/26/26 15/15/15
f 14/14/14 15/15/15 19/19/19
f 14/14/14 19/19/19 9/9/9
f 11/11/11 9/9/9 19/19/19
f 3/3/3 4/4/4 5/5/5
f 3/3/3 5/5/5 13/13/13
f 5/5/5 8/8/8 4/4/4
f 8/8/8 4/4/4 3/3/3
f 3/3/3 13/13/13 12/12/12
f 18/18/18 28/28/28 17/17/17
f 155/155/155 137/137/137 136/136/136
f 155/155/155 183/183/183 136/136/136
f 177/177/177 176/176/176 153/153/153
f 177/177/177 153/153/153 132/132/132
f 176/176/176 173/173/173 201/201/201
f 158/158/158 154/154/154 135/135/135
f 158/158/158 135/135/135 118/118/118
f 77/77/77 97/97/97 64/64/64
f 120/120/120 121/121/121 97/97/97
f 64/64/64 121/121/121 77/77/77
f 119/119/119 136/136/136 140/140/140
f 96/96/96 119/119/119 140/140/140
f 96/96/96 140/140/140 118/118/118
f 119/119/119 96/96/96 118/118/118
f 98/98/98 96/96/96 118/118/118
f 98/98/98 118/118/118 95/95/95
f 118/118/118 135/135/135 117/117/117
f 117/117/117 116/116/116 118/118/118
f 117/117/117 118/118/118 93/93/93
f 118/118/118 96/96/96 75/75/75
f 118/118/118 75/75/75 95/95/95
f 96/96/96 76/76/76 75/75/75
f 201/201/201 173/173/173 200/200/200
f 200/200/200 172/172/172 175/175/175
f 172/172/172 200/200/200 151/151/151
f 131/131/131 151/151/151 153/153/153
f 153/153/153 132/132/132 131/131/131
f 134/134/134 132/132/132 153/153/153
f 134/134/134 153/153/153 131/131/131
f 153/153/153 175/175/175 131/131/131
f 135/135/135 132/132/132 134/134/134
f 135/135/135 134/134/134 115/115/115
f 171/171/171 199/199/199 172/172/172
f 171/171/171 172/172/172 174/174/174
f 172/172/172 199/199/199 198/198/198
f 172/172/172 198/198/198 174/174/174
f 150/150/150 175/175/175 172/172/172
f 112/112/112 131/131/131 134/134/134
f 115/115/115 112/112/112 134/134/134
f 112/112/112 115/115/115 111/111/111
f 111/111/111 115/115/115 130/130/130
f 91/91/91 115/115/115 114/114/114
f 113/113/113 114/114/114 115/115/115
f 91/91/91 90/90/90 113/113/113
f 90/90/90 91/91/91 114/114/114
f 74/74/74 94/94/94 95/95/95
f 74/74/74 95/95/95 75/75/75
f 94/94/94 117/117/117 93/93/93
f 90/90/90 92/92/92 91/91/91
f 61/61/61 62/62/62 66/66/66
f 68/68/68 64/64/64 67/67/67
f 28/28/28 31/31/31 27/27/27
f 16/16/16 27/27/27 28/28/28
f 20/20/20 28/28/28 27/27/27
f 65/65/65 66/66/66 61/61/61
f 46/46/46 50/50/50 65/65/65
f 50/50/50 49/49/49 35/35/35
f 50/50/50 35/35/35 48/48/48
f 50/50/50 48/48/48 46/46/46
f 48/48/48 49/49/49 50/50/50
f 34/34/34 37/37/37 48/48/48
f 37/37/37 34/34/34 36/36/36
f 28/28/28 17/17/17 20/20/20
f 28/28/28 20/20/20 16/16/16
f 17/17/17 28/28/28 21/21/21
f 20/20/20 27/27/27 16/16/16
f 422/422/422 462/462/462 421/421/421
f 422/422/422 418/418/418 462/462/462
f 359/359/359 418/418/418 422/422/422
f 422/422/422 421/421/421 427/427/427
f 418/418/418 355/355/355 354/354/354
f 318/318/318 355/355/355 418/418/418
f 318/318/318 418/418/418 359/359/359
f 354/354/354 355/355/355 358/358/358
f 321/321/321 358/358/358 355/355/355
f 321/321/321 355/355/355 318/318/318
f 459/459/459 460/460/460 458/458/458
f 459/459/459 458/458/458 487/487/487
f 458/458/458 460/460/460 414/414/414
f 458/458/458 414/414/414 412/412/412
f 460/460/460 462/462/462 418/418/418
f 460/460/460 418/418/418 414/414/414
f 460/460/460 459/459/459 461/461/461
f 460/460/460 461/461/461 462/462/462
f 487/487/487 457/457/457 459/459/459
f 457/457/457 411/411/411 413/413/413
f 457/457/457 413/413/413 459/459/459
f 459/459/459 415/415/415 461/461/461
f 462/462/462 461/461/461 464/464/464
f 462/462/462 464/464/464 465/465/465
f 421/421/421 462/462/462 417/417/417
f 462/462/462 465/465/465 421/421/421
f 421/421/421 363/363/363 427/427/427
f 426/426/426 421/421/421 465/465/465
f 426/426/426 465/465/465 468/468/468
f 461/461/461 463/463/463 464/464/464
f 468/468/468 465/465/465 464/464/464
f 468/468/468 464/464/464 467/467/467
f 464/464/464 420/420/420 467/467/467
f 420/420/420 425/425/425 467/467/467
f 350/350/350 412/412/412 414/414/414
f 412/412/412 350/350/350 351/351/351
f 412/412/412 351/351/351 349/349/349
f 414/414/414 418/418/418 354/354/354
f 414/414/414 354/354/354 350/350/350
f 350/350/350 354/354/354 351/351/351
f 411/411/411 349/349/349 351/351/351
f 411/411/411 351/351/351 413/413/413
f 417/417/417 413/413/413 351/351/351
f 417/417/417 351/351/351 354/354/354
f 353/353/353 413/413/413 416/416/416
f 415/415/415 413/413/413 353/353/353
f 358/358/358 421/421/421 417/417/417
f 421/421/421 358/358/358 321/321/321
f 421/421/421 321/321/321 363/363/363
f 357/357/357 416/416/416 417/417/417
f 357/357/357 417/417/417 421/421/421
f 416/416/416 420/420/420 353/353/353
f 352/352/352 415/415/415 353/353/353
f 362/362/362 357/357/357 421/421/421
f 362/362/362 421/421/421 426/426/426
f 425/425/425 420/420/420 357/357/357
f 425/425/425 357/357/357 362/362/362
f 420/420/420 464/464/464 463/463/463
f 420/420/420 463/463/463 419/419/419
f 356/356/356 353/353/353 420/420/420
f 356/356/356 420/420/420 419/419/419
f 364/364/364 359/359/359 422/422/422
f 364/364/364 422/422/422 428/428/428
f 318/318/318 359/359/359 364/364/364
f 318/318/318 364/364/364 322/322/322
f 432/432/432 368/368/368 364/364/364
f 432/432/432 364/364/364 428/428/428
f 428/428/428 427/427/427 432/432/432
f 432/432/432 427/427/427 363/363/363
f 432/432/432 363/363/363 368/368/368
f 322/322/322 323/323/323 321/321/321
f 321/321/321 318/318/318 322/322/322
f 364/364/364 368/368/368 302/302/302
f 364/364/364 302/302/302 322/322/322
f 322/322/322 302/302/302 323/323/323
f 323/323/323 368/368/368 363/363/363
f 323/323/323 363/363/363 321/321/321
f 368/368/368 323/323/323 302/302/302
f 427/427/427 428/428/428 422/422/422
f 468/468/468 472/472/472 431/431/431
f 431/431/431 426/426/426 468/468/468
f 468/468/468 467/467/467 471/471/471
f 468/468/468 471/471/471 472/472/472
f 467/467/467 430/430/430 471/471/471
f 472/472/472 471/471/471 476/476/476
f 472/472/472 476/476/476 477/477/477
f 436/436/436 431/431/431 472/472/472
f 436/436/436 472/472/472 477/477/477
f 475/475/475 476/476/476 471/471/471
f 477/477/477 476/476/476 484/484/484
f 477/477/477 484/484/484 442/442/442
f 477/477/477 442/442/442 436/436/436
f 476/476/476 441/441/441 484/484/484
f 442/442/442 484/484/484 441/441/441
f 476/476/476 475/475/475 440/440/440
f 476/476/476 440/440/440 484/484/484
f 367/367/367 425/425/425 426/426/426
f 367/367/367 426/426/426 431/431/431
f 362/362/362 426/426/426 425/425/425
f 367/367/367 362/362/362 425/425/425
f 430/430/430 425/425/425 367/367/367
f 431/431/431 436/436/436 371/371/371
f 431/431/431 371/371/371 367/367/367
f 436/436/436 442/442/442 377/377/377
f 436/436/436 377/377/377 376/376/376
f 436/436/436 376/376/376 371/371/371
f 371/371/371 376/376/376 375/375/375
f 459/459/459 413/413/413 415/415/415
f 461/461/461 415/415/415 463/463/463
f 463/463/463 415/415/415 419/419/419
f 356/356/356 352/352/352 353/353/353
f 415/415/415 352/352/352 356/356/356
f 415/415/415 356/356/356 419/419/419
f 356/356/356 320/320/320 317/317/317
f 419/419/419 356/356/356 317/317/317
f 463/463/463 466/466/466 424/424/424
f 361/361/361 419/419/419 463/463/463
f 361/361/361 463/463/463 424/424/424
f 419/419/419 466/466/466 463/463/463
f 430/430/430 467/467/467 425/425/425
f 360/360/360 423/423/423 466/466/466
f 360/360/360 466/466/466 419/419/419
f 424/424/424 466/466/466 423/423/423
f 429/429/429 424/424/424 423/423/423
f 423/423/423 360/360/360 429/429/429
f 471/471/471 430/430/430 435/435/435
f 471/471/471 435/435/435 475/475/475
f 440/440/440 475/475/475 435/435/435
f 484/484/484 440/440/440 441/441/441
f 419/419/419 361/361/361 320/320/320
f 419/419/419 320/320/320 356/356/356
f 319/319/319 317/317/317 320/320/320
f 419/419/419 317/317/317 319/319/319
f 419/419/419 319/319/319 360/360/360
f 300/300/300 360/360/360 319/319/319
f 366/366/366 361/361/361 424/424/424
f 366/366/366 424/424/424 429/429/429
f 361/361/361 366/366/366 300/300/300
f 361/361/361 300/300/300 320/320/320
f 366/366/366 301/301/301 300/300/300
f 429/429/429 360/360/360 365/365/365
f 429/429/429 365/365/365 470/470/470
f 299/299/299 365/365/365 360/360/360
f 299/299/299 360/360/360 300/300/300
f 300/300/300 319/319/319 320/320/320
f 430/430/430 367/367/367 371/371/371
f 430/430/430 371/371/371 435/435/435
f 371/371/371 375/375/375 440/440/440
f 371/371/371 440/440/440 435/435/435
f 474/474/474 429/429/429 470/470/470
f 474/474/474 470/470/470 469/469/469
f 365/365/365 469/469/469 470/470/470
f 474/474/474 469/469/469 490/490/490
f 366/366/366 429/429/429 474/474/474
f 366/366/366 474/474/474 370/370/370
f 474/474/474 490/490/490 370/370/370
f 434/434/434 490/490/490 469/469/469
f 434/434/434 469/469/469 365/365/365
f 489/489/489 490/490/490 434/434/434
f 433/433/433 500/500/500 489/489/489
f 433/433/433 489/489/489 434/434/434
f 370/370/370 490/490/490 489/489/489
f 370/370/370 489/489/489 434/434/434
f 489/489/489 500/500/500 439/439/439
f 489/489/489 439/439/439 434/434/434
f 278/278/278 365/365/365 299/299/299
f 366/366/366 370/370/370 278/278/278
f 366/366/366 278/278/278 301/301/301
f 370/370/370 281/281/281 278/278/278
f 277/277/277 434/434/434 365/365/365
f 277/277/277 365/365/365 278/278/278
f 280/280/280 434/434/434 277/277/277
f 370/370/370 434/434/434 280/280/280
f 370/370/370 280/280/280 281/281/281
f 299/299/299 300/300/300 301/301/301
f 278/278/278 299/299/299 301/301/301
f 277/277/277 278/278/278 281/281/281
f 280/280/280 277/277/277 281/281/281
f 446/446/446 442/442/442 441/441/441
f 446/446/446 441/441/441 445/445/445
f 385/385/385 377/377/377 442/442/442
f 385/385/385 442/442/442 446/446/446
f 377/377/377 385/385/385 384/384/384
f 377/377/377 384/384/384 376/376/376
f 333/333/333 385/385/385 446/446/446
f 333/333/333 446/446/446 396/396/396
f 333/333/333 384/384/384 385/385/385
f 444/444/444 445/445/445 441/441/441
f 444/444/444 441/441/441 440/440/440
f 441/441/441 384/384/384 445/445/445
f 384/384/384 441/441/441 376/376/376
f 446/446/446 445/445/445 451/451/451
f 446/446/446 451/451/451 396/396/396
f 445/445/445 395/395/395 451/451/451
f 447/447/447 448/448/448 445/445/445
f 447/447/447 445/445/445 444/444/444
f 445/445/445 384/384/384 395/395/395
f 384/384/384 332/332/332 395/395/395
f 332/332/332 384/384/384 333/333/333
f 396/396/396 400/400/400 337/337/337
f 337/337/337 333/333/333 396/396/396
f 404/404/404 400/400/400 396/396/396
f 404/404/404 396/396/396 451/451/451
f 311/311/311 337/337/337 341/341/341
f 400/400/400 404/404/404 341/341/341
f 332/332/332 333/333/333 337/337/337
f 332/332/332 337/337/337 336/336/336
f 311/311/311 336/336/336 337/337/337
f 451/451/451 395/395/395 340/340/340
f 451/451/451 340/340/340 404/404/404
f 395/395/395 336/336/336 340/340/340
f 399/399/399 395/395/395 394/394/394
f 399/399/399 394/394/394 398/398/398
f 453/453/453 454/454/454 450/450/450
f 402/402/402 403/403/403 399/399/399
f 402/402/402 399/399/399 398/398/398
f 404/404/404 340/340/340 311/311/311
f 404/404/404 311/311/311 341/341/341
f 340/340/340 336/336/336 311/311/311
f 341/341/341 315/315/315 292/292/292
f 341/341/341 292/292/292 311/311/311
f 341/341/341 314/314/314 315/315/315
f 295/295/295 314/314/314 341/341/341
f 295/295/295 341/341/341 311/311/311
f 403/403/403 402/402/402 407/407/407
f 403/403/403 342/342/342 340/340/340
f 339/339/339 403/403/403 340/340/340
f 403/403/403 339/339/339 402/402/402
f 343/343/343 342/342/342 344/344/344
f 347/347/347 348/348/348 345/345/345
f 347/347/347 345/345/345 344/344/344
f 345/345/345 348/348/348 316/316/316
f 345/345/345 316/316/316 347/347/347
f 348/348/348 347/347/347 316/316/316
f 275/275/275 271/271/271 276/276/276
f 275/275/275 276/276/276 248/248/248
f 276/276/276 271/271/271 296/296/296
f 276/276/276 296/296/296 275/275/275
f 270/270/270 296/296/296 271/271/271
f 270/270/270 271/271/271 275/275/275
f 292/292/292 315/315/315 296/296/296
f 292/292/292 296/296/296 270/270/270
f 292/292/292 270/270/270 291/291/291
f 311/311/311 292/292/292 291/291/291
f 296/296/296 315/315/315 314/314/314
f 275/275/275 248/248/248 247/247/247
f 269/269/269 270/270/270 275/275/275
f 269/269/269 275/275/275 247/247/247
f 295/295/295 291/291/291 270/270/270
f 295/295/295 270/270/270 269/269/269
f 275/275/275 296/296/296 298/298/298
f 296/296/296 314/314/314 295/295/295
f 296/296/296 295/295/295 298/298/298
f 269/269/269 275/275/275 298/298/298
f 255/255/255 248/248/248 247/247/247
f 255/255/255 247/247/247 254/254/254
f 247/247/247 248/248/248 228/228/228
f 247/247/247 228/228/228 234/234/234
f 214/214/214 198/198/198 221/221/221
f 234/234/234 254/254/254 247/247/247
f 235/235/235 254/254/254 234/234/234
f 311/311/311 291/291/291 295/295/295
f 295/295/295 269/269/269 298/298/298
f 383/383/383 375/375/375 376/376/376
f 383/383/383 376/376/376 384/384/384
f 440/440/440 375/375/375 383/383/383
f 440/440/440 383/383/383 444/444/444
f 384/384/384 445/445/445 448/448/448
f 384/384/384 395/395/395 394/394/394
f 384/384/384 394/394/394 383/383/383
f 384/384/384 448/448/448 394/394/394
f 331/331/331 383/383/383 384/384/384
f 331/331/331 384/384/384 394/394/394
f 448/448/448 447/447/447 394/394/394
f 444/444/444 383/383/383 447/447/447
f 447/447/447 383/383/383 394/394/394
f 394/394/394 383/383/383 331/331/331
f 394/394/394 447/447/447 398/398/398
f 335/335/335 394/394/394 398/398/398
f 450/450/450 449/449/449 453/453/453
f 331/331/331 394/394/394 335/335/335
f 330/330/330 394/394/394 331/331/331
f 310/310/310 335/335/335 339/339/339
f 335/335/335 398/398/398 338/338/338
f 335/335/335 338/338/338 339/339/339
f 394/394/394 393/393/393 398/398/398
f 394/394/394 330/330/330 393/393/393
f 398/398/398 393/393/393 334/334/334
f 398/398/398 334/334/334 397/397/397
f 393/393/393 330/330/330 334/334/334
f 330/330/330 331/331/331 335/335/335
f 330/330/330 335/335/335 334/334/334
f 398/398/398 397/397/397 338/338/338
f 397/397/397 334/334/334 338/338/338
f 309/309/309 335/335/335 310/310/310
f 309/309/309 334/334/334 335/335/335
f 334/334/334 309/309/309 338/338/338
f 455/455/455 456/456/456 453/453/453
f 455/455/455 453/453/453 452/452/452
f 453/453/453 456/456/456 452/452/452
f 456/456/456 405/405/405 452/452/452
f 405/405/405 456/456/456 455/455/455
f 456/456/456 405/405/405 409/409/409
f 409/409/409 406/406/406 456/456/456
f 405/405/405 406/406/406 409/409/409
f 339/339/339 340/340/340 407/407/407
f 339/339/339 407/407/407 402/402/402
f 407/407/407 340/340/340 342/342/342
f 452/452/452 405/405/405 455/455/455
f 409/409/409 405/405/405 408/408/408
f 339/339/339 338/338/338 310/310/310
f 313/313/313 310/310/310 338/338/338
f 294/294/294 310/310/310 313/313/313
f 294/294/294 309/309/309 310/310/310
f 293/293/293 309/309/309 294/294/294
f 313/313/313 312/312/312 294/294/294
f 268/268/268 294/294/294 297/297/297
f 268/268/268 297/297/297 274/274/274
f 268/268/268 274/274/274 273/273/273
f 268/268/268 273/273/273 294/294/294
f 273/273/273 274/274/274 297/297/297
f 273/273/273 297/297/297 294/294/294
f 242/242/242 243/243/243 233/233/233
f 233/233/233 253/253/253 242/242/242
f 233/233/233 243/243/243 219/219/219
f 233/233/233 219/219/219 242/242/242
f 273/273/273 246/246/246 253/253/253
f 273/273/273 253/253/253 245/245/245
f 253/253/253 252/252/252 245/245/245
f 253/253/253 252/252/252 242/242/242
f 312/312/312 313/313/313 309/309/309
f 312/312/312 309/309/309 293/293/293
f 293/293/293 294/294/294 312/312/312
f 294/294/294 293/293/293 273/273/273
f 272/272/272 293/293/293 267/267/267
f 293/293/293 273/273/273 267/267/267
f 244/244/244 272/272/272 267/267/267
f 267/267/267 273/273/273 244/244/244
f 273/273/273 272/272/272 244/244/244
f 273/273/273 244/244/244 252/252/252
f 273/273/273 245/245/245 244/244/244
f 244/244/244 245/245/245 252/252/252
f 251/251/251 232/232/232 252/252/252
f 252/252/252 232/232/232 242/242/242
f 232/232/232 251/251/251 231/231/231
f 232/232/232 231/231/231 241/241/241
f 242/242/242 232/232/232 241/241/241
f 232/232/232 242/242/242 219/219/219
f 232/232/232 219/219/219 241/241/241
f 503/503/503 500/500/500 433/433/433
f 503/503/503 433/433/433 438/438/438
f 483/483/483 512/512/512 503/503/503
f 483/483/483 503/503/503 438/438/438
f 517/517/517 516/516/516 519/519/519
f 494/494/494 516/516/516 517/517/517
f 494/494/494 517/517/517 480/480/480
f 493/493/493 515/515/515 516/516/516
f 493/493/493 516/516/516 494/494/494
f 494/494/494 517/517/517 519/519/519
f 494/494/494 519/519/519 493/493/493
f 514/514/514 516/516/516 515/515/515
f 493/493/493 514/514/514 515/515/515
f 497/497/497 514/514/514 493/493/493
f 514/514/514 499/499/499 493/493/493
f 439/439/439 500/500/500 503/503/503
f 439/439/439 503/503/503 438/438/438
f 482/482/482 511/511/511 512/512/512
f 482/482/482 512/512/512 483/483/483
f 481/481/481 518/518/518 511/511/511
f 481/481/481 511/511/511 482/482/482
f 480/480/480 517/517/517 518/518/518
f 480/480/480 518/518/518 481/481/481
f 279/279/279 433/433/433 434/434/434
f 279/279/279 434/434/434 280/280/280
f 434/434/434 439/439/439 279/279/279
f 439/439/439 438/438/438 285/285/285
f 439/439/439 285/285/285 279/279/279
f 279/279/279 438/438/438 433/433/433
f 438/438/438 279/279/279 307/307/307
f 438/438/438 307/307/307 483/483/483
f 279/279/279 285/285/285 284/284/284
f 279/279/279 284/284/284 307/307/307
f 285/285/285 438/438/438 483/483/483
f 285/285/285 483/483/483 284/284/284
f 482/482/482 483/483/483 307/307/307
f 482/482/482 307/307/307 306/306/306
f 307/307/307 284/284/284 306/306/306
f 284/284/284 483/483/483 482/482/482
f 284/284/284 482/482/482 306/306/306
f 479/479/479 497/497/497 493/493/493
f 479/479/479 493/493/493 437/437/437
f 437/437/437 493/493/493 499/499/499
f 437/437/437 499/499/499 479/479/479
f 479/479/479 492/492/492 488/488/488
f 305/305/305 481/481/481 482/482/482
f 305/305/305 482/482/482 306/306/306
f 326/326/326 481/481/481 305/305/305
f 325/325/325 480/480/480 481/481/481
f 325/325/325 481/481/481 326/326/326
f 374/374/374 494/494/494 480/480/480
f 374/374/374 480/480/480 325/325/325
f 437/437/437 493/493/493 494/494/494
f 437/437/437 494/494/494 374/374/374
f 243/243/243 220/220/220 219/219/219
f 226/226/226 209/209/209 208/208/208
f 219/219/219 241/241/241 225/225/225
f 226/226/226 225/225/225 208/208/208
f 239/239/239 225/225/225 241/241/241
f 239/239/239 241/241/241 240/240/240
f 223/223/223 224/224/224 225/225/225
f 225/225/225 224/224/224 208/208/208
f 223/223/223 225/225/225 203/203/203
f 225/225/225 208/208/208 203/203/203
f 224/224/224 223/223/223 206/206/206
f 207/207/207 224/224/224 206/206/206
f 223/223/223 203/203/203 206/206/206
f 239/239/239 218/218/218 223/223/223
f 223/223/223 218/218/218 222/222/222
f 218/218/218 217/217/217 222/222/222
f 218/218/218 223/223/223 217/217/217
f 212/212/212 206/206/206 223/223/223
f 212/212/212 223/223/223 222/222/222
f 222/222/222 217/217/217 223/223/223
f 222/222/222 202/202/202 227/227/227
f 227/227/227 202/202/202 205/205/205
f 211/211/211 227/227/227 205/205/205
f 171/171/171 174/174/174 198/198/198
f 150/150/150 130/130/130 152/152/152
f 209/209/209 180/180/180 181/181/181
f 189/189/189 190/190/190 182/182/182
f 206/206/206 203/203/203 207/207/207
f 188/188/188 213/213/213 194/194/194
f 213/213/213 212/212/212 187/187/187
f 213/213/213 187/187/187 194/194/194
f 187/187/187 212/212/212 188/188/188
f 193/193/193 194/194/194 187/187/187
f 188/188/188 194/194/194 193/193/193
f 188/188/188 193/193/193 187/187/187
f 160/160/160 194/194/194 197/197/197
f 165/165/165 197/197/197 194/194/194
f 165/165/165 194/194/194 164/164/164
f 194/194/194 160/160/160 165/165/165
f 166/166/166 160/160/160 197/197/197
f 165/165/165 166/166/166 197/197/197
f 160/160/160 166/166/166 165/165/165
f 166/166/166 142/142/142 165/165/165
f 166/166/166 148/148/148 142/142/142
f 169/169/169 170/170/170 166/166/166
f 169/169/169 166/166/166 165/165/165
f 148/148/148 166/166/166 170/170/170
f 170/170/170 142/142/142 148/148/148
f 142/142/142 170/170/170 169/169/169
f 169/169/169 147/147/147 142/142/142
f 147/147/147 165/165/165 142/142/142
f 211/211/211 187/187/187 212/212/212
f 212/212/212 187/187/187 186/186/186
f 205/205/205 202/202/202 186/186/186
f 211/211/211 205/205/205 204/204/204
f 205/205/205 186/186/186 204/204/204
f 211/211/211 204/204/204 186/186/186
f 204/204/204 185/185/185 186/186/186
f 164/164/164 193/193/193 196/196/196
f 163/163/163 168/168/168 164/164/164
f 163/163/163 164/164/164 196/196/196
f 192/192/192 196/196/196 193/193/193
f 192/192/192 193/193/193 186/186/186
f 165/165/165 147/147/147 169/169/169
f 167/167/167 146/146/146 168/168/168
f 167/167/167 168/168/168 163/163/163
f 146/146/146 149/149/149 145/145/145
f 146/146/146 145/145/145 167/167/167
f 191/191/191 163/163/163 196/196/196
f 191/191/191 196/196/196 192/192/192
f 163/163/163 191/191/191 195/195/195
f 163/163/163 195/195/195 167/167/167
f 191/191/191 162/162/162 195/195/195
f 161/161/161 145/145/145 167/167/167
f 161/161/161 167/167/167 162/162/162
f 145/145/145 126/126/126 141/141/141
f 145/145/145 141/141/141 161/161/161
f 129/129/129 126/126/126 145/145/145
f 129/129/129 145/145/145 127/127/127
f 161/161/161 126/126/126 145/145/145
f 126/126/126 124/124/124 125/125/125
f 124/124/124 123/123/123 126/126/126
f 161/161/161 141/141/141 144/144/144
f 144/144/144 123/123/123 143/143/143
f 144/144/144 143/143/143 124/124/124
f 143/143/143 123/123/123 122/122/122
f 124/124/124 143/143/143 122/122/122
f 124/124/124 122/122/122 123/123/123
f 108/108/108 125/125/125 124/124/124
f 110/110/110 129/129/129 128/128/128
f 110/110/110 109/109/109 85/85/85
f 89/89/89 85/85/85 109/109/109
f 107/107/107 104/104/104 83/83/83
f 84/84/84 88/88/88 83/83/83
