# 由 henjicc/yipiantian 的 lingcao_ninglu_mature 转换而来（见 manifest.json）
mtllib lingcao_ninglu_mature.mtl
o lingcao_ninglu_mature
v -0.13909 0.01962 0.03689
v -0.13810 0.03757 0.01835
v -0.14002 0.02860 0.03159
v -0.14190 0.03533 0.04759
v -0.13597 0.04186 0.01679
v -0.13725 0.04505 0.02991
v -0.13741 0.04943 0.05391
v -0.13742 0.19155 0.03736
v -0.13984 0.19827 0.05749
v -0.14629 0.20244 0.06408
v -0.14433 0.20316 0.07946
v -0.14189 0.20368 0.09575
v -0.12260 0.04809 0.01000
v -0.12893 0.05782 0.03377
v -0.13040 0.05938 0.05217
v -0.11886 0.06239 0.03290
v -0.12269 0.06410 0.05747
v -0.11512 0.17936 0.00859
v -0.12114 0.18418 0.01484
v -0.12312 0.18963 0.03037
v -0.12245 0.19332 0.05105
v -0.11834 0.19829 0.07935
v -0.11719 0.19820 0.09306
v -0.12580 0.20002 0.07492
v -0.12604 0.20087 0.09404
v -0.10451 0.03615 -0.00765
v -0.10420 0.05254 0.01220
v -0.10375 0.06650 0.03626
v -0.10340 0.07067 0.05988
v -0.10323 0.07081 0.07081
v -0.10422 0.17539 0.00947
v -0.10970 0.18040 0.01211
v -0.10409 0.18494 0.03197
v -0.10505 0.19177 0.05790
v -0.10215 0.19337 0.08043
v -0.11148 0.19590 0.09220
v -0.09713 0.31873 -0.01552
v -0.09698 0.32000 -0.01155
v -0.09185 0.01389 -0.07180
v -0.08935 0.01291 -0.05714
v -0.09064 0.03049 -0.08797
v -0.09068 0.03035 -0.08150
v -0.08710 0.02637 -0.05099
v -0.08127 0.03497 -0.04232
v -0.08973 0.03652 -0.01161
v -0.08159 0.04925 -0.09267
v -0.08632 0.04425 -0.08128
v -0.08150 0.04503 -0.05613
v -0.07736 0.04011 -0.04159
v -0.08667 0.04242 -0.00634
v -0.08318 0.05257 0.00664
v -0.09060 0.06926 0.03837
v -0.08833 0.07498 0.05601
v -0.08398 0.07709 0.07365
v -0.08122 0.11289 -0.06864
v -0.08441 0.10997 -0.05339
v -0.08039 0.10567 -0.03925
v -0.08000 0.12265 -0.05235
v -0.08756 0.15896 0.00130
v -0.08284 0.15837 0.00337
v -0.08938 0.16625 0.00856
v -0.08240 0.17441 0.03195
v -0.08552 0.18005 0.04401
v -0.08263 0.18318 0.05949
v -0.08336 0.18771 0.08067
v -0.09281 0.19203 0.09037
v -0.08170 0.27920 -0.04332
v -0.07863 0.27717 -0.04263
v -0.08292 0.28041 -0.04315
v -0.08076 0.29195 -0.03536
v -0.07987 0.29459 0.02152
v -0.08176 0.29424 0.02387
v -0.08734 0.30807 -0.02668
v -0.08403 0.31352 -0.00489
v -0.08151 0.30892 0.00885
v -0.06837 0.03855 -0.00835
v -0.07407 0.04964 -0.04757
v -0.06813 0.05246 -0.03271
v -0.06462 0.04341 -0.00429
v -0.06827 0.05319 0.00703
v -0.06759 0.07296 -0.08970
v -0.07276 0.06587 -0.07972
v -0.06618 0.06861 -0.05257
v -0.06281 0.06152 -0.03297
v -0.06555 0.06963 0.03492
v -0.06938 0.07781 0.05892
v -0.07580 0.07848 0.06988
v -0.06059 0.08301 -0.07536
v -0.05965 0.10600 -0.08847
v -0.06970 0.10970 -0.08081
v -0.07491 0.11217 -0.03403
v -0.06356 0.12910 -0.07149
v -0.06777 0.13109 -0.05129
v -0.07151 0.12527 -0.04029
v -0.06651 0.13281 -0.00752
v -0.05896 0.13821 0.00443
v -0.06850 0.14950 0.00988
v -0.06097 0.15425 0.02905
v -0.07562 0.16564 0.02023
v -0.06613 0.16564 0.03718
v -0.06752 0.17652 0.05744
v -0.06250 0.17699 0.07432
v -0.05955 0.19158 0.01134
v -0.07429 0.18075 0.06369
v -0.07172 0.18112 0.07639
v -0.06357 0.21607 -0.05503
v -0.05944 0.20728 0.02203
v -0.06140 0.21446 0.02970
v -0.06123 0.23191 -0.13600
v -0.06142 0.23698 -0.12800
v -0.05923 0.23822 -0.06905
v -0.06165 0.22242 -0.06008
v -0.06412 0.24347 -0.11212
v -0.06354 0.24718 -0.10079
v -0.05986 0.24353 -0.07388
v -0.05939 0.25162 0.00579
v -0.06699 0.27371 -0.03122
v -0.06041 0.27412 -0.01812
v -0.06204 0.27108 0.01602
v -0.06246 0.27565 0.02787
v -0.07160 0.28319 -0.02912
v -0.06397 0.28967 -0.00491
v -0.06838 0.29001 0.01127
v -0.06017 0.28145 0.03273
v -0.07580 0.30055 -0.02110
v -0.07313 0.30379 -0.00458
v -0.07450 0.30351 0.00768
v -0.05360 0.04596 -0.00074
v -0.04853 0.05099 0.00706
v -0.04524 0.05782 0.02370
v -0.04968 0.07317 -0.04457
v -0.04728 0.06429 -0.03472
v -0.04606 0.06989 0.03603
v -0.05185 0.07734 0.05516
v -0.04959 0.09068 -0.08024
v -0.04541 0.08178 -0.05808
v -0.04916 0.10481 -0.09166
v -0.04368 0.11928 -0.08534
v -0.04499 0.11577 -0.00818
v -0.04562 0.13904 -0.13344
v -0.05050 0.13356 -0.07180
v -0.05054 0.13666 -0.05812
v -0.04206 0.13772 -0.02984
v -0.04955 0.12547 -0.01006
v -0.05052 0.13537 0.01364
v -0.04298 0.13995 0.02613
v -0.04871 0.14107 -0.13240
v -0.04374 0.14718 -0.12801
v -0.04248 0.14927 -0.05073
v -0.04231 0.14443 -0.03963
v -0.05680 0.14276 0.01644
v -0.04639 0.15056 0.03590
v -0.04292 0.15596 0.04887
v -0.04316 0.17836 -0.06160
v -0.04130 0.17696 0.00403
v -0.05595 0.16431 0.04419
v -0.05215 0.16741 0.05711
v -0.05765 0.17419 0.07014
v -0.04224 0.18135 -0.05030
v -0.04125 0.18231 -0.04298
v -0.04546 0.19300 -0.00160
v -0.04609 0.18882 0.00749
v -0.05049 0.21474 -0.04836
v -0.04589 0.20779 -0.03842
v -0.04254 0.21500 -0.00691
v -0.05713 0.20514 0.02005
v -0.05390 0.21688 0.03120
v -0.04759 0.22832 -0.13919
v -0.04767 0.23787 -0.12996
v -0.05607 0.23666 -0.06692
v -0.04830 0.22727 -0.06113
v -0.04621 0.23029 -0.00832
v -0.04246 0.22839 0.00462
v -0.05004 0.22845 0.04242
v -0.04470 0.23618 0.05289
v -0.05120 0.24233 -0.11558
v -0.04871 0.24492 -0.10465
v -0.04854 0.24483 -0.07761
v -0.04835 0.25449 -0.02922
v -0.04589 0.25126 -0.01310
v -0.05059 0.24792 0.00686
v -0.04100 0.26267 -0.05131
v -0.04932 0.27622 -0.02372
v -0.04962 0.26729 -0.01445
v -0.05113 0.26522 0.01455
v -0.04578 0.27787 0.03057
v -0.04767 0.29818 -0.05106
v -0.04895 0.28904 -0.03339
v -0.04949 0.28735 0.04018
v -0.04777 0.29433 0.05757
v -0.04634 0.29348 0.07887
v -0.02300 0.05219 -0.03160
v -0.03186 0.04996 0.01614
v -0.03046 0.05550 0.02553
v -0.02797 0.07033 -0.04909
v -0.03515 0.06639 -0.04129
v -0.03456 0.06652 0.03648
v -0.02319 0.07987 0.05061
v -0.02716 0.09561 -0.08906
v -0.03266 0.09041 -0.07810
v -0.02427 0.08091 -0.06255
v -0.02848 0.09276 -0.00525
v -0.02382 0.09264 0.00556
v -0.02981 0.09292 0.06161
v -0.03336 0.10688 -0.09132
v -0.03018 0.11613 -0.08569
v -0.03118 0.11187 -0.00777
v -0.02839 0.11054 0.01265
v -0.02640 0.11807 0.03255
v -0.02749 0.10550 0.07876
v -0.03381 0.13956 -0.13250
v -0.02518 0.13938 -0.12938
v -0.02373 0.13693 -0.10309
v -0.03541 0.12795 -0.07925
v -0.03289 0.13257 -0.02389
v -0.02948 0.12946 -0.01033
v -0.03499 0.12797 0.02092
v -0.03314 0.13035 0.03183
v -0.02217 0.13442 0.05536
v -0.03708 0.14047 -0.13231
v -0.03331 0.14541 -0.12299
v -0.02826 0.14214 -0.10705
v -0.02901 0.15262 -0.05265
v -0.03503 0.14380 -0.03691
v -0.02594 0.15233 -0.01175
v -0.02886 0.15063 0.01332
v -0.02810 0.15081 0.03549
v -0.02768 0.14660 0.04905
v -0.03103 0.16837 -0.07520
v -0.03069 0.17257 -0.05964
v -0.03068 0.17412 -0.02874
v -0.02856 0.16946 -0.01271
v -0.03249 0.16867 0.00822
v -0.03951 0.18110 -0.04587
v -0.03107 0.18933 -0.03029
v -0.02971 0.19167 -0.00888
v -0.03041 0.19153 0.01952
v -0.02409 0.19606 0.02568
v -0.03109 0.21574 -0.05185
v -0.03065 0.20535 -0.03850
v -0.03064 0.21022 -0.00975
v -0.03314 0.21205 0.00541
v -0.02817 0.21433 0.03656
v -0.02180 0.20836 0.07405
v -0.03731 0.23075 -0.13297
v -0.03050 0.23185 -0.12521
v -0.02961 0.23857 -0.08812
v -0.03239 0.23431 -0.07414
v -0.03552 0.22531 -0.06197
v -0.03018 0.23475 -0.02587
v -0.03528 0.23010 -0.01320
v -0.03299 0.22555 0.00977
v -0.03295 0.22440 0.04275
v -0.03086 0.23005 0.05310
v -0.03760 0.24239 -0.11069
v -0.03326 0.24161 -0.09975
v -0.03934 0.24065 -0.07666
v -0.02809 0.25619 -0.05234
v -0.03447 0.24937 -0.03075
v -0.03472 0.25048 -0.01298
v -0.03743 0.24701 0.01568
v -0.02805 0.25298 0.02405
v -0.03540 0.26590 -0.05248
v -0.02964 0.26993 -0.02927
v -0.03031 0.27292 -0.00835
v -0.03890 0.26149 0.02188
v -0.02874 0.27291 0.03495
v -0.03484 0.29089 -0.05087
v -0.03263 0.28204 -0.03690
v -0.02826 0.28945 -0.00495
v -0.03968 0.28423 0.03776
v -0.02883 0.28879 0.05677
v -0.03096 0.28964 0.08322
v -0.02284 0.30055 0.00095
v -0.02269 0.30301 0.00304
v -0.00543 0.01292 -0.00635
v -0.00821 0.00919 0.00919
v -0.00691 0.03422 -0.02795
v -0.00846 0.03242 -0.01383
v -0.00973 0.03181 0.01359
v -0.01040 0.03525 0.02457
v -0.01247 0.05673 -0.04608
v -0.01417 0.05133 -0.03406
v -0.01098 0.05118 -0.00906
v -0.01473 0.04743 0.01588
v -0.01357 0.05142 0.03140
v -0.00990 0.07477 -0.06866
v -0.01232 0.06777 -0.05378
v -0.01042 0.06909 -0.00634
v -0.00809 0.07487 0.00583
v -0.01106 0.06925 0.03857
v -0.01728 0.07605 0.04801
v -0.01151 0.09714 -0.09025
v -0.00966 0.09025 -0.08311
v -0.01565 0.09085 -0.00660
v -0.01286 0.08995 0.01249
v -0.00886 0.08781 0.04217
v -0.00921 0.09201 0.05148
v -0.01260 0.09832 0.06980
v -0.00687 0.11163 -0.09672
v -0.01134 0.10944 -0.08578
v -0.00920 0.11309 -0.02203
v -0.01625 0.10850 -0.01084
v -0.01633 0.10603 0.01553
v -0.01016 0.11549 0.03797
v -0.00981 0.10993 0.05029
v -0.01718 0.10693 0.08259
v -0.01494 0.10818 0.10289
v -0.01017 0.10348 0.11260
v -0.00973 0.13313 -0.14147
v -0.01240 0.13207 -0.11930
v -0.01590 0.12838 -0.10010
v -0.01031 0.12981 -0.03112
v -0.01745 0.12976 -0.00579
v -0.01189 0.13578 0.01624
v -0.00952 0.12967 0.03172
v -0.01466 0.13103 0.06002
v -0.00652 0.13804 0.07162
v -0.01726 0.15093 -0.16127
v -0.01171 0.14623 -0.14665
v -0.00801 0.15819 -0.07272
v -0.01352 0.14671 -0.04681
v -0.00832 0.15186 -0.02844
v -0.01561 0.14923 -0.01179
v -0.01293 0.14429 0.01500
v -0.01704 0.14262 0.03402
v -0.01783 0.14236 0.06573
v -0.01324 0.15109 0.07955
v -0.01157 0.17025 -0.16415
v -0.00688 0.16816 -0.14679
v -0.01810 0.16274 -0.07544
v -0.01196 0.16410 -0.05260
v -0.01100 0.16174 -0.03545
v -0.01885 0.16457 0.00069
v -0.01489 0.17292 0.01082
v -0.01188 0.17794 0.02910
v -0.01224 0.16463 0.09805
v -0.00381 0.18272 -0.16606
v -0.00483 0.19576 -0.07117
v -0.00753 0.19844 -0.05784
v -0.02080 0.19842 -0.03251
v -0.01685 0.19148 0.00868
v -0.01220 0.19153 0.03133
v -0.00960 0.19425 0.04766
v -0.00635 0.19779 0.07692
v -0.00826 0.21287 -0.11017
v -0.00600 0.21018 -0.09903
v -0.01048 0.21263 -0.07403
v -0.01222 0.20526 -0.05086
v -0.01574 0.20757 -0.03348
v -0.01960 0.20832 -0.01895
v -0.01841 0.21213 0.01390
v -0.01164 0.20913 0.03582
v -0.01315 0.20670 0.07543
v -0.00584 0.20778 0.11057
v -0.00702 0.21250 0.11529
v -0.01931 0.22749 -0.11414
v -0.01619 0.22901 -0.09735
v -0.01506 0.22466 -0.07915
v -0.01322 0.23878 -0.04565
v -0.01369 0.22802 -0.03595
v -0.01155 0.23071 0.01865
v -0.01423 0.22194 0.03179
v -0.00503 0.22259 0.06485
v -0.00391 0.22034 0.06849
v -0.00553 0.23386 0.12412
v -0.01627 0.24595 -0.05197
v -0.01181 0.24291 0.02196
v -0.00987 0.25559 0.03200
v -0.00565 0.24268 0.13314
v -0.00374 0.24603 0.13482
v -0.01720 0.26984 -0.00274
v -0.01059 0.27501 0.00222
v -0.01147 0.26410 0.03791
v -0.00522 0.27252 0.05843
v -0.00882 0.27609 0.06919
v -0.01689 0.29081 -0.00009
v -0.00829 0.29022 0.00631
v -0.01559 0.28169 0.05952
v -0.01925 0.28388 0.07498
v -0.01561 0.30366 0.00855
v 0.00542 0.00893 -0.00475
v 0.00592 0.00933 0.00659
v 0.00354 0.03581 -0.02856
v 0.00517 0.02987 -0.01137
v 0.00350 0.03095 0.00833
v 0.00567 0.05193 -0.04945
v 0.00523 0.04813 -0.03421
v 0.00095 0.04731 -0.00951
v 0.00545 0.05205 0.01293
v 0.00320 0.05344 0.02819
v 0.00073 0.07240 -0.07041
v -0.00035 0.06642 -0.05401
v 0.00082 0.07258 -0.00696
v 0.00101 0.06773 0.01148
v 0.00498 0.06707 0.03913
v 0.00789 0.07657 0.05304
v 0.00820 0.07887 0.13756
v 0.00244 0.09574 -0.09207
v 0.00060 0.08793 -0.08244
v 0.00951 0.09410 -0.05065
v 0.00187 0.09003 -0.03273
v 0.00655 0.08739 -0.01198
v 0.00160 0.08385 0.01768
v 0.00693 0.09340 0.03396
v 0.00284 0.09543 0.05373
v 0.00668 0.09897 0.08030
v 0.00772 0.09966 0.11017
v 0.00260 0.09057 0.12809
v 0.00419 0.08161 0.13766
v 0.00228 0.11774 -0.11299
v 0.00156 0.11163 -0.10268
v 0.00098 0.11254 -0.02639
v -0.00276 0.10748 -0.01977
v 0.00499 0.10617 0.03711
v 0.00702 0.11159 0.05388
v -0.00253 0.10626 0.08395
v 0.00481 0.10201 0.09943
v 0.00535 0.12844 -0.11489
v 0.00769 0.12825 -0.10805
v 0.01103 0.12722 -0.04695
v 0.00464 0.12549 -0.03711
v 0.00210 0.12871 0.06443
v 0.00646 0.13515 0.07577
v -0.00322 0.14047 -0.13448
v 0.00950 0.14809 -0.12202
v 0.00202 0.15404 -0.06662
v 0.00374 0.15577 -0.05449
v 0.00059 0.15313 -0.03058
v 0.00171 0.15232 -0.01804
v 0.00008 0.15276 0.02752
v 0.00822 0.14868 0.08104
v 0.00904 0.15293 0.09402
v -0.00287 0.17780 -0.15427
v -0.00077 0.17692 -0.14634
v 0.00968 0.17024 -0.12939
v 0.00737 0.17275 -0.00777
v 0.00154 0.16811 0.01517
v 0.01074 0.17394 0.02931
v 0.01119 0.17020 0.08157
v 0.00707 0.17096 0.09953
v 0.00847 0.16478 0.11911
v 0.00259 0.19050 -0.16606
v 0.00590 0.18644 -0.14669
v 0.01408 0.18144 0.02104
v 0.00430 0.19047 0.07450
v 0.00689 0.18866 0.09562
v 0.01083 0.18496 0.12372
v 0.00780 0.18637 0.14846
v 0.01145 0.18240 0.15748
v 0.01293 0.20054 -0.16849
v 0.00761 0.21316 0.07267
v 0.00317 0.20469 0.10141
v 0.00955 0.22549 0.05900
v 0.00551 0.22644 0.10828
v -0.00218 0.22963 0.11650
v -0.00008 0.25061 0.03603
v 0.01449 0.24239 0.11156
v 0.00791 0.24735 0.12184
v 0.01406 0.25975 0.13751
v -0.00224 0.26073 0.04233
v -0.00246 0.26903 0.05427
v 0.01484 0.26027 0.13552
v 0.01646 0.01239 -0.00044
v 0.01744 0.00677 0.00599
v 0.02821 0.03907 -0.06246
v 0.01553 0.03264 0.00859
v 0.02254 0.04780 -0.05402
v 0.02741 0.05019 -0.02677
v 0.01569 0.05327 0.01642
v 0.03017 0.05695 0.15051
v 0.01831 0.06678 0.02089
v 0.02289 0.06977 0.03205
v 0.02977 0.07640 0.06068
v 0.02554 0.07404 0.13039
v 0.02758 0.06762 0.13990
v 0.02860 0.09430 -0.09146
v 0.02202 0.09868 -0.07757
v 0.01762 0.09918 -0.06204
v 0.01790 0.08925 -0.00188
v 0.02799 0.08920 0.00503
v 0.01867 0.08933 0.03457
v 0.01536 0.09845 0.04610
v 0.02395 0.08577 0.07935
v 0.02159 0.08751 0.10729
v 0.01734 0.08513 0.11758
v 0.02404 0.11868 -0.11130
v 0.02253 0.11337 -0.09734
v 0.02092 0.10236 -0.07123
v 0.02217 0.10375 -0.06070
v 0.01825 0.10603 -0.02677
v 0.03038 0.10494 -0.01087
v 0.02094 0.11254 0.03652
v 0.02798 0.12687 -0.11654
v 0.03003 0.12134 -0.10435
v 0.02670 0.12229 0.04147
v 0.02634 0.13066 0.05927
v 0.02070 0.12983 0.07080
v 0.01924 0.14986 -0.11689
v 0.01874 0.15068 0.08611
v 0.01892 0.15103 0.10274
v 0.01857 0.15556 0.11625
v 0.02552 0.17035 -0.12343
v 0.01879 0.17618 0.03531
v 0.01727 0.17398 0.08382
v 0.02374 0.16695 0.10473
v 0.02001 0.17743 0.11503
v 0.02818 0.17599 0.16862
v 0.02876 0.19026 -0.13940
v 0.02896 0.18260 -0.13153
v 0.02432 0.18492 -0.02396
v 0.02204 0.18464 -0.01508
v 0.02482 0.18607 0.01493
v 0.02631 0.18466 0.03222
v 0.02471 0.18874 0.08192
v 0.01804 0.19070 0.09243
v 0.01817 0.18377 0.12520
v 0.02522 0.18363 0.14873
v 0.02641 0.18081 0.16150
v 0.02701 0.20354 -0.16242
v 0.02971 0.20118 -0.15346
v 0.02699 0.21756 0.06711
v 0.02803 0.20673 0.08108
v 0.02031 0.20992 0.09558
v 0.02712 0.22491 0.04260
v 0.02222 0.22546 0.05370
v 0.02404 0.22876 0.10001
v 0.02107 0.24434 0.10943
v 0.01735 0.25189 0.11655
v 0.02508 0.26453 0.12703
v 0.02448 0.26933 0.14285
v 0.04940 0.01668 -0.05565
v 0.04194 0.03038 -0.05846
v 0.04988 0.03480 -0.03143
v 0.05101 0.03907 0.15647
v 0.05134 0.03707 0.15726
v 0.03660 0.04483 -0.05221
v 0.04022 0.04817 -0.02873
v 0.04514 0.05057 0.14905
v 0.04893 0.07784 -0.11544
v 0.03732 0.06650 0.04356
v 0.04497 0.06566 0.05412
v 0.04401 0.07483 0.07891
v 0.04618 0.07180 0.10782
v 0.04604 0.06382 0.13118
v 0.03428 0.06042 0.14750
v 0.04696 0.08215 -0.11136
v 0.04450 0.08831 -0.10327
v 0.04626 0.09781 -0.08372
v 0.04029 0.09532 0.00668
v 0.03515 0.08039 0.09419
v 0.04221 0.10273 -0.07498
v 0.04401 0.11078 -0.04593
v 0.03949 0.11190 -0.03386
v 0.04425 0.10619 -0.00613
v 0.04668 0.11119 0.01804
v 0.03752 0.11619 0.02706
v 0.04448 0.13440 -0.11913
v 0.04147 0.12734 -0.09258
v 0.04752 0.12727 0.03246
v 0.03705 0.13588 0.05609
v 0.03446 0.13867 0.06983
v 0.04810 0.13724 0.17180
v 0.04244 0.14283 0.06309
v 0.04320 0.14658 0.07339
v 0.04255 0.15156 0.17551
v 0.03576 0.15609 0.17910
v 0.04472 0.16593 0.10599
v 0.04591 0.17572 0.12267
v 0.04661 0.17745 0.15427
v 0.03955 0.16754 0.17152
v 0.03627 0.18954 -0.13754
v 0.04115 0.18926 -0.03058
v 0.04368 0.19027 -0.00974
v 0.04201 0.19455 0.01658
v 0.04274 0.18896 0.03824
v 0.04069 0.19531 0.07943
v 0.03411 0.18023 0.12909
v 0.04053 0.18084 0.14159
v 0.04364 0.21432 0.06136
v 0.04224 0.20486 0.07731
v 0.03480 0.21495 0.09089
v 0.03917 0.22296 0.05146
v 0.04289 0.22788 0.09541
v 0.04626 0.24860 0.10455
v 0.03376 0.25923 0.11399
v 0.04223 0.27026 0.12492
v 0.03859 0.27706 0.14450
v 0.04904 0.28020 0.14767
v 0.05338 0.01456 -0.04703
v 0.05445 0.01888 -0.04248
v 0.06745 0.01770 0.15010
v 0.05329 0.02745 -0.03507
v 0.06147 0.03055 0.15099
v 0.05360 0.03125 0.15796
v 0.05502 0.05931 0.05547
v 0.06898 0.05893 0.07968
v 0.06730 0.05871 0.09342
v 0.06316 0.05539 0.12643
v 0.05738 0.05087 0.14211
v 0.06478 0.07221 -0.11536
v 0.06748 0.07848 -0.10375
v 0.05822 0.06222 0.06454
v 0.06044 0.06433 0.08027
v 0.05989 0.06406 0.09435
v 0.05633 0.06303 0.11919
v 0.05373 0.08022 -0.11225
v 0.06313 0.08625 -0.09799
v 0.05819 0.09717 -0.07926
v 0.06094 0.10539 -0.05574
v 0.06422 0.11210 -0.03233
v 0.05886 0.10857 -0.00944
v 0.05919 0.11651 0.02135
v 0.06055 0.13691 -0.12321
v 0.06079 0.13751 -0.09417
v 0.05859 0.13451 -0.08731
v 0.06988 0.12085 0.02335
v 0.06336 0.12973 0.02998
v 0.06797 0.14029 -0.09715
v 0.05885 0.14987 0.06319
v 0.05692 0.15365 0.07987
v 0.06127 0.15457 0.09305
v 0.06884 0.15957 0.14854
v 0.05973 0.14927 0.16454
v 0.05409 0.16608 0.11048
v 0.06047 0.16710 0.12121
v 0.06325 0.16754 0.14524
v 0.05454 0.16194 0.16550
v 0.05772 0.18856 -0.02921
v 0.05929 0.18982 -0.01563
v 0.06055 0.19491 0.01175
v 0.06088 0.19506 0.03253
v 0.05286 0.21106 0.05808
v 0.05347 0.21079 0.08959
v 0.05717 0.21600 0.09124
v 0.06221 0.23265 0.09837
v 0.06385 0.24796 0.10666
v 0.06345 0.25827 0.11559
v 0.06051 0.26897 0.12508
v 0.05780 0.27787 0.13896
v 0.05321 0.28033 0.14802
v 0.08659 0.01778 0.13126
v 0.07573 0.00980 0.14211
v 0.08633 0.02858 0.12632
v 0.07561 0.03117 0.13890
v 0.08148 0.05601 -0.12548
v 0.07704 0.05264 0.07949
v 0.08138 0.05012 0.10239
v 0.07943 0.04679 0.11532
v 0.07379 0.06521 -0.12062
v 0.07457 0.07779 -0.10270
v 0.07460 0.08415 -0.09221
v 0.07873 0.09602 -0.06624
v 0.08828 0.09862 -0.05079
v 0.08569 0.11663 -0.12920
v 0.07925 0.10453 -0.04749
v 0.07963 0.10719 -0.03153
v 0.07697 0.10990 -0.01660
v 0.07205 0.11902 0.02309
v 0.07969 0.11946 0.02513
v 0.07730 0.13098 -0.12684
v 0.08388 0.13803 -0.10105
v 0.07915 0.12540 0.02828
v 0.07414 0.14052 -0.09728
v 0.07839 0.14255 0.03932
v 0.07462 0.14950 0.05391
v 0.08096 0.15365 0.08381
v 0.08399 0.15389 0.09685
v 0.08206 0.18256 -0.03323
v 0.08177 0.18558 -0.01638
v 0.08037 0.19212 0.01508
v 0.07205 0.19592 0.03005
v 0.10330 0.03525 -0.12749
v 0.09104 0.03357 0.11775
v 0.09603 0.04996 -0.12193
v 0.09401 0.06199 -0.11130
v 0.09791 0.06658 -0.10395
v 0.10617 0.07275 -0.08604
v 0.09393 0.08430 -0.07675
v 0.10299 0.08635 -0.05342
v 0.09998 0.09654 -0.03547
v 0.09329 0.11348 -0.11928
v 0.09648 0.10419 -0.02553
v 0.10287 0.10071 -0.02058
v 0.09289 0.12557 -0.11326
v 0.09230 0.12978 -0.10635
v 0.09869 0.13429 0.03505
v 0.10669 0.13882 0.11555
v 0.09419 0.14133 0.03863
v 0.09986 0.14605 0.05439
v 0.09749 0.15340 0.07943
v 0.10117 0.14754 0.10555
v 0.10539 0.14116 0.11355
v 0.09858 0.17581 -0.02886
v 0.10321 0.17618 -0.00260
v 0.10303 0.17686 0.00642
v 0.09058 0.18079 -0.02570
v 0.09367 0.18231 -0.01120
v 0.09206 0.18538 0.01000
v 0.12157 0.01563 -0.11785
v 0.11578 0.02681 -0.12103
v 0.11118 0.04786 -0.11171
v 0.12017 0.05087 -0.09819
v 0.12527 0.05834 -0.06867
v 0.11155 0.06581 -0.09055
v 0.11870 0.06735 -0.07105
v 0.12227 0.07298 -0.04924
v 0.11658 0.07918 -0.03898
v 0.11018 0.08156 -0.05057
v 0.11240 0.08718 -0.03534
v 0.12422 0.11651 0.11225
v 0.10868 0.13717 0.04497
v 0.11867 0.13634 0.05581
v 0.12527 0.13960 0.08742
v 0.11898 0.12959 0.10787
v 0.11070 0.13172 0.11829
v 0.11940 0.15845 -0.01655
v 0.11023 0.14321 0.05929
v 0.11687 0.14591 0.07671
v 0.11676 0.14220 0.09801
v 0.11075 0.16833 -0.02481
v 0.11321 0.16718 -0.00682
v 0.10721 0.17311 0.00460
v 0.12674 0.00582 -0.11069
v 0.13150 0.01330 -0.10212
v 0.13166 0.02967 -0.09139
v 0.13512 0.03382 -0.07999
v 0.13071 0.05189 -0.07227
v 0.13166 0.05320 -0.05584
v 0.12782 0.06558 -0.05032
v 0.13586 0.09949 0.10027
v 0.14280 0.11529 0.08851
v 0.13231 0.11075 0.10451
v 0.13628 0.12697 0.06204
v 0.13673 0.12768 0.08086
v 0.13233 0.12953 0.09332
v 0.14384 0.11312 0.08811
vt 0.92895 0.95634
vt 0.40699 0.22940
vt 0.91450 0.60711
vt 0.93070 0.92011
vt 0.51153 0.51989
vt 0.60909 0.56285
vt 0.62935 0.75862
vt 0.43043 0.37618
vt 0.40132 0.30178
vt 0.47857 0.34146
vt 0.50794 0.33801
vt 0.53916 0.33517
vt 0.61583 0.49073
vt 0.71141 0.85090
vt 0.71394 0.81455
vt 0.66516 0.64069
vt 0.68546 0.77025
vt 0.38615 0.43673
vt 0.39609 0.41997
vt 0.42559 0.40608
vt 0.46518 0.39603
vt 0.52127 0.38805
vt 0.54674 0.38440
vt 0.50953 0.37532
vt 0.54439 0.36626
vt 0.76291 0.65278
vt 0.77056 0.29141
vt 0.62696 0.43360
vt 0.74744 0.61029
vt 0.81396 0.65479
vt 0.46397 0.49047
vt 0.39632 0.44425
vt 0.43785 0.44281
vt 0.48746 0.42541
vt 0.53074 0.42003
vt 0.54755 0.39661
vt 0.13737 0.92412
vt 0.14432 0.92846
vt 0.76979 0.12000
vt 0.74674 0.10253
vt 0.46474 0.47392
vt 0.43208 0.38590
vt 0.72522 0.21674
vt 0.35135 0.35963
vt 0.86922 0.79939
vt 0.45456 0.59513
vt 0.56189 0.44092
vt 0.52733 0.39744
vt 0.26577 0.23671
vt 0.59835 0.53777
vt 0.54616 0.29723
vt 0.72739 0.41291
vt 0.81079 0.46458
vt 0.79428 0.39688
vt 0.71175 0.27481
vt 0.85111 0.20607
vt 0.86579 0.17532
vt 0.58971 0.71700
vt 0.10375 0.27498
vt 0.45932 0.41694
vt 0.65014 0.50163
vt 0.44600 0.48904
vt 0.46863 0.47443
vt 0.49991 0.47094
vt 0.53994 0.45758
vt 0.55380 0.43353
vt 0.39006 0.20072
vt 0.17295 0.52365
vt 0.38730 0.20214
vt 0.13168 0.52714
vt 0.90279 0.42268
vt 0.90803 0.41991
vt 0.20710 0.61139
vt 0.15768 0.68096
vt 0.53166 0.33757
vt 0.79696 0.14768
vt 0.39772 0.29521
vt 0.53322 0.33435
vt 0.65117 0.25155
vt 0.60376 0.30531
vt 0.80077 0.58560
vt 0.74794 0.60398
vt 0.72701 0.61991
vt 0.47363 0.70553
vt 0.68604 0.24296
vt 0.64902 0.23749
vt 0.64486 0.20504
vt 0.77978 0.79585
vt 0.58419 0.47022
vt 0.48366 0.18147
vt 0.84351 0.47020
vt 0.67374 0.55731
vt 0.56296 0.63808
vt 0.35864 0.28067
vt 0.26239 0.61649
vt 0.21160 0.91838
vt 0.50851 0.14116
vt 0.65220 0.41764
vt 0.56596 0.26538
vt 0.55554 0.35491
vt 0.50222 0.50352
vt 0.53605 0.50509
vt 0.53791 0.93685
vt 0.51142 0.48581
vt 0.53616 0.48482
vt 0.15687 0.53352
vt 0.72369 0.69336
vt 0.70993 0.53265
vt 0.80402 0.74116
vt 0.73235 0.60615
vt 0.19833 0.50174
vt 0.16941 0.52332
vt 0.71851 0.57490
vt 0.71385 0.55188
vt 0.21152 0.49682
vt 0.34841 0.87785
vt 0.17819 0.50604
vt 0.13288 0.56333
vt 0.63553 0.59361
vt 0.09586 0.72772
vt 0.22182 0.41115
vt 0.22322 0.62274
vt 0.51414 0.43227
vt 0.08708 0.71539
vt 0.03249 0.63221
vt 0.19502 0.54927
vt 0.96206 0.68002
vt 0.61638 0.33535
vt 0.56794 0.34547
vt 0.76312 0.26582
vt 0.46247 0.68290
vt 0.37979 0.48342
vt 0.68322 0.27700
vt 0.59838 0.23920
vt 0.61578 0.56527
vt 0.21988 0.80327
vt 0.49674 0.48053
vt 0.73369 0.75420
vt 0.39547 0.26608
vt 0.12340 0.23816
vt 0.78078 0.74828
vt 0.80350 0.55712
vt 0.09853 0.94096
vt 0.54985 0.23745
vt 0.39092 0.37721
vt 0.41051 0.68624
vt 0.12760 0.23195
vt 0.31597 0.40972
vt 0.82322 0.59019
vt 0.20334 0.83899
vt 0.71979 0.07320
vt 0.51576 0.75213
vt 0.64777 0.58562
vt 0.30107 0.80604
vt 0.76149 0.58834
vt 0.47945 0.53834
vt 0.47475 0.45672
vt 0.53011 0.51749
vt 0.30322 0.78312
vt 0.30587 0.76891
vt 0.39703 0.53327
vt 0.55155 0.60417
vt 0.13556 0.51381
vt 0.11057 0.51411
vt 0.52373 0.38382
vt 0.72342 0.68646
vt 0.69768 0.45030
vt 0.91149 0.67777
vt 0.77326 0.66330
vt 0.19097 0.49837
vt 0.23088 0.39995
vt 0.46960 0.40194
vt 0.48999 0.43132
vt 0.63478 0.60744
vt 0.78150 0.83112
vt 0.74394 0.57564
vt 0.74362 0.55302
vt 0.44821 0.46565
vt 0.40977 0.33879
vt 0.50262 0.38615
vt 0.44703 0.66759
vt 0.51052 0.95260
vt 0.24677 0.44391
vt 0.29692 0.48076
vt 0.51914 0.67232
vt 0.10232 0.48919
vt 0.35394 0.60436
vt 0.51899 0.38194
vt 0.25868 0.66930
vt 0.40755 0.78701
vt 0.35734 0.72065
vt 0.38965 0.44711
vt 0.62147 0.38476
vt 0.47728 0.42908
vt 0.36629 0.37396
vt 0.55242 0.30922
vt 0.57664 0.27417
vt 0.81355 0.09584
vt 0.59518 0.69237
vt 0.30452 0.53952
vt 0.41328 0.72500
vt 0.53462 0.30452
vt 0.38348 0.42875
vt 0.72911 0.17331
vt 0.65402 0.75002
vt 0.64970 0.77292
vt 0.29415 0.55888
vt 0.54459 0.62560
vt 0.46206 0.70954
vt 0.58681 0.45259
vt 0.58926 0.97439
vt 0.67258 0.96270
vt 0.44227 0.56270
vt 0.72485 0.84931
vt 0.11917 0.85547
vt 0.35396 0.35856
vt 0.29772 0.92170
vt 0.43935 0.70146
vt 0.44688 0.88966
vt 0.35770 0.61108
vt 0.45034 0.59709
vt 0.62590 0.32385
vt 0.61520 0.64284
vt 0.11840 0.90430
vt 0.34611 0.38936
vt 0.57547 0.80074
vt 0.65449 0.61038
vt 0.47272 0.42626
vt 0.39046 0.80153
vt 0.38358 0.77442
vt 0.36930 0.42711
vt 0.46097 0.35741
vt 0.66703 0.47452
vt 0.30928 0.77506
vt 0.49139 0.44823
vt 0.45210 0.41269
vt 0.69428 0.60390
vt 0.39006 0.35138
vt 0.28360 0.41134
vt 0.26681 0.51540
vt 0.41033 0.47267
vt 0.55458 0.57673
vt 0.51483 0.48089
vt 0.92281 0.91291
vt 0.78206 0.60700
vt 0.60974 0.56910
vt 0.77802 0.51688
vt 0.73833 0.25374
vt 0.24344 0.42164
vt 0.20849 0.71615
vt 0.41012 0.51948
vt 0.39454 0.56209
vt 0.63658 0.39986
vt 0.77910 0.65317
vt 0.76740 0.56011
vt 0.77270 0.53837
vt 0.75551 0.49942
vt 0.47201 0.79475
vt 0.28827 0.43111
vt 0.48051 0.35926
vt 0.29815 0.69312
vt 0.17135 0.69719
vt 0.50114 0.77401
vt 0.78339 0.29653
vt 0.54199 0.47303
vt 0.14723 0.70764
vt 0.19801 0.71510
vt 0.35747 0.34130
vt 0.36636 0.44243
vt 0.30566 0.50498
vt 0.26068 0.76932
vt 0.45412 0.83671
vt 0.39774 0.73324
vt 0.32163 0.64941
vt 0.80198 0.29788
vt 0.18626 0.20931
vt 0.14727 0.16732
vt 0.22905 0.39000
vt 0.29437 0.51390
vt 0.21362 0.25709
vt 0.28522 0.33804
vt 0.40087 0.29580
vt 0.35806 0.36634
vt 0.46125 0.54899
vt 0.33812 0.43556
vt 0.25179 0.25921
vt 0.57975 0.55892
vt 0.46807 0.35737
vt 0.35238 0.40476
vt 0.26602 0.43598
vt 0.30091 0.23488
vt 0.81532 0.11018
vt 0.39250 0.42970
vt 0.43569 0.47990
vt 0.34025 0.57663
vt 0.43155 0.37544
vt 0.46795 0.39089
vt 0.53430 0.27980
vt 0.69764 0.37292
vt 0.17214 0.33765
vt 0.60650 0.66131
vt 0.21733 0.44764
vt 0.28799 0.64518
vt 0.32624 0.60873
vt 0.52384 0.52225
vt 0.49303 0.40774
vt 0.53152 0.60977
vt 0.49048 0.49492
vt 0.54858 0.79488
vt 0.48773 0.69541
vt 0.35713 0.54354
vt 0.30838 0.44896
vt 0.44506 0.39404
vt 0.50697 0.39734
vt 0.32659 0.35455
vt 0.22436 0.57139
vt 0.48723 0.51085
vt 0.22475 0.35297
vt 0.73997 0.25828
vt 0.58850 0.41105
vt 0.34685 0.73139
vt 0.61067 0.23394
vt 0.43170 0.27987
vt 0.44794 0.31724
vt 0.59491 0.39089
vt 0.42392 0.56895
vt 0.62955 0.15808
vt 0.61189 0.32952
vt 0.78675 0.49526
vt 0.79401 0.47998
vt 0.35409 0.84184
vt 0.36896 0.79860
vt 0.39845 0.65179
vt 0.93777 0.38613
vt 0.67387 0.34771
vt 0.93851 0.46834
vt 0.70800 0.27557
vt 0.79783 0.29234
vt 0.84153 0.54157
vt 0.67526 0.52025
vt 0.59776 0.58189
vt 0.75557 0.37118
vt 0.73413 0.36748
vt 0.94669 0.42031
vt 0.88562 0.72552
vt 0.90672 0.70455
vt 0.90690 0.46872
vt 0.82635 0.42694
vt 0.64373 0.51153
vt 0.53689 0.50407
vt 0.31060 0.26693
vt 0.47597 0.30703
vt 0.64880 0.36227
vt 0.91063 0.80159
vt 0.87581 0.34160
vt 0.87520 0.32864
vt 0.46125 0.59654
vt 0.56981 0.48919
vt 0.87875 0.30416
vt 0.30231 0.75738
vt 0.29676 0.72999
vt 0.21884 0.47668
vt 0.68427 0.17878
vt 0.80825 0.71490
vt 0.88836 0.80305
vt 0.31786 0.76099
vt 0.10983 0.28096
vt 0.20615 0.68235
vt 0.40133 0.44870
vt 0.52367 0.73433
vt 0.64397 0.70651
vt 0.75460 0.20366
vt 0.72739 0.37715
vt 0.28665 0.55414
vt 0.31162 0.68748
vt 0.26137 0.30028
vt 0.50898 0.63780
vt 0.80267 0.59070
vt 0.37890 0.72192
vt 0.48885 0.81973
vt 0.55182 0.53770
vt 0.33238 0.26726
vt 0.24789 0.23274
vt 0.50919 0.63762
vt 0.42991 0.37327
vt 0.42998 0.38130
vt 0.41643 0.44087
vt 0.39693 0.51026
vt 0.18254 0.12195
vt 0.63504 0.38520
vt 0.53826 0.54404
vt 0.40079 0.27183
vt 0.38255 0.18081
vt 0.42066 0.82650
vt 0.46841 0.49836
vt 0.78694 0.46640
vt 0.72636 0.40413
vt 0.90884 0.54888
vt 0.26441 0.26872
vt 0.39247 0.32276
vt 0.76205 0.19745
vt 0.62375 0.31084
vt 0.31335 0.45521
vt 0.55100 0.35890
vt 0.69612 0.45385
vt 0.46427 0.33486
vt 0.54272 0.63027
vt 0.68393 0.53592
vt 0.72321 0.32394
vt 0.94030 0.40204
vt 0.65106 0.60053
vt 0.38796 0.39229
vt 0.50684 0.46859
vt 0.26146 0.59938
vt 0.57769 0.58324
vt 0.39801 0.19463
vt 0.52058 0.63826
vt 0.63398 0.55334
vt 0.36427 0.38028
vt 0.25477 0.24089
vt 0.61384 0.60393
vt 0.41460 0.73507
vt 0.42589 0.30311
vt 0.57311 0.36332
vt 0.56588 0.61496
vt 0.61785 0.61723
vt 0.39815 0.83112
vt 0.30339 0.46520
vt 0.32190 0.55424
vt 0.49143 0.57861
vt 0.67730 0.98785
vt 0.43634 0.32519
vt 0.55785 0.35332
vt 0.04854 0.31077
vt 0.50497 0.51876
vt 0.88490 0.78694
vt 0.58717 0.13148
vt 0.52811 0.28942
vt 0.76955 0.50977
vt 0.49751 0.36377
vt 0.56252 0.41437
vt 0.48692 0.35394
vt 0.58401 0.74705
vt 0.51806 0.75444
vt 0.62865 0.38821
vt 0.86123 0.70897
vt 0.58244 0.22845
vt 0.34202 0.56181
vt 0.02565 0.59787
vt 0.04577 0.42020
vt 0.09452 0.86891
vt 0.89690 0.77376
vt 0.84726 0.33145
vt 0.72118 0.46309
vt 0.52206 0.52148
vt 0.25708 0.82563
vt 0.49478 0.75613
vt 0.33563 0.16006
vt 0.36939 0.49200
vt 0.32117 0.88746
vt 0.52739 0.71596
vt 0.18222 0.88634
vt 0.32420 0.89056
vt 0.56920 0.43017
vt 0.32961 0.34157
vt 0.41637 0.28317
vt 0.49769 0.23414
vt 0.45278 0.44940
vt 0.40946 0.32744
vt 0.53977 0.42086
vt 0.97136 0.31162
vt 0.83870 0.28315
vt 0.66195 0.34856
vt 0.61537 0.62450
vt 0.56681 0.19316
vt 0.63020 0.28112
vt 0.22143 0.49392
vt 0.43502 0.37060
vt 0.81182 0.27704
vt 0.09266 0.42164
vt 0.07960 0.57321
vt 0.86108 0.66837
vt 0.66104 0.61765
vt 0.57629 0.60737
vt 0.59711 0.61642
vt 0.73894 0.52890
vt 0.76716 0.62768
vt 0.53682 0.43620
vt 0.47804 0.33305
vt 0.37210 0.32767
vt 0.52751 0.30820
vt 0.20108 0.46385
vt 0.27371 0.33762
vt 0.72032 0.69776
vt 0.57565 0.39509
vt 0.45884 0.19862
vt 0.68553 0.13987
vt 0.70592 0.10277
vt 0.64800 0.94278
vt 0.47402 0.23973
vt 0.51069 0.62127
vt 0.36142 0.69516
vt 0.75550 0.65003
vt 0.79020 0.95992
vt 0.45290 0.31535
vt 0.56809 0.42072
vt 0.23616 0.49598
vt 0.11186 0.19865
vt 0.68439 0.67478
vt 0.39399 0.34145
vt 0.61641 0.05070
vt 0.60057 0.05931
vt 0.54234 0.06981
vt 0.56298 0.35956
vt 0.75293 0.44466
vt 0.63178 0.32096
vt 0.19145 0.67974
vt 0.04676 0.71046
vt 0.13474 0.41594
vt 0.29768 0.54315
vt 0.56784 0.83777
vt 0.87970 0.69908
vt 0.67076 0.53130
vt 0.69891 0.33307
vt 0.92221 0.64404
vt 0.83880 0.61927
vt 0.39010 0.50759
vt 0.43007 0.37091
vt 0.43502 0.33273
vt 0.66445 0.68431
vt 0.49572 0.75893
vt 0.22211 0.91484
vt 0.40384 0.67878
vt 0.27159 0.79033
vt 0.10645 0.96088
vt 0.10775 0.96443
vt 0.48040 0.41851
vt 0.65904 0.40668
vt 0.54518 0.49912
vt 0.61590 0.29157
vt 0.65503 0.63709
vt 0.59602 0.57563
vt 0.61070 0.57964
vt 0.57871 0.53797
vt 0.72443 0.45751
vt 0.54713 0.30433
vt 0.49998 0.37446
vt 0.26538 0.42921
vt 0.24782 0.51998
vt 0.05236 0.57257
vt 0.57547 0.57164
vt 0.26357 0.50567
vt 0.32113 0.49126
vt 0.56082 0.33818
vt 0.18464 0.48316
vt 0.70482 0.28805
vt 0.54566 0.29806
vt 0.67836 0.65880
vt 0.62634 0.46791
vt 0.71891 0.24055
vt 0.84494 0.15561
vt 0.91212 0.14112
vt 0.94747 0.20501
vt 0.66354 0.23925
vt 0.78213 0.15793
vt 0.76340 0.38696
vt 0.19348 0.17206
vt 0.71985 0.76475
vt 0.08288 0.80702
vt 0.09120 0.74769
vt 0.40072 0.53358
vt 0.58531 0.57195
vt 0.72282 0.38763
vt 0.67287 0.35019
vt 0.59388 0.26085
vt 0.27162 0.22546
vt 0.60357 0.39905
vt 0.05997 0.79131
vt 0.07493 0.76829
vt 0.53228 0.34839
vt 0.60685 0.43953
vt 0.70180 0.33720
vt 0.68668 0.52645
vt 0.51393 0.16906
vt 0.48565 0.19231
vt 0.70974 0.43698
vt 0.77614 0.67262
vt 0.79338 0.55228
vt 0.84468 0.75786
vt 0.24067 0.91016
vt 0.24497 0.89856
vt 0.44628 0.61976
vt 0.24792 0.87633
vt 0.53859 0.76075
vt 0.24540 0.94678
vt 0.44411 0.40260
vt 0.46564 0.50614
vt 0.34097 0.33227
vt 0.62086 0.68752
vt 0.43228 0.78298
vt 0.47234 0.36247
vt 0.35050 0.27556
vt 0.65729 0.57909
vt 0.63799 0.55470
vt 0.51197 0.35295
vt 0.61464 0.63671
vt 0.40991 0.42570
vt 0.32094 0.30815
vt 0.26279 0.53998
vt 0.31101 0.52945
vt 0.45981 0.46379
vt 0.20908 0.49189
vt 0.87281 0.19821
vt 0.27800 0.83854
vt 0.63188 0.70625
vt 0.30214 0.70246
vt 0.87117 0.17533
vt 0.67065 0.33828
vt 0.77877 0.72508
vt 0.40447 0.52099
vt 0.40308 0.49302
vt 0.31195 0.55793
vt 0.50967 0.79557
vt 0.58494 0.82877
vt 0.48329 0.30078
vt 0.35960 0.64978
vt 0.50022 0.60170
vt 0.64510 0.67125
vt 0.74421 0.45385
vt 0.71790 0.45156
vt 0.66363 0.45196
vt 0.67648 0.52245
vt 0.24932 0.29834
vt 0.43073 0.13237
vt 0.43044 0.14520
vt 0.39688 0.19363
vt 0.45643 0.21136
vt 0.46999 0.23316
vt 0.68421 0.39803
vt 0.82699 0.88237
vt 0.81332 0.86754
vt 0.57654 0.83576
vt 0.59111 0.86509
vt 0.52137 0.81415
vt 0.61260 0.82855
vt 0.41428 0.76910
vt 0.39130 0.44754
vt 0.49142 0.46032
vt 0.53970 0.63930
vt 0.37525 0.71771
vt 0.29496 0.41988
vt 0.26922 0.48051
vt 0.29824 0.57226
vt 0.16825 0.71127
vt 0.73426 0.55660
vt 0.33660 0.55951
vt 0.47095 0.59931
vt 0.37718 0.56840
vt 0.87595 0.17244
vt 0.87896 0.15722
vt 0.34555 0.82925
vt 0.09997 0.85403
vt 0.72396 0.29744
vt 0.18395 0.82448
vt 0.25811 0.79668
vt 0.46125 0.52649
vt 0.39353 0.61459
vt 0.42045 0.62988
vt 0.75094 0.40459
vt 0.71781 0.40677
vt 0.65554 0.41299
vt 0.69544 0.49460
vt 0.34803 0.61251
vt 0.17146 0.50227
vt 0.35738 0.56456
vt 0.38344 0.73289
vt 0.47398 0.71172
vt 0.59223 0.75424
vt 0.28276 0.61202
vt 0.23101 0.58395
vt 0.48345 0.77011
vt 0.54708 0.59499
vt 0.42713 0.62539
vt 0.39777 0.59338
vt 0.71988 0.90916
vt 0.71262 0.89515
vt 0.20692 0.73118
vt 0.53289 0.00459
vt 0.27118 0.82000
vt 0.31387 0.59044
vt 0.42580 0.66910
vt 0.53086 0.54217
vt 0.52798 0.00189
vt 0.74401 0.36960
vt 0.71411 0.24990
vt 0.70152 0.25369
vt 0.73649 0.38748
vt 0.70804 0.38247
vt 0.66704 0.38715
vt 0.28725 0.31402
vt 0.45393 0.52214
vt 0.54071 0.60150
vt 0.57694 0.70980
vt 0.26433 0.93871
vt 0.59005 0.73297
vt 0.36131 0.66462
vt 0.17879 0.48061
vt 0.02978 0.48399
vt 0.13721 0.55380
vt 0.09288 0.50680
vt 0.55753 0.83130
vt 0.41239 0.74612
vt 0.44024 0.73846
vt 0.60087 0.81528
vt 0.53795 0.69269
vt 0.54317 0.01600
vt 0.47879 0.96574
vt 0.42853 0.72003
vt 0.45685 0.69627
vt 0.62945 0.47375
vt 0.62696 0.59876
vt 0.62025 0.59906
vt 0.72786 0.12469
vt 0.15542 0.14784
vt 0.44401 0.62312
vt 0.64876 0.67108
vt 0.58546 0.76640
vt 0.55678 0.70017
vt 0.29355 0.94528
vt 0.29739 0.91783
vt 0.55520 0.87816
vt 0.51478 0.87211
vt 0.54909 0.85433
vt 0.34614 0.67738
vt 0.60938 0.91723
vt 0.61869 0.87671
vt 0.51632 0.87661
vn -0.96653 -0.23112 -0.11136
vn -0.94458 0.29418 -0.14570
vn -0.98994 -0.01394 -0.14083
vn -0.98683 0.14239 -0.07670
vn -0.85091 0.45427 -0.26381
vn -0.89319 0.41432 -0.17481
vn -0.87565 0.48264 0.01692
vn -0.06994 0.98871 -0.13253
vn 0.16813 0.88819 -0.42761
vn 0.19752 0.93503 -0.29444
vn 0.09435 0.98783 -0.12365
vn 0.09336 0.99557 0.01157
vn -0.24010 0.71683 -0.65461
vn -0.59010 0.76960 -0.24390
vn -0.67934 0.73082 -0.06638
vn -0.30145 0.88996 -0.34218
vn -0.45394 0.88455 0.10729
vn 0.16812 0.74431 -0.64632
vn 0.04666 0.89522 -0.44318
vn 0.10678 0.95067 -0.29125
vn 0.13175 0.95029 -0.28211
vn 0.22366 0.96945 -0.10070
vn 0.33557 0.93126 0.14195
vn 0.21240 0.97181 -0.10230
vn 0.24557 0.96938 -0.00155
vn -0.36967 0.60547 -0.70480
vn -0.29770 0.84356 -0.44698
vn -0.11903 0.92981 -0.34825
vn -0.30305 0.95293 -0.00942
vn -0.40229 0.90545 0.13535
vn 0.33977 0.70009 -0.62804
vn 0.25749 0.84329 -0.47176
vn 0.35766 0.90408 -0.23392
vn 0.27137 0.94097 -0.20232
vn 0.37210 0.92797 -0.02051
vn 0.46639 0.86040 0.20540
vn 0.34083 0.89286 -0.29434
vn 0.33339 0.91478 -0.22809
vn -0.99829 -0.04451 0.03777
vn -0.97470 -0.11946 0.18893
vn -0.95384 0.21578 -0.20888
vn -0.98112 0.19106 -0.03011
vn -0.94683 0.28607 0.14725
vn -0.77361 0.43332 0.46235
vn -0.01984 0.62518 -0.78023
vn -0.87418 0.37368 -0.31012
vn -0.87257 0.47318 -0.12135
vn -0.82784 0.46459 0.31438
vn -0.68029 0.53339 0.50269
vn 0.02477 0.73501 -0.67761
vn -0.00221 0.82121 -0.57061
vn -0.17767 0.90700 -0.38182
vn -0.38283 0.91057 -0.15590
vn -0.17276 0.96700 0.18728
vn -0.80637 0.28161 -0.52005
vn -0.97721 0.17686 0.11739
vn -0.86705 0.12360 0.48264
vn -0.84409 0.53083 0.07575
vn 0.28783 0.70778 -0.64513
vn 0.42905 0.64432 -0.63306
vn 0.39077 0.67981 -0.62061
vn 0.48532 0.82175 -0.29866
vn 0.41753 0.86496 -0.27842
vn 0.42606 0.87238 -0.23963
vn 0.42643 0.90142 -0.07486
vn 0.31154 0.95007 -0.01740
vn 0.52560 0.62060 -0.58190
vn 0.55846 0.58460 -0.58853
vn 0.51238 0.65937 -0.55018
vn 0.63178 0.58459 -0.50902
vn 0.54377 0.56361 0.62182
vn 0.54504 0.50387 0.67011
vn 0.57752 0.68893 -0.43801
vn 0.59909 0.79796 -0.06596
vn 0.64654 0.73558 0.20226
vn 0.04941 0.60014 -0.79836
vn -0.90398 0.27365 0.32855
vn -0.80971 0.35471 0.46749
vn 0.01921 0.67243 -0.73991
vn 0.00772 0.82962 -0.55827
vn -0.78113 0.55015 -0.29524
vn -0.70497 0.70882 -0.02412
vn -0.72376 0.62806 0.28586
vn -0.49899 0.66401 0.55687
vn -0.01043 0.87348 -0.48675
vn 0.00668 0.99558 -0.09373
vn 0.01920 0.99077 0.13420
vn -0.59872 0.79037 0.12983
vn -0.33392 0.14554 -0.93130
vn -0.59232 0.25833 -0.76317
vn -0.74642 0.24893 0.61716
vn -0.42536 0.70238 -0.57072
vn -0.52244 0.84054 0.14337
vn -0.62724 0.64145 0.44171
vn 0.33732 0.68546 -0.64526
vn 0.56510 0.70599 -0.42690
vn 0.58952 0.56170 -0.58048
vn 0.54835 0.66613 -0.50555
vn 0.60591 0.72611 -0.32501
vn 0.50643 0.74376 -0.43629
vn 0.39053 0.87295 -0.29230
vn 0.48675 0.87342 0.01470
vn -0.13427 0.58229 -0.80181
vn 0.33088 0.91941 -0.21261
vn 0.34308 0.93910 -0.01949
vn -0.44327 0.53063 0.72245
vn -0.20531 0.58110 -0.78751
vn -0.21615 0.70930 -0.67095
vn -0.10371 0.78922 -0.60529
vn -0.09055 0.90162 -0.42294
vn -0.28625 0.57577 0.76586
vn -0.39066 0.73026 0.56046
vn -0.03548 0.92800 -0.37088
vn -0.00742 0.97183 -0.23557
vn -0.33230 0.66916 0.66468
vn 0.25417 0.47008 -0.84524
vn 0.69903 0.57156 -0.42974
vn 0.91262 0.35353 -0.20529
vn 0.70037 0.71371 0.00977
vn -0.17581 0.60918 -0.77330
vn 0.68620 0.59028 -0.42509
vn 0.87534 0.47564 -0.08689
vn 0.72408 0.58731 0.36163
vn -0.07373 0.70112 -0.70922
vn 0.69869 0.63119 -0.33680
vn 0.74888 0.65475 -0.10240
vn 0.73755 0.60205 0.30586
vn 0.15867 0.72813 -0.66682
vn 0.23884 0.80834 -0.53808
vn 0.21720 0.79010 -0.57320
vn -0.11035 0.84766 0.51893
vn 0.18098 0.62429 0.75994
vn 0.18527 0.82686 -0.53102
vn 0.11149 0.98827 -0.10434
vn -0.19009 0.98131 0.02977
vn -0.02597 0.85082 0.52482
vn -0.22105 0.16862 -0.96057
vn 0.01590 0.51778 -0.85537
vn 0.60690 0.48213 -0.63185
vn -0.02695 0.43980 -0.89769
vn -0.09745 0.83708 -0.53833
vn 0.07646 0.98620 0.14687
vn -0.20938 0.81059 0.54691
vn 0.30212 0.94891 0.09110
vn 0.60961 0.68183 -0.40434
vn 0.40690 0.57339 -0.71109
vn -0.02645 0.40267 -0.91496
vn 0.11266 0.70360 -0.70161
vn -0.29090 0.90492 0.31063
vn -0.27975 0.82950 0.48339
vn 0.65558 0.63263 -0.41231
vn 0.52416 0.65517 -0.54406
vn 0.72706 0.62761 -0.27836
vn 0.43933 0.83829 -0.32288
vn 0.59357 0.18138 -0.78407
vn 0.47555 0.73635 -0.48130
vn 0.62079 0.75207 -0.22140
vn 0.49647 0.86591 -0.06100
vn 0.39220 0.89335 -0.21932
vn 0.38521 0.91853 -0.08890
vn 0.64586 0.19174 -0.73898
vn 0.55403 0.45076 -0.69990
vn -0.16221 0.66436 0.72960
vn -0.04208 0.75233 0.65744
vn -0.76642 -0.20026 -0.61033
vn 0.12936 0.59313 -0.79464
vn -0.00165 0.73065 -0.68275
vn 0.16777 0.67457 -0.71889
vn 0.08840 0.87053 -0.48412
vn -0.19382 0.52300 0.83000
vn 0.05595 0.80279 0.59364
vn 0.70460 0.62863 -0.32919
vn 0.60876 0.35969 -0.70713
vn -0.01516 0.74048 -0.67191
vn 0.20517 0.82957 -0.51935
vn 0.05396 0.95205 -0.30114
vn 0.13445 0.97174 -0.19403
vn 0.24181 0.85229 0.46382
vn 0.71776 0.64660 0.25834
vn 0.86205 0.25900 0.43565
vn 0.62520 0.39685 -0.67204
vn 0.19640 0.96159 0.19175
vn 0.26477 0.57623 0.77321
vn 0.65032 0.41684 0.63508
vn 0.65660 0.62012 -0.42933
vn 0.22943 0.63126 -0.74086
vn 0.25434 0.96525 0.06009
vn 0.16838 0.70918 0.68462
vn 0.01492 0.79693 -0.60388
vn 0.10001 0.97406 -0.20297
vn 0.08886 0.96236 0.25686
vn -0.00968 0.81573 0.57836
vn 0.30458 0.84001 -0.44902
vn 0.42393 0.68022 -0.59799
vn 0.34464 0.64297 0.68397
vn 0.40841 0.54441 0.73268
vn 0.45052 0.79564 -0.40495
vn 0.09880 0.64687 -0.75617
vn -0.03717 -0.13473 -0.99019
vn 0.23504 0.94687 0.21952
vn 0.27778 0.81347 0.51099
vn -0.53762 -0.12456 -0.83393
vn 0.55150 0.82809 -0.10056
vn 0.04429 0.68603 -0.72622
vn 0.22334 0.45228 -0.86346
vn 0.08257 0.25863 -0.96244
vn 0.38252 0.54029 0.74951
vn 0.62463 0.61445 -0.48195
vn 0.92593 0.37600 0.03579
vn -0.03970 0.87281 -0.48643
vn 0.16755 0.56091 -0.81074
vn 0.39568 0.62964 -0.66857
vn 0.53105 0.72515 0.43834
vn 0.12581 0.69345 -0.70944
vn 0.12974 0.71371 0.68832
vn -0.20811 0.84520 0.49227
vn 0.58189 0.64219 -0.49899
vn 0.81701 0.53046 -0.22609
vn 0.80732 0.34908 0.47579
vn 0.11977 0.54322 -0.83101
vn 0.38945 0.83729 -0.38376
vn 0.44859 0.77148 0.45120
vn -0.06177 0.94773 0.31303
vn -0.05275 0.81980 0.57021
vn 0.41902 0.18656 0.88860
vn 0.26994 0.77559 -0.57061
vn 0.53080 0.84342 0.08307
vn 0.62702 0.68199 0.37647
vn 0.34693 0.87961 -0.32546
vn 0.39593 0.89192 -0.21845
vn 0.56111 0.78043 0.27583
vn 0.24571 0.40181 0.88214
vn 0.61256 0.33364 -0.71656
vn 0.48833 0.85924 -0.15246
vn 0.07999 0.94343 0.32177
vn 0.76193 0.59213 -0.26237
vn 0.35788 0.44053 -0.82332
vn 0.25408 0.80657 -0.53374
vn 0.24313 0.76075 0.60179
vn 0.19162 0.73605 0.64924
vn 0.90522 0.16991 0.38949
vn 0.48362 0.39688 -0.78013
vn 0.44370 0.62698 -0.64033
vn -0.19990 0.48879 0.84919
vn 0.35649 0.73432 -0.57765
vn 0.55908 0.67733 -0.47817
vn 0.52669 0.82798 0.19249
vn 0.46943 0.75083 0.46463
vn 0.29478 0.70987 0.63968
vn 0.50251 0.51399 0.69520
vn 0.42769 0.65933 0.61835
vn 0.37186 0.35403 -0.85812
vn 0.36936 0.67931 -0.63413
vn 0.48644 0.75497 -0.43977
vn 0.32199 0.92516 -0.20099
vn 0.43700 0.89795 -0.05200
vn 0.50229 0.81798 0.28039
vn 0.53647 0.81910 0.20315
vn 0.38332 0.57175 0.72537
vn 0.93458 0.34890 0.06953
vn 0.51588 0.29520 -0.80419
vn 0.32349 0.42728 -0.84427
vn 0.43266 0.89734 0.08711
vn 0.72539 0.37571 0.57675
vn 0.48883 0.04764 -0.87108
vn 0.43526 0.42955 -0.79123
vn 0.38407 0.57658 -0.72114
vn 0.72601 0.68608 0.04693
vn 0.54093 0.77231 0.33306
vn 0.29766 0.28041 -0.91256
vn 0.32628 0.71487 -0.61847
vn 0.42660 0.87494 -0.22909
vn 0.37541 0.89747 0.23157
vn 0.25591 0.51781 -0.81632
vn 0.26068 0.67382 -0.69138
vn -0.92922 -0.21406 -0.30121
vn -0.75239 -0.50175 0.42680
vn -0.52561 -0.49945 -0.68868
vn -0.07441 0.65189 0.75465
vn -0.16743 0.80744 -0.56570
vn 0.11325 -0.75506 0.64580
vn 0.52080 0.79083 0.32149
vn 0.08032 0.78926 0.60879
vn -0.21720 -0.26164 -0.94041
vn 0.31543 0.76274 -0.56457
vn 0.26278 -0.65213 0.71110
vn 0.61243 0.77623 -0.14962
vn -0.02324 0.84085 0.54078
vn -0.65897 0.42699 -0.61923
vn 0.62312 0.36080 -0.69393
vn 0.13720 0.47273 -0.87046
vn 0.08720 0.65750 -0.74840
vn 0.69732 0.62293 -0.35456
vn 0.62688 0.58268 -0.51721
vn 0.52981 0.28686 0.79813
vn 0.36007 0.56059 -0.74571
vn 0.16878 0.25513 -0.95206
vn 0.27195 -0.05613 0.96067
vn 0.23005 0.75978 -0.60812
vn 0.89201 0.44253 0.09210
vn 0.10835 0.17172 -0.97917
vn 0.26799 0.39682 0.87790
vn 0.80028 0.31262 0.51169
vn 0.65255 0.40315 -0.64159
vn 0.58414 0.78170 0.21845
vn 0.86431 0.42842 0.26350
vn 0.07878 0.93813 -0.33721
vn 0.04777 0.95972 0.27688
vn 0.20199 0.84487 0.49538
vn -0.87489 0.16737 0.45448
vn 0.67453 0.72981 0.11133
vn 0.73782 0.61614 0.27568
vn 0.30450 0.63524 0.70976
vn 0.11884 0.95433 0.27412
vn 0.37929 0.92457 -0.03627
vn 0.89068 0.43018 0.14709
vn 0.85242 0.47341 -0.22194
vn 0.32541 0.59963 -0.73113
vn -0.98038 0.00352 0.19710
vn -0.86806 0.08091 0.48982
vn 0.55014 0.75249 -0.36209
vn 0.40127 0.81853 0.41109
vn 0.45474 0.66076 0.59717
vn -0.31363 0.70906 0.63156
vn -0.62172 0.76595 0.16367
vn 0.77985 0.59705 0.18805
vn 0.28963 0.58133 -0.76037
vn 0.23858 0.70813 -0.66456
vn -0.87508 0.45628 0.16141
vn -0.81954 0.32731 0.47034
vn 0.42024 0.84064 -0.34164
vn 0.44687 0.89375 -0.03896
vn 0.48192 0.84369 0.23651
vn 0.97561 -0.21766 0.02845
vn 0.82064 0.10930 -0.56090
vn 0.88899 -0.00369 -0.45791
vn 0.01170 0.86896 -0.49475
vn -0.88779 0.40412 0.22027
vn 0.98926 0.14101 0.03857
vn 0.94060 0.21673 0.26136
vn 0.47851 0.56568 0.67159
vn 0.84791 0.19717 -0.49211
vn 0.83357 0.39610 -0.38505
vn 0.84993 0.49300 -0.18594
vn 0.10456 0.02418 0.99423
vn 0.88111 0.33936 -0.32935
vn 0.97514 0.21887 -0.03471
vn 0.81320 0.57450 0.09301
vn 0.66754 0.66105 0.34264
vn 0.30755 0.76847 0.56114
vn 0.24148 0.35050 0.90490
vn 0.66762 0.43274 -0.60582
vn 0.89235 0.36559 -0.26466
vn -0.05749 0.33101 0.94187
vn -0.76664 0.28504 -0.57535
vn -0.82636 0.28632 -0.48492
vn 0.80783 0.49009 -0.32745
vn 0.66371 0.74739 -0.02993
vn 0.67304 0.67213 0.30864
vn 0.86514 0.38387 0.32277
vn 0.74355 0.40203 0.53433
vn 0.41989 0.53158 -0.73561
vn 0.66728 0.72241 -0.18128
vn -0.14868 0.88453 0.44215
vn -0.06960 0.75208 0.65538
vn -0.79386 0.36658 -0.48520
vn 0.78853 0.60202 0.12568
vn 0.26299 0.53477 -0.80303
vn 0.45247 0.49943 -0.73881
vn -0.79912 0.52175 -0.29863
vn -0.71799 0.65469 -0.23640
vn 0.38457 0.07259 -0.92024
vn 0.58285 -0.15761 -0.79715
vn 0.53362 0.47120 -0.70230
vn 0.70155 0.69250 -0.16811
vn 0.66440 0.71776 0.20832
vn 0.43698 0.23837 -0.86731
vn 0.75877 0.23381 -0.60795
vn 0.57457 0.80624 -0.14089
vn 0.53675 0.84183 0.05681
vn 0.48478 0.67212 -0.55968
vn 0.18479 0.00652 -0.98276
vn 0.16372 0.10369 0.98104
vn -0.91885 0.19502 -0.34304
vn 0.65127 0.74862 -0.12418
vn -0.16881 0.93922 -0.29894
vn -0.54225 -0.13403 -0.82946
vn 0.05778 0.99689 -0.05353
vn 0.53782 0.78804 0.29956
vn 0.44699 0.52247 -0.72610
vn -0.94719 -0.21555 0.23741
vn 0.24104 -0.66344 -0.70835
vn 0.73471 0.63839 0.22948
vn 0.88380 -0.39687 0.24779
vn 0.79824 0.25358 -0.54636
vn -0.06287 0.75026 -0.65814
vn 0.08000 0.76091 -0.64391
vn 0.48884 0.58157 0.65024
vn 0.34554 0.51720 0.78301
vn -0.60987 -0.73555 -0.29499
vn -0.76863 0.52503 -0.36544
vn -0.88931 0.41123 -0.20003
vn -0.61943 0.50767 0.59881
vn 0.57408 0.33268 -0.74817
vn 0.41782 0.13497 -0.89845
vn 0.97705 0.12075 0.17550
vn 0.46662 0.79563 -0.38631
vn 0.52821 0.80491 0.27040
vn 0.33092 0.74864 0.57449
vn 0.26091 0.63972 0.72297
vn 0.13380 0.71574 0.68543
vn 0.41394 0.90896 -0.04950
vn 0.40381 0.52240 0.75102
vn 0.28051 0.49237 0.82394
vn 0.49986 0.72250 -0.47764
vn -0.23284 0.97093 0.05556
vn 0.34039 0.88137 -0.32759
vn 0.50789 0.85770 0.07997
vn -0.90895 0.35678 0.21569
vn -0.77444 0.49600 0.39272
vn 0.61120 0.70769 0.35442
vn 0.55222 0.61558 0.56224
vn 0.07776 0.57619 -0.81361
vn 0.58435 0.45725 -0.67042
vn -0.65917 0.12419 0.74167
vn -0.69001 0.21970 0.68966
vn 0.47777 0.81988 -0.31550
vn 0.56322 0.81943 -0.10641
vn 0.58145 0.66337 0.47101
vn -0.68643 0.26552 -0.67699
vn -0.82111 0.14950 0.55084
vn 0.61616 0.45428 -0.64341
vn 0.58502 0.50605 -0.63377
vn -0.95862 -0.22090 0.17960
vn -0.80599 0.39170 0.44380
vn -0.56257 0.39068 0.72862
vn -0.74346 0.66680 -0.05141
vn -0.80617 0.59031 0.04019
vn -0.58941 0.61822 0.52000
vn -0.70217 0.70313 -0.11211
vn 0.24892 0.67236 -0.69712
vn 0.49514 0.83426 0.24257
vn -0.78981 0.59865 0.13350
vn -0.58749 0.66657 0.45885
vn -0.55061 0.82718 0.11231
vn 0.15047 0.03072 0.98814
vn -0.43111 0.13677 -0.89188
vn 0.24709 0.89572 -0.36963
vn 0.09366 0.95615 0.27750
vn 0.14715 0.85613 0.49537
vn -0.44412 0.88602 0.13311
vn 0.15191 0.52611 0.83674
vn -0.56827 0.19017 -0.80056
vn -0.09557 0.95750 0.27215
vn -0.52880 0.35109 -0.77272
vn -0.70044 0.30542 -0.64506
vn 0.75730 0.41779 -0.50194
vn -0.37870 0.53630 -0.75430
vn -0.50924 0.67269 -0.53681
vn -0.76270 0.63079 -0.14281
vn 0.59362 0.64582 -0.48014
vn 0.75123 0.61782 -0.23228
vn -0.75285 0.62966 -0.19169
vn 0.97518 0.21292 -0.06072
vn 0.82778 0.37779 0.41479
vn 0.31359 0.47467 -0.82240
vn 0.99989 -0.01420 0.00480
vn -0.17465 0.78849 -0.58974
vn 0.14430 0.83903 0.52461
vn 0.88112 0.32805 -0.34059
vn 0.13969 0.58869 0.79619
vn 0.48304 0.29618 -0.82399
vn 0.35893 0.65067 -0.66918
vn 0.33158 0.87847 -0.34400
vn 0.22848 0.87168 0.43356
vn 0.20429 0.78818 0.58055
vn -0.07674 0.79667 -0.59953
vn -0.56487 0.78373 -0.25822
vn -0.76852 0.60341 -0.21276
vn -0.47240 0.54904 0.68948
vn -0.43015 0.60551 0.66957
vn 0.74884 0.50948 -0.42388
vn 0.72787 0.67987 0.08930
vn 0.50428 0.83546 -0.21843
vn 0.58914 0.78828 0.17757
vn 0.63506 0.68861 0.35003
vn -0.63893 0.76014 0.11816
vn -0.68462 0.71880 -0.12095
vn -0.63104 0.76580 -0.12384
vn -0.70298 0.70253 -0.11079
vn -0.46719 0.87283 0.14108
vn -0.32530 0.83083 0.45155
vn -0.61655 0.40551 -0.67485
vn -0.60341 0.77568 0.18500
vn -0.60566 0.74134 0.28912
vn -0.55135 0.67362 -0.49219
vn -0.59144 0.75207 -0.29085
vn -0.65805 0.74945 -0.07282
vn -0.17402 0.37153 0.91197
vn -0.22649 0.75497 -0.61541
vn 0.78147 0.38655 -0.48978
vn 0.85410 0.52004 0.00789
vn -0.08875 0.45493 0.88609
vn -0.53853 0.54528 0.64239
vn 0.45590 0.79652 -0.39714
vn 0.14690 0.73979 -0.65661
vn 0.36741 0.73359 -0.57171
vn 0.03829 0.79953 0.59940
vn -0.07994 0.69898 0.71066
vn -0.08176 0.61240 0.78631
vn -0.50510 0.83119 -0.23237
vn -0.47669 0.87907 -0.00260
vn -0.43976 0.89753 -0.03249
vn -0.51051 0.76761 0.38750
vn -0.72077 0.64306 0.25879
vn -0.58683 0.28168 -0.75914
vn 0.30937 0.87933 -0.36203
vn 0.18797 0.96310 0.19263
vn 0.06637 0.93779 0.34080
vn -0.11607 0.96238 0.24565
vn -0.07262 0.86200 0.50167
vn 0.19380 0.54681 0.81452
vn -0.41793 0.88518 -0.20441
vn -0.33941 0.28414 -0.89670
vn 0.13546 0.94492 -0.29797
vn 0.10889 0.97224 0.20712
vn -0.32762 0.35202 -0.87678
vn -0.36301 0.49970 -0.78646
vn -0.50266 0.59599 -0.62620
vn -0.46175 0.75429 -0.46673
vn -0.60213 0.78882 -0.12332
vn 0.87078 0.15627 -0.46618
vn 0.69168 0.44388 -0.56969
vn 0.90304 0.42369 -0.07080
vn 0.32165 0.39879 0.85878
vn 0.32046 0.38209 0.86678
vn 0.62588 0.62829 -0.46209
vn 0.56801 0.80508 0.17092
vn 0.28644 0.66560 0.68915
vn 0.13649 0.69126 -0.70960
vn 0.46461 0.78164 -0.41614
vn 0.53385 0.78672 -0.30997
vn 0.49456 0.86415 -0.09306
vn 0.50283 0.84626 0.17607
vn 0.47432 0.79516 0.37781
vn 0.39860 0.70199 0.59019
vn 0.12581 0.73640 -0.66474
vn 0.01788 0.82810 -0.56029
vn 0.13389 0.88414 -0.44762
vn -0.37230 0.64980 0.66269
vn 0.52519 0.84958 0.04890
vn 0.11135 0.92360 -0.36682
vn -0.01490 0.98248 -0.18580
vn -0.12368 0.99228 -0.00936
vn -0.18982 0.87671 0.44198
vn -0.36737 0.54752 -0.75184
vn -0.38241 0.51878 -0.76461
vn -0.48951 0.87199 0.00349
vn -0.53910 0.78707 0.29983
vn -0.33120 0.67515 -0.65915
vn -0.52838 0.78103 -0.33287
vn -0.71813 0.68525 -0.12134
vn 0.49276 -0.17428 0.85254
vn -0.50650 0.79139 -0.34228
vn -0.50152 0.83180 -0.23786
vn 0.47719 0.09867 0.87324
vn 0.43819 0.15942 0.88463
vn 0.24364 0.68018 -0.69137
vn 0.22279 0.93824 -0.26472
vn 0.37130 0.87881 0.29970
vn 0.43037 0.53546 0.72668
vn 0.07076 0.71819 0.69224
vn -0.08307 0.98187 -0.17036
vn -0.12938 0.99056 -0.04526
vn -0.28897 0.95567 -0.05650
vn -0.29238 0.78238 0.54990
vn 0.26458 0.76918 0.58169
vn 0.22759 0.93526 -0.27109
vn 0.27252 0.96184 -0.02446
vn 0.43092 0.66626 0.60861
vn 0.31496 0.90158 0.29658
vn -0.21360 0.30250 -0.92891
vn 0.30334 0.92773 0.21747
vn -0.07754 0.47144 -0.87849
vn -0.01741 0.49084 -0.87108
vn -0.27090 0.65381 -0.70651
vn -0.15133 0.81288 -0.56243
vn -0.25731 0.94846 -0.18497
vn -0.11480 0.99016 -0.08003
vn 0.94616 -0.00781 -0.32361
vn 0.92309 0.25707 -0.28604
vn 0.57006 0.13311 0.81075
vn 0.92193 0.34765 -0.17084
vn 0.63701 0.29146 0.71363
vn 0.51161 0.20653 0.83403
vn 0.62628 0.71342 -0.31434
vn 0.61460 0.78778 -0.04081
vn 0.47269 0.77678 0.41614
vn 0.55081 0.74005 0.38592
vn 0.56298 0.62628 0.53928
vn 0.09253 0.75436 -0.64990
vn 0.53168 0.60802 -0.58960
vn 0.49390 0.76189 -0.41902
vn 0.52479 0.84752 -0.07938
vn 0.48799 0.81352 0.31631
vn 0.49841 0.81571 0.29360
vn 0.34900 0.68900 -0.63520
vn 0.43214 0.71543 -0.54902
vn 0.26948 0.89922 -0.34464
vn 0.20099 0.92526 -0.32170
vn 0.09663 0.99127 -0.08968
vn 0.05466 0.90476 0.42239
vn -0.11193 0.34274 -0.93274
vn -0.01925 0.94911 -0.31437
vn -0.28703 0.92292 0.25658
vn -0.30446 0.78494 0.53960
vn 0.08510 0.33460 -0.93851
vn -0.11349 0.67211 -0.73170
vn -0.13940 0.97862 0.15120
vn -0.19178 0.90603 -0.37726
vn -0.16646 0.97382 -0.15481
vn -0.03007 0.97890 0.20211
vn 0.84752 0.40757 0.33999
vn 0.66373 0.10238 0.74093
vn 0.46325 0.61303 -0.64000
vn 0.62113 0.72068 -0.30792
vn 0.71751 0.66778 0.19812
vn 0.62444 0.38067 0.68203
vn 0.06481 0.98807 -0.13971
vn 0.06516 0.98698 -0.14703
vn 0.05639 0.96469 -0.25727
vn -0.04104 0.92728 0.37210
vn 0.53995 0.65223 0.53203
vn 0.12648 0.15900 -0.97914
vn 0.16313 0.25731 -0.95246
vn 0.26565 0.29480 -0.91789
vn 0.34348 0.50857 -0.78954
vn 0.32787 0.54151 -0.77413
vn 0.30620 0.74904 -0.58751
vn 0.11595 0.93836 -0.32565
vn 0.01781 0.99457 -0.10257
vn 0.76583 0.11403 0.63285
vn 0.68897 -0.11121 0.71620
vn 0.74148 0.37707 0.55500
vn 0.66469 0.37465 0.64639
vn 0.30993 0.54993 -0.77557
vn 0.66637 0.74143 -0.07899
vn 0.62189 0.77233 0.12946
vn 0.60339 0.70998 0.36310
vn 0.19264 0.66418 -0.72233
vn 0.33908 0.76805 -0.54325
vn 0.37577 0.80018 -0.46745
vn 0.37161 0.84673 -0.38072
vn 0.45891 0.80882 -0.36771
vn 0.67257 0.21837 -0.70708
vn 0.31691 0.87143 -0.37441
vn 0.44814 0.87660 -0.17533
vn 0.44202 0.84538 0.29992
vn 0.12411 0.38133 -0.91607
vn 0.23659 0.36804 -0.89921
vn 0.48132 0.66346 -0.57285
vn 0.44700 0.89405 -0.02937
vn 0.16911 0.51440 -0.84071
vn 0.06875 0.99349 0.09089
vn -0.07710 0.80582 -0.58712
vn -0.10035 0.92425 -0.36836
vn 0.13541 0.99020 0.03408
vn 0.12356 0.97935 0.16000
vn 0.28883 0.92404 -0.25046
vn 0.30027 0.93998 -0.16210
vn 0.32285 0.94157 -0.09596
vn 0.28371 0.92912 0.23716
vn 0.52175 0.36360 -0.77173
vn 0.78262 0.52510 0.33432
vn 0.40944 0.57017 -0.71222
vn 0.26341 0.77062 -0.58030
vn 0.42872 0.73983 -0.51851
vn 0.56781 0.72491 -0.39000
vn 0.45327 0.81522 -0.36050
vn 0.55202 0.76964 -0.32083
vn 0.58226 0.77488 -0.24603
vn 0.85632 0.09940 -0.50679
vn 0.44731 0.89101 -0.07753
vn 0.59382 0.80063 0.07980
vn 0.81059 0.45616 -0.36725
vn 0.81744 0.57428 -0.04465
vn 0.34373 0.60380 -0.71922
vn 0.50549 0.66137 0.55414
vn 0.18089 0.77245 -0.60876
vn 0.39534 0.82824 -0.39714
vn 0.24044 0.96725 -0.08128
vn 0.44017 0.82853 0.34611
vn 0.44011 0.71967 0.53701
vn 0.46979 0.85988 -0.19975
vn 0.63590 0.77094 -0.03584
vn 0.64713 0.76156 0.03527
vn 0.38824 0.90504 -0.17367
vn 0.43003 0.89327 -0.13092
vn 0.50000 0.86461 -0.04948
vn 0.75565 0.00914 -0.65492
vn 0.68246 0.31821 -0.65802
vn 0.63058 0.50807 -0.58671
vn 0.72582 0.51520 -0.45579
vn 0.83902 0.36861 -0.40021
vn 0.60242 0.68802 -0.40461
vn 0.67285 0.71230 -0.19975
vn 0.69978 0.68071 -0.21669
vn 0.81004 0.45484 -0.37009
vn 0.66620 0.61637 -0.41984
vn 0.72151 0.64758 -0.24507
vn 0.58491 0.36801 0.72281
vn 0.45626 0.71556 -0.52896
vn 0.43724 0.75804 -0.48394
vn 0.64590 0.71840 0.25830
vn 0.65045 0.53457 0.53958
vn 0.74365 0.52374 0.41555
vn 0.87608 0.47497 -0.08295
vn 0.41899 0.74510 -0.51892
vn 0.48554 0.87315 -0.04298
vn 0.56689 0.73548 0.37109
vn 0.65208 0.74124 -0.15924
vn 0.71276 0.69830 0.06592
vn 0.71849 0.69209 -0.06920
vn 0.84128 -0.12326 -0.52637
vn 0.90723 0.04458 -0.41827
vn 0.94064 0.23981 -0.24018
vn 0.94525 0.13945 -0.29504
vn 0.83848 0.50777 -0.19777
vn 0.93179 0.27364 -0.23851
vn 0.84746 0.51729 -0.11928
vn 0.76164 -0.12901 0.63503
vn 0.85118 0.32129 0.41505
vn 0.74780 0.12571 0.65192
vn 0.64674 0.69009 -0.32480
vn 0.75898 0.64295 0.10274
vn 0.68764 0.57500 0.44331
vn 0.84869 0.28903 0.44293
usemtl lingcao_ninglu_mature_mat
s off
f 592/592/592 643/643/643 645/645/645
f 645/645/645 594/594/594 592/592/592
f 674/674/674 649/649/649 644/644/644
f 645/645/645 644/644/644 649/649/649
f 732/732/732 736/736/736 733/733/733
f 715/715/715 733/733/733 736/736/736
f 736/736/736 732/732/732 735/735/735
f 715/715/715 711/711/711 733/733/733
f 715/715/715 720/720/720 692/692/692
f 720/720/720 714/714/714 719/719/719
f 715/715/715 688/688/688 716/716/716
f 688/688/688 715/715/715 692/692/692
f 719/719/719 692/692/692 720/720/720
f 691/691/691 668/668/668 692/692/692
f 692/692/692 719/719/719 691/691/691
f 668/668/668 691/691/691 667/667/667
f 691/691/691 690/690/690 667/667/667
f 649/649/649 594/594/594 645/645/645
f 594/594/594 536/536/536 595/595/595
f 536/536/536 594/594/594 535/535/535
f 539/539/539 535/535/535 594/594/594
f 600/600/600 539/539/539 594/594/594
f 545/545/545 546/546/546 539/539/539
f 546/546/546 471/471/471 539/539/539
f 476/476/476 471/471/471 546/546/546
f 475/475/475 476/476/476 545/545/545
f 648/648/648 598/598/598 605/605/605
f 647/647/647 598/598/598 648/648/648
f 598/598/598 647/647/647 597/597/597
f 597/597/597 605/605/605 598/598/598
f 485/485/485 475/475/475 544/544/544
f 551/551/551 485/485/485 544/544/544
f 485/485/485 486/486/486 475/475/475
f 604/604/604 603/603/603 542/542/542
f 627/627/627 628/628/628 624/624/624
f 566/566/566 624/624/624 628/628/628
f 566/566/566 563/563/563 624/624/624
f 409/409/409 410/410/410 398/398/398
f 571/571/571 567/567/567 566/566/566
f 621/621/621 622/622/622 668/668/668
f 620/620/620 621/621/621 667/667/667
f 409/409/409 486/486/486 408/408/408
f 486/486/486 485/485/485 408/408/408
f 418/418/418 408/408/408 485/485/485
f 484/484/484 418/418/418 485/485/485
f 441/441/441 432/432/432 500/500/500
f 433/433/433 432/432/432 328/328/328
f 433/433/433 328/328/328 337/337/337
f 719/719/719 734/734/734 713/713/713
f 690/690/690 718/718/718 713/713/713
f 712/712/712 690/690/690 713/713/713
f 690/690/690 712/712/712 687/687/687
f 667/667/667 666/666/666 620/620/620
f 690/690/690 689/689/689 665/665/665
f 665/665/665 689/689/689 687/687/687
f 665/665/665 663/663/663 618/618/618
f 647/647/647 597/597/597 604/604/604
f 543/543/543 542/542/542 474/474/474
f 542/542/542 603/603/603 596/596/596
f 397/397/397 406/406/406 474/474/474
f 472/472/472 396/396/396 473/473/473
f 564/564/564 565/565/565 621/621/621
f 621/621/621 620/620/620 564/564/564
f 564/564/564 620/620/620 560/560/560
f 560/560/560 561/561/561 564/564/564
f 298/298/298 299/299/299 406/406/406
f 482/482/482 406/406/406 483/483/483
f 482/482/482 416/416/416 406/406/406
f 416/416/416 482/482/482 415/415/415
f 561/561/561 497/497/497 562/562/562
f 561/561/561 562/562/562 565/565/565
f 565/565/565 564/564/564 561/561/561
f 416/416/416 423/423/423 497/497/497
f 556/556/556 560/560/560 557/557/557
f 550/550/550 556/556/556 481/481/481
f 555/555/555 481/481/481 556/556/556
f 481/481/481 555/555/555 492/492/492
f 659/659/659 663/663/663 660/660/660
f 304/304/304 305/305/305 415/415/415
f 405/405/405 404/404/404 296/296/296
f 415/415/415 296/296/296 304/304/304
f 404/404/404 395/395/395 290/290/290
f 404/404/404 290/290/290 296/296/296
f 431/431/431 438/438/438 325/325/325
f 570/570/570 579/579/579 518/518/518
f 518/518/518 508/508/508 570/570/570
f 518/518/518 519/519/519 508/508/508
f 450/450/450 518/518/518 449/449/449
f 518/518/518 517/517/517 448/448/448
f 448/448/448 449/449/449 518/518/518
f 637/637/637 636/636/636 585/585/585
f 584/584/584 636/636/636 635/635/635
f 582/582/582 584/584/584 635/635/635
f 581/581/581 582/582/582 635/635/635
f 635/635/635 634/634/634 581/581/581
f 581/581/581 523/523/523 582/582/582
f 528/528/528 586/586/586 585/585/585
f 441/441/441 506/506/506 507/507/507
f 506/506/506 517/517/517 507/507/507
f 506/506/506 448/448/448 517/517/517
f 448/448/448 506/506/506 441/441/441
f 370/370/370 371/371/371 459/459/459
f 366/366/366 370/370/370 459/459/459
f 459/459/459 455/455/455 366/366/366
f 366/366/366 455/455/455 456/456/456
f 459/459/459 530/530/530 529/529/529
f 458/458/458 528/528/528 455/455/455
f 455/455/455 356/356/356 366/366/366
f 641/641/641 640/640/640 589/589/589
f 588/588/588 589/589/589 640/640/640
f 530/530/530 459/459/459 463/463/463
f 460/460/460 463/463/463 459/459/459
f 585/585/585 639/639/639 638/638/638
f 585/585/585 587/587/587 639/639/639
f 638/638/638 637/637/637 585/585/585
f 585/585/585 586/586/586 587/587/587
f 698/698/698 694/694/694 697/697/697
f 581/581/581 577/577/577 515/515/515
f 526/526/526 522/522/522 580/580/580
f 523/523/523 515/515/515 581/581/581
f 515/515/515 523/523/523 452/452/452
f 446/446/446 452/452/452 345/345/345
f 354/354/354 345/345/345 452/452/452
f 452/452/452 526/526/526 454/454/454
f 452/452/452 454/454/454 365/365/365
f 364/364/364 365/365/365 454/454/454
f 525/525/525 526/526/526 583/583/583
f 632/632/632 631/631/631 575/575/575
f 671/671/671 632/632/632 672/672/672
f 632/632/632 671/671/671 631/631/631
f 576/576/576 575/575/575 514/514/514
f 513/513/513 514/514/514 575/575/575
f 439/439/439 504/504/504 514/514/514
f 445/445/445 439/439/439 514/514/514
f 514/514/514 513/513/513 445/445/445
f 439/439/439 445/445/445 438/438/438
f 513/513/513 512/512/512 437/437/437
f 457/457/457 368/368/368 369/369/369
f 374/374/374 461/461/461 457/457/457
f 86/86/86 133/133/133 85/85/85
f 27/27/27 28/28/28 52/52/52
f 128/128/128 80/80/80 129/129/129
f 50/50/50 27/27/27 51/51/51
f 26/26/26 50/50/50 45/45/45
f 204/204/204 307/307/307 299/299/299
f 299/299/299 298/298/298 204/204/204
f 204/204/204 210/210/210 307/307/307
f 298/298/298 198/198/198 204/204/204
f 133/133/133 86/86/86 134/134/134
f 328/328/328 317/317/317 327/327/327
f 317/317/317 228/228/228 219/219/219
f 326/326/326 228/228/228 317/317/317
f 317/317/317 316/316/316 326/326/326
f 228/228/228 326/326/326 227/227/227
f 228/228/228 227/227/227 152/152/152
f 152/152/152 153/153/153 228/228/228
f 156/156/156 157/157/157 152/152/152
f 29/29/29 30/30/30 54/54/54
f 53/53/53 29/29/29 54/54/54
f 218/218/218 209/209/209 208/208/208
f 218/218/218 208/208/208 217/217/217
f 208/208/208 207/207/207 139/139/139
f 315/315/315 326/326/326 316/316/316
f 326/326/326 315/315/315 325/325/325
f 146/146/146 152/152/152 218/218/218
f 145/145/145 146/146/146 218/218/218
f 100/100/100 156/156/156 152/152/152
f 324/324/324 315/315/315 325/325/325
f 145/145/145 139/139/139 144/144/144
f 156/156/156 100/100/100 101/101/101
f 98/98/98 97/97/97 99/99/99
f 99/99/99 100/100/100 98/98/98
f 62/62/62 99/99/99 61/61/61
f 96/96/96 144/144/144 95/95/95
f 97/97/97 60/60/60 61/61/61
f 59/59/59 61/61/61 60/60/60
f 30/30/30 29/29/29 17/17/17
f 27/27/27 16/16/16 28/28/28
f 17/17/17 7/7/7 15/15/15
f 13/13/13 6/6/6 14/14/14
f 4/4/4 7/7/7 6/6/6
f 5/5/5 2/2/2 6/6/6
f 6/6/6 13/13/13 5/5/5
f 66/66/66 65/65/65 35/35/35
f 22/22/22 23/23/23 36/36/36
f 35/35/35 22/22/22 24/24/24
f 23/23/23 22/22/22 11/11/11
f 24/24/24 11/11/11 22/22/22
f 11/11/11 12/12/12 25/25/25
f 174/174/174 175/175/175 254/254/254
f 167/167/167 174/174/174 253/253/253
f 102/102/102 158/158/158 101/101/101
f 158/158/158 157/157/157 101/101/101
f 156/156/156 101/101/101 157/157/157
f 342/342/342 343/343/343 336/336/336
f 343/343/343 342/342/342 335/335/335
f 336/336/336 335/335/335 342/342/342
f 342/342/342 335/335/335 237/237/237
f 353/353/353 343/343/343 243/243/243
f 243/243/243 343/343/343 238/238/238
f 237/237/237 243/243/243 238/238/238
f 243/243/243 237/237/237 242/242/242
f 166/166/166 243/243/243 242/242/242
f 242/242/242 162/162/162 166/166/166
f 166/166/166 167/167/167 243/243/243
f 237/237/237 335/335/335 233/233/233
f 233/233/233 155/155/155 162/162/162
f 166/166/166 107/107/107 167/167/167
f 107/107/107 108/108/108 167/167/167
f 262/262/262 261/261/261 266/266/266
f 173/173/173 252/252/252 242/242/242
f 181/181/181 172/172/172 180/180/180
f 376/376/376 375/375/375 379/379/379
f 380/380/380 379/379/379 272/272/272
f 190/190/190 191/191/191 273/273/273
f 272/272/272 374/374/374 267/267/267
f 190/190/190 271/271/271 189/189/189
f 271/271/271 186/186/186 189/189/189
f 267/267/267 374/374/374 369/369/369
f 373/373/373 372/372/372 377/377/377
f 119/119/119 185/185/185 181/181/181
f 274/274/274 275/275/275 381/381/381
f 381/381/381 270/270/270 274/274/274
f 120/120/120 186/186/186 119/119/119
f 189/189/189 186/186/186 124/124/124
f 120/120/120 124/124/124 186/186/186
f 72/72/72 71/71/71 123/123/123
f 180/180/180 185/185/185 181/181/181
f 184/184/184 123/123/123 185/185/185
f 123/123/123 184/184/184 122/122/122
f 119/119/119 185/185/185 123/123/123
f 126/126/126 127/127/127 123/123/123
f 126/126/126 75/75/75 127/127/127
f 75/75/75 126/126/126 74/74/74
f 33/33/33 32/32/32 19/19/19
f 19/19/19 20/20/20 33/33/33
f 728/728/728 730/730/730 729/729/729
f 730/730/730 728/728/728 704/704/704
f 730/730/730 704/704/704 706/706/706
f 730/730/730 706/706/706 707/707/707
f 678/678/678 705/705/705 677/677/677
f 706/706/706 709/709/709 707/707/707
f 706/706/706 680/680/680 709/709/709
f 680/680/680 706/706/706 679/679/679
f 684/684/684 681/681/681 683/683/683
f 680/680/680 681/681/681 710/710/710
f 710/710/710 709/709/709 680/680/680
f 681/681/681 680/680/680 654/654/654
f 656/656/656 611/611/611 657/657/657
f 611/611/611 656/656/656 610/610/610
f 721/721/721 722/722/722 717/717/717
f 534/534/534 593/593/593 533/533/533
f 593/593/593 591/591/591 533/533/533
f 533/533/533 538/538/538 534/534/534
f 538/538/538 537/537/537 468/468/468
f 537/537/537 533/533/533 466/466/466
f 466/466/466 468/468/468 537/537/537
f 612/612/612 658/658/658 611/611/611
f 611/611/611 554/554/554 555/555/555
f 491/491/491 554/554/554 490/490/490
f 413/413/413 490/490/490 401/401/401
f 313/313/313 302/302/302 413/413/413
f 413/413/413 422/422/422 313/313/313
f 323/323/323 324/324/324 429/429/429
f 333/333/333 323/323/323 429/429/429
f 429/429/429 428/428/428 333/333/333
f 489/489/489 490/490/490 552/552/552
f 608/608/608 549/549/549 609/609/609
f 549/549/549 608/608/608 548/548/548
f 478/478/478 489/489/489 552/552/552
f 477/477/477 478/478/478 552/552/552
f 490/490/490 489/489/489 478/478/478
f 293/293/293 294/294/294 400/400/400
f 294/294/294 301/301/301 300/300/300
f 293/293/293 301/301/301 294/294/294
f 331/331/331 332/332/332 321/321/321
f 725/725/725 724/724/724 700/700/700
f 677/677/677 675/675/675 676/676/676
f 650/650/650 676/676/676 675/675/675
f 650/650/650 601/601/601 651/651/651
f 702/702/702 701/701/701 675/675/675
f 701/701/701 673/673/673 675/675/675
f 675/675/675 646/646/646 650/650/650
f 685/685/685 655/655/655 661/661/661
f 651/651/651 602/602/602 608/608/608
f 602/602/602 601/601/601 607/607/607
f 540/540/540 547/547/547 607/607/607
f 607/607/607 601/601/601 540/540/540
f 664/664/664 615/615/615 619/619/619
f 614/614/614 615/615/615 664/664/664
f 495/495/495 559/559/559 488/488/488
f 488/488/488 495/495/495 487/487/487
f 293/293/293 300/300/300 412/412/412
f 399/399/399 412/412/412 293/293/293
f 426/426/426 494/494/494 499/499/499
f 419/419/419 494/494/494 426/426/426
f 503/503/503 426/426/426 499/499/499
f 426/426/426 503/503/503 436/436/436
f 411/411/411 419/419/419 311/311/311
f 311/311/311 300/300/300 411/411/411
f 310/310/310 311/311/311 419/419/419
f 419/419/419 425/425/425 310/310/310
f 436/436/436 435/435/435 330/330/330
f 695/695/695 721/721/721 694/694/694
f 697/697/697 694/694/694 669/669/669
f 669/669/669 630/630/630 670/670/670
f 511/511/511 512/512/512 574/574/574
f 574/574/574 573/573/573 511/511/511
f 444/444/444 503/503/503 510/510/510
f 510/510/510 509/509/509 444/444/444
f 444/444/444 436/436/436 503/503/503
f 444/444/444 435/435/435 436/436/436
f 451/451/451 443/443/443 520/520/520
f 435/435/435 444/444/444 329/329/329
f 279/279/279 278/278/278 283/283/283
f 283/283/283 284/284/284 279/279/279
f 196/196/196 195/195/195 131/131/131
f 136/136/136 131/131/131 195/195/195
f 78/78/78 132/132/132 84/84/84
f 131/131/131 83/83/83 84/84/84
f 49/49/49 78/78/78 48/48/48
f 44/44/44 43/43/43 48/48/48
f 78/78/78 77/77/77 48/48/48
f 201/201/201 195/195/195 288/288/288
f 288/288/288 287/287/287 294/294/294
f 40/40/40 43/43/43 39/39/39
f 42/42/42 39/39/39 43/43/43
f 48/48/48 47/47/47 42/42/42
f 43/43/43 48/48/48 42/42/42
f 82/82/82 47/47/47 77/77/77
f 47/47/47 82/82/82 81/81/81
f 81/81/81 46/46/46 47/47/47
f 216/216/216 207/207/207 303/303/303
f 303/303/303 302/302/302 313/313/313
f 232/232/232 333/333/333 231/231/231
f 313/313/313 323/323/323 322/322/322
f 323/323/323 224/224/224 313/313/313
f 215/215/215 224/224/224 150/150/150
f 150/150/150 143/143/143 215/215/215
f 223/223/223 224/224/224 323/323/323
f 323/323/323 322/322/322 223/223/223
f 224/224/224 223/223/223 149/149/149
f 149/149/149 150/150/150 224/224/224
f 93/93/93 56/56/56 94/94/94
f 93/93/93 58/58/58 56/56/56
f 294/294/294 201/201/201 288/288/288
f 301/301/301 300/300/300 293/293/293
f 199/199/199 205/205/205 293/293/293
f 205/205/205 206/206/206 301/301/301
f 206/206/206 205/205/205 137/137/137
f 137/137/137 141/141/141 138/138/138
f 83/83/83 135/135/135 88/88/88
f 56/56/56 58/58/58 55/55/55
f 58/58/58 93/93/93 55/55/55
f 93/93/93 92/92/92 55/55/55
f 311/311/311 213/213/213 312/312/312
f 311/311/311 222/222/222 213/213/213
f 222/222/222 311/311/311 221/221/221
f 221/221/221 211/211/211 220/220/220
f 148/148/148 140/140/140 147/147/147
f 240/240/240 349/349/349 239/239/239
f 234/234/234 235/235/235 231/231/231
f 234/234/234 160/160/160 235/235/235
f 230/230/230 159/159/159 234/234/234
f 164/164/164 240/240/240 163/163/163
f 260/260/260 172/172/172 180/180/180
f 250/250/250 361/361/361 259/259/259
f 367/367/367 259/259/259 361/361/361
f 361/361/361 360/360/360 367/367/367
f 331/331/331 230/230/230 332/332/332
f 230/230/230 331/331/331 229/229/229
f 339/339/339 349/349/349 340/340/340
f 349/349/349 339/339/339 348/348/348
f 154/154/154 159/159/159 230/230/230
f 348/348/348 239/239/239 349/349/349
f 171/171/171 163/163/163 239/239/239
f 239/239/239 249/249/249 171/171/171
f 249/249/249 348/348/348 359/359/359
f 249/249/249 359/359/359 248/248/248
f 171/171/171 249/249/249 248/248/248
f 170/170/170 171/171/171 248/248/248
f 178/178/178 170/170/170 248/248/248
f 178/178/178 111/111/111 170/170/170
f 111/111/111 178/178/178 115/115/115
f 178/178/178 247/247/247 256/256/256
f 256/256/256 247/247/247 358/358/358
f 178/178/178 177/177/177 114/114/114
f 163/163/163 171/171/171 106/106/106
f 260/260/260 259/259/259 264/264/264
f 180/180/180 260/260/260 264/264/264
f 264/264/264 184/184/184 180/180/180
f 268/268/268 269/269/269 264/264/264
f 263/263/263 268/268/268 264/264/264
f 269/269/269 188/188/188 264/264/264
f 188/188/188 183/183/183 264/264/264
f 179/179/179 184/184/184 180/180/180
f 117/117/117 118/118/118 184/184/184
f 184/184/184 179/179/179 183/183/183
f 184/184/184 183/183/183 117/117/117
f 117/117/117 122/122/122 118/118/118
f 122/122/122 117/117/117 121/121/121
f 70/70/70 122/122/122 121/121/121
f 70/70/70 73/73/73 122/122/122
f 117/117/117 68/68/68 67/67/67
f 69/69/69 70/70/70 117/117/117
f 117/117/117 67/67/67 69/69/69
f 126/126/126 125/125/125 73/73/73
f 74/74/74 38/38/38 37/37/37
f 358/358/358 357/357/357 246/246/246
f 256/256/256 246/246/246 255/255/255
f 256/256/256 255/255/255 177/177/177
f 176/176/176 114/114/114 177/177/177
f 114/114/114 176/176/176 113/113/113
f 169/169/169 176/176/176 246/246/246
f 169/169/169 245/245/245 168/168/168
f 110/110/110 168/168/168 109/109/109
f 642/642/642 644/644/644 645/645/645
f 642/642/642 645/645/645 643/643/643
f 720/720/720 715/715/715 736/736/736
f 720/720/720 736/736/736 714/714/714
f 736/736/736 735/735/735 714/714/714
f 693/693/693 688/688/688 692/692/692
f 599/599/599 600/600/600 594/594/594
f 599/599/599 594/594/594 649/649/649
f 599/599/599 539/539/539 600/600/600
f 539/539/539 599/599/599 606/606/606
f 539/539/539 606/606/606 545/545/545
f 546/546/546 545/545/545 476/476/476
f 599/599/599 649/649/649 644/644/644
f 606/606/606 599/599/599 649/649/649
f 606/606/606 649/649/649 605/605/605
f 649/649/649 648/648/648 605/605/605
f 545/545/545 606/606/606 544/544/544
f 545/545/545 544/544/544 475/475/475
f 606/606/606 605/605/605 544/544/544
f 605/605/605 597/597/597 647/647/647
f 605/605/605 647/647/647 604/604/604
f 543/543/543 605/605/605 604/604/604
f 551/551/551 544/544/544 605/605/605
f 551/551/551 605/605/605 543/543/543
f 571/571/571 628/628/628 624/624/624
f 566/566/566 628/628/628 571/571/571
f 621/621/621 668/668/668 667/667/667
f 418/418/418 409/409/409 408/408/408
f 485/485/485 551/551/551 484/484/484
f 551/551/551 543/543/543 484/484/484
f 418/418/418 484/484/484 407/407/407
f 417/417/417 418/418/418 407/407/407
f 307/307/307 308/308/308 418/418/418
f 307/307/307 418/418/418 417/417/417
f 502/502/502 501/501/501 441/441/441
f 502/502/502 441/441/441 442/442/442
f 432/432/432 433/433/433 501/501/501
f 432/432/432 501/501/501 500/500/500
f 501/501/501 433/433/433 441/441/441
f 501/501/501 441/441/441 506/506/506
f 433/433/433 432/432/432 441/441/441
f 441/441/441 433/433/433 337/337/337
f 734/734/734 719/719/719 735/735/735
f 719/719/719 714/714/714 735/735/735
f 691/691/691 719/719/719 718/718/718
f 719/719/719 713/713/713 718/718/718
f 691/691/691 718/718/718 690/690/690
f 667/667/667 690/690/690 666/666/666
f 689/689/689 690/690/690 687/687/687
f 666/666/666 690/690/690 665/665/665
f 663/663/663 665/665/665 687/687/687
f 604/604/604 542/542/542 543/543/543
f 383/383/383 276/276/276 382/382/382
f 383/383/383 386/386/386 382/382/382
f 383/383/383 386/386/386 280/280/280
f 383/383/383 280/280/280 277/277/277
f 281/281/281 280/280/280 386/386/386
f 383/383/383 465/465/465 464/464/464
f 383/383/383 467/467/467 386/386/386
f 386/386/386 383/383/383 385/385/385
f 383/383/383 382/382/382 385/385/385
f 383/383/383 464/464/464 385/385/385
f 280/280/280 383/383/383 382/382/382
f 383/383/383 280/280/280 279/279/279
f 383/383/383 279/279/279 276/276/276
f 382/382/382 386/386/386 385/385/385
f 474/474/474 542/542/542 541/541/541
f 474/474/474 541/541/541 473/473/473
f 397/397/397 474/474/474 473/473/473
f 397/397/397 473/473/473 396/396/396
f 390/390/390 473/473/473 470/470/470
f 298/298/298 397/397/397 396/396/396
f 298/298/298 396/396/396 291/291/291
f 391/391/391 396/396/396 390/390/390
f 396/396/396 473/473/473 390/390/390
f 396/396/396 391/391/391 291/291/291
f 470/470/470 391/391/391 390/390/390
f 470/470/470 390/390/390 386/386/386
f 470/470/470 386/386/386 467/467/467
f 386/386/386 390/390/390 285/285/285
f 285/285/285 280/280/280 386/386/386
f 389/389/389 390/390/390 386/386/386
f 389/389/389 386/386/386 385/385/385
f 396/396/396 472/472/472 395/395/395
f 290/290/290 285/285/285 390/390/390
f 290/290/290 390/390/390 289/289/289
f 390/390/390 389/389/389 289/289/289
f 564/564/564 620/620/620 666/666/666
f 666/666/666 665/665/665 618/618/618
f 666/666/666 618/618/618 620/620/620
f 620/620/620 618/618/618 560/560/560
f 484/484/484 543/543/543 474/474/474
f 484/484/484 474/474/474 406/406/406
f 406/406/406 407/407/407 484/484/484
f 299/299/299 417/417/417 407/407/407
f 299/299/299 407/407/407 406/406/406
f 307/307/307 417/417/417 299/299/299
f 406/406/406 397/397/397 298/298/298
f 424/424/424 416/416/416 423/423/423
f 416/416/416 298/298/298 406/406/406
f 416/416/416 424/424/424 306/306/306
f 416/416/416 306/306/306 298/298/298
f 416/416/416 406/406/406 405/405/405
f 416/416/416 405/405/405 415/415/415
f 415/415/415 416/416/416 493/493/493
f 416/416/416 497/497/497 496/496/496
f 416/416/416 496/496/496 493/493/493
f 297/297/297 406/406/406 298/298/298
f 297/297/297 405/405/405 406/406/406
f 416/416/416 406/406/406 306/306/306
f 297/297/297 306/306/306 406/406/406
f 423/423/423 416/416/416 306/306/306
f 416/416/416 415/415/415 298/298/298
f 500/500/500 432/432/432 424/424/424
f 424/424/424 423/423/423 432/432/432
f 306/306/306 424/424/424 423/423/423
f 432/432/432 505/505/505 440/440/440
f 432/432/432 318/318/318 328/328/328
f 432/432/432 423/423/423 317/317/317
f 432/432/432 317/317/317 318/318/318
f 496/496/496 497/497/497 561/561/561
f 496/496/496 561/561/561 560/560/560
f 317/317/317 423/423/423 416/416/416
f 317/317/317 416/416/416 306/306/306
f 618/618/618 617/617/617 613/613/613
f 560/560/560 557/557/557 496/496/496
f 493/493/493 496/496/496 557/557/557
f 415/415/415 482/482/482 405/405/405
f 298/298/298 415/415/415 297/297/297
f 415/415/415 405/405/405 297/297/297
f 296/296/296 415/415/415 405/405/405
f 481/481/481 492/492/492 480/480/480
f 571/571/571 628/628/628 627/627/627
f 571/571/571 627/627/627 570/570/570
f 571/571/571 570/570/570 508/508/508
f 579/579/579 570/570/570 627/627/627
f 579/579/579 627/627/627 569/569/569
f 627/627/627 626/626/626 569/569/569
f 579/579/579 569/569/569 578/578/578
f 517/517/517 518/518/518 579/579/579
f 517/517/517 579/579/579 578/578/578
f 626/626/626 625/625/625 569/569/569
f 578/578/578 569/569/569 507/507/507
f 569/569/569 625/625/625 568/568/568
f 636/636/636 584/584/584 585/585/585
f 578/578/578 507/507/507 517/517/517
f 506/506/506 507/507/507 569/569/569
f 506/506/506 569/569/569 568/568/568
f 517/517/517 507/507/507 448/448/448
f 441/441/441 447/447/447 440/440/440
f 440/440/440 447/447/447 516/516/516
f 440/440/440 516/516/516 505/505/505
f 505/505/505 516/516/516 515/515/515
f 516/516/516 447/447/447 453/453/453
f 516/516/516 453/453/453 524/524/524
f 516/516/516 524/524/524 523/523/523
f 516/516/516 523/523/523 515/515/515
f 455/455/455 459/459/459 458/458/458
f 582/582/582 523/523/523 524/524/524
f 527/527/527 584/584/584 582/582/582
f 527/527/527 582/582/582 524/524/524
f 524/524/524 453/453/453 455/455/455
f 524/524/524 455/455/455 527/527/527
f 585/585/585 584/584/584 527/527/527
f 585/585/585 527/527/527 528/528/528
f 528/528/528 527/527/527 455/455/455
f 455/455/455 453/453/453 356/356/356
f 355/355/355 356/356/356 453/453/453
f 587/587/587 588/588/588 640/640/640
f 587/587/587 640/640/640 639/639/639
f 531/531/531 587/587/587 530/530/530
f 588/588/588 587/587/587 531/531/531
f 530/530/530 587/587/587 586/586/586
f 586/586/586 528/528/528 529/529/529
f 586/586/586 529/529/529 530/530/530
f 698/698/698 699/699/699 696/696/696
f 698/698/698 696/696/696 695/695/695
f 698/698/698 671/671/671 699/699/699
f 670/670/670 671/671/671 698/698/698
f 440/440/440 505/505/505 515/515/515
f 440/440/440 515/515/515 446/446/446
f 446/446/446 515/515/515 452/452/452
f 522/522/522 523/523/523 581/581/581
f 522/522/522 581/581/581 580/580/580
f 452/452/452 523/523/523 522/522/522
f 452/452/452 522/522/522 526/526/526
f 526/526/526 580/580/580 583/583/583
f 576/576/576 632/632/632 575/575/575
f 630/630/630 631/631/631 671/671/671
f 630/630/630 671/671/671 670/670/670
f 574/574/574 631/631/631 630/630/630
f 574/574/574 575/575/575 631/631/631
f 513/513/513 575/575/575 574/574/574
f 513/513/513 574/574/574 512/512/512
f 438/438/438 445/445/445 513/513/513
f 437/437/437 438/438/438 513/513/513
f 324/324/324 325/325/325 438/438/438
f 324/324/324 438/438/438 437/437/437
f 457/457/457 369/369/369 374/374/374
f 281/281/281 277/277/277 280/280/280
f 277/277/277 280/280/280 276/276/276
f 382/382/382 276/276/276 277/277/277
f 280/280/280 382/382/382 276/276/276
f 281/281/281 280/280/280 286/286/286
f 281/281/281 286/286/286 285/285/285
f 285/285/285 281/281/281 280/280/280
f 193/193/193 286/286/286 285/285/285
f 286/286/286 194/194/194 193/193/193
f 291/291/291 286/286/286 285/285/285
f 286/286/286 280/280/280 285/285/285
f 133/133/133 197/197/197 194/194/194
f 130/130/130 133/133/133 194/194/194
f 130/130/130 194/194/194 193/193/193
f 130/130/130 193/193/193 129/129/129
f 130/130/130 129/129/129 133/133/133
f 280/280/280 285/285/285 284/284/284
f 280/280/280 284/284/284 279/279/279
f 289/289/289 285/285/285 290/290/290
f 394/394/394 285/285/285 284/284/284
f 289/289/289 285/285/285 394/394/394
f 289/289/289 284/284/284 285/285/285
f 290/290/290 289/289/289 295/295/295
f 80/80/80 85/85/85 133/133/133
f 80/80/80 133/133/133 129/129/129
f 51/51/51 52/52/52 85/85/85
f 51/51/51 85/85/85 80/80/80
f 52/52/52 51/51/51 27/27/27
f 80/80/80 128/128/128 79/79/79
f 298/298/298 292/292/292 198/198/198
f 298/298/298 291/291/291 292/292/292
f 298/298/298 291/291/291 297/297/297
f 298/298/298 306/306/306 297/297/297
f 317/317/317 328/328/328 318/318/318
f 316/316/316 317/317/317 306/306/306
f 316/316/316 306/306/306 305/305/305
f 152/152/152 157/157/157 153/153/153
f 52/52/52 53/53/53 86/86/86
f 52/52/52 86/86/86 85/85/85
f 208/208/208 203/203/203 295/295/295
f 295/295/295 203/203/203 202/202/202
f 203/203/203 208/208/208 304/304/304
f 203/203/203 304/304/304 296/296/296
f 208/208/208 295/295/295 207/207/207
f 208/208/208 203/203/203 202/202/202
f 208/208/208 202/202/202 207/207/207
f 326/326/326 325/325/325 227/227/227
f 227/227/227 325/325/325 226/226/226
f 218/218/218 217/217/217 145/145/145
f 152/152/152 146/146/146 145/145/145
f 314/314/314 315/315/315 324/324/324
f 145/145/145 217/217/217 208/208/208
f 145/145/145 208/208/208 139/139/139
f 226/226/226 225/225/225 216/216/216
f 152/152/152 98/98/98 100/100/100
f 152/152/152 145/145/145 151/151/151
f 97/97/97 98/98/98 152/152/152
f 97/97/97 152/152/152 151/151/151
f 145/145/145 144/144/144 96/96/96
f 61/61/61 99/99/99 97/97/97
f 29/29/29 28/28/28 52/52/52
f 16/16/16 17/17/17 29/29/29
f 16/16/16 29/29/29 28/28/28
f 7/7/7 15/15/15 14/14/14
f 7/7/7 14/14/14 6/6/6
f 15/15/15 17/17/17 16/16/16
f 15/15/15 16/16/16 14/14/14
f 3/3/3 4/4/4 6/6/6
f 13/13/13 16/16/16 27/27/27
f 13/13/13 14/14/14 16/16/16
f 27/27/27 50/50/50 26/26/26
f 3/3/3 6/6/6 2/2/2
f 36/36/36 35/35/35 24/24/24
f 36/36/36 24/24/24 22/22/22
f 23/23/23 11/11/11 25/25/25
f 254/254/254 253/253/253 174/174/174
f 104/104/104 105/105/105 102/102/102
f 104/104/104 102/102/102 101/101/101
f 65/65/65 64/64/64 35/35/35
f 101/101/101 100/100/100 62/62/62
f 63/63/63 64/64/64 101/101/101
f 63/63/63 101/101/101 62/62/62
f 34/34/34 35/35/35 64/64/64
f 353/353/353 343/343/343 352/352/352
f 343/343/343 342/342/342 352/352/352
f 343/343/343 342/342/342 237/237/237
f 335/335/335 324/324/324 334/334/334
f 233/233/233 162/162/162 237/237/237
f 162/162/162 242/242/242 237/237/237
f 242/242/242 236/236/236 241/241/241
f 363/363/363 353/353/353 362/362/362
f 353/353/353 352/352/352 362/362/362
f 253/253/253 243/243/243 167/167/167
f 252/252/252 352/352/352 242/242/242
f 362/362/362 352/352/352 252/252/252
f 362/362/362 252/252/252 261/261/261
f 262/262/262 368/368/368 362/362/362
f 262/262/262 362/362/362 261/261/261
f 369/369/369 368/368/368 262/262/262
f 261/261/261 252/252/252 173/173/173
f 173/173/173 242/242/242 241/241/241
f 173/173/173 241/241/241 165/165/165
f 173/173/173 165/165/165 172/172/172
f 261/261/261 173/173/173 181/181/181
f 62/62/62 100/100/100 99/99/99
f 33/33/33 63/63/63 62/62/62
f 33/33/33 64/64/64 63/63/63
f 33/33/33 62/62/62 31/31/31
f 62/62/62 61/61/61 31/31/31
f 172/172/172 181/181/181 173/173/173
f 273/273/273 380/380/380 272/272/272
f 273/273/273 272/272/272 190/190/190
f 272/272/272 379/379/379 375/375/375
f 272/272/272 375/375/375 374/374/374
f 271/271/271 190/190/190 272/272/272
f 271/271/271 272/272/272 267/267/267
f 369/369/369 262/262/262 267/267/267
f 266/266/266 267/267/267 262/262/262
f 271/271/271 267/267/267 186/186/186
f 185/185/185 186/186/186 267/267/267
f 185/185/185 267/267/267 266/266/266
f 378/378/378 373/373/373 377/377/377
f 381/381/381 378/378/378 377/377/377
f 381/381/381 377/377/377 270/270/270
f 186/186/186 185/185/185 119/119/119
f 119/119/119 181/181/181 116/116/116
f 123/123/123 122/122/122 126/126/126
f 21/21/21 35/35/35 34/34/34
f 22/22/22 35/35/35 21/21/21
f 11/11/11 24/24/24 9/9/9
f 9/9/9 24/24/24 22/22/22
f 22/22/22 21/21/21 9/9/9
f 34/34/34 64/64/64 33/33/33
f 34/34/34 33/33/33 21/21/21
f 20/20/20 21/21/21 33/33/33
f 8/8/8 21/21/21 20/20/20
f 33/33/33 31/31/31 32/32/32
f 703/703/703 728/728/728 727/727/727
f 703/703/703 727/727/727 726/726/726
f 705/705/705 706/706/706 728/728/728
f 705/705/705 728/728/728 703/703/703
f 678/678/678 706/706/706 705/705/705
f 679/679/679 706/706/706 678/678/678
f 710/710/710 708/708/708 709/709/709
f 681/681/681 654/654/654 656/656/656
f 681/681/681 656/656/656 657/657/657
f 657/657/657 683/683/683 681/681/681
f 653/653/653 654/654/654 680/680/680
f 653/653/653 680/680/680 679/679/679
f 610/610/610 656/656/656 654/654/654
f 610/610/610 654/654/654 653/653/653
f 609/609/609 653/653/653 679/679/679
f 609/609/609 679/679/679 652/652/652
f 679/679/679 677/677/677 652/652/652
f 679/679/679 678/678/678 677/677/677
f 591/591/591 590/590/590 533/533/533
f 538/538/538 533/533/533 537/537/537
f 464/464/464 382/382/382 385/385/385
f 279/279/279 382/382/382 385/385/385
f 276/276/276 382/382/382 279/279/279
f 385/385/385 382/382/382 384/384/384
f 382/382/382 278/278/278 384/384/384
f 382/382/382 276/276/276 278/278/278
f 385/385/385 284/284/284 389/389/389
f 385/385/385 279/279/279 284/284/284
f 385/385/385 384/384/384 388/388/388
f 385/385/385 388/388/388 283/283/283
f 385/385/385 283/283/283 279/279/279
f 389/389/389 385/385/385 388/388/388
f 283/283/283 389/389/389 388/388/388
f 283/283/283 385/385/385 389/389/389
f 389/389/389 284/284/284 289/289/289
f 394/394/394 284/284/284 289/289/289
f 468/468/468 469/469/469 538/538/538
f 278/278/278 279/279/279 384/384/384
f 278/278/278 384/384/384 283/283/283
f 282/282/282 388/388/388 384/384/384
f 282/282/282 384/384/384 278/278/278
f 387/387/387 388/388/388 469/469/469
f 387/387/387 469/469/469 468/468/468
f 388/388/388 393/393/393 288/288/288
f 388/388/388 288/288/288 283/283/283
f 393/393/393 388/388/388 387/387/387
f 288/288/288 387/387/387 388/388/388
f 388/388/388 393/393/393 283/283/283
f 282/282/282 387/387/387 388/388/388
f 532/532/532 533/533/533 590/590/590
f 393/393/393 387/387/387 392/392/392
f 283/283/283 393/393/393 288/288/288
f 392/392/392 387/387/387 282/282/282
f 387/387/387 282/282/282 288/288/288
f 288/288/288 393/393/393 387/387/387
f 392/392/392 282/282/282 288/288/288
f 392/392/392 288/288/288 287/287/287
f 294/294/294 400/400/400 392/392/392
f 294/294/294 392/392/392 287/287/287
f 658/658/658 657/657/657 611/611/611
f 555/555/555 554/554/554 492/492/492
f 553/553/553 611/611/611 610/610/610
f 491/491/491 492/492/492 554/554/554
f 554/554/554 611/611/611 553/553/553
f 403/403/403 480/480/480 492/492/492
f 403/403/403 492/492/492 491/491/491
f 394/394/394 403/403/403 289/289/289
f 394/394/394 403/403/403 402/402/402
f 403/403/403 491/491/491 413/413/413
f 403/403/403 413/413/413 402/402/402
f 302/302/302 303/303/303 414/414/414
f 414/414/414 413/413/413 302/302/302
f 413/413/413 491/491/491 490/490/490
f 554/554/554 553/553/553 490/490/490
f 430/430/430 324/324/324 437/437/437
f 610/610/610 653/653/653 609/609/609
f 552/552/552 610/610/610 609/609/609
f 490/490/490 553/553/553 610/610/610
f 490/490/490 610/610/610 552/552/552
f 609/609/609 652/652/652 608/608/608
f 477/477/477 552/552/552 549/549/549
f 477/477/477 549/549/549 548/548/548
f 490/490/490 479/479/479 401/401/401
f 393/393/393 392/392/392 400/400/400
f 393/393/393 400/400/400 288/288/288
f 399/399/399 400/400/400 392/392/392
f 412/412/412 400/400/400 399/399/399
f 400/400/400 399/399/399 294/294/294
f 287/287/287 288/288/288 400/400/400
f 287/287/287 400/400/400 294/294/294
f 333/333/333 428/428/428 332/332/332
f 428/428/428 321/321/321 332/332/332
f 701/701/701 726/726/726 725/725/725
f 701/701/701 725/725/725 700/700/700
f 702/702/702 703/703/703 726/726/726
f 702/702/702 726/726/726 701/701/701
f 677/677/677 705/705/705 703/703/703
f 677/677/677 703/703/703 702/702/702
f 677/677/677 702/702/702 675/675/675
f 677/677/677 676/676/676 650/650/650
f 677/677/677 650/650/650 651/651/651
f 652/652/652 677/677/677 651/651/651
f 661/661/661 662/662/662 686/686/686
f 661/661/661 686/686/686 685/685/685
f 655/655/655 685/685/685 682/682/682
f 608/608/608 602/602/602 607/607/607
f 547/547/547 548/548/548 608/608/608
f 547/547/547 608/608/608 607/607/607
f 614/614/614 664/664/664 662/662/662
f 614/614/614 662/662/662 661/661/661
f 558/558/558 559/559/559 615/615/615
f 614/614/614 558/558/558 615/615/615
f 559/559/559 558/558/558 494/494/494
f 412/412/412 488/488/488 399/399/399
f 411/411/411 412/412/412 419/419/419
f 495/495/495 559/559/559 494/494/494
f 495/495/495 494/494/494 487/487/487
f 425/425/425 419/419/419 426/426/426
f 426/426/426 320/320/320 425/425/425
f 426/426/426 436/436/436 330/330/330
f 426/426/426 330/330/330 320/320/320
f 721/721/721 695/695/695 722/722/722
f 694/694/694 698/698/698 695/695/695
f 670/670/670 698/698/698 697/697/697
f 630/630/630 669/669/669 629/629/629
f 503/503/503 436/436/436 435/435/435
f 509/509/509 521/521/521 520/520/520
f 509/509/509 520/520/520 444/444/444
f 329/329/329 434/434/434 435/435/435
f 444/444/444 520/520/520 443/443/443
f 444/444/444 443/443/443 338/338/338
f 338/338/338 329/329/329 444/444/444
f 278/278/278 276/276/276 279/279/279
f 202/202/202 289/289/289 295/295/295
f 278/278/278 283/283/283 282/282/282
f 282/282/282 283/283/283 288/288/288
f 131/131/131 132/132/132 196/196/196
f 131/131/131 84/84/84 132/132/132
f 78/78/78 84/84/84 77/77/77
f 84/84/84 83/83/83 77/77/77
f 44/44/44 49/49/49 48/48/48
f 77/77/77 83/83/83 82/82/82
f 47/47/47 48/48/48 77/77/77
f 82/82/82 88/88/88 81/81/81
f 207/207/207 295/295/295 303/303/303
f 207/207/207 202/202/202 295/295/295
f 216/216/216 303/303/303 314/314/314
f 303/303/303 314/314/314 207/207/207
f 314/314/314 324/324/324 225/225/225
f 225/225/225 216/216/216 314/314/314
f 215/215/215 216/216/216 303/303/303
f 215/215/215 303/303/303 313/313/313
f 314/314/314 216/216/216 324/324/324
f 225/225/225 324/324/324 232/232/232
f 333/333/333 324/324/324 323/323/323
f 232/232/232 324/324/324 333/333/333
f 313/313/313 224/224/224 215/215/215
f 57/57/57 91/91/91 94/94/94
f 57/57/57 94/94/94 56/56/56
f 200/200/200 201/201/201 294/294/294
f 195/195/195 201/201/201 136/136/136
f 135/135/135 136/136/136 201/201/201
f 135/135/135 201/201/201 200/200/200
f 300/300/300 294/294/294 293/293/293
f 301/301/301 293/293/293 205/205/205
f 214/214/214 206/206/206 138/138/138
f 137/137/137 138/138/138 206/206/206
f 214/214/214 138/138/138 141/141/141
f 83/83/83 131/131/131 136/136/136
f 135/135/135 83/83/83 136/136/136
f 82/82/82 83/83/83 88/88/88
f 90/90/90 137/137/137 89/89/89
f 92/92/92 142/142/142 141/141/141
f 90/90/90 55/55/55 92/92/92
f 90/90/90 92/92/92 141/141/141
f 141/141/141 137/137/137 90/90/90
f 300/300/300 311/311/311 312/312/312
f 221/221/221 311/311/311 212/212/212
f 221/221/221 212/212/212 211/211/211
f 148/148/148 221/221/221 220/220/220
f 148/148/148 220/220/220 140/140/140
f 319/319/319 320/320/320 330/330/330
f 319/319/319 330/330/330 329/329/329
f 232/232/232 236/236/236 235/235/235
f 165/165/165 236/236/236 241/241/241
f 165/165/165 161/161/161 236/236/236
f 230/230/230 231/231/231 333/333/333
f 230/230/230 333/333/333 332/332/332
f 235/235/235 341/341/341 350/350/350
f 235/235/235 350/350/350 240/240/240
f 349/349/349 240/240/240 350/350/350
f 234/234/234 231/231/231 230/230/230
f 350/350/350 241/241/241 351/351/351
f 241/241/241 250/250/250 251/251/251
f 250/250/250 241/241/241 350/350/350
f 172/172/172 241/241/241 251/251/251
f 172/172/172 165/165/165 241/241/241
f 172/172/172 251/251/251 260/260/260
f 251/251/251 172/172/172 180/180/180
f 251/251/251 180/180/180 260/260/260
f 250/250/250 350/350/350 361/361/361
f 240/240/240 239/239/239 163/163/163
f 258/258/258 259/259/259 367/367/367
f 348/348/348 249/249/249 239/239/239
f 358/358/358 359/359/359 348/348/348
f 358/358/358 348/348/348 347/347/347
f 248/248/248 359/359/359 358/358/358
f 248/248/248 247/247/247 257/257/257
f 248/248/248 358/358/358 247/247/247
f 178/178/178 257/257/257 247/247/247
f 178/178/178 256/256/256 177/177/177
f 112/112/112 106/106/106 171/171/171
f 372/372/372 260/260/260 265/265/265
f 377/377/377 372/372/372 270/270/270
f 372/372/372 265/265/265 270/270/270
f 184/184/184 264/264/264 183/183/183
f 187/187/187 188/188/188 269/269/269
f 187/187/187 269/269/269 268/268/268
f 122/122/122 184/184/184 118/118/118
f 126/126/126 122/122/122 121/121/121
f 70/70/70 121/121/121 117/117/117
f 126/126/126 122/122/122 125/125/125
f 73/73/73 74/74/74 126/126/126
f 256/256/256 358/358/358 246/246/246
f 246/246/246 176/176/176 255/255/255
f 255/255/255 176/176/176 177/177/177
f 246/246/246 245/245/245 169/169/169
f 176/176/176 169/169/169 110/110/110
f 110/110/110 169/169/169 168/168/168
