# 由 henjicc/yipiantian 的 lingcao_qingxin_sprout 转换而来（见 manifest.json）
mtllib lingcao_qingxin_sprout.mtl
o lingcao_qingxin_sprout
v -0.03441 0.08019 -0.00514
v -0.03395 0.07881 0.00180
v -0.03455 0.07954 0.00986
v -0.03377 0.07910 0.01270
v -0.03336 0.07904 0.01560
v -0.03305 0.08479 -0.02147
v -0.03448 0.08460 -0.01918
v -0.03556 0.08406 -0.01605
v -0.03529 0.08274 -0.01251
v -0.03527 0.08199 -0.00885
v -0.03464 0.08083 -0.00559
v -0.03609 0.08206 -0.00177
v -0.03680 0.08256 0.00155
v -0.03710 0.08265 0.00522
v -0.03600 0.08120 0.00808
v -0.02969 0.03566 0.03372
v -0.02954 0.03996 0.01978
v -0.03114 0.03920 0.02312
v -0.03173 0.03804 0.02678
v -0.03173 0.03686 0.03059
v -0.03016 0.03616 0.03318
v -0.02920 0.04030 0.01976
v -0.02891 0.07340 -0.00880
v -0.02987 0.07402 -0.00347
v -0.03083 0.07476 0.00232
v -0.03079 0.07524 0.00736
v -0.03000 0.07551 0.01311
v -0.02877 0.07580 0.01848
v -0.03038 0.07655 -0.01580
v -0.03148 0.07712 -0.00993
v -0.03178 0.07674 -0.00422
v -0.03223 0.07838 0.01714
v -0.03010 0.07681 0.01847
v -0.03032 0.08421 -0.02282
v -0.03280 0.08115 -0.01746
v -0.03276 0.08500 -0.02114
v -0.02638 0.03543 0.03519
v -0.02415 0.04012 0.01350
v -0.02652 0.04020 0.01603
v -0.02561 0.04018 0.01971
v -0.02680 0.03959 0.02345
v -0.02849 0.03901 0.02636
v -0.02555 0.03738 0.03038
v -0.02753 0.03612 0.03367
v -0.02646 0.04052 0.01597
v -0.02742 0.04057 0.01897
v -0.02791 0.04030 0.02189
v -0.02423 0.06623 -0.00169
v -0.02429 0.06844 -0.01256
v -0.02603 0.06930 -0.00765
v -0.02703 0.07012 -0.00251
v -0.02607 0.06922 0.00307
v -0.02435 0.06848 0.00822
v -0.02410 0.06945 0.01273
v -0.02441 0.07116 0.01754
v -0.02490 0.07549 -0.01938
v -0.02736 0.07244 -0.01409
v -0.02753 0.07184 0.00794
v -0.02699 0.07254 0.01298
v -0.02630 0.07317 0.01723
v -0.02812 0.07522 0.01815
v -0.02766 0.07961 -0.02155
v -0.02745 0.07982 -0.02130
v -0.02483 0.08338 -0.02609
v -0.02698 0.08282 -0.02416
v -0.02212 0.03520 0.03571
v -0.02055 0.03483 0.03598
v -0.01989 0.03902 0.01054
v -0.02201 0.03976 0.01198
v -0.02171 0.03998 0.01644
v -0.02054 0.03971 0.02052
v -0.02329 0.03997 0.02264
v -0.02228 0.03848 0.02662
v -0.02114 0.03746 0.03044
v -0.02201 0.03608 0.03422
v -0.02385 0.04043 0.01369
v -0.02289 0.04072 0.01746
v -0.02038 0.06178 -0.00562
v -0.02126 0.06462 -0.01116
v -0.02314 0.06537 -0.00656
v -0.02170 0.06361 -0.00114
v -0.02122 0.06422 0.00366
v -0.02147 0.06397 0.00370
v -0.02109 0.06537 0.00851
v -0.02139 0.06928 -0.01689
v -0.02389 0.06970 0.01265
v -0.02258 0.06967 0.01660
v -0.02188 0.06979 0.01950
v -0.02013 0.07457 -0.02197
v -0.02159 0.07896 -0.02444
v -0.02156 0.08197 -0.02694
v -0.01541 0.03566 0.03159
v -0.01742 0.03468 0.03549
v -0.01717 0.03762 0.00899
v -0.01640 0.03816 0.01254
v -0.01537 0.03796 0.01652
v -0.01785 0.03899 0.01842
v -0.01685 0.03772 0.02292
v -0.01700 0.03710 0.02983
v -0.01865 0.03606 0.03303
v -0.01620 0.05759 -0.00890
v -0.01507 0.05515 -0.00399
v -0.01511 0.05646 0.00003
v -0.01511 0.05749 0.00412
v -0.01594 0.06022 -0.01321
v -0.01858 0.06106 -0.00997
v -0.01758 0.05839 -0.00477
v -0.01803 0.05964 -0.00043
v -0.01808 0.06077 0.00395
v -0.01779 0.06207 0.00838
v -0.01679 0.06662 -0.01821
v -0.01654 0.06332 -0.01562
v -0.01731 0.06334 0.01281
v -0.01730 0.06498 0.01736
v -0.01617 0.06402 0.01889
v -0.01854 0.07039 -0.01988
v -0.01899 0.06745 0.01870
v -0.01553 0.07338 -0.02398
v -0.01726 0.07892 -0.02724
v -0.01118 0.03132 0.00583
v -0.01247 0.03357 0.00657
v -0.01319 0.03467 0.00860
v -0.01131 0.03435 0.01286
v -0.01067 0.03488 0.01751
v -0.01208 0.03545 0.02994
v -0.01262 0.03392 0.03413
v -0.01401 0.03604 0.00861
v -0.01307 0.03647 0.01461
v -0.01275 0.03629 0.01963
v -0.01276 0.03670 0.02412
v -0.01482 0.03711 0.02700
v -0.01052 0.04808 -0.00613
v -0.01064 0.04904 -0.00270
v -0.01196 0.05341 -0.01147
v -0.01104 0.05046 -0.00978
v -0.01212 0.05122 -0.00698
v -0.01265 0.05215 -0.00332
v -0.01252 0.05334 0.00041
v -0.01351 0.05665 -0.01264
v -0.01403 0.05435 -0.00790
v -0.01482 0.05536 -0.00399
v -0.01311 0.05555 0.00409
v -0.01173 0.05575 0.00796
v -0.01146 0.05709 0.01152
v -0.01087 0.05782 0.01499
v -0.01194 0.06251 -0.01850
v -0.01214 0.05941 -0.01611
v -0.01457 0.05893 0.00834
v -0.01191 0.05938 0.01644
v -0.01344 0.06154 0.01935
v -0.01319 0.06606 -0.02013
v -0.01478 0.06309 0.01967
v -0.01256 0.06938 -0.02272
v -0.01286 0.07484 -0.02683
v -0.00604 0.02224 0.00357
v -0.00604 0.02145 0.00512
v -0.00720 0.02487 0.00468
v -0.00716 0.02498 0.00884
v -0.00910 0.02859 0.00562
v -0.00887 0.02926 0.00876
v -0.00742 0.02960 0.01285
v -0.00972 0.03207 0.01128
v -0.00806 0.03288 0.01629
v -0.00738 0.03375 0.01978
v -0.00985 0.03516 0.02281
v -0.00792 0.03423 0.02654
v -0.00741 0.03282 0.03105
v -0.00951 0.03332 0.03259
v -0.00631 0.03905 -0.00549
v -0.00623 0.04018 -0.00136
v -0.00947 0.03579 0.02272
v -0.00785 0.04442 -0.00836
v -0.00734 0.04189 -0.00619
v -0.00744 0.04317 -0.00174
v -0.00694 0.04409 0.00107
v -0.00907 0.04733 -0.00931
v -0.00940 0.04623 -0.00560
v -0.00937 0.04716 -0.00238
v -0.00847 0.04714 0.00090
v -0.00718 0.04668 0.00388
v -0.00834 0.05272 -0.01432
v -0.00821 0.05052 -0.01257
v -0.01026 0.05021 0.00069
v -0.00985 0.05134 0.00403
v -0.00783 0.05113 0.00896
v -0.00674 0.05144 0.01298
v -0.00949 0.05594 -0.01555
v -0.00843 0.05523 0.01392
v -0.00893 0.05602 0.01468
v -0.00764 0.06060 -0.01973
v -0.00779 0.06562 -0.02291
v -0.00760 0.07016 -0.02601
v -0.00701 0.07407 -0.02907
v -0.00931 0.07418 -0.02799
v -0.00203 0.00190 -0.00107
v -0.00215 0.00174 0.00074
v -0.00205 0.00704 -0.00068
v -0.00204 0.00651 0.00142
v -0.00200 0.01080 -0.00069
v -0.00255 0.01156 0.00168
v -0.00214 0.01508 -0.00108
v -0.00256 0.01641 0.00179
v -0.00238 0.01520 0.00466
v -0.00242 0.02027 -0.00190
v -0.00232 0.02020 0.00177
v -0.00385 0.01976 0.00559
v -0.00238 0.02061 0.00822
v -0.00174 0.02613 -0.00466
v -0.00298 0.02521 -0.00263
v -0.00218 0.02433 0.00217
v -0.00523 0.02331 0.00548
v -0.00393 0.02371 0.00931
v -0.00326 0.02604 0.01191
v -0.00335 0.03019 -0.00468
v -0.00322 0.02819 -0.00053
v -0.00211 0.02860 0.00237
v -0.00169 0.03021 0.00410
v -0.00466 0.02843 0.01357
v -0.00346 0.02969 0.01616
v -0.00213 0.03065 0.02371
v -0.00190 0.03442 -0.00763
v -0.00415 0.03343 -0.00544
v -0.00443 0.03304 -0.00179
v -0.00310 0.03376 0.00222
v -0.00186 0.03362 0.00512
v -0.00359 0.03172 0.02042
v -0.00427 0.03243 0.02369
v -0.00394 0.03173 0.02714
v -0.00551 0.03234 0.02924
v -0.00391 0.03851 -0.00816
v -0.00497 0.03613 -0.00568
v -0.00546 0.03709 -0.00190
v -0.00409 0.03796 0.00237
v -0.00270 0.03806 0.00558
v -0.00491 0.04394 -0.01072
v -0.00483 0.04185 -0.00931
v -0.00540 0.04133 0.00200
v -0.00346 0.04190 0.00682
v -0.00342 0.04318 0.00803
v -0.00410 0.04693 -0.01250
v -0.00441 0.04643 0.00974
v -0.00502 0.04854 0.01191
v -0.00397 0.05137 -0.01537
v -0.00567 0.04967 0.01269
v -0.00203 0.05626 -0.01934
v -0.00577 0.05586 -0.01754
v -0.00468 0.06230 -0.02235
v -0.00334 0.05924 -0.02088
v -0.00251 0.06589 -0.02569
v -0.00188 0.06993 -0.02883
v -0.00452 0.06936 -0.02707
v -0.00345 0.07433 -0.03124
v 0.00044 0.00206 -0.00131
v 0.00058 0.00201 0.00145
v 0.00049 0.00684 -0.00109
v 0.00066 0.00671 0.00118
v 0.00109 0.01089 -0.00107
v 0.00121 0.01104 0.00146
v -0.00065 0.01244 0.00406
v 0.00116 0.01504 -0.00183
v 0.00083 0.01584 0.00146
v 0.00038 0.01580 0.00468
v 0.00178 0.02030 -0.00438
v -0.00086 0.01890 -0.00341
v 0.00092 0.02079 0.00228
v -0.00024 0.01866 0.00601
v -0.00013 0.02141 0.00792
v 0.00143 0.02422 -0.00528
v -0.00008 0.02412 0.00261
v -0.00042 0.02357 0.01029
v -0.00055 0.02547 0.01251
v 0.00157 0.03079 -0.00761
v 0.00010 0.02922 -0.00647
v -0.00141 0.02804 0.00321
v -0.00144 0.03020 0.00393
v -0.00076 0.02779 0.01606
v -0.00098 0.02923 0.01966
v -0.00138 0.03008 0.02185
v 0.00112 0.03401 -0.00870
v -0.00144 0.03161 0.00454
v 0.00045 0.03762 -0.00971
v 0.00057 0.04277 -0.01207
v 0.00136 0.04758 -0.01482
v 0.00220 0.04478 -0.01336
v -0.00082 0.05327 -0.01792
v -0.00001 0.05145 -0.01674
v 0.00182 0.05713 -0.02126
v 0.00044 0.05996 -0.02281
v -0.00100 0.06284 -0.02427
v 0.00103 0.07060 -0.03106
v -0.00119 0.07173 -0.03065
v 0.00341 0.00636 -0.00031
v 0.00328 0.00644 0.00069
v 0.00448 0.01119 -0.00097
v 0.00443 0.01155 0.00154
v 0.00462 0.01570 -0.00129
v 0.00406 0.01583 0.00137
v 0.00612 0.01923 -0.00221
v 0.00431 0.02048 0.00212
v 0.00529 0.02676 -0.00738
v 0.00423 0.02464 -0.00598
v 0.00464 0.02463 0.00263
v 0.00517 0.02527 0.00397
v 0.00636 0.02933 -0.00842
v 0.00537 0.02684 -0.00709
v 0.00533 0.02929 0.00287
v 0.00420 0.02831 0.00436
v 0.00557 0.03258 -0.00946
v 0.00633 0.03338 0.00260
v 0.00511 0.03289 0.00462
v 0.00353 0.03903 -0.01129
v 0.00403 0.03610 -0.01029
v 0.00605 0.03779 0.00202
v 0.00587 0.03832 0.00562
v 0.00700 0.04390 -0.00027
v 0.00608 0.04189 0.00154
v 0.00525 0.04176 0.00573
v 0.00519 0.04279 0.00751
v 0.00596 0.04732 -0.01608
v 0.00730 0.04678 -0.00123
v 0.00540 0.04738 0.00119
v 0.00406 0.04778 0.00553
v 0.00377 0.04582 0.00760
v 0.00437 0.05151 -0.01812
v 0.00558 0.05287 -0.00018
v 0.00451 0.05170 0.00228
v 0.00394 0.05029 0.00447
v 0.00324 0.05435 -0.01971
v 0.00659 0.05418 -0.00210
v 0.00734 0.06010 -0.02532
v 0.00669 0.06643 -0.03045
v 0.00518 0.06355 -0.02720
v 0.00480 0.06873 -0.03140
v 0.00855 0.01781 -0.00094
v 0.00815 0.02164 -0.00399
v 0.00939 0.02045 -0.00150
v 0.00932 0.02007 0.00174
v 0.00978 0.02443 -0.00479
v 0.01133 0.02330 -0.00187
v 0.01164 0.02382 0.00196
v 0.01173 0.02759 -0.00646
v 0.00882 0.03029 0.00342
v 0.00832 0.02931 0.00390
v 0.00891 0.03474 -0.01124
v 0.00796 0.03263 -0.01006
v 0.01027 0.03343 0.00296
v 0.01040 0.03206 0.00376
v 0.01169 0.04020 -0.01442
v 0.01047 0.03759 -0.01289
v 0.01030 0.03754 0.00112
v 0.01106 0.04297 -0.01551
v 0.00863 0.04066 -0.01355
v 0.00987 0.04212 -0.00086
v 0.01169 0.04772 -0.01843
v 0.01048 0.04598 -0.01694
v 0.01198 0.04783 -0.00357
v 0.01089 0.04731 -0.00299
v 0.01116 0.05292 -0.02162
v 0.01050 0.05200 -0.02068
v 0.01007 0.05145 -0.00411
v 0.00784 0.05226 -0.00307
v 0.01092 0.05458 -0.02253
v 0.00826 0.05437 -0.00400
v 0.01081 0.06055 -0.02715
v 0.00966 0.06423 -0.02980
v 0.01348 0.02632 -0.00449
v 0.01378 0.02450 -0.00157
v 0.01388 0.02472 0.00172
v 0.01482 0.02630 0.00378
v 0.01378 0.03001 -0.00793
v 0.01390 0.02913 -0.00571
v 0.01649 0.02814 -0.00148
v 0.01618 0.02739 0.00440
v 0.01541 0.03200 -0.00888
v 0.01649 0.03236 -0.00675
v 0.01297 0.03437 0.00316
v 0.01527 0.03937 -0.00060
v 0.01381 0.03710 0.00128
v 0.01478 0.04465 -0.00353
v 0.01436 0.04230 -0.00216
v 0.01244 0.04863 -0.01942
v 0.01388 0.04648 -0.00393
v 0.01210 0.05151 -0.02151
v 0.01267 0.05033 -0.02078
v 0.01276 0.05759 -0.02561
v 0.01264 0.05567 -0.02401
v 0.01233 0.05853 -0.02615
v 0.01804 0.03086 -0.00445
v 0.01839 0.02917 -0.00164
v 0.01822 0.02883 0.00174
v 0.01914 0.02957 0.00587
v 0.01977 0.03509 -0.01094
v 0.01799 0.03383 -0.00938
v 0.01880 0.03230 -0.00500
v 0.02182 0.03108 0.00786
v 0.02194 0.03539 -0.00820
v 0.02318 0.03445 -0.00475
v 0.02299 0.03250 -0.00120
v 0.02408 0.03286 0.00265
v 0.02300 0.03224 0.00569
v 0.02403 0.03207 0.00920
v 0.02323 0.03644 -0.01234
v 0.02509 0.03611 -0.00907
v 0.02712 0.03532 -0.00541
v 0.02753 0.03402 -0.00112
v 0.02839 0.03422 0.00330
v 0.02597 0.03350 0.00684
v 0.02729 0.03310 0.00978
v 0.02900 0.03309 0.01120
v 0.02916 0.03679 -0.01478
v 0.02693 0.03701 -0.01380
v 0.02827 0.03647 -0.01000
v 0.02954 0.03600 -0.00571
v 0.03320 0.03566 -0.01614
v 0.03276 0.03548 -0.00667
v 0.03201 0.03419 -0.00171
v 0.03155 0.03429 0.00327
v 0.03215 0.03387 0.00770
v 0.03228 0.03306 0.01177
v 0.03186 0.03630 -0.01557
v 0.03145 0.03625 -0.01102
v 0.03658 0.03370 -0.01669
v 0.03607 0.03478 -0.01250
v 0.03774 0.03378 -0.00838
v 0.03687 0.03321 -0.00303
v 0.03612 0.03350 0.00240
v 0.03796 0.03253 0.00659
v 0.03508 0.03347 0.00746
v 0.03675 0.03222 0.01142
v 0.04342 0.02621 -0.01549
v 0.04130 0.02914 -0.01604
v 0.04115 0.03051 -0.01399
v 0.04236 0.02948 -0.01057
v 0.04224 0.02949 -0.00594
v 0.04235 0.03006 -0.00086
v 0.04249 0.02951 0.00348
v 0.04181 0.02957 0.00638
v 0.04129 0.02993 0.00894
v 0.03953 0.03246 -0.01357
v 0.04082 0.03152 -0.00973
v 0.03968 0.03196 -0.00421
v 0.04035 0.03179 0.00061
v 0.04066 0.03136 0.00525
v 0.03949 0.03136 0.01031
v 0.04736 0.02209 -0.00882
v 0.04768 0.02224 -0.00596
v 0.04406 0.02577 -0.01488
v 0.04570 0.02370 -0.01275
v 0.04656 0.02344 -0.00894
v 0.04676 0.02388 -0.00503
v 0.04705 0.02393 -0.00188
v 0.04613 0.02523 0.00162
v 0.04518 0.02617 0.00374
v 0.04368 0.02718 -0.01142
v 0.04391 0.02807 -0.00247
v 0.04421 0.02780 0.00159
v 0.04416 0.02748 0.00557
v 0.04806 0.02258 -0.00587
vt 0.28910 0.20754
vt 0.19558 0.30875
vt 0.20810 0.45981
vt 0.34250 0.47644
vt 0.33664 0.45278
vt 0.11784 0.20831
vt 0.13356 0.26516
vt 0.15908 0.26472
vt 0.25755 0.25377
vt 0.24534 0.29819
vt 0.25477 0.34334
vt 0.30571 0.28226
vt 0.27958 0.24089
vt 0.21792 0.30954
vt 0.09581 0.31669
vt 0.55443 0.33416
vt 0.23465 0.39974
vt 0.33535 0.44971
vt 0.42516 0.43802
vt 0.35418 0.42668
vt 0.32468 0.48211
vt 0.28673 0.51729
vt 0.25007 0.37838
vt 0.23094 0.35312
vt 0.34459 0.45371
vt 0.42701 0.44369
vt 0.65894 0.59131
vt 0.24245 0.40388
vt 0.28829 0.24432
vt 0.23925 0.36574
vt 0.22279 0.34358
vt 0.32070 0.37856
vt 0.33657 0.43787
vt 0.23377 0.18325
vt 0.33810 0.39827
vt 0.30165 0.22438
vt 0.49140 0.41272
vt 0.32695 0.59144
vt 0.33964 0.58414
vt 0.55242 0.58942
vt 0.49087 0.56720
vt 0.33294 0.96177
vt 0.59601 0.71850
vt 0.42725 0.62288
vt 0.27399 0.50219
vt 0.32583 0.67093
vt 0.36071 0.98097
vt 0.46639 0.38190
vt 0.30011 0.29520
vt 0.26245 0.39266
vt 0.24311 0.36751
vt 0.45105 0.43661
vt 0.67222 0.52076
vt 0.69732 0.68405
vt 0.41973 0.33059
vt 0.31777 0.11369
vt 0.29421 0.26987
vt 0.49889 0.55157
vt 0.66433 0.56184
vt 0.31925 0.29199
vt 0.35629 0.46573
vt 0.06230 0.05090
vt 0.57126 0.09848
vt 0.27863 0.17564
vt 0.23631 0.15870
vt 0.41558 0.39574
vt 0.50917 0.41127
vt 0.34822 0.63891
vt 0.34131 0.64964
vt 0.60524 0.76789
vt 0.60546 0.73164
vt 0.59903 0.71669
vt 0.60334 0.70443
vt 0.60680 0.69221
vt 0.31948 0.88625
vt 0.35167 0.79777
vt 0.40896 0.97464
vt 0.39511 0.47182
vt 0.30610 0.31960
vt 0.27444 0.40659
vt 0.41999 0.46831
vt 0.46309 0.46381
vt 0.65914 0.61859
vt 0.67783 0.49007
vt 0.31914 0.16849
vt 0.64238 0.38036
vt 0.46892 0.30781
vt 0.41550 0.28891
vt 0.31843 0.13043
vt 0.31750 0.09377
vt 0.30861 0.19759
vt 0.88426 0.44664
vt 0.40846 0.47172
vt 0.40262 0.58477
vt 0.57431 0.79364
vt 0.50510 0.86173
vt 0.60535 0.72120
vt 0.64485 0.66166
vt 0.53224 0.73662
vt 0.61520 0.67247
vt 0.22144 0.38608
vt 0.48411 0.37535
vt 0.55802 0.47869
vt 0.68741 0.55973
vt 0.29514 0.40712
vt 0.31159 0.34216
vt 0.40761 0.47119
vt 0.54525 0.49737
vt 0.68645 0.44474
vt 0.68377 0.45751
vt 0.32025 0.19772
vt 0.32077 0.22391
vt 0.68134 0.46933
vt 0.44695 0.33001
vt 0.34869 0.34325
vt 0.31937 0.16548
vt 0.33806 0.23654
vt 0.31910 0.14948
vt 0.31659 0.15025
vt 0.36043 0.57674
vt 0.50577 0.55227
vt 0.43409 0.54498
vt 0.65929 0.59056
vt 0.58927 0.68823
vt 0.63515 0.63542
vt 0.40501 0.46939
vt 0.67577 0.45056
vt 0.60332 0.70975
vt 0.49651 0.83274
vt 0.56330 0.73036
vt 0.61025 0.68234
vt 0.33536 0.28325
vt 0.48954 0.37492
vt 0.32740 0.36636
vt 0.33369 0.41145
vt 0.33165 0.47500
vt 0.43011 0.47059
vt 0.57033 0.46116
vt 0.32422 0.34492
vt 0.32277 0.46446
vt 0.28941 0.66166
vt 0.69701 0.34644
vt 0.69498 0.39610
vt 0.69270 0.40778
vt 0.46799 0.23238
vt 0.32158 0.23878
vt 0.32217 0.26168
vt 0.68946 0.42635
vt 0.41447 0.24393
vt 0.33121 0.27280
vt 0.32073 0.20966
vt 0.23540 0.18812
vt 0.32019 0.18649
vt 0.24829 0.21046
vt 0.43099 0.57966
vt 0.39813 0.61164
vt 0.45723 0.50832
vt 0.40923 0.73230
vt 0.50198 0.44796
vt 0.51305 0.45282
vt 0.63142 0.56262
vt 0.57280 0.43252
vt 0.67937 0.50621
vt 0.55649 0.68552
vt 0.69414 0.55906
vt 0.62539 0.63172
vt 0.39838 0.47146
vt 0.40156 0.46967
vt 0.35479 0.48940
vt 0.35451 0.50163
vt 0.44203 0.87050
vt 0.33656 0.42525
vt 0.34941 0.47574
vt 0.34526 0.49017
vt 0.52353 0.38844
vt 0.33357 0.40650
vt 0.34718 0.55925
vt 0.33800 0.54002
vt 0.51639 0.39339
vt 0.70875 0.32084
vt 0.09902 0.29407
vt 0.36942 0.34109
vt 0.50887 0.39892
vt 0.70217 0.35784
vt 0.61648 0.33674
vt 0.30043 0.34823
vt 0.32318 0.29290
vt 0.38451 0.25596
vt 0.35414 0.24528
vt 0.32235 0.26266
vt 0.32126 0.22541
vt 0.32030 0.19238
vt 0.17541 0.18558
vt 0.17704 0.10527
vt 0.38983 0.62105
vt 0.25003 0.56720
vt 0.24337 0.56731
vt 0.31062 0.66861
vt 0.26680 0.54838
vt 0.42210 0.69357
vt 0.14403 0.50087
vt 0.42440 0.48897
vt 0.35372 0.81538
vt 0.19692 0.50100
vt 0.29911 0.31046
vt 0.53524 0.57890
vt 0.36275 0.70092
vt 0.05525 0.49703
vt 0.20617 0.46672
vt 0.25899 0.37232
vt 0.82370 0.28281
vt 0.56136 0.53767
vt 0.60595 0.53815
vt 0.27920 0.49267
vt 0.33388 0.44599
vt 0.29094 0.41292
vt 0.13946 0.39320
vt 0.61547 0.54710
vt 0.60906 0.54150
vt 0.56710 0.48816
vt 0.32900 0.46495
vt 0.34823 0.49363
vt 0.37902 0.53355
vt 0.34507 0.50115
vt 0.21550 0.42924
vt 0.56615 0.64178
vt 0.61894 0.53016
vt 0.62908 0.45192
vt 0.47855 0.37938
vt 0.32752 0.43240
vt 0.35853 0.50719
vt 0.34465 0.46413
vt 0.47331 0.40198
vt 0.37652 0.36223
vt 0.08957 0.36646
vt 0.37391 0.41167
vt 0.59211 0.35101
vt 0.48532 0.34451
vt 0.36850 0.38477
vt 0.32552 0.37224
vt 0.39721 0.39019
vt 0.36178 0.44017
vt 0.32456 0.34006
vt 0.26694 0.37656
vt 0.32361 0.30931
vt 0.32352 0.30229
vt 0.32220 0.25742
vt 0.32289 0.28350
vt 0.32151 0.23649
vt 0.32069 0.20791
vt 0.32070 0.20573
vt 0.21222 0.23433
vt 0.30895 0.44817
vt 0.37279 0.35170
vt 0.27692 0.39894
vt 0.24973 0.32036
vt 0.27979 0.41091
vt 0.33598 0.28323
vt 0.34985 0.67060
vt 0.26562 0.31687
vt 0.29703 0.25101
vt 0.48046 0.36029
vt 0.31179 0.32171
vt 0.04455 0.54562
vt 0.18079 0.20869
vt 0.52927 0.34284
vt 0.55402 0.21321
vt 0.30829 0.45545
vt 0.18114 0.26742
vt 0.40466 0.22139
vt 0.40418 0.23990
vt 0.33031 0.49886
vt 0.33064 0.50550
vt 0.24025 0.25997
vt 0.30144 0.43647
vt 0.58014 0.37507
vt 0.59313 0.37625
vt 0.63387 0.29624
vt 0.25424 0.46749
vt 0.26007 0.51158
vt 0.40342 0.45817
vt 0.30050 0.41084
vt 0.32554 0.38275
vt 0.51029 0.43126
vt 0.15748 0.30833
vt 0.38028 0.35940
vt 0.32346 0.31359
vt 0.32293 0.28854
vt 0.32220 0.26308
vt 0.28172 0.15159
vt 0.35941 0.20515
vt 0.49323 0.47028
vt 0.55047 0.23518
vt 0.48819 0.69217
vt 0.67157 0.36876
vt 0.38222 0.61957
vt 0.34070 0.32208
vt 0.30476 0.60830
vt 0.25443 0.29625
vt 0.23080 0.25827
vt 0.32441 0.32319
vt 0.20704 0.35057
vt 0.19600 0.11241
vt 0.34985 0.30097
vt 0.45521 0.28497
vt 0.27175 0.28819
vt 0.23016 0.15784
vt 0.31376 0.43217
vt 0.50767 0.34150
vt 0.22256 0.14404
vt 0.32789 0.44895
vt 0.32873 0.47029
vt 0.46875 0.26869
vt 0.23384 0.11349
vt 0.56057 0.15812
vt 0.37995 0.11498
vt 0.21333 0.10280
vt 0.21345 0.10654
vt 0.32561 0.39793
vt 0.51531 0.33559
vt 0.26419 0.26608
vt 0.24057 0.09835
vt 0.22297 0.10853
vt 0.32464 0.36292
vt 0.28238 0.31196
vt 0.27373 0.08408
vt 0.25997 0.09669
vt 0.32405 0.33854
vt 0.58194 0.26273
vt 0.32292 0.30675
vt 0.15702 0.16064
vt 0.32219 0.27449
vt 0.26172 0.15915
vt 0.55832 0.68753
vt 0.29123 0.63388
vt 0.38020 0.66054
vt 0.61891 0.38131
vt 0.25306 0.60415
vt 0.30433 0.61655
vt 0.64017 0.27253
vt 0.24444 0.55432
vt 0.15147 0.14385
vt 0.19963 0.14143
vt 0.35829 0.24693
vt 0.38557 0.25853
vt 0.28129 0.20354
vt 0.13229 0.17787
vt 0.35488 0.20739
vt 0.39063 0.26623
vt 0.73833 0.27952
vt 0.24278 0.30823
vt 0.32742 0.45250
vt 0.87489 0.28069
vt 0.24861 0.25008
vt 0.23885 0.23662
vt 0.85819 0.23638
vt 0.86661 0.24107
vt 0.22818 0.15750
vt 0.32179 0.24853
vt 0.87254 0.21045
vt 0.47997 0.36210
vt 0.26607 0.25450
vt 0.88740 0.19121
vt 0.27423 0.24021
vt 0.15535 0.21732
vt 0.22277 0.75315
vt 0.47681 0.65533
vt 0.72509 0.50675
vt 0.56917 0.48412
vt 0.35252 0.46327
vt 0.28753 0.56766
vt 0.41169 0.44257
vt 0.59954 0.53059
vt 0.53437 0.37167
vt 0.41935 0.41256
vt 0.24373 0.17180
vt 0.83707 0.30242
vt 0.79567 0.30605
vt 0.83690 0.25836
vt 0.84145 0.27782
vt 0.24842 0.24205
vt 0.84339 0.24486
vt 0.29092 0.18698
vt 0.23463 0.17283
vt 0.29695 0.25602
vt 0.27403 0.23978
vt 0.30823 0.22989
vt 0.17868 0.74610
vt 0.46269 0.63439
vt 0.76264 0.40222
vt 0.60610 0.53260
vt 0.73769 0.34013
vt 0.60108 0.36263
vt 0.44843 0.59131
vt 0.40290 0.40095
vt 0.60598 0.58343
vt 0.47042 0.61882
vt 0.44090 0.59712
vt 0.61668 0.50409
vt 0.72880 0.39584
vt 0.48399 0.40907
vt 0.66857 0.43991
vt 0.62021 0.62435
vt 0.67769 0.49552
vt 0.59802 0.61753
vt 0.40806 0.85525
vt 0.49707 0.57102
vt 0.43372 0.54177
vt 0.42201 0.46147
vt 0.52110 0.37560
vt 0.52178 0.62101
vt 0.61900 0.61518
vt 0.13791 0.87659
vt 0.58436 0.19325
vt 0.50924 0.47346
vt 0.62236 0.45375
vt 0.50685 0.58696
vt 0.37850 0.70923
vt 0.31161 0.27512
vt 0.40475 0.45117
vt 0.40378 0.46628
vt 0.53557 0.21366
vt 0.33233 0.46815
vt 0.43134 0.47110
vt 0.59942 0.35719
vt 0.43247 0.49806
vt 0.21143 0.65629
vt 0.21192 0.65631
vt 0.31744 0.23238
vt 0.45393 0.51955
vt 0.47844 0.31944
vt 0.45184 0.50280
vt 0.58233 0.71461
vt 0.75428 0.49441
vt 0.69913 0.54727
vt 0.67160 0.54109
vt 0.59693 0.36246
vt 0.41023 0.31925
vt 0.44906 0.50877
vt 0.60942 0.45360
vt 0.58511 0.48873
vt 0.47792 0.57522
vt 0.31400 0.86300
vt 0.10150 0.42049
vt 0.27611 0.26315
vt 0.19420 0.13112
vt 0.41095 0.54568
vt 0.45182 0.57284
vt 0.42562 0.45416
vt 0.46456 0.39454
vt 0.38450 0.33975
vt 0.38745 0.34675
vt 0.38723 0.11972
vt 0.58078 0.71749
vt 0.76681 0.55092
vt 0.73052 0.75915
vt 0.49968 0.31974
vt 0.22684 0.12725
vn -0.99030 -0.01044 -0.13855
vn 0.62187 -0.78303 0.01205
vn -0.57710 0.65163 0.49228
vn -0.71744 0.69632 -0.02029
vn -0.85551 -0.45617 0.24498
vn -0.58411 -0.44101 -0.68141
vn -0.29045 0.95588 -0.04398
vn -0.97131 -0.10201 -0.21482
vn -0.32381 0.92330 0.20655
vn -0.59578 0.71927 0.35734
vn -0.18499 0.97139 0.14893
vn -0.84718 0.26004 -0.46332
vn -0.04994 0.99596 -0.07468
vn -0.60223 0.75629 0.25560
vn -0.43010 0.50751 0.74662
vn -0.10841 -0.99045 -0.08520
vn -0.80590 -0.15871 -0.57038
vn -0.91095 0.23703 -0.33763
vn -0.77305 -0.54688 -0.32142
vn -0.84209 0.28739 0.45639
vn -0.25227 0.78973 0.55919
vn -0.18720 0.98178 0.03280
vn 0.59138 -0.79961 0.10435
vn 0.59383 -0.76535 -0.24820
vn -0.77817 -0.62798 0.00930
vn 0.60944 -0.71718 -0.33798
vn 0.46997 -0.59206 -0.65467
vn 0.29177 -0.00033 0.95649
vn 0.48718 -0.79042 0.37133
vn 0.59410 -0.79816 -0.09988
vn 0.59688 -0.80225 -0.01142
vn 0.38124 0.87069 0.31073
vn -0.05882 0.26673 0.96197
vn -0.03549 0.74482 -0.66632
vn 0.68874 0.58973 0.42172
vn 0.52980 0.66751 0.52320
vn -0.29796 -0.46001 0.83643
vn -0.62940 -0.47104 -0.61804
vn -0.07872 -0.99490 -0.06302
vn -0.02590 -0.99491 -0.09740
vn 0.04468 -0.97571 -0.21445
vn -0.09000 0.93869 0.33280
vn -0.60092 -0.30066 0.74061
vn -0.18571 0.78506 0.59092
vn -0.42562 0.81523 -0.39274
vn -0.11287 0.99285 0.03889
vn -0.09610 0.97863 0.18181
vn -0.77248 -0.63458 0.02420
vn 0.67456 -0.73805 -0.01582
vn 0.07130 0.08630 -0.99371
vn 0.60239 -0.76921 -0.21316
vn -0.39334 0.26796 -0.87948
vn -0.40963 0.16192 -0.89777
vn -0.67088 -0.70788 0.22099
vn -0.66579 -0.69138 0.28058
vn -0.14036 -0.67932 0.72030
vn 0.33718 -0.72105 0.60530
vn 0.72569 0.67229 -0.14630
vn 0.02219 -0.28426 -0.95849
vn 0.41559 0.40602 0.81390
vn 0.53704 -0.24939 0.80585
vn -0.50257 -0.57017 -0.64987
vn 0.50330 0.56730 0.65181
vn -0.48398 0.25630 -0.83670
vn 0.23273 0.91768 0.32201
vn -0.06019 -0.02671 0.99783
vn -0.00430 -0.35679 0.93417
vn -0.41875 0.29933 -0.85735
vn -0.47205 0.36683 -0.80163
vn -0.15078 -0.98820 -0.02691
vn -0.26038 -0.95734 -0.12529
vn -0.68840 -0.06805 0.72213
vn -0.55894 -0.17186 0.81120
vn -0.67241 -0.19663 0.71359
vn 0.03210 0.91812 0.39501
vn 0.06240 0.98848 -0.13790
vn 0.12930 0.99158 0.00780
vn -0.76069 -0.64479 -0.07480
vn 0.34957 0.07437 -0.93395
vn 0.43110 -0.63576 0.64028
vn 0.77506 0.63128 -0.02779
vn 0.71887 0.67327 -0.17299
vn -0.71842 -0.67432 0.17080
vn 0.68034 -0.48453 0.54988
vn -0.26829 -0.55168 0.78973
vn 0.67249 0.70549 -0.22370
vn 0.63577 0.74722 -0.19352
vn 0.03664 0.30164 0.95272
vn 0.78416 -0.62006 -0.02498
vn 0.46620 -0.81145 0.35244
vn 0.29880 0.65034 -0.69840
vn -0.24700 -0.90890 -0.33600
vn 0.10265 -0.46444 0.87964
vn -0.27702 0.34551 -0.89660
vn 0.45865 0.86186 -0.21644
vn -0.74492 0.41693 0.52082
vn -0.37301 -0.92631 -0.05300
vn -0.34259 -0.93701 -0.06822
vn 0.24382 0.89963 0.36223
vn -0.38619 -0.31391 0.86736
vn -0.76752 -0.59984 -0.22608
vn -0.79311 -0.60771 0.04090
vn 0.75415 0.63194 -0.17861
vn -0.71380 -0.65610 0.24500
vn 0.66671 0.56991 0.48031
vn 0.66399 -0.73974 -0.10912
vn -0.77033 -0.63723 -0.02300
vn 0.74239 0.65679 -0.13220
vn 0.25539 -0.52226 -0.81365
vn 0.58951 -0.30510 0.74792
vn 0.00080 -0.78848 0.61506
vn 0.01816 -0.79277 0.60926
vn 0.16496 -0.48410 -0.85932
vn 0.19546 0.27118 0.94247
vn -0.65994 -0.59588 0.45761
vn 0.63540 -0.75714 0.15169
vn 0.90870 0.40481 0.10191
vn 0.26583 -0.83002 0.49030
vn 0.32404 0.65164 -0.68583
vn -0.86661 -0.49701 -0.04440
vn -0.35282 0.07071 -0.93302
vn -0.71022 -0.54729 -0.44279
vn -0.42145 0.59320 0.68592
vn 0.51603 0.84063 -0.16445
vn 0.16149 -0.34660 0.92401
vn 0.33053 -0.25953 0.90741
vn 0.52690 0.78826 -0.31784
vn 0.57385 0.81382 -0.09159
vn -0.63036 0.36756 0.68378
vn 0.35982 -0.20616 0.90996
vn -0.28650 -0.94789 -0.13940
vn -0.87701 -0.48031 -0.01230
vn -0.85399 -0.49619 0.15650
vn -0.53846 -0.15789 0.82773
vn 0.11679 0.42845 -0.89599
vn 0.08480 -0.00196 -0.99640
vn -0.81879 -0.56409 0.10670
vn 0.78022 0.58591 -0.21901
vn 0.36039 -0.79326 0.49077
vn 0.17849 0.00094 -0.98394
vn 0.79338 0.60728 -0.04190
vn 0.71562 0.65231 -0.24974
vn 0.59402 -0.76861 -0.23745
vn -0.29169 -0.11588 -0.94947
vn 0.56591 -0.25301 0.78469
vn -0.14551 -0.76595 0.62622
vn -0.01253 -0.82015 0.57201
vn 0.72726 -0.64518 0.23416
vn 0.94152 0.03044 0.33559
vn 0.02960 -0.54059 0.84076
vn 0.76072 0.21184 -0.61354
vn 0.62771 0.77291 -0.09270
vn 0.76711 0.21500 -0.60441
vn 0.22431 0.66116 -0.71592
vn -0.70548 -0.11950 -0.69858
vn -0.90179 -0.42459 -0.08060
vn -0.32437 0.19606 -0.92539
vn -0.78213 -0.50592 0.36375
vn 0.56090 0.47416 -0.67865
vn 0.53183 0.70658 -0.46681
vn -0.31170 0.76963 0.55724
vn 0.75989 0.60616 -0.23480
vn 0.48650 0.81433 -0.31654
vn -0.15857 0.37415 0.91371
vn -0.42120 -0.90470 0.06410
vn -0.45930 -0.88761 -0.03449
vn 0.58282 -0.25098 0.77287
vn 0.47186 -0.22785 0.85173
vn -0.05286 -0.99271 -0.10834
vn 0.38598 -0.43952 0.81107
vn 0.41840 0.90660 -0.05490
vn -0.67667 0.43162 0.59652
vn -0.54228 0.15352 -0.82605
vn -0.11480 -0.31552 -0.94195
vn 0.47250 -0.46641 0.74780
vn -0.21257 0.53332 -0.81877
vn 0.87691 0.48061 0.00620
vn 0.85218 0.49813 -0.16018
vn -0.43632 0.89444 0.09795
vn 0.35100 -0.89067 -0.28897
vn -0.43618 -0.50417 -0.74536
vn 0.43421 0.50247 0.74765
vn -0.37118 0.14521 -0.91714
vn -0.24754 -0.16524 -0.95468
vn -0.00931 -0.49856 -0.86681
vn -0.02438 -0.29551 0.95503
vn -0.85316 0.48228 0.19880
vn 0.78891 0.59437 -0.15603
vn -0.35519 -0.46090 0.81327
vn 0.44621 -0.83703 0.31668
vn 0.59555 0.48970 -0.63680
vn 0.01441 -0.82107 0.57065
vn -0.50195 0.80892 -0.30609
vn -0.06099 0.82066 -0.56815
vn -0.81187 0.02433 -0.58333
vn -0.91000 0.00680 0.41454
vn -0.96934 0.02913 -0.24400
vn -0.87724 -0.09148 0.47126
vn -0.92882 0.03260 -0.36908
vn -0.98480 -0.16767 0.04530
vn -0.98520 -0.07982 -0.15170
vn -0.97386 -0.01800 -0.22641
vn -0.47175 -0.44390 0.76184
vn -0.93402 -0.13182 -0.33202
vn 0.31116 0.90387 -0.29359
vn -0.93225 -0.32686 0.15513
vn -0.07352 -0.59645 0.79927
vn -0.56642 -0.27091 -0.77832
vn -0.93115 -0.19843 -0.30592
vn -0.71903 0.02233 0.69462
vn 0.72918 0.62564 -0.27726
vn 0.26569 -0.34120 0.90166
vn 0.54093 0.44873 0.71136
vn -0.78781 -0.29734 -0.53939
vn -0.22900 -0.18405 -0.95587
vn -0.37326 -0.22805 0.89926
vn -0.64088 -0.29646 0.70808
vn -0.06732 0.68558 0.72487
vn 0.70317 -0.00571 0.71100
vn 0.82280 -0.31960 0.46995
vn 0.51629 0.68867 -0.50909
vn -0.66684 0.29515 0.68425
vn -0.18596 0.04254 -0.98164
vn 0.89573 0.21153 -0.39106
vn 0.19974 -0.18355 0.96250
vn 0.61108 0.77671 -0.15265
vn 0.68593 0.72391 0.07386
vn 0.76008 -0.28465 0.58417
vn 0.74068 -0.02374 0.67144
vn -0.23964 -0.78627 0.56952
vn 0.95287 0.29293 -0.07889
vn -0.95541 -0.28527 0.07627
vn 0.90215 0.22426 -0.36856
vn 0.58957 -0.10938 0.80028
vn -0.40540 -0.44321 -0.79951
vn 0.39579 0.44106 0.80549
vn 0.49182 -0.57164 0.65677
vn 0.52038 -0.20873 0.82803
vn 0.53415 -0.41469 0.73669
vn -0.42111 0.85711 -0.29670
vn 0.37787 -0.42036 0.82493
vn 0.21297 -0.58592 0.78188
vn 0.15229 -0.85321 0.49884
vn 0.78591 0.58828 0.19046
vn 0.27406 -0.83828 0.47136
vn -0.76471 -0.30314 0.56862
vn 0.91322 -0.36465 -0.18183
vn 0.71914 0.39551 -0.57132
vn -0.42664 -0.63998 0.63906
vn -0.45073 -0.58489 0.67435
vn -0.27378 -0.72228 0.63511
vn 0.19586 0.74240 -0.64069
vn 0.47958 -0.00614 -0.87748
vn 0.32312 -0.01193 0.94628
vn 0.18469 0.06662 -0.98054
vn 0.06474 -0.04104 0.99706
vn 0.07222 0.09336 -0.99301
vn 0.13669 0.08152 0.98725
vn -0.06081 -0.34331 0.93725
vn 0.53312 -0.11145 -0.83867
vn -0.59481 0.58775 0.54840
vn 0.84185 -0.09945 0.53047
vn 0.85831 -0.31314 -0.40651
vn -0.47821 -0.17410 -0.86082
vn -0.42497 0.44632 0.78753
vn 0.92497 -0.00703 0.37998
vn 0.97907 0.08841 0.18330
vn 0.51237 -0.57080 -0.64161
vn 0.97407 0.22369 -0.03397
vn 0.83810 -0.28374 0.46592
vn 0.94826 -0.20701 0.24071
vn 0.80333 -0.59381 -0.04537
vn -0.90817 -0.06450 0.41360
vn 0.99258 0.04769 -0.11189
vn 0.99680 0.03142 -0.07348
vn 0.99245 -0.08488 0.08850
vn 0.97555 -0.11436 0.18770
vn 0.95982 0.18258 0.21310
vn -0.31489 -0.32739 -0.89088
vn 0.94481 0.15030 -0.29110
vn 0.30782 0.32432 0.89446
vn -0.26623 -0.43965 -0.85780
vn 0.49609 0.67659 -0.54416
vn 0.26599 0.44548 0.85487
vn -0.27171 -0.53462 -0.80022
vn 0.27282 0.53264 0.80116
vn 0.63109 -0.71569 0.29917
vn -0.50573 0.77689 -0.37507
vn -0.13748 -0.78068 0.60962
vn 0.06190 0.74304 -0.66638
vn 0.42545 0.57077 -0.70229
vn 0.96554 -0.21631 -0.14471
vn 0.92872 -0.22381 0.29561
vn 0.83131 -0.33685 -0.44211
vn 0.73026 -0.30467 0.61147
vn -0.80767 0.37778 -0.45272
vn 0.92404 -0.09515 0.37026
vn -0.79013 0.55173 -0.26698
vn 0.99556 -0.09084 -0.02459
vn -0.11530 -0.40280 -0.90800
vn 0.90801 -0.41797 0.02864
vn 0.46445 -0.08137 -0.88185
vn 0.40700 -0.36304 0.83818
vn 0.89402 -0.43991 -0.08492
vn 0.36721 0.24491 0.89732
vn 0.54039 0.83003 -0.13795
vn -0.66052 0.09579 0.74467
vn -0.10477 -0.41844 -0.90218
vn 0.37728 0.06608 0.92374
vn 0.91952 -0.13323 -0.36976
vn 0.39305 -0.88432 0.25197
vn 0.30418 -0.91699 0.25809
vn 0.70252 0.11803 0.70181
vn 0.93728 0.08694 -0.33756
vn 0.60609 0.21960 0.76448
vn 0.79847 0.18193 0.57389
vn 0.96788 0.24068 -0.07267
vn 0.89239 0.40893 -0.19085
vn 0.77630 0.42766 -0.46310
vn 0.60909 0.20570 0.76596
vn 0.87123 0.11224 0.47787
vn 0.97455 0.03695 0.22110
vn 0.96728 0.17641 0.18236
vn 0.05867 0.82791 -0.55778
vn 0.79850 0.15044 0.58290
vn 0.91386 0.12616 0.38593
vn 0.95340 0.18816 0.23585
vn 0.42040 -0.80243 0.42352
vn 0.77538 0.21581 0.59347
vn -0.58549 -0.52773 0.61539
vn -0.15531 -0.33082 -0.93083
vn -0.56809 -0.51425 0.64251
vn 0.76695 0.61409 -0.18622
vn 0.75290 -0.60640 -0.25580
vn 0.01893 -0.29232 -0.95613
vn 0.76852 -0.32415 -0.55164
vn 0.46909 -0.39119 0.79179
vn -0.44396 0.04545 -0.89489
vn -0.56438 0.77393 0.28725
vn -0.67789 0.73190 0.06924
vn -0.68571 0.18192 -0.70478
vn 0.54707 -0.35634 0.75745
vn 0.12036 0.07703 0.98974
vn 0.36002 -0.58329 -0.72812
vn 0.84196 -0.13756 0.52170
vn 0.14961 0.04311 0.98780
vn -0.26353 0.28446 0.92176
vn 0.94757 -0.21133 -0.23967
vn 0.86845 -0.28791 0.40361
vn 0.06454 0.40883 0.91033
vn 0.92979 0.08143 -0.35896
vn 0.58651 -0.79407 0.15957
vn 0.28506 0.34914 0.89266
vn 0.77652 -0.62472 0.08205
vn 0.93194 -0.32144 -0.16780
vn 0.37570 0.21180 0.90221
vn 0.32900 0.28266 0.90103
vn 0.04529 -0.52668 -0.84885
vn 0.41393 0.55228 0.72364
vn 0.48098 0.31351 0.81876
vn 0.66979 0.20980 0.71229
vn 0.84923 -0.52531 0.05345
vn 0.62209 0.23112 0.74806
vn 0.93213 -0.03470 -0.36045
vn 0.69261 0.35857 -0.62587
vn 0.54287 -0.57055 -0.61625
vn 0.80086 -0.59858 0.01831
vn 0.52166 -0.57945 0.62618
vn -0.28498 0.00201 0.95853
vn 0.00298 -0.44176 -0.89713
vn -0.68514 0.65412 0.32048
vn -0.65842 0.66312 0.35601
vn -0.48972 0.08332 0.86789
vn -0.63615 0.32895 -0.69793
vn -0.53740 0.74350 0.39800
vn -0.16179 0.53724 0.82777
vn 0.15601 0.55736 0.81548
vn 0.00129 0.57325 0.81938
vn 0.31511 0.40751 0.85712
vn 0.24689 0.44245 0.86214
vn 0.85842 -0.51092 -0.04553
vn 0.36104 0.32160 0.87534
vn -0.33951 -0.34381 -0.87552
vn 0.98369 0.16869 0.06244
vn 0.92787 -0.01547 -0.37259
vn 0.90786 -0.41778 -0.03537
vn 0.62846 0.46216 -0.62565
vn 0.54571 -0.67761 -0.49301
vn 0.69203 -0.63158 -0.34956
vn 0.61216 0.60082 0.51409
vn -0.47993 -0.07549 0.87405
vn -0.00509 -0.54812 -0.83639
vn -0.45204 0.45656 -0.76630
vn 0.23290 -0.45087 0.86167
vn -0.39102 -0.28077 0.87651
vn -0.29927 0.92746 0.22420
vn 0.81830 0.43685 -0.37355
vn 0.87628 0.45838 -0.14839
vn -0.30152 0.95192 0.05421
vn -0.03752 -0.10274 0.99400
vn -0.36090 -0.27898 0.88990
vn -0.43698 0.43079 -0.78960
vn 0.14746 -0.94868 -0.27975
vn 0.06589 -0.96076 -0.26945
vn 0.19072 -0.96420 -0.18422
vn 0.98450 0.14781 0.09439
vn -0.31322 0.93517 0.16535
vn -0.32269 -0.21662 0.92138
vn -0.24745 -0.34683 0.90470
vn -0.36649 -0.36989 -0.85373
vn -0.29106 0.53143 -0.79553
vn -0.01659 -0.97928 -0.20185
vn 0.04980 0.97177 0.23059
vn -0.39338 -0.37572 -0.83910
vn 0.96915 -0.18961 -0.15745
vn -0.07248 -0.98825 -0.13454
vn -0.02105 -0.99883 -0.04345
vn -0.04638 -0.99307 -0.10794
vn -0.09439 0.01222 0.99546
vn 0.10021 0.83123 -0.54682
vn -0.19406 -0.97349 -0.12107
vn 0.07327 0.25971 -0.96290
vn 0.74514 -0.38263 -0.54622
vn 0.84913 -0.42621 -0.31196
vn -0.37431 -0.92333 -0.08570
vn -0.28744 -0.95716 -0.03498
vn 0.61697 -0.37161 0.69373
vn 0.55048 -0.24214 0.79896
vn 0.20237 -0.18098 0.96244
vn -0.79542 -0.60442 -0.04450
vn -0.24812 -0.44499 -0.86048
vn 0.79120 0.58413 -0.18108
vn -0.80613 -0.58752 0.07050
vn -0.74799 -0.66337 0.02132
vn 0.71709 -0.69086 -0.09218
vn -0.71036 -0.70226 -0.04720
vn -0.63753 -0.76731 -0.06923
vn 0.46013 -0.38865 0.79827
vn 0.67739 0.72038 -0.14898
vn -0.70810 -0.70610 0.00310
vn 0.56040 0.82756 0.03309
vn 0.56281 0.82652 0.01100
vn 0.59026 0.80205 0.09119
vn 0.53499 0.82689 0.17330
vn -0.32184 -0.94676 0.00741
vn -0.40142 -0.89905 0.17481
vn 0.76212 0.14252 -0.63155
vn 0.40851 -0.55082 -0.72782
vn 0.91054 0.36043 -0.20248
vn 0.65715 -0.69645 0.28828
vn 0.62598 -0.66567 0.40624
vn 0.77733 -0.38364 0.49858
vn 0.28652 -0.77064 0.56923
vn -0.84555 -0.52343 0.10521
vn -0.77637 -0.62837 0.04900
vn 0.46842 -0.61297 0.63628
vn 0.40139 -0.62113 0.67312
vn 0.94861 0.30760 -0.07430
usemtl lingcao_qingxin_sprout_mat
s off
f 438/438/438 457/457/457 436/436/436
f 436/436/436 457/457/457 437/437/437
f 427/427/427 429/429/429 444/444/444
f 438/438/438 429/429/429 427/427/427
f 428/428/428 429/429/429 427/427/427
f 457/457/457 452/452/452 456/456/456
f 453/453/453 457/457/457 452/452/452
f 428/428/428 419/419/419 429/429/429
f 419/419/419 428/428/428 418/418/418
f 408/408/408 401/401/401 407/407/407
f 401/401/401 395/395/395 400/400/400
f 390/390/390 373/373/373 391/391/391
f 368/368/368 390/390/390 373/373/373
f 373/373/373 369/369/369 368/368/368
f 368/368/368 340/340/340 369/369/369
f 342/342/342 306/306/306 343/343/343
f 346/346/346 343/343/343 347/347/347
f 346/346/346 342/342/342 343/343/343
f 307/307/307 310/310/310 306/306/306
f 376/376/376 378/378/378 346/346/346
f 350/350/350 346/346/346 378/378/378
f 317/317/317 323/323/323 318/318/318
f 126/126/126 93/93/93 92/92/92
f 168/168/168 126/126/126 125/125/125
f 100/100/100 92/92/92 93/93/93
f 99/99/99 93/93/93 126/126/126
f 93/93/93 99/99/99 100/100/100
f 228/228/228 229/229/229 166/166/166
f 227/227/227 220/220/220 228/228/228
f 220/220/220 278/278/278 226/226/226
f 226/226/226 277/277/277 220/220/220
f 277/277/277 226/226/226 219/219/219
f 278/278/278 277/277/277 226/226/226
f 66/66/66 75/75/75 37/37/37
f 37/37/37 16/16/16 44/44/44
f 40/40/40 41/41/41 17/17/17
f 17/17/17 18/18/18 47/47/47
f 22/22/22 17/17/17 47/47/47
f 205/205/205 269/269/269 265/265/265
f 157/157/157 155/155/155 156/156/156
f 211/211/211 210/210/210 157/157/157
f 219/219/219 276/276/276 277/277/277
f 276/276/276 213/213/213 271/271/271
f 213/213/213 276/276/276 219/219/219
f 271/271/271 270/270/270 213/213/213
f 127/127/127 122/122/122 121/121/121
f 70/70/70 95/95/95 69/69/69
f 68/68/68 69/69/69 95/95/95
f 94/94/94 68/68/68 95/95/95
f 299/299/299 265/265/265 302/302/302
f 210/210/210 216/216/216 269/269/269
f 216/216/216 274/274/274 269/269/269
f 216/216/216 217/217/217 225/225/225
f 224/224/224 216/216/216 225/225/225
f 280/280/280 216/216/216 224/224/224
f 216/216/216 280/280/280 275/275/275
f 224/224/224 225/225/225 280/280/280
f 224/224/224 234/234/234 233/233/233
f 216/216/216 275/275/275 274/274/274
f 241/241/241 239/239/239 238/238/238
f 159/159/159 157/157/157 160/160/160
f 120/120/120 159/159/159 160/160/160
f 160/160/160 159/159/159 121/121/121
f 70/70/70 38/38/38 69/69/69
f 76/76/76 77/77/77 70/70/70
f 70/70/70 69/69/69 76/76/76
f 39/39/39 70/70/70 40/40/40
f 39/39/39 38/38/38 70/70/70
f 46/46/46 77/77/77 45/45/45
f 77/77/77 76/76/76 45/45/45
f 40/40/40 17/17/17 39/39/39
f 241/241/241 186/186/186 244/244/244
f 244/244/244 241/241/241 242/242/242
f 186/186/186 241/241/241 185/185/185
f 150/150/150 115/115/115 149/149/149
f 114/114/114 149/149/149 115/115/115
f 149/149/149 114/114/114 113/113/113
f 149/149/149 152/152/152 150/150/150
f 149/149/149 115/115/115 152/152/152
f 144/144/144 189/189/189 188/188/188
f 189/189/189 145/145/145 144/144/144
f 113/113/113 114/114/114 87/87/87
f 325/325/325 326/326/326 321/321/321
f 87/87/87 117/117/117 88/88/88
f 87/87/87 115/115/115 117/117/117
f 87/87/87 114/114/114 115/115/115
f 117/117/117 114/114/114 87/87/87
f 86/86/86 60/60/60 87/87/87
f 55/55/55 60/60/60 54/54/54
f 59/59/59 54/54/54 60/60/60
f 60/60/60 59/59/59 27/27/27
f 60/60/60 61/61/61 27/27/27
f 61/61/61 28/28/28 27/27/27
f 28/28/28 33/33/33 27/27/27
f 33/33/33 32/32/32 27/27/27
f 27/27/27 32/32/32 5/5/5
f 27/27/27 5/5/5 4/4/4
f 26/26/26 3/3/3 2/2/2
f 2/2/2 25/25/25 26/26/26
f 2/2/2 15/15/15 3/3/3
f 2/2/2 14/14/14 15/15/15
f 2/2/2 13/13/13 14/14/14
f 2/2/2 12/12/12 13/13/13
f 11/11/11 12/12/12 2/2/2
f 2/2/2 31/31/31 1/1/1
f 2/2/2 1/1/1 11/11/11
f 446/446/446 450/450/450 445/445/445
f 449/449/449 445/445/445 450/450/450
f 449/449/449 450/450/450 458/458/458
f 445/445/445 449/449/449 448/448/448
f 448/448/448 454/454/454 431/431/431
f 423/423/423 421/421/421 420/420/420
f 414/414/414 422/422/422 423/423/423
f 420/420/420 414/414/414 423/423/423
f 423/423/423 422/422/422 420/420/420
f 421/421/421 412/412/412 410/410/410
f 421/421/421 410/410/410 420/420/420
f 411/411/411 412/412/412 421/421/421
f 420/420/420 411/411/411 421/421/421
f 411/411/411 410/410/410 412/412/412
f 412/412/412 403/403/403 402/402/402
f 402/402/402 411/411/411 412/412/412
f 430/430/430 447/447/447 448/448/448
f 431/431/431 430/430/430 448/448/448
f 432/432/432 431/431/431 439/439/439
f 422/422/422 439/439/439 431/431/431
f 439/439/439 423/423/423 422/422/422
f 370/370/370 371/371/371 366/366/366
f 375/375/375 393/393/393 374/374/374
f 374/374/374 393/393/393 394/394/394
f 392/392/392 402/402/402 396/396/396
f 371/371/371 341/341/341 338/338/338
f 341/341/341 370/370/370 366/366/366
f 304/304/304 301/301/301 305/305/305
f 380/380/380 378/378/378 377/377/377
f 380/380/380 379/379/379 382/382/382
f 308/308/308 345/345/345 344/344/344
f 348/348/348 352/352/352 349/349/349
f 352/352/352 348/348/348 351/351/351
f 319/319/319 351/351/351 355/355/355
f 360/360/360 320/320/320 357/357/357
f 357/357/357 382/382/382 356/356/356
f 329/329/329 325/325/325 361/361/361
f 363/363/363 329/329/329 361/361/361
f 361/361/361 360/360/360 363/363/363
f 354/354/354 381/381/381 359/359/359
f 384/384/384 359/359/359 381/381/381
f 383/383/383 384/384/384 359/359/359
f 359/359/359 324/324/324 328/328/328
f 359/359/359 358/358/358 362/362/362
f 328/328/328 362/362/362 359/359/359
f 385/385/385 362/362/362 386/386/386
f 362/362/362 385/385/385 387/387/387
f 362/362/362 387/387/387 364/364/364
f 287/287/287 328/328/328 362/362/362
f 332/332/332 330/330/330 364/364/364
f 364/364/364 365/365/365 332/332/332
f 365/365/365 331/331/331 332/332/332
f 290/290/290 333/333/333 331/331/331
f 253/253/253 255/255/255 257/257/257
f 256/256/256 254/254/254 253/253/253
f 257/257/257 256/256/256 253/253/253
f 256/256/256 257/257/257 258/258/258
f 9/9/9 11/11/11 1/1/1
f 9/9/9 10/10/10 11/11/11
f 90/90/90 89/89/89 118/118/118
f 65/65/65 34/34/34 63/63/63
f 34/34/34 65/65/65 62/62/62
f 35/35/35 34/34/34 36/36/36
f 6/6/6 34/34/34 8/8/8
f 8/8/8 7/7/7 6/6/6
f 251/251/251 250/250/250 252/252/252
f 250/250/250 290/290/290 291/291/291
f 250/250/250 291/291/291 252/252/252
f 193/193/193 192/192/192 252/252/252
f 192/192/192 193/193/193 194/194/194
f 118/118/118 154/154/154 119/119/119
f 90/90/90 119/119/119 118/118/118
f 64/64/64 65/65/65 90/90/90
f 90/90/90 119/119/119 91/91/91
f 90/90/90 91/91/91 64/64/64
f 438/438/438 437/437/437 457/457/457
f 443/443/443 438/438/438 436/436/436
f 438/438/438 444/444/444 429/429/429
f 444/444/444 438/438/438 443/443/443
f 444/444/444 443/443/443 427/427/427
f 437/437/437 438/438/438 427/427/427
f 436/436/436 437/437/437 438/438/438
f 456/456/456 452/452/452 451/451/451
f 457/457/457 456/456/456 436/436/436
f 451/451/451 452/452/452 457/457/457
f 451/451/451 457/457/457 456/456/456
f 426/426/426 427/427/427 443/443/443
f 426/426/426 443/443/443 442/442/442
f 443/443/443 436/436/436 435/435/435
f 443/443/443 435/435/435 442/442/442
f 437/437/437 427/427/427 426/426/426
f 437/437/437 426/426/426 442/442/442
f 435/435/435 436/436/436 437/437/437
f 435/435/435 437/437/437 442/442/442
f 436/436/436 456/456/456 455/455/455
f 436/436/436 455/455/455 435/435/435
f 427/427/427 426/426/426 428/428/428
f 441/441/441 442/442/442 426/426/426
f 441/441/441 426/426/426 425/425/425
f 426/426/426 416/416/416 425/425/425
f 417/417/417 418/418/418 428/428/428
f 417/417/417 428/428/428 426/426/426
f 418/418/418 419/419/419 409/409/409
f 418/418/418 409/409/409 408/408/408
f 418/418/418 408/408/408 406/406/406
f 418/418/418 406/406/406 417/417/417
f 399/399/399 406/406/406 408/408/408
f 399/399/399 408/408/408 407/407/407
f 426/426/426 417/417/417 416/416/416
f 417/417/417 406/406/406 405/405/405
f 417/417/417 405/405/405 416/416/416
f 406/406/406 399/399/399 398/398/398
f 406/406/406 398/398/398 405/405/405
f 337/337/337 368/368/368 340/340/340
f 297/297/297 337/337/337 299/299/299
f 407/407/407 401/401/401 400/400/400
f 395/395/395 391/391/391 400/400/400
f 399/399/399 400/400/400 391/391/391
f 399/399/399 391/391/391 390/390/390
f 407/407/407 400/400/400 399/399/399
f 389/389/389 398/398/398 399/399/399
f 389/389/389 399/399/399 390/390/390
f 299/299/299 302/302/302 303/303/303
f 303/303/303 343/343/343 307/307/307
f 303/303/303 302/302/302 306/306/306
f 303/303/303 306/306/306 343/343/343
f 342/342/342 346/346/346 347/347/347
f 342/342/342 347/347/347 343/343/343
f 342/342/342 346/346/346 309/309/309
f 342/342/342 309/309/309 306/306/306
f 309/309/309 346/346/346 313/313/313
f 313/313/313 346/346/346 350/350/350
f 314/314/314 310/310/310 309/309/309
f 314/314/314 309/309/309 313/313/313
f 316/316/316 317/317/317 314/314/314
f 316/316/316 314/314/314 313/313/313
f 322/322/322 317/317/317 316/316/316
f 322/322/322 316/316/316 321/321/321
f 315/315/315 321/321/321 316/316/316
f 125/125/125 126/126/126 92/92/92
f 126/126/126 125/125/125 99/99/99
f 227/227/227 228/228/228 166/166/166
f 227/227/227 220/220/220 226/226/226
f 125/125/125 168/168/168 167/167/167
f 125/125/125 167/167/167 166/166/166
f 167/167/167 229/229/229 166/166/166
f 131/131/131 125/125/125 92/92/92
f 131/131/131 92/92/92 99/99/99
f 92/92/92 100/100/100 74/74/74
f 92/92/92 74/74/74 99/99/99
f 99/99/99 125/125/125 131/131/131
f 74/74/74 100/100/100 99/99/99
f 125/125/125 166/166/166 130/130/130
f 125/125/125 130/130/130 131/131/131
f 166/166/166 171/171/171 130/130/130
f 165/165/165 166/166/166 130/130/130
f 166/166/166 227/227/227 164/164/164
f 166/166/166 164/164/164 171/171/171
f 164/164/164 166/166/166 165/165/165
f 131/131/131 99/99/99 73/73/73
f 131/131/131 73/73/73 98/98/98
f 98/98/98 130/130/130 131/131/131
f 130/130/130 171/171/171 129/129/129
f 129/129/129 165/165/165 130/130/130
f 129/129/129 130/130/130 98/98/98
f 66/66/66 93/93/93 67/67/67
f 66/66/66 100/100/100 93/93/93
f 93/93/93 100/100/100 75/75/75
f 93/93/93 75/75/75 66/66/66
f 74/74/74 100/100/100 66/66/66
f 74/74/74 66/66/66 43/43/43
f 66/66/66 37/37/37 44/44/44
f 66/66/66 44/44/44 43/43/43
f 75/75/75 100/100/100 74/74/74
f 75/75/75 74/74/74 43/43/43
f 44/44/44 37/37/37 75/75/75
f 44/44/44 75/75/75 43/43/43
f 37/37/37 44/44/44 21/21/21
f 37/37/37 21/21/21 16/16/16
f 99/99/99 74/74/74 73/73/73
f 43/43/43 74/74/74 73/73/73
f 20/20/20 43/43/43 44/44/44
f 41/41/41 73/73/73 43/43/43
f 41/41/41 43/43/43 19/19/19
f 43/43/43 20/20/20 19/19/19
f 43/43/43 41/41/41 42/42/42
f 19/19/19 43/43/43 42/42/42
f 97/97/97 98/98/98 71/71/71
f 98/98/98 73/73/73 72/72/72
f 98/98/98 72/72/72 71/71/71
f 98/98/98 130/130/130 97/97/97
f 73/73/73 41/41/41 72/72/72
f 41/41/41 19/19/19 18/18/18
f 40/40/40 72/72/72 41/41/41
f 18/18/18 42/42/42 41/41/41
f 18/18/18 41/41/41 47/47/47
f 41/41/41 72/72/72 46/46/46
f 41/41/41 46/46/46 47/47/47
f 44/44/44 16/16/16 21/21/21
f 44/44/44 21/21/21 20/20/20
f 19/19/19 42/42/42 18/18/18
f 17/17/17 41/41/41 18/18/18
f 258/258/258 295/295/295 297/297/297
f 258/258/258 256/256/256 295/295/295
f 254/254/254 256/256/256 198/198/198
f 254/254/254 198/198/198 196/196/196
f 200/200/200 198/198/198 256/256/256
f 200/200/200 256/256/256 258/258/258
f 200/200/200 258/258/258 259/259/259
f 207/207/207 266/266/266 267/267/267
f 207/207/207 206/206/206 266/266/266
f 270/270/270 212/212/212 207/207/207
f 270/270/270 207/207/207 267/267/267
f 212/212/212 206/206/206 207/207/207
f 262/262/262 259/259/259 258/258/258
f 259/259/259 262/262/262 203/203/203
f 258/258/258 261/261/261 262/262/262
f 266/266/266 262/262/262 261/261/261
f 266/266/266 206/206/206 267/267/267
f 297/297/297 299/299/299 261/261/261
f 261/261/261 299/299/299 265/265/265
f 206/206/206 266/266/266 261/261/261
f 262/262/262 266/266/266 206/206/206
f 262/262/262 206/206/206 203/203/203
f 200/200/200 259/259/259 203/203/203
f 202/202/202 200/200/200 203/203/203
f 206/206/206 202/202/202 203/203/203
f 158/158/158 206/206/206 212/212/212
f 261/261/261 205/205/205 206/206/206
f 205/205/205 261/261/261 202/202/202
f 205/205/205 211/211/211 206/206/206
f 202/202/202 206/206/206 205/205/205
f 155/155/155 205/205/205 206/206/206
f 155/155/155 206/206/206 156/156/156
f 205/205/205 210/210/210 211/211/211
f 205/205/205 155/155/155 210/210/210
f 206/206/206 158/158/158 157/157/157
f 206/206/206 157/157/157 156/156/156
f 278/278/278 220/220/220 277/277/277
f 219/219/219 226/226/226 164/164/164
f 226/226/226 227/227/227 164/164/164
f 219/219/219 276/276/276 271/271/271
f 219/219/219 271/271/271 213/213/213
f 213/213/213 219/219/219 218/218/218
f 213/213/213 212/212/212 270/270/270
f 163/163/163 226/226/226 219/219/219
f 219/219/219 164/164/164 163/163/163
f 219/219/219 163/163/163 161/161/161
f 161/161/161 218/218/218 219/219/219
f 218/218/218 213/213/213 212/212/212
f 218/218/218 212/212/212 161/161/161
f 158/158/158 213/213/213 218/218/218
f 158/158/158 218/218/218 161/161/161
f 227/227/227 226/226/226 163/163/163
f 227/227/227 163/163/163 164/164/164
f 123/123/123 163/163/163 161/161/161
f 123/123/123 161/161/161 162/162/162
f 161/161/161 160/160/160 162/162/162
f 171/171/171 164/164/164 124/124/124
f 171/171/171 124/124/124 129/129/129
f 124/124/124 164/164/164 165/165/165
f 124/124/124 165/165/165 129/129/129
f 163/163/163 164/164/164 124/124/124
f 96/96/96 129/129/129 98/98/98
f 96/96/96 98/98/98 97/97/97
f 129/129/129 124/124/124 128/128/128
f 129/129/129 128/128/128 96/96/96
f 97/97/97 130/130/130 129/129/129
f 97/97/97 129/129/129 96/96/96
f 163/163/163 124/124/124 128/128/128
f 163/163/163 128/128/128 123/123/123
f 122/122/122 162/162/162 123/123/123
f 123/123/123 128/128/128 95/95/95
f 123/123/123 95/95/95 122/122/122
f 128/128/128 96/96/96 95/95/95
f 128/128/128 123/123/123 127/127/127
f 128/128/128 127/127/127 95/95/95
f 123/123/123 122/122/122 127/127/127
f 70/70/70 97/97/97 96/96/96
f 70/70/70 96/96/96 95/95/95
f 212/212/212 213/213/213 158/158/158
f 212/212/212 270/270/270 267/267/267
f 212/212/212 267/267/267 206/206/206
f 212/212/212 206/206/206 211/211/211
f 160/160/160 212/212/212 211/211/211
f 299/299/299 303/303/303 265/265/265
f 265/265/265 303/303/303 269/269/269
f 303/303/303 307/307/307 269/269/269
f 306/306/306 302/302/302 269/269/269
f 306/306/306 269/269/269 307/307/307
f 265/265/265 269/269/269 302/302/302
f 310/310/310 306/306/306 309/309/309
f 206/206/206 211/211/211 157/157/157
f 205/205/205 269/269/269 210/210/210
f 210/210/210 155/155/155 157/157/157
f 225/225/225 217/217/217 275/275/275
f 225/225/225 275/275/275 280/280/280
f 216/216/216 275/275/275 217/217/217
f 234/234/234 224/224/224 225/225/225
f 237/237/237 238/238/238 234/234/234
f 237/237/237 234/234/234 233/233/233
f 241/241/241 238/238/238 237/237/237
f 241/241/241 237/237/237 180/180/180
f 175/175/175 180/180/180 237/237/237
f 158/158/158 161/161/161 160/160/160
f 158/158/158 160/160/160 157/157/157
f 160/160/160 161/161/161 212/212/212
f 160/160/160 162/162/162 122/122/122
f 160/160/160 211/211/211 157/157/157
f 121/121/121 120/120/120 160/160/160
f 121/121/121 160/160/160 122/122/122
f 159/159/159 120/120/120 121/121/121
f 94/94/94 95/95/95 127/127/127
f 94/94/94 122/122/122 95/95/95
f 127/127/127 122/122/122 94/94/94
f 97/97/97 71/71/71 70/70/70
f 77/77/77 71/71/71 97/97/97
f 77/77/77 97/97/97 70/70/70
f 71/71/71 72/72/72 40/40/40
f 71/71/71 40/40/40 70/70/70
f 46/46/46 72/72/72 71/71/71
f 46/46/46 71/71/71 77/77/77
f 22/22/22 47/47/47 46/46/46
f 38/38/38 76/76/76 69/69/69
f 38/38/38 39/39/39 45/45/45
f 45/45/45 76/76/76 38/38/38
f 22/22/22 46/46/46 17/17/17
f 46/46/46 45/45/45 17/17/17
f 45/45/45 39/39/39 17/17/17
f 186/186/186 185/185/185 188/188/188
f 150/150/150 152/152/152 115/115/115
f 145/145/145 144/144/144 149/149/149
f 143/143/143 144/144/144 149/149/149
f 143/143/143 149/149/149 148/148/148
f 110/110/110 148/148/148 149/149/149
f 110/110/110 149/149/149 113/113/113
f 323/323/323 317/317/317 322/322/322
f 241/241/241 180/180/180 185/185/185
f 321/321/321 315/315/315 320/320/320
f 322/322/322 326/326/326 327/327/327
f 321/321/321 326/326/326 322/322/322
f 184/184/184 185/185/185 180/180/180
f 185/185/185 188/188/188 144/144/144
f 185/185/185 144/144/144 143/143/143
f 142/142/142 184/184/184 185/185/185
f 142/142/142 185/185/185 143/143/143
f 180/180/180 179/179/179 175/175/175
f 183/183/183 184/184/184 180/180/180
f 183/183/183 180/180/180 179/179/179
f 138/138/138 142/142/142 184/184/184
f 138/138/138 184/184/184 183/183/183
f 142/142/142 148/148/148 143/143/143
f 143/143/143 148/148/148 104/104/104
f 143/143/143 104/104/104 142/142/142
f 148/148/148 142/142/142 109/109/109
f 148/148/148 109/109/109 110/110/110
f 109/109/109 104/104/104 148/148/148
f 103/103/103 142/142/142 138/138/138
f 142/142/142 104/104/104 103/103/103
f 104/104/104 109/109/109 108/108/108
f 104/104/104 108/108/108 103/103/103
f 108/108/108 109/109/109 142/142/142
f 108/108/108 142/142/142 103/103/103
f 84/84/84 110/110/110 113/113/113
f 84/84/84 113/113/113 87/87/87
f 110/110/110 109/109/109 82/82/82
f 110/110/110 82/82/82 84/84/84
f 83/83/83 109/109/109 110/110/110
f 83/83/83 110/110/110 84/84/84
f 81/81/81 82/82/82 109/109/109
f 81/81/81 109/109/109 108/108/108
f 109/109/109 83/83/83 81/81/81
f 117/117/117 115/115/115 114/114/114
f 88/88/88 87/87/87 55/55/55
f 54/54/54 87/87/87 88/88/88
f 54/54/54 88/88/88 55/55/55
f 88/88/88 87/87/87 86/86/86
f 87/87/87 54/54/54 53/53/53
f 87/87/87 53/53/53 84/84/84
f 53/53/53 86/86/86 87/87/87
f 55/55/55 87/87/87 60/60/60
f 60/60/60 86/86/86 59/59/59
f 54/54/54 59/59/59 58/58/58
f 54/54/54 58/58/58 53/53/53
f 58/58/58 59/59/59 86/86/86
f 58/58/58 86/86/86 53/53/53
f 59/59/59 27/27/27 26/26/26
f 59/59/59 26/26/26 58/58/58
f 3/3/3 26/26/26 27/27/27
f 3/3/3 27/27/27 4/4/4
f 52/52/52 53/53/53 84/84/84
f 52/52/52 84/84/84 82/82/82
f 84/84/84 52/52/52 83/83/83
f 52/52/52 53/53/53 58/58/58
f 81/81/81 52/52/52 82/82/82
f 83/83/83 52/52/52 48/48/48
f 83/83/83 48/48/48 81/81/81
f 51/51/51 52/52/52 81/81/81
f 52/52/52 51/51/51 48/48/48
f 58/58/58 52/52/52 25/25/25
f 58/58/58 25/25/25 26/26/26
f 52/52/52 25/25/25 24/24/24
f 52/52/52 24/24/24 51/51/51
f 25/25/25 24/24/24 31/31/31
f 25/25/25 31/31/31 2/2/2
f 451/451/451 456/456/456 455/455/455
f 451/451/451 455/455/455 450/450/450
f 455/455/455 450/450/450 449/449/449
f 455/455/455 449/449/449 434/434/434
f 434/434/434 435/435/435 455/455/455
f 434/434/434 435/435/435 442/442/442
f 434/434/434 442/442/442 441/441/441
f 441/441/441 442/442/442 435/435/435
f 441/441/441 435/435/435 434/434/434
f 450/450/450 446/446/446 458/458/458
f 449/449/449 458/458/458 446/446/446
f 449/449/449 446/446/446 445/445/445
f 449/449/449 448/448/448 454/454/454
f 433/433/433 434/434/434 449/449/449
f 433/433/433 449/449/449 454/454/454
f 440/440/440 434/434/434 433/433/433
f 424/424/424 441/441/441 434/434/434
f 424/424/424 434/434/434 440/440/440
f 441/441/441 425/425/425 424/424/424
f 424/424/424 440/440/440 439/439/439
f 424/424/424 439/439/439 423/423/423
f 425/425/425 416/416/416 415/415/415
f 425/425/425 415/415/415 424/424/424
f 416/416/416 404/404/404 415/415/415
f 413/413/413 416/416/416 415/415/415
f 416/416/416 405/405/405 404/404/404
f 404/404/404 416/416/416 413/413/413
f 397/397/397 398/398/398 405/405/405
f 397/397/397 405/405/405 404/404/404
f 424/424/424 415/415/415 421/421/421
f 424/424/424 421/421/421 423/423/423
f 415/415/415 404/404/404 412/412/412
f 415/415/415 412/412/412 421/421/421
f 412/412/412 413/413/413 415/415/415
f 403/403/403 412/412/412 404/404/404
f 413/413/413 412/412/412 403/403/403
f 413/413/413 403/403/403 404/404/404
f 431/431/431 448/448/448 447/447/447
f 454/454/454 433/433/433 432/432/432
f 454/454/454 432/432/432 431/431/431
f 440/440/440 433/433/433 432/432/432
f 440/440/440 432/432/432 439/439/439
f 440/440/440 424/424/424 423/423/423
f 440/440/440 423/423/423 439/439/439
f 432/432/432 439/439/439 422/422/422
f 432/432/432 422/422/422 431/431/431
f 431/431/431 447/447/447 430/430/430
f 411/411/411 420/420/420 410/410/410
f 422/422/422 414/414/414 420/420/420
f 334/334/334 336/336/336 337/337/337
f 368/368/368 337/337/337 367/367/367
f 337/337/337 336/336/336 367/367/367
f 336/336/336 339/339/339 367/367/367
f 296/296/296 297/297/297 295/295/295
f 296/296/296 295/295/295 294/294/294
f 334/334/334 337/337/337 297/297/297
f 334/334/334 297/297/297 296/296/296
f 336/336/336 334/334/334 296/296/296
f 296/296/296 298/298/298 336/336/336
f 296/296/296 294/294/294 257/257/257
f 336/336/336 298/298/298 299/299/299
f 336/336/336 299/299/299 337/337/337
f 299/299/299 298/298/298 296/296/296
f 299/299/299 296/296/296 297/297/297
f 335/335/335 336/336/336 298/298/298
f 338/338/338 339/339/339 336/336/336
f 338/338/338 336/336/336 335/335/335
f 298/298/298 336/336/336 301/301/301
f 298/298/298 301/301/301 335/335/335
f 398/398/398 389/389/389 388/388/388
f 398/398/398 388/388/388 394/394/394
f 397/397/397 398/398/398 394/394/394
f 372/372/372 390/390/390 389/389/389
f 367/367/367 389/389/389 390/390/390
f 367/367/367 390/390/390 368/368/368
f 390/390/390 372/372/372 367/367/367
f 389/389/389 398/398/398 394/394/394
f 371/371/371 372/372/372 389/389/389
f 371/371/371 389/389/389 394/394/394
f 389/389/389 371/371/371 388/388/388
f 366/366/366 371/371/371 389/389/389
f 366/366/366 389/389/389 367/367/367
f 367/367/367 372/372/372 371/371/371
f 394/394/394 388/388/388 371/371/371
f 394/394/394 393/393/393 375/375/375
f 394/394/394 375/375/375 371/371/371
f 393/393/393 394/394/394 388/388/388
f 394/394/394 371/371/371 370/370/370
f 394/394/394 370/370/370 374/374/374
f 404/404/404 397/397/397 396/396/396
f 404/404/404 396/396/396 403/403/403
f 397/397/397 394/394/394 393/393/393
f 397/397/397 393/393/393 396/396/396
f 396/396/396 403/403/403 402/402/402
f 393/393/393 396/396/396 392/392/392
f 370/370/370 371/371/371 375/375/375
f 370/370/370 375/375/375 374/374/374
f 339/339/339 340/340/340 368/368/368
f 339/339/339 368/368/368 367/367/367
f 336/336/336 337/337/337 340/340/340
f 336/336/336 340/340/340 339/339/339
f 367/367/367 339/339/339 366/366/366
f 338/338/338 339/339/339 367/367/367
f 338/338/338 367/367/367 371/371/371
f 301/301/301 336/336/336 339/339/339
f 301/301/301 339/339/339 338/338/338
f 366/366/366 339/339/339 338/338/338
f 341/341/341 366/366/366 338/338/338
f 341/341/341 371/371/371 370/370/370
f 338/338/338 335/335/335 301/301/301
f 305/305/305 300/300/300 304/304/304
f 301/301/301 300/300/300 305/305/305
f 300/300/300 301/301/301 304/304/304
f 378/378/378 380/380/380 353/353/353
f 378/378/378 353/353/353 350/350/350
f 380/380/380 357/357/357 353/353/353
f 316/316/316 313/313/313 350/350/350
f 316/316/316 350/350/350 353/353/353
f 315/315/315 316/316/316 353/353/353
f 308/308/308 345/345/345 304/304/304
f 349/349/349 308/308/308 344/344/344
f 308/308/308 349/349/349 312/312/312
f 349/349/349 352/352/352 311/311/311
f 349/349/349 311/311/311 312/312/312
f 352/352/352 351/351/351 282/282/282
f 352/352/352 282/282/282 311/311/311
f 357/357/357 380/380/380 382/382/382
f 315/315/315 353/353/353 357/357/357
f 315/315/315 357/357/357 320/320/320
f 361/361/361 325/325/325 321/321/321
f 361/361/361 321/321/321 320/320/320
f 360/360/360 361/361/361 320/320/320
f 355/355/355 354/354/354 359/359/359
f 319/319/319 355/355/355 359/359/359
f 351/351/351 319/319/319 284/284/284
f 351/351/351 284/284/284 282/282/282
f 282/282/282 319/319/319 351/351/351
f 319/319/319 283/283/283 284/284/284
f 283/283/283 319/319/319 282/282/282
f 319/319/319 359/359/359 324/324/324
f 286/286/286 283/283/283 319/319/319
f 286/286/286 319/319/319 324/324/324
f 362/362/362 364/364/364 330/330/330
f 362/362/362 330/330/330 288/288/288
f 362/362/362 288/288/288 287/287/287
f 289/289/289 288/288/288 330/330/330
f 289/289/289 330/330/330 332/332/332
f 331/331/331 332/332/332 290/290/290
f 256/256/256 254/254/254 293/293/293
f 254/254/254 253/253/253 292/292/292
f 254/254/254 292/292/292 293/293/293
f 253/253/253 255/255/255 292/292/292
f 254/254/254 253/253/253 255/255/255
f 254/254/254 255/255/255 256/256/256
f 295/295/295 256/256/256 293/293/293
f 294/294/294 295/295/295 293/293/293
f 294/294/294 293/293/293 292/292/292
f 294/294/294 292/292/292 255/255/255
f 258/258/258 256/256/256 255/255/255
f 258/258/258 255/255/255 257/257/257
f 257/257/257 255/255/255 256/256/256
f 258/258/258 297/297/297 296/296/296
f 258/258/258 296/296/296 260/260/260
f 258/258/258 260/260/260 257/257/257
f 261/261/261 258/258/258 257/257/257
f 257/257/257 294/294/294 255/255/255
f 197/197/197 196/196/196 254/254/254
f 197/197/197 254/254/254 256/256/256
f 196/196/196 198/198/198 197/197/197
f 196/196/196 197/197/197 195/195/195
f 253/253/253 195/195/195 197/197/197
f 253/253/253 197/197/197 255/255/255
f 255/255/255 253/253/253 195/195/195
f 255/255/255 195/195/195 197/197/197
f 200/200/200 197/197/197 198/198/198
f 197/197/197 200/200/200 199/199/199
f 199/199/199 197/197/197 256/256/256
f 199/199/199 256/256/256 258/258/258
f 257/257/257 255/255/255 197/197/197
f 257/257/257 197/197/197 199/199/199
f 257/257/257 199/199/199 200/200/200
f 257/257/257 200/200/200 261/261/261
f 260/260/260 297/297/297 258/258/258
f 261/261/261 258/258/258 297/297/297
f 297/297/297 260/260/260 261/261/261
f 257/257/257 261/261/261 260/260/260
f 202/202/202 261/261/261 260/260/260
f 296/296/296 257/257/257 260/260/260
f 265/265/265 299/299/299 297/297/297
f 265/265/265 297/297/297 261/261/261
f 260/260/260 264/264/264 263/263/263
f 201/201/201 199/199/199 258/258/258
f 201/201/201 258/258/258 261/261/261
f 261/261/261 202/202/202 201/201/201
f 202/202/202 261/261/261 200/200/200
f 260/260/260 257/257/257 199/199/199
f 260/260/260 199/199/199 201/201/201
f 204/204/204 201/201/201 202/202/202
f 204/204/204 202/202/202 205/205/205
f 264/264/264 260/260/260 201/201/201
f 264/264/264 201/201/201 204/204/204
f 264/264/264 204/204/204 263/263/263
f 205/205/205 210/210/210 209/209/209
f 205/205/205 209/209/209 204/204/204
f 215/215/215 210/210/210 216/216/216
f 209/209/209 210/210/210 215/215/215
f 268/268/268 263/263/263 204/204/204
f 268/268/268 204/204/204 209/209/209
f 209/209/209 208/208/208 268/268/268
f 209/209/209 215/215/215 214/214/214
f 214/214/214 208/208/208 209/209/209
f 216/216/216 215/215/215 223/223/223
f 216/216/216 223/223/223 224/224/224
f 214/214/214 215/215/215 223/223/223
f 223/223/223 214/214/214 222/222/222
f 268/268/268 301/301/301 304/304/304
f 268/268/268 304/304/304 273/273/273
f 268/268/268 208/208/208 214/214/214
f 268/268/268 214/214/214 273/273/273
f 304/304/304 308/308/308 272/272/272
f 304/304/304 272/272/272 273/273/273
f 279/279/279 272/272/272 308/308/308
f 221/221/221 273/273/273 272/272/272
f 221/221/221 272/272/272 279/279/279
f 214/214/214 273/273/273 221/221/221
f 214/214/214 221/221/221 222/222/222
f 232/232/232 223/223/223 224/224/224
f 232/232/232 224/224/224 233/233/233
f 232/232/232 223/223/223 231/231/231
f 223/223/223 222/222/222 231/231/231
f 170/170/170 232/232/232 233/233/233
f 170/170/170 233/233/233 237/237/237
f 169/169/169 232/232/232 170/170/170
f 232/232/232 231/231/231 169/169/169
f 221/221/221 279/279/279 281/281/281
f 279/279/279 308/308/308 312/312/312
f 279/279/279 312/312/312 281/281/281
f 230/230/230 231/231/231 169/169/169
f 221/221/221 222/222/222 231/231/231
f 230/230/230 231/231/231 221/221/221
f 221/221/221 281/281/281 230/230/230
f 230/230/230 281/281/281 282/282/282
f 230/230/230 282/282/282 236/236/236
f 173/173/173 169/169/169 230/230/230
f 173/173/173 230/230/230 236/236/236
f 174/174/174 170/170/170 237/237/237
f 174/174/174 237/237/237 175/175/175
f 170/170/170 169/169/169 173/173/173
f 170/170/170 173/173/173 174/174/174
f 178/178/178 174/174/174 173/173/173
f 178/178/178 173/173/173 177/177/177
f 173/173/173 172/172/172 177/177/177
f 173/173/173 236/236/236 172/172/172
f 235/235/235 236/236/236 172/172/172
f 281/281/281 312/312/312 311/311/311
f 282/282/282 281/281/281 311/311/311
f 281/281/281 230/230/230 236/236/236
f 281/281/281 236/236/236 282/282/282
f 282/282/282 236/236/236 235/235/235
f 175/175/175 179/179/179 178/178/178
f 175/175/175 178/178/178 174/174/174
f 133/133/133 178/178/178 179/179/179
f 133/133/133 179/179/179 183/183/183
f 179/179/179 178/178/178 183/183/183
f 132/132/132 177/177/177 178/178/178
f 132/132/132 178/178/178 133/133/133
f 137/137/137 133/133/133 183/183/183
f 137/137/137 183/183/183 138/138/138
f 183/183/183 178/178/178 137/137/137
f 133/133/133 137/137/137 136/136/136
f 133/133/133 136/136/136 132/132/132
f 136/136/136 137/137/137 178/178/178
f 136/136/136 178/178/178 177/177/177
f 137/137/137 138/138/138 103/103/103
f 137/137/137 103/103/103 102/102/102
f 140/140/140 136/136/136 137/137/137
f 140/140/140 137/137/137 102/102/102
f 103/103/103 137/137/137 141/141/141
f 137/137/137 140/140/140 141/141/141
f 176/176/176 172/172/172 177/177/177
f 176/176/176 177/177/177 132/132/132
f 136/136/136 177/177/177 176/176/176
f 136/136/136 176/176/176 135/135/135
f 176/176/176 182/182/182 135/135/135
f 132/132/132 136/136/136 135/135/135
f 132/132/132 135/135/135 176/176/176
f 134/134/134 140/140/140 136/136/136
f 134/134/134 136/136/136 135/135/135
f 103/103/103 141/141/141 107/107/107
f 103/103/103 107/107/107 108/108/108
f 107/107/107 102/102/102 103/103/103
f 101/101/101 140/140/140 102/102/102
f 101/101/101 102/102/102 107/107/107
f 141/141/141 140/140/140 101/101/101
f 141/141/141 101/101/101 107/107/107
f 140/140/140 134/134/134 139/139/139
f 140/140/140 139/139/139 101/101/101
f 240/240/240 282/282/282 284/284/284
f 240/240/240 284/284/284 283/283/283
f 282/282/282 240/240/240 283/283/283
f 236/236/236 282/282/282 240/240/240
f 176/176/176 172/172/172 236/236/236
f 176/176/176 236/236/236 240/240/240
f 240/240/240 282/282/282 235/235/235
f 235/235/235 172/172/172 176/176/176
f 235/235/235 176/176/176 240/240/240
f 240/240/240 283/283/283 286/286/286
f 240/240/240 286/286/286 243/243/243
f 182/182/182 240/240/240 243/243/243
f 286/286/286 243/243/243 285/285/285
f 328/328/328 324/324/324 286/286/286
f 328/328/328 286/286/286 285/285/285
f 181/181/181 243/243/243 182/182/182
f 243/243/243 286/286/286 245/245/245
f 243/243/243 245/245/245 246/246/246
f 187/187/187 182/182/182 243/243/243
f 187/187/187 243/243/243 246/246/246
f 245/245/245 285/285/285 243/243/243
f 243/243/243 181/181/181 187/187/187
f 286/286/286 328/328/328 287/287/287
f 286/286/286 287/287/287 245/245/245
f 287/287/287 328/328/328 285/285/285
f 287/287/287 285/285/285 245/245/245
f 245/245/245 246/246/246 190/190/190
f 245/245/245 190/190/190 248/248/248
f 288/288/288 287/287/287 245/245/245
f 288/288/288 245/245/245 248/248/248
f 176/176/176 240/240/240 182/182/182
f 134/134/134 135/135/135 182/182/182
f 182/182/182 134/134/134 181/181/181
f 134/134/134 182/182/182 187/187/187
f 134/134/134 187/187/187 139/139/139
f 187/187/187 181/181/181 134/134/134
f 101/101/101 139/139/139 105/105/105
f 101/101/101 105/105/105 106/106/106
f 78/78/78 107/107/107 101/101/101
f 78/78/78 101/101/101 106/106/106
f 105/105/105 139/139/139 147/147/147
f 139/139/139 187/187/187 147/147/147
f 139/139/139 101/101/101 106/106/106
f 139/139/139 106/106/106 105/105/105
f 105/105/105 147/147/147 112/112/112
f 79/79/79 106/106/106 105/105/105
f 79/79/79 105/105/105 112/112/112
f 190/190/190 246/246/246 187/187/187
f 190/190/190 187/187/187 147/147/147
f 146/146/146 147/147/147 190/190/190
f 190/190/190 248/248/248 247/247/247
f 147/147/147 112/112/112 146/146/146
f 85/85/85 112/112/112 111/111/111
f 112/112/112 146/146/146 151/151/151
f 112/112/112 151/151/151 111/111/111
f 191/191/191 190/190/190 146/146/146
f 191/191/191 146/146/146 151/151/151
f 78/78/78 81/81/81 108/108/108
f 78/78/78 108/108/108 107/107/107
f 81/81/81 78/78/78 80/80/80
f 80/80/80 81/81/81 48/48/48
f 106/106/106 101/101/101 107/107/107
f 106/106/106 107/107/107 78/78/78
f 79/79/79 106/106/106 78/78/78
f 79/79/79 78/78/78 80/80/80
f 49/49/49 79/79/79 112/112/112
f 49/49/49 112/112/112 85/85/85
f 81/81/81 80/80/80 50/50/50
f 81/81/81 50/50/50 51/51/51
f 50/50/50 80/80/80 48/48/48
f 50/50/50 48/48/48 51/51/51
f 49/49/49 50/50/50 80/80/80
f 49/49/49 80/80/80 79/79/79
f 50/50/50 51/51/51 24/24/24
f 50/50/50 24/24/24 23/23/23
f 50/50/50 23/23/23 57/57/57
f 50/50/50 57/57/57 49/49/49
f 24/24/24 23/23/23 30/30/30
f 24/24/24 30/30/30 31/31/31
f 23/23/23 57/57/57 29/29/29
f 23/23/23 29/29/29 30/30/30
f 9/9/9 1/1/1 31/31/31
f 9/9/9 31/31/31 30/30/30
f 49/49/49 85/85/85 57/57/57
f 85/85/85 111/111/111 116/116/116
f 153/153/153 151/151/151 111/111/111
f 153/153/153 111/111/111 116/116/116
f 85/85/85 57/57/57 29/29/29
f 85/85/85 29/29/29 56/56/56
f 85/85/85 56/56/56 89/89/89
f 85/85/85 89/89/89 116/116/116
f 35/35/35 29/29/29 56/56/56
f 35/35/35 56/56/56 63/63/63
f 56/56/56 89/89/89 90/90/90
f 56/56/56 90/90/90 63/63/63
f 56/56/56 29/29/29 8/8/8
f 56/56/56 8/8/8 62/62/62
f 90/90/90 56/56/56 62/62/62
f 35/35/35 9/9/9 30/30/30
f 35/35/35 30/30/30 29/29/29
f 30/30/30 9/9/9 8/8/8
f 30/30/30 8/8/8 29/29/29
f 9/9/9 35/35/35 8/8/8
f 35/35/35 7/7/7 8/8/8
f 35/35/35 63/63/63 34/34/34
f 7/7/7 35/35/35 36/36/36
f 34/34/34 62/62/62 8/8/8
f 288/288/288 248/248/248 247/247/247
f 288/288/288 247/247/247 289/289/289
f 289/289/289 332/332/332 290/290/290
f 289/289/289 290/290/290 249/249/249
f 191/191/191 247/247/247 289/289/289
f 191/191/191 289/289/289 249/249/249
f 247/247/247 190/190/190 191/191/191
f 251/251/251 249/249/249 290/290/290
f 251/251/251 290/290/290 250/250/250
f 192/192/192 251/251/251 249/249/249
f 192/192/192 249/249/249 191/191/191
f 251/251/251 252/252/252 192/192/192
f 153/153/153 151/151/151 191/191/191
f 191/191/191 192/192/192 153/153/153
f 118/118/118 153/153/153 154/154/154
f 153/153/153 192/192/192 154/154/154
f 89/89/89 116/116/116 153/153/153
f 89/89/89 153/153/153 118/118/118
f 194/194/194 154/154/154 192/192/192
f 65/65/65 63/63/63 90/90/90
f 90/90/90 62/62/62 65/65/65
f 34/34/34 6/6/6 36/36/36
f 7/7/7 36/36/36 6/6/6
