# 由 henjicc/yipiantian 的 lingcao_qingxin_mature 转换而来（见 manifest.json）
mtllib lingcao_qingxin_mature.mtl
o lingcao_qingxin_mature
v -0.20413 0.18525 0.00413
v -0.20346 0.17872 0.01705
v -0.22276 0.18405 0.11667
v -0.21087 0.18156 0.14311
v -0.19765 0.20507 -0.11058
v -0.21838 0.20311 -0.07446
v -0.22358 0.19584 -0.04931
v -0.22393 0.20157 -0.01295
v -0.21215 0.19114 0.01297
v -0.21948 0.20440 0.07588
v -0.22429 0.19490 0.09807
v -0.21327 0.18975 0.13410
v -0.20888 0.22001 -0.09131
v -0.22622 0.21138 -0.02387
v -0.21243 0.22131 0.06586
v -0.16677 0.15740 0.17658
v -0.16957 0.18492 -0.04220
v -0.17543 0.17457 -0.00236
v -0.17870 0.17317 0.02282
v -0.18071 0.17442 0.15379
v -0.16869 0.16642 0.16687
v -0.18983 0.20642 -0.11561
v -0.18100 0.20276 -0.08734
v -0.18719 0.19376 -0.04864
v -0.16209 0.20652 0.03334
v -0.18814 0.20783 0.05819
v -0.18418 0.19694 0.10655
v -0.18326 0.19170 0.13017
v -0.17137 0.21887 -0.12680
v -0.19497 0.21249 -0.09823
v -0.17428 0.22031 0.03936
v -0.19214 0.21781 0.05815
v -0.12168 0.10592 -0.03385
v -0.12581 0.10782 -0.00972
v -0.12283 0.11341 0.02525
v -0.12369 0.13520 -0.07162
v -0.13246 0.12726 -0.04659
v -0.14054 0.12827 -0.00999
v -0.13813 0.13039 0.02782
v -0.13078 0.15844 -0.08212
v -0.14547 0.15447 -0.05039
v -0.15553 0.15803 -0.00946
v -0.15304 0.15257 0.02096
v -0.14027 0.15433 0.17286
v -0.12771 0.18346 -0.12927
v -0.14002 0.17899 -0.09228
v -0.15508 0.17385 -0.05307
v -0.12928 0.17934 -0.00529
v -0.15567 0.16995 0.02197
v -0.13881 0.18019 0.14879
v -0.13955 0.16771 0.16156
v -0.13464 0.18726 -0.14492
v -0.14029 0.19783 -0.13433
v -0.12339 0.20246 -0.03274
v -0.13071 0.20292 -0.00681
v -0.13777 0.20742 0.02062
v -0.13903 0.19714 0.06228
v -0.13677 0.19578 0.10206
v -0.14410 0.18980 0.13501
v -0.15274 0.21084 -0.12994
v -0.13815 0.21557 -0.00038
v -0.14136 0.22225 0.02244
v -0.13784 0.23480 0.01770
v -0.08786 0.06808 0.03028
v -0.09337 0.08603 -0.04533
v -0.10000 0.08273 -0.01347
v -0.10246 0.08076 0.02768
v -0.09441 0.10972 -0.07564
v -0.10879 0.10674 -0.05888
v -0.09121 0.10939 -0.01385
v -0.11650 0.10307 0.02869
v -0.10112 0.13117 -0.08719
v -0.09291 0.13318 -0.06520
v -0.09153 0.12993 -0.01446
v -0.08547 0.12413 0.02737
v -0.08659 0.13944 0.05553
v -0.08856 0.15270 -0.11797
v -0.10186 0.15126 -0.08384
v -0.09094 0.15387 -0.05965
v -0.09779 0.15201 -0.01587
v -0.09718 0.15066 0.02979
v -0.08950 0.15318 0.06939
v -0.08413 0.15933 0.09955
v -0.09039 0.15408 0.14469
v -0.09953 0.15272 0.16377
v -0.10438 0.17108 -0.14599
v -0.09761 0.17645 -0.12893
v -0.10159 0.17510 -0.08444
v -0.09287 0.17170 -0.06218
v -0.10984 0.17341 -0.00874
v -0.09993 0.17430 0.02246
v -0.11073 0.17814 0.06376
v -0.10472 0.17865 0.10271
v -0.10747 0.16939 0.14514
v -0.10500 0.16777 0.16382
v -0.10537 0.20524 -0.15554
v -0.10272 0.19121 -0.13183
v -0.09560 0.19906 -0.08194
v -0.10188 0.19999 -0.04954
v -0.10086 0.20028 -0.01318
v -0.10097 0.20007 0.03007
v -0.09273 0.19479 0.04998
v -0.08402 0.21497 -0.19184
v -0.09465 0.22183 -0.17480
v -0.08659 0.21251 -0.10834
v -0.08887 0.21317 -0.10159
v -0.10491 0.21257 -0.03876
v -0.08885 0.21992 -0.01526
v -0.10655 0.21488 0.02431
v -0.09209 0.24737 -0.00588
v -0.09377 0.25036 0.01015
v -0.09108 0.26801 0.02525
v -0.05352 0.04648 -0.00994
v -0.04659 0.04112 0.02104
v -0.05128 0.06293 -0.03770
v -0.05887 0.06054 -0.01228
v -0.06541 0.05890 0.02078
v -0.04999 0.09050 -0.08136
v -0.05896 0.08354 -0.04706
v -0.06091 0.08471 -0.01344
v -0.05754 0.08907 0.02049
v -0.04939 0.08845 0.05512
v -0.05851 0.11091 -0.10782
v -0.05985 0.10405 -0.09016
v -0.06321 0.10642 -0.04965
v -0.07186 0.10326 -0.01283
v -0.05309 0.10905 0.02794
v -0.05279 0.10562 0.06335
v -0.05570 0.13313 -0.11221
v -0.06244 0.12351 -0.09704
v -0.06591 0.12909 -0.05370
v -0.05555 0.12975 -0.01228
v -0.05248 0.12916 0.03092
v -0.05985 0.12824 0.06597
v -0.05933 0.13302 0.09543
v -0.06950 0.14514 -0.12009
v -0.06644 0.15335 -0.08101
v -0.05720 0.15015 -0.05578
v -0.06094 0.15228 -0.01290
v -0.06137 0.15136 0.03639
v -0.06617 0.15109 0.05688
v -0.06283 0.15165 0.09900
v -0.06079 0.15522 0.14191
v -0.08006 0.14615 0.16165
v -0.07644 0.17228 -0.12655
v -0.07102 0.17665 -0.07512
v -0.06462 0.17143 -0.06178
v -0.06631 0.17572 -0.01364
v -0.06991 0.17634 0.03793
v -0.06828 0.17630 0.06113
v -0.06755 0.17632 0.10606
v -0.06993 0.18222 0.12637
v -0.06413 0.20950 -0.20682
v -0.06282 0.20255 -0.15846
v -0.07564 0.20983 -0.11050
v -0.07327 0.19584 -0.08753
v -0.05843 0.19734 -0.04442
v -0.06679 0.19450 -0.01883
v -0.06410 0.19762 0.02231
v -0.07361 0.20219 0.06589
v -0.07482 0.20767 0.08711
v -0.06061 0.20155 0.14149
v -0.05101 0.20401 0.17470
v -0.04816 0.20365 0.20168
v -0.06565 0.21542 -0.20193
v -0.07569 0.21695 -0.17783
v -0.06523 0.21808 -0.10932
v -0.05751 0.21659 -0.10383
v -0.07899 0.22210 -0.01061
v -0.06288 0.22190 0.02501
v -0.05893 0.21265 0.08047
v -0.06101 0.21898 0.09027
v -0.05741 0.21564 0.14632
v -0.04901 0.21624 0.18302
v -0.08179 0.24229 -0.01349
v -0.07231 0.24962 0.02488
v -0.06705 0.26778 0.03876
v -0.05934 0.27321 0.04781
v -0.05709 0.28000 0.04726
v -0.01344 0.01919 -0.00445
v -0.01468 0.01888 0.01323
v -0.01460 0.03985 -0.03783
v -0.02085 0.03563 -0.01055
v -0.02042 0.03572 0.02335
v -0.01151 0.04425 0.04782
v -0.02737 0.06547 -0.06894
v -0.02494 0.05862 -0.04606
v -0.02653 0.05652 -0.01662
v -0.02190 0.05842 0.02185
v -0.02222 0.05994 0.05333
v -0.03493 0.08268 -0.08148
v -0.02637 0.08218 -0.04530
v -0.02703 0.07963 -0.01605
v -0.03075 0.08197 0.02389
v -0.03236 0.08163 0.06016
v -0.01285 0.11620 -0.11274
v -0.01803 0.10889 -0.07973
v -0.03363 0.10336 -0.04795
v -0.03025 0.10543 -0.00824
v -0.03715 0.10046 0.02582
v -0.03877 0.10098 0.05800
v -0.02881 0.10739 0.08957
v -0.02393 0.12532 -0.11627
v -0.02102 0.12790 -0.07802
v -0.02813 0.12949 -0.04505
v -0.03710 0.12355 -0.00838
v -0.02840 0.12514 0.01815
v -0.02451 0.12559 0.06152
v -0.03836 0.12935 0.10627
v -0.02547 0.15056 -0.13229
v -0.01824 0.15371 -0.08549
v -0.03637 0.15403 -0.05119
v -0.03739 0.15457 0.00016
v -0.02841 0.14683 0.01272
v -0.02778 0.14713 0.06818
v -0.03778 0.15477 0.11453
v -0.04385 0.15229 0.12363
v -0.02764 0.18105 -0.14885
v -0.03676 0.17095 -0.14000
v -0.02684 0.17806 -0.08815
v -0.02703 0.17498 -0.04644
v -0.03306 0.17569 -0.00592
v -0.02646 0.17614 0.01612
v -0.03728 0.17564 0.05508
v -0.02223 0.17698 0.10718
v -0.04436 0.16335 0.12235
v -0.02277 0.20872 -0.19006
v -0.03296 0.19676 -0.16101
v -0.02334 0.20722 -0.11137
v -0.02709 0.19931 -0.09305
v -0.03025 0.20105 -0.05783
v -0.02098 0.18900 -0.00702
v -0.02571 0.20077 0.03009
v -0.03453 0.20529 0.06603
v -0.02859 0.19783 0.14587
v -0.03250 0.20500 0.17893
v -0.02702 0.19796 0.21623
v -0.02622 0.21478 -0.21636
v -0.02108 0.21897 -0.11203
v -0.02094 0.21603 -0.09213
v -0.01460 0.21282 -0.06289
v -0.00883 0.22480 0.00570
v -0.02376 0.22164 0.02477
v -0.03297 0.22425 0.07590
v -0.04449 0.22969 0.08838
v -0.01061 0.23687 0.00413
v -0.02224 0.24981 0.02303
v -0.03301 0.24089 0.08011
v -0.02083 0.24514 0.08945
v -0.03079 0.26720 0.02802
v -0.03712 0.27050 0.04854
v 0.00948 0.01032 -0.00619
v 0.00752 0.01142 0.01529
v 0.01122 0.03714 -0.03566
v 0.01607 0.03539 -0.01842
v 0.01235 0.03270 0.02090
v -0.00816 0.04313 0.05173
v 0.01066 0.06058 -0.04110
v 0.00875 0.06077 -0.00696
v 0.01539 0.05975 0.02584
v 0.01102 0.07981 -0.07620
v 0.01476 0.08126 -0.05134
v 0.00792 0.07969 -0.00501
v 0.00665 0.08521 0.02410
v 0.00257 0.08447 0.05095
v 0.00413 0.11642 -0.11408
v 0.01949 0.10397 -0.07961
v 0.00427 0.10655 -0.04944
v 0.01004 0.10388 -0.00581
v 0.00867 0.10943 0.02619
v 0.01173 0.10721 0.05469
v 0.01285 0.12813 -0.12163
v 0.01757 0.12721 -0.08458
v 0.00726 0.12934 -0.04787
v 0.01512 0.12815 -0.00724
v 0.00905 0.13162 0.02570
v 0.01218 0.12983 0.05721
v 0.00950 0.15028 -0.13598
v 0.01788 0.14941 -0.08992
v 0.00713 0.15487 -0.04154
v 0.01442 0.15229 -0.01327
v 0.00268 0.15307 0.02832
v 0.01419 0.14994 0.06674
v 0.00838 0.17740 -0.15089
v 0.00741 0.17028 -0.08652
v 0.00489 0.17313 -0.03389
v 0.00913 0.17488 -0.01972
v -0.00399 0.17214 0.02477
v 0.00927 0.17624 0.05963
v 0.00503 0.17631 0.09866
v 0.00865 0.18003 0.22827
v -0.00078 0.20881 -0.20018
v 0.00469 0.19950 -0.17268
v 0.00849 0.19899 -0.09209
v -0.00493 0.20285 -0.03840
v 0.01187 0.19462 -0.01911
v -0.00190 0.19352 0.01777
v 0.00324 0.20156 0.05140
v 0.01899 0.19128 0.10615
v 0.00903 0.19991 0.13973
v 0.01181 0.20313 0.18283
v 0.00294 0.19118 0.21857
v 0.01216 0.22209 -0.21228
v 0.00400 0.22186 -0.11622
v 0.00549 0.21974 -0.08993
v -0.00356 0.21255 -0.04437
v 0.01735 0.21786 -0.00201
v 0.01679 0.22314 0.01130
v -0.00369 0.22538 0.06252
v 0.01896 0.23829 -0.10849
v 0.01778 0.23727 -0.10481
v 0.00656 0.24117 0.00594
v 0.00288 0.24834 0.01376
v 0.02073 0.24587 0.07132
v 0.00806 0.25269 0.09743
v 0.03184 0.02235 0.01173
v 0.03309 0.04112 -0.03368
v 0.03365 0.03576 -0.01007
v 0.03483 0.03820 0.01320
v 0.04089 0.05914 -0.04668
v 0.04370 0.06018 -0.01069
v 0.04151 0.06089 0.01899
v 0.05176 0.08715 -0.07500
v 0.04181 0.08073 -0.04970
v 0.04913 0.08152 -0.01115
v 0.04780 0.08284 0.02478
v 0.05734 0.10684 -0.09586
v 0.04596 0.10512 -0.04484
v 0.04353 0.10300 -0.00058
v 0.05032 0.10650 0.02746
v 0.05419 0.10212 0.04749
v 0.04485 0.12919 -0.11301
v 0.05528 0.12888 -0.09987
v 0.05260 0.12832 -0.04940
v 0.05899 0.13000 -0.00243
v 0.05022 0.12797 0.02816
v 0.05615 0.13458 0.05023
v 0.05471 0.15752 -0.12421
v 0.04710 0.15157 -0.09092
v 0.05298 0.15061 -0.04985
v 0.05307 0.15237 -0.00118
v 0.04535 0.15538 0.01427
v 0.05966 0.15165 0.05488
v 0.04972 0.18615 -0.15207
v 0.04629 0.17708 -0.12619
v 0.03627 0.16883 -0.09893
v 0.04652 0.17304 -0.05412
v 0.05420 0.17337 -0.00673
v 0.04281 0.17636 0.01357
v 0.05855 0.16979 0.06540
v 0.03698 0.18369 0.08503
v 0.04726 0.17999 0.22997
v 0.03866 0.17609 0.23631
v 0.05342 0.20185 -0.19477
v 0.06198 0.19523 -0.16961
v 0.05329 0.20272 -0.12092
v 0.03549 0.19538 -0.08030
v 0.04771 0.19966 -0.05397
v 0.04367 0.19701 -0.00862
v 0.05475 0.19442 0.01707
v 0.05911 0.19028 0.08022
v 0.05846 0.20095 0.10072
v 0.04851 0.20900 0.13052
v 0.05155 0.20040 0.17920
v 0.05151 0.19068 0.21097
v 0.03771 0.21911 -0.20898
v 0.04311 0.22369 -0.11390
v 0.03860 0.22610 -0.09306
v 0.05315 0.22745 -0.04140
v 0.05261 0.22009 -0.00705
v 0.05069 0.22603 0.03650
v 0.03746 0.23523 -0.11122
v 0.05326 0.24889 -0.09470
v 0.05735 0.24760 -0.04791
v 0.06514 0.23419 -0.01307
v 0.06380 0.23821 0.04413
v 0.05602 0.24912 0.06393
v 0.03225 0.25546 0.09812
v 0.06581 0.25756 -0.07095
v 0.04002 0.26450 0.07424
v 0.03551 0.26205 0.09224
v 0.07192 0.08944 -0.02216
v 0.08302 0.11002 -0.03236
v 0.08751 0.10433 -0.02439
v 0.07000 0.10866 0.02777
v 0.09113 0.12901 -0.03721
v 0.08670 0.12654 -0.01408
v 0.07446 0.12447 0.02578
v 0.06929 0.15438 -0.11127
v 0.06809 0.14941 -0.10639
v 0.09400 0.15023 -0.05090
v 0.06976 0.15035 -0.00778
v 0.08680 0.15471 0.02494
v 0.07131 0.18438 -0.15113
v 0.06944 0.18282 -0.14137
v 0.07631 0.17975 -0.07774
v 0.08445 0.17111 -0.05486
v 0.07579 0.18057 -0.00568
v 0.09186 0.17592 0.02336
v 0.07130 0.18259 0.06859
v 0.07006 0.18615 0.09128
v 0.09963 0.18514 0.19747
v 0.08373 0.18004 0.21404
v 0.07047 0.18863 -0.15849
v 0.08656 0.20566 -0.13553
v 0.08832 0.19782 -0.08950
v 0.09263 0.19513 -0.04534
v 0.08238 0.19843 0.00083
v 0.10034 0.20092 0.02213
v 0.07638 0.19468 0.07460
v 0.08225 0.20131 0.10092
v 0.09483 0.19879 0.13761
v 0.09153 0.19225 0.18392
v 0.06970 0.18838 0.20865
v 0.08823 0.21144 -0.13821
v 0.06983 0.23128 -0.03251
v 0.08171 0.22057 -0.00229
v 0.08632 0.22407 0.01763
v 0.08976 0.21303 0.10778
v 0.06948 0.25398 -0.08174
v 0.06894 0.24948 -0.05183
v 0.06956 0.23454 -0.01709
v 0.08946 0.23709 0.03297
v 0.07273 0.24620 0.05472
v 0.06999 0.25849 -0.07639
v 0.10782 0.12380 -0.03268
v 0.10683 0.13179 -0.02860
v 0.11974 0.15179 -0.04215
v 0.11108 0.14293 -0.02907
v 0.12011 0.18257 -0.07028
v 0.12282 0.17457 -0.06066
v 0.12003 0.18142 0.15542
v 0.11590 0.18123 0.17874
v 0.12669 0.20008 -0.14948
v 0.11600 0.20555 -0.13847
v 0.12302 0.20939 -0.10358
v 0.10715 0.20849 -0.06626
v 0.10577 0.19861 0.02894
v 0.11388 0.19613 0.13718
v 0.10898 0.18771 0.19533
v 0.13135 0.21114 -0.15516
v 0.10733 0.21158 -0.14340
v 0.12737 0.21296 -0.08254
v 0.11966 0.22366 -0.04243
v 0.11198 0.22749 -0.00192
v 0.12612 0.23874 0.00152
v 0.16017 0.20815 -0.15495
v 0.17240 0.20592 -0.13706
v 0.16634 0.20284 -0.09253
v 0.17888 0.20514 -0.05017
v 0.16039 0.21126 -0.15852
v 0.15733 0.21762 -0.04506
v 0.16782 0.22422 -0.01511
v 0.16048 0.24508 0.00057
v 0.16648 0.25128 0.00894
v 0.15179 0.25763 0.00264
v 0.21318 0.18281 -0.11057
v 0.20843 0.17664 -0.08945
v 0.21272 0.17986 -0.05160
v 0.21301 0.18538 -0.02337
v 0.20295 0.20155 -0.12742
v 0.18770 0.19058 -0.08934
v 0.19165 0.19554 -0.04675
v 0.20177 0.19535 -0.01379
v 0.20006 0.21135 -0.13885
v 0.19091 0.22122 -0.00362
v 0.18380 0.23240 0.00816
v 0.18283 0.23400 0.00585
v 0.21844 0.18302 -0.03654
vt 0.20996 0.54509
vt 0.36664 0.68809
vt 0.36375 0.75520
vt 0.55866 0.39916
vt 0.43497 0.56391
vt 0.42093 0.54648
vt 0.80655 0.33612
vt 0.47879 0.45022
vt 0.39496 0.71267
vt 0.49202 0.49691
vt 0.56867 0.52177
vt 0.73169 0.57946
vt 0.73607 0.48214
vt 0.65122 0.20183
vt 0.70683 0.49860
vt 0.76072 0.76496
vt 0.43101 0.77509
vt 0.44838 0.59103
vt 0.59271 0.63930
vt 0.71449 0.39958
vt 0.67636 0.52843
vt 0.52867 0.67630
vt 0.70304 0.62500
vt 0.68178 0.48026
vt 0.79904 0.74090
vt 0.68460 0.59046
vt 0.69210 0.48211
vt 0.65853 0.43906
vt 0.63353 0.59942
vt 0.76587 0.43676
vt 0.78268 0.49833
vt 0.66320 0.71857
vt 0.59369 0.49731
vt 0.56132 0.48872
vt 0.32305 0.55989
vt 0.62625 0.55262
vt 0.59712 0.53464
vt 0.47424 0.61069
vt 0.39281 0.66241
vt 0.69118 0.63517
vt 0.58577 0.57514
vt 0.53685 0.47478
vt 0.64384 0.66266
vt 0.59482 0.49178
vt 0.71853 0.51793
vt 0.62356 0.72804
vt 0.57760 0.60416
vt 0.85041 0.27229
vt 0.53649 0.51519
vt 0.79841 0.43203
vt 0.79124 0.41136
vt 0.86283 0.15780
vt 0.67479 0.47516
vt 0.57894 0.72170
vt 0.60958 0.50102
vt 0.57733 0.62019
vt 0.73086 0.61298
vt 0.77094 0.57353
vt 0.79710 0.45492
vt 0.55674 0.46518
vt 0.52420 0.60068
vt 0.62541 0.56042
vt 0.78893 0.52773
vt 0.26661 0.56372
vt 0.67545 0.62616
vt 0.58321 0.44790
vt 0.31472 0.47488
vt 0.74472 0.72794
vt 0.64683 0.59893
vt 0.32248 0.38123
vt 0.39793 0.43332
vt 0.80645 0.60805
vt 0.65840 0.41699
vt 0.27017 0.37200
vt 0.45188 0.39958
vt 0.41005 0.38566
vt 0.35372 0.60341
vt 0.64217 0.73684
vt 0.68413 0.68249
vt 0.72059 0.46709
vt 0.42096 0.42537
vt 0.38291 0.38524
vt 0.34985 0.35855
vt 0.60922 0.36046
vt 0.67753 0.50226
vt 0.87362 0.41745
vt 0.65550 0.57248
vt 0.67964 0.62541
vt 0.67419 0.38519
vt 0.66925 0.26042
vt 0.28855 0.31107
vt 0.55209 0.58277
vt 0.51454 0.49774
vt 0.59603 0.31172
vt 0.73447 0.54601
vt 0.48501 0.64503
vt 0.65294 0.51864
vt 0.72706 0.62682
vt 0.59376 0.54152
vt 0.64688 0.53706
vt 0.45492 0.57467
vt 0.66185 0.61141
vt 0.15962 0.59662
vt 0.86451 0.56132
vt 0.98330 0.15475
vt 0.76276 0.50230
vt 0.62080 0.65290
vt 0.60261 0.39289
vt 0.59504 0.50986
vt 0.56660 0.46498
vt 0.71538 0.59037
vt 0.45246 0.68850
vt 0.70546 0.59180
vt 0.35351 0.61437
vt 0.34252 0.61854
vt 0.42886 0.39452
vt 0.26412 0.50139
vt 0.51403 0.34275
vt 0.33344 0.58382
vt 0.31191 0.28760
vt 0.43546 0.35877
vt 0.43781 0.39912
vt 0.47497 0.04538
vt 0.53919 0.52533
vt 0.45614 0.56179
vt 0.30519 0.26982
vt 0.51436 0.40468
vt 0.46386 0.35194
vt 0.85229 0.24863
vt 0.61704 0.55937
vt 0.51277 0.46562
vt 0.23265 0.34685
vt 0.52127 0.55813
vt 0.40259 0.42337
vt 0.38162 0.68185
vt 0.67537 0.43577
vt 0.53489 0.54412
vt 0.66729 0.53509
vt 0.49306 0.55254
vt 0.46318 0.42897
vt 0.45543 0.55793
vt 0.54763 0.63981
vt 0.58890 0.66043
vt 0.77829 0.60384
vt 0.54781 0.59426
vt 0.57508 0.45492
vt 0.45084 0.40390
vt 0.67946 0.39200
vt 0.48139 0.50088
vt 0.69903 0.52196
vt 0.55333 0.46628
vt 0.19487 0.10708
vt 0.93111 0.61271
vt 0.70564 0.17885
vt 0.67016 0.32059
vt 0.64330 0.60627
vt 0.44160 0.58823
vt 0.68029 0.35941
vt 0.14274 0.33250
vt 0.72677 0.54263
vt 0.57207 0.43102
vt 0.32947 0.46279
vt 0.71685 0.46430
vt 0.40052 0.09653
vt 0.65268 0.53845
vt 0.63045 0.42326
vt 0.55683 0.45963
vt 0.61798 0.31469
vt 0.45396 0.49854
vt 0.13639 0.32430
vt 0.58575 0.33864
vt 0.65060 0.42435
vt 0.41468 0.75335
vt 0.56057 0.57405
vt 0.34877 0.44893
vt 0.28690 0.38100
vt 0.40608 0.50473
vt 0.43075 0.53119
vt 0.63045 0.47332
vt 0.36569 0.33734
vt 0.32136 0.47921
vt 0.44005 0.41983
vt 0.37430 0.36878
vt 0.40502 0.43464
vt 0.51422 0.54688
vt 0.38239 0.04660
vt 0.54827 0.55817
vt 0.33865 0.44157
vt 0.44929 0.40688
vt 0.49711 0.47390
vt 0.43229 0.45847
vt 0.36582 0.44252
vt 0.25854 0.43818
vt 0.32154 0.37272
vt 0.40653 0.37782
vt 0.40853 0.45739
vt 0.19925 0.45600
vt 0.27531 0.26071
vt 0.30075 0.42071
vt 0.38085 0.43277
vt 0.44391 0.31939
vt 0.60151 0.24014
vt 0.48853 0.40333
vt 0.47401 0.44435
vt 0.43248 0.53206
vt 0.32219 0.42698
vt 0.46541 0.39987
vt 0.51964 0.47924
vt 0.48684 0.50842
vt 0.81249 0.17961
vt 0.63289 0.51133
vt 0.57843 0.66961
vt 0.50609 0.54792
vt 0.53511 0.42734
vt 0.52529 0.48090
vt 0.55654 0.68760
vt 0.81208 0.56099
vt 0.78180 0.16388
vt 0.84030 0.19437
vt 0.67237 0.36526
vt 0.53955 0.66593
vt 0.60473 0.55483
vt 0.57110 0.78496
vt 0.43727 0.20775
vt 0.80152 0.49022
vt 0.65997 0.71776
vt 0.73631 0.11544
vt 0.69758 0.13951
vt 0.46604 0.67176
vt 0.59471 0.40062
vt 0.64345 0.55323
vt 0.46238 0.52314
vt 0.30053 0.33929
vt 0.19715 0.38742
vt 0.76322 0.32028
vt 0.50815 0.56868
vt 0.37301 0.58227
vt 0.57202 0.46096
vt 0.59207 0.66670
vt 0.57664 0.54986
vt 0.85710 0.55700
vt 0.40852 0.16068
vt 0.36650 0.25988
vt 0.51607 0.64810
vt 0.91555 0.75528
vt 0.64636 0.43361
vt 0.41037 0.71065
vt 0.74457 0.54356
vt 0.81394 0.63964
vt 0.66581 0.52569
vt 0.33705 0.22886
vt 0.54888 0.56266
vt 0.45270 0.53993
vt 0.37332 0.32128
vt 0.47857 0.37915
vt 0.37673 0.40196
vt 0.35707 0.02353
vt 0.35979 0.34355
vt 0.55473 0.44979
vt 0.38680 0.47729
vt 0.12429 0.67229
vt 0.42519 0.31591
vt 0.52813 0.41390
vt 0.39719 0.34646
vt 0.64445 0.70671
vt 0.03682 0.76923
vt 0.31459 0.30818
vt 0.41528 0.32899
vt 0.49967 0.34438
vt 0.35854 0.26017
vt 0.67757 0.71571
vt 0.32541 0.51714
vt 0.33909 0.29370
vt 0.44310 0.37108
vt 0.47879 0.48161
vt 0.35417 0.26835
vt 0.59195 0.58225
vt 0.81176 0.13098
vt 0.52669 0.59336
vt 0.56838 0.64613
vt 0.46772 0.58195
vt 0.37685 0.26323
vt 0.57030 0.71955
vt 0.76933 0.11382
vt 0.55207 0.09643
vt 0.39089 0.69335
vt 0.51711 0.58389
vt 0.41826 0.28684
vt 0.28045 0.42003
vt 0.59093 0.77884
vt 0.42153 0.56592
vt 0.73404 0.16716
vt 0.70186 0.08537
vt 0.51209 0.30609
vt 0.68895 0.37717
vt 0.60941 0.49414
vt 0.45177 0.17998
vt 0.14545 0.18983
vt 0.44752 0.90197
vt 0.48017 0.74965
vt 0.31575 0.76715
vt 0.36778 0.58464
vt 0.57372 0.27690
vt 0.34957 0.53452
vt 0.67699 0.42069
vt 0.66193 0.45458
vt 0.56346 0.57648
vt 0.42841 0.63268
vt 0.46335 0.44683
vt 0.52121 0.73298
vt 0.41894 0.63754
vt 0.73360 0.51468
vt 0.68620 0.64875
vt 0.47738 0.63887
vt 0.52336 0.62023
vt 0.00748 0.04480
vt 0.38457 0.55549
vt 0.36269 0.37129
vt 0.18957 0.38000
vt 0.34816 0.55163
vt 0.38307 0.20010
vt 0.29943 0.52930
vt 0.07704 0.57746
vt 0.47511 0.41334
vt 0.42922 0.24433
vt 0.33175 0.47996
vt 0.07571 0.74032
vt 0.51350 0.31907
vt 0.53219 0.34731
vt 0.36888 0.51303
vt 0.45623 0.31613
vt 0.33393 0.79107
vt 0.42185 0.85336
vt 0.46708 0.33462
vt 0.58643 0.36571
vt 0.49682 0.55776
vt 0.69895 0.45542
vt 0.71640 0.42348
vt 0.43835 0.66080
vt 0.33063 0.31215
vt 0.53801 0.59303
vt 0.67274 0.56394
vt 0.54551 0.54855
vt 0.65625 0.03357
vt 0.75544 0.19612
vt 0.58763 0.36640
vt 0.42251 0.24592
vt 0.48263 0.53616
vt 0.77356 0.35062
vt 0.54343 0.56013
vt 0.47254 0.87228
vt 0.54462 0.52736
vt 0.62551 0.10392
vt 0.54215 0.55835
vt 0.70325 0.44380
vt 0.76566 0.39401
vt 0.45225 0.17089
vt 0.38749 0.25755
vt 0.57025 0.59938
vt 0.59139 0.57470
vt 0.50343 0.87240
vt 0.46480 0.82207
vt 0.34489 0.84588
vt 0.36599 0.74662
vt 0.40482 0.68499
vt 0.64723 0.50358
vt 0.79495 0.57919
vt 0.58045 0.37217
vt 0.49051 0.43268
vt 0.40696 0.59347
vt 0.36129 0.34833
vt 0.66414 0.72056
vt 0.70484 0.34413
vt 0.36680 0.57920
vt 0.53308 0.38280
vt 0.60324 0.61324
vt 0.55361 0.46731
vt 0.45626 0.52233
vt 0.85578 0.63266
vt 0.57462 0.24366
vt 0.61428 0.46375
vt 0.38377 0.08198
vt 0.60470 0.22705
vt 0.45360 0.19196
vt 0.01590 0.24956
vt 0.54280 0.64287
vt 0.44043 0.37723
vt 0.02999 0.33860
vt 0.37471 0.26909
vt 0.74449 0.70387
vt 0.66752 0.36980
vt 0.59270 0.38210
vt 0.28895 0.42120
vt 0.66178 0.40602
vt 0.68576 0.37783
vt 0.32303 0.54322
vt 0.42622 0.36272
vt 0.51035 0.61385
vt 0.49133 0.49151
vt 0.53044 0.43676
vt 0.93468 0.29591
vt 0.86400 0.26572
vt 0.74151 0.66381
vt 0.66601 0.35497
vt 0.65821 0.67041
vt 0.44114 0.57343
vt 0.56532 0.43668
vt 0.60940 0.53080
vt 0.35214 0.40421
vt 0.34357 0.61335
vt 0.56097 0.51332
vt 0.48436 0.73605
vt 0.57507 0.63815
vt 0.56657 0.58716
vt 0.73925 0.46765
vt 0.21088 0.73415
vt 0.50796 0.51123
vt 0.50419 0.45188
vt 0.63133 0.67360
vt 0.93727 0.37924
vt 0.21961 0.51656
vt 0.49755 0.32222
vt 0.57729 0.60640
vt 0.59257 0.61682
vt 0.82499 0.57516
vt 0.32808 0.04336
vt 0.45197 0.41371
vt 0.63533 0.37447
vt 0.46931 0.12359
vt 0.99018 0.83376
vt 0.82256 0.44628
vt 0.61361 0.45051
vt 0.65759 0.49670
vt 0.44274 0.45228
vt 0.46878 0.51322
vt 0.12268 0.69289
vt 0.88152 0.50979
vt 0.66236 0.23190
vt 0.54103 0.41204
vt 0.81735 0.25762
vt 0.67928 0.45789
vt 0.78146 0.48469
vt 0.66253 0.69423
vt 0.86092 0.57140
vt 0.70348 0.56119
vt 0.58465 0.56799
vt 0.43568 0.72146
vt 0.47581 0.68567
vt 0.60812 0.73031
vt 0.89480 0.83670
vt 0.42111 0.73252
vt 0.78758 0.73034
vt 0.76680 0.77057
vt 0.60091 0.57877
vt 0.57220 0.38367
vt 0.84714 0.29777
vt 0.29301 0.69379
vt 0.62426 0.57154
vt 0.83576 0.40928
vt 0.80384 0.77642
vt 0.49757 0.62232
vt 0.59619 0.70051
vt 0.85864 0.73898
vt 0.80481 0.57493
vt 0.36494 0.74536
vt 0.47408 0.56748
vt 0.10519 0.74694
vt 0.37549 0.78552
vt 0.90035 0.49693
vn 0.70072 0.70232 0.12550
vn 0.27664 0.70063 0.65771
vn -0.41312 0.67224 0.61435
vn -0.54378 0.70343 0.45770
vn -0.65797 0.64850 -0.38278
vn -0.43053 0.73725 0.52068
vn -0.18456 0.98217 -0.03567
vn 0.24764 0.94397 0.21817
vn 0.31960 0.87729 0.35808
vn -0.61324 0.63381 0.47141
vn -0.36519 0.83344 0.41476
vn -0.36820 0.91269 -0.17727
vn 0.13710 0.98341 -0.11873
vn 0.22503 0.96172 0.15636
vn -0.14936 0.87338 0.46357
vn -0.16355 0.41095 0.89687
vn 0.57778 0.78368 0.22807
vn 0.48988 0.85373 0.17654
vn -0.02715 0.95564 0.29328
vn -0.12009 0.46180 0.87882
vn -0.36907 0.76079 0.53383
vn -0.18249 0.98321 -0.00180
vn 0.51983 0.84692 0.11179
vn 0.25681 0.94089 0.22084
vn 0.10926 0.95482 -0.27638
vn 0.04940 0.99874 0.00932
vn -0.13282 0.97670 0.16855
vn -0.08512 0.93578 0.34215
vn 0.25816 0.69912 0.66678
vn 0.57151 0.79398 -0.20727
vn 0.43320 0.69408 0.57497
vn 0.82004 0.57029 0.04800
vn 0.72942 0.65272 0.20471
vn 0.77810 0.62814 -0.00115
vn 0.86103 0.47248 0.18813
vn 0.67209 0.50259 0.54379
vn 0.79101 0.52031 0.32183
vn 0.82268 0.56652 0.04745
vn 0.58109 0.79447 0.17649
vn 0.68232 0.49201 0.54072
vn 0.84565 0.43631 0.30742
vn 0.84880 0.52836 0.01931
vn 0.97211 -0.07233 0.22308
vn 0.20502 0.36120 0.90967
vn 0.31953 0.93842 -0.13139
vn 0.56560 0.70282 0.43143
vn 0.75708 0.60104 0.25610
vn 0.18239 0.21019 -0.96050
vn 0.67953 0.72973 -0.07568
vn 0.20620 0.77247 0.60064
vn 0.20019 0.67061 0.71429
vn -0.17050 0.47540 -0.86309
vn 0.39003 0.89068 -0.23358
vn -0.15477 0.76283 -0.62781
vn 0.02462 0.75775 -0.65209
vn -0.25288 0.96679 0.03711
vn 0.34819 0.93054 0.11340
vn 0.27304 0.95903 0.07562
vn 0.15275 0.88450 0.44083
vn 0.56552 0.66536 0.48733
vn 0.21194 0.50602 -0.83608
vn -0.21211 0.96378 0.16166
vn 0.60565 0.79560 -0.01424
vn 0.45225 0.69180 0.56292
vn 0.54478 0.74557 0.38386
vn 0.64241 0.76077 0.09243
vn 0.66718 0.64063 0.38010
vn 0.46233 0.59423 0.65814
vn 0.59494 0.64008 0.48615
vn 0.71095 0.43647 -0.55140
vn 0.85539 0.48538 0.18084
vn 0.46747 0.55664 0.68675
vn 0.61464 0.00210 0.78880
vn 0.77290 0.26167 -0.57806
vn 0.88092 0.45447 -0.13205
vn 0.80803 0.50092 -0.31011
vn 0.90581 0.30553 0.29353
vn 0.64920 0.55892 0.51589
vn 0.25597 0.48691 0.83511
vn 0.73142 0.28202 -0.62088
vn 0.90468 0.42368 -0.04531
vn 0.78275 0.54751 -0.29586
vn 0.71869 0.68519 -0.11830
vn 0.66052 0.73916 0.13171
vn 0.54783 0.45599 0.70139
vn 0.41287 0.56115 -0.71738
vn 0.40755 0.91102 0.06274
vn 0.01976 0.89897 0.43756
vn 0.05128 0.55720 0.82879
vn 0.33190 0.75423 -0.56656
vn 0.91174 0.40314 -0.07877
vn 0.72037 0.68541 -0.10617
vn 0.62650 0.77925 0.01623
vn 0.49117 0.81062 0.31881
vn 0.09620 0.99119 -0.09101
vn -0.08242 0.93675 0.34017
vn -0.02687 0.87492 0.48351
vn -0.26408 0.82848 0.49385
vn 0.17428 0.95033 -0.25786
vn 0.08671 0.90900 -0.40768
vn 0.40602 0.91175 0.06213
vn 0.19331 0.84803 0.49343
vn -0.78793 0.61342 -0.05365
vn -0.38787 0.77952 0.49185
vn -0.14169 0.73352 -0.66474
vn -0.10375 0.94935 0.29660
vn 0.57127 0.81899 -0.05387
vn -0.43743 -0.04479 -0.89814
vn 0.34191 0.91354 -0.22032
vn 0.12327 0.97590 -0.18006
vn -0.11196 0.79526 -0.59584
vn -0.18143 0.71887 -0.67105
vn 0.55960 0.80250 0.20700
vn 0.56023 0.52000 0.64478
vn 0.31719 0.68312 0.65783
vn 0.68718 0.67198 -0.27610
vn 0.61852 0.75320 0.22388
vn 0.57983 0.71127 0.39735
vn 0.34056 0.70306 0.62428
vn 0.82120 0.49583 -0.28245
vn 0.77684 0.53016 -0.33978
vn 0.09898 0.43043 -0.89718
vn 0.89405 0.32334 -0.31004
vn 0.69397 0.55704 0.45619
vn 0.54952 0.39566 0.73585
vn 0.84866 0.46747 -0.24749
vn 0.93959 0.28737 -0.18596
vn -0.50279 0.05550 -0.86263
vn 0.82214 0.45659 0.34000
vn 0.73895 0.26201 0.62073
vn 0.84212 0.22630 0.48951
vn 0.66827 0.33225 -0.66560
vn 0.96584 0.25895 -0.01034
vn -0.70082 -0.01450 -0.71319
vn 0.57787 0.68987 -0.43605
vn 0.21929 0.97499 -0.03623
vn 0.50982 0.40676 0.75804
vn 0.98161 0.19020 -0.01655
vn 0.86816 -0.04817 -0.49394
vn 0.81774 0.55470 -0.15365
vn -0.79161 0.15491 -0.59106
vn -0.12506 0.61292 -0.78019
vn -0.03966 0.95092 0.30689
vn 0.18183 0.81388 0.55185
vn 0.59248 0.58914 0.54944
vn 0.54154 0.80359 -0.24693
vn 0.79192 0.58092 -0.18816
vn 0.01995 0.68849 -0.72498
vn 0.90059 0.24345 -0.36009
vn 0.25555 0.91971 -0.29804
vn -0.39998 0.82656 -0.39599
vn -0.81604 0.49944 -0.29094
vn 0.10901 0.28981 -0.95086
vn 0.15404 0.80267 0.57619
vn -0.08950 0.81318 -0.57509
vn 0.28817 0.67213 0.68206
vn 0.29975 0.92162 0.24651
vn 0.53648 0.56919 -0.62306
vn 0.72371 0.07695 -0.68580
vn -0.16874 0.77443 -0.60975
vn -0.76132 0.43351 0.48215
vn -0.51500 0.82502 -0.23261
vn -0.41034 0.88096 0.23565
vn -0.09836 0.76120 0.64102
vn -0.14018 0.94567 -0.29334
vn 0.34234 0.91275 0.22292
vn -0.28976 0.94990 0.11721
vn -0.11988 0.55392 0.82390
vn 0.84046 0.12864 -0.52638
vn 0.57625 0.15620 -0.80221
vn -0.07592 0.77826 -0.62334
vn -0.49546 0.86484 -0.08104
vn 0.19954 0.97823 -0.05708
vn 0.24595 0.96733 -0.06147
vn 0.80163 0.47512 -0.36285
vn 0.55840 0.30653 -0.77086
vn 0.07893 0.80572 -0.58701
vn 0.27808 0.95068 -0.13737
vn -0.02250 0.78592 -0.61792
vn 0.61631 0.78370 0.07725
vn 0.67607 0.73066 0.09522
vn 0.56882 0.69386 0.44159
vn 0.75525 0.65364 0.04857
vn 0.33427 0.71686 -0.61186
vn 0.56245 0.55335 -0.61437
vn 0.89273 0.37621 -0.24801
vn 0.43548 0.70613 0.55833
vn 0.75095 0.57682 0.32147
vn 0.54749 0.43512 -0.71479
vn 0.37663 0.49137 -0.78531
vn 0.66632 0.70865 0.23202
vn 0.25604 0.72912 0.63469
vn 0.78141 0.59361 0.19241
vn 0.54422 0.52628 -0.65334
vn -0.20268 0.39507 -0.89601
vn 0.14340 0.62110 0.77050
vn -0.34879 0.47166 0.80987
vn 0.90891 0.41610 0.02728
vn 0.71705 0.41719 -0.55838
vn 0.72246 0.46442 -0.51221
vn -0.58282 0.03106 -0.81201
vn 0.57993 0.34535 -0.73784
vn 0.24800 0.58001 0.77594
vn -0.46174 0.07424 0.88391
vn 0.36742 0.34780 0.86258
vn 0.71647 0.29219 -0.63347
vn 0.05649 0.14667 -0.98757
vn -0.10650 0.27837 -0.95455
vn 0.61358 0.77806 -0.13469
vn 0.24438 0.49290 0.83506
vn -0.23713 -0.10792 0.96547
vn 0.80143 0.15883 0.57662
vn 0.45476 -0.71939 0.52504
vn -0.15288 -0.14403 -0.97769
vn -0.08706 0.34119 -0.93595
vn 0.39967 0.27364 -0.87486
vn 0.89307 0.31793 0.31836
vn 0.21578 0.56719 0.79482
vn 0.28651 0.48402 0.82683
vn -0.48390 0.49752 0.71994
vn 0.10258 0.07765 0.99169
vn 0.13713 0.84798 -0.51199
vn -0.52167 0.81339 0.25741
vn -0.22329 0.25063 -0.94198
vn -0.09198 0.74750 -0.65786
vn -0.12930 0.94892 -0.28781
vn 0.11450 0.95324 0.27967
vn 0.20572 0.77085 0.60288
vn -0.43337 0.87562 -0.21328
vn -0.72100 0.46472 0.51399
vn -0.31627 0.83807 0.44454
vn -0.63558 0.74782 -0.19183
vn -0.30179 -0.15860 -0.94009
vn -0.30933 0.46939 -0.82704
vn 0.08028 0.96349 -0.25541
vn 0.34767 0.93622 0.05116
vn 0.06385 0.88989 0.45169
vn 0.22429 0.93177 -0.28549
vn -0.30380 0.94029 0.15350
vn -0.04559 0.96232 0.26807
vn -0.35634 0.86712 0.34804
vn -0.78218 -0.27169 -0.56069
vn -0.55206 -0.25013 -0.79541
vn -0.49994 0.26164 -0.82559
vn -0.81825 0.57375 -0.03575
vn -0.41100 0.05130 -0.91019
vn -0.24726 0.70213 -0.66774
vn -0.46481 0.64491 -0.60667
vn -0.43394 0.89533 0.10041
vn -0.13518 0.77773 -0.61390
vn -0.31066 0.94419 0.10951
vn -0.01341 0.99972 0.01931
vn -0.22587 0.91766 -0.32694
vn -0.46807 0.68782 0.55481
vn -0.60218 0.41137 0.68421
vn -0.31383 0.35818 -0.87933
vn 0.91896 0.36429 -0.15099
vn -0.63404 0.39369 0.66558
vn -0.90905 0.40245 -0.10802
vn -0.45841 0.21824 -0.86153
vn -0.28990 0.69105 0.66212
vn -0.54325 0.45600 0.70494
vn -0.89049 0.32830 -0.31505
vn -0.51629 0.16006 -0.84133
vn -0.26828 0.31401 -0.91073
vn -0.02260 0.62422 0.78092
vn -0.65889 0.41997 0.62409
vn -0.54557 0.35508 0.75913
vn -0.82463 0.14302 -0.54729
vn -0.58542 0.08720 -0.80603
vn -0.35062 0.30896 -0.88408
vn -0.13481 0.56997 0.81053
vn -0.67546 0.27209 0.68536
vn -0.61676 0.22838 0.75329
vn -0.54076 -0.27503 -0.79494
vn -0.62581 0.04243 -0.77882
vn -0.35138 0.28829 -0.89074
vn -0.08932 0.49578 0.86384
vn -0.57781 0.43081 0.69321
vn -0.71073 0.20983 0.67144
vn -0.37895 -0.14232 -0.91441
vn -0.58337 0.02013 -0.81195
vn -0.37587 0.39976 -0.83601
vn -0.03477 0.57500 0.81741
vn -0.13363 0.19057 0.97253
vn 0.30087 0.91513 0.26835
vn 0.38533 0.53550 -0.75151
vn -0.65119 -0.08220 -0.75445
vn -0.32659 0.25046 -0.91138
vn -0.34016 0.69071 -0.63813
vn 0.15917 0.47873 0.86341
vn -0.05201 0.97462 -0.21774
vn 0.06108 0.83507 0.54674
vn -0.15657 0.30355 0.93986
vn -0.48375 0.62105 0.61667
vn -0.27358 0.67103 -0.68911
vn -0.78928 -0.26649 -0.55319
vn -0.31048 0.12287 -0.94261
vn -0.38508 0.76405 -0.51763
vn -0.23440 0.94994 -0.20657
vn -0.00345 0.98572 0.16838
vn 0.23923 0.77863 0.58009
vn -0.26239 0.95927 0.10469
vn -0.30789 0.92159 -0.23638
vn -0.36125 0.86559 0.34677
vn -0.28225 0.95731 0.06247
vn 0.14530 0.78039 -0.60818
vn 0.70478 0.69202 -0.15620
vn -0.38959 0.56606 -0.72649
vn -0.26753 0.92429 -0.27223
vn -0.38484 0.71557 0.58297
vn 0.16477 0.20452 -0.96490
vn 0.21300 0.93364 -0.28801
vn -0.64393 0.70689 -0.29267
vn -0.15298 0.96228 -0.22499
vn -0.38511 0.03200 0.92232
vn 0.43141 0.42962 0.79330
vn -0.46278 0.45478 0.76093
vn -0.85286 0.31650 -0.41528
vn 0.25222 0.51021 0.82224
vn -0.55036 0.44246 0.70805
vn -0.72306 0.36506 -0.58644
vn 0.24866 0.67842 0.69131
vn -0.30091 0.56704 0.76675
vn -0.85737 0.42782 0.28615
vn -0.60589 0.42365 -0.67337
vn 0.24305 0.57820 0.77885
vn -0.69884 0.42639 0.57430
vn -0.95501 0.21160 -0.20782
vn -0.17390 0.66912 -0.72252
vn 0.98288 -0.02130 0.18300
vn -0.10700 0.44971 0.88674
vn 0.07407 0.11923 0.99010
vn -0.75586 0.40728 0.51264
vn -0.62106 0.08404 -0.77924
vn 0.31464 0.91761 -0.24288
vn 0.94851 0.09855 -0.30102
vn 0.05296 0.88939 0.45407
vn -0.50423 0.43919 0.74355
vn -0.91538 0.27483 0.29418
vn -0.92891 -0.10051 -0.35639
vn -0.22520 -0.32785 0.91750
vn 0.75573 0.07877 -0.65013
vn -0.08243 0.83257 0.54775
vn -0.44972 0.59161 0.66914
vn -0.74226 0.44419 0.50175
vn -0.95703 0.05354 0.28502
vn -0.83011 0.09032 -0.55024
vn -0.60203 0.21876 0.76792
vn 0.40133 0.56321 -0.72230
vn -0.36479 0.67448 -0.64188
vn 0.04719 0.71339 0.69918
vn 0.05168 0.19111 0.98021
vn 0.56117 0.80262 0.20220
vn 0.34563 0.92684 0.14662
vn -0.36581 0.91596 0.16495
vn -0.69081 0.20995 0.69189
vn -0.99756 0.03038 0.06292
vn 0.33619 0.92701 0.16620
vn -0.31948 0.84370 0.43141
vn -0.38723 0.77031 -0.50664
vn -0.16069 0.89970 -0.40585
vn -0.06774 0.99702 -0.03695
vn 0.11970 0.96238 0.24391
vn 0.08091 0.90903 0.40881
vn 0.53669 0.78376 0.31254
vn -0.13102 0.95424 -0.26880
vn -0.46625 0.63028 0.62077
vn -0.83521 0.43502 0.33642
vn -0.26942 0.84439 0.46304
vn -0.31353 0.59906 -0.73677
vn 0.02816 0.99688 0.07377
vn -0.48420 0.87460 0.02511
vn -0.36662 0.89357 0.25909
vn -0.28000 0.95619 0.08540
vn -0.28081 0.66741 -0.68971
vn -0.21570 0.86781 -0.44763
vn -0.52236 0.77732 0.35058
vn -0.25033 0.83848 0.48403
vn 0.06879 0.77200 -0.63189
vn -0.40024 0.70633 0.58388
vn 0.11007 0.03865 0.99317
vn -0.09217 0.35119 0.93176
vn 0.08528 0.17353 0.98113
vn -0.62603 0.15970 0.76327
vn -0.49546 0.41640 0.76232
vn -0.30799 0.23580 0.92170
vn -0.79903 0.31072 0.51479
vn 0.54349 0.67519 0.49873
vn 0.29960 0.37666 0.87657
vn -0.54808 0.57959 0.60306
vn -0.38691 -0.24164 -0.88989
vn -0.66334 0.42393 0.61666
vn 0.68907 0.65574 0.30853
vn 0.61789 0.69865 0.36069
vn -0.70123 0.62570 0.34173
vn -0.77447 0.56816 0.27818
vn 0.08396 0.70293 -0.70629
vn -0.74900 0.13154 0.64938
vn 0.51569 -0.44880 -0.72982
vn 0.77451 -0.60091 0.19760
vn 0.07507 0.48794 0.86964
vn 0.57861 0.60637 0.54546
vn 0.48879 0.84062 0.23333
vn -0.09805 0.88646 -0.45231
vn -0.51854 0.79576 0.31286
vn -0.82676 0.56179 -0.02930
vn -0.17879 0.14834 -0.97264
vn -0.78540 0.38618 0.48374
vn 0.30670 0.85205 -0.42419
vn 0.65160 0.69081 -0.31337
vn 0.35951 0.92663 0.10999
vn 0.22808 0.94354 0.24023
vn 0.39216 0.90420 0.16918
vn -0.00440 0.99999 -0.00153
vn 0.64310 0.70440 0.30040
vn -0.25130 0.75440 -0.60640
vn -0.56253 0.74172 -0.36526
vn 0.05126 0.99844 0.02227
vn 0.16263 0.55470 -0.81600
vn 0.36887 0.92759 -0.05930
vn -0.01523 0.99929 -0.03444
vn -0.04316 0.97976 -0.19549
vn 0.22218 0.91638 -0.33298
vn -0.13581 0.96618 -0.21919
vn 0.79816 -0.20225 0.56748
vn 0.05592 -0.06565 0.99627
vn 0.58754 0.45035 0.67230
vn 0.30320 0.25630 0.91781
vn 0.37449 0.89398 -0.24609
vn 0.37594 0.57357 0.72780
vn 0.82326 0.42513 0.37617
vn 0.78522 0.60916 0.11114
vn -0.45246 0.57273 -0.68356
vn 0.24324 0.91020 -0.33523
vn -0.05949 0.99823 -0.00050
vn -0.60348 0.77647 -0.18139
vn -0.18585 0.49260 0.85018
vn 0.34503 0.93794 0.03496
vn 0.45190 0.88779 0.08723
vn -0.16649 0.98164 -0.09304
vn 0.18531 0.97973 -0.07613
vn -0.11678 0.97200 -0.20391
vn -0.33075 0.92786 -0.17231
vn -0.72615 0.68613 -0.04384
vn -0.15233 0.96215 -0.22596
vn 0.26758 0.88998 -0.36924
vn 0.20626 0.90152 -0.38042
vn 0.39760 0.91753 0.00664
vn 0.53850 0.81820 -0.20140
vn 0.12000 0.99150 -0.05019
vn 0.40400 0.88367 -0.23644
vn 0.44917 0.70155 -0.55323
vn 0.31027 0.71156 -0.63041
vn 0.55568 0.82793 -0.07579
vn 0.01947 0.87270 -0.48787
vn 0.78952 0.31322 0.52779
vn 0.79078 0.57211 0.21762
vn 0.85498 0.50699 -0.10942
vn 0.86885 0.29828 0.39513
vn 0.56724 0.82031 0.07299
vn 0.56709 0.81885 0.08887
vn 0.53188 0.83083 -0.16380
vn 0.76580 0.62434 0.15410
vn -0.01174 0.99424 -0.10654
vn 0.72489 0.53408 -0.43508
vn 0.44529 0.78039 0.43899
vn 0.44629 0.86497 -0.22946
vn 0.66779 0.74419 0.01530
usemtl lingcao_qingxin_mature_mat
s off
f 319/319/319 253/253/253 256/256/256
f 253/253/253 319/319/319 252/252/252
f 256/256/256 319/319/319 318/318/318
f 184/184/184 256/256/256 253/253/253
f 190/190/190 185/185/185 184/184/184
f 330/330/330 331/331/331 326/326/326
f 321/321/321 322/322/322 326/326/326
f 326/326/326 325/325/325 321/321/321
f 325/325/325 326/326/326 330/330/330
f 329/329/329 325/325/325 330/330/330
f 321/321/321 318/318/318 322/322/322
f 337/337/337 336/336/336 330/330/330
f 330/330/330 388/388/388 329/329/329
f 387/387/387 329/329/329 388/388/388
f 330/330/330 336/336/336 335/335/335
f 329/329/329 326/326/326 330/330/330
f 335/335/335 329/329/329 330/330/330
f 341/341/341 335/335/335 336/336/336
f 329/329/329 325/325/325 326/326/326
f 388/388/388 393/393/393 387/387/387
f 392/392/392 387/387/387 393/393/393
f 341/341/341 392/392/392 335/335/335
f 322/322/322 319/319/319 260/260/260
f 319/319/319 322/322/322 318/318/318
f 256/256/256 322/322/322 319/319/319
f 184/184/184 189/189/189 256/256/256
f 330/330/330 336/336/336 329/329/329
f 412/412/412 413/413/413 433/433/433
f 433/433/433 432/432/432 412/412/412
f 432/432/432 439/439/439 412/412/412
f 414/414/414 365/365/365 403/403/403
f 365/365/365 291/291/291 352/352/352
f 291/291/291 365/365/365 302/302/302
f 301/301/301 302/302/302 365/365/365
f 401/401/401 350/350/350 400/400/400
f 401/401/401 400/400/400 410/410/410
f 410/410/410 361/361/361 411/411/411
f 315/315/315 378/378/378 314/314/314
f 381/381/381 380/380/380 314/314/314
f 314/314/314 380/380/380 377/377/377
f 309/309/309 244/244/244 248/248/248
f 360/360/360 418/418/418 408/408/408
f 348/348/348 408/408/408 398/398/398
f 359/359/359 349/349/349 360/360/360
f 424/424/424 423/423/423 418/418/418
f 424/424/424 418/418/418 376/376/376
f 408/408/408 417/417/417 445/445/445
f 417/417/417 408/408/408 418/418/418
f 307/307/307 312/312/312 308/308/308
f 142/142/142 216/216/216 209/209/209
f 128/128/128 202/202/202 201/201/201
f 134/134/134 208/208/208 128/128/128
f 122/122/122 128/128/128 201/201/201
f 141/141/141 215/215/215 134/134/134
f 195/195/195 189/189/189 190/190/190
f 183/183/183 189/189/189 184/184/184
f 121/121/121 200/200/200 194/194/194
f 66/66/66 67/67/67 117/117/117
f 208/208/208 201/201/201 134/134/134
f 206/206/206 214/214/214 207/207/207
f 67/67/67 66/66/66 70/70/70
f 70/70/70 71/71/71 67/67/67
f 70/70/70 74/74/74 126/126/126
f 236/236/236 164/164/164 237/237/237
f 236/236/236 163/163/163 164/164/164
f 163/163/163 236/236/236 174/174/174
f 143/143/143 226/226/226 216/216/216
f 143/143/143 216/216/216 142/142/142
f 151/151/151 152/152/152 162/162/162
f 84/84/84 85/85/85 144/144/144
f 85/85/85 94/94/94 44/44/44
f 85/85/85 84/84/84 95/95/95
f 94/94/94 95/95/95 84/84/84
f 94/94/94 85/85/85 95/95/95
f 21/21/21 16/16/16 44/44/44
f 12/12/12 4/4/4 20/20/20
f 11/11/11 4/4/4 12/12/12
f 4/4/4 11/11/11 3/3/3
f 172/172/172 244/244/244 171/171/171
f 244/244/244 172/172/172 245/245/245
f 160/160/160 172/172/172 171/171/171
f 307/307/307 242/242/242 246/246/246
f 160/160/160 150/150/150 149/149/149
f 149/149/149 102/102/102 160/160/160
f 101/101/101 90/90/90 55/55/55
f 81/81/81 74/74/74 80/80/80
f 91/91/91 80/80/80 90/90/90
f 176/176/176 111/111/111 112/112/112
f 62/62/62 101/101/101 56/56/56
f 100/100/100 56/56/56 101/101/101
f 56/56/56 100/100/100 55/55/55
f 250/250/250 177/177/177 251/251/251
f 178/178/178 251/251/251 177/177/177
f 179/179/179 178/178/178 177/177/177
f 11/11/11 15/15/15 10/10/10
f 18/18/18 19/19/19 49/49/49
f 57/57/57 56/56/56 26/26/26
f 56/56/56 25/25/25 26/26/26
f 25/25/25 31/31/31 26/26/26
f 2/2/2 18/18/18 1/1/1
f 1/1/1 9/9/9 2/2/2
f 8/8/8 1/1/1 18/18/18
f 387/387/387 427/427/427 386/386/386
f 428/428/428 386/386/386 427/427/427
f 427/427/427 429/429/429 428/428/428
f 255/255/255 258/258/258 254/254/254
f 252/252/252 183/183/183 182/182/182
f 382/382/382 383/383/383 325/325/325
f 382/382/382 384/384/384 383/383/383
f 255/255/255 317/317/317 254/254/254
f 317/317/317 320/320/320 254/254/254
f 258/258/258 254/254/254 320/320/320
f 324/324/324 258/258/258 320/320/320
f 258/258/258 324/324/324 262/262/262
f 324/324/324 328/328/328 262/262/262
f 327/327/327 333/333/333 332/332/332
f 333/333/333 339/339/339 338/338/338
f 267/267/267 262/262/262 328/328/328
f 333/333/333 267/267/267 328/328/328
f 267/267/267 333/333/333 273/273/273
f 198/198/198 192/192/192 268/268/268
f 273/273/273 267/267/267 268/268/268
f 204/204/204 197/197/197 273/273/273
f 273/273/273 279/279/279 204/204/204
f 211/211/211 204/204/204 279/279/279
f 273/273/273 339/339/339 279/279/279
f 460/460/460 459/459/459 463/463/463
f 459/459/459 469/469/469 463/463/463
f 454/454/454 468/468/468 466/466/466
f 453/453/453 454/454/454 466/466/466
f 375/375/375 422/422/422 370/370/370
f 422/422/422 417/417/417 370/370/370
f 417/417/417 369/369/369 370/370/370
f 296/296/296 222/222/222 232/232/232
f 296/296/296 287/287/287 222/222/222
f 295/295/295 306/306/306 231/231/231
f 390/390/390 389/389/389 338/338/338
f 379/379/379 425/425/425 373/373/373
f 373/373/373 425/425/425 420/420/420
f 285/285/285 294/294/294 220/220/220
f 230/230/230 220/220/220 294/294/294
f 294/294/294 305/305/305 240/240/240
f 240/240/240 241/241/241 305/305/305
f 305/305/305 304/304/304 240/240/240
f 239/239/239 240/240/240 304/304/304
f 229/229/229 230/230/230 240/240/240
f 240/240/240 239/239/239 229/229/229
f 434/434/434 435/435/435 447/447/447
f 441/441/441 434/434/434 447/447/447
f 447/447/447 451/451/451 441/441/441
f 435/435/435 442/442/442 415/415/415
f 415/415/415 405/405/405 435/435/435
f 345/345/345 395/395/395 344/344/344
f 395/395/395 394/394/394 344/344/344
f 394/394/394 404/404/404 344/344/344
f 303/303/303 292/292/292 293/293/293
f 292/292/292 303/303/303 227/227/227
f 238/238/238 227/227/227 303/303/303
f 187/187/187 183/183/183 182/182/182
f 193/193/193 192/192/192 198/198/198
f 187/187/187 192/192/192 119/119/119
f 192/192/192 193/193/193 188/188/188
f 119/119/119 193/193/193 192/192/192
f 191/191/191 119/119/119 192/192/192
f 119/119/119 191/191/191 118/118/118
f 119/119/119 118/118/118 124/124/124
f 118/118/118 191/191/191 124/124/124
f 137/137/137 78/78/78 131/131/131
f 78/78/78 79/79/79 131/131/131
f 130/130/130 129/129/129 136/136/136
f 222/222/222 158/158/158 232/232/232
f 147/147/147 221/221/221 157/157/157
f 231/231/231 157/157/157 221/221/221
f 146/146/146 156/156/156 147/147/147
f 108/108/108 169/169/169 158/158/158
f 158/158/158 100/100/100 108/108/108
f 55/55/55 100/100/100 61/61/61
f 100/100/100 99/99/99 55/55/55
f 231/231/231 241/241/241 230/230/230
f 230/230/230 240/240/240 239/239/239
f 168/168/168 239/239/239 167/167/167
f 156/156/156 168/168/168 167/167/167
f 89/89/89 79/79/79 147/147/147
f 78/78/78 89/89/89 79/79/79
f 146/146/146 156/156/156 98/98/98
f 98/98/98 89/89/89 88/88/88
f 89/89/89 98/98/98 99/99/99
f 87/87/87 88/88/88 146/146/146
f 146/146/146 145/145/145 87/87/87
f 106/106/106 98/98/98 156/156/156
f 167/167/167 106/106/106 156/156/156
f 7/7/7 8/8/8 24/24/24
f 97/97/97 87/87/87 145/145/145
f 154/154/154 227/227/227 166/166/166
f 45/45/45 87/87/87 53/53/53
f 87/87/87 97/97/97 53/53/53
f 53/53/53 60/60/60 29/29/29
f 316/316/316 319/319/319 253/253/253
f 252/252/252 253/253/253 256/256/256
f 252/252/252 256/256/256 318/318/318
f 253/253/253 181/181/181 184/184/184
f 180/180/180 253/253/253 252/252/252
f 180/180/180 181/181/181 253/253/253
f 277/277/277 271/271/271 208/208/208
f 215/215/215 283/283/283 277/277/277
f 215/215/215 277/277/277 208/208/208
f 336/336/336 337/337/337 331/331/331
f 336/336/336 331/331/331 330/330/330
f 388/388/388 330/330/330 385/385/385
f 341/341/341 336/336/336 342/342/342
f 326/326/326 260/260/260 264/264/264
f 260/260/260 265/265/265 264/264/264
f 257/257/257 256/256/256 185/185/185
f 190/190/190 257/257/257 185/185/185
f 185/185/185 256/256/256 184/184/184
f 260/260/260 256/256/256 189/189/189
f 260/260/260 189/189/189 195/195/195
f 260/260/260 195/195/195 265/265/265
f 256/256/256 260/260/260 319/319/319
f 322/322/322 256/256/256 260/260/260
f 321/321/321 319/319/319 322/322/322
f 322/322/322 260/260/260 326/326/326
f 322/322/322 326/326/326 325/325/325
f 322/322/322 325/325/325 321/321/321
f 259/259/259 256/256/256 260/260/260
f 259/259/259 255/255/255 256/256/256
f 260/260/260 264/264/264 263/263/263
f 260/260/260 263/263/263 259/259/259
f 194/194/194 264/264/264 260/260/260
f 194/194/194 260/260/260 189/189/189
f 330/330/330 326/326/326 271/271/271
f 277/277/277 337/337/337 330/330/330
f 277/277/277 330/330/330 271/271/271
f 326/326/326 264/264/264 271/271/271
f 343/343/343 337/337/337 277/277/277
f 343/343/343 277/277/277 283/283/283
f 265/265/265 271/271/271 264/264/264
f 201/201/201 271/271/271 265/265/265
f 201/201/201 265/265/265 195/195/195
f 208/208/208 271/271/271 201/201/201
f 270/270/270 277/277/277 276/276/276
f 264/264/264 200/200/200 270/270/270
f 264/264/264 194/194/194 201/201/201
f 264/264/264 201/201/201 200/200/200
f 208/208/208 277/277/277 270/270/270
f 208/208/208 270/270/270 200/200/200
f 342/342/342 276/276/276 282/282/282
f 276/276/276 277/277/277 283/283/283
f 276/276/276 283/283/283 282/282/282
f 330/330/330 326/326/326 264/264/264
f 330/330/330 264/264/264 270/270/270
f 276/276/276 336/336/336 330/330/330
f 276/276/276 330/330/330 270/270/270
f 336/336/336 276/276/276 342/342/342
f 335/335/335 329/329/329 336/336/336
f 264/264/264 270/270/270 269/269/269
f 264/264/264 269/269/269 263/263/263
f 270/270/270 276/276/276 275/275/275
f 270/270/270 275/275/275 269/269/269
f 200/200/200 264/264/264 194/194/194
f 207/207/207 276/276/276 270/270/270
f 207/207/207 270/270/270 200/200/200
f 214/214/214 282/282/282 276/276/276
f 214/214/214 276/276/276 207/207/207
f 276/276/276 282/282/282 281/281/281
f 276/276/276 281/281/281 275/275/275
f 433/433/433 440/440/440 413/413/413
f 433/433/433 413/413/413 402/402/402
f 352/352/352 403/403/403 365/365/365
f 414/414/414 364/364/364 365/365/365
f 402/402/402 413/413/413 403/403/403
f 364/364/364 414/414/414 403/403/403
f 364/364/364 403/403/403 413/413/413
f 364/364/364 413/413/413 412/412/412
f 365/365/365 364/364/364 301/301/301
f 302/302/302 301/301/301 236/236/236
f 302/302/302 236/236/236 237/237/237
f 301/301/301 300/300/300 236/236/236
f 363/363/363 364/364/364 412/412/412
f 300/300/300 364/364/364 363/363/363
f 412/412/412 411/411/411 419/419/419
f 363/363/363 412/412/412 362/362/362
f 412/412/412 419/419/419 362/362/362
f 300/300/300 299/299/299 290/290/290
f 300/300/300 290/290/290 225/225/225
f 300/300/300 225/225/225 235/235/235
f 364/364/364 300/300/300 301/301/301
f 235/235/235 236/236/236 300/300/300
f 300/300/300 363/363/363 362/362/362
f 299/299/299 300/300/300 362/362/362
f 467/467/467 466/466/466 468/468/468
f 411/411/411 361/361/361 362/362/362
f 350/350/350 361/361/361 410/410/410
f 362/362/362 361/361/361 351/351/351
f 350/350/350 351/351/351 361/361/361
f 350/350/350 410/410/410 400/400/400
f 362/362/362 419/419/419 411/411/411
f 290/290/290 299/299/299 362/362/362
f 290/290/290 362/362/362 351/351/351
f 225/225/225 290/290/290 299/299/299
f 290/290/290 216/216/216 225/225/225
f 290/290/290 351/351/351 350/350/350
f 290/290/290 350/350/350 289/289/289
f 350/350/350 283/283/283 289/289/289
f 350/350/350 343/343/343 283/283/283
f 283/283/283 290/290/290 289/289/289
f 290/290/290 283/283/283 215/215/215
f 290/290/290 215/215/215 216/216/216
f 314/314/314 378/378/378 381/381/381
f 315/315/315 314/314/314 309/309/309
f 315/315/315 309/309/309 248/248/248
f 315/315/315 248/248/248 249/249/249
f 393/393/393 399/399/399 398/398/398
f 393/393/393 398/398/398 392/392/392
f 408/408/408 399/399/399 409/409/409
f 399/399/399 408/408/408 398/398/398
f 342/342/342 349/349/349 348/348/348
f 342/342/342 348/348/348 341/341/341
f 349/349/349 360/360/360 408/408/408
f 349/349/349 408/408/408 348/348/348
f 377/377/377 376/376/376 371/371/371
f 376/376/376 377/377/377 424/424/424
f 376/376/376 418/418/418 371/371/371
f 409/409/409 418/418/418 417/417/417
f 408/408/408 409/409/409 417/417/417
f 418/418/418 445/445/445 417/417/417
f 418/418/418 360/360/360 371/371/371
f 342/342/342 282/282/282 289/289/289
f 342/342/342 289/289/289 349/349/349
f 349/349/349 289/289/289 298/298/298
f 349/349/349 298/298/298 360/360/360
f 282/282/282 283/283/283 289/289/289
f 224/224/224 289/289/289 283/283/283
f 224/224/224 283/283/283 215/215/215
f 234/234/234 298/298/298 289/289/289
f 234/234/234 289/289/289 224/224/224
f 359/359/359 348/348/348 349/349/349
f 223/223/223 288/288/288 282/282/282
f 223/223/223 282/282/282 214/214/214
f 282/282/282 288/288/288 287/287/287
f 282/282/282 287/287/287 281/281/281
f 297/297/297 288/288/288 233/233/233
f 288/288/288 223/223/223 233/233/233
f 288/288/288 297/297/297 296/296/296
f 288/288/288 296/296/296 287/287/287
f 297/297/297 233/233/233 243/243/243
f 297/297/297 243/243/243 307/307/307
f 297/297/297 307/307/307 296/296/296
f 309/309/309 371/371/371 360/360/360
f 309/309/309 360/360/360 298/298/298
f 314/314/314 371/371/371 309/309/309
f 314/314/314 377/377/377 371/371/371
f 244/244/244 309/309/309 298/298/298
f 244/244/244 298/298/298 234/234/234
f 313/313/313 308/308/308 312/312/312
f 247/247/247 313/313/313 312/312/312
f 183/183/183 184/184/184 181/181/181
f 183/183/183 181/181/181 180/180/180
f 209/209/209 216/216/216 217/217/217
f 209/209/209 135/135/135 142/142/142
f 202/202/202 195/195/195 201/201/201
f 201/201/201 195/195/195 128/128/128
f 128/128/128 195/195/195 122/122/122
f 195/195/195 190/190/190 122/122/122
f 128/128/128 135/135/135 209/209/209
f 128/128/128 209/209/209 202/202/202
f 134/134/134 135/135/135 128/128/128
f 128/128/128 208/208/208 201/201/201
f 208/208/208 134/134/134 215/215/215
f 141/141/141 134/134/134 142/142/142
f 135/135/135 134/134/134 82/82/82
f 135/135/135 82/82/82 142/142/142
f 134/134/134 76/76/76 82/82/82
f 189/189/189 190/190/190 184/184/184
f 122/122/122 190/190/190 189/189/189
f 201/201/201 195/195/195 122/122/122
f 189/189/189 117/117/117 121/121/121
f 189/189/189 121/121/121 122/122/122
f 188/188/188 189/189/189 184/184/184
f 188/188/188 184/184/184 183/183/183
f 189/189/189 183/183/183 188/188/188
f 116/116/116 117/117/117 184/184/184
f 116/116/116 184/184/184 183/183/183
f 193/193/193 194/194/194 189/189/189
f 193/193/193 189/189/189 188/188/188
f 199/199/199 200/200/200 194/194/194
f 199/199/199 194/194/194 193/193/193
f 117/117/117 114/114/114 184/184/184
f 116/116/116 117/117/117 189/189/189
f 116/116/116 189/189/189 188/188/188
f 120/120/120 121/121/121 194/194/194
f 120/120/120 194/194/194 193/193/193
f 120/120/120 121/121/121 117/117/117
f 120/120/120 117/117/117 116/116/116
f 200/200/200 201/201/201 208/208/208
f 194/194/194 195/195/195 201/201/201
f 134/134/134 201/201/201 128/128/128
f 128/128/128 122/122/122 121/121/121
f 128/128/128 121/121/121 127/127/127
f 128/128/128 127/127/127 134/134/134
f 207/207/207 133/133/133 214/214/214
f 207/207/207 214/214/214 281/281/281
f 207/207/207 281/281/281 275/275/275
f 206/206/206 207/207/207 275/275/275
f 127/127/127 200/200/200 121/121/121
f 126/126/126 127/127/127 121/121/121
f 126/126/126 121/121/121 120/120/120
f 200/200/200 133/133/133 207/207/207
f 132/132/132 133/133/133 200/200/200
f 132/132/132 200/200/200 199/199/199
f 132/132/132 133/133/133 127/127/127
f 132/132/132 127/127/127 126/126/126
f 140/140/140 214/214/214 133/133/133
f 139/139/139 140/140/140 133/133/133
f 139/139/139 133/133/133 132/132/132
f 117/117/117 67/67/67 64/64/64
f 117/117/117 116/116/116 66/66/66
f 75/75/75 134/134/134 127/127/127
f 76/76/76 134/134/134 75/75/75
f 76/76/76 75/75/75 81/81/81
f 81/81/81 82/82/82 76/76/76
f 74/74/74 75/75/75 127/127/127
f 74/74/74 127/127/127 126/126/126
f 81/81/81 75/75/75 74/74/74
f 34/34/34 35/35/35 71/71/71
f 34/34/34 71/71/71 70/70/70
f 39/39/39 35/35/35 71/71/71
f 38/38/38 39/39/39 35/35/35
f 38/38/38 35/35/35 34/34/34
f 42/42/42 43/43/43 39/39/39
f 42/42/42 39/39/39 38/38/38
f 143/143/143 217/217/217 226/226/226
f 216/216/216 226/226/226 217/217/217
f 151/151/151 162/162/162 235/235/235
f 151/151/151 235/235/235 225/225/225
f 163/163/163 236/236/236 235/235/235
f 235/235/235 162/162/162 163/163/163
f 144/144/144 143/143/143 84/84/84
f 51/51/51 44/44/44 94/94/94
f 51/51/51 94/94/94 50/50/50
f 84/84/84 143/143/143 142/142/142
f 84/84/84 142/142/142 83/83/83
f 84/84/84 83/83/83 93/93/93
f 93/93/93 94/94/94 84/84/84
f 59/59/59 50/50/50 94/94/94
f 59/59/59 94/94/94 93/93/93
f 51/51/51 50/50/50 20/20/20
f 51/51/51 20/20/20 44/44/44
f 20/20/20 50/50/50 59/59/59
f 21/21/21 44/44/44 20/20/20
f 59/59/59 93/93/93 58/58/58
f 28/28/28 59/59/59 58/58/58
f 28/28/28 20/20/20 59/59/59
f 28/28/28 58/58/58 27/27/27
f 12/12/12 20/20/20 28/28/28
f 12/12/12 28/28/28 27/27/27
f 12/12/12 27/27/27 11/11/11
f 142/142/142 151/151/151 225/225/225
f 142/142/142 225/225/225 216/216/216
f 142/142/142 216/216/216 215/215/215
f 142/142/142 215/215/215 141/141/141
f 150/150/150 160/160/160 224/224/224
f 171/171/171 244/244/244 234/234/234
f 171/171/171 234/234/234 160/160/160
f 244/244/244 245/245/245 248/248/248
f 83/83/83 142/142/142 82/82/82
f 83/83/83 82/82/82 93/93/93
f 93/93/93 92/92/92 102/102/102
f 93/93/93 102/102/102 58/58/58
f 93/93/93 82/82/82 92/92/92
f 92/92/92 82/82/82 81/81/81
f 102/102/102 92/92/92 57/57/57
f 57/57/57 58/58/58 102/102/102
f 161/161/161 172/172/172 160/160/160
f 224/224/224 160/160/160 234/234/234
f 150/150/150 224/224/224 215/215/215
f 150/150/150 215/215/215 141/141/141
f 140/140/140 223/223/223 214/214/214
f 223/223/223 140/140/140 149/149/149
f 214/214/214 213/213/213 281/281/281
f 222/222/222 213/213/213 214/214/214
f 148/148/148 149/149/149 140/140/140
f 148/148/148 140/140/140 139/139/139
f 223/223/223 149/149/149 159/159/159
f 223/223/223 159/159/159 233/233/233
f 149/149/149 158/158/158 159/159/159
f 170/170/170 243/243/243 233/233/233
f 243/243/243 170/170/170 247/247/247
f 243/243/243 242/242/242 307/307/307
f 243/243/243 247/247/247 246/246/246
f 243/243/243 246/246/246 242/242/242
f 247/247/247 312/312/312 246/246/246
f 170/170/170 233/233/233 159/159/159
f 176/176/176 247/247/247 170/170/170
f 250/250/250 247/247/247 177/177/177
f 247/247/247 176/176/176 177/177/177
f 140/140/140 149/149/149 141/141/141
f 150/150/150 160/160/160 102/102/102
f 102/102/102 149/149/149 101/101/101
f 91/91/91 92/92/92 81/81/81
f 101/101/101 92/92/92 91/91/91
f 57/57/57 92/92/92 101/101/101
f 56/56/56 101/101/101 91/91/91
f 56/56/56 57/57/57 101/101/101
f 140/140/140 91/91/91 149/149/149
f 90/90/90 91/91/91 140/140/140
f 90/90/90 140/140/140 139/139/139
f 101/101/101 149/149/149 91/91/91
f 149/149/149 148/148/148 158/158/158
f 90/90/90 101/101/101 91/91/91
f 100/100/100 101/101/101 90/90/90
f 80/80/80 91/91/91 81/81/81
f 55/55/55 56/56/56 101/101/101
f 169/169/169 170/170/170 159/159/159
f 169/169/169 159/159/159 158/158/158
f 175/175/175 176/176/176 170/170/170
f 175/175/175 170/170/170 169/169/169
f 112/112/112 177/177/177 176/176/176
f 110/110/110 111/111/111 176/176/176
f 110/110/110 176/176/176 175/175/175
f 62/62/62 109/109/109 101/101/101
f 27/27/27 58/58/58 26/26/26
f 26/26/26 58/58/58 57/57/57
f 11/11/11 27/27/27 26/26/26
f 11/11/11 26/26/26 32/32/32
f 11/11/11 32/32/32 15/15/15
f 42/42/42 49/49/49 43/43/43
f 49/49/49 42/42/42 18/18/18
f 26/26/26 31/31/31 32/32/32
f 61/61/61 62/62/62 56/56/56
f 61/61/61 56/56/56 55/55/55
f 2/2/2 19/19/19 18/18/18
f 9/9/9 1/1/1 8/8/8
f 10/10/10 26/26/26 32/32/32
f 387/387/387 426/426/426 427/427/427
f 252/252/252 318/318/318 255/255/255
f 252/252/252 255/255/255 183/183/183
f 183/183/183 180/180/180 252/252/252
f 183/183/183 252/252/252 254/254/254
f 335/335/335 329/329/329 387/387/387
f 325/325/325 329/329/329 328/328/328
f 334/334/334 328/328/328 329/329/329
f 334/334/334 329/329/329 335/335/335
f 392/392/392 335/335/335 387/387/387
f 384/384/384 383/383/383 426/426/426
f 384/384/384 426/426/426 387/387/387
f 384/384/384 387/387/387 386/386/386
f 383/383/383 384/384/384 386/386/386
f 391/391/391 386/386/386 428/428/428
f 328/328/328 383/383/383 386/386/386
f 324/324/324 325/325/325 383/383/383
f 324/324/324 383/383/383 328/328/328
f 324/324/324 325/325/325 328/328/328
f 328/328/328 386/386/386 334/334/334
f 340/340/340 334/334/334 335/335/335
f 340/340/340 335/335/335 392/392/392
f 255/255/255 318/318/318 321/321/321
f 259/259/259 255/255/255 321/321/321
f 320/320/320 255/255/255 318/318/318
f 320/320/320 318/318/318 321/321/321
f 255/255/255 259/259/259 258/258/258
f 325/325/325 259/259/259 263/263/263
f 321/321/321 325/325/325 324/324/324
f 262/262/262 259/259/259 325/325/325
f 182/182/182 183/183/183 255/255/255
f 263/263/263 259/259/259 193/193/193
f 317/317/317 255/255/255 318/318/318
f 258/258/258 255/255/255 320/320/320
f 324/324/324 320/320/320 321/321/321
f 259/259/259 321/321/321 325/325/325
f 259/259/259 325/325/325 324/324/324
f 259/259/259 262/262/262 258/258/258
f 262/262/262 259/259/259 324/324/324
f 324/324/324 262/262/262 325/325/325
f 182/182/182 255/255/255 254/254/254
f 255/255/255 259/259/259 188/188/188
f 188/188/188 183/183/183 255/255/255
f 182/182/182 183/183/183 254/254/254
f 187/187/187 259/259/259 258/258/258
f 187/187/187 188/188/188 259/259/259
f 254/254/254 258/258/258 187/187/187
f 254/254/254 187/187/187 182/182/182
f 262/262/262 259/259/259 263/263/263
f 258/258/258 262/262/262 192/192/192
f 258/258/258 192/192/192 187/187/187
f 199/199/199 263/263/263 269/269/269
f 193/193/193 263/263/263 199/199/199
f 268/268/268 262/262/262 263/263/263
f 262/262/262 268/268/268 192/192/192
f 329/329/329 263/263/263 269/269/269
f 325/325/325 263/263/263 329/329/329
f 263/263/263 325/325/325 269/269/269
f 329/329/329 269/269/269 325/325/325
f 340/340/340 335/335/335 341/341/341
f 206/206/206 275/275/275 269/269/269
f 206/206/206 269/269/269 199/199/199
f 324/324/324 328/328/328 268/268/268
f 324/324/324 268/268/268 262/262/262
f 274/274/274 268/268/268 328/328/328
f 274/274/274 328/328/328 334/334/334
f 269/269/269 268/268/268 198/198/198
f 269/269/269 198/198/198 199/199/199
f 268/268/268 274/274/274 205/205/205
f 268/268/268 205/205/205 198/198/198
f 269/269/269 274/274/274 268/268/268
f 274/274/274 280/280/280 205/205/205
f 339/339/339 334/334/334 340/340/340
f 333/333/333 390/390/390 339/339/339
f 332/332/332 333/333/333 338/338/338
f 258/258/258 324/324/324 261/261/261
f 261/261/261 324/324/324 323/323/323
f 258/258/258 261/261/261 191/191/191
f 258/258/258 191/191/191 187/187/187
f 333/333/333 328/328/328 334/334/334
f 268/268/268 274/274/274 273/273/273
f 339/339/339 333/333/333 334/334/334
f 339/339/339 274/274/274 334/334/334
f 279/279/279 273/273/273 274/274/274
f 279/279/279 274/274/274 339/339/339
f 268/268/268 267/267/267 197/197/197
f 268/268/268 197/197/197 198/198/198
f 261/261/261 262/262/262 267/267/267
f 274/274/274 280/280/280 211/211/211
f 274/274/274 211/211/211 205/205/205
f 267/267/267 273/273/273 197/197/197
f 323/323/323 327/327/327 267/267/267
f 323/323/323 267/267/267 261/261/261
f 272/272/272 267/267/267 327/327/327
f 272/272/272 327/327/327 332/332/332
f 266/266/266 267/267/267 272/272/272
f 273/273/273 333/333/333 339/339/339
f 261/261/261 267/267/267 197/197/197
f 261/261/261 197/197/197 191/191/191
f 267/267/267 266/266/266 196/196/196
f 267/267/267 196/196/196 197/197/197
f 278/278/278 272/272/272 332/332/332
f 278/278/278 332/332/332 338/338/338
f 266/266/266 272/272/272 203/203/203
f 266/266/266 203/203/203 196/196/196
f 272/272/272 278/278/278 210/210/210
f 272/272/272 210/210/210 203/203/203
f 463/463/463 464/464/464 460/460/460
f 453/453/453 466/466/466 464/464/464
f 453/453/453 464/464/464 463/463/463
f 453/453/453 463/463/463 452/452/452
f 452/452/452 463/463/463 450/450/450
f 454/454/454 453/453/453 445/445/445
f 454/454/454 445/445/445 446/446/446
f 445/445/445 444/444/444 408/408/408
f 445/445/445 453/453/453 452/452/452
f 445/445/445 452/452/452 444/444/444
f 444/444/444 407/407/407 408/408/408
f 459/459/459 458/458/458 463/463/463
f 463/463/463 458/458/458 462/462/462
f 462/462/462 449/449/449 463/463/463
f 461/461/461 462/462/462 458/458/458
f 461/461/461 458/458/458 457/457/457
f 462/462/462 461/461/461 449/449/449
f 449/449/449 452/452/452 463/463/463
f 449/449/449 461/461/461 448/448/448
f 397/397/397 428/428/428 431/431/431
f 391/391/391 428/428/428 397/397/397
f 443/443/443 452/452/452 449/449/449
f 452/452/452 443/443/443 444/444/444
f 437/437/437 444/444/444 443/443/443
f 444/444/444 437/437/437 407/407/407
f 406/406/406 437/437/437 443/443/443
f 406/406/406 407/407/407 437/437/437
f 443/443/443 449/449/449 448/448/448
f 443/443/443 448/448/448 436/436/436
f 443/443/443 436/436/436 406/406/406
f 436/436/436 448/448/448 435/435/435
f 405/405/405 406/406/406 436/436/436
f 405/405/405 436/436/436 435/435/435
f 398/398/398 408/408/408 407/407/407
f 398/398/398 407/407/407 397/397/397
f 392/392/392 398/398/398 397/397/397
f 392/392/392 341/341/341 348/348/348
f 340/340/340 392/392/392 397/397/397
f 347/347/347 340/340/340 341/341/341
f 347/347/347 341/341/341 348/348/348
f 347/347/347 348/348/348 359/359/359
f 347/347/347 359/359/359 358/358/358
f 417/417/417 422/422/422 375/375/375
f 370/370/370 417/417/417 375/375/375
f 417/417/417 416/416/416 369/369/369
f 374/374/374 369/369/369 416/416/416
f 374/374/374 416/416/416 421/421/421
f 348/348/348 281/281/281 287/287/287
f 287/287/287 281/281/281 222/222/222
f 281/281/281 213/213/213 222/222/222
f 287/287/287 280/280/280 286/286/286
f 358/358/358 359/359/359 369/369/369
f 221/221/221 280/280/280 286/286/286
f 212/212/212 205/205/205 280/280/280
f 221/221/221 212/212/212 280/280/280
f 296/296/296 286/286/286 287/287/287
f 286/286/286 296/296/296 295/295/295
f 286/286/286 295/295/295 231/231/231
f 286/286/286 231/231/231 221/221/221
f 369/369/369 359/359/359 370/370/370
f 370/370/370 296/296/296 307/307/307
f 312/312/312 307/307/307 246/246/246
f 396/396/396 397/397/397 407/407/407
f 396/396/396 407/407/407 406/406/406
f 339/339/339 397/397/397 396/396/396
f 340/340/340 397/397/397 339/339/339
f 339/339/339 396/396/396 346/346/346
f 346/346/346 396/396/396 406/406/406
f 338/338/338 339/339/339 390/390/390
f 356/356/356 346/346/346 406/406/406
f 406/406/406 405/405/405 356/356/356
f 345/345/345 346/346/346 356/356/356
f 357/357/357 358/358/358 369/369/369
f 357/357/357 369/369/369 368/368/368
f 368/368/368 369/369/369 374/374/374
f 368/368/368 374/374/374 373/373/373
f 346/346/346 339/339/339 340/340/340
f 346/346/346 340/340/340 347/347/347
f 339/339/339 346/346/346 285/285/285
f 339/339/339 285/285/285 279/279/279
f 347/347/347 358/358/358 357/357/357
f 347/347/347 357/357/357 346/346/346
f 346/346/346 357/357/357 294/294/294
f 346/346/346 294/294/294 285/285/285
f 280/280/280 286/286/286 212/212/212
f 211/211/211 280/280/280 212/212/212
f 221/221/221 212/212/212 286/286/286
f 279/279/279 285/285/285 220/220/220
f 279/279/279 220/220/220 211/211/211
f 294/294/294 240/240/240 230/230/230
f 241/241/241 231/231/231 295/295/295
f 306/306/306 305/305/305 241/241/241
f 294/294/294 357/357/357 368/368/368
f 294/294/294 368/368/368 305/305/305
f 368/368/368 311/311/311 305/305/305
f 372/372/372 368/368/368 373/373/373
f 372/372/372 373/373/373 367/367/367
f 311/311/311 368/368/368 372/372/372
f 311/311/311 372/372/372 310/310/310
f 305/305/305 311/311/311 310/310/310
f 305/305/305 310/310/310 304/304/304
f 435/435/435 448/448/448 447/447/447
f 451/451/451 447/447/447 434/434/434
f 441/441/441 451/451/451 434/434/434
f 435/435/435 434/434/434 441/441/441
f 435/435/435 441/441/441 442/442/442
f 415/415/415 442/442/442 441/441/441
f 345/345/345 344/344/344 355/355/355
f 355/355/355 344/344/344 404/404/404
f 338/338/338 345/345/345 284/284/284
f 338/338/338 284/284/284 278/278/278
f 345/345/345 344/344/344 284/284/284
f 293/293/293 284/284/284 344/344/344
f 293/293/293 344/344/344 355/355/355
f 278/278/278 284/284/284 218/218/218
f 278/278/278 218/218/218 210/210/210
f 284/284/284 293/293/293 228/228/228
f 284/284/284 228/228/228 218/218/218
f 372/372/372 367/367/367 310/310/310
f 293/293/293 355/355/355 354/354/354
f 293/293/293 227/227/227 228/228/228
f 303/303/303 293/293/293 354/354/354
f 303/303/303 354/354/354 366/366/366
f 293/293/293 292/292/292 227/227/227
f 303/303/303 292/292/292 238/238/238
f 116/116/116 183/183/183 113/113/113
f 183/183/183 188/188/188 116/116/116
f 183/183/183 187/187/187 188/188/188
f 116/116/116 188/188/188 115/115/115
f 193/193/193 198/198/198 120/120/120
f 115/115/115 188/188/188 187/187/187
f 192/192/192 188/188/188 187/187/187
f 115/115/115 187/187/187 119/119/119
f 120/120/120 193/193/193 119/119/119
f 65/65/65 116/116/116 115/115/115
f 65/65/65 115/115/115 119/119/119
f 132/132/132 199/199/199 206/206/206
f 199/199/199 193/193/193 198/198/198
f 199/199/199 198/198/198 205/205/205
f 199/199/199 205/205/205 206/206/206
f 125/125/125 192/192/192 198/198/198
f 120/120/120 198/198/198 125/125/125
f 120/120/120 125/125/125 126/126/126
f 126/126/126 125/125/125 131/131/131
f 126/126/126 131/131/131 132/132/132
f 119/119/119 192/192/192 125/125/125
f 125/125/125 198/198/198 131/131/131
f 206/206/206 205/205/205 212/212/212
f 206/206/206 212/212/212 213/213/213
f 132/132/132 131/131/131 138/138/138
f 139/139/139 132/132/132 138/138/138
f 116/116/116 65/65/65 66/66/66
f 119/119/119 125/125/125 65/65/65
f 70/70/70 66/66/66 34/34/34
f 66/66/66 33/33/33 34/34/34
f 69/69/69 33/33/33 66/66/66
f 69/69/69 66/66/66 65/65/65
f 38/38/38 34/34/34 33/33/33
f 38/38/38 33/33/33 37/37/37
f 33/33/33 69/69/69 37/37/37
f 69/69/69 73/73/73 37/37/37
f 192/192/192 187/187/187 191/191/191
f 187/187/187 186/186/186 191/191/191
f 118/118/118 192/192/192 191/191/191
f 119/119/119 192/192/192 118/118/118
f 125/125/125 119/119/119 124/124/124
f 125/125/125 198/198/198 205/205/205
f 204/204/204 205/205/205 211/211/211
f 137/137/137 204/204/204 211/211/211
f 118/118/118 191/191/191 197/197/197
f 118/118/118 197/197/197 124/124/124
f 130/130/130 131/131/131 125/125/125
f 130/130/130 125/125/125 205/205/205
f 130/130/130 205/205/205 204/204/204
f 137/137/137 130/130/130 204/204/204
f 131/131/131 130/130/130 137/137/137
f 138/138/138 131/131/131 137/137/137
f 203/203/203 197/197/197 196/196/196
f 204/204/204 197/197/197 203/203/203
f 130/130/130 124/124/124 197/197/197
f 130/130/130 197/197/197 204/204/204
f 130/130/130 204/204/204 129/129/129
f 204/204/204 203/203/203 129/129/129
f 130/130/130 124/124/124 123/123/123
f 130/130/130 136/136/136 137/137/137
f 125/125/125 124/124/124 130/130/130
f 65/65/65 125/125/125 68/68/68
f 65/65/65 68/68/68 69/69/69
f 125/125/125 124/124/124 68/68/68
f 73/73/73 131/131/131 79/79/79
f 69/69/69 68/68/68 72/72/72
f 69/69/69 72/72/72 73/73/73
f 68/68/68 124/124/124 72/72/72
f 73/73/73 72/72/72 36/36/36
f 37/37/37 73/73/73 36/36/36
f 124/124/124 130/130/130 72/72/72
f 77/77/77 72/72/72 130/130/130
f 77/77/77 130/130/130 136/136/136
f 77/77/77 78/78/78 72/72/72
f 40/40/40 36/36/36 72/72/72
f 40/40/40 72/72/72 78/78/78
f 38/38/38 37/37/37 41/41/41
f 38/38/38 41/41/41 42/42/42
f 37/37/37 36/36/36 40/40/40
f 37/37/37 40/40/40 41/41/41
f 136/136/136 129/129/129 203/203/203
f 136/136/136 203/203/203 210/210/210
f 222/222/222 158/158/158 148/148/148
f 213/213/213 212/212/212 221/221/221
f 213/213/213 221/221/221 222/222/222
f 147/147/147 222/222/222 221/221/221
f 157/157/157 158/158/158 222/222/222
f 157/157/157 222/222/222 147/147/147
f 139/139/139 148/148/148 90/90/90
f 139/139/139 138/138/138 147/147/147
f 139/139/139 147/147/147 148/148/148
f 89/89/89 90/90/90 148/148/148
f 89/89/89 148/148/148 147/147/147
f 90/90/90 89/89/89 99/99/99
f 90/90/90 99/99/99 100/100/100
f 55/55/55 90/90/90 48/48/48
f 147/147/147 157/157/157 89/89/89
f 99/99/99 89/89/89 157/157/157
f 169/169/169 108/108/108 175/175/175
f 99/99/99 54/54/54 55/55/55
f 220/220/220 211/211/211 212/212/212
f 220/220/220 212/212/212 221/221/221
f 220/220/220 221/221/221 231/231/231
f 230/230/230 220/220/220 231/231/231
f 137/137/137 211/211/211 220/220/220
f 146/146/146 137/137/137 220/220/220
f 220/220/220 230/230/230 156/156/156
f 220/220/220 156/156/156 146/146/146
f 241/241/241 240/240/240 230/230/230
f 230/230/230 168/168/168 156/156/156
f 239/239/239 168/168/168 230/230/230
f 79/79/79 138/138/138 147/147/147
f 138/138/138 137/137/137 146/146/146
f 138/138/138 146/146/146 147/147/147
f 157/157/157 147/147/147 156/156/156
f 88/88/88 89/89/89 147/147/147
f 88/88/88 147/147/147 146/146/146
f 88/88/88 146/146/146 98/98/98
f 157/157/157 156/156/156 88/88/88
f 157/157/157 88/88/88 98/98/98
f 157/157/157 98/98/98 99/99/99
f 146/146/146 88/88/88 156/156/156
f 88/88/88 89/89/89 99/99/99
f 89/89/89 78/78/78 88/88/88
f 78/78/78 137/137/137 88/88/88
f 88/88/88 99/99/99 98/98/98
f 137/137/137 146/146/146 88/88/88
f 137/137/137 136/136/136 146/146/146
f 146/146/146 136/136/136 145/145/145
f 78/78/78 88/88/88 40/40/40
f 87/87/87 88/88/88 78/78/78
f 87/87/87 78/78/78 77/77/77
f 46/46/46 40/40/40 88/88/88
f 87/87/87 46/46/46 88/88/88
f 106/106/106 167/167/167 105/105/105
f 18/18/18 42/42/42 41/41/41
f 18/18/18 41/41/41 47/47/47
f 17/17/17 18/18/18 47/47/47
f 8/8/8 18/18/18 17/17/17
f 8/8/8 17/17/17 24/24/24
f 23/23/23 24/24/24 17/17/17
f 41/41/41 40/40/40 46/46/46
f 41/41/41 46/46/46 47/47/47
f 17/17/17 47/47/47 46/46/46
f 23/23/23 17/17/17 46/46/46
f 46/46/46 87/87/87 45/45/45
f 46/46/46 45/45/45 53/53/53
f 23/23/23 46/46/46 53/53/53
f 23/23/23 53/53/53 22/22/22
f 6/6/6 7/7/7 24/24/24
f 24/24/24 23/23/23 6/6/6
f 23/23/23 30/30/30 13/13/13
f 23/23/23 13/13/13 6/6/6
f 6/6/6 13/13/13 30/30/30
f 6/6/6 30/30/30 23/23/23
f 5/5/5 6/6/6 23/23/23
f 5/5/5 23/23/23 22/22/22
f 145/145/145 136/136/136 210/210/210
f 145/145/145 210/210/210 219/219/219
f 210/210/210 218/218/218 219/219/219
f 145/145/145 219/219/219 218/218/218
f 154/154/154 145/145/145 218/218/218
f 154/154/154 218/218/218 228/228/228
f 228/228/228 227/227/227 154/154/154
f 145/145/145 154/154/154 96/96/96
f 145/145/145 96/96/96 97/97/97
f 104/104/104 96/96/96 154/154/154
f 104/104/104 154/154/154 166/166/166
f 165/165/165 166/166/166 227/227/227
f 165/165/165 227/227/227 238/238/238
f 53/53/53 52/52/52 45/45/45
f 29/29/29 22/22/22 53/53/53
