# 由 henjicc/yipiantian 的 lingcao_qingxin_young 转换而来（见 manifest.json）
mtllib lingcao_qingxin_young.mtl
o lingcao_qingxin_young
v -0.11123 0.07460 0.00126
v -0.12465 0.07843 0.03891
v -0.11632 0.07876 0.05648
v -0.11658 0.07565 0.06686
v -0.11573 0.08195 0.00938
v -0.12025 0.08352 0.01958
v -0.12261 0.08123 0.03396
v -0.12305 0.08128 0.05331
v -0.11051 0.08160 0.07313
v -0.10869 0.10156 -0.02992
v -0.10902 0.11245 -0.06608
v -0.11024 0.11123 -0.03834
v -0.11048 0.10676 -0.03324
v -0.10947 0.11822 -0.05995
v -0.10931 0.12089 -0.04448
v -0.09846 0.06207 0.07556
v -0.10724 0.07782 -0.00516
v -0.09896 0.07451 0.00327
v -0.10289 0.07419 0.01622
v -0.09914 0.07461 0.03310
v -0.09580 0.07285 0.04905
v -0.10199 0.07476 0.07291
v -0.09353 0.08786 -0.05552
v -0.09815 0.08214 -0.00661
v -0.10612 0.08125 0.07434
v -0.09278 0.10029 -0.07876
v -0.09676 0.09682 -0.05781
v -0.09544 0.09810 -0.04585
v -0.10218 0.09884 -0.02742
v -0.09617 0.09589 -0.01996
v -0.09896 0.10539 -0.07570
v -0.10431 0.10996 -0.06709
v -0.10356 0.10731 -0.04923
v -0.10667 0.10276 -0.03172
v -0.10714 0.12055 -0.04454
v -0.07736 0.05608 0.02375
v -0.08255 0.04961 0.07270
v -0.07982 0.06449 -0.05559
v -0.08223 0.06574 0.00784
v -0.08200 0.06529 0.01810
v -0.08585 0.06457 0.03505
v -0.08129 0.06709 0.05754
v -0.08889 0.05826 0.07197
v -0.08444 0.07472 -0.05564
v -0.08328 0.07655 -0.01413
v -0.08421 0.07313 -0.00017
v -0.09072 0.06810 0.01443
v -0.08405 0.07135 0.03920
v -0.08691 0.07315 0.05025
v -0.08971 0.06888 0.06159
v -0.08244 0.08857 -0.07534
v -0.08266 0.08476 -0.06004
v -0.08170 0.08576 -0.04442
v -0.07792 0.08825 -0.02998
v -0.08671 0.08336 -0.01168
v -0.08574 0.09361 -0.08138
v -0.08844 0.09400 -0.06050
v -0.08982 0.09216 -0.04400
v -0.08724 0.09788 -0.02510
v -0.08185 0.09596 -0.01927
v -0.06378 0.03318 -0.05541
v -0.05985 0.02858 -0.00556
v -0.06427 0.04189 -0.05572
v -0.06232 0.04418 -0.05047
v -0.06050 0.04055 -0.02292
v -0.06066 0.04435 -0.01592
v -0.06357 0.03796 0.00418
v -0.06074 0.04356 0.06663
v -0.06827 0.04938 -0.05663
v -0.06273 0.05051 -0.04729
v -0.06457 0.05171 -0.01616
v -0.06479 0.05246 0.00122
v -0.07018 0.05044 0.01601
v -0.06216 0.05375 0.05705
v -0.06921 0.04875 0.06962
v -0.06807 0.06112 -0.05747
v -0.06734 0.06279 -0.04758
v -0.07012 0.06286 -0.01195
v -0.07104 0.05872 0.00578
v -0.06765 0.06021 0.02156
v -0.06737 0.06361 0.03312
v -0.06960 0.06289 0.04952
v -0.07246 0.05863 0.06147
v -0.06071 0.07727 -0.07525
v -0.06996 0.07450 -0.06259
v -0.07055 0.07593 -0.04305
v -0.06147 0.07556 -0.03615
v -0.07341 0.07047 -0.01208
v -0.07523 0.06799 0.03565
v -0.06413 0.08621 -0.07714
v -0.07006 0.08275 -0.06922
v -0.06630 0.08697 -0.02537
v -0.06809 0.08844 -0.02011
v -0.07231 0.09131 -0.08255
v -0.07411 0.09055 -0.02184
v -0.07545 0.09067 -0.02105
v -0.05232 -0.03441 -0.08999
v -0.04994 -0.03258 -0.07769
v -0.04871 -0.02921 -0.06571
v -0.04859 -0.01942 -0.06396
v -0.04732 -0.01615 -0.04947
v -0.04922 -0.00858 -0.06134
v -0.04759 -0.00565 -0.04756
v -0.04648 0.00254 -0.05947
v -0.04814 0.00137 -0.04777
v -0.04590 0.01667 -0.05622
v -0.04560 0.01660 -0.04596
v -0.04891 0.01793 -0.03109
v -0.04951 0.02845 -0.05951
v -0.05009 0.02748 -0.04686
v -0.04988 0.02820 -0.03040
v -0.04831 0.02941 -0.01478
v -0.04682 0.03318 -0.00298
v -0.05206 0.03903 -0.06367
v -0.05428 0.03883 -0.04436
v -0.05745 0.03588 -0.02571
v -0.05651 0.03712 -0.01114
v -0.04845 0.03928 0.00118
v -0.05845 0.04357 0.06406
v -0.05032 0.05084 -0.07044
v -0.05150 0.05147 -0.06828
v -0.05281 0.04806 -0.03952
v -0.05142 0.05321 -0.03489
v -0.04733 0.05007 0.00818
v -0.05199 0.05530 0.01593
v -0.05563 0.04945 0.06182
v -0.05075 0.06246 -0.07518
v -0.05222 0.05802 -0.06859
v -0.05872 0.06001 -0.04076
v -0.05315 0.06129 -0.03425
v -0.04514 0.06198 0.01953
v -0.05122 0.06166 0.03542
v -0.04958 0.05978 0.05368
v -0.04862 0.05891 0.06124
v -0.05542 0.07409 -0.07877
v -0.05569 0.07289 -0.02959
v -0.04401 0.06799 0.02869
v -0.05951 0.07921 -0.07618
v -0.05413 0.08576 -0.02844
v -0.04757 0.09923 -0.11127
v -0.04445 0.09643 -0.10177
v -0.04746 0.09171 -0.02458
v -0.04568 0.10499 -0.12469
v -0.04825 0.10292 -0.11599
v -0.04009 -0.02749 -0.06401
v -0.03947 -0.02420 -0.05300
v -0.03034 -0.01670 -0.06016
v -0.03630 -0.01624 -0.04832
v -0.03521 -0.00793 -0.06542
v -0.03547 -0.00667 -0.04379
v -0.03299 0.00646 -0.06250
v -0.03497 0.00675 -0.04199
v -0.03352 0.00728 -0.03729
v -0.03725 0.01335 -0.06072
v -0.03979 0.01230 -0.04616
v -0.03447 0.01638 -0.03396
v -0.03365 0.02787 -0.05596
v -0.03645 0.02719 -0.04824
v -0.04227 0.02392 -0.02538
v -0.02759 0.04045 -0.08211
v -0.03549 0.03867 -0.05519
v -0.03627 0.03832 -0.04711
v -0.03341 0.03955 -0.03525
v -0.02945 0.04080 0.05332
v -0.02856 0.03789 0.06239
v -0.02882 0.05118 -0.08205
v -0.03812 0.05266 -0.05541
v -0.03429 0.05149 -0.04990
v -0.03282 0.05202 -0.03255
v -0.04248 0.04952 0.00765
v -0.02888 0.05126 0.02194
v -0.03028 0.04967 0.03668
v -0.03254 0.04802 0.04731
v -0.02773 0.06215 -0.08752
v -0.03282 0.06303 -0.08351
v -0.03377 0.06250 -0.05544
v -0.03763 0.06095 -0.04804
v -0.03305 0.06142 -0.03065
v -0.04262 0.06280 0.01847
v -0.03760 0.06507 0.04151
v -0.03971 0.05877 0.05149
v -0.03310 0.07364 -0.08967
v -0.03121 0.06888 -0.08640
v -0.02901 0.07161 -0.05885
v -0.04121 0.07279 -0.04393
v -0.03239 0.07524 -0.02987
v -0.04074 0.06851 0.03569
v -0.02706 0.08326 -0.10380
v -0.03629 0.08379 -0.09505
v -0.02728 0.07973 -0.06251
v -0.04151 0.08071 -0.04060
v -0.03573 0.08482 -0.03068
v -0.03602 0.10014 -0.12154
v -0.03551 0.09691 -0.11247
v -0.04018 0.09432 -0.10014
v -0.03348 0.09731 -0.02692
v -0.03759 0.11035 -0.13916
v -0.04092 0.10811 -0.13275
v -0.03215 0.11982 -0.14436
v -0.02338 -0.00536 -0.05925
v -0.02530 -0.00679 -0.05129
v -0.02129 0.00260 -0.06044
v -0.02384 0.00856 -0.04729
v -0.02272 0.00792 -0.03310
v -0.02093 0.01916 -0.07516
v -0.01949 0.01720 -0.06338
v -0.02304 0.01410 -0.04474
v -0.02031 0.01832 -0.03277
v -0.01785 0.03004 -0.09011
v -0.01924 0.02798 -0.07712
v -0.01676 0.02649 -0.06061
v -0.02070 0.02789 -0.04423
v -0.01950 0.02638 -0.02753
v -0.01145 0.03307 -0.01937
v -0.01515 0.02987 0.07243
v -0.01612 0.04149 -0.09107
v -0.01968 0.03597 -0.08468
v -0.01654 0.03673 -0.05572
v -0.01789 0.03813 -0.04151
v -0.02098 0.03933 -0.03108
v -0.01904 0.04099 -0.01339
v -0.02142 0.04408 0.00290
v -0.01688 0.04005 0.05552
v -0.02233 0.03484 0.06631
v -0.01782 0.05065 -0.09616
v -0.01598 0.04819 -0.05431
v -0.01295 0.04906 -0.04615
v -0.01873 0.05181 -0.03058
v -0.02250 0.04669 0.00679
v -0.02311 0.04986 0.01558
v -0.02003 0.04737 0.03832
v -0.01573 0.06082 -0.10805
v -0.01933 0.06187 -0.09636
v -0.02102 0.06226 -0.05564
v -0.01140 0.05850 -0.05137
v -0.01491 0.06230 -0.02989
v -0.01729 0.07540 -0.12042
v -0.01627 0.07096 -0.11189
v -0.02358 0.07274 -0.09898
v -0.02200 0.07219 -0.05839
v -0.01677 0.07304 -0.03018
v -0.01796 0.08444 -0.12515
v -0.01815 0.08318 -0.11481
v -0.01922 0.08512 -0.06247
v -0.02135 0.08400 -0.03066
v -0.01875 0.10189 -0.13614
v -0.01886 0.09304 -0.13000
v -0.02493 0.09258 -0.11840
v -0.01347 0.09392 -0.06120
v -0.02486 0.09109 -0.03065
v -0.01404 0.11157 -0.14632
v -0.02206 0.10476 -0.13384
v -0.01731 0.12124 -0.14812
v -0.02380 0.12480 -0.14613
v -0.01044 0.02116 -0.02970
v -0.00814 0.01707 -0.01724
v -0.00395 0.01749 0.07536
v -0.00409 0.03201 -0.07170
v -0.00577 0.02852 -0.06729
v -0.00220 0.02672 -0.02444
v -0.00451 0.02926 -0.01402
v 0.00348 0.02790 -0.00107
v -0.00632 0.02539 0.07350
v -0.00092 0.03712 -0.07714
v -0.00599 0.03946 -0.06118
v -0.00022 0.03569 -0.01121
v -0.00505 0.04104 0.00281
v -0.00247 0.04104 0.05833
v -0.00505 0.03481 0.06495
v -0.00251 0.05325 -0.08956
v -0.00137 0.04879 -0.08362
v -0.00291 0.05052 -0.05966
v -0.00932 0.05109 -0.03795
v -0.00666 0.05258 -0.03385
v -0.00185 0.04570 0.01881
v -0.00397 0.04686 0.03872
v -0.00561 0.04486 0.04968
v -0.00640 0.06731 -0.10740
v 0.00153 0.06012 -0.09292
v -0.00612 0.05839 -0.05440
v -0.00712 0.06305 -0.04944
v -0.00588 0.06213 -0.03208
v -0.00110 0.07153 -0.11094
v -0.00575 0.07761 -0.05474
v -0.00021 0.07430 -0.04845
v -0.00679 0.07366 -0.03169
v 0.00043 0.08467 -0.12533
v 0.00049 0.08730 -0.05622
v -0.00305 0.08537 -0.04564
v -0.00452 0.08469 -0.03567
v 0.00061 0.10025 -0.14996
v -0.00820 0.09460 -0.13434
v -0.00579 0.09835 -0.06115
v -0.00450 0.09716 -0.04622
v -0.00553 0.10714 -0.15054
v 0.00516 0.10201 -0.06417
v 0.01694 0.00747 0.07417
v 0.01124 0.01309 0.07562
v 0.00831 0.01409 0.07742
v 0.01100 0.03116 -0.07113
v 0.00777 0.03260 -0.01951
v 0.00786 0.03183 0.00646
v 0.02111 0.03138 0.05956
v 0.01154 0.02732 0.06682
v 0.00941 0.04358 -0.08822
v 0.01011 0.04071 -0.07888
v 0.01132 0.04274 -0.06825
v 0.01753 0.03808 -0.02344
v 0.01237 0.03536 -0.01742
v 0.01255 0.04115 0.00326
v 0.01451 0.03739 0.01955
v 0.01976 0.03992 0.03492
v 0.00981 0.04025 0.05511
v 0.01294 0.05067 -0.09241
v 0.01448 0.04682 -0.08399
v 0.01069 0.05201 -0.06345
v 0.00730 0.04632 0.02813
v 0.01258 0.04564 0.04003
v 0.02015 0.05871 -0.10504
v 0.01350 0.06330 -0.09447
v 0.01154 0.05914 -0.05841
v 0.01549 0.06411 -0.04571
v 0.01713 0.07531 -0.11005
v 0.01906 0.07031 -0.10026
v 0.00817 0.07679 -0.04995
v 0.01849 0.08920 -0.14456
v 0.01530 0.08573 -0.12669
v 0.01319 0.08188 -0.11857
v 0.01334 0.08647 -0.04776
v 0.01148 0.09635 -0.14927
v 0.01056 0.09759 -0.05899
v 0.01467 0.09253 -0.05311
v 0.03795 -0.00163 0.06518
v 0.03105 0.00456 0.06994
v 0.03818 0.01274 0.05597
v 0.03065 0.01791 0.06305
v 0.02762 0.03273 0.04295
v 0.03266 0.02618 0.05134
v 0.03017 0.03854 -0.07203
v 0.03019 0.03796 -0.02486
v 0.03086 0.03621 -0.01198
v 0.02594 0.04104 0.00595
v 0.03159 0.04246 0.01869
v 0.02776 0.04087 0.03705
v 0.02335 0.03980 0.04766
v 0.03469 0.05586 -0.11357
v 0.02706 0.04940 -0.07860
v 0.02725 0.04912 -0.06845
v 0.02951 0.05787 -0.11166
v 0.03030 0.05834 -0.09329
v 0.02765 0.05905 -0.05830
v 0.02396 0.06549 -0.04545
v 0.03556 0.06671 -0.02361
v 0.02672 0.07820 -0.12048
v 0.02578 0.07626 -0.11178
v 0.02824 0.06924 -0.04189
v 0.03132 0.06949 -0.03183
v 0.02281 0.08788 -0.13982
v 0.02611 0.08409 -0.12591
v 0.04609 -0.00308 0.05892
v 0.04024 -0.00321 0.06353
v 0.05145 0.00194 0.05676
v 0.04404 0.01721 0.05260
v 0.05257 0.03293 -0.01398
v 0.05103 0.03251 0.01606
v 0.04828 0.02947 0.04380
v 0.03907 0.02992 0.04778
v 0.04466 0.04317 -0.07203
v 0.04504 0.03581 -0.02264
v 0.04934 0.03545 -0.01764
v 0.04671 0.03516 0.00481
v 0.04972 0.03647 0.02432
v 0.04769 0.03770 0.03485
v 0.04321 0.05431 -0.07859
v 0.04424 0.05356 -0.06915
v 0.04610 0.06006 -0.11427
v 0.04385 0.05910 -0.09634
v 0.04862 0.05642 -0.08314
v 0.04778 0.06063 -0.06108
v 0.04125 0.06467 -0.02301
v 0.04969 0.06208 -0.01704
v 0.04529 0.06983 -0.04461
v 0.04383 0.06879 -0.03147
v 0.06254 0.01016 0.04373
v 0.05791 0.00741 0.05045
v 0.06966 0.01941 0.00354
v 0.06812 0.01886 0.01467
v 0.06397 0.01663 0.04215
v 0.06299 0.01095 0.04474
v 0.06179 0.02910 -0.01332
v 0.06470 0.02517 -0.00029
v 0.06624 0.02710 0.01621
v 0.06076 0.02719 0.04259
v 0.07074 0.04418 -0.07192
v 0.05468 0.03441 -0.01959
v 0.06422 0.03950 0.02367
v 0.06011 0.03899 0.03418
v 0.06575 0.05481 -0.11505
v 0.06636 0.05429 -0.09566
v 0.06007 0.04649 -0.07245
v 0.06529 0.05479 -0.06714
v 0.05960 0.05799 -0.11603
v 0.05535 0.06080 -0.09100
v 0.06063 0.05653 -0.08371
v 0.06276 0.06001 -0.05942
v 0.06462 0.06436 -0.04109
v 0.05996 0.06480 -0.02779
v 0.06082 0.05943 -0.01675
v 0.05562 0.06881 -0.04179
v 0.07994 0.04171 -0.07158
v 0.08634 0.04261 -0.06372
v 0.08702 0.04463 -0.04474
v 0.07825 0.05014 -0.11024
v 0.07872 0.05318 -0.09700
v 0.07727 0.05361 -0.07919
v 0.07814 0.05046 -0.06310
v 0.08202 0.05002 -0.04518
v 0.08472 0.05187 -0.03666
v 0.07231 0.05754 -0.09112
v 0.07208 0.05698 -0.08393
v 0.07595 0.05897 -0.04117
v 0.08288 0.06495 -0.02885
v 0.07405 0.05993 -0.01781
v 0.08292 0.06842 -0.02459
v 0.10063 0.01984 -0.07414
v 0.09955 0.02018 -0.06367
v 0.10144 0.02726 -0.07856
v 0.09596 0.02910 -0.06492
v 0.09662 0.03106 -0.04968
v 0.09336 0.04298 -0.10457
v 0.09791 0.04116 -0.09464
v 0.08945 0.03768 -0.07326
v 0.09081 0.03684 -0.06408
v 0.09245 0.03601 -0.04418
v 0.09044 0.03889 -0.03329
v 0.08958 0.04647 -0.10740
v 0.09526 0.04619 -0.09342
v 0.09144 0.04708 -0.08254
v 0.09008 0.05015 -0.03034
v 0.09015 0.06106 -0.03190
v 0.10341 0.03217 -0.08494
v 0.10341 0.03475 -0.08640
vt 0.59077 0.48663
vt 0.60424 0.49179
vt 0.57546 0.49581
vt 0.51944 0.30891
vt 0.50736 0.37071
vt 0.64670 0.23310
vt 0.70153 0.18980
vt 0.55825 0.33973
vt 0.38744 0.28810
vt 0.55487 0.54716
vt 0.36272 0.56566
vt 0.22600 0.58069
vt 0.26210 0.47732
vt 0.17830 0.69057
vt 0.24040 0.42752
vt 0.54215 0.41402
vt 0.51132 0.64460
vt 0.42602 0.42116
vt 0.88064 0.28665
vt 0.63213 0.23918
vt 0.71073 0.55963
vt 0.34220 0.35281
vt 0.51537 0.65860
vt 0.56516 0.63930
vt 0.18946 0.27197
vt 0.49663 0.51223
vt 0.37664 0.69145
vt 0.09064 0.59892
vt 0.55430 0.75178
vt 0.44595 0.76047
vt 0.30887 0.57380
vt 0.15134 0.69577
vt 0.39003 0.50470
vt 0.09860 0.37561
vt 0.32691 0.27454
vt 0.55646 0.71196
vt 0.67824 0.48105
vt 0.67718 0.41986
vt 0.31591 0.66806
vt 0.47133 0.47652
vt 0.62849 0.54440
vt 0.71757 0.26910
vt 0.66374 0.28638
vt 0.59790 0.58846
vt 0.51556 0.75730
vt 0.15500 0.85197
vt 0.38864 0.54908
vt 0.65888 0.27182
vt 0.68929 0.25523
vt 0.72808 0.24748
vt 0.57887 0.52580
vt 0.35627 0.43196
vt 0.43263 0.42762
vt 0.59840 0.57554
vt 0.54435 0.60644
vt 0.51862 0.46486
vt 0.07605 0.46364
vt 0.14904 0.60570
vt 0.46242 0.43402
vt 0.33293 0.35918
vt 0.52092 0.69324
vt 0.53575 0.63217
vt 0.40704 0.46118
vt 0.55094 0.10016
vt 0.41455 0.44023
vt 0.44603 0.65043
vt 0.55287 0.69950
vt 0.62645 0.30229
vt 0.44328 0.39614
vt 0.54087 0.11520
vt 0.48144 0.48503
vt 0.49460 0.74751
vt 0.60999 0.77393
vt 0.46037 0.40939
vt 0.56008 0.38504
vt 0.26811 0.36459
vt 0.54012 0.14852
vt 0.34486 0.57202
vt 0.40101 0.69533
vt 0.62069 0.33012
vt 0.65041 0.32184
vt 0.59536 0.39357
vt 0.47926 0.34670
vt 0.19608 0.53959
vt 0.31061 0.40509
vt 0.57843 0.37458
vt 0.50079 0.17111
vt 0.33105 0.63085
vt 0.65272 0.29902
vt 0.52940 0.43824
vt 0.46447 0.47825
vt 0.52505 0.41643
vt 0.46423 0.35888
vt 0.38910 0.38793
vt 0.47290 0.37190
vt 0.61076 0.47346
vt 0.69633 0.56261
vt 0.73103 0.49674
vt 0.69024 0.27118
vt 0.79747 0.38547
vt 0.57923 0.21873
vt 0.64589 0.59895
vt 0.38950 0.41587
vt 0.62013 0.81296
vt 0.64456 0.67258
vt 0.43168 0.73176
vt 0.45322 0.61544
vt 0.61841 0.73570
vt 0.34226 0.68656
vt 0.51121 0.51563
vt 0.61780 0.43530
vt 0.57987 0.66781
vt 0.42494 0.79814
vt 0.39995 0.60330
vt 0.59190 0.41774
vt 0.41468 0.34098
vt 0.57695 0.65725
vt 0.53439 0.69888
vt 0.50226 0.29162
vt 0.61641 0.51600
vt 0.32283 0.44802
vt 0.62420 0.33970
vt 0.56063 0.44187
vt 0.34797 0.64493
vt 0.55400 0.72428
vt 0.65696 0.34009
vt 0.38971 0.35503
vt 0.33403 0.39420
vt 0.51638 0.13228
vt 0.29735 0.34660
vt 0.48138 0.65639
vt 0.69615 0.58897
vt 0.56595 0.41080
vt 0.56257 0.36137
vt 0.43160 0.28080
vt 0.33104 0.37690
vt 0.68885 0.62765
vt 0.35712 0.35546
vt 0.44181 0.33367
vt 0.40028 0.29234
vt 0.40698 0.45337
vt 0.25861 0.40054
vt 0.27348 0.27856
vt 0.36649 0.26374
vt 0.76219 0.36219
vt 0.40573 0.30800
vt 0.66639 0.30702
vt 0.71904 0.43427
vt 0.56280 0.40911
vt 0.68288 0.24103
vt 0.45260 0.51580
vt 0.59539 0.67296
vt 0.42377 0.56914
vt 0.39163 0.49147
vt 0.57705 0.51276
vt 0.61694 0.73103
vt 0.52884 0.45693
vt 0.74577 0.46637
vt 0.72375 0.82552
vt 0.88855 0.54617
vt 0.62446 0.21380
vt 0.77973 0.58968
vt 0.48324 0.62066
vt 0.26829 0.45031
vt 0.62404 0.20385
vt 0.70427 0.36533
vt 0.42866 0.16773
vt 0.73856 0.71485
vt 0.45569 0.50136
vt 0.21499 0.41281
vt 0.61221 0.38805
vt 0.46929 0.50375
vt 0.27584 0.67838
vt 0.44153 0.42602
vt 0.67943 0.32452
vt 0.38461 0.20669
vt 0.42225 0.31749
vt 0.60356 0.64916
vt 0.44958 0.54918
vt 0.39013 0.54357
vt 0.52410 0.46737
vt 0.60147 0.51993
vt 0.50649 0.43905
vt 0.41442 0.25787
vt 0.29713 0.24568
vt 0.62813 0.76811
vt 0.66242 0.58872
vt 0.20055 0.24127
vt 0.55630 0.43662
vt 0.39845 0.13621
vt 0.26493 0.39167
vt 0.58604 0.61992
vt 0.47632 0.26876
vt 0.44431 0.35752
vt 0.38794 0.41419
vt 0.23294 0.32689
vt 0.45532 0.53026
vt 0.36791 0.34971
vt 0.42087 0.50419
vt 0.48846 0.45984
vt 0.53933 0.34493
vt 0.50553 0.52054
vt 0.34651 0.65139
vt 0.25203 0.59949
vt 0.71334 0.42291
vt 0.43582 0.37388
vt 0.48678 0.47578
vt 0.39734 0.65396
vt 0.60588 0.60574
vt 0.49258 0.33720
vt 0.48644 0.38328
vt 0.49871 0.41333
vt 0.42163 0.72132
vt 0.36868 0.81228
vt 0.53897 0.42693
vt 0.47561 0.49540
vt 0.53021 0.37765
vt 0.57718 0.40500
vt 0.71323 0.42576
vt 0.62849 0.39247
vt 0.38152 0.57420
vt 0.36709 0.46495
vt 0.50880 0.45815
vt 0.68068 0.26534
vt 0.48422 0.48294
vt 0.41731 0.49650
vt 0.63841 0.50997
vt 0.53836 0.39711
vt 0.48729 0.39746
vt 0.45110 0.33463
vt 0.41698 0.60417
vt 0.62085 0.51919
vt 0.27994 0.31512
vt 0.43874 0.18082
vt 0.68324 0.43259
vt 0.29212 0.34000
vt 0.63810 0.38332
vt 0.54428 0.47902
vt 0.21963 0.26499
vt 0.50873 0.20988
vt 0.45014 0.49451
vt 0.42444 0.53675
vt 0.16945 0.26009
vt 0.25925 0.30393
vt 0.38924 0.42965
vt 0.35127 0.82383
vt 0.45887 0.51527
vt 0.15678 0.23165
vt 0.32061 0.36367
vt 0.33336 0.26705
vt 0.37233 0.54736
vt 0.35807 0.58895
vt 0.33364 0.34319
vt 0.54752 0.49674
vt 0.04545 0.70424
vt 0.06233 0.71209
vt 0.23794 0.41768
vt 0.49633 0.68181
vt 0.38550 0.37359
vt 0.45300 0.52462
vt 0.33862 0.59654
vt 0.55028 0.51265
vt 0.28907 0.43999
vt 0.35838 0.47720
vt 0.50539 0.45242
vt 0.39246 0.58970
vt 0.46226 0.51066
vt 0.45745 0.49920
vt 0.19171 0.81548
vt 0.30321 0.44051
vt 0.31116 0.40681
vt 0.54511 0.47997
vt 0.56575 0.54944
vt 0.37057 0.29860
vt 0.44375 0.44446
vt 0.46754 0.41084
vt 0.58693 0.21008
vt 0.58895 0.52144
vt 0.28431 0.41139
vt 0.57101 0.63160
vt 0.63564 0.51779
vt 0.50052 0.17122
vt 0.46218 0.41553
vt 0.44422 0.41957
vt 0.49788 0.40843
vt 0.17445 0.32392
vt 0.36299 0.42614
vt 0.34571 0.65379
vt 0.51577 0.73203
vt 0.26084 0.46227
vt 0.52964 0.31758
vt 0.10660 0.26284
vt 0.29300 0.40751
vt 0.28869 0.26165
vt 0.29787 0.28817
vt 0.17651 0.42990
vt 0.67833 0.28907
vt 0.42947 0.32238
vt 0.28495 0.39200
vt 0.54096 0.46308
vt 0.62522 0.62955
vt 0.22167 0.31871
vt 0.62441 0.04702
vt 0.40901 0.36319
vt 0.69686 0.58979
vt 0.52892 0.39862
vt 0.34813 0.53677
vt 0.50530 0.22753
vt 0.51284 0.31725
vt 0.49128 0.41551
vt 0.24530 0.33407
vt 0.38027 0.41071
vt 0.42162 0.30461
vt 0.56483 0.29313
vt 0.10322 0.12391
vt 0.40018 0.49239
vt 0.42469 0.41681
vt 0.47984 0.22874
vt 0.85331 0.42739
vt 0.40881 0.45133
vt 0.47292 0.70964
vt 0.48591 0.69317
vt 0.44704 0.31587
vt 0.56836 0.22828
vt 0.39037 0.20515
vt 0.47151 0.82657
vt 0.65930 0.39921
vt 0.66159 0.45859
vt 0.39062 0.39548
vt 0.42364 0.64511
vt 0.13602 0.25100
vt 0.22229 0.31100
vt 0.55291 0.73863
vt 0.72851 0.52274
vt 0.56877 0.66720
vt 0.63722 0.51336
vt 0.19324 0.35416
vt 0.51330 0.54451
vt 0.59347 0.62211
vt 0.69503 0.35005
vt 0.53547 0.45844
vt 0.49091 0.38053
vt 0.46135 0.36004
vt 0.49814 0.22751
vt 0.49069 0.21701
vt 0.57368 0.51149
vt 0.08004 0.15002
vt 0.23730 0.40855
vt 0.80132 0.61072
vt 0.56537 0.60747
vt 0.52817 0.70313
vt 0.40344 0.63957
vt 0.29669 0.28371
vt 0.82813 0.32419
vt 0.57668 0.30355
vt 0.45347 0.48542
vt 0.27364 0.30280
vt 0.45881 0.69599
vt 0.63504 0.33135
vt 0.55075 0.45847
vt 0.57815 0.59606
vt 0.34219 0.38221
vt 0.47786 0.40607
vt 0.27883 0.30269
vt 0.67140 0.46564
vt 0.44562 0.32430
vt 0.62791 0.10147
vt 0.43485 0.31070
vt 0.32055 0.31178
vt 0.22817 0.40075
vt 0.58832 0.51529
vt 0.45432 0.53135
vt 0.49815 0.43565
vt 0.14896 0.27153
vt 0.24148 0.37629
vt 0.66156 0.59971
vt 0.50402 0.42295
vt 0.15394 0.23536
vt 0.33452 0.38369
vt 0.35549 0.34431
vt 0.31270 0.37218
vt 0.44732 0.36073
vt 0.70140 0.49759
vt 0.43662 0.45457
vt 0.40746 0.38878
vt 0.60293 0.48870
vt 0.42449 0.44090
vt 0.42473 0.41032
vt 0.44837 0.17528
vt 0.37772 0.37983
vt 0.66352 0.52600
vt 0.33571 0.49348
vt 0.49896 0.53039
vt 0.37309 0.28838
vt 0.10438 0.28101
vt 0.40129 0.32605
vt 0.64655 0.47925
vt 0.29139 0.36669
vt 0.61093 0.33989
vt 0.27368 0.41130
vt 0.33617 0.28499
vt 0.62298 0.37285
vt 0.61814 0.23987
vt 0.40712 0.28456
vt 0.33615 0.26158
vt 0.50042 0.16976
vt 0.64606 0.11400
vt 0.46201 0.40966
vt 0.53830 0.14962
vt 0.46163 0.68616
vt 0.44328 0.75141
vt 0.83232 0.91132
vt 0.47761 0.51764
vt 0.33599 0.48573
vt 0.32631 0.55925
vt 0.45092 0.59669
vt 0.68604 0.83109
vt 0.58094 0.82095
vt 0.33172 0.34571
vt 0.31544 0.51613
vt 0.58201 0.68342
vt 0.41547 0.45147
vt 0.69997 0.53188
vt 0.55580 0.43166
vt 0.49023 0.43553
vt 0.75190 0.50822
vt 0.30865 0.42144
vt 0.46682 0.51369
vt 0.82828 0.52707
vt 0.41216 0.59226
vt 0.29676 0.51697
vt 0.47261 0.74278
vt 0.36029 0.72265
vt 0.67268 0.55328
vt 0.76518 0.66776
vt 0.52068 0.84795
vt 0.31028 0.50038
vt 0.34267 0.59261
vt 0.67144 0.69314
vt 0.55363 0.59776
vt 0.33197 0.44316
vt 0.25134 0.36200
vn -0.99489 -0.04824 0.08869
vn -0.28762 -0.95579 -0.06122
vn -0.37059 0.29615 -0.88031
vn -0.82764 -0.01481 0.56106
vn 0.07907 0.88949 -0.45007
vn -0.54244 0.84002 0.01134
vn -0.37688 0.92488 0.05064
vn -0.58185 0.40752 0.70383
vn -0.52345 -0.30736 0.79469
vn -0.84110 -0.51380 -0.16900
vn -0.85064 -0.49902 -0.16551
vn -0.24294 0.54876 0.79990
vn -0.83918 0.37710 0.39188
vn -0.76754 0.49976 -0.40141
vn -0.93542 0.22625 0.27165
vn -0.28396 -0.23052 0.93071
vn 0.85961 -0.50609 -0.07027
vn 0.05038 0.88780 0.45747
vn 0.50942 0.85723 -0.07519
vn 0.31994 0.93768 -0.13560
vn -0.63028 -0.76647 -0.12355
vn -0.16716 -0.53700 0.82685
vn -0.81142 -0.57451 0.10740
vn -0.15588 -0.11296 0.98130
vn 0.48895 0.87230 0.00439
vn -0.69282 -0.33790 -0.63704
vn -0.55837 -0.74263 -0.36975
vn 0.71133 0.67624 0.19162
vn 0.03948 0.91596 0.39933
vn -0.13815 -0.00466 0.99040
vn -0.40894 0.53116 -0.74205
vn 0.45244 0.79192 -0.41008
vn -0.91172 -0.20237 0.35751
vn 0.53374 0.71195 0.45634
vn 0.73181 0.62327 0.27567
vn -0.37559 -0.92543 0.05007
vn -0.23675 -0.66129 0.71179
vn -0.89254 -0.43697 -0.11150
vn 0.47475 0.83302 0.28407
vn 0.38030 0.91714 -0.11930
vn -0.35398 -0.93243 -0.07265
vn 0.45101 0.74492 0.49161
vn 0.40351 0.36962 0.83699
vn -0.58344 -0.80809 0.08120
vn -0.30721 0.49762 -0.81117
vn 0.53299 0.74394 0.40308
vn 0.34970 0.93381 0.07560
vn 0.32160 0.94147 -0.10104
vn 0.36179 0.91376 0.18479
vn 0.53160 0.68250 0.50160
vn 0.36398 0.89148 0.26978
vn 0.74966 0.63006 0.20259
vn 0.67011 0.70973 -0.21735
vn 0.65208 0.67665 -0.34198
vn -0.89620 -0.26734 0.35406
vn 0.28272 0.79469 -0.53715
vn 0.74817 0.65671 0.09470
vn 0.59722 0.80166 0.02583
vn -0.24040 0.94802 -0.20848
vn 0.17262 0.71508 0.67739
vn -0.83073 -0.54612 -0.10790
vn -0.70877 -0.66358 0.23939
vn 0.58510 0.26482 0.76650
vn 0.82172 0.42451 -0.38021
vn -0.51756 0.34410 -0.78341
vn 0.78717 0.51694 -0.33635
vn -0.63358 -0.68435 0.36089
vn -0.21484 -0.89635 0.38781
vn -0.54342 -0.34882 0.76356
vn 0.74427 0.31097 -0.59107
vn 0.08496 0.42055 -0.90328
vn 0.78806 0.61359 -0.04974
vn -0.50188 -0.79971 0.32953
vn -0.00780 0.67784 0.73517
vn 0.30868 -0.24441 0.91923
vn 0.81849 0.37125 0.43846
vn 0.74384 0.32301 -0.58511
vn 0.70494 0.55755 -0.43840
vn 0.67862 0.72773 0.09943
vn 0.36682 0.88732 -0.27947
vn 0.36983 0.91184 -0.17823
vn 0.43019 0.84192 0.32574
vn 0.31893 0.71541 0.62167
vn -0.57022 0.37172 -0.73258
vn 0.69285 0.43560 0.57464
vn 0.58500 0.55228 -0.59394
vn 0.66473 0.39224 -0.63583
vn -0.24251 0.61025 -0.75418
vn 0.39871 0.90991 -0.11440
vn 0.72754 0.54115 -0.42171
vn 0.32070 0.60627 0.72773
vn 0.40182 0.89018 -0.21476
vn -0.43543 -0.19714 0.87837
vn 0.27833 0.95195 -0.12777
vn 0.17171 0.96004 -0.22101
vn 0.28759 0.93698 -0.19840
vn -0.14170 -0.28721 -0.94733
vn -0.31387 -0.08135 -0.94598
vn -0.81598 -0.51281 0.26684
vn -0.71474 0.09325 -0.69314
vn -0.56949 -0.35071 0.74343
vn -0.82220 0.22141 -0.52437
vn -0.72299 -0.09739 0.68396
vn -0.72249 0.54902 -0.42023
vn -0.91332 0.20571 0.35148
vn -0.75114 -0.13921 -0.64530
vn -0.68984 0.55975 0.45913
vn -0.58320 -0.74601 0.32147
vn 0.38112 -0.00663 -0.92450
vn 0.44267 0.26768 0.85580
vn 0.27438 0.77103 -0.57465
vn 0.98883 0.06500 0.13411
vn 0.19630 -0.76299 0.61589
vn 0.97748 0.20855 -0.03226
vn 0.87741 -0.12641 0.46278
vn 0.17816 0.68408 -0.70732
vn 0.73873 0.65400 -0.16294
vn 0.85227 0.38811 -0.35072
vn 0.95348 -0.27686 0.11930
vn -0.48603 -0.20704 -0.84906
vn 0.91120 0.23775 0.33643
vn 0.80752 0.12855 -0.57566
vn 0.27512 -0.18401 0.94364
vn 0.39093 0.59942 -0.69847
vn 0.14581 0.97015 0.19379
vn 0.97096 0.23611 -0.03870
vn 0.79513 -0.20081 -0.57222
vn 0.73675 0.15644 0.65782
vn 0.63925 0.23658 -0.73170
vn 0.72301 -0.38194 0.57565
vn -0.45716 0.74927 0.47917
vn -0.20498 0.97462 0.09003
vn -0.03412 0.94693 0.31963
vn -0.10614 0.98940 -0.09906
vn -0.10146 0.02072 -0.99462
vn 0.89261 0.25875 0.36917
vn -0.44718 0.89396 -0.02930
vn 0.74773 0.40972 0.52252
vn -0.40579 0.88685 -0.22098
vn -0.99934 0.01930 0.03066
vn -0.64514 -0.16130 0.74685
vn -0.37553 0.87647 -0.30131
vn -0.78796 0.26998 -0.55338
vn -0.15910 0.86786 0.47064
vn 0.76631 -0.56215 -0.31106
vn 0.18457 -0.76524 0.61672
vn 0.80114 -0.43346 -0.41265
vn 0.26477 -0.48882 0.83123
vn 0.21919 -0.01098 -0.97562
vn 0.15475 -0.35871 0.92053
vn -0.07203 0.48364 -0.87230
vn 0.05881 0.23964 0.96908
vn 0.18504 -0.54117 0.82030
vn -0.08173 0.54734 -0.83291
vn -0.10897 0.97868 -0.17408
vn -0.51029 0.35274 0.78433
vn -0.05955 0.25055 -0.96627
vn -0.98646 0.15607 -0.05039
vn 0.85671 -0.24979 0.45129
vn -0.92807 -0.23499 -0.28892
vn -0.40540 -0.16405 -0.89930
vn -0.93796 0.11273 -0.32791
vn -0.35869 -0.24627 0.90038
vn -0.94805 -0.31809 -0.00446
vn -0.71580 0.41387 0.56244
vn 0.10210 -0.21976 0.97020
vn -0.39486 0.31252 -0.86395
vn -0.74248 -0.18495 -0.64383
vn -0.78978 -0.25425 0.55822
vn 0.98135 -0.18465 -0.05353
vn -0.90746 -0.12519 -0.40104
vn -0.99938 -0.00869 0.03404
vn -0.71787 -0.67528 0.16927
vn 0.70390 0.23270 0.67110
vn -0.64322 0.19346 0.74083
vn -0.47765 0.01884 -0.87835
vn -0.86507 -0.05760 -0.49833
vn -0.24707 -0.17859 -0.95240
vn 0.93095 0.12612 -0.34266
vn 0.51296 0.73903 0.43670
vn 0.50528 0.19712 0.84014
vn -0.68388 -0.07477 0.72575
vn 0.65750 0.37640 0.65270
vn -0.46035 0.00295 -0.88773
vn -0.73224 0.20336 -0.64997
vn 0.18830 0.03296 -0.98156
vn -0.11563 0.97251 0.20214
vn 0.68666 0.48058 0.54547
vn -0.51896 0.54602 0.65768
vn -0.54456 -0.03318 -0.83806
vn 0.43082 0.82800 -0.35891
vn 0.14122 0.33974 -0.92986
vn 0.36316 0.87872 0.30979
vn 0.41929 0.84528 0.33120
vn -0.35716 0.34668 0.86732
vn -0.23803 0.61005 -0.75576
vn -0.54381 0.70120 -0.46108
vn 0.06772 0.99195 0.10697
vn -0.68900 0.60663 -0.39659
vn 0.97936 -0.00305 -0.20212
vn 0.86298 -0.27362 0.42474
vn 0.80902 0.37356 -0.45381
vn 0.85993 -0.15118 0.48751
vn 0.48598 -0.84265 0.23188
vn -0.10642 -0.77277 -0.62570
vn 0.95022 0.21477 -0.22572
vn 0.98773 0.15410 0.02541
vn 0.09506 0.63629 -0.76557
vn 0.24601 -0.56562 -0.78712
vn -0.44916 0.54603 0.70718
vn -0.70485 0.57406 -0.41670
vn 0.81787 -0.28565 0.49950
vn -0.30053 0.78068 -0.54793
vn 0.66543 0.34581 -0.66153
vn -0.45519 -0.76791 0.45068
vn 0.07863 0.34692 0.93459
vn 0.10157 0.43331 0.89550
vn 0.39783 0.01174 -0.91739
vn 0.81127 -0.41595 0.41089
vn 0.27839 -0.39919 0.87358
vn -0.86821 0.49605 -0.01225
vn -0.51611 -0.84462 0.14230
vn -0.06808 0.94150 0.33006
vn -0.22898 0.50702 0.83096
vn 0.70211 0.08101 0.70744
vn 0.39508 -0.17419 -0.90198
vn 0.86912 -0.35238 -0.34707
vn 0.62677 -0.28790 -0.72407
vn 0.17405 0.96290 -0.20621
vn -0.01149 0.91630 -0.40032
vn 0.17756 0.93458 0.30826
vn -0.08178 -0.73689 -0.67105
vn 0.59572 0.39952 0.69678
vn 0.16859 -0.18239 -0.96866
vn 0.81417 -0.17445 -0.55380
vn 0.66433 0.06274 -0.74481
vn -0.27860 -0.78501 -0.55330
vn 0.59818 -0.76414 -0.24141
vn 0.69418 0.45325 0.55917
vn 0.04141 -0.34809 -0.93655
vn 0.52102 0.28851 -0.80330
vn -0.32168 -0.74183 -0.58839
vn 0.54387 0.61552 0.57039
vn -0.09368 0.10562 -0.98998
vn 0.53330 0.22655 -0.81503
vn -0.37099 -0.49458 -0.78597
vn -0.40799 -0.52055 -0.75005
vn 0.63619 0.64629 0.42139
vn -0.85457 0.42154 -0.30334
vn 0.10046 0.69799 -0.70903
vn -0.47106 -0.28320 -0.83540
vn 0.29440 0.62009 0.72720
vn 0.38517 0.69474 -0.60744
vn 0.05610 0.62472 0.77883
vn 0.69017 -0.57198 -0.44328
vn -0.00407 -0.88651 0.46268
vn -0.42246 -0.67526 0.60462
vn -0.35377 -0.20113 -0.91345
vn -0.24195 -0.67185 -0.70005
vn 0.37177 0.33742 -0.86483
vn -0.61972 0.73704 -0.26967
vn -0.01840 -0.99954 0.02390
vn 0.45458 0.16971 0.87439
vn -0.46708 -0.07522 -0.88101
vn -0.66059 0.57460 -0.48318
vn 0.11007 0.89616 -0.42987
vn 0.12207 0.94148 -0.31418
vn 0.11899 0.82865 0.54697
vn 0.19272 0.68911 0.69856
vn 0.03376 0.58447 0.81071
vn 0.77630 0.23064 0.58665
vn 0.35554 0.01177 -0.93459
vn 0.89118 -0.24411 -0.38238
vn 0.92698 -0.36261 0.09606
vn 0.07073 0.98067 -0.18242
vn 0.03514 0.98538 0.16668
vn -0.07710 0.94652 0.31331
vn 0.01100 0.67601 0.73681
vn -0.27371 0.79327 0.54388
vn 0.26514 0.36896 -0.89083
vn 0.89932 -0.23689 0.36757
vn 0.98934 0.02845 0.14281
vn -0.06180 0.71131 0.70015
vn 0.46298 -0.31873 -0.82708
vn -0.03919 0.31441 0.94848
vn 0.90275 0.19560 0.38312
vn 0.09049 0.82139 0.56315
vn -0.59620 0.79801 0.08787
vn 0.66670 -0.18270 0.72259
vn 0.85297 -0.09996 0.51230
vn 0.34792 0.71630 -0.60486
vn 0.42579 0.64588 0.63368
vn -0.39642 0.91745 0.03360
vn 0.63801 0.56084 0.52763
vn 0.56269 0.80608 -0.18335
vn -0.15570 0.71131 0.68541
vn -0.20351 -0.79839 0.56671
vn -0.45143 -0.73764 0.50210
vn 0.08030 0.44289 0.89297
vn 0.42840 -0.65741 0.61991
vn 0.57598 -0.66647 -0.47335
vn -0.13510 -0.95865 0.25048
vn 0.37691 0.60621 0.70032
vn 0.25637 0.59525 0.76155
vn -0.11011 -0.86054 -0.49733
vn -0.93236 0.31701 -0.17380
vn -0.37920 0.77456 -0.50623
vn -0.57673 0.17434 -0.79812
vn 0.01045 0.88484 -0.46578
vn -0.00860 0.96448 -0.26400
vn -0.25930 -0.96568 -0.01508
vn 0.90937 -0.08421 -0.40738
vn 0.23224 0.82184 0.52024
vn -0.77833 -0.07770 -0.62303
vn -0.45916 0.80616 0.37320
vn -0.10836 0.37036 -0.92255
vn 0.16419 0.98306 -0.08150
vn 0.24139 0.95645 0.16409
vn -0.67802 -0.52714 -0.51226
vn 0.04907 0.39218 0.91858
vn -0.77549 0.57246 -0.26627
vn -0.55854 0.44741 0.69846
vn -0.13389 0.90684 0.39964
vn -0.01364 0.93260 0.36066
vn 0.96085 0.25007 -0.11934
vn 0.33605 -0.60211 -0.72425
vn 0.02608 0.94872 0.31503
vn -0.01117 0.69784 0.71617
vn 0.10557 0.81736 0.56637
vn 0.54002 0.79269 -0.28288
vn 0.13537 0.86122 0.48987
vn -0.00222 0.46392 0.88588
vn -0.87286 -0.36578 -0.32298
vn -0.01815 -0.45414 0.89074
vn -0.46658 -0.50308 -0.72747
vn 0.50970 0.48840 0.70829
vn -0.18021 -0.85398 -0.48809
vn -0.25074 -0.52911 -0.81066
vn 0.19159 -0.95213 0.23819
vn 0.54871 -0.33692 -0.76511
vn 0.14310 0.98921 0.03141
vn 0.15825 0.95163 -0.26336
vn 0.27179 0.96099 -0.05118
vn 0.24194 0.91718 0.31660
vn 0.44131 0.81473 0.37611
vn 0.05979 -0.92903 -0.36515
vn -0.30915 0.88781 0.34092
vn -0.28017 0.84346 -0.45834
vn -0.14166 0.87315 -0.46641
vn -0.06240 0.96420 0.25774
vn -0.07271 0.75588 -0.65066
vn -0.65085 0.72235 0.23367
vn -0.51832 -0.55882 0.64735
vn 0.05857 -0.44800 -0.89211
vn 0.99087 -0.09973 -0.09070
vn -0.63355 0.74018 0.22527
vn -0.51505 0.78482 0.34465
vn 0.88844 0.44074 -0.12814
vn 0.99105 -0.00768 -0.13323
vn 0.51683 -0.84946 0.10629
vn 0.65495 -0.37768 0.65452
vn 0.85148 -0.52383 -0.02438
vn 0.46915 0.42070 0.77647
vn 0.47804 0.80124 -0.35984
vn 0.46534 0.87504 -0.13325
vn 0.19371 0.52176 0.83081
vn 0.37000 0.59320 0.71500
vn -0.02955 -0.99271 0.11683
vn -0.03750 0.89820 -0.43799
vn 0.31042 0.95034 -0.02239
vn 0.37500 0.92400 -0.07479
vn -0.05487 0.89921 -0.43407
vn -0.01147 0.94520 0.32630
vn -0.15782 0.95273 0.25960
vn -0.17024 0.92464 -0.34067
vn -0.26611 0.49570 -0.82672
vn -0.20694 0.96683 0.14973
vn -0.12180 0.94369 0.30760
vn -0.04141 0.78865 -0.61345
vn 0.11125 -0.19497 0.97448
vn -0.20984 0.30358 0.92941
vn 0.07519 0.98142 -0.17654
vn 0.18994 0.92701 0.32338
vn -0.35008 -0.48718 -0.80006
vn 0.71599 -0.68848 0.11550
vn 0.04824 -0.99675 -0.06457
vn 0.90741 0.41165 0.08461
vn 0.71822 0.00963 -0.69575
vn 0.56347 0.27828 0.77786
vn 0.61145 0.70542 -0.35848
vn 0.58339 0.81181 -0.02475
vn 0.48674 0.24832 -0.83751
vn 0.99201 -0.12611 0.00264
vn 0.10800 -0.98589 0.12790
vn 0.62107 0.75906 0.19519
vn 0.39411 0.88818 -0.23623
vn 0.35221 -0.12107 -0.92806
vn 0.05625 -0.87828 -0.47482
vn 0.34646 0.93801 0.00963
vn -0.17047 -0.98506 0.02440
vn 0.22431 0.93223 -0.28396
vn 0.29219 0.88933 -0.35173
vn 0.23060 0.95718 0.17500
vn 0.11040 0.97481 0.19380
vn 0.26018 0.84691 -0.46373
vn 0.39793 0.91731 -0.01393
vn 0.25662 0.93514 0.24427
vn 0.10914 -0.08442 0.99044
vn 0.26312 0.96376 -0.04387
vn -0.56705 -0.80553 0.17196
vn 0.76050 0.64570 -0.06860
vn 0.78191 0.61981 0.06670
vn 0.14906 -0.16715 -0.97460
vn 0.27625 0.95047 -0.14249
vn 0.34490 0.90114 0.26267
vn 0.58244 0.81095 -0.05590
vn 0.74745 0.65120 -0.13137
vn 0.72065 0.13564 -0.67990
vn 0.08660 0.98705 -0.13501
vn 0.13670 0.98369 0.11690
vn 0.51450 0.68508 -0.51571
vn 0.95458 0.28904 -0.07238
vn 0.48555 -0.00593 0.87419
vn -0.15813 0.97043 -0.18237
vn 0.85149 -0.52300 -0.03788
vn 0.93294 -0.31644 0.17173
vn -0.12046 -0.72259 -0.68070
vn 0.84139 0.44042 0.31319
vn -0.39163 -0.83728 0.38156
vn 0.36636 -0.66968 -0.64599
vn 0.88429 0.35778 -0.30005
vn -0.51274 -0.85072 -0.11565
vn 0.81034 0.58429 0.04423
vn 0.96261 -0.14253 0.23036
vn -0.37024 -0.77012 0.51947
vn 0.63335 0.37733 -0.67564
vn 0.73641 0.62405 -0.26127
vn 0.56664 0.76610 0.30332
vn 0.51537 0.30614 -0.80042
vn -0.51157 -0.14067 -0.84765
vn 0.84338 0.24909 0.47609
vn 0.78678 0.38819 0.47989
usemtl lingcao_qingxin_young_mat
s off
f 362/362/362 360/360/360 335/335/335
f 363/363/363 360/360/360 362/362/362
f 385/385/385 362/362/362 335/335/335
f 335/335/335 333/333/333 334/334/334
f 361/361/361 333/333/333 335/335/335
f 335/335/335 360/360/360 361/361/361
f 334/334/334 361/361/361 363/363/363
f 363/363/363 361/361/361 360/360/360
f 385/385/385 389/389/389 363/363/363
f 338/338/338 384/384/384 385/385/385
f 389/389/389 388/388/388 363/363/363
f 338/338/338 388/388/388 384/384/384
f 393/393/393 388/388/388 338/338/338
f 334/334/334 297/297/297 338/338/338
f 338/338/338 297/297/297 298/298/298
f 338/338/338 298/298/298 257/257/257
f 215/215/215 337/337/337 263/263/263
f 337/337/337 165/165/165 164/164/164
f 397/397/397 312/312/312 311/311/311
f 224/224/224 311/311/311 312/312/312
f 386/386/386 387/387/387 311/311/311
f 311/311/311 164/164/164 173/173/173
f 311/311/311 173/173/173 172/172/172
f 311/311/311 172/172/172 171/171/171
f 311/311/311 230/230/230 229/229/229
f 311/311/311 171/171/171 230/230/230
f 312/312/312 215/215/215 224/224/224
f 396/396/396 392/392/392 372/372/372
f 372/372/372 392/392/392 365/365/365
f 298/298/298 297/297/297 334/334/334
f 298/298/298 303/303/303 304/304/304
f 304/304/304 299/299/299 298/298/298
f 269/269/269 268/268/268 224/224/224
f 311/311/311 390/390/390 386/386/386
f 311/311/311 302/302/302 340/340/340
f 340/340/340 369/369/369 311/311/311
f 387/387/387 386/386/386 391/391/391
f 391/391/391 364/364/364 371/371/371
f 370/370/370 371/371/371 364/364/364
f 370/370/370 341/341/341 371/371/371
f 364/364/364 390/390/390 395/395/395
f 364/364/364 395/395/395 370/370/370
f 417/417/417 439/439/439 435/435/435
f 432/432/432 434/434/434 435/435/435
f 410/410/410 432/432/432 435/435/435
f 435/435/435 439/439/439 410/410/410
f 439/439/439 440/440/440 410/410/410
f 410/410/410 440/440/440 422/422/422
f 432/432/432 410/410/410 431/431/431
f 437/437/437 431/431/431 410/410/410
f 394/394/394 410/410/410 422/422/422
f 429/429/429 434/434/434 432/432/432
f 431/431/431 427/427/427 432/432/432
f 430/430/430 431/431/431 432/432/432
f 436/436/436 430/430/430 432/432/432
f 229/229/229 222/222/222 302/302/302
f 302/302/302 222/222/222 221/221/221
f 341/341/341 369/369/369 340/340/340
f 308/308/308 340/340/340 262/262/262
f 301/301/301 309/309/309 262/262/262
f 262/262/262 309/309/309 308/308/308
f 221/221/221 261/261/261 262/262/262
f 276/276/276 275/275/275 231/231/231
f 230/230/230 231/231/231 275/275/275
f 221/221/221 222/222/222 267/267/267
f 260/260/260 301/301/301 261/261/261
f 255/255/255 260/260/260 256/256/256
f 301/301/301 266/266/266 309/309/309
f 261/261/261 220/220/220 213/213/213
f 208/208/208 213/213/213 260/260/260
f 213/213/213 220/220/220 214/214/214
f 223/223/223 165/165/165 224/224/224
f 164/164/164 165/165/165 223/223/223
f 164/164/164 223/223/223 231/231/231
f 164/164/164 231/231/231 173/173/173
f 171/171/171 172/172/172 231/231/231
f 422/422/422 423/423/423 394/394/394
f 394/394/394 400/400/400 413/413/413
f 421/421/421 422/422/422 418/418/418
f 398/398/398 413/413/413 400/400/400
f 402/402/402 398/398/398 400/400/400
f 376/376/376 402/402/402 400/400/400
f 381/381/381 408/408/408 407/407/407
f 408/408/408 381/381/381 368/368/368
f 409/409/409 380/380/380 407/407/407
f 381/381/381 380/380/380 368/368/368
f 368/368/368 380/380/380 353/353/353
f 383/383/383 353/353/353 380/380/380
f 353/353/353 357/357/357 368/368/368
f 356/356/356 368/368/368 357/357/357
f 356/356/356 339/339/339 368/368/368
f 320/320/320 319/319/319 368/368/368
f 368/368/368 319/319/319 349/349/349
f 346/346/346 376/376/376 368/368/368
f 349/349/349 346/346/346 368/368/368
f 357/357/357 382/382/382 356/356/356
f 274/274/274 273/273/273 227/227/227
f 273/273/273 282/282/282 274/274/274
f 285/285/285 290/290/290 286/286/286
f 74/74/74 75/75/75 68/68/68
f 74/74/74 68/68/68 119/119/119
f 68/68/68 75/75/75 41/41/41
f 74/74/74 82/82/82 83/83/83
f 41/41/41 119/119/119 68/68/68
f 41/41/41 126/126/126 119/119/119
f 133/133/133 134/134/134 41/41/41
f 134/134/134 126/126/126 41/41/41
f 41/41/41 75/75/75 37/37/37
f 24/24/24 55/55/55 41/41/41
f 41/41/41 6/6/6 5/5/5
f 41/41/41 1/1/1 17/17/17
f 17/17/17 24/24/24 41/41/41
f 67/67/67 118/118/118 124/124/124
f 124/124/124 170/170/170 67/67/67
f 73/73/73 125/125/125 131/131/131
f 73/73/73 124/124/124 125/125/125
f 112/112/112 113/113/113 62/62/62
f 62/62/62 66/66/66 65/65/65
f 112/112/112 117/117/117 118/118/118
f 112/112/112 65/65/65 116/116/116
f 117/117/117 66/66/66 71/71/71
f 156/156/156 153/153/153 204/204/204
f 153/153/153 156/156/156 152/152/152
f 105/105/105 152/152/152 153/153/153
f 153/153/153 156/156/156 107/107/107
f 107/107/107 105/105/105 153/153/153
f 111/111/111 155/155/155 152/152/152
f 112/112/112 159/159/159 111/111/111
f 156/156/156 111/111/111 159/159/159
f 112/112/112 116/116/116 111/111/111
f 107/107/107 110/110/110 111/111/111
f 152/152/152 155/155/155 107/107/107
f 108/108/108 110/110/110 107/107/107
f 41/41/41 36/36/36 181/181/181
f 36/36/36 173/173/173 181/181/181
f 36/36/36 41/41/41 55/55/55
f 36/36/36 55/55/55 45/45/45
f 45/45/45 88/88/88 36/36/36
f 5/5/5 1/1/1 41/41/41
f 133/133/133 126/126/126 134/134/134
f 74/74/74 133/133/133 82/82/82
f 133/133/133 81/81/81 82/82/82
f 181/181/181 180/180/180 132/132/132
f 180/180/180 187/187/187 132/132/132
f 131/131/131 132/132/132 137/137/137
f 80/80/80 81/81/81 132/132/132
f 125/125/125 80/80/80 132/132/132
f 73/73/73 179/179/179 131/131/131
f 88/88/88 78/78/78 73/73/73
f 37/37/37 43/43/43 21/21/21
f 16/16/16 22/22/22 21/21/21
f 21/21/21 8/8/8 2/2/2
f 21/21/21 2/2/2 7/7/7
f 50/50/50 21/21/21 22/22/22
f 22/22/22 9/9/9 25/25/25
f 4/4/4 9/9/9 22/22/22
f 22/22/22 4/4/4 3/3/3
f 3/3/3 8/8/8 4/4/4
f 3/3/3 21/21/21 7/7/7
f 6/6/6 20/20/20 19/19/19
f 47/47/47 18/18/18 19/19/19
f 7/7/7 20/20/20 6/6/6
f 6/6/6 19/19/19 5/5/5
f 185/185/185 177/177/177 178/178/178
f 196/196/196 250/250/250 192/192/192
f 192/192/192 142/142/142 196/196/196
f 69/69/69 63/63/63 123/123/123
f 123/123/123 63/63/63 122/122/122
f 121/121/121 114/114/114 63/63/63
f 122/122/122 63/63/63 115/115/115
f 120/120/120 121/121/121 63/63/63
f 69/69/69 120/120/120 63/63/63
f 123/123/123 130/130/130 69/69/69
f 69/69/69 121/121/121 120/120/120
f 122/122/122 130/130/130 123/123/123
f 130/130/130 136/136/136 38/38/38
f 136/136/136 129/129/129 77/77/77
f 135/135/135 127/127/127 38/38/38
f 44/44/44 38/38/38 93/93/93
f 38/38/38 84/84/84 135/135/135
f 38/38/38 90/90/90 84/84/84
f 44/44/44 92/92/92 93/93/93
f 44/44/44 139/139/139 92/92/92
f 93/93/93 55/55/55 44/44/44
f 44/44/44 52/52/52 56/56/56
f 94/94/94 90/90/90 44/44/44
f 56/56/56 94/94/94 44/44/44
f 86/86/86 92/92/92 87/87/87
f 18/18/18 46/46/46 24/24/24
f 18/18/18 17/17/17 1/1/1
f 46/46/46 78/78/78 88/88/88
f 46/46/46 88/88/88 45/45/45
f 46/46/46 45/45/45 55/55/55
f 46/46/46 55/55/55 24/24/24
f 60/60/60 96/96/96 54/54/54
f 60/60/60 59/59/59 23/23/23
f 23/23/23 26/26/26 56/56/56
f 30/30/30 29/29/29 27/27/27
f 29/29/29 10/10/10 27/27/27
f 31/31/31 26/26/26 27/27/27
f 53/53/53 54/54/54 92/92/92
f 53/53/53 59/59/59 54/54/54
f 28/28/28 34/34/34 29/29/29
f 14/14/14 11/11/11 33/33/33
f 33/33/33 11/11/11 32/32/32
f 32/32/32 31/31/31 33/33/33
f 13/13/13 33/33/33 12/12/12
f 12/12/12 15/15/15 33/33/33
f 33/33/33 15/15/15 35/35/35
f 33/33/33 15/15/15 14/14/14
f 412/412/412 434/434/434 417/417/417
f 416/416/416 417/417/417 434/434/434
f 433/433/433 429/429/429 428/428/428
f 428/428/428 429/429/429 427/427/427
f 426/426/426 428/428/428 427/427/427
f 425/425/425 426/426/426 427/427/427
f 433/433/433 428/428/428 426/426/426
f 428/428/428 426/426/426 425/425/425
f 428/428/428 425/425/425 427/427/427
f 432/432/432 427/427/427 441/441/441
f 432/432/432 441/441/441 442/442/442
f 259/259/259 218/218/218 211/211/211
f 218/218/218 259/259/259 265/265/265
f 258/258/258 264/264/264 259/259/259
f 151/151/151 211/211/211 206/206/206
f 339/339/339 356/356/356 352/352/352
f 339/339/339 306/306/306 305/305/305
f 339/339/339 305/305/305 314/314/314
f 339/339/339 322/322/322 321/321/321
f 321/321/321 316/316/316 339/339/339
f 316/316/316 272/272/272 306/306/306
f 300/300/300 264/264/264 306/306/306
f 306/306/306 347/347/347 315/315/315
f 347/347/347 314/314/314 315/315/315
f 209/209/209 210/210/210 160/160/160
f 216/216/216 271/271/271 264/264/264
f 306/306/306 315/315/315 314/314/314
f 431/431/431 430/430/430 437/437/437
f 430/430/430 436/436/436 437/437/437
f 417/417/417 416/416/416 421/421/421
f 356/356/356 351/351/351 352/352/352
f 377/377/377 374/374/374 378/378/378
f 403/403/403 402/402/402 376/376/376
f 374/374/374 377/377/377 350/350/350
f 351/351/351 322/322/322 352/352/352
f 285/285/285 325/325/325 329/329/329
f 235/235/235 272/272/272 280/280/280
f 227/227/227 226/226/226 218/218/218
f 329/329/329 332/332/332 288/288/288
f 289/289/289 294/294/294 293/293/293
f 293/293/293 331/331/331 296/296/296
f 244/244/244 288/288/288 284/284/284
f 249/249/249 293/293/293 288/288/288
f 347/347/347 350/350/350 314/314/314
f 349/349/349 319/319/319 350/350/350
f 232/232/232 320/320/320 279/279/279
f 232/232/232 324/324/324 320/320/320
f 175/175/175 182/182/182 232/232/232
f 279/279/279 270/270/270 225/225/225
f 166/166/166 175/175/175 225/225/225
f 225/225/225 270/270/270 271/271/271
f 160/160/160 166/166/166 225/225/225
f 182/182/182 189/189/189 232/232/232
f 238/238/238 355/355/355 323/323/323
f 238/238/238 189/189/189 237/237/237
f 323/323/323 355/355/355 328/328/328
f 355/355/355 359/359/359 328/328/328
f 359/359/359 354/354/354 237/237/237
f 189/189/189 195/195/195 237/237/237
f 237/237/237 195/195/195 141/141/141
f 237/237/237 141/141/141 140/140/140
f 323/323/323 328/328/328 283/283/283
f 287/287/287 283/283/283 328/328/328
f 242/242/242 358/358/358 359/359/359
f 327/327/327 326/326/326 287/287/287
f 242/242/242 326/326/326 358/358/358
f 242/242/242 330/330/330 326/326/326
f 330/330/330 287/287/287 326/326/326
f 292/292/292 291/291/291 295/295/295
f 291/291/291 330/330/330 295/295/295
f 247/247/247 291/291/291 330/330/330
f 247/247/247 295/295/295 291/291/291
f 140/140/140 144/144/144 247/247/247
f 143/143/143 247/247/247 144/144/144
f 247/247/247 143/143/143 198/198/198
f 253/253/253 251/251/251 295/295/295
f 99/99/99 146/146/146 101/101/101
f 145/145/145 100/100/100 147/147/147
f 99/99/99 101/101/101 100/100/100
f 203/203/203 152/152/152 207/207/207
f 207/207/207 202/202/202 206/206/206
f 207/207/207 206/206/206 212/212/212
f 212/212/212 206/206/206 211/211/211
f 157/157/157 211/211/211 151/151/151
f 206/206/206 154/154/154 151/151/151
f 157/157/157 151/151/151 154/154/154
f 154/154/154 158/158/158 157/157/157
f 151/151/151 106/106/106 154/154/154
f 104/104/104 106/106/106 151/151/151
f 107/107/107 106/106/106 105/105/105
f 105/105/105 106/106/106 104/104/104
f 205/205/205 211/211/211 206/206/206
f 107/107/107 110/110/110 106/106/106
f 166/166/166 160/160/160 217/217/217
f 176/176/176 234/234/234 167/167/167
f 234/234/234 176/176/176 184/184/184
f 240/240/240 184/184/184 190/190/190
f 190/190/190 244/244/244 240/240/240
f 128/128/128 76/76/76 121/121/121
f 135/135/135 85/85/85 76/76/76
f 76/76/76 127/127/127 135/135/135
f 85/85/85 135/135/135 84/84/84
f 85/85/85 84/84/84 138/138/138
f 138/138/138 90/90/90 85/85/85
f 135/135/135 138/138/138 84/84/84
f 233/233/233 175/175/175 166/166/166
f 188/188/188 189/189/189 239/239/239
f 52/52/52 91/91/91 51/51/51
f 52/52/52 51/51/51 56/56/56
f 27/27/27 56/56/56 31/31/31
f 27/27/27 31/31/31 32/32/32
f 56/56/56 51/51/51 90/90/90
f 90/90/90 94/94/94 56/56/56
f 35/35/35 14/14/14 15/15/15
f 194/194/194 189/189/189 188/188/188
f 141/141/141 195/195/195 194/194/194
f 193/193/193 194/194/194 248/248/248
f 252/252/252 193/193/193 247/247/247
f 140/140/140 144/144/144 194/194/194
f 194/194/194 193/193/193 143/143/143
f 143/143/143 144/144/144 194/194/194
f 251/251/251 199/199/199 253/253/253
f 199/199/199 197/197/197 253/253/253
f 363/363/363 362/362/362 385/385/385
f 385/385/385 384/384/384 389/389/389
f 385/385/385 335/335/335 338/338/338
f 388/388/388 389/389/389 384/384/384
f 366/366/366 363/363/363 388/388/388
f 366/366/366 388/388/388 393/393/393
f 366/366/366 393/393/393 397/397/397
f 366/366/366 397/397/397 373/373/373
f 367/367/367 363/363/363 366/366/366
f 393/393/393 338/338/338 337/337/337
f 393/393/393 337/337/337 397/397/397
f 397/397/397 337/337/337 312/312/312
f 396/396/396 373/373/373 397/397/397
f 372/372/372 373/373/373 396/396/396
f 333/333/333 361/361/361 334/334/334
f 334/334/334 363/363/363 336/336/336
f 334/334/334 336/336/336 298/298/298
f 338/338/338 335/335/335 334/334/334
f 363/363/363 338/338/338 336/336/336
f 363/363/363 367/367/367 338/338/338
f 298/298/298 336/336/336 338/338/338
f 298/298/298 338/338/338 303/303/303
f 338/338/338 257/257/257 263/263/263
f 338/338/338 263/263/263 337/337/337
f 338/338/338 367/367/367 344/344/344
f 345/345/345 338/338/338 344/344/344
f 313/313/313 303/303/303 338/338/338
f 313/313/313 338/338/338 345/345/345
f 313/313/313 304/304/304 303/303/303
f 298/298/298 304/304/304 263/263/263
f 298/298/298 263/263/263 257/257/257
f 263/263/263 304/304/304 269/269/269
f 269/269/269 304/304/304 313/313/313
f 269/269/269 313/313/313 268/268/268
f 263/263/263 269/269/269 215/215/215
f 224/224/224 215/215/215 269/269/269
f 277/277/277 268/268/268 313/313/313
f 277/277/277 313/313/313 276/276/276
f 313/313/313 318/318/318 276/276/276
f 313/313/313 345/345/345 312/312/312
f 313/313/313 312/312/312 318/318/318
f 268/268/268 277/277/277 223/223/223
f 268/268/268 223/223/223 224/224/224
f 367/367/367 366/366/366 373/373/373
f 367/367/367 373/373/373 344/344/344
f 344/344/344 373/373/373 343/343/343
f 373/373/373 372/372/372 343/343/343
f 215/215/215 312/312/312 337/337/337
f 312/312/312 345/345/345 344/344/344
f 311/311/311 344/344/344 343/343/343
f 372/372/372 365/365/365 371/371/371
f 372/372/372 371/371/371 343/343/343
f 311/311/311 312/312/312 344/344/344
f 317/317/317 318/318/318 312/312/312
f 317/317/317 312/312/312 311/311/311
f 311/311/311 275/275/275 317/317/317
f 387/387/387 391/391/391 392/392/392
f 365/365/365 392/392/392 391/391/391
f 371/371/371 365/365/365 391/391/391
f 342/342/342 343/343/343 371/371/371
f 390/390/390 391/391/391 386/386/386
f 390/390/390 311/311/311 302/302/302
f 390/390/390 364/364/364 391/391/391
f 435/435/435 434/434/434 412/412/412
f 435/435/435 412/412/412 417/417/417
f 364/364/364 370/370/370 369/369/369
f 310/310/310 311/311/311 343/343/343
f 310/310/310 343/343/343 342/342/342
f 342/342/342 341/341/341 310/310/310
f 371/371/371 341/341/341 342/342/342
f 309/309/309 310/310/310 341/341/341
f 229/229/229 302/302/302 311/311/311
f 311/311/311 267/267/267 275/275/275
f 311/311/311 310/310/310 267/267/267
f 302/302/302 262/262/262 340/340/340
f 221/221/221 262/262/262 302/302/302
f 230/230/230 275/275/275 267/267/267
f 230/230/230 267/267/267 222/222/222
f 266/266/266 310/310/310 309/309/309
f 267/267/267 310/310/310 266/266/266
f 309/309/309 266/266/266 261/261/261
f 262/262/262 261/261/261 301/301/301
f 261/261/261 256/256/256 260/260/260
f 267/267/267 266/266/266 221/221/221
f 369/369/369 341/341/341 370/370/370
f 308/308/308 309/309/309 341/341/341
f 308/308/308 341/341/341 340/340/340
f 256/256/256 261/261/261 213/213/213
f 208/208/208 256/256/256 213/213/213
f 208/208/208 255/255/255 256/256/256
f 266/266/266 301/301/301 260/260/260
f 261/261/261 266/266/266 260/260/260
f 213/213/213 261/261/261 260/260/260
f 261/261/261 221/221/221 220/220/220
f 266/266/266 261/261/261 214/214/214
f 213/213/213 214/214/214 261/261/261
f 266/266/266 214/214/214 220/220/220
f 266/266/266 220/220/220 221/221/221
f 208/208/208 260/260/260 255/255/255
f 277/277/277 276/276/276 231/231/231
f 277/277/277 231/231/231 223/223/223
f 276/276/276 318/318/318 317/317/317
f 317/317/317 275/275/275 276/276/276
f 439/439/439 418/418/418 422/422/422
f 439/439/439 422/422/422 440/440/440
f 439/439/439 417/417/417 418/418/418
f 418/418/418 417/417/417 421/421/421
f 422/422/422 407/407/407 408/408/408
f 422/422/422 408/408/408 423/423/423
f 400/400/400 394/394/394 423/423/423
f 400/400/400 423/423/423 408/408/408
f 380/380/380 381/381/381 407/407/407
f 368/368/368 400/400/400 408/408/408
f 406/406/406 407/407/407 422/422/422
f 422/422/422 421/421/421 406/406/406
f 409/409/409 407/407/407 406/406/406
f 382/382/382 383/383/383 380/380/380
f 382/382/382 380/380/380 409/409/409
f 353/353/353 383/383/383 357/357/357
f 382/382/382 357/357/357 383/383/383
f 282/282/282 273/273/273 281/281/281
f 285/285/285 286/286/286 282/282/282
f 285/285/285 282/282/282 281/281/281
f 290/290/290 285/285/285 289/289/289
f 294/294/294 290/290/290 289/289/289
f 74/74/74 119/119/119 126/126/126
f 229/229/229 230/230/230 222/222/222
f 222/222/222 221/221/221 229/229/229
f 67/67/67 124/124/124 73/73/73
f 67/67/67 73/73/73 78/78/78
f 67/67/67 78/78/78 71/71/71
f 118/118/118 67/67/67 62/62/62
f 118/118/118 62/62/62 113/113/113
f 112/112/112 118/118/118 113/113/113
f 65/65/65 112/112/112 62/62/62
f 62/62/62 67/67/67 71/71/71
f 62/62/62 71/71/71 66/66/66
f 118/118/118 72/72/72 124/124/124
f 118/118/118 117/117/117 66/66/66
f 118/118/118 66/66/66 72/72/72
f 72/72/72 66/66/66 71/71/71
f 208/208/208 204/204/204 207/207/207
f 204/204/204 208/208/208 156/156/156
f 204/204/204 153/153/153 207/207/207
f 203/203/203 207/207/207 153/153/153
f 203/203/203 153/153/153 152/152/152
f 208/208/208 213/213/213 156/156/156
f 156/156/156 155/155/155 153/153/153
f 152/152/152 153/153/153 155/155/155
f 156/156/156 108/108/108 107/107/107
f 156/156/156 155/155/155 111/111/111
f 155/155/155 208/208/208 207/207/207
f 220/220/220 163/163/163 219/219/219
f 169/169/169 163/163/163 220/220/220
f 169/169/169 220/220/220 228/228/228
f 155/155/155 156/156/156 208/208/208
f 212/212/212 219/219/219 163/163/163
f 212/212/212 163/163/163 158/158/158
f 158/158/158 163/163/163 162/162/162
f 163/163/163 169/169/169 162/162/162
f 112/112/112 108/108/108 159/159/159
f 111/111/111 108/108/108 112/112/112
f 117/117/117 112/112/112 116/116/116
f 117/117/117 116/116/116 66/66/66
f 65/65/65 66/66/66 116/116/116
f 159/159/159 108/108/108 156/156/156
f 107/107/107 111/111/111 152/152/152
f 110/110/110 108/108/108 111/111/111
f 75/75/75 74/74/74 83/83/83
f 133/133/133 41/41/41 36/36/36
f 133/133/133 36/36/36 181/181/181
f 126/126/126 133/133/133 74/74/74
f 231/231/231 172/172/172 173/173/173
f 181/181/181 132/132/132 133/133/133
f 231/231/231 230/230/230 171/171/171
f 132/132/132 187/187/187 137/137/137
f 133/133/133 132/132/132 81/81/81
f 89/89/89 82/82/82 81/81/81
f 137/137/137 187/187/187 180/180/180
f 137/137/137 180/180/180 132/132/132
f 131/131/131 36/36/36 73/73/73
f 125/125/125 132/132/132 131/131/131
f 73/73/73 80/80/80 125/125/125
f 80/80/80 73/73/73 72/72/72
f 37/37/37 75/75/75 83/83/83
f 37/37/37 83/83/83 43/43/43
f 43/43/43 83/83/83 82/82/82
f 43/43/43 82/82/82 42/42/42
f 21/21/21 41/41/41 37/37/37
f 50/50/50 43/43/43 42/42/42
f 22/22/22 16/16/16 43/43/43
f 22/22/22 43/43/43 50/50/50
f 21/21/21 50/50/50 42/42/42
f 21/21/21 42/42/42 49/49/49
f 42/42/42 82/82/82 48/48/48
f 42/42/42 48/48/48 49/49/49
f 82/82/82 89/89/89 48/48/48
f 21/21/21 49/49/49 48/48/48
f 22/22/22 21/21/21 3/3/3
f 8/8/8 21/21/21 22/22/22
f 8/8/8 22/22/22 3/3/3
f 21/21/21 48/48/48 20/20/20
f 8/8/8 3/3/3 7/7/7
f 89/89/89 81/81/81 80/80/80
f 89/89/89 80/80/80 48/48/48
f 6/6/6 41/41/41 21/21/21
f 6/6/6 21/21/21 7/7/7
f 48/48/48 40/40/40 20/20/20
f 88/88/88 73/73/73 36/36/36
f 48/48/48 80/80/80 40/40/40
f 80/80/80 79/79/79 40/40/40
f 20/20/20 40/40/40 47/47/47
f 20/20/20 47/47/47 19/19/19
f 40/40/40 39/39/39 47/47/47
f 7/7/7 21/21/21 20/20/20
f 8/8/8 7/7/7 2/2/2
f 131/131/131 125/125/125 124/124/124
f 73/73/73 124/124/124 72/72/72
f 79/79/79 80/80/80 72/72/72
f 72/72/72 71/71/71 78/78/78
f 78/78/78 79/79/79 72/72/72
f 178/178/178 236/236/236 228/228/228
f 178/178/178 228/228/228 169/169/169
f 186/186/186 241/241/241 236/236/236
f 186/186/186 236/236/236 178/178/178
f 168/168/168 162/162/162 169/169/169
f 169/169/169 177/177/177 168/168/168
f 169/169/169 178/178/178 177/177/177
f 185/185/185 186/186/186 178/178/178
f 192/192/192 186/186/186 185/185/185
f 245/245/245 241/241/241 186/186/186
f 245/245/245 186/186/186 192/192/192
f 245/245/245 192/192/192 250/250/250
f 186/186/186 192/192/192 139/139/139
f 139/139/139 192/192/192 191/191/191
f 192/192/192 185/185/185 191/191/191
f 130/130/130 122/122/122 129/129/129
f 130/130/130 38/38/38 69/69/69
f 129/129/129 136/136/136 130/130/130
f 86/86/86 87/87/87 136/136/136
f 86/86/86 136/136/136 77/77/77
f 142/142/142 192/192/192 139/139/139
f 44/44/44 38/38/38 136/136/136
f 44/44/44 136/136/136 139/139/139
f 92/92/92 139/139/139 136/136/136
f 92/92/92 136/136/136 87/87/87
f 40/40/40 79/79/79 39/39/39
f 47/47/47 39/39/39 46/46/46
f 47/47/47 46/46/46 18/18/18
f 46/46/46 39/39/39 79/79/79
f 46/46/46 79/79/79 78/78/78
f 5/5/5 19/19/19 18/18/18
f 5/5/5 18/18/18 1/1/1
f 17/17/17 18/18/18 24/24/24
f 92/92/92 95/95/95 96/96/96
f 92/92/92 96/96/96 93/93/93
f 54/54/54 96/96/96 95/95/95
f 54/54/54 95/95/95 92/92/92
f 60/60/60 52/52/52 44/44/44
f 60/60/60 44/44/44 55/55/55
f 60/60/60 23/23/23 52/52/52
f 60/60/60 54/54/54 59/59/59
f 60/60/60 55/55/55 93/93/93
f 60/60/60 93/93/93 96/96/96
f 30/30/30 60/60/60 59/59/59
f 29/29/29 30/30/30 59/59/59
f 53/53/53 92/92/92 86/86/86
f 58/58/58 59/59/59 53/53/53
f 28/28/28 29/29/29 59/59/59
f 28/28/28 59/59/59 58/58/58
f 29/29/29 34/34/34 10/10/10
f 10/10/10 34/34/34 13/13/13
f 33/33/33 27/27/27 10/10/10
f 33/33/33 10/10/10 13/13/13
f 13/13/13 34/34/34 29/29/29
f 13/13/13 34/34/34 33/33/33
f 34/34/34 28/28/28 33/33/33
f 429/429/429 433/433/433 434/434/434
f 429/429/429 432/432/432 427/427/427
f 434/434/434 433/433/433 411/411/411
f 434/434/434 411/411/411 416/416/416
f 411/411/411 433/433/433 416/416/416
f 432/432/432 428/428/428 427/427/427
f 428/428/428 432/432/432 438/438/438
f 428/428/428 438/438/438 433/433/433
f 432/432/432 442/442/442 431/431/431
f 432/432/432 410/410/410 413/413/413
f 432/432/432 413/413/413 436/436/436
f 415/415/415 416/416/416 433/433/433
f 415/415/415 433/433/433 438/438/438
f 410/410/410 394/394/394 413/413/413
f 441/441/441 427/427/427 431/431/431
f 441/441/441 431/431/431 442/442/442
f 432/432/432 431/431/431 437/437/437
f 432/432/432 437/437/437 438/438/438
f 376/376/376 400/400/400 368/368/368
f 307/307/307 265/265/265 316/316/316
f 211/211/211 206/206/206 259/259/259
f 265/265/265 259/259/259 211/211/211
f 265/265/265 211/211/211 218/218/218
f 265/265/265 307/307/307 306/306/306
f 272/272/272 316/316/316 265/265/265
f 259/259/259 265/265/265 264/264/264
f 265/265/265 259/259/259 300/300/300
f 265/265/265 300/300/300 272/272/272
f 368/368/368 339/339/339 314/314/314
f 368/368/368 314/314/314 320/320/320
f 322/322/322 339/339/339 352/352/352
f 316/316/316 306/306/306 339/339/339
f 272/272/272 300/300/300 306/306/306
f 264/264/264 300/300/300 259/259/259
f 307/307/307 316/316/316 348/348/348
f 347/347/347 306/306/306 307/307/307
f 347/347/347 307/307/307 348/348/348
f 264/264/264 265/265/265 306/306/306
f 264/264/264 210/210/210 209/209/209
f 210/210/210 264/264/264 217/217/217
f 264/264/264 209/209/209 216/216/216
f 264/264/264 271/271/271 270/270/270
f 217/217/217 264/264/264 270/270/270
f 314/314/314 305/305/305 306/306/306
f 406/406/406 421/421/421 416/416/416
f 406/406/406 416/416/416 405/405/405
f 416/416/416 401/401/401 405/405/405
f 406/406/406 405/405/405 409/409/409
f 409/409/409 405/405/405 379/379/379
f 409/409/409 379/379/379 382/382/382
f 375/375/375 379/379/379 405/405/405
f 375/375/375 405/405/405 401/401/401
f 351/351/351 379/379/379 375/375/375
f 356/356/356 382/382/382 379/379/379
f 356/356/356 379/379/379 351/351/351
f 438/438/438 437/437/437 414/414/414
f 414/414/414 415/415/415 438/438/438
f 415/415/415 414/414/414 419/419/419
f 415/415/415 419/419/419 420/420/420
f 416/416/416 415/415/415 400/400/400
f 416/416/416 400/400/400 401/401/401
f 404/404/404 400/400/400 415/415/415
f 404/404/404 415/415/415 420/420/420
f 374/374/374 375/375/375 401/401/401
f 374/374/374 401/401/401 400/400/400
f 378/378/378 374/374/374 400/400/400
f 378/378/378 400/400/400 404/404/404
f 420/420/420 419/419/419 399/399/399
f 420/420/420 399/399/399 404/404/404
f 414/414/414 399/399/399 419/419/419
f 403/403/403 404/404/404 399/399/399
f 403/403/403 399/399/399 402/402/402
f 377/377/377 378/378/378 404/404/404
f 377/377/377 404/404/404 403/403/403
f 377/377/377 403/403/403 376/376/376
f 322/322/322 351/351/351 321/321/321
f 351/351/351 375/375/375 348/348/348
f 351/351/351 316/316/316 321/321/321
f 351/351/351 348/348/348 316/316/316
f 281/281/281 273/273/273 227/227/227
f 281/281/281 227/227/227 235/235/235
f 281/281/281 235/235/235 280/280/280
f 272/272/272 235/235/235 227/227/227
f 272/272/272 227/227/227 226/226/226
f 281/281/281 235/235/235 234/234/234
f 240/240/240 285/285/285 281/281/281
f 240/240/240 281/281/281 234/234/234
f 284/284/284 285/285/285 240/240/240
f 289/289/289 329/329/329 288/288/288
f 285/285/285 289/289/289 288/288/288
f 285/285/285 288/288/288 284/284/284
f 288/288/288 332/332/332 331/331/331
f 288/288/288 331/331/331 293/293/293
f 284/284/284 240/240/240 244/244/244
f 289/289/289 293/293/293 244/244/244
f 249/249/249 288/288/288 244/244/244
f 249/249/249 244/244/244 293/293/293
f 375/375/375 374/374/374 347/347/347
f 375/375/375 347/347/347 348/348/348
f 374/374/374 350/350/350 347/347/347
f 314/314/314 350/350/350 320/320/320
f 350/350/350 319/319/319 320/320/320
f 232/232/232 279/279/279 225/225/225
f 271/271/271 216/216/216 225/225/225
f 217/217/217 270/270/270 216/216/216
f 216/216/216 270/270/270 225/225/225
f 413/413/413 414/414/414 437/437/437
f 413/413/413 437/437/437 436/436/436
f 413/413/413 399/399/399 414/414/414
f 398/398/398 402/402/402 399/399/399
f 398/398/398 399/399/399 413/413/413
f 349/349/349 377/377/377 376/376/376
f 349/349/349 350/350/350 377/377/377
f 238/238/238 323/323/323 324/324/324
f 238/238/238 324/324/324 232/232/232
f 376/376/376 346/346/346 349/349/349
f 232/232/232 238/238/238 355/355/355
f 355/355/355 238/238/238 237/237/237
f 355/355/355 237/237/237 354/354/354
f 355/355/355 354/354/354 359/359/359
f 327/327/327 328/328/328 359/359/359
f 320/320/320 324/324/324 283/283/283
f 320/320/320 283/283/283 279/279/279
f 283/283/283 324/324/324 323/323/323
f 270/270/270 279/279/279 233/233/233
f 270/270/270 233/233/233 225/225/225
f 278/278/278 279/279/279 283/283/283
f 279/279/279 278/278/278 232/232/232
f 279/279/279 232/232/232 233/233/233
f 278/278/278 283/283/283 238/238/238
f 278/278/278 238/238/238 232/232/232
f 283/283/283 287/287/287 243/243/243
f 283/283/283 243/243/243 238/238/238
f 287/287/287 328/328/328 327/327/327
f 287/287/287 242/242/242 243/243/243
f 359/359/359 237/237/237 242/242/242
f 359/359/359 358/358/358 326/326/326
f 359/359/359 326/326/326 327/327/327
f 287/287/287 291/291/291 292/292/292
f 287/287/287 292/292/292 247/247/247
f 287/287/287 247/247/247 242/242/242
f 287/287/287 330/330/330 291/291/291
f 292/292/292 295/295/295 252/252/252
f 292/292/292 252/252/252 247/247/247
f 330/330/330 242/242/242 247/247/247
f 253/253/253 252/252/252 295/295/295
f 295/295/295 247/247/247 246/246/246
f 295/295/295 246/246/246 251/251/251
f 148/148/148 146/146/146 145/145/145
f 147/147/147 148/148/148 145/145/145
f 148/148/148 147/147/147 201/201/201
f 148/148/148 201/201/201 150/150/150
f 148/148/148 101/101/101 146/146/146
f 147/147/147 200/200/200 201/201/201
f 99/99/99 145/145/145 146/146/146
f 147/147/147 149/149/149 200/200/200
f 103/103/103 101/101/101 148/148/148
f 103/103/103 148/148/148 150/150/150
f 100/100/100 101/101/101 102/102/102
f 101/101/101 103/103/103 102/102/102
f 98/98/98 145/145/145 99/99/99
f 100/100/100 145/145/145 98/98/98
f 99/99/99 100/100/100 98/98/98
f 147/147/147 100/100/100 102/102/102
f 147/147/147 102/102/102 149/149/149
f 203/203/203 152/152/152 150/150/150
f 203/203/203 150/150/150 201/201/201
f 203/203/203 201/201/201 200/200/200
f 203/203/203 200/200/200 202/202/202
f 202/202/202 207/207/207 203/203/203
f 152/152/152 155/155/155 207/207/207
f 203/203/203 212/212/212 207/207/207
f 150/150/150 152/152/152 105/105/105
f 150/150/150 105/105/105 103/103/103
f 212/212/212 158/158/158 152/152/152
f 152/152/152 203/203/203 212/212/212
f 202/202/202 200/200/200 149/149/149
f 202/202/202 149/149/149 151/151/151
f 154/154/154 202/202/202 151/151/151
f 202/202/202 154/154/154 206/206/206
f 151/151/151 200/200/200 149/149/149
f 158/158/158 154/154/154 155/155/155
f 106/106/106 155/155/155 154/154/154
f 218/218/218 219/219/219 212/212/212
f 218/218/218 212/212/212 211/211/211
f 226/226/226 227/227/227 219/219/219
f 226/226/226 219/219/219 218/218/218
f 158/158/158 155/155/155 152/152/152
f 218/218/218 211/211/211 157/157/157
f 206/206/206 211/211/211 210/210/210
f 218/218/218 161/161/161 167/167/167
f 218/218/218 167/167/167 226/226/226
f 157/157/157 161/161/161 218/218/218
f 162/162/162 161/161/161 157/157/157
f 162/162/162 157/157/157 158/158/158
f 102/102/102 103/103/103 105/105/105
f 102/102/102 105/105/105 104/104/104
f 155/155/155 106/106/106 107/107/107
f 102/102/102 104/104/104 151/151/151
f 102/102/102 151/151/151 149/149/149
f 109/109/109 106/106/106 110/110/110
f 109/109/109 110/110/110 107/107/107
f 109/109/109 107/107/107 106/106/106
f 115/115/115 63/63/63 61/61/61
f 70/70/70 122/122/122 115/115/115
f 61/61/61 109/109/109 110/110/110
f 61/61/61 110/110/110 115/115/115
f 115/115/115 110/110/110 109/109/109
f 115/115/115 109/109/109 114/114/114
f 63/63/63 64/64/64 115/115/115
f 63/63/63 115/115/115 114/114/114
f 70/70/70 115/115/115 64/64/64
f 64/64/64 63/63/63 69/69/69
f 64/64/64 69/69/69 70/70/70
f 106/106/106 154/154/154 109/109/109
f 109/109/109 154/154/154 157/157/157
f 154/154/154 106/106/106 157/157/157
f 157/157/157 106/106/106 109/109/109
f 109/109/109 61/61/61 114/114/114
f 114/114/114 61/61/61 63/63/63
f 69/69/69 63/63/63 121/121/121
f 211/211/211 205/205/205 210/210/210
f 205/205/205 206/206/206 210/210/210
f 160/160/160 216/216/216 209/209/209
f 225/225/225 217/217/217 216/216/216
f 217/217/217 225/225/225 166/166/166
f 216/216/216 160/160/160 225/225/225
f 160/160/160 210/210/210 217/217/217
f 234/234/234 235/235/235 227/227/227
f 234/234/234 227/227/227 226/226/226
f 234/234/234 226/226/226 167/167/167
f 240/240/240 234/234/234 184/184/184
f 70/70/70 129/129/129 122/122/122
f 129/129/129 70/70/70 77/77/77
f 70/70/70 69/69/69 76/76/76
f 70/70/70 76/76/76 77/77/77
f 69/69/69 121/121/121 76/76/76
f 76/76/76 128/128/128 127/127/127
f 166/166/166 225/225/225 233/233/233
f 175/175/175 174/174/174 233/233/233
f 175/175/175 233/233/233 183/183/183
f 182/182/182 183/183/183 233/233/233
f 182/182/182 233/233/233 239/239/239
f 175/175/175 183/183/183 182/182/182
f 175/175/175 232/232/232 225/225/225
f 189/189/189 182/182/182 239/239/239
f 238/238/238 232/232/232 189/189/189
f 127/127/127 128/128/128 121/121/121
f 127/127/127 121/121/121 69/69/69
f 127/127/127 69/69/69 38/38/38
f 90/90/90 91/91/91 85/85/85
f 90/90/90 138/138/138 84/84/84
f 90/90/90 38/38/38 44/44/44
f 77/77/77 76/76/76 85/85/85
f 77/77/77 85/85/85 86/86/86
f 53/53/53 86/86/86 85/85/85
f 53/53/53 85/85/85 52/52/52
f 57/57/57 58/58/58 53/53/53
f 57/57/57 53/53/53 52/52/52
f 28/28/28 58/58/58 57/57/57
f 85/85/85 91/91/91 52/52/52
f 52/52/52 23/23/23 56/56/56
f 23/23/23 27/27/27 26/26/26
f 27/27/27 28/28/28 57/57/57
f 28/28/28 27/27/27 32/32/32
f 28/28/28 32/32/32 33/33/33
f 27/27/27 57/57/57 56/56/56
f 27/27/27 33/33/33 31/31/31
f 90/90/90 51/51/51 91/91/91
f 56/56/56 57/57/57 52/52/52
f 56/56/56 26/26/26 31/31/31
f 35/35/35 33/33/33 32/32/32
f 35/35/35 32/32/32 14/14/14
f 11/11/11 14/14/14 32/32/32
f 238/238/238 233/233/233 232/232/232
f 239/239/239 233/233/233 238/238/238
f 188/188/188 239/239/239 238/238/238
f 194/194/194 188/188/188 238/238/238
f 194/194/194 238/238/238 243/243/243
f 195/195/195 189/189/189 194/194/194
f 194/194/194 243/243/243 248/248/248
f 194/194/194 140/140/140 141/141/141
f 243/243/243 242/242/242 248/248/248
f 237/237/237 140/140/140 242/242/242
f 248/248/248 242/242/242 247/247/247
f 248/248/248 247/247/247 193/193/193
f 198/198/198 193/193/193 194/194/194
f 143/143/143 193/193/193 198/198/198
f 247/247/247 242/242/242 140/140/140
f 143/143/143 247/247/247 242/242/242
f 197/197/197 246/246/246 247/247/247
f 197/197/197 247/247/247 198/198/198
f 199/199/199 251/251/251 246/246/246
f 199/199/199 246/246/246 197/197/197
f 198/198/198 193/193/193 252/252/252
f 197/197/197 252/252/252 253/253/253
f 198/198/198 252/252/252 197/197/197
