# 由 henjicc/yipiantian 的 lingcao_shengling_sprout 转换而来（见 manifest.json）
mtllib lingcao_shengling_sprout.mtl
o lingcao_shengling_sprout
v -0.00314 0.00053 0.00129
v -0.00314 0.00053 0.00129
v -0.00314 0.00053 0.00129
v -0.00314 0.00053 0.00129
v -0.00314 0.00053 0.00129
v -0.00901 0.00191 -0.00318
v -0.00901 0.00191 -0.00318
v -0.00901 0.00191 -0.00318
v 0.00181 0.00182 -0.00737
v 0.00181 0.00182 -0.00737
v 0.00181 0.00182 -0.00737
v 0.00434 0.00110 -0.00034
v 0.00434 0.00110 -0.00034
v 0.00434 0.00110 -0.00034
v 0.00328 0.00128 0.00806
v 0.00328 0.00128 0.00806
v 0.00328 0.00128 0.00806
v 0.00795 0.00618 -0.00447
v 0.00795 0.00618 -0.00447
v 0.00795 0.00618 -0.00447
v 0.00795 0.00618 -0.00447
v 0.00795 0.00618 -0.00447
v -0.00750 0.00627 -0.01130
v -0.00750 0.00627 -0.01130
v -0.00750 0.00627 -0.01130
v -0.00367 0.00612 0.01278
v -0.00367 0.00612 0.01278
v -0.00367 0.00612 0.01278
v 0.01185 0.00592 0.00453
v 0.01185 0.00592 0.00453
v 0.01185 0.00592 0.00453
v 0.01185 0.00592 0.00453
v -0.01091 0.00563 0.00338
v -0.01091 0.00563 0.00338
v -0.01091 0.00563 0.00338
v -0.01091 0.00563 0.00338
v 0.00564 0.00898 0.01450
v 0.00564 0.00898 0.01450
v 0.00564 0.00898 0.01450
v 0.00051 0.00903 -0.01338
v -0.01430 0.01094 -0.00490
v -0.01430 0.01094 -0.00490
v -0.01430 0.01094 -0.00490
v -0.01430 0.01094 -0.00490
v -0.01430 0.01094 -0.00490
v 0.01135 0.01410 -0.00417
v 0.01135 0.01410 -0.00417
v 0.01135 0.01410 -0.00417
v -0.01421 0.01387 0.00282
v -0.01421 0.01387 0.00282
v -0.01421 0.01387 0.00282
v -0.00906 0.01420 0.01046
v -0.00906 0.01420 0.01046
v 0.00834 0.01642 -0.00371
v 0.00834 0.01642 -0.00371
v 0.00834 0.01642 -0.00371
v 0.00834 0.01642 -0.00371
v 0.01439 0.01457 0.00314
v 0.01439 0.01457 0.00314
v -0.01066 0.02127 0.00282
v -0.01066 0.02127 0.00282
v -0.01066 0.02127 0.00282
v -0.01066 0.02127 0.00282
v -0.01066 0.02127 0.00282
v -0.01066 0.02127 0.00282
v -0.01066 0.02127 0.00282
v -0.00019 0.01547 -0.00431
v -0.00019 0.01547 -0.00431
v -0.00019 0.01547 -0.00431
v -0.00019 0.01547 -0.00431
v -0.00789 0.02587 -0.01463
v -0.00789 0.02587 -0.01463
v -0.00789 0.02587 -0.01463
v -0.00789 0.02587 -0.01463
v 0.00333 0.02430 -0.01528
v 0.00333 0.02430 -0.01528
v 0.00333 0.02430 -0.01528
v 0.00570 0.01595 -0.00140
v 0.00570 0.01595 -0.00140
v 0.00570 0.01595 -0.00140
v 0.00570 0.01595 -0.00140
v 0.00720 0.02607 -0.00936
v 0.00720 0.02607 -0.00936
v 0.00720 0.02607 -0.00936
v 0.00720 0.02607 -0.00936
v -0.01205 0.03194 -0.00373
v -0.01205 0.03194 -0.00373
v -0.01205 0.03194 -0.00373
v -0.01205 0.03194 -0.00373
v -0.01205 0.03194 -0.00373
v -0.00066 0.02368 -0.00259
v -0.00066 0.02368 -0.00259
v -0.00066 0.02368 -0.00259
v -0.00066 0.02368 -0.00259
v 0.01399 0.03129 0.01090
v 0.01399 0.03129 0.01090
v -0.01287 0.03178 -0.00944
v -0.01287 0.03178 -0.00944
v -0.01287 0.03178 -0.00944
v -0.01287 0.03178 -0.00944
v -0.01287 0.03178 -0.00944
v 0.00650 0.03819 0.02022
v 0.00650 0.03819 0.02022
v 0.00650 0.03819 0.02022
v 0.00023 0.03218 -0.01159
v 0.00023 0.03218 -0.01159
v 0.00023 0.03218 -0.01159
v 0.00023 0.03218 -0.01159
v 0.00678 0.02151 0.00542
v 0.00678 0.02151 0.00542
v -0.00137 0.03387 0.01844
v -0.00137 0.03387 0.01844
v -0.00137 0.03387 0.01844
v -0.00137 0.03387 0.01844
v -0.00891 0.03616 0.01239
v -0.00891 0.03616 0.01239
v -0.00891 0.03616 0.01239
v 0.01257 0.03133 0.00239
v 0.01257 0.03133 0.00239
v 0.01257 0.03133 0.00239
v -0.00506 0.02501 0.00039
v -0.00506 0.02501 0.00039
v -0.00506 0.02501 0.00039
v -0.00506 0.02501 0.00039
v -0.00506 0.02501 0.00039
v -0.00703 0.03363 -0.00658
v -0.00703 0.03363 -0.00658
v -0.00703 0.03363 -0.00658
v -0.00703 0.03363 -0.00658
v -0.00703 0.03363 -0.00658
v -0.00703 0.03363 -0.00658
v 0.00138 0.08224 0.02235
v 0.00138 0.08224 0.02235
v 0.00138 0.08224 0.02235
v 0.00585 0.03737 0.01161
v 0.00585 0.03737 0.01161
v -0.00821 0.03605 0.00431
v -0.00821 0.03605 0.00431
v -0.00821 0.03605 0.00431
v -0.00821 0.03605 0.00431
v -0.00644 0.03306 -0.01817
v -0.00644 0.03306 -0.01817
v -0.00644 0.03306 -0.01817
v 0.00469 0.03655 -0.02200
v 0.00469 0.03655 -0.02200
v 0.00469 0.03655 -0.02200
v 0.00235 0.03991 -0.01654
v 0.00235 0.03991 -0.01654
v 0.00482 0.04710 0.02505
v 0.00482 0.04710 0.02505
v 0.00482 0.04710 0.02505
v 0.01517 0.04343 0.00497
v 0.01517 0.04343 0.00497
v -0.00416 0.03604 0.00592
v -0.00416 0.03604 0.00592
v 0.00979 0.03784 -0.01940
v 0.00979 0.03784 -0.01940
v 0.01700 0.04078 0.00466
v 0.01700 0.04078 0.00466
v 0.01700 0.04078 0.00466
v 0.01700 0.04078 0.00466
v 0.00043 0.05467 0.00958
v 0.00043 0.05467 0.00958
v -0.01145 0.04889 0.00530
v -0.01145 0.04889 0.00530
v -0.00117 0.04161 -0.02485
v -0.00117 0.04161 -0.02485
v 0.00077 0.04462 0.02651
v 0.00077 0.04462 0.02651
v 0.00077 0.04462 0.02651
v -0.00335 0.05941 -0.01907
v -0.00335 0.05941 -0.01907
v -0.00335 0.05941 -0.01907
v -0.00335 0.05941 -0.01907
v -0.00523 0.04311 -0.03079
v -0.00523 0.04311 -0.03079
v 0.01715 0.04275 0.01605
v 0.01715 0.04275 0.01605
v 0.01715 0.04275 0.01605
v 0.01715 0.04275 0.01605
v 0.01345 0.04223 -0.02713
v 0.01345 0.04223 -0.02713
v 0.01345 0.04223 -0.02713
v 0.01345 0.04223 -0.02713
v 0.01345 0.04223 -0.02713
v 0.01345 0.04223 -0.02713
v 0.01910 0.04867 0.02617
v 0.01910 0.04867 0.02617
v 0.01910 0.04867 0.02617
v -0.01736 0.05141 -0.02157
v -0.01736 0.05141 -0.02157
v -0.01736 0.05141 -0.02157
v 0.00442 0.04631 -0.04072
v 0.00442 0.04631 -0.04072
v 0.00442 0.04631 -0.04072
v 0.00442 0.04631 -0.04072
v -0.01886 0.04717 -0.00190
v -0.01886 0.04717 -0.00190
v -0.01886 0.04717 -0.00190
v -0.01886 0.04717 -0.00190
v -0.01129 0.04971 -0.02245
v -0.01129 0.04971 -0.02245
v 0.01704 0.04074 -0.04685
v 0.01704 0.04074 -0.04685
v 0.01704 0.04074 -0.04685
v 0.01704 0.04074 -0.04685
v 0.01704 0.04074 -0.04685
v 0.01744 0.04120 -0.03488
v 0.01744 0.04120 -0.03488
v 0.01744 0.04120 -0.03488
v -0.00368 0.06553 -0.02534
v -0.00368 0.06553 -0.02534
v -0.00368 0.06553 -0.02534
v -0.00368 0.06553 -0.02534
v -0.00368 0.06553 -0.02534
v 0.01279 0.04354 -0.05631
v 0.01279 0.04354 -0.05631
v -0.00894 0.06769 -0.02441
v -0.00894 0.06769 -0.02441
v -0.00894 0.06769 -0.02441
v 0.01595 0.04819 -0.04171
v 0.01595 0.04819 -0.04171
v 0.01595 0.04819 -0.04171
v 0.01595 0.04819 -0.04171
v 0.01595 0.04819 -0.04171
v 0.01218 0.05052 0.03059
v 0.01218 0.05052 0.03059
v 0.01218 0.05052 0.03059
v 0.01218 0.05052 0.03059
v 0.01218 0.05052 0.03059
v 0.01262 0.05431 -0.05652
v -0.00644 0.06033 0.02384
v -0.00644 0.06033 0.02384
v 0.00481 0.05717 0.04988
v 0.00481 0.05717 0.04988
v 0.00481 0.05717 0.04988
v -0.01942 0.05587 -0.00367
v -0.01942 0.05587 -0.00367
v -0.01709 0.06135 -0.01214
v -0.01709 0.06135 -0.01214
v -0.01709 0.06135 -0.01214
v -0.00010 0.06124 -0.02819
v 0.02736 0.05157 0.00769
v 0.02736 0.05157 0.00769
v 0.02736 0.05157 0.00769
v 0.02736 0.05157 0.00769
v -0.00542 0.08684 0.02110
v -0.00542 0.08684 0.02110
v 0.02141 0.05417 0.00807
v -0.00214 0.05701 -0.05940
v -0.00214 0.05701 -0.05940
v -0.00214 0.05701 -0.05940
v 0.00498 0.05216 -0.06672
v 0.00498 0.05216 -0.06672
v 0.00570 0.05427 0.01991
v 0.00570 0.05427 0.01991
v 0.00570 0.05427 0.01991
v 0.01839 0.05178 0.04123
v 0.01839 0.05178 0.04123
v 0.01839 0.05178 0.04123
v -0.02404 0.05551 -0.00253
v -0.02404 0.05551 -0.00253
v -0.02404 0.05551 -0.00253
v 0.03212 0.05987 0.02108
v 0.03266 0.05910 0.01259
v 0.03266 0.05910 0.01259
v 0.03266 0.05910 0.01259
v 0.03266 0.05910 0.01259
v 0.01021 0.05793 0.04747
v 0.01021 0.05793 0.04747
v 0.01021 0.05793 0.04747
v 0.01021 0.05793 0.04747
v -0.01227 0.06528 -0.03819
v -0.01227 0.06528 -0.03819
v 0.04043 0.06113 0.02311
v 0.04043 0.06113 0.02311
v 0.04043 0.06113 0.02311
v -0.00608 0.07076 -0.02768
v -0.00608 0.07076 -0.02768
v -0.00608 0.07076 -0.02768
v -0.00608 0.07076 -0.02768
v -0.00348 0.06059 -0.07076
v -0.00348 0.06059 -0.07076
v 0.02962 0.06680 0.04964
v -0.02688 0.07192 -0.03204
v 0.00413 0.06448 -0.06364
v -0.01702 0.07064 -0.04410
v -0.01702 0.07064 -0.04410
v -0.01702 0.07064 -0.04410
v 0.01336 0.06613 0.05885
v 0.01336 0.06613 0.05885
v 0.01336 0.06613 0.05885
v -0.01316 0.07845 0.00977
v -0.01260 0.06779 0.02605
v -0.01260 0.06779 0.02605
v -0.01260 0.06779 0.02605
v 0.01110 0.06771 0.03157
v 0.01110 0.06771 0.03157
v 0.01110 0.06771 0.03157
v 0.00056 0.07215 -0.04357
v 0.00056 0.07215 -0.04357
v 0.00056 0.07215 -0.04357
v 0.00056 0.07215 -0.04357
v 0.02033 0.06976 0.02668
v 0.02033 0.06976 0.02668
v -0.03480 0.07204 -0.01192
v -0.03480 0.07204 -0.01192
v -0.03480 0.07204 -0.01192
v 0.00004 0.07969 0.05507
v -0.03117 0.07081 -0.00970
v -0.03117 0.07081 -0.00970
v -0.03117 0.07081 -0.00970
v -0.01315 0.06997 -0.06923
v -0.01315 0.06997 -0.06923
v -0.01315 0.06997 -0.06923
v 0.04199 0.06506 0.04074
v 0.04199 0.06506 0.04074
v -0.02070 0.07316 0.00445
v -0.02070 0.07316 0.00445
v -0.02070 0.07316 0.00445
v -0.01533 0.07600 -0.02712
v -0.01533 0.07600 -0.02712
v -0.01533 0.07600 -0.02712
v -0.00374 0.07685 -0.05518
v -0.00374 0.07685 -0.05518
v 0.03433 0.07212 0.03540
v 0.03433 0.07212 0.03540
v -0.00068 0.08400 0.02107
v -0.00068 0.08400 0.02107
v -0.00068 0.08400 0.02107
v -0.00068 0.08400 0.02107
v 0.02342 0.06777 0.05987
v 0.02342 0.06777 0.05987
v 0.02342 0.06777 0.05987
v 0.02342 0.06777 0.05987
v 0.02342 0.06777 0.05987
v 0.01879 0.07311 0.06647
v 0.01879 0.07311 0.06647
v -0.00742 0.08704 0.04084
v -0.00742 0.08704 0.04084
v -0.00742 0.08704 0.04084
v -0.01704 0.07238 -0.05202
v -0.01704 0.07238 -0.05202
v -0.01704 0.07238 -0.05202
v 0.03775 0.06844 0.04835
v 0.03775 0.06844 0.04835
v 0.03775 0.06844 0.04835
v 0.03775 0.06844 0.04835
v -0.01005 0.07792 -0.03840
v -0.01005 0.07792 -0.03840
v -0.01005 0.07792 -0.03840
v -0.01005 0.07792 -0.03840
v -0.01005 0.07792 -0.03840
v -0.01005 0.07792 -0.03840
v 0.02187 0.07236 0.05427
v 0.02187 0.07236 0.05427
v 0.02187 0.07236 0.05427
v 0.02187 0.07236 0.05427
v -0.01063 0.09122 0.04515
v -0.01063 0.09122 0.04515
v -0.02390 0.07784 -0.06576
v -0.02390 0.07784 -0.06576
v -0.02390 0.07784 -0.06576
v -0.02390 0.07784 -0.06576
v 0.01882 0.07400 0.04824
v 0.01882 0.07400 0.04824
v -0.01908 0.08545 0.00970
v -0.01908 0.08545 0.00970
v -0.01908 0.08545 0.00970
v -0.02691 0.08641 0.01051
v -0.02691 0.08641 0.01051
v -0.02691 0.08641 0.01051
v -0.02691 0.08641 0.01051
v -0.00233 0.09467 0.03108
v -0.00233 0.09467 0.03108
v -0.00233 0.09467 0.03108
v -0.00233 0.09467 0.03108
v -0.04034 0.08086 -0.02506
v -0.04034 0.08086 -0.02506
v 0.01142 0.07944 0.06886
v 0.01142 0.07944 0.06886
v 0.01142 0.07944 0.06886
v 0.01142 0.07944 0.06886
v 0.01142 0.07944 0.06886
v 0.01661 0.08037 0.06204
v 0.01661 0.08037 0.06204
v -0.03727 0.08453 -0.04838
v -0.03727 0.08453 -0.04838
v -0.01577 0.08048 -0.04819
v -0.02820 0.08606 -0.04124
v -0.02820 0.08606 -0.04124
v -0.03061 0.08250 -0.05861
v -0.03061 0.08250 -0.05861
v -0.04173 0.08267 -0.03718
v -0.04173 0.08267 -0.03718
v -0.04173 0.08267 -0.03718
v -0.01881 0.09299 0.03723
v -0.03021 0.09866 0.02476
v -0.03021 0.09866 0.02476
v -0.03021 0.09866 0.02476
v -0.03021 0.09866 0.02476
v 0.00254 0.08877 0.06829
v 0.00254 0.08877 0.06829
v 0.00436 0.09688 0.04864
v 0.00436 0.09688 0.04864
v 0.00436 0.09688 0.04864
v -0.00616 0.09557 0.06355
v -0.00616 0.09557 0.06355
v -0.02169 0.09592 0.01893
v -0.02169 0.09592 0.01893
v -0.02169 0.09592 0.01893
v -0.00830 0.09374 0.03014
v -0.00830 0.09374 0.03014
v 0.00373 0.09570 0.05957
v 0.00373 0.09570 0.05957
v 0.00373 0.09570 0.05957
v -0.00582 0.09860 0.03818
v -0.00582 0.09860 0.03818
v -0.00582 0.09860 0.03818
v -0.01778 0.10259 0.03811
v -0.01778 0.10259 0.03811
v -0.01076 0.10075 0.04709
v -0.01076 0.10075 0.04709
v -0.01076 0.10075 0.04709
v -0.02184 0.10343 0.05178
v -0.02184 0.10343 0.05178
v -0.02184 0.10343 0.05178
v -0.02184 0.10343 0.05178
v -0.02608 0.10364 0.04104
v -0.02608 0.10364 0.04104
vt 0.31768 0.97373
vt 0.68061 0.65039
vt 0.95091 0.41974
vt 0.95880 0.50660
vt 0.96239 0.32445
vt 0.67113 0.68034
vt 0.94853 0.30017
vt 0.97830 0.48862
vt 0.65434 0.64072
vt 0.95334 0.34563
vt 0.98350 0.31388
vt 0.29416 0.95883
vt 0.67613 0.63192
vt 0.96600 0.36017
vt 0.32479 0.94320
vt 0.80150 0.01129
vt 0.92926 0.42259
vt 0.07375 0.95552
vt 0.27322 0.94657
vt 0.63268 0.61308
vt 0.95249 0.76325
vt 0.97580 0.33535
vt 0.57571 0.97999
vt 0.61990 0.68711
vt 0.97735 0.26751
vt 0.44786 0.95794
vt 0.77690 0.03757
vt 0.91020 0.38917
vt 0.28405 0.91415
vt 0.90731 0.15054
vt 0.94347 0.23526
vt 0.97373 0.75081
vt 0.90399 0.53849
vt 0.92571 0.29649
vt 0.94877 0.37753
vt 0.95613 0.47079
vt 0.32615 0.89172
vt 0.81806 0.05601
vt 0.94399 0.11982
vt 0.61137 0.65014
vt 0.53815 0.98784
vt 0.67683 0.52209
vt 0.93968 0.25652
vt 0.95094 0.68949
vt 0.98740 0.44170
vt 0.54573 0.52951
vt 0.92858 0.20475
vt 0.95305 0.72682
vt 0.90501 0.50298
vt 0.91988 0.69739
vt 0.95194 0.43103
vt 0.48229 0.99315
vt 0.92142 0.34233
vt 0.09914 0.94071
vt 0.55682 0.54033
vt 0.83211 0.33388
vt 0.94124 0.73683
vt 0.87987 0.11986
vt 0.95159 0.20290
vt 0.01564 0.97340
vt 0.28338 0.01225
vt 0.35980 0.06542
vt 0.51338 0.99009
vt 0.88993 0.48763
vt 0.90632 0.67712
vt 0.95196 0.33357
vt 0.01224 0.43022
vt 0.58106 0.60515
vt 0.85986 0.33805
vt 0.87293 0.32726
vt 0.53967 0.68924
vt 0.57205 0.94370
vt 0.67683 0.49281
vt 0.69151 0.43188
vt 0.07790 0.89180
vt 0.26330 0.12077
vt 0.54205 0.64111
vt 0.03353 0.42104
vt 0.54962 0.55715
vt 0.74477 0.04836
vt 0.84471 0.35122
vt 0.09356 0.89292
vt 0.27174 0.09186
vt 0.54431 0.61391
vt 0.84393 0.27934
vt 0.30801 0.01904
vt 0.35254 0.03158
vt 0.79768 0.56812
vt 0.89012 0.73974
vt 0.92187 0.61876
vt 0.00626 0.39624
vt 0.07957 0.40364
vt 0.54775 0.58551
vt 0.64174 0.50071
vt 0.86398 0.43377
vt 0.89795 0.03631
vt 0.57493 0.73020
vt 0.64629 0.44673
vt 0.64792 0.51124
vt 0.90267 0.72496
vt 0.95109 0.62753
vt 0.81306 0.20729
vt 0.90818 0.40790
vt 0.92384 0.01579
vt 0.00178 0.55698
vt 0.18061 0.84222
vt 0.50046 0.60690
vt 0.87895 0.25569
vt 0.50793 0.56361
vt 0.72769 0.00700
vt 0.00237 0.66345
vt 0.12331 0.35791
vt 0.44786 0.91406
vt 0.77579 0.16908
vt 0.01691 0.69763
vt 0.13025 0.39135
vt 0.49338 0.93444
vt 0.46874 0.52497
vt 0.86964 0.04119
vt 0.94937 0.13093
vt 0.03523 0.95962
vt 0.04090 0.46965
vt 0.05769 0.39485
vt 0.35128 0.06047
vt 0.71903 0.47707
vt 0.33618 0.00717
vt 0.35980 0.04640
vt 0.64060 0.47709
vt 0.70261 0.06375
vt 0.81115 0.61072
vt 0.83868 0.73842
vt 0.03422 0.08915
vt 0.74436 0.17495
vt 0.76511 0.63416
vt 0.34279 0.58518
vt 0.72548 0.10415
vt 0.02675 0.91646
vt 0.10032 0.45511
vt 0.14145 0.41811
vt 0.51320 0.91886
vt 0.49203 0.68510
vt 0.66822 0.39238
vt 0.68759 0.38740
vt 0.26330 0.08584
vt 0.46870 0.63869
vt 0.68293 0.34359
vt 0.18551 0.87822
vt 0.86509 0.19989
vt 0.20586 0.50225
vt 0.60261 0.93227
vt 0.80123 0.25217
vt 0.39289 0.51597
vt 0.77602 0.59699
vt 0.06662 0.30932
vt 0.12175 0.47448
vt 0.47459 0.61118
vt 0.83475 0.20769
vt 0.35575 0.63656
vt 0.42696 0.51059
vt 0.78413 0.62179
vt 0.87181 0.00888
vt 0.01983 0.28602
vt 0.07236 0.26894
vt 0.17685 0.41813
vt 0.20276 0.38370
vt 0.44179 0.66726
vt 0.66195 0.34133
vt 0.10630 0.31810
vt 0.21262 0.48290
vt 0.78745 0.24471
vt 0.00750 0.55064
vt 0.37733 0.59472
vt 0.52183 0.49111
vt 0.73309 0.22934
vt 0.39837 0.69513
vt 0.63511 0.31676
vt 0.29629 0.62612
vt 0.87181 0.39045
vt 0.88795 0.00649
vt 0.95126 0.05385
vt 0.02159 0.00130
vt 0.42372 0.60738
vt 0.67483 0.05773
vt 0.69633 0.31456
vt 0.81917 0.16103
vt 0.83094 0.14570
vt 0.22048 0.85834
vt 0.23962 0.63309
vt 0.94925 0.01194
vt 0.50490 0.72856
vt 0.56676 0.38285
vt 0.89834 0.64122
vt 0.35465 0.67431
vt 0.37238 0.91772
vt 0.37622 0.65677
vt 0.66863 0.25826
vt 0.19042 0.81663
vt 0.38231 0.06956
vt 0.56108 0.45851
vt 0.86733 0.67784
vt 0.52133 0.71274
vt 0.59572 0.35627
vt 0.02159 0.06542
vt 0.34466 0.94515
vt 0.39224 0.91756
vt 0.68941 0.12624
vt 0.72205 0.21659
vt 0.03145 0.03322
vt 0.34516 0.87857
vt 0.71835 0.28387
vt 0.00178 0.50552
vt 0.12922 0.77563
vt 0.28615 0.59512
vt 0.40450 0.98380
vt 0.48706 0.49737
vt 0.40207 0.87198
vt 0.71072 0.19250
vt 0.30860 0.73737
vt 0.53864 0.01721
vt 0.83504 0.59680
vt 0.04223 0.90348
vt 0.41422 0.91858
vt 0.47106 0.91559
vt 0.67109 0.12187
vt 0.83148 0.10348
vt 0.27807 0.86763
vt 0.59080 0.95887
vt 0.82780 0.27803
vt 0.89526 0.34026
vt 0.97625 0.01322
vt 0.45910 0.86710
vt 0.00999 0.56635
vt 0.17455 0.27033
vt 0.08308 0.47952
vt 0.09781 0.17314
vt 0.12087 0.94443
vt 0.22532 0.81137
vt 0.43691 0.09438
vt 0.27071 0.77820
vt 0.48658 0.06786
vt 0.80056 0.67432
vt 0.10987 0.79997
vt 0.04421 0.04401
vt 0.28830 0.71861
vt 0.34874 0.47189
vt 0.77765 0.56450
vt 0.35047 0.42929
vt 0.70218 0.35674
vt 0.33827 0.48335
vt 0.32206 0.69450
vt 0.60418 0.17978
vt 0.98883 0.89951
vt 0.46432 0.81244
vt 0.63862 0.13239
vt 0.30822 0.58017
vt 0.68849 0.58702
vt 0.73242 0.20202
vt 0.11269 0.88224
vt 0.16525 0.61427
vt 0.29232 0.84920
vt 0.25301 0.83064
vt 0.49718 0.43768
vt 0.64664 0.30067
vt 0.23359 0.71933
vt 0.04892 0.09146
vt 0.30660 0.45961
vt 0.78742 0.82588
vt 0.88819 0.54188
vt 0.07901 0.50597
vt 0.11451 0.89681
vt 0.33043 0.87513
vt 0.60261 0.88785
vt 0.39807 0.69714
vt 0.53218 0.25689
vt 0.04415 0.13766
vt 0.20946 0.75439
vt 0.84538 0.57551
vt 0.26255 0.59224
vt 0.42977 0.48297
vt 0.72428 0.29008
vt 0.81922 0.59654
vt 0.53160 0.78285
vt 0.57613 0.11374
vt 0.08927 0.67710
vt 0.45680 0.29438
vt 0.52566 0.83120
vt 0.38633 0.70669
vt 0.49435 0.24183
vt 0.51687 0.25429
vt 0.03124 0.50418
vt 0.07371 0.60427
vt 0.17420 0.91711
vt 0.29947 0.39151
vt 0.02768 0.49214
vt 0.24068 0.24007
vt 0.56361 0.47118
vt 0.22910 0.58142
vt 0.69311 0.67163
vt 0.73156 0.97102
vt 0.02254 0.76448
vt 0.39939 0.93020
vt 0.56302 0.93127
vt 0.96367 0.95371
vt 0.24966 0.54398
vt 0.76599 0.92464
vt 0.35963 0.84793
vt 0.42860 0.38253
vt 0.64082 0.24354
vt 0.17118 0.07131
vt 0.32820 0.82837
vt 0.53748 0.10567
vt 0.63795 0.26963
vt 0.52644 0.12252
vt 0.60615 0.78724
vt 0.98883 0.85113
vt 0.14021 0.73913
vt 0.84220 0.65299
vt 0.26460 0.35772
vt 0.31281 0.31499
vt 0.39473 0.18745
vt 0.36857 0.74072
vt 0.58868 0.04420
vt 0.96367 0.84451
vt 0.59806 0.86930
vt 0.90838 0.96619
vt 0.69120 0.87888
vt 0.88271 0.62023
vt 0.02208 0.08176
vt 0.07715 0.06942
vt 0.25327 0.46327
vt 0.68970 0.37191
vt 0.03584 0.63922
vt 0.21017 0.88043
vt 0.36329 0.98329
vt 0.67305 0.39629
vt 0.92317 0.59146
vt 0.23345 0.90838
vt 0.67809 0.37618
vt 0.00114 0.40828
vt 0.25237 0.12231
vt 0.45706 0.48120
vt 0.48607 0.19356
vt 0.50812 0.18685
vt 0.94832 0.87763
vt 0.08781 0.70639
vt 0.37925 0.92822
vt 0.64769 0.88648
vt 0.85823 0.65545
vt 0.21650 0.61016
vt 0.43403 0.93020
vt 0.62777 0.00164
vt 0.82666 0.50156
vt 0.94497 0.89440
vt 0.95226 0.90520
vt 0.39251 0.98631
vt 0.63234 0.78440
vt 0.63834 0.97373
vt 0.88783 0.58759
vt 0.27246 0.09711
vt 0.47465 0.47767
vt 0.46722 0.13548
vt 0.63338 0.84417
vt 0.79734 0.91134
vt 0.97716 0.83302
vt 0.65611 0.75875
vt 0.67502 0.96813
vt 0.33378 0.35437
vt 0.41264 0.13866
vt 0.75300 0.27989
vt 0.35756 0.26788
vt 0.39473 0.11910
vt 0.65957 0.06793
vt 0.78316 0.27796
vt 0.04236 0.01382
vt 0.04264 0.71080
vt 0.72294 0.41427
vt 0.80965 0.69970
vt 0.38191 0.33248
vt 0.40563 0.84596
vt 0.11264 0.02936
vt 0.24065 0.93868
vt 0.63960 0.06216
vt 0.67305 0.37048
vt 0.95215 0.52073
vt 0.66485 0.83562
vt 0.92581 0.53658
vt 0.38709 0.21816
vt 0.82898 0.80510
vt 0.88840 0.90338
vt 0.44019 0.76724
vt 0.87927 0.82643
vt 0.41171 0.17668
vt 0.80504 0.87249
vt 0.37413 0.27089
vt 0.44032 0.82581
vt 0.86537 0.76377
vt 0.32211 0.12980
vt 0.09806 0.34845
vt 0.38213 0.18771
vt 0.65957 0.00202
vt 0.82613 0.33721
vt 0.18824 0.00151
vt 0.60039 0.06366
vt 0.71127 0.51929
vt 0.78125 0.80878
vt 0.88601 0.47397
vt 0.25191 0.01263
vt 0.55249 0.06503
vt 0.40156 0.37618
vt 0.67683 0.01242
vt 0.78699 0.32501
vt 0.41465 0.44899
vt 0.73855 0.39951
vt 0.56346 0.10029
vt 0.72729 0.55892
vt 0.92393 0.47535
vt 0.05032 0.66297
vt 0.73624 0.44072
vt 0.83808 0.75676
vt 0.45190 0.42421
vt 0.80431 0.42278
vt 0.04264 0.65228
vt 0.47177 0.47303
vt 0.77917 0.47684
vt 0.09989 0.27523
vt 0.33883 0.05407
vt 0.48735 0.06279
vt 0.81278 0.51947
vt 0.10111 0.30743
vt 0.83435 0.43727
vn -0.07740 -0.99177 -0.10200
vn -0.07740 -0.99177 -0.10200
vn -0.07740 -0.99177 -0.10200
vn -0.07740 -0.99177 -0.10200
vn -0.07740 -0.99177 -0.10200
vn -0.45860 -0.86890 -0.18630
vn -0.45860 -0.86890 -0.18630
vn -0.45860 -0.86890 -0.18630
vn 0.34239 -0.86287 -0.37179
vn 0.34239 -0.86287 -0.37179
vn 0.34239 -0.86287 -0.37179
vn 0.16879 -0.98235 -0.08060
vn 0.16879 -0.98235 -0.08060
vn 0.16879 -0.98235 -0.08060
vn 0.12610 -0.91971 0.37180
vn 0.12610 -0.91971 0.37180
vn 0.12610 -0.91971 0.37180
vn 0.83801 -0.46031 -0.29300
vn 0.83801 -0.46031 -0.29300
vn 0.83801 -0.46031 -0.29300
vn 0.83801 -0.46031 -0.29300
vn 0.83801 -0.46031 -0.29300
vn -0.27579 -0.62999 -0.72598
vn -0.27579 -0.62999 -0.72598
vn -0.27579 -0.62999 -0.72598
vn -0.39862 -0.67943 0.61602
vn -0.39862 -0.67943 0.61602
vn -0.39862 -0.67943 0.61602
vn 0.76872 -0.63512 0.07550
vn 0.76872 -0.63512 0.07550
vn 0.76872 -0.63512 0.07550
vn 0.76872 -0.63512 0.07550
vn -0.74000 -0.63390 0.22490
vn -0.74000 -0.63390 0.22490
vn -0.74000 -0.63390 0.22490
vn -0.74000 -0.63390 0.22490
vn 0.30141 -0.42762 0.85223
vn 0.30141 -0.42762 0.85223
vn 0.30141 -0.42762 0.85223
vn 0.27101 -0.35091 -0.89633
vn -0.86016 -0.44868 -0.24249
vn -0.86016 -0.44868 -0.24249
vn -0.86016 -0.44868 -0.24249
vn -0.86016 -0.44868 -0.24249
vn -0.86016 -0.44868 -0.24249
vn 0.50921 -0.14800 -0.84782
vn 0.50921 -0.14800 -0.84782
vn 0.50921 -0.14800 -0.84782
vn -0.79420 -0.03900 0.60640
vn -0.79420 -0.03900 0.60640
vn -0.79420 -0.03900 0.60640
vn -0.81382 -0.13870 0.56432
vn -0.81382 -0.13870 0.56432
vn 0.75718 0.23729 -0.60858
vn 0.75718 0.23729 -0.60858
vn 0.75718 0.23729 -0.60858
vn 0.75718 0.23729 -0.60858
vn 0.97930 -0.20020 0.02990
vn 0.97930 -0.20020 0.02990
vn -0.87758 -0.14530 0.45689
vn -0.87758 -0.14530 0.45689
vn -0.87758 -0.14530 0.45689
vn -0.87758 -0.14530 0.45689
vn -0.87758 -0.14530 0.45689
vn -0.87758 -0.14530 0.45689
vn -0.87758 -0.14530 0.45689
vn 0.69656 0.69046 0.19509
vn 0.69656 0.69046 0.19509
vn 0.69656 0.69046 0.19509
vn 0.69656 0.69046 0.19509
vn -0.48902 -0.39692 -0.77673
vn -0.48902 -0.39692 -0.77673
vn -0.48902 -0.39692 -0.77673
vn -0.48902 -0.39692 -0.77673
vn 0.47452 -0.37272 -0.79744
vn 0.47452 -0.37272 -0.79744
vn 0.47452 -0.37272 -0.79744
vn -0.05860 0.92917 -0.36499
vn -0.05860 0.92917 -0.36499
vn -0.05860 0.92917 -0.36499
vn -0.05860 0.92917 -0.36499
vn 0.93990 0.16100 0.30110
vn 0.93990 0.16100 0.30110
vn 0.93990 0.16100 0.30110
vn 0.93990 0.16100 0.30110
vn -0.44520 0.22650 0.86631
vn -0.44520 0.22650 0.86631
vn -0.44520 0.22650 0.86631
vn -0.44520 0.22650 0.86631
vn -0.44520 0.22650 0.86631
vn 0.92523 0.18701 -0.33011
vn 0.92523 0.18701 -0.33011
vn 0.92523 0.18701 -0.33011
vn 0.92523 0.18701 -0.33011
vn 0.90883 -0.31361 0.27511
vn 0.90883 -0.31361 0.27511
vn -0.86659 -0.32039 -0.38259
vn -0.86659 -0.32039 -0.38259
vn -0.86659 -0.32039 -0.38259
vn -0.86659 -0.32039 -0.38259
vn -0.86659 -0.32039 -0.38259
vn 0.24630 -0.53371 0.80901
vn 0.24630 -0.53371 0.80901
vn 0.24630 -0.53371 0.80901
vn 0.64090 0.25250 0.72490
vn 0.64090 0.25250 0.72490
vn 0.64090 0.25250 0.72490
vn 0.64090 0.25250 0.72490
vn 0.20180 0.73880 -0.64300
vn 0.20180 0.73880 -0.64300
vn -0.38530 -0.55491 0.73731
vn -0.38530 -0.55491 0.73731
vn -0.38530 -0.55491 0.73731
vn -0.38530 -0.55491 0.73731
vn -0.86792 -0.08820 0.48881
vn -0.86792 -0.08820 0.48881
vn -0.86792 -0.08820 0.48881
vn 0.19260 0.26500 -0.94482
vn 0.19260 0.26500 -0.94482
vn 0.19260 0.26500 -0.94482
vn -0.29331 0.89532 -0.33521
vn -0.29331 0.89532 -0.33521
vn -0.29331 0.89532 -0.33521
vn -0.29331 0.89532 -0.33521
vn -0.29331 0.89532 -0.33521
vn -0.17570 0.14300 0.97400
vn -0.17570 0.14300 0.97400
vn -0.17570 0.14300 0.97400
vn -0.17570 0.14300 0.97400
vn -0.17570 0.14300 0.97400
vn -0.17570 0.14300 0.97400
vn 0.82406 0.15749 -0.54417
vn 0.82406 0.15749 -0.54417
vn 0.82406 0.15749 -0.54417
vn 0.12400 0.40270 -0.90690
vn 0.12400 0.40270 -0.90690
vn -0.61868 0.09090 -0.78037
vn -0.61868 0.09090 -0.78037
vn -0.61868 0.09090 -0.78037
vn -0.61868 0.09090 -0.78037
vn -0.40099 -0.65458 -0.64088
vn -0.40099 -0.65458 -0.64088
vn -0.40099 -0.65458 -0.64088
vn 0.10380 -0.87750 -0.46820
vn 0.10380 -0.87750 -0.46820
vn 0.10380 -0.87750 -0.46820
vn 0.47061 0.40960 0.78151
vn 0.47061 0.40960 0.78151
vn 0.27121 -0.72724 0.63053
vn 0.27121 -0.72724 0.63053
vn 0.27121 -0.72724 0.63053
vn -0.34800 0.20370 -0.91510
vn -0.34800 0.20370 -0.91510
vn -0.38020 0.31610 -0.86921
vn -0.38020 0.31610 -0.86921
vn 0.86676 0.01220 0.49858
vn 0.86676 0.01220 0.49858
vn 0.58931 -0.21160 -0.77971
vn 0.58931 -0.21160 -0.77971
vn 0.58931 -0.21160 -0.77971
vn 0.58931 -0.21160 -0.77971
vn 0.10500 0.32400 -0.94021
vn 0.10500 0.32400 -0.94021
vn -0.50491 -0.15070 -0.84992
vn -0.50491 -0.15070 -0.84992
vn -0.14901 -0.81784 -0.55582
vn -0.14901 -0.81784 -0.55582
vn -0.21899 -0.78406 0.58077
vn -0.21899 -0.78406 0.58077
vn -0.21899 -0.78406 0.58077
vn 0.42563 0.15251 0.89195
vn 0.42563 0.15251 0.89195
vn 0.42563 0.15251 0.89195
vn 0.42563 0.15251 0.89195
vn -0.46812 -0.79963 -0.37611
vn -0.46812 -0.79963 -0.37611
vn 0.91792 -0.39171 0.06320
vn 0.91792 -0.39171 0.06320
vn 0.91792 -0.39171 0.06320
vn 0.91792 -0.39171 0.06320
vn 0.85550 -0.10570 0.50690
vn 0.85550 -0.10570 0.50690
vn 0.85550 -0.10570 0.50690
vn 0.85550 -0.10570 0.50690
vn 0.85550 -0.10570 0.50690
vn 0.85550 -0.10570 0.50690
vn 0.49389 -0.82829 0.26460
vn 0.49389 -0.82829 0.26460
vn 0.49389 -0.82829 0.26460
vn -0.62130 -0.71990 -0.30940
vn -0.62130 -0.71990 -0.30940
vn -0.62130 -0.71990 -0.30940
vn -0.38240 -0.90541 -0.18440
vn -0.38240 -0.90541 -0.18440
vn -0.38240 -0.90541 -0.18440
vn -0.38240 -0.90541 -0.18440
vn -0.31239 -0.56688 0.76227
vn -0.31239 -0.56688 0.76227
vn -0.31239 -0.56688 0.76227
vn -0.31239 -0.56688 0.76227
vn -0.67519 -0.45129 -0.58349
vn -0.67519 -0.45129 -0.58349
vn 0.63447 -0.75936 0.14429
vn 0.63447 -0.75936 0.14429
vn 0.63447 -0.75936 0.14429
vn 0.63447 -0.75936 0.14429
vn 0.63447 -0.75936 0.14429
vn -0.90363 0.17071 -0.39282
vn -0.90363 0.17071 -0.39282
vn -0.90363 0.17071 -0.39282
vn 0.81767 0.25909 0.51408
vn 0.81767 0.25909 0.51408
vn 0.81767 0.25909 0.51408
vn 0.81767 0.25909 0.51408
vn 0.81767 0.25909 0.51408
vn 0.28549 -0.78738 -0.54638
vn 0.28549 -0.78738 -0.54638
vn 0.61230 0.42950 0.66380
vn 0.61230 0.42950 0.66380
vn 0.61230 0.42950 0.66380
vn 0.87630 0.23970 0.41790
vn 0.87630 0.23970 0.41790
vn 0.87630 0.23970 0.41790
vn 0.87630 0.23970 0.41790
vn 0.87630 0.23970 0.41790
vn 0.08370 -0.93892 0.33381
vn 0.08370 -0.93892 0.33381
vn 0.08370 -0.93892 0.33381
vn 0.08370 -0.93892 0.33381
vn 0.08370 -0.93892 0.33381
vn 0.90058 0.30059 -0.31399
vn -0.48719 -0.39729 0.77769
vn -0.48719 -0.39729 0.77769
vn -0.40363 -0.77715 0.48283
vn -0.40363 -0.77715 0.48283
vn -0.40363 -0.77715 0.48283
vn 0.57649 0.20800 0.79019
vn 0.57649 0.20800 0.79019
vn 0.70651 0.42590 0.56520
vn 0.70651 0.42590 0.56520
vn 0.70651 0.42590 0.56520
vn 0.78309 0.41129 0.46649
vn 0.41701 -0.52771 -0.74002
vn 0.41701 -0.52771 -0.74002
vn 0.41701 -0.52771 -0.74002
vn 0.41701 -0.52771 -0.74002
vn 0.51412 0.57832 -0.63342
vn 0.51412 0.57832 -0.63342
vn -0.18081 0.53922 -0.82253
vn -0.66314 -0.73624 -0.13491
vn -0.66314 -0.73624 -0.13491
vn -0.66314 -0.73624 -0.13491
vn 0.06280 -0.61849 -0.78328
vn 0.06280 -0.61849 -0.78328
vn 0.36058 0.51378 -0.77847
vn 0.36058 0.51378 -0.77847
vn 0.36058 0.51378 -0.77847
vn 0.12900 -0.95111 0.28060
vn 0.12900 -0.95111 0.28060
vn 0.12900 -0.95111 0.28060
vn -0.60569 -0.15430 0.78059
vn -0.60569 -0.15430 0.78059
vn -0.60569 -0.15430 0.78059
vn 0.33800 -0.87650 0.34280
vn 0.35540 0.19570 -0.91400
vn 0.35540 0.19570 -0.91400
vn 0.35540 0.19570 -0.91400
vn 0.35540 0.19570 -0.91400
vn 0.09290 -0.93904 0.33101
vn 0.09290 -0.93904 0.33101
vn 0.09290 -0.93904 0.33101
vn 0.09290 -0.93904 0.33101
vn -0.56600 -0.72219 -0.39760
vn -0.56600 -0.72219 -0.39760
vn 0.82226 0.08340 -0.56297
vn 0.82226 0.08340 -0.56297
vn 0.82226 0.08340 -0.56297
vn 0.57200 0.34170 0.74570
vn 0.57200 0.34170 0.74570
vn 0.57200 0.34170 0.74570
vn 0.57200 0.34170 0.74570
vn -0.17000 -0.26980 -0.94779
vn -0.17000 -0.26980 -0.94779
vn 0.32161 -0.88112 0.34671
vn -0.62090 -0.71900 -0.31230
vn 0.69150 0.51260 -0.50900
vn -0.61420 -0.78880 -0.02350
vn -0.61420 -0.78880 -0.02350
vn -0.61420 -0.78880 -0.02350
vn -0.02180 -0.80013 0.59943
vn -0.02180 -0.80013 0.59943
vn -0.02180 -0.80013 0.59943
vn 0.58992 0.30211 -0.74882
vn -0.66539 -0.63529 0.39199
vn -0.66539 -0.63529 0.39199
vn -0.66539 -0.63529 0.39199
vn 0.35020 0.67500 -0.64940
vn 0.35020 0.67500 -0.64940
vn 0.35020 0.67500 -0.64940
vn 0.83532 0.51151 0.20150
vn 0.83532 0.51151 0.20150
vn 0.83532 0.51151 0.20150
vn 0.83532 0.51151 0.20150
vn -0.14000 0.85210 -0.50430
vn -0.14000 0.85210 -0.50430
vn -0.81497 -0.00570 0.57948
vn -0.81497 -0.00570 0.57948
vn -0.81497 -0.00570 0.57948
vn -0.81519 -0.39199 0.42639
vn 0.06120 0.43852 0.89664
vn 0.06120 0.43852 0.89664
vn 0.06120 0.43852 0.89664
vn -0.32731 -0.04300 -0.94394
vn -0.32731 -0.04300 -0.94394
vn -0.32731 -0.04300 -0.94394
vn 0.59640 -0.52430 0.60780
vn 0.59640 -0.52430 0.60780
vn -0.45060 0.03860 -0.89189
vn -0.45060 0.03860 -0.89189
vn -0.45060 0.03860 -0.89189
vn 0.43940 0.65531 0.61441
vn 0.43940 0.65531 0.61441
vn 0.43940 0.65531 0.61441
vn 0.58879 0.80158 -0.10390
vn 0.58879 0.80158 -0.10390
vn 0.44698 0.84746 -0.28639
vn 0.44698 0.84746 -0.28639
vn 0.30389 0.02860 -0.95228
vn 0.30389 0.02860 -0.95228
vn 0.30389 0.02860 -0.95228
vn 0.30389 0.02860 -0.95228
vn 0.31309 -0.45159 0.83549
vn 0.31309 -0.45159 0.83549
vn 0.31309 -0.45159 0.83549
vn 0.31309 -0.45159 0.83549
vn 0.31309 -0.45159 0.83549
vn 0.63175 -0.21778 0.74395
vn 0.63175 -0.21778 0.74395
vn -0.44861 -0.72651 0.52051
vn -0.44861 -0.72651 0.52051
vn -0.44861 -0.72651 0.52051
vn -0.74350 -0.66370 -0.08190
vn -0.74350 -0.66370 -0.08190
vn -0.74350 -0.66370 -0.08190
vn 0.52380 0.08090 0.84799
vn 0.52380 0.08090 0.84799
vn 0.52380 0.08090 0.84799
vn 0.52380 0.08090 0.84799
vn 0.58338 0.66347 0.46848
vn 0.58338 0.66347 0.46848
vn 0.58338 0.66347 0.46848
vn 0.58338 0.66347 0.46848
vn 0.58338 0.66347 0.46848
vn 0.58338 0.66347 0.46848
vn 0.70049 0.60689 0.37549
vn 0.70049 0.60689 0.37549
vn 0.70049 0.60689 0.37549
vn 0.70049 0.60689 0.37549
vn -0.57500 -0.74439 0.33950
vn -0.57500 -0.74439 0.33950
vn -0.26689 -0.04300 -0.96277
vn -0.26689 -0.04300 -0.96277
vn -0.26689 -0.04300 -0.96277
vn -0.26689 -0.04300 -0.96277
vn 0.54209 0.82138 -0.17740
vn 0.54209 0.82138 -0.17740
vn 0.56299 0.29690 -0.77129
vn 0.56299 0.29690 -0.77129
vn 0.56299 0.29690 -0.77129
vn -0.74087 0.07660 -0.66727
vn -0.74087 0.07660 -0.66727
vn -0.74087 0.07660 -0.66727
vn -0.74087 0.07660 -0.66727
vn 0.61120 0.47540 -0.63280
vn 0.61120 0.47540 -0.63280
vn 0.61120 0.47540 -0.63280
vn 0.61120 0.47540 -0.63280
vn -0.78622 0.55671 0.26821
vn -0.78622 0.55671 0.26821
vn 0.13389 -0.29789 0.94516
vn 0.13389 -0.29789 0.94516
vn 0.13389 -0.29789 0.94516
vn 0.13389 -0.29789 0.94516
vn 0.13389 -0.29789 0.94516
vn 0.92675 0.27021 0.26101
vn 0.92675 0.27021 0.26101
vn -0.83787 0.31019 -0.44918
vn -0.83787 0.31019 -0.44918
vn 0.30640 0.94620 -0.10400
vn 0.20090 0.96519 0.16750
vn 0.20090 0.96519 0.16750
vn -0.45751 0.51271 -0.72651
vn -0.45751 0.51271 -0.72651
vn -0.98273 0.12160 -0.13950
vn -0.98273 0.12160 -0.13950
vn -0.98273 0.12160 -0.13950
vn -0.63228 -0.66867 0.39128
vn -0.82940 0.26830 -0.49000
vn -0.82940 0.26830 -0.49000
vn -0.82940 0.26830 -0.49000
vn -0.82940 0.26830 -0.49000
vn 0.10760 0.53358 0.83887
vn 0.10760 0.53358 0.83887
vn 0.67020 0.73470 -0.10510
vn 0.67020 0.73470 -0.10510
vn 0.67020 0.73470 -0.10510
vn -0.36742 0.42152 0.82905
vn -0.36742 0.42152 0.82905
vn 0.24940 0.68441 -0.68511
vn 0.24940 0.68441 -0.68511
vn 0.24940 0.68441 -0.68511
vn 0.00490 0.93767 -0.34749
vn 0.00490 0.93767 -0.34749
vn 0.54927 0.71636 0.43027
vn 0.54927 0.71636 0.43027
vn 0.54927 0.71636 0.43027
vn 0.13229 0.98655 -0.09600
vn 0.13229 0.98655 -0.09600
vn 0.13229 0.98655 -0.09600
vn 0.34851 0.88282 -0.31491
vn 0.34851 0.88282 -0.31491
vn 0.27070 0.94780 -0.16850
vn 0.27070 0.94780 -0.16850
vn 0.27070 0.94780 -0.16850
vn -0.15790 0.85529 0.49350
vn -0.15790 0.85529 0.49350
vn -0.15790 0.85529 0.49350
vn -0.15790 0.85529 0.49350
vn -0.70052 0.58901 -0.40291
vn -0.70052 0.58901 -0.40291
usemtl lingcao_shengling_sprout_mat
s off
f 2/2/2 9/9/9 13/13/13
f 5/5/5 7/7/7 11/11/11
f 1/1/1 12/12/12 15/15/15
f 9/9/9 6/6/6 24/24/24
f 17/17/17 28/28/28 3/3/3
f 4/4/4 36/36/36 8/8/8
f 12/12/12 19/19/19 29/29/29
f 12/12/12 29/29/29 15/15/15
f 3/3/3 28/28/28 35/35/35
f 16/16/16 38/38/38 27/27/27
f 15/15/15 29/29/29 37/37/37
f 10/10/10 22/22/22 14/14/14
f 9/9/9 40/40/40 20/20/20
f 7/7/7 34/34/34 43/43/43
f 7/7/7 43/43/43 25/25/25
f 9/9/9 24/24/24 40/40/40
f 35/35/35 28/28/28 53/53/53
f 21/21/21 57/57/57 48/48/48
f 21/21/21 48/48/48 32/32/32
f 31/31/31 47/47/47 59/59/59
f 30/30/30 58/58/58 39/39/39
f 45/45/45 36/36/36 51/51/51
f 35/35/35 53/53/53 66/66/66
f 33/33/33 64/64/64 49/49/49
f 41/41/41 72/72/72 23/23/23
f 24/24/24 71/71/71 40/40/40
f 40/40/40 77/77/77 20/20/20
f 40/40/40 71/71/71 77/77/77
f 18/18/18 75/75/75 82/82/82
f 18/18/18 82/82/82 54/54/54
f 69/69/69 81/81/81 85/85/85
f 59/59/59 47/47/47 120/120/120
f 55/55/55 79/79/79 118/118/118
f 55/55/55 118/118/118 46/46/46
f 81/81/81 56/56/56 85/85/85
f 50/50/50 65/65/65 90/90/90
f 39/39/39 58/58/58 96/96/96
f 50/50/50 90/90/90 44/44/44
f 73/73/73 42/42/42 99/99/99
f 39/39/39 96/96/96 104/104/104
f 44/44/44 90/90/90 101/101/101
f 67/67/67 91/91/91 78/78/78
f 38/38/38 102/102/102 27/27/27
f 27/27/27 102/102/102 114/114/114
f 26/26/26 113/113/113 117/117/117
f 26/26/26 117/117/117 52/52/52
f 58/58/58 119/119/119 96/96/96
f 63/63/63 52/52/52 117/117/117
f 79/79/79 109/109/109 118/118/118
f 70/70/70 85/85/85 108/108/108
f 62/62/62 124/124/124 127/127/127
f 61/61/61 126/126/126 86/86/86
f 110/110/110 80/80/80 133/133/133
f 68/68/68 107/107/107 93/93/93
f 78/78/78 91/91/91 162/162/162
f 110/110/110 133/133/133 136/136/136
f 63/63/63 117/117/117 140/140/140
f 74/74/74 98/98/98 142/142/142
f 71/71/71 141/141/141 77/77/77
f 77/77/77 141/141/141 145/145/145
f 85/85/85 148/148/148 108/108/108
f 76/76/76 144/144/144 83/83/83
f 102/102/102 151/151/151 114/114/114
f 118/118/118 109/109/109 152/152/152
f 118/118/118 152/152/152 159/159/159
f 60/60/60 137/137/137 121/121/121
f 122/122/122 138/138/138 155/155/155
f 85/85/85 157/157/157 148/148/148
f 78/78/78 162/162/162 132/132/132
f 96/96/96 119/119/119 161/161/161
f 96/96/96 161/161/161 179/179/179
f 109/109/109 135/135/135 152/152/152
f 123/123/123 154/154/154 163/163/163
f 123/123/123 163/163/163 92/92/92
f 145/145/145 156/156/156 84/84/84
f 143/143/143 167/167/167 146/146/146
f 107/107/107 172/172/172 93/93/93
f 142/142/142 98/98/98 176/176/176
f 103/103/103 95/95/95 178/178/178
f 157/157/157 185/185/185 148/148/148
f 94/94/94 173/173/173 125/125/125
f 114/114/114 151/151/151 170/170/170
f 125/125/125 173/173/173 128/128/128
f 158/158/158 188/188/188 177/177/177
f 141/141/141 175/175/175 166/166/166
f 89/89/89 200/200/200 192/192/192
f 89/89/89 192/192/192 100/100/100
f 146/146/146 167/167/167 196/196/196
f 145/145/145 195/195/195 182/182/182
f 145/145/145 182/182/182 156/156/156
f 97/97/97 190/190/190 201/201/201
f 98/98/98 202/202/202 176/176/176
f 204/204/204 209/209/209 194/194/194
f 207/207/207 196/196/196 217/217/217
f 208/208/208 203/203/203 181/181/181
f 210/210/210 184/184/184 196/196/196
f 183/183/183 206/206/206 224/224/224
f 102/102/102 228/228/228 151/151/151
f 103/103/103 178/178/178 229/229/229
f 205/205/205 216/216/216 231/231/231
f 205/205/205 231/231/231 222/222/222
f 168/168/168 233/233/233 112/112/112
f 160/160/160 153/153/153 246/246/246
f 169/169/169 149/149/149 234/234/234
f 180/180/180 189/189/189 230/230/230
f 198/198/198 87/87/87 238/238/238
f 126/126/126 219/219/219 240/240/240
f 130/130/130 241/241/241 88/88/88
f 186/186/186 225/225/225 148/148/148
f 138/138/138 164/164/164 155/155/155
f 136/136/136 133/133/133 257/257/257
f 147/147/147 221/221/221 242/242/242
f 147/147/147 242/242/242 106/106/106
f 166/166/166 175/175/175 193/193/193
f 111/111/111 232/232/232 115/115/115
f 196/196/196 251/251/251 217/217/217
f 139/139/139 116/116/116 295/295/295
f 139/139/139 295/295/295 165/165/165
f 155/155/155 247/247/247 330/330/330
f 87/87/87 240/240/240 238/238/238
f 154/154/154 329/329/329 163/163/163
f 152/152/152 249/249/249 245/245/245
f 135/135/135 255/255/255 152/152/152
f 175/175/175 250/250/250 193/193/193
f 217/217/217 251/251/251 254/254/254
f 187/187/187 260/260/260 226/226/226
f 106/106/106 242/242/242 212/212/212
f 216/216/216 253/253/253 231/231/231
f 152/152/152 255/255/255 249/249/249
f 197/197/197 237/237/237 261/261/261
f 188/188/188 158/158/158 264/264/264
f 188/188/188 264/264/264 259/259/259
f 158/158/158 244/244/244 264/264/264
f 155/155/155 164/164/164 247/247/247
f 105/105/105 211/211/211 171/171/171
f 226/226/226 260/260/260 271/271/271
f 199/199/199 262/262/262 191/191/191
f 176/176/176 202/202/202 274/274/274
f 176/176/176 274/274/274 251/251/251
f 245/245/245 249/249/249 266/266/266
f 129/129/129 174/174/174 280/280/280
f 131/131/131 281/281/281 220/220/220
f 227/227/227 272/272/272 150/150/150
f 149/149/149 269/269/269 234/234/234
f 191/191/191 262/262/262 285/285/285
f 253/253/253 286/286/286 231/231/231
f 243/243/243 265/265/265 275/275/275
f 191/191/191 285/285/285 288/288/288
f 258/258/258 292/292/292 270/270/270
f 190/190/190 287/287/287 201/201/201
f 234/234/234 269/269/269 290/290/290
f 201/201/201 287/287/287 273/273/273
f 244/244/244 276/276/276 264/264/264
f 115/115/115 232/232/232 294/294/294
f 259/259/259 264/264/264 284/284/284
f 223/223/223 231/231/231 302/302/302
f 221/221/221 300/300/300 242/242/242
f 253/253/253 282/282/282 286/286/286
f 249/249/249 304/304/304 266/266/266
f 231/231/231 286/286/286 302/302/302
f 255/255/255 297/297/297 304/304/304
f 255/255/255 304/304/304 249/249/249
f 168/168/168 235/235/235 309/309/309
f 168/168/168 309/309/309 233/233/233
f 237/237/237 310/310/310 261/261/261
f 259/259/259 284/284/284 291/291/291
f 263/263/263 312/312/312 308/308/308
f 276/276/276 316/316/316 264/264/264
f 164/164/164 318/318/318 293/293/293
f 254/254/254 251/251/251 283/283/283
f 282/282/282 314/314/314 286/286/286
f 262/262/262 307/307/307 285/285/285
f 239/239/239 218/218/218 321/321/321
f 256/256/256 134/134/134 298/298/298
f 286/286/286 324/324/324 302/302/302
f 242/242/242 300/300/300 212/212/212
f 238/238/238 240/240/240 311/311/311
f 162/162/162 328/328/328 132/132/132
f 247/247/247 164/164/164 293/293/293
f 274/274/274 343/343/343 251/251/251
f 215/215/215 279/279/279 173/173/173
f 277/277/277 268/268/268 327/327/327
f 292/292/292 333/333/333 337/337/337
f 264/264/264 316/316/316 284/284/284
f 233/233/233 309/309/309 340/340/340
f 284/284/284 316/316/316 345/345/345
f 252/252/252 344/344/344 315/315/315
f 251/251/251 313/313/313 283/283/283
f 277/277/277 327/327/327 317/317/317
f 267/267/267 305/305/305 326/326/326
f 274/274/274 289/289/289 343/343/343
f 239/239/239 321/321/321 310/310/310
f 314/314/314 324/324/324 286/286/286
f 332/332/332 291/291/291 284/284/284
f 332/332/332 284/284/284 345/345/345
f 165/165/165 295/295/295 319/319/319
f 317/317/317 327/327/327 348/348/348
f 214/214/214 301/301/301 350/350/350
f 334/334/334 346/346/346 355/355/355
f 292/292/292 337/337/337 381/381/381
f 292/292/292 381/381/381 236/236/236
f 235/235/235 380/380/380 309/309/309
f 295/295/295 359/359/359 319/319/319
f 232/232/232 339/339/339 294/294/294
f 299/299/299 366/366/366 305/305/305
f 296/296/296 341/341/341 360/360/360
f 281/281/281 352/352/352 220/220/220
f 315/315/315 344/344/344 364/364/364
f 347/347/347 326/326/326 366/366/366
f 347/347/347 366/366/366 357/357/357
f 305/305/305 366/366/366 326/326/326
f 293/293/293 318/318/318 367/367/367
f 219/219/219 351/351/351 322/322/322
f 213/213/213 349/349/349 278/278/278
f 134/134/134 377/377/377 298/298/298
f 310/310/310 321/321/321 379/379/379
f 303/303/303 325/325/325 354/354/354
f 335/335/335 383/383/383 338/338/338
f 288/288/288 285/285/285 342/342/342
f 336/336/336 358/358/358 386/386/386
f 336/336/336 386/386/386 384/384/384
f 324/324/324 314/314/314 362/362/362
f 298/298/298 377/377/377 365/365/365
f 356/356/356 365/365/365 385/385/385
f 306/306/306 310/310/310 379/379/379
f 342/342/342 285/285/285 387/387/387
f 342/342/342 387/387/387 361/361/361
f 307/307/307 394/394/394 285/285/285
f 307/307/307 378/378/378 394/394/394
f 285/285/285 394/394/394 387/387/387
f 354/354/354 325/325/325 389/389/389
f 320/320/320 371/371/371 368/368/368
f 325/325/325 363/363/363 389/389/389
f 323/323/323 353/353/353 391/391/391
f 321/321/321 390/390/390 379/379/379
f 353/353/353 389/389/389 391/391/391
f 363/363/363 393/393/393 389/389/389
f 379/379/379 390/390/390 395/395/395
f 361/361/361 387/387/387 392/392/392
f 319/319/319 359/359/359 397/397/397
f 319/319/319 397/397/397 370/370/370
f 365/365/365 377/377/377 405/405/405
f 389/389/389 393/393/393 391/391/391
f 309/309/309 380/380/380 402/402/402
f 309/309/309 402/402/402 407/407/407
f 393/393/393 388/388/388 391/391/391
f 293/293/293 367/367/367 409/409/409
f 293/293/293 409/409/409 247/247/247
f 248/248/248 413/413/413 331/331/331
f 388/388/388 396/396/396 391/391/391
f 132/132/132 328/328/328 374/374/374
f 331/331/331 413/413/413 376/376/376
f 385/385/385 365/365/365 405/405/405
f 386/386/386 416/416/416 384/384/384
f 386/386/386 406/406/406 416/416/416
f 309/309/309 407/407/407 340/340/340
f 382/382/382 414/414/414 403/403/403
f 369/369/369 373/373/373 411/411/411
f 377/377/377 419/419/419 405/405/405
f 372/372/372 400/400/400 410/410/410
f 370/370/370 397/397/397 399/399/399
f 403/403/403 414/414/414 408/408/408
f 247/247/247 409/409/409 420/420/420
f 247/247/247 420/420/420 412/412/412
f 340/340/340 407/407/407 359/359/359
f 413/413/413 424/424/424 376/376/376
f 412/412/412 420/420/420 423/423/423
f 408/408/408 414/414/414 427/427/427
f 375/375/375 422/422/422 417/417/417
f 411/411/411 401/401/401 421/421/421
f 397/397/397 359/359/359 426/426/426
f 397/397/397 426/426/426 399/399/399
f 359/359/359 407/407/407 426/426/426
f 418/418/418 424/424/424 404/404/404
f 415/415/415 404/404/404 424/424/424
f 415/415/415 424/424/424 428/428/428
f 401/401/401 430/430/430 421/421/421
f 424/424/424 421/421/421 428/428/428
f 398/398/398 425/425/425 429/429/429
f 428/428/428 421/421/421 430/430/430
