# 由 henjicc/yipiantian 的 lingcao_shengling_mature 转换而来（见 manifest.json）
mtllib lingcao_shengling_mature.mtl
o lingcao_shengling_mature
v -0.30202 0.30221 -0.02985
v -0.32500 0.29299 0.00195
v -0.31134 0.29512 0.03345
v -0.29186 0.30583 -0.03873
v -0.29953 0.31065 -0.00472
v -0.29937 0.31112 0.02683
v -0.25355 0.23921 -0.21167
v -0.26354 0.23921 -0.17436
v -0.24898 0.23379 -0.13381
v -0.24118 0.24667 -0.21072
v -0.24669 0.24896 -0.17269
v -0.24249 0.24662 -0.13920
v -0.24394 0.29678 -0.07525
v -0.26883 0.30250 -0.05895
v -0.27239 0.30203 0.05384
v -0.24774 0.29920 0.06330
v -0.25704 0.31644 -0.04593
v -0.25899 0.32744 0.00126
v -0.26046 0.31282 0.04370
v -0.23446 0.33400 -0.00672
v -0.20854 0.24043 -0.22789
v -0.22344 0.23836 -0.11388
v -0.20650 0.22749 -0.10155
v -0.21445 0.25106 -0.21190
v -0.20566 0.26089 -0.18405
v -0.20919 0.25565 -0.13220
v -0.18700 0.26306 -0.09917
v -0.19103 0.26733 0.07179
v -0.20550 0.27021 0.20291
v -0.20797 0.28400 -0.08910
v -0.19613 0.30203 -0.06628
v -0.18752 0.30009 0.04064
v -0.21264 0.28614 0.06960
v -0.20174 0.28175 0.12508
v -0.20778 0.28342 0.16833
v -0.20304 0.27848 0.19402
v -0.20475 0.30688 -0.07490
v -0.21577 0.32076 -0.05151
v -0.21012 0.32931 -0.01279
v -0.21428 0.31427 0.03971
v -0.13959 0.05311 0.00993
v -0.13866 0.05320 0.03420
v -0.14147 0.07053 0.00171
v -0.14357 0.07423 0.03512
v -0.14083 0.10269 0.00058
v -0.14338 0.09852 0.02948
v -0.13747 0.13016 0.00984
v -0.14467 0.20324 -0.08696
v -0.16106 0.23452 -0.22932
v -0.15770 0.24240 -0.11295
v -0.15538 0.22663 -0.09402
v -0.14791 0.23007 0.03945
v -0.16138 0.25569 -0.21081
v -0.16221 0.26769 -0.16915
v -0.15995 0.25910 -0.12977
v -0.15658 0.25525 -0.09428
v -0.14393 0.25802 0.01368
v -0.15353 0.25420 0.04957
v -0.17586 0.26600 0.07509
v -0.15608 0.26025 0.22035
v -0.16290 0.28652 -0.07957
v -0.14937 0.28951 -0.04398
v -0.14037 0.30037 0.01438
v -0.16306 0.28602 0.03408
v -0.15613 0.28784 0.08686
v -0.15910 0.29675 0.12782
v -0.16851 0.29696 0.16232
v -0.16163 0.28184 0.20078
v -0.17417 0.30478 -0.07519
v -0.16257 0.31909 -0.03542
v -0.16710 0.32067 -0.01069
v -0.17042 0.31328 0.02724
v -0.14622 0.30367 0.13804
v -0.09522 0.02866 -0.03727
v -0.10157 0.02576 -0.00195
v -0.10058 0.02397 0.03292
v -0.08867 0.02786 0.06347
v -0.09760 0.05243 -0.07126
v -0.10794 0.04064 -0.05165
v -0.11913 0.04191 -0.00900
v -0.11667 0.04257 0.04781
v -0.09861 0.04753 0.06596
v -0.10232 0.07280 -0.07628
v -0.13077 0.07305 -0.04399
v -0.13015 0.07750 -0.01869
v -0.13141 0.06972 0.05359
v -0.10310 0.07661 0.06560
v -0.10700 0.10718 -0.07747
v -0.13159 0.10899 -0.04473
v -0.10256 0.11386 -0.01040
v -0.11299 0.11273 0.05096
v -0.09646 0.10172 0.06345
v -0.10699 0.13870 -0.08072
v -0.11179 0.14006 -0.04229
v -0.10405 0.13522 -0.00922
v -0.10879 0.13738 0.03510
v -0.09611 0.13603 0.06223
v -0.11529 0.16834 -0.08281
v -0.11226 0.16554 -0.04754
v -0.10578 0.16928 -0.00191
v -0.10825 0.17037 0.03008
v -0.09435 0.15620 0.06165
v -0.09329 0.20891 -0.20625
v -0.08998 0.20168 -0.11623
v -0.12725 0.19498 -0.08076
v -0.11418 0.19109 -0.05372
v -0.11094 0.19322 -0.00298
v -0.11189 0.19924 0.03128
v -0.11141 0.22567 -0.21723
v -0.08945 0.23930 -0.17673
v -0.09943 0.22943 -0.12453
v -0.12165 0.22729 -0.08885
v -0.10464 0.22697 -0.04353
v -0.11256 0.22950 -0.00004
v -0.11816 0.22328 0.03378
v -0.09209 0.24084 0.20689
v -0.12095 0.25086 -0.20806
v -0.11146 0.26106 -0.17602
v -0.11287 0.25649 -0.13697
v -0.12724 0.25434 -0.08190
v -0.11023 0.25780 -0.04280
v -0.11241 0.25849 -0.00110
v -0.11530 0.25857 0.03959
v -0.09384 0.26440 0.08860
v -0.10470 0.26818 0.18228
v -0.11258 0.25175 0.21333
v -0.13684 0.28244 -0.07097
v -0.12610 0.29062 -0.04226
v -0.12456 0.28915 -0.00914
v -0.12665 0.27651 0.04754
v -0.10835 0.28861 0.08694
v -0.11866 0.29761 0.11846
v -0.11098 0.29276 0.16637
v -0.12542 0.27917 0.20004
v -0.13389 0.30382 -0.03857
v -0.05911 0.01752 -0.07919
v -0.06735 0.01242 -0.04581
v -0.06381 0.01775 -0.00529
v -0.06641 0.00697 0.03797
v -0.05490 0.02003 0.07283
v -0.06888 0.04811 -0.08879
v -0.08784 0.03443 -0.06826
v -0.05856 0.04904 -0.01723
v -0.06924 0.04488 0.08400
v -0.06793 0.07844 -0.08903
v -0.05848 0.08029 -0.03510
v -0.05281 0.07541 -0.01510
v -0.06398 0.07363 0.08797
v -0.06702 0.10752 -0.09150
v -0.07001 0.10904 -0.05331
v -0.07688 0.10968 -0.00825
v -0.07261 0.10799 0.07368
v -0.06017 0.14613 -0.12173
v -0.06675 0.13571 -0.09196
v -0.07997 0.13089 -0.05319
v -0.07860 0.13693 0.00436
v -0.06288 0.14705 0.03904
v -0.05687 0.13726 0.07629
v -0.07157 0.17955 -0.15891
v -0.06049 0.16678 -0.13260
v -0.06766 0.16682 -0.09161
v -0.08559 0.16318 0.00368
v -0.06846 0.16740 0.03644
v -0.05063 0.16461 0.08093
v -0.04385 0.18053 0.10771
v -0.08726 0.20791 -0.20393
v -0.07587 0.19757 -0.18150
v -0.06321 0.20273 -0.12655
v -0.06456 0.19281 -0.10011
v -0.06669 0.19841 0.04075
v -0.05824 0.19815 0.07197
v -0.04115 0.19916 0.12772
v -0.08289 0.21648 -0.19994
v -0.07268 0.22710 -0.17393
v -0.07509 0.23051 -0.12773
v -0.08314 0.22295 -0.10724
v -0.06804 0.22751 0.04295
v -0.05584 0.22676 0.07838
v -0.04512 0.23715 0.11621
v -0.05239 0.22600 0.16169
v -0.07845 0.23732 0.19534
v -0.07979 0.24566 -0.16880
v -0.08380 0.24913 -0.14855
v -0.08047 0.25480 0.04866
v -0.06744 0.25925 0.07501
v -0.05523 0.25671 0.12804
v -0.06714 0.25787 0.16146
v -0.07744 0.24971 0.18913
v -0.08347 0.27983 0.08442
v -0.07180 0.27969 0.12957
v -0.08057 0.28003 0.15871
v -0.02914 0.01776 -0.07834
v -0.01567 0.01148 -0.04803
v -0.01201 0.01004 0.00145
v -0.01495 0.01433 0.03532
v -0.02096 0.02294 0.06773
v -0.01765 0.04463 -0.08268
v -0.00737 0.03066 -0.06400
v -0.03877 0.06002 -0.01739
v -0.01777 0.04475 0.07600
v -0.01663 0.07444 -0.07944
v -0.02439 0.08281 -0.05314
v -0.02665 0.07018 0.00192
v -0.01102 0.07175 0.02391
v -0.01881 0.07326 0.08105
v -0.02013 0.10537 -0.07968
v -0.02128 0.09986 -0.05391
v -0.01699 0.10619 -0.00710
v -0.01818 0.10972 0.04115
v -0.02081 0.10921 0.07792
v -0.01826 0.13113 -0.08788
v -0.01926 0.13778 -0.04711
v -0.00944 0.13219 -0.01634
v -0.01527 0.13400 0.04812
v -0.02496 0.13138 0.07980
v -0.02011 0.14251 0.10775
v -0.01146 0.16667 -0.12723
v -0.00920 0.16738 -0.09019
v -0.01359 0.16944 -0.04179
v -0.00427 0.16329 -0.02177
v -0.03912 0.16344 0.04898
v -0.01744 0.16892 0.07847
v -0.02097 0.16539 0.12489
v -0.01907 0.17758 0.14628
v 0.00061 0.20524 -0.16971
v -0.00719 0.19389 -0.13934
v -0.01296 0.19379 -0.09199
v -0.00408 0.19860 -0.04691
v 0.00615 0.18301 -0.02150
v -0.01281 0.19605 0.08761
v -0.03219 0.19923 0.12005
v -0.01591 0.19782 0.16233
v 0.00473 0.21307 -0.17757
v -0.00214 0.22399 -0.12786
v -0.00229 0.22029 -0.09140
v 0.00429 0.21884 -0.05604
v -0.00698 0.22268 0.09395
v -0.01704 0.22788 0.12549
v -0.01212 0.22616 0.16605
v 0.00085 0.24946 0.13581
v 0.00238 0.25164 0.16811
v 0.02300 0.01784 -0.04357
v 0.02882 0.01507 0.00146
v 0.02284 0.01175 0.03145
v 0.01990 0.02731 0.05987
v 0.01136 0.04495 -0.07118
v 0.03449 0.04495 -0.04970
v 0.04581 0.04549 -0.00458
v 0.04791 0.04603 0.04288
v 0.02226 0.04566 0.06534
v 0.03199 0.06960 -0.05120
v 0.03901 0.07675 0.00171
v 0.04613 0.07787 0.03682
v 0.02454 0.06607 0.06756
v 0.01960 0.10609 -0.04973
v 0.03425 0.10671 -0.00133
v 0.03675 0.10710 0.03692
v 0.02376 0.10390 0.06533
v 0.01484 0.13723 -0.05093
v 0.02590 0.13291 -0.01315
v 0.03583 0.13589 0.03854
v 0.02583 0.14050 0.07151
v 0.01787 0.18029 -0.06886
v 0.01844 0.16432 -0.05218
v 0.03466 0.17122 -0.00996
v 0.04316 0.16880 0.03986
v 0.02053 0.16788 0.07340
v 0.02073 0.19615 -0.07332
v 0.04314 0.20171 -0.02923
v 0.03828 0.19800 -0.01366
v 0.04560 0.19239 0.04685
v 0.02279 0.19496 0.07517
v 0.04956 0.20430 0.10630
v 0.04026 0.22126 -0.21320
v 0.02624 0.22911 -0.18159
v 0.02081 0.23111 -0.14066
v 0.02635 0.23080 -0.07942
v 0.02007 0.23070 -0.05443
v 0.04562 0.21992 -0.02177
v 0.05402 0.21343 0.05548
v 0.03818 0.22941 0.08721
v 0.05644 0.21554 0.10982
v 0.04220 0.24589 -0.17105
v 0.03861 0.25066 -0.12620
v 0.03947 0.25082 -0.08580
v 0.05131 0.24952 -0.05745
v 0.04651 0.24617 0.09843
v 0.03506 0.26337 0.12131
v 0.02027 0.26055 0.16802
v 0.03499 0.25888 0.20289
v 0.04566 0.27558 0.14171
v 0.04488 0.27776 0.16961
v 0.05763 0.05094 0.02149
v 0.05717 0.12098 0.01837
v 0.05810 0.12393 0.01628
v 0.06323 0.14100 0.01931
v 0.07310 0.16659 0.02257
v 0.09042 0.20410 -0.23791
v 0.06962 0.19746 -0.00714
v 0.08066 0.19622 0.03270
v 0.07529 0.22595 -0.22041
v 0.08025 0.24051 -0.18587
v 0.08205 0.23582 -0.03704
v 0.08599 0.21678 -0.01447
v 0.08482 0.22469 0.04859
v 0.07787 0.23660 0.07076
v 0.06842 0.23063 0.11451
v 0.09743 0.23845 0.22895
v 0.09164 0.24016 0.23069
v 0.07971 0.25013 -0.17008
v 0.08880 0.26190 -0.12889
v 0.06962 0.26113 -0.10106
v 0.08653 0.25070 -0.05000
v 0.07741 0.25332 0.09263
v 0.08254 0.26320 0.11697
v 0.06914 0.26807 0.18345
v 0.07696 0.25557 0.21663
v 0.09440 0.27424 0.13390
v 0.08615 0.27758 0.16294
v 0.06737 0.27466 0.19400
v 0.15017 0.17804 -0.22505
v 0.13273 0.19594 -0.22853
v 0.10940 0.20786 0.03361
v 0.14675 0.20835 0.21469
v 0.12292 0.22152 -0.21158
v 0.14450 0.23403 -0.17056
v 0.14427 0.23890 -0.09477
v 0.13512 0.23052 -0.04011
v 0.11494 0.22408 -0.02383
v 0.12896 0.23000 0.04563
v 0.14637 0.23929 0.18063
v 0.12412 0.22417 0.22206
v 0.13026 0.24785 -0.15931
v 0.11835 0.25592 -0.14389
v 0.12709 0.25564 -0.08776
v 0.11880 0.25001 -0.05917
v 0.12609 0.24563 0.05771
v 0.12654 0.25610 0.08294
v 0.13091 0.26704 0.12871
v 0.13447 0.26159 0.16886
v 0.11860 0.24944 0.20216
v 0.11231 0.27389 0.14163
v 0.17024 0.16997 -0.20658
v 0.18884 0.16554 -0.17530
v 0.19594 0.17504 -0.14228
v 0.16228 0.19031 -0.21048
v 0.17963 0.19354 -0.17820
v 0.19036 0.19605 -0.13256
v 0.18829 0.20496 -0.09733
v 0.19394 0.20487 0.16778
v 0.17023 0.20207 0.20109
v 0.16120 0.22038 -0.17738
v 0.17079 0.22519 -0.12971
v 0.17315 0.22463 -0.08271
v 0.16267 0.22378 -0.05622
v 0.17452 0.24151 0.07839
v 0.19795 0.23028 0.12179
v 0.18395 0.22704 0.16584
v 0.15934 0.23160 0.19445
v 0.15648 0.24397 -0.09137
v 0.17145 0.24795 0.08121
v 0.17362 0.25099 0.12905
v 0.16400 0.25116 0.16058
v 0.20249 0.22153 0.13421
vt 0.43077 0.77277
vt 0.46849 0.44963
vt 0.44906 0.32607
vt 0.69130 0.61953
vt 0.61453 0.58511
vt 0.76245 0.53412
vt 0.39776 0.53217
vt 0.54483 0.53487
vt 0.64650 0.52830
vt 0.52115 0.39632
vt 0.65820 0.31552
vt 0.66485 0.40059
vt 0.48917 0.62906
vt 0.46560 0.63935
vt 0.12448 0.36389
vt 0.25625 0.43408
vt 0.68434 0.58698
vt 0.41382 0.42381
vt 0.57571 0.55995
vt 0.68497 0.67919
vt 0.64360 0.52334
vt 0.67881 0.45531
vt 0.44231 0.47737
vt 0.51146 0.43022
vt 0.46864 0.31759
vt 0.64074 0.30479
vt 0.47052 0.52186
vt 0.20832 0.35118
vt 0.30953 0.76561
vt 0.52253 0.68066
vt 0.36870 0.72070
vt 0.54761 0.62638
vt 0.37257 0.38106
vt 0.40137 0.39533
vt 0.21737 0.60613
vt 0.20396 0.79087
vt 0.84712 0.48412
vt 0.73351 0.39875
vt 0.44721 0.51959
vt 0.62409 0.62527
vt 0.16519 0.24677
vt 0.38828 0.45971
vt 0.22304 0.34723
vt 0.33586 0.19571
vt 0.15898 0.20130
vt 0.47660 0.14959
vt 0.44620 0.12112
vt 0.16220 0.39065
vt 0.58379 0.57293
vt 0.57364 0.55730
vt 0.33296 0.47875
vt 0.21896 0.27551
vt 0.73344 0.35218
vt 0.48877 0.22665
vt 0.56454 0.24667
vt 0.54395 0.49288
vt 0.39768 0.48678
vt 0.47332 0.47122
vt 0.44321 0.44120
vt 0.39192 0.72609
vt 0.78325 0.60331
vt 0.41051 0.28572
vt 0.29389 0.46311
vt 0.50938 0.49757
vt 0.66048 0.46182
vt 0.37227 0.59401
vt 0.22121 0.58751
vt 0.51300 0.78245
vt 0.85144 0.44073
vt 0.36612 0.19941
vt 0.64079 0.56672
vt 0.62982 0.49031
vt 0.22761 0.66251
vt 0.52703 0.71324
vt 0.72073 0.55400
vt 0.45164 0.69335
vt 0.07851 0.89639
vt 0.52103 0.62388
vt 0.48688 0.58369
vt 0.38175 0.76682
vt 0.56518 0.54466
vt 0.54766 0.42509
vt 0.49317 0.39336
vt 0.61690 0.17224
vt 0.43574 0.49420
vt 0.72644 0.23913
vt 0.70075 0.15810
vt 0.50283 0.39263
vt 0.71549 0.08312
vt 0.31438 0.48331
vt 0.56063 0.20388
vt 0.58671 0.21369
vt 0.47815 0.48143
vt 0.69488 0.48503
vt 0.33068 0.41737
vt 0.56004 0.22778
vt 0.66841 0.26719
vt 0.46950 0.47595
vt 0.63057 0.51715
vt 0.39735 0.27775
vt 0.39968 0.21148
vt 0.40715 0.18120
vt 0.15524 0.38627
vt 0.49160 0.58766
vt 0.30775 0.33065
vt 0.44005 0.40484
vt 0.32270 0.34487
vt 0.42660 0.34901
vt 0.38023 0.38168
vt 0.13549 0.50344
vt 0.38882 0.53000
vt 0.46662 0.38172
vt 0.40789 0.68756
vt 0.18692 0.41465
vt 0.40483 0.39969
vt 0.29857 0.34419
vt 0.76989 0.41506
vt 0.73601 0.30150
vt 0.46625 0.24887
vt 0.71388 0.40816
vt 0.24937 0.42676
vt 0.16437 0.51090
vt 0.58204 0.46389
vt 0.69828 0.85360
vt 0.61371 0.86818
vt 0.35515 0.48358
vt 0.81280 0.12680
vt 0.27374 0.28335
vt 0.31856 0.55149
vt 0.63129 0.38526
vt 0.49140 0.45140
vt 0.21596 0.60545
vt 0.43602 0.81613
vt 0.81640 0.78209
vt 0.04113 0.30257
vt 0.53380 0.95370
vt 0.46745 0.89664
vt 0.46094 0.60170
vt 0.32544 0.92768
vt 0.33891 0.80566
vt 0.49281 0.84455
vt 0.45168 0.92406
vt 0.35171 0.31486
vt 0.54407 0.71064
vt 0.34001 0.54547
vt 0.56340 0.45674
vt 0.66978 0.44889
vt 0.59671 0.55980
vt 0.25421 0.56302
vt 0.57130 0.44591
vt 0.34627 0.46276
vt 0.53584 0.30423
vt 0.05752 0.49220
vt 0.40921 0.48990
vt 0.62829 0.57248
vt 0.24253 0.49899
vt 0.41109 0.17718
vt 0.47864 0.33829
vt 0.25792 0.32202
vt 0.19164 0.29858
vt 0.38282 0.34092
vt 0.26234 0.52928
vt 0.46577 0.40706
vt 0.46334 0.23004
vt 0.21937 0.34972
vt 0.02556 0.03768
vt 0.16354 0.31280
vt 0.34794 0.28369
vt 0.32862 0.15726
vt 0.43482 0.41325
vt 0.52996 0.37058
vt 0.14521 0.32292
vt 0.03545 0.03473
vt 0.34192 0.22947
vt 0.52842 0.26876
vt 0.27559 0.14454
vt 0.50428 0.42344
vt 0.34138 0.50059
vt 0.34971 0.62795
vt 0.26261 0.35689
vt 0.54295 0.38224
vt 0.73823 0.27497
vt 0.76429 0.57068
vt 0.80800 0.61846
vt 0.29433 0.46220
vt 0.27722 0.63497
vt 0.54136 0.69432
vt 0.84668 0.83081
vt 0.33086 0.37320
vt 0.21013 0.67852
vt 0.61883 0.81887
vt 0.13781 0.66483
vt 0.40928 0.51080
vt 0.41381 0.65375
vt 0.46145 0.50741
vt 0.62528 0.53003
vt 0.20953 0.37383
vt 0.32594 0.13955
vt 0.29982 0.21521
vt 0.50323 0.48841
vt 0.35615 0.46512
vt 0.29058 0.22825
vt 0.44137 0.39710
vt 0.23300 0.36557
vt 0.40347 0.40174
vt 0.32654 0.37515
vt 0.41954 0.26052
vt 0.69183 0.45307
vt 0.22649 0.36736
vt 0.46553 0.46899
vt 0.29621 0.27955
vt 0.44917 0.21244
vt 0.65091 0.56405
vt 0.26587 0.34180
vt 0.49109 0.44857
vt 0.41037 0.48135
vt 0.33550 0.23926
vt 0.45207 0.22678
vt 0.37615 0.31077
vt 0.62496 0.58803
vt 0.20059 0.35444
vt 0.37121 0.42181
vt 0.50244 0.42685
vt 0.38368 0.34058
vt 0.57058 0.26426
vt 0.46000 0.31441
vt 0.31570 0.20265
vt 0.40252 0.40378
vt 0.62396 0.55508
vt 0.28491 0.42568
vt 0.45482 0.29423
vt 0.41570 0.51248
vt 0.67474 0.02720
vt 0.63007 0.23542
vt 0.27981 0.45241
vt 0.38051 0.35655
vt 0.22360 0.41729
vt 0.39819 0.42252
vt 0.59593 0.66000
vt 0.38494 0.52416
vt 0.52349 0.70943
vt 0.40242 0.68975
vt 0.52872 0.65986
vt 0.43382 0.65629
vt 0.60469 0.57703
vt 0.60290 0.55966
vt 0.30136 0.54896
vt 0.50408 0.62600
vt 0.74981 0.79495
vt 0.55454 0.46708
vt 0.38570 0.54996
vt 0.49335 0.51499
vt 0.69479 0.53690
vt 0.55349 0.41342
vt 0.40644 0.53203
vt 0.60231 0.45797
vt 0.54599 0.50812
vt 0.48855 0.37131
vt 0.40526 0.50978
vt 0.49232 0.40553
vt 0.44883 0.45054
vt 0.38801 0.52346
vt 0.28662 0.58146
vt 0.50064 0.44037
vt 0.70658 0.44664
vt 0.29253 0.35461
vt 0.30652 0.41488
vt 0.22253 0.48802
vt 0.81435 0.25977
vt 0.62226 0.54736
vt 0.20356 0.32588
vt 0.19232 0.33985
vt 0.49053 0.41375
vt 0.68323 0.25719
vt 0.70572 0.38829
vt 0.67300 0.73181
vt 0.34877 0.54519
vt 0.26691 0.42555
vt 0.61361 0.58267
vt 0.11124 0.29449
vt 0.12100 0.43250
vt 0.48805 0.41510
vt 0.65471 0.55221
vt 0.52600 0.83798
vt 0.18379 0.37319
vt 0.17060 0.79758
vt 0.15668 0.39149
vt 0.40739 0.46909
vt 0.54600 0.62020
vt 0.55620 0.58363
vt 0.49299 0.64606
vt 0.32861 0.90136
vt 0.75595 0.61515
vt 0.64270 0.55820
vt 0.45933 0.42606
vt 0.42487 0.41423
vt 0.23278 0.33863
vt 0.73729 0.54585
vt 0.62101 0.52946
vt 0.21773 0.29975
vt 0.84552 0.42045
vt 0.68258 0.46289
vt 0.56136 0.69721
vt 0.70494 0.60287
vt 0.15874 0.25175
vt 0.21606 0.35009
vt 0.48501 0.41721
vt 0.33554 0.33228
vt 0.17605 0.12324
vt 0.69811 0.60596
vt 0.36100 0.54834
vt 0.19562 0.56100
vt 0.37564 0.77107
vt 0.09704 0.45560
vt 0.30964 0.36751
vt 0.61207 0.60555
vt 0.52424 0.43186
vt 0.35455 0.25111
vt 0.44107 0.74712
vt 0.33339 0.93419
vt 0.52820 0.22269
vt 0.77474 0.52615
vt 0.36800 0.36903
vt 0.28261 0.30707
vt 0.82204 0.35736
vt 0.41526 0.25760
vt 0.57667 0.15941
vt 0.67668 0.62747
vt 0.71746 0.67822
vt 0.28524 0.20391
vt 0.09820 0.71828
vt 0.39613 0.33219
vt 0.52039 0.32000
vt 0.41023 0.51267
vt 0.40488 0.74542
vt 0.46028 0.77629
vt 0.41944 0.27198
vt 0.63710 0.49047
vt 0.53488 0.65602
vt 0.39937 0.41621
vt 0.68813 0.43405
vt 0.29451 0.21080
vt 0.46574 0.13806
vt 0.42262 0.19221
vt 0.51408 0.21871
vt 0.73472 0.32011
vt 0.48449 0.34665
vt 0.62429 0.31441
vt 0.67820 0.16338
vt 0.30499 0.43275
vt 0.41936 0.42219
vt 0.41267 0.30707
vt 0.45624 0.58718
vt 0.71216 0.37894
vt 0.70287 0.42412
vt 0.47942 0.22459
vt 0.46318 0.35882
vt 0.58195 0.44491
vt 0.62883 0.52381
vt 0.50458 0.76167
vt 0.70413 0.37428
vt 0.79396 0.50069
vt 0.83288 0.49535
vt 0.50873 0.33450
vn -0.13140 -0.99114 0.01950
vn -0.91063 -0.14357 -0.38749
vn -0.47329 -0.42388 0.77222
vn -0.70982 0.02635 -0.70389
vn -0.52753 0.82750 -0.19226
vn -0.43580 0.81004 0.39231
vn -0.70363 -0.24223 -0.66800
vn -0.95089 -0.28866 0.11175
vn -0.71011 -0.59437 0.37745
vn -0.32559 0.88587 -0.33051
vn -0.53375 0.84091 0.08935
vn -0.52639 0.74592 0.40807
vn -0.64005 -0.25164 -0.72596
vn -0.43240 -0.77927 -0.45363
vn -0.27883 -0.75083 0.59876
vn -0.29869 -0.58742 0.75215
vn -0.37868 0.77419 -0.50717
vn -0.15913 0.98711 -0.01728
vn -0.19122 0.74836 0.63514
vn -0.01710 0.99641 0.08290
vn -0.10533 -0.61368 -0.78249
vn -0.40676 0.58173 0.70437
vn -0.42716 -0.22056 0.87686
vn -0.17918 0.81551 -0.55031
vn -0.22903 0.96577 -0.12176
vn -0.28747 0.85821 0.42525
vn -0.94484 -0.32430 0.04581
vn -0.29987 -0.67161 0.67751
vn -0.69837 -0.53865 0.47131
vn -0.51586 -0.40475 -0.75502
vn -0.18949 -0.84428 0.50129
vn -0.65980 -0.73018 -0.17747
vn -0.12906 -0.23535 0.96330
vn -0.94617 0.09162 -0.31044
vn -0.82397 0.56597 -0.02761
vn -0.47683 0.65072 0.59093
vn -0.02127 0.70763 -0.70627
vn -0.02158 0.91242 -0.40869
vn -0.11039 0.95471 -0.27632
vn 0.01271 0.81668 0.57696
vn -0.89770 -0.40180 -0.18079
vn -0.87213 -0.40210 0.27877
vn -0.92947 -0.15466 -0.33492
vn -0.94598 -0.07557 0.31528
vn -0.94298 0.11579 -0.31207
vn -0.94123 0.21334 0.26188
vn -0.95727 0.27541 0.08824
vn -0.48193 -0.81267 -0.32757
vn -0.16068 -0.75671 -0.63370
vn -0.07680 -0.82674 -0.55732
vn -0.69739 -0.66547 0.26608
vn -0.51676 -0.67454 0.52722
vn 0.01730 0.75472 -0.65581
vn -0.12359 0.98996 0.06860
vn 0.00548 0.90401 0.42748
vn -0.99747 -0.00740 -0.07070
vn -0.89218 -0.31677 -0.32198
vn -0.48414 -0.81472 0.31912
vn -0.73072 -0.63530 -0.24988
vn -0.25801 -0.49535 0.82949
vn 0.25876 0.33215 -0.90704
vn -0.84028 -0.51911 -0.15639
vn 0.66927 0.61437 0.41788
vn -0.60110 -0.57482 0.55521
vn -0.40697 0.74712 -0.52554
vn 0.07834 0.97369 0.21401
vn -0.18483 0.96603 0.18062
vn -0.06764 0.75250 0.65511
vn 0.21780 0.72020 -0.65870
vn 0.29983 0.88283 -0.36155
vn 0.44413 0.83623 0.32168
vn 0.38929 0.79400 0.46693
vn -0.25959 0.95886 -0.11489
vn -0.21790 -0.97555 0.02860
vn -0.20515 -0.94627 -0.24997
vn -0.40042 -0.88369 0.24238
vn -0.66000 -0.56170 0.49890
vn -0.20528 -0.34466 -0.91601
vn -0.51438 -0.77588 -0.36527
vn -0.66786 -0.69373 -0.26962
vn -0.53932 -0.57639 0.61392
vn -0.59627 -0.36590 0.71455
vn -0.11369 -0.15366 -0.98156
vn -0.98488 -0.17197 0.02087
vn -0.89011 -0.07958 -0.44875
vn -0.70519 -0.10825 0.70070
vn -0.39635 0.04203 0.91714
vn -0.37073 -0.09656 -0.92371
vn -0.97574 0.15599 0.15365
vn 0.11627 0.73311 -0.67009
vn -0.48322 0.46140 0.74405
vn -0.40854 0.14604 0.90098
vn -0.30178 -0.02301 -0.95310
vn -0.61147 0.73915 0.28242
vn 0.50320 -0.03130 -0.86360
vn -0.56778 0.45904 0.68330
vn -0.76295 -0.06039 0.64364
vn -0.34916 0.11496 -0.92998
vn 0.34240 0.81443 -0.46848
vn 0.63858 0.76447 -0.08827
vn -0.54979 0.03121 0.83472
vn -0.13196 0.15684 0.97877
vn -0.47782 -0.81472 -0.32852
vn -0.63391 -0.43891 -0.63681
vn -0.71452 0.27874 -0.64169
vn -0.13246 -0.14154 -0.98103
vn 0.53777 0.55613 0.63366
vn -0.67257 0.35689 0.64829
vn 0.31540 -0.31062 -0.89668
vn -0.67838 -0.71828 0.15450
vn -0.59729 -0.65322 -0.46536
vn 0.79351 0.60405 -0.07389
vn 0.94703 0.14566 -0.28622
vn 0.86156 0.10497 0.49668
vn -0.93692 0.27267 -0.21869
vn 0.40575 -0.51755 0.75333
vn 0.35549 0.63514 -0.68573
vn 0.30614 0.94824 -0.08435
vn 0.25885 0.89852 0.35448
vn 0.71369 0.42197 -0.55910
vn 0.84875 0.32560 -0.41667
vn 0.89579 0.27223 0.35137
vn 0.19726 0.59959 -0.77561
vn -0.53568 -0.78948 0.29963
vn -0.39231 -0.85572 -0.33741
vn 0.01745 -0.67957 0.73341
vn 0.64097 0.53098 -0.55427
vn 0.73777 0.55619 -0.38255
vn 0.81222 0.55997 0.16351
vn 0.11011 0.83269 -0.54268
vn 0.39432 0.90960 -0.13090
vn 0.24446 0.96928 0.02708
vn 0.33094 0.88913 0.31610
vn 0.28748 0.70207 0.65150
vn 0.62703 0.55862 0.54293
vn -0.27105 -0.69569 -0.66524
vn -0.46394 -0.88430 0.05264
vn -0.25228 -0.96281 -0.09674
vn -0.25900 -0.95890 0.11593
vn -0.07051 -0.72542 0.68468
vn -0.48783 -0.16297 -0.85759
vn -0.84384 -0.35922 -0.39862
vn -0.02824 0.99453 0.10060
vn -0.33089 -0.28645 0.89915
vn -0.39455 0.03920 -0.91804
vn 0.55342 0.63513 0.53883
vn 0.76546 0.32384 -0.55605
vn -0.23057 0.12646 0.96480
vn -0.37886 -0.24347 -0.89285
vn 0.45672 0.62930 0.62880
vn 0.27300 0.80977 -0.51937
vn -0.40589 0.22437 0.88595
vn -0.06252 -0.60585 -0.79312
vn -0.55658 -0.32702 -0.76373
vn 0.61613 0.59761 0.51307
vn 0.57530 0.20868 -0.79087
vn 0.62996 0.72662 0.27418
vn 0.12306 0.05328 0.99097
vn 0.04274 -0.75332 -0.65626
vn 0.35908 -0.56737 -0.74105
vn 0.54794 0.41365 0.72709
vn 0.80277 0.33992 -0.48991
vn 0.41225 0.70991 -0.57103
vn 0.09478 -0.34802 0.93268
vn -0.93984 -0.00140 0.34161
vn 0.65443 -0.10541 -0.74874
vn 0.17032 -0.82817 -0.53397
vn 0.91550 0.39956 0.04692
vn 0.68361 0.50814 0.52391
vn 0.57441 0.34031 -0.74448
vn -0.73669 -0.11900 0.66568
vn -0.62375 -0.60388 0.49625
vn 0.72222 0.06050 -0.68902
vn 0.81511 0.22546 -0.53364
vn 0.76995 0.58735 0.24938
vn 0.44172 0.61122 0.65673
vn 0.63972 0.36085 -0.67864
vn 0.46877 -0.12072 0.87503
vn 0.30068 -0.44846 0.84171
vn 0.07091 -0.89614 0.43806
vn 0.46682 -0.35226 0.81116
vn 0.70049 0.69548 -0.16004
vn 0.57772 0.79284 0.19402
vn 0.57017 0.57150 -0.59016
vn 0.75722 0.58648 -0.28750
vn 0.91308 0.39126 0.11489
vn 0.80949 0.11662 0.57543
vn 0.67359 0.38389 0.63159
vn 0.59824 0.78221 -0.17395
vn 0.61106 0.79044 0.04253
vn 0.59189 0.73616 0.32824
vn 0.35478 -0.67802 -0.64375
vn 0.21485 -0.93440 -0.28413
vn -0.17015 -0.98540 0.00600
vn 0.07472 -0.99289 0.09269
vn 0.29285 -0.67307 0.67913
vn 0.52005 -0.14505 -0.84173
vn -0.02630 -0.31339 -0.94926
vn -0.93061 0.36380 -0.04010
vn 0.58311 -0.32159 0.74603
vn 0.39936 0.16371 -0.90206
vn -0.19170 0.91604 -0.35231
vn -0.32663 0.94092 0.08929
vn 0.26031 0.64865 -0.71519
vn 0.38710 -0.02483 0.92170
vn 0.24092 -0.07839 -0.96738
vn -0.09024 0.69545 -0.71289
vn -0.49640 0.54397 0.67652
vn 0.31388 0.46108 -0.82999
vn 0.13281 0.04108 0.99029
vn 0.48009 -0.42514 -0.76732
vn -0.79639 0.59570 -0.10443
vn -0.39942 0.30203 0.86559
vn 0.25677 0.48765 -0.83442
vn -0.33925 0.14866 0.92888
vn 0.00553 -0.67499 0.73781
vn -0.28234 -0.62930 -0.72406
vn 0.14672 -0.49946 -0.85382
vn -0.95271 0.30095 0.04206
vn -0.45605 0.24510 0.85554
vn 0.98120 0.19133 -0.02529
vn -0.70813 0.18972 -0.68011
vn -0.33176 -0.56489 0.75554
vn -0.44765 -0.62177 0.64266
vn -0.25279 -0.70237 -0.66541
vn -0.16343 -0.66961 -0.72451
vn -0.96359 0.26724 0.00885
vn -0.88686 0.46153 0.02143
vn -0.46271 0.29461 0.83612
vn -0.36165 0.48932 -0.79358
vn 0.64909 -0.48404 0.58684
vn 0.19815 -0.53932 0.81845
vn -0.86421 0.24110 -0.44160
vn -0.81075 0.58066 -0.07431
vn -0.75798 0.63510 0.14870
vn -0.83128 0.04732 -0.55384
vn -0.08692 0.61225 -0.78587
vn 0.21622 0.54735 0.80849
vn -0.48747 -0.09737 0.86769
vn -0.75571 0.64269 0.12594
vn -0.67889 0.40938 0.60952
vn 0.59286 -0.67940 -0.43236
vn 0.35362 -0.85115 -0.38794
vn 0.33152 -0.90949 0.25085
vn 0.33009 -0.52499 0.78449
vn 0.25069 -0.16952 -0.95311
vn 0.84552 -0.14355 -0.51429
vn 0.89191 -0.05598 -0.44873
vn 0.82660 -0.18828 0.53037
vn 0.38367 -0.24571 0.89018
vn 0.80494 0.23484 -0.54491
vn 0.81103 0.53699 -0.23211
vn 0.92262 0.22069 0.31632
vn 0.43477 0.02293 0.90025
vn 0.84910 0.25678 -0.46163
vn 0.95143 0.28225 0.12295
vn 0.94809 0.20955 0.23921
vn 0.44201 -0.00150 0.89701
vn 0.95172 0.05784 -0.30147
vn 0.82403 -0.06061 0.56329
vn 0.98585 0.14269 -0.08800
vn 0.45175 -0.33617 0.82639
vn 0.98082 -0.16350 -0.10610
vn 0.95815 -0.08048 -0.27471
vn 0.28728 -0.26333 0.92094
vn -0.00402 0.15023 -0.98864
vn 0.61890 -0.07219 -0.78214
vn 0.94858 -0.30787 -0.07352
vn 0.46757 -0.58955 -0.65864
vn -0.31750 0.34295 0.88407
vn -0.55424 0.47670 -0.68234
vn 0.14008 0.38484 -0.91229
vn 0.38241 -0.60451 0.69881
vn -0.57645 -0.50003 -0.64628
vn -0.70148 -0.21229 -0.68034
vn 0.63043 -0.76894 -0.10627
vn -0.27158 -0.34952 -0.89671
vn -0.45988 0.73715 0.49510
vn -0.27709 0.57578 0.76922
vn -0.56969 0.61869 -0.54099
vn -0.32404 0.54215 -0.77529
vn 0.41421 -0.67632 0.60912
vn -0.28344 0.92888 -0.23841
vn -0.34004 0.93978 -0.03446
vn -0.32255 0.94655 0.00069
vn -0.29560 0.88697 0.35483
vn -0.02428 0.60207 -0.79808
vn -0.23739 0.83676 -0.49344
vn 0.00839 -0.69975 0.71434
vn -0.55098 -0.25783 0.79369
vn -0.16737 0.94971 -0.26465
vn -0.20025 0.97465 0.09976
vn 0.99742 -0.03101 0.06475
vn 0.77517 -0.02710 0.63117
vn 0.82999 -0.14760 -0.53789
vn 0.88575 -0.45472 -0.09319
vn 0.85304 -0.52184 -0.00099
vn -0.38235 -0.63984 -0.66665
vn 0.60224 -0.63355 0.48572
vn 0.72505 -0.38767 -0.56922
vn -0.09693 0.64455 -0.75839
vn 0.06756 -0.93317 0.35302
vn 0.33983 0.40615 0.84826
vn 0.22184 0.21471 0.95115
vn -0.22021 0.62365 -0.75005
vn -0.42291 0.73043 -0.53630
vn 0.41287 -0.73714 0.53494
vn -0.47487 -0.48948 0.73137
vn -0.33760 -0.60560 0.72060
vn 0.00132 0.95839 -0.28547
vn -0.13446 0.94302 -0.30436
vn -0.02015 0.99649 -0.08124
vn -0.00242 0.86836 0.49593
vn -0.18401 0.81769 -0.54546
vn 0.01128 0.86994 -0.49303
vn -0.08611 -0.98769 -0.13062
vn -0.10452 0.42836 0.89754
vn -0.30262 0.95232 0.03877
vn 0.14896 0.98838 0.03018
vn 0.01380 0.91558 0.40189
vn -0.14565 -0.84638 -0.51227
vn 0.29494 0.05671 -0.95383
vn 0.29301 -0.67472 0.67742
vn -0.14816 -0.73090 0.66620
vn 0.29918 0.73292 -0.61100
vn 0.65957 0.74273 -0.11544
vn -0.40490 -0.91413 -0.02064
vn 0.55696 -0.27197 0.78475
vn 0.53543 -0.34817 0.76947
vn 0.43262 -0.07684 -0.89830
vn -0.48530 -0.73290 -0.47680
vn -0.06869 -0.45369 0.88851
vn 0.45903 0.86752 -0.19157
vn 0.42355 0.90420 -0.05505
vn 0.35722 0.92482 0.13075
vn 0.30757 0.82688 0.47082
vn 0.00082 0.78502 -0.61947
vn 0.09640 0.87510 -0.47425
vn 0.24850 0.96504 0.08339
vn 0.34964 0.84678 0.40090
vn 0.49615 0.58057 0.64559
vn 0.13893 0.98763 -0.07272
vn 0.23972 -0.67416 -0.69860
vn 0.32617 -0.93573 0.13427
vn 0.46860 -0.78165 0.41162
vn 0.64952 0.34306 -0.67855
vn 0.89965 0.37841 0.21779
vn 0.99313 0.06988 0.09387
vn 0.37060 -0.80845 0.45723
vn 0.64033 -0.76768 -0.02535
vn 0.44146 -0.61004 0.65799
vn 0.80378 0.52011 0.28883
vn 0.72980 0.65694 -0.18927
vn 0.82306 0.45521 0.33964
vn 0.44220 -0.53965 0.71641
vn 0.51090 -0.71543 -0.47659
vn 0.82558 -0.43777 -0.35606
vn 0.77037 0.50247 0.39250
vn 0.58322 0.46226 0.66796
vn 0.57960 0.80767 0.10833
vn 0.51646 0.71916 -0.46485
vn 0.62527 0.77957 0.03605
vn 0.51267 0.78312 0.35199
vn 0.94667 0.31509 -0.06740
usemtl lingcao_shengling_mature_mat
s off
f 358/358/358 357/357/357 350/350/350
f 357/357/357 358/358/358 362/362/362
f 308/308/308 332/332/332 317/317/317
f 340/340/340 339/339/339 362/362/362
f 356/356/356 357/357/357 362/362/362
f 339/339/339 356/356/356 362/362/362
f 232/232/232 223/223/223 231/231/231
f 239/239/239 232/232/232 238/238/238
f 223/223/223 216/216/216 222/222/222
f 215/215/215 222/222/222 216/216/216
f 179/179/179 178/178/178 172/172/172
f 171/171/171 165/165/165 172/172/172
f 282/282/282 240/240/240 238/238/238
f 204/204/204 252/252/252 203/203/203
f 300/300/300 273/273/273 272/272/272
f 266/266/266 271/271/271 267/267/267
f 280/280/280 300/300/300 271/271/271
f 267/267/267 214/214/214 222/222/222
f 214/214/214 261/261/261 257/257/257
f 214/214/214 257/257/257 209/209/209
f 316/316/316 317/317/317 290/290/290
f 185/185/185 124/124/124 123/123/123
f 178/178/178 185/185/185 115/115/115
f 123/123/123 115/115/115 185/185/185
f 194/194/194 243/243/243 244/244/244
f 80/80/80 143/143/143 138/138/138
f 75/75/75 80/80/80 138/138/138
f 210/210/210 215/215/215 158/158/158
f 171/171/171 163/163/163 164/164/164
f 92/92/92 87/87/87 152/152/152
f 116/116/116 126/126/126 125/125/125
f 187/187/187 180/180/180 116/116/116
f 134/134/134 60/60/60 126/126/126
f 36/36/36 35/35/35 29/29/29
f 58/58/58 123/123/123 131/131/131
f 115/115/115 108/108/108 107/107/107
f 115/115/115 52/52/52 108/108/108
f 129/129/129 123/123/123 122/122/122
f 101/101/101 108/108/108 107/107/107
f 107/107/107 100/100/100 101/101/101
f 16/16/16 15/15/15 19/19/19
f 19/19/19 6/6/6 3/3/3
f 19/19/19 3/3/3 5/5/5
f 14/14/14 17/17/17 18/18/18
f 18/18/18 5/5/5 4/4/4
f 18/18/18 4/4/4 14/14/14
f 5/5/5 1/1/1 4/4/4
f 5/5/5 2/2/2 1/1/1
f 269/269/269 303/303/303 299/299/299
f 349/349/349 354/354/354 353/353/353
f 326/326/326 353/353/353 354/354/354
f 354/354/354 334/334/334 326/326/326
f 353/353/353 348/348/348 349/349/349
f 349/349/349 348/348/348 354/354/354
f 347/347/347 345/345/345 348/348/348
f 299/299/299 265/265/265 269/269/269
f 236/236/236 268/268/268 277/277/277
f 212/212/212 208/208/208 213/213/213
f 226/226/226 225/225/225 276/276/276
f 218/218/218 211/211/211 217/217/217
f 225/225/225 226/226/226 234/234/234
f 347/347/347 344/344/344 345/345/345
f 321/321/321 343/343/343 346/346/346
f 322/322/322 321/321/321 346/346/346
f 298/298/298 322/322/322 325/325/325
f 343/343/343 347/347/347 344/344/344
f 235/235/235 278/278/278 277/277/277
f 193/193/193 243/243/243 194/194/194
f 193/193/193 138/138/138 137/137/137
f 203/203/203 199/199/199 143/143/143
f 75/75/75 138/138/138 143/143/143
f 138/138/138 75/75/75 74/74/74
f 74/74/74 137/137/137 138/138/138
f 203/203/203 208/208/208 202/202/202
f 99/99/99 94/94/94 95/95/95
f 160/160/160 153/153/153 154/154/154
f 99/99/99 98/98/98 105/105/105
f 112/112/112 56/56/56 51/51/51
f 105/105/105 112/112/112 111/111/111
f 48/48/48 51/51/51 112/112/112
f 51/51/51 50/50/50 119/119/119
f 55/55/55 119/119/119 50/50/50
f 55/55/55 51/51/51 23/23/23
f 55/55/55 23/23/23 26/26/26
f 26/26/26 54/54/54 55/55/55
f 30/30/30 31/31/31 38/38/38
f 13/13/13 30/30/30 38/38/38
f 26/26/26 9/9/9 25/25/25
f 103/103/103 167/167/167 110/110/110
f 118/118/118 109/109/109 103/103/103
f 26/26/26 54/54/54 25/25/25
f 25/25/25 53/53/53 54/54/54
f 49/49/49 109/109/109 53/53/53
f 53/53/53 24/24/24 49/49/49
f 25/25/25 24/24/24 53/53/53
f 174/174/174 173/173/173 109/109/109
f 21/21/21 49/49/49 24/24/24
f 12/12/12 11/11/11 9/9/9
f 332/332/332 308/308/308 309/309/309
f 332/332/332 341/341/341 317/317/317
f 231/231/231 223/223/223 230/230/230
f 230/230/230 223/223/223 222/222/222
f 205/205/205 258/258/258 210/210/210
f 252/252/252 204/204/204 253/253/253
f 257/257/257 253/253/253 204/204/204
f 203/203/203 252/252/252 256/256/256
f 222/222/222 215/215/215 223/223/223
f 164/164/164 230/230/230 222/222/222
f 230/230/230 164/164/164 237/237/237
f 267/267/267 266/266/266 261/261/261
f 267/267/267 222/222/222 272/272/272
f 272/272/272 230/230/230 281/281/281
f 237/237/237 281/281/281 230/230/230
f 294/294/294 295/295/295 296/296/296
f 295/295/295 260/260/260 296/296/296
f 209/209/209 204/204/204 214/214/214
f 256/256/256 208/208/208 203/203/203
f 341/341/341 340/340/340 317/317/317
f 180/180/180 187/187/187 181/181/181
f 314/314/314 315/315/315 281/281/281
f 287/287/287 306/306/306 281/281/281
f 77/77/77 82/82/82 76/76/76
f 205/205/205 210/210/210 152/152/152
f 214/214/214 215/215/215 209/209/209
f 214/214/214 209/209/209 221/221/221
f 148/148/148 152/152/152 87/87/87
f 92/92/92 152/152/152 158/158/158
f 158/158/158 97/97/97 92/92/92
f 209/209/209 204/204/204 203/203/203
f 203/203/203 208/208/208 209/209/209
f 151/151/151 208/208/208 203/203/203
f 151/151/151 156/156/156 214/214/214
f 108/108/108 163/163/163 170/170/170
f 163/163/163 101/101/101 108/108/108
f 163/163/163 157/157/157 156/156/156
f 156/156/156 162/162/162 163/163/163
f 162/162/162 100/100/100 163/163/163
f 96/96/96 47/47/47 91/91/91
f 47/47/47 96/96/96 95/95/95
f 116/116/116 125/125/125 187/187/187
f 188/188/188 181/181/181 187/187/187
f 188/188/188 187/187/187 126/126/126
f 60/60/60 134/134/134 68/68/68
f 60/60/60 68/68/68 29/29/29
f 178/178/178 177/177/177 185/185/185
f 115/115/115 108/108/108 170/170/170
f 100/100/100 107/107/107 108/108/108
f 114/114/114 115/115/115 107/107/107
f 130/130/130 58/58/58 123/123/123
f 32/32/32 33/33/33 40/40/40
f 5/5/5 3/3/3 6/6/6
f 329/329/329 304/304/304 328/328/328
f 303/303/303 329/329/329 328/328/328
f 251/251/251 246/246/246 201/201/201
f 260/260/260 255/255/255 259/259/259
f 211/211/211 206/206/206 212/212/212
f 212/212/212 206/206/206 207/207/207
f 301/301/301 302/302/302 310/310/310
f 225/225/225 234/234/234 233/233/233
f 194/194/194 138/138/138 193/193/193
f 146/146/146 203/203/203 202/202/202
f 203/203/203 146/146/146 143/143/143
f 147/147/147 143/143/143 146/146/146
f 145/145/145 201/201/201 141/141/141
f 142/142/142 141/141/141 137/137/137
f 202/202/202 207/207/207 150/150/150
f 207/207/207 206/206/206 202/202/202
f 150/150/150 207/207/207 212/212/212
f 212/212/212 154/154/154 150/150/150
f 155/155/155 154/154/154 150/150/150
f 95/95/95 99/99/99 100/100/100
f 151/151/151 156/156/156 95/95/95
f 85/85/85 45/45/45 90/90/90
f 45/45/45 85/85/85 43/43/43
f 89/89/89 88/88/88 84/84/84
f 94/94/94 89/89/89 90/90/90
f 155/155/155 150/150/150 94/94/94
f 155/155/155 94/94/94 99/99/99
f 93/93/93 94/94/94 150/150/150
f 99/99/99 94/94/94 93/93/93
f 94/94/94 93/93/93 88/88/88
f 202/202/202 201/201/201 206/206/206
f 207/207/207 211/211/211 154/154/154
f 154/154/154 161/161/161 212/212/212
f 161/161/161 160/160/160 168/168/168
f 145/145/145 83/83/83 88/88/88
f 93/93/93 94/94/94 98/98/98
f 106/106/106 113/113/113 107/107/107
f 113/113/113 121/121/121 114/114/114
f 99/99/99 107/107/107 106/106/106
f 175/175/175 111/111/111 176/176/176
f 105/105/105 99/99/99 106/106/106
f 103/103/103 110/110/110 118/118/118
f 24/24/24 21/21/21 7/7/7
f 358/358/358 351/351/351 332/332/332
f 350/350/350 351/351/351 358/358/358
f 351/351/351 358/358/358 359/359/359
f 332/332/332 351/351/351 359/359/359
f 324/324/324 351/351/351 332/332/332
f 358/358/358 332/332/332 331/331/331
f 363/363/363 340/340/340 359/359/359
f 363/363/363 359/359/359 358/358/358
f 359/359/359 340/340/340 341/341/341
f 359/359/359 341/341/341 332/332/332
f 341/341/341 340/340/340 331/331/331
f 341/341/341 331/331/331 332/332/332
f 340/340/340 362/362/362 358/358/358
f 340/340/340 358/358/358 331/331/331
f 332/332/332 308/308/308 341/341/341
f 309/309/309 308/308/308 317/317/317
f 308/308/308 317/317/317 341/341/341
f 362/362/362 363/363/363 358/358/358
f 339/339/339 363/363/363 362/362/362
f 340/340/340 363/363/363 339/339/339
f 339/339/339 362/362/362 338/338/338
f 315/315/315 307/307/307 306/306/306
f 315/315/315 306/306/306 338/338/338
f 289/289/289 307/307/307 315/315/315
f 238/238/238 232/232/232 231/231/231
f 232/232/232 239/239/239 231/231/231
f 224/224/224 223/223/223 232/232/232
f 232/232/232 231/231/231 224/224/224
f 231/231/231 223/223/223 224/224/224
f 223/223/223 215/215/215 216/216/216
f 238/238/238 231/231/231 239/239/239
f 361/361/361 362/362/362 357/357/357
f 361/361/361 357/357/357 356/356/356
f 178/178/178 171/171/171 172/172/172
f 338/338/338 362/362/362 361/361/361
f 356/356/356 339/339/339 338/338/338
f 338/338/338 339/339/339 315/315/315
f 338/338/338 330/330/330 356/356/356
f 356/356/356 338/338/338 361/361/361
f 330/330/330 337/337/337 338/338/338
f 330/330/330 338/338/338 306/306/306
f 330/330/330 305/305/305 338/338/338
f 314/314/314 338/338/338 305/305/305
f 306/306/306 314/314/314 305/305/305
f 323/323/323 330/330/330 306/306/306
f 323/323/323 306/306/306 305/305/305
f 305/305/305 306/306/306 307/307/307
f 305/305/305 307/307/307 282/282/282
f 300/300/300 323/323/323 305/305/305
f 300/300/300 330/330/330 323/323/323
f 300/300/300 305/305/305 330/330/330
f 245/245/245 244/244/244 249/249/249
f 245/245/245 249/249/249 250/250/250
f 245/245/245 250/250/250 196/196/196
f 245/245/245 196/196/196 244/244/244
f 253/253/253 254/254/254 250/250/250
f 253/253/253 250/250/250 249/249/249
f 253/253/253 258/258/258 254/254/254
f 258/258/258 253/253/253 257/257/257
f 200/200/200 250/250/250 254/254/254
f 200/200/200 254/254/254 205/205/205
f 205/205/205 254/254/254 258/258/258
f 248/248/248 249/249/249 244/244/244
f 248/248/248 244/244/244 243/243/243
f 293/293/293 249/249/249 248/248/248
f 249/249/249 293/293/293 253/253/253
f 293/293/293 248/248/248 252/252/252
f 293/293/293 252/252/252 253/253/253
f 252/252/252 256/256/256 253/253/253
f 256/256/256 257/257/257 253/253/253
f 256/256/256 252/252/252 257/257/257
f 257/257/257 252/252/252 253/253/253
f 307/307/307 289/289/289 240/240/240
f 307/307/307 240/240/240 282/282/282
f 305/305/305 282/282/282 273/273/273
f 305/305/305 273/273/273 300/300/300
f 273/273/273 282/282/282 238/238/238
f 267/267/267 272/272/272 231/231/231
f 267/267/267 231/231/231 230/230/230
f 271/271/271 300/300/300 272/272/272
f 271/271/271 272/272/272 267/267/267
f 238/238/238 231/231/231 272/272/272
f 238/238/238 272/272/272 273/273/273
f 230/230/230 222/222/222 267/267/267
f 281/281/281 306/306/306 305/305/305
f 280/280/280 281/281/281 305/305/305
f 280/280/280 305/305/305 300/300/300
f 271/271/271 272/272/272 281/281/281
f 271/271/271 281/281/281 280/280/280
f 266/266/266 267/267/267 272/272/272
f 266/266/266 272/272/272 271/271/271
f 258/258/258 257/257/257 261/261/261
f 258/258/258 261/261/261 262/262/262
f 266/266/266 267/267/267 262/262/262
f 266/266/266 262/262/262 261/261/261
f 215/215/215 262/262/262 222/222/222
f 222/222/222 262/262/262 267/267/267
f 215/215/215 210/210/210 258/258/258
f 215/215/215 258/258/258 262/262/262
f 214/214/214 267/267/267 261/261/261
f 231/231/231 164/164/164 222/222/222
f 231/231/231 222/222/222 230/230/230
f 272/272/272 222/222/222 230/230/230
f 297/297/297 266/266/266 261/261/261
f 297/297/297 261/261/261 296/296/296
f 222/222/222 214/214/214 215/215/215
f 261/261/261 294/294/294 296/296/296
f 297/297/297 300/300/300 266/266/266
f 297/297/297 296/296/296 266/266/266
f 295/295/295 294/294/294 256/256/256
f 257/257/257 256/256/256 294/294/294
f 257/257/257 294/294/294 261/261/261
f 256/256/256 260/260/260 295/295/295
f 256/256/256 261/261/261 260/260/260
f 296/296/296 260/260/260 261/261/261
f 296/296/296 261/261/261 266/266/266
f 266/266/266 300/300/300 271/271/271
f 270/270/270 265/265/265 299/299/299
f 257/257/257 204/204/204 209/209/209
f 257/257/257 261/261/261 256/256/256
f 319/319/319 317/317/317 340/340/340
f 319/319/319 320/320/320 317/317/317
f 317/317/317 316/316/316 339/339/339
f 317/317/317 339/339/339 340/340/340
f 319/319/319 292/292/292 320/320/320
f 292/292/292 290/290/290 317/317/317
f 292/292/292 317/317/317 320/320/320
f 316/316/316 289/289/289 315/315/315
f 316/316/316 315/315/315 339/339/339
f 289/289/289 316/316/316 290/290/290
f 339/339/339 342/342/342 340/340/340
f 319/319/319 340/340/340 339/339/339
f 319/319/319 339/339/339 315/315/315
f 315/315/315 318/318/318 319/319/319
f 315/315/315 291/291/291 319/319/319
f 291/291/291 292/292/292 319/319/319
f 318/318/318 315/315/315 339/339/339
f 318/318/318 339/339/339 342/342/342
f 339/339/339 315/315/315 342/342/342
f 315/315/315 318/318/318 342/342/342
f 288/288/288 291/291/291 315/315/315
f 292/292/292 289/289/289 290/290/290
f 241/241/241 239/239/239 240/240/240
f 241/241/241 240/240/240 289/289/289
f 291/291/291 289/289/289 292/292/292
f 288/288/288 291/291/291 292/292/292
f 289/289/289 291/291/291 288/288/288
f 289/289/289 288/288/288 241/241/241
f 240/240/240 241/241/241 288/288/288
f 239/239/239 238/238/238 240/240/240
f 172/172/172 231/231/231 180/180/180
f 238/238/238 180/180/180 231/231/231
f 180/180/180 186/186/186 179/179/179
f 180/180/180 179/179/179 172/172/172
f 186/186/186 187/187/187 180/180/180
f 179/179/179 180/180/180 238/238/238
f 238/238/238 240/240/240 288/288/288
f 238/238/238 230/230/230 231/231/231
f 185/185/185 186/186/186 179/179/179
f 124/124/124 185/185/185 179/179/179
f 124/124/124 179/179/179 186/186/186
f 190/190/190 187/187/187 186/186/186
f 191/191/191 187/187/187 190/190/190
f 190/190/190 132/132/132 191/191/191
f 190/190/190 186/186/186 189/189/189
f 314/314/314 315/315/315 338/338/338
f 314/314/314 306/306/306 315/315/315
f 306/306/306 287/287/287 314/314/314
f 287/287/287 288/288/288 315/315/315
f 281/281/281 287/287/287 315/315/315
f 314/314/314 287/287/287 281/281/281
f 281/281/281 287/287/287 288/288/288
f 281/281/281 238/238/238 288/288/288
f 237/237/237 238/238/238 281/281/281
f 238/238/238 237/237/237 230/230/230
f 237/237/237 238/238/238 231/231/231
f 178/178/178 238/238/238 237/237/237
f 178/178/178 185/185/185 179/179/179
f 178/178/178 179/179/179 238/238/238
f 171/171/171 178/178/178 237/237/237
f 171/171/171 237/237/237 164/164/164
f 231/231/231 230/230/230 237/237/237
f 170/170/170 178/178/178 171/171/171
f 189/189/189 186/186/186 185/185/185
f 195/195/195 244/244/244 196/196/196
f 144/144/144 140/140/140 196/196/196
f 144/144/144 196/196/196 200/200/200
f 144/144/144 200/200/200 205/205/205
f 144/144/144 205/205/205 148/148/148
f 250/250/250 200/200/200 196/196/196
f 196/196/196 200/200/200 195/195/195
f 195/195/195 140/140/140 139/139/139
f 196/196/196 140/140/140 195/195/195
f 77/77/77 139/139/139 140/140/140
f 82/82/82 77/77/77 140/140/140
f 82/82/82 140/140/140 144/144/144
f 87/87/87 82/82/82 144/144/144
f 139/139/139 77/77/77 76/76/76
f 82/82/82 81/81/81 76/76/76
f 139/139/139 138/138/138 195/195/195
f 195/195/195 194/194/194 244/244/244
f 138/138/138 194/194/194 195/195/195
f 76/76/76 138/138/138 139/139/139
f 138/138/138 76/76/76 75/75/75
f 152/152/152 158/158/158 148/148/148
f 152/152/152 148/148/148 205/205/205
f 158/158/158 152/152/152 210/210/210
f 172/172/172 165/165/165 164/164/164
f 172/172/172 164/164/164 231/231/231
f 171/171/171 164/164/164 165/165/165
f 215/215/215 164/164/164 158/158/158
f 214/214/214 221/221/221 164/164/164
f 214/214/214 164/164/164 215/215/215
f 221/221/221 163/163/163 164/164/164
f 163/163/163 170/170/170 171/171/171
f 164/164/164 163/163/163 157/157/157
f 164/164/164 157/157/157 158/158/158
f 157/157/157 163/163/163 158/158/158
f 102/102/102 158/158/158 163/163/163
f 163/163/163 101/101/101 102/102/102
f 102/102/102 97/97/97 158/158/158
f 144/144/144 148/148/148 87/87/87
f 81/81/81 82/82/82 87/87/87
f 86/86/86 81/81/81 87/87/87
f 87/87/87 92/92/92 91/91/91
f 87/87/87 91/91/91 86/86/86
f 97/97/97 96/96/96 92/92/92
f 96/96/96 91/91/91 92/92/92
f 101/101/101 97/97/97 102/102/102
f 97/97/97 101/101/101 96/96/96
f 209/209/209 208/208/208 214/214/214
f 208/208/208 151/151/151 214/214/214
f 214/214/214 156/156/156 157/157/157
f 203/203/203 147/147/147 151/151/151
f 214/214/214 163/163/163 221/221/221
f 221/221/221 170/170/170 163/163/163
f 163/163/163 214/214/214 157/157/157
f 101/101/101 163/163/163 100/100/100
f 156/156/156 95/95/95 100/100/100
f 156/156/156 100/100/100 162/162/162
f 46/46/46 91/91/91 47/47/47
f 90/90/90 156/156/156 151/151/151
f 151/151/151 90/90/90 95/95/95
f 95/95/95 156/156/156 90/90/90
f 101/101/101 100/100/100 96/96/96
f 45/45/45 46/46/46 47/47/47
f 47/47/47 95/95/95 45/45/45
f 100/100/100 95/95/95 96/96/96
f 47/47/47 95/95/95 100/100/100
f 75/75/75 76/76/76 81/81/81
f 75/75/75 81/81/81 80/80/80
f 42/42/42 81/81/81 86/86/86
f 86/86/86 44/44/44 42/42/42
f 80/80/80 81/81/81 42/42/42
f 41/41/41 80/80/80 42/42/42
f 43/43/43 41/41/41 42/42/42
f 43/43/43 42/42/42 44/44/44
f 46/46/46 44/44/44 86/86/86
f 46/46/46 86/86/86 91/91/91
f 45/45/45 43/43/43 44/44/44
f 45/45/45 44/44/44 46/46/46
f 43/43/43 80/80/80 41/41/41
f 188/188/188 126/126/126 116/116/116
f 188/188/188 116/116/116 181/181/181
f 181/181/181 116/116/116 180/180/180
f 191/191/191 133/133/133 126/126/126
f 191/191/191 126/126/126 187/187/187
f 133/133/133 134/134/134 126/126/126
f 125/125/125 66/66/66 132/132/132
f 125/125/125 132/132/132 187/187/187
f 66/66/66 125/125/125 126/126/126
f 66/66/66 126/126/126 67/67/67
f 133/133/133 68/68/68 134/134/134
f 68/68/68 126/126/126 60/60/60
f 67/67/67 126/126/126 68/68/68
f 35/35/35 67/67/67 68/68/68
f 35/35/35 68/68/68 29/29/29
f 132/132/132 124/124/124 186/186/186
f 132/132/132 186/186/186 187/187/187
f 132/132/132 133/133/133 191/191/191
f 65/65/65 132/132/132 66/66/66
f 67/67/67 68/68/68 133/133/133
f 36/36/36 29/29/29 68/68/68
f 67/67/67 36/36/36 68/68/68
f 36/36/36 67/67/67 35/35/35
f 66/66/66 67/67/67 133/133/133
f 66/66/66 133/133/133 132/132/132
f 132/132/132 73/73/73 66/66/66
f 67/67/67 66/66/66 73/73/73
f 35/35/35 66/66/66 67/67/67
f 34/34/34 35/35/35 67/67/67
f 66/66/66 34/34/34 67/67/67
f 66/66/66 35/35/35 34/34/34
f 66/66/66 33/33/33 34/34/34
f 177/177/177 178/178/178 170/170/170
f 115/115/115 170/170/170 178/178/178
f 177/177/177 184/184/184 185/185/185
f 189/189/189 131/131/131 190/190/190
f 131/131/131 123/123/123 124/124/124
f 131/131/131 124/124/124 132/132/132
f 190/190/190 131/131/131 132/132/132
f 65/65/65 131/131/131 132/132/132
f 185/185/185 131/131/131 189/189/189
f 184/184/184 123/123/123 185/185/185
f 123/123/123 131/131/131 185/185/185
f 123/123/123 130/130/130 131/131/131
f 130/130/130 65/65/65 131/131/131
f 34/34/34 59/59/59 65/65/65
f 34/34/34 65/65/65 66/66/66
f 59/59/59 34/34/34 28/28/28
f 59/59/59 34/34/34 33/33/33
f 59/59/59 33/33/33 65/65/65
f 65/65/65 59/59/59 58/58/58
f 65/65/65 58/58/58 131/131/131
f 65/65/65 130/130/130 58/58/58
f 59/59/59 28/28/28 58/58/58
f 59/59/59 58/58/58 64/64/64
f 59/59/59 64/64/64 28/28/28
f 64/64/64 58/58/58 28/28/28
f 33/33/33 28/28/28 64/64/64
f 28/28/28 33/33/33 32/32/32
f 28/28/28 32/32/32 64/64/64
f 123/123/123 184/184/184 177/177/177
f 115/115/115 123/123/123 177/177/177
f 177/177/177 170/170/170 108/108/108
f 115/115/115 177/177/177 108/108/108
f 100/100/100 108/108/108 101/101/101
f 100/100/100 114/114/114 107/107/107
f 115/115/115 114/114/114 123/123/123
f 115/115/115 123/123/123 58/58/58
f 123/123/123 114/114/114 122/122/122
f 123/123/123 129/129/129 130/130/130
f 64/64/64 58/58/58 130/130/130
f 63/63/63 64/64/64 130/130/130
f 63/63/63 130/130/130 129/129/129
f 129/129/129 71/71/71 63/63/63
f 114/114/114 107/107/107 108/108/108
f 114/114/114 108/108/108 52/52/52
f 106/106/106 107/107/107 114/114/114
f 106/106/106 114/114/114 113/113/113
f 58/58/58 52/52/52 115/115/115
f 57/57/57 114/114/114 52/52/52
f 64/64/64 57/57/57 52/52/52
f 64/64/64 52/52/52 58/58/58
f 121/121/121 114/114/114 57/57/57
f 62/62/62 121/121/121 57/57/57
f 62/62/62 57/57/57 64/64/64
f 65/65/65 33/33/33 66/66/66
f 33/33/33 64/64/64 32/32/32
f 40/40/40 32/32/32 72/72/72
f 72/72/72 64/64/64 63/63/63
f 71/71/71 72/72/72 63/63/63
f 70/70/70 62/62/62 64/64/64
f 72/72/72 32/32/32 64/64/64
f 71/71/71 70/70/70 64/64/64
f 71/71/71 64/64/64 32/32/32
f 39/39/39 71/71/71 32/32/32
f 39/39/39 32/32/32 40/40/40
f 39/39/39 40/40/40 72/72/72
f 39/39/39 72/72/72 71/71/71
f 33/33/33 16/16/16 40/40/40
f 16/16/16 40/40/40 19/19/19
f 18/18/18 39/39/39 40/40/40
f 18/18/18 40/40/40 19/19/19
f 3/3/3 19/19/19 15/15/15
f 19/19/19 5/5/5 18/18/18
f 17/17/17 39/39/39 18/18/18
f 19/19/19 18/18/18 6/6/6
f 5/5/5 3/3/3 2/2/2
f 18/18/18 5/5/5 6/6/6
f 5/5/5 18/18/18 17/17/17
f 335/335/335 328/328/328 336/336/336
f 328/328/328 335/335/335 355/355/355
f 354/354/354 328/328/328 355/355/355
f 355/355/355 327/327/327 354/354/354
f 327/327/327 355/355/355 335/335/335
f 360/360/360 335/335/335 328/328/328
f 360/360/360 328/328/328 354/354/354
f 303/303/303 304/304/304 329/329/329
f 303/303/303 328/328/328 304/304/304
f 303/303/303 336/336/336 328/328/328
f 336/336/336 313/313/313 328/328/328
f 313/313/313 303/303/303 328/328/328
f 299/299/299 303/303/303 304/304/304
f 303/303/303 278/278/278 304/304/304
f 311/311/311 335/335/335 336/336/336
f 311/311/311 336/336/336 303/303/303
f 311/311/311 303/303/303 312/312/312
f 303/303/303 277/277/277 312/312/312
f 327/327/327 354/354/354 349/349/349
f 348/348/348 353/353/353 354/354/354
f 360/360/360 354/354/354 353/353/353
f 311/311/311 334/334/334 327/327/327
f 311/311/311 327/327/327 335/335/335
f 334/334/334 354/354/354 327/327/327
f 353/353/353 334/334/334 360/360/360
f 334/334/334 335/335/335 360/360/360
f 243/243/243 242/242/242 248/248/248
f 247/247/247 248/248/248 242/242/242
f 251/251/251 252/252/252 248/248/248
f 251/251/251 248/248/248 247/247/247
f 252/252/252 251/251/251 255/255/255
f 242/242/242 246/246/246 247/247/247
f 251/251/251 247/247/247 246/246/246
f 197/197/197 201/201/201 246/246/246
f 251/251/251 201/201/201 207/207/207
f 251/251/251 207/207/207 255/255/255
f 304/304/304 270/270/270 299/299/299
f 279/279/279 270/270/270 304/304/304
f 278/278/278 279/279/279 304/304/304
f 277/277/277 303/303/303 269/269/269
f 277/277/277 269/269/269 236/236/236
f 236/236/236 269/269/269 228/228/228
f 269/269/269 265/265/265 264/264/264
f 264/264/264 265/265/265 260/260/260
f 228/228/228 269/269/269 264/264/264
f 228/228/228 264/264/264 219/219/219
f 270/270/270 229/229/229 265/265/265
f 278/278/278 270/270/270 279/279/279
f 278/278/278 228/228/228 270/270/270
f 252/252/252 255/255/255 256/256/256
f 260/260/260 256/256/256 255/255/255
f 260/260/260 265/265/265 213/213/213
f 260/260/260 259/259/259 264/264/264
f 212/212/212 219/219/219 264/264/264
f 212/212/212 264/264/264 259/259/259
f 213/213/213 265/265/265 220/220/220
f 213/213/213 208/208/208 256/256/256
f 213/213/213 256/256/256 260/260/260
f 213/213/213 220/220/220 219/219/219
f 219/219/219 212/212/212 259/259/259
f 219/219/219 259/259/259 264/264/264
f 211/211/211 218/218/218 264/264/264
f 211/211/211 264/264/264 259/259/259
f 255/255/255 207/207/207 211/211/211
f 255/255/255 211/211/211 259/259/259
f 229/229/229 220/220/220 265/265/265
f 228/228/228 220/220/220 229/229/229
f 228/228/228 229/229/229 270/270/270
f 228/228/228 278/278/278 236/236/236
f 228/228/228 219/219/219 220/220/220
f 213/213/213 219/219/219 212/212/212
f 219/219/219 264/264/264 263/263/263
f 219/219/219 263/263/263 228/228/228
f 228/228/228 268/268/268 236/236/236
f 268/268/268 228/228/228 263/263/263
f 212/212/212 219/219/219 218/218/218
f 218/218/218 211/211/211 212/212/212
f 227/227/227 219/219/219 228/228/228
f 227/227/227 268/268/268 218/218/218
f 227/227/227 226/226/226 277/277/277
f 227/227/227 277/277/277 268/268/268
f 277/277/277 226/226/226 276/276/276
f 206/206/206 207/207/207 201/201/201
f 206/206/206 211/211/211 207/207/207
f 264/264/264 218/218/218 263/263/263
f 263/263/263 218/218/218 268/268/268
f 235/235/235 228/228/228 278/278/278
f 235/235/235 227/227/227 228/228/228
f 227/227/227 218/218/218 219/219/219
f 217/217/217 227/227/227 218/218/218
f 217/217/217 226/226/226 227/227/227
f 234/234/234 227/227/227 235/235/235
f 234/234/234 226/226/226 227/227/227
f 347/347/347 353/353/353 348/348/348
f 326/326/326 347/347/347 348/348/348
f 326/326/326 348/348/348 353/353/353
f 343/343/343 347/347/347 346/346/346
f 346/346/346 347/347/347 322/322/322
f 347/347/347 346/346/346 352/352/352
f 352/352/352 334/334/334 353/353/353
f 326/326/326 333/333/333 334/334/334
f 326/326/326 334/334/334 352/352/352
f 352/352/352 353/353/353 347/347/347
f 326/326/326 325/325/325 322/322/322
f 326/326/326 322/322/322 347/347/347
f 302/302/302 326/326/326 334/334/334
f 302/302/302 334/334/334 311/311/311
f 310/310/310 333/333/333 326/326/326
f 310/310/310 326/326/326 301/301/301
f 310/310/310 311/311/311 334/334/334
f 310/310/310 334/334/334 333/333/333
f 301/301/301 326/326/326 325/325/325
f 322/322/322 352/352/352 346/346/346
f 352/352/352 322/322/322 325/325/325
f 352/352/352 325/325/325 326/326/326
f 326/326/326 298/298/298 325/325/325
f 298/298/298 326/326/326 302/302/302
f 298/298/298 302/302/302 301/301/301
f 301/301/301 302/302/302 274/274/274
f 322/322/322 301/301/301 325/325/325
f 298/298/298 301/301/301 322/322/322
f 276/276/276 225/225/225 275/275/275
f 275/275/275 225/225/225 233/233/233
f 274/274/274 283/283/283 301/301/301
f 275/275/275 274/274/274 302/302/302
f 335/335/335 312/312/312 336/336/336
f 312/312/312 313/313/313 336/336/336
f 313/313/313 286/286/286 303/303/303
f 312/312/312 286/286/286 313/313/313
f 285/285/285 286/286/286 312/312/312
f 311/311/311 312/312/312 335/335/335
f 334/334/334 311/311/311 335/335/335
f 276/276/276 311/311/311 312/312/312
f 311/311/311 276/276/276 275/275/275
f 311/311/311 284/284/284 312/312/312
f 286/286/286 278/278/278 303/303/303
f 285/285/285 278/278/278 286/286/286
f 277/277/277 278/278/278 236/236/236
f 285/285/285 277/277/277 278/278/278
f 276/276/276 312/312/312 277/277/277
f 284/284/284 285/285/285 312/312/312
f 284/284/284 276/276/276 285/285/285
f 285/285/285 276/276/276 235/235/235
f 285/285/285 235/235/235 277/277/277
f 276/276/276 234/234/234 235/235/235
f 234/234/234 276/276/276 284/284/284
f 302/302/302 311/311/311 275/275/275
f 310/310/310 283/283/283 311/311/311
f 310/310/310 301/301/301 283/283/283
f 284/284/284 283/283/283 276/276/276
f 283/283/283 284/284/284 311/311/311
f 234/234/234 276/276/276 275/275/275
f 275/275/275 276/276/276 283/283/283
f 275/275/275 283/283/283 310/310/310
f 275/275/275 283/283/283 274/274/274
f 233/233/233 234/234/234 275/275/275
f 242/242/242 243/243/243 193/193/193
f 137/137/137 192/192/192 193/193/193
f 143/143/143 147/147/147 203/203/203
f 193/193/193 197/197/197 198/198/198
f 75/75/75 143/143/143 80/80/80
f 143/143/143 138/138/138 137/137/137
f 80/80/80 74/74/74 75/75/75
f 80/80/80 79/79/79 74/74/74
f 79/79/79 74/74/74 137/137/137
f 142/142/142 137/137/137 74/74/74
f 142/142/142 74/74/74 79/79/79
f 193/193/193 197/197/197 246/246/246
f 193/193/193 246/246/246 242/242/242
f 192/192/192 197/197/197 193/193/193
f 192/192/192 137/137/137 136/136/136
f 192/192/192 136/136/136 197/197/197
f 197/197/197 136/136/136 141/141/141
f 197/197/197 141/141/141 201/201/201
f 141/141/141 136/136/136 137/137/137
f 141/141/141 142/142/142 79/79/79
f 141/141/141 79/79/79 78/78/78
f 78/78/78 83/83/83 141/141/141
f 208/208/208 207/207/207 202/202/202
f 207/207/207 208/208/208 212/212/212
f 150/150/150 151/151/151 147/147/147
f 150/150/150 147/147/147 146/146/146
f 151/151/151 150/150/150 155/155/155
f 202/202/202 150/150/150 146/146/146
f 100/100/100 106/106/106 107/107/107
f 99/99/99 106/106/106 100/100/100
f 85/85/85 90/90/90 84/84/84
f 89/89/89 84/84/84 90/90/90
f 155/155/155 94/94/94 156/156/156
f 155/155/155 156/156/156 151/151/151
f 94/94/94 95/95/95 156/156/156
f 95/95/95 94/94/94 90/90/90
f 95/95/95 90/90/90 45/45/45
f 89/89/89 94/94/94 88/88/88
f 94/94/94 99/99/99 98/98/98
f 206/206/206 207/207/207 154/154/154
f 212/212/212 206/206/206 154/154/154
f 211/211/211 206/206/206 154/154/154
f 149/149/149 154/154/154 206/206/206
f 206/206/206 201/201/201 145/145/145
f 149/149/149 206/206/206 145/145/145
f 154/154/154 211/211/211 161/161/161
f 161/161/161 98/98/98 154/154/154
f 161/161/161 211/211/211 160/160/160
f 160/160/160 211/211/211 154/154/154
f 168/168/168 169/169/169 161/161/161
f 161/161/161 160/160/160 154/154/154
f 161/161/161 154/154/154 93/93/93
f 98/98/98 105/105/105 168/168/168
f 98/98/98 168/168/168 161/161/161
f 161/161/161 93/93/93 98/98/98
f 83/83/83 145/145/145 141/141/141
f 88/88/88 149/149/149 145/145/145
f 88/88/88 93/93/93 149/149/149
f 78/78/78 79/79/79 84/84/84
f 78/78/78 84/84/84 83/83/83
f 88/88/88 83/83/83 84/84/84
f 93/93/93 155/155/155 150/150/150
f 93/93/93 150/150/150 154/154/154
f 93/93/93 154/154/154 149/149/149
f 93/93/93 154/154/154 98/98/98
f 99/99/99 93/93/93 98/98/98
f 80/80/80 43/43/43 85/85/85
f 84/84/84 79/79/79 80/80/80
f 80/80/80 85/85/85 84/84/84
f 168/168/168 167/167/167 160/160/160
f 167/167/167 160/160/160 159/159/159
f 122/122/122 114/114/114 121/121/121
f 107/107/107 113/113/113 114/114/114
f 105/105/105 113/113/113 106/106/106
f 112/112/112 121/121/121 113/113/113
f 129/129/129 122/122/122 121/121/121
f 121/121/121 128/128/128 129/129/129
f 121/121/121 120/120/120 128/128/128
f 128/128/128 120/120/120 127/127/127
f 61/61/61 62/62/62 128/128/128
f 61/61/61 128/128/128 127/127/127
f 99/99/99 100/100/100 107/107/107
f 112/112/112 106/106/106 113/113/113
f 56/56/56 112/112/112 121/121/121
f 56/56/56 121/121/121 62/62/62
f 62/62/62 61/61/61 56/56/56
f 169/169/169 105/105/105 161/161/161
f 105/105/105 98/98/98 161/161/161
f 169/169/169 112/112/112 105/105/105
f 113/113/113 105/105/105 112/112/112
f 169/169/169 175/175/175 176/176/176
f 175/175/175 169/169/169 168/168/168
f 176/176/176 111/111/111 112/112/112
f 112/112/112 169/169/169 176/176/176
f 175/175/175 119/119/119 111/111/111
f 105/105/105 104/104/104 168/168/168
f 111/111/111 104/104/104 105/105/105
f 111/111/111 168/168/168 104/104/104
f 112/112/112 111/111/111 119/119/119
f 111/111/111 174/174/174 168/168/168
f 120/120/120 121/121/121 112/112/112
f 120/120/120 61/61/61 127/127/127
f 119/119/119 120/120/120 112/112/112
f 119/119/119 56/56/56 120/120/120
f 112/112/112 105/105/105 106/106/106
f 112/112/112 51/51/51 105/105/105
f 51/51/51 120/120/120 112/112/112
f 51/51/51 48/48/48 105/105/105
f 48/48/48 112/112/112 105/105/105
f 119/119/119 112/112/112 51/51/51
f 56/56/56 120/120/120 51/51/51
f 61/61/61 27/27/27 56/56/56
f 56/56/56 61/61/61 120/120/120
f 55/55/55 50/50/50 51/51/51
f 30/30/30 27/27/27 61/61/61
f 56/56/56 112/112/112 120/120/120
f 55/55/55 56/56/56 119/119/119
f 27/27/27 23/23/23 51/51/51
f 27/27/27 51/51/51 56/56/56
f 55/55/55 27/27/27 56/56/56
f 26/26/26 27/27/27 55/55/55
f 27/27/27 26/26/26 23/23/23
f 128/128/128 70/70/70 71/71/71
f 128/128/128 71/71/71 129/129/129
f 70/70/70 128/128/128 135/135/135
f 128/128/128 62/62/62 70/70/70
f 61/61/61 62/62/62 70/70/70
f 31/31/31 61/61/61 70/70/70
f 31/31/31 70/70/70 71/71/71
f 39/39/39 71/71/71 70/70/70
f 70/70/70 38/38/38 39/39/39
f 38/38/38 31/31/31 71/71/71
f 38/38/38 71/71/71 39/39/39
f 39/39/39 17/17/17 38/38/38
f 69/69/69 37/37/37 70/70/70
f 37/37/37 38/38/38 70/70/70
f 39/39/39 20/20/20 18/18/18
f 39/39/39 38/38/38 18/18/18
f 62/62/62 61/61/61 69/69/69
f 62/62/62 69/69/69 70/70/70
f 61/61/61 37/37/37 69/69/69
f 61/61/61 31/31/31 30/30/30
f 37/37/37 61/61/61 30/30/30
f 38/38/38 37/37/37 30/30/30
f 22/22/22 23/23/23 26/26/26
f 22/22/22 9/9/9 23/23/23
f 23/23/23 9/9/9 26/26/26
f 26/26/26 12/12/12 9/9/9
f 26/26/26 9/9/9 22/22/22
f 17/17/17 14/14/14 13/13/13
f 17/17/17 13/13/13 38/38/38
f 37/37/37 17/17/17 38/38/38
f 38/38/38 17/17/17 18/18/18
f 17/17/17 4/4/4 5/5/5
f 2/2/2 4/4/4 1/1/1
f 5/5/5 4/4/4 2/2/2
f 14/14/14 4/4/4 17/17/17
f 13/13/13 37/37/37 30/30/30
f 13/13/13 17/17/17 37/37/37
f 175/175/175 168/168/168 174/174/174
f 167/167/167 174/174/174 168/168/168
f 183/183/183 119/119/119 175/175/175
f 183/183/183 175/175/175 182/182/182
f 182/182/182 175/175/175 174/174/174
f 119/119/119 110/110/110 174/174/174
f 119/119/119 174/174/174 111/111/111
f 174/174/174 110/110/110 167/167/167
f 119/119/119 118/118/118 110/110/110
f 119/119/119 183/183/183 118/118/118
f 118/118/118 183/183/183 182/182/182
f 118/118/118 119/119/119 55/55/55
f 54/54/54 119/119/119 118/118/118
f 118/118/118 182/182/182 174/174/174
f 118/118/118 174/174/174 117/117/117
f 53/53/53 54/54/54 118/118/118
f 117/117/117 118/118/118 55/55/55
f 117/117/117 55/55/55 54/54/54
f 54/54/54 55/55/55 119/119/119
f 117/117/117 54/54/54 53/53/53
f 167/167/167 173/173/173 174/174/174
f 173/173/173 167/167/167 166/166/166
f 117/117/117 174/174/174 109/109/109
f 166/166/166 167/167/167 103/103/103
f 109/109/109 173/173/173 166/166/166
f 109/109/109 166/166/166 103/103/103
f 117/117/117 109/109/109 118/118/118
f 117/117/117 53/53/53 118/118/118
f 117/117/117 109/109/109 49/49/49
f 117/117/117 53/53/53 109/109/109
f 24/24/24 25/25/25 54/54/54
f 24/24/24 54/54/54 53/53/53
f 53/53/53 117/117/117 49/49/49
f 21/21/21 24/24/24 53/53/53
f 21/21/21 53/53/53 49/49/49
f 26/26/26 11/11/11 12/12/12
f 9/9/9 8/8/8 11/11/11
f 9/9/9 11/11/11 25/25/25
f 11/11/11 8/8/8 7/7/7
f 11/11/11 7/7/7 25/25/25
f 25/25/25 24/24/24 10/10/10
f 25/25/25 10/10/10 11/11/11
f 7/7/7 24/24/24 25/25/25
f 7/7/7 11/11/11 10/10/10
f 7/7/7 10/10/10 24/24/24
f 26/26/26 25/25/25 11/11/11
